<svg viewBox="10 10 52 52" xmlns="http://www.w3.org/2000/svg">
  <defs>
    <linearGradient id="yellow-gradient" x1="0%" x2="0%" y1="0%" y2="100%">
      <stop offset="0%" style="stop-color:#FDE02F;stop-opacity:1;"/>
      <stop offset="100%" style="stop-color:#F7B209;stop-opacity:1;"/>
    </linearGradient>
  </defs>
  <g id="color">
    <rect fill="#d0cfce" height="47.834" width="48" x="11.75" y="12.4163"/>
  </g>
  <g id="line">
    <rect fill="none" height="48" stroke="#000" stroke-linecap="round" stroke-linejoin="round" stroke-width="2" width="48" x="12" y="12.1663"/>
    <path d="M31.3392,40.518h0a4.3461,4.3461,0,0,0,4.3459,4.3459h.63a4.3459,4.3459,0,0,0,4.3459-4.3459h0a4.346,4.346,0,0,0-4.3459-4.3459h-.63A4.3462,4.3462,0,0,0,31.3392,40.518Z" fill="none" stroke="#000" stroke-linecap="round" stroke-linejoin="round" stroke-width="2"/>
    <path d="M31.3392,31.8143h0A4.346,4.346,0,0,0,35.6851,36.16h.63a4.3458,4.3458,0,0,0,4.3459-4.3459h0a4.3458,4.3458,0,0,0-4.3459-4.3456h-.63A4.346,4.346,0,0,0,31.3392,31.8143Z" fill="none" stroke="#000" stroke-linecap="round" stroke-linejoin="round" stroke-width="2"/>
  </g>
</svg>