<svg viewBox="6 6 60 60" xmlns="http://www.w3.org/2000/svg">
  <defs>
    <linearGradient id="yellow-gradient" x1="0%" x2="0%" y1="0%" y2="100%">
      <stop offset="0%" style="stop-color:#FDE02F;stop-opacity:1;"/>
      <stop offset="100%" style="stop-color:#F7B209;stop-opacity:1;"/>
    </linearGradient>
  </defs>
  <g id="color">
    <circle cx="36" cy="36" fill="#fff" fill-rule="evenodd" paint-order="normal" r="26.68"/>
  </g>
  <g id="line">
    <circle cx="36" cy="36" fill="none" paint-order="normal" r="26.68" stroke="#000" stroke-linecap="round" stroke-linejoin="round" stroke-width="4.74"/>
    <path d="m54.49 54.46-36.46-36.46 0.4581-0.4581" fill="none" stroke="#000" stroke-linejoin="round" stroke-width="4.74"/>
    <g clip-rule="evenodd" fill-rule="evenodd" stroke-linecap="round" stroke-linejoin="round" stroke-miterlimit="10" transform="matrix(3.164 0 0 3.164 42.88 42.66)">
      <path d="m0-4.844c-0.205-0.798-1.091-1.397-2.153-1.397-1.214 0-2.198 0.783-2.198 1.75 0 0.966 0.956 1.963 2.176 2.385 1.22 0.4217 2.201 1.33 2.176 2.385-0.02336 0.9667-0.984 1.75-2.198 1.75-1.062 0-1.948-0.6-2.153-1.398" fill="none" stroke="#000" stroke-width="2"/>
    </g>
    <g clip-rule="evenodd" fill-rule="evenodd" stroke-linecap="round" stroke-linejoin="round" stroke-miterlimit="10" transform="matrix(0 -3.164 -3.164 0 38.64 20.28)">
      <path d="m-0.834 0.834h1.668" fill="none" stroke="#000" stroke-width="2"/>
    </g>
    <g clip-rule="evenodd" fill-rule="evenodd" stroke-linecap="round" stroke-linejoin="round" stroke-miterlimit="10" transform="matrix(0 -3.164 -3.164 0 38.64 51.72)">
      <path d="m-0.834 0.834h1.668" fill="none" stroke="#000" stroke-width="2"/>
    </g>
  </g>
</svg>