<svg viewBox="6 6 60 60" xmlns="http://www.w3.org/2000/svg">
  <defs>
    <linearGradient id="yellow-gradient" x1="0%" x2="0%" y1="0%" y2="100%">
      <stop offset="0%" style="stop-color:#FDE02F;stop-opacity:1;"/>
      <stop offset="100%" style="stop-color:#F7B209;stop-opacity:1;"/>
    </linearGradient>
  </defs>
  <g id="color">
    <circle cx="36" cy="36" fill="#fff" fill-rule="evenodd" paint-order="normal" r="26.68"/>
  </g>
  <g id="line">
    <circle cx="36" cy="36" fill="none" paint-order="normal" r="26.68" stroke="#000" stroke-linecap="round" stroke-linejoin="round" stroke-width="4.74"/>
    <g transform="translate(12.46 12.26) scale(.6662)">
      <circle cx="35.4" cy="10.65" fill="#000" r="2.969" stroke="#000" stroke-miterlimit="10" stroke-width="2"/>
      <path d="m26.37 41.59 0.792-19c0.1444-2.78 2.425-4.969 5.208-5l5.964-5e-5c2.747 0.03103 5.027 2.22 5.172 5l0.792 19z" fill="#000" paint-order="normal" stroke="#000" stroke-linecap="round" stroke-linejoin="round" stroke-width="1.999"/>
      <path d="m40.37 23.59 1.9 38c0.055 1.1-0.575 2-1.4 2a2.076 2.076 0 0 1-1.729-1.987l-2.542-22.03c-0.129-1.093-0.679-1.987-1.229-1.987s-1.103 0.894-1.229 1.987l-2.539 22.03a2.076 2.076 0 0 1-1.729 1.987c-0.825 0-1.455-0.9-1.4-2l1.9-38" fill="#000" stroke="#000" stroke-linecap="round" stroke-linejoin="round" stroke-width="2"/>
    </g>
  </g>
</svg>