<svg viewBox="10 10 52 52" xmlns="http://www.w3.org/2000/svg">
  <defs>
    <linearGradient id="yellow-gradient" x1="0%" x2="0%" y1="0%" y2="100%">
      <stop offset="0%" style="stop-color:#FDE02F;stop-opacity:1;"/>
      <stop offset="100%" style="stop-color:#F7B209;stop-opacity:1;"/>
    </linearGradient>
  </defs>
  <g id="line-supplement">
    <g id="A_Button">
      <path d="M59.0349,60.1374h-46.07A.9679.9679,0,0,1,12,59.1723v-46.07a.9679.9679,0,0,1,.9651-.9651h46.07A.9679.9679,0,0,1,60,13.1025v46.07A.9679.9679,0,0,1,59.0349,60.1374Z" fill="none" stroke="#000" stroke-linejoin="round" stroke-width="2"/>
      <g>
        <polyline fill="none" points="45.429 46.313 36 24.313 26.571 46.313" stroke="#000" stroke-linecap="round" stroke-linejoin="round" stroke-width="2"/>
        <line fill="none" stroke="#000" stroke-linecap="round" stroke-linejoin="round" stroke-width="2" x1="29.7143" x2="42.2857" y1="41.0457" y2="41.0457"/>
      </g>
    </g>
  </g>
  <g id="color">
    <g id="color-2">
      <path d="M59.0349,60h-46.07A.9679.9679,0,0,1,12,59.0349v-46.07A.9679.9679,0,0,1,12.9651,12h46.07A.9679.9679,0,0,1,60,12.9651v46.07A.9679.9679,0,0,1,59.0349,60Z" fill="#d22f27"/>
    </g>
  </g>
  <g id="color-foreground">
    <g id="A_Button-2">
      <path d="M59.0349,60h-46.07A.9679.9679,0,0,1,12,59.0349v-46.07A.9679.9679,0,0,1,12.9651,12h46.07A.9679.9679,0,0,1,60,12.9651v46.07A.9679.9679,0,0,1,59.0349,60Z" fill="none" stroke="#fff" stroke-linejoin="round" stroke-width="2"/>
      <g>
        <polyline fill="none" points="45.429 46.176 36 24.176 26.571 46.176" stroke="#fff" stroke-linecap="round" stroke-linejoin="round" stroke-width="2"/>
        <line fill="none" stroke="#fff" stroke-linecap="round" stroke-linejoin="round" stroke-width="2" x1="29.7143" x2="42.2857" y1="40.9084" y2="40.9084"/>
      </g>
    </g>
  </g>
</svg>