<svg viewBox="10 10 52 52" xmlns="http://www.w3.org/2000/svg">
  <defs>
    <linearGradient id="yellow-gradient" x1="0%" x2="0%" y1="0%" y2="100%">
      <stop offset="0%" style="stop-color:#FDE02F;stop-opacity:1;"/>
      <stop offset="100%" style="stop-color:#F7B209;stop-opacity:1;"/>
    </linearGradient>
  </defs>
  <g id="line-supplement">
    <g id="CL_Button">
      <path d="M59.0349,60h-46.07A.9679.9679,0,0,1,12,59.0349v-46.07A.9679.9679,0,0,1,12.9651,12h46.07A.9679.9679,0,0,1,60,12.9651v46.07A.9679.9679,0,0,1,59.0349,60Z" fill="none" stroke="#000" stroke-linejoin="round" stroke-width="2"/>
      <path d="M32.07,42.5784a5.3144,5.3144,0,0,1-3.5383,1.3423h0a5.3343,5.3343,0,0,1-5.3342-5.3342V34.3192a5.3343,5.3343,0,0,1,5.3342-5.3342h0A5.3131,5.3131,0,0,1,32.07,30.3275" fill="none" stroke="#000" stroke-linecap="round" stroke-linejoin="round" stroke-width="2"/>
      <polyline fill="none" points="42.401 29.049 42.401 43.985 48.802 43.985" stroke="#000" stroke-linecap="round" stroke-linejoin="round" stroke-width="2"/>
    </g>
  </g>
  <g id="color">
    <g id="color-2">
      <path d="M59.0349,60.4528h-46.07A.9679.9679,0,0,1,12,59.4877v-46.07a.9679.9679,0,0,1,.9651-.9651h46.07A.9679.9679,0,0,1,60,13.4179v46.07A.9679.9679,0,0,1,59.0349,60.4528Z" fill="#d22f27"/>
    </g>
  </g>
  <g id="color-foreground">
    <path d="M59.0349,60h-46.07A.9679.9679,0,0,1,12,59.0349v-46.07A.9679.9679,0,0,1,12.9651,12h46.07A.9679.9679,0,0,1,60,12.9651v46.07A.9679.9679,0,0,1,59.0349,60Z" fill="none" stroke="#fff" stroke-linejoin="round" stroke-width="2"/>
    <path d="M32.07,42.5784a5.3144,5.3144,0,0,1-3.5383,1.3423h0a5.3343,5.3343,0,0,1-5.3342-5.3342V34.3192a5.3343,5.3343,0,0,1,5.3342-5.3342h0A5.3131,5.3131,0,0,1,32.07,30.3275" fill="none" stroke="#fff" stroke-linecap="round" stroke-linejoin="round" stroke-width="2"/>
    <polyline fill="none" points="42.401 29.049 42.401 43.985 48.802 43.985" stroke="#fff" stroke-linecap="round" stroke-linejoin="round" stroke-width="2"/>
  </g>
</svg>