<svg viewBox="10 10 52 52" xmlns="http://www.w3.org/2000/svg">
  <defs>
    <linearGradient id="yellow-gradient" x1="0%" x2="0%" y1="0%" y2="100%">
      <stop offset="0%" style="stop-color:#FDE02F;stop-opacity:1;"/>
      <stop offset="100%" style="stop-color:#F7B209;stop-opacity:1;"/>
    </linearGradient>
  </defs>
  <g id="color">
    <path d="M59.0349,60H12.9651 C12.4343,60,12,59.5657,12,59.0349V12.9651C12,12.4343,12.4343,12,12.9651,12h46.0698C59.5657,12,60,12.4343,60,12.9651v46.0698 C60,59.5657,59.5657,60,59.0349,60z" fill="#d0cfce" stroke-miterlimit="10" stroke-width="2"/>
  </g>
  <g id="line">
    <path d="M59.0349,60H12.9651 C12.4343,60,12,59.5657,12,59.0349V12.9651C12,12.4343,12.4343,12,12.9651,12h46.0698C59.5657,12,60,12.4343,60,12.9651v46.0698 C60,59.5657,59.5657,60,59.0349,60z" fill="none" stroke="#000" stroke-miterlimit="10" stroke-width="2"/>
    <line fill="none" stroke="#000" stroke-linecap="round" stroke-linejoin="round" stroke-miterlimit="10" stroke-width="3" x1="39.32" x2="39.32" y1="29.85" y2="42.15"/>
    <line fill="none" stroke="#000" stroke-linecap="round" stroke-linejoin="round" stroke-miterlimit="10" stroke-width="3" x1="39.32" x2="46.35" y1="37.83" y2="29.85"/>
    <line fill="none" stroke="#000" stroke-linecap="round" stroke-linejoin="round" stroke-miterlimit="10" stroke-width="3" x1="42.71" x2="46.92" y1="33.99" y2="42.15"/>
    <path d="m29.47 42.15v0c-2.426 0-4.393-1.967-4.393-4.393v-3.515c0-2.426 1.967-4.393 4.393-4.393v0c2.426 0 4.393 1.967 4.393 4.393v3.515c0 2.426-1.967 4.393-4.393 4.393z" fill="none" stroke="#000" stroke-linecap="round" stroke-linejoin="round" stroke-miterlimit="10" stroke-width="3"/>
  </g>
</svg>