<svg viewBox="0 0 72 72" xmlns="http://www.w3.org/2000/svg">
  <defs>
    <linearGradient id="yellow-gradient" x1="0%" x2="0%" y1="0%" y2="100%">
      <stop offset="0%" style="stop-color:#FDE02F;stop-opacity:1;"/>
      <stop offset="100%" style="stop-color:#F7B209;stop-opacity:1;"/>
    </linearGradient>
  </defs>
  <g id="color">
    <rect fill="#1e50a0" height="38" width="62" x="5" y="17"/>
    <g>
      <polygon fill="#fff" points="40 28.856 40 32 50.181 32 67 21.691 67 17 59.346 17 40 28.856"/>
      <polygon fill="#d22f27" points="67 17 67 17 63.173 17 40 31.203 40 32 43.482 32 67 17.586 67 17"/>
      <polygon fill="#fff" points="59.347 55 67 55 67 55 67 50.308 50.182 40 40 40 40 43.143 59.347 55"/>
      <polygon fill="#d22f27" points="67 55 67 52.653 46.355 40 41.568 40 66.042 55 67 55 67 55"/>
      <polygon fill="#fff" points="32 43.144 32 40 21.819 40 5 50.309 5 55 12.654 55 32 43.144"/>
      <polygon fill="#d22f27" points="5 55 5 55 8.827 55 32 40.797 32 40 28.518 40 5 54.414 5 55"/>
      <polygon fill="#fff" points="12.653 17 5 17 5 17 5 21.692 21.818 32 32 32 32 28.857 12.653 17"/>
      <polygon fill="#d22f27" points="5 17 5 19.347 25.646 32 30.432 32 5.958 17 5 17 5 17"/>
      <rect fill="#fff" height="10" width="62" x="5" y="31"/>
      <rect fill="#fff" height="38" width="10" x="31" y="17"/>
      <rect fill="#d22f27" height="6" width="62" x="5" y="33"/>
      <rect fill="#d22f27" height="38" width="6" x="33" y="17"/>
    </g>
  </g>
  <g id="line">
    <rect fill="none" height="38" stroke="#000" stroke-linecap="round" stroke-linejoin="round" stroke-width="2" width="62" x="5" y="17"/>
  </g>
</svg>