<svg viewBox="0 0 72 72" xmlns="http://www.w3.org/2000/svg">
  <defs>
    <linearGradient id="yellow-gradient" x1="0%" x2="0%" y1="0%" y2="100%">
      <stop offset="0%" style="stop-color:#FDE02F;stop-opacity:1;"/>
      <stop offset="100%" style="stop-color:#F7B209;stop-opacity:1;"/>
    </linearGradient>
  </defs>
  <g id="color">
    <rect fill="#5c9e31" height="38" width="62" x="5" y="17"/>
    <rect fill="#fff" height="12" width="62" x="5" y="30"/>
    <rect height="13" width="62" x="5" y="17"/>
    <polygon fill="#d22f27" points="26 36 5 55 5 17 26 36"/>
    <path d="M35.1216,36A4.0529,4.0529,0,0,1,38.5,32.0764,4.3955,4.3955,0,0,0,37.6892,32a4.0043,4.0043,0,1,0,0,8,4.3955,4.3955,0,0,0,.8108-.0764A4.0529,4.0529,0,0,1,35.1216,36Z" fill="#d22f27" stroke="#d22f27" stroke-linecap="round" stroke-linejoin="round"/>
    <polygon fill="#d22f27" points="38.707 38 40.035 34 41.18 37.939 38 35.565 42 35.467 38.707 38" stroke="#d22f27" stroke-linecap="round" stroke-linejoin="round"/>
  </g>
  <g id="line">
    <rect fill="none" height="38" stroke="#000" stroke-linecap="round" stroke-linejoin="round" stroke-width="2" width="62" x="5" y="17"/>
  </g>
</svg>