<svg viewBox="0 0 72 72" xmlns="http://www.w3.org/2000/svg">
  <defs>
    <linearGradient id="yellow-gradient" x1="0%" x2="0%" y1="0%" y2="100%">
      <stop offset="0%" style="stop-color:#FDE02F;stop-opacity:1;"/>
      <stop offset="100%" style="stop-color:#F7B209;stop-opacity:1;"/>
    </linearGradient>
  </defs>
  <g id="color">
    <rect fill="#d22f27" height="38" width="62" x="5" y="17"/>
    <rect fill="#5c9e31" height="13" width="62" x="5" y="17"/>
    <rect fill="#fff" height="12" width="62" x="5" y="30"/>
    <line fill="none" stroke="#d22f27" stroke-linecap="round" stroke-linejoin="round" x1="36" x2="36" y1="32" y2="40"/>
    <path d="M38,32a4,4,0,0,1,0,8" fill="none" stroke="#d22f27" stroke-linecap="round" stroke-linejoin="round"/>
    <path d="M36,40a4.0012,4.0012,0,0,0,1.2285-6.7678" fill="none" stroke="#d22f27" stroke-linecap="round" stroke-linejoin="round"/>
    <path d="M36,40a4.0013,4.0013,0,0,1-1.2284-6.7678" fill="none" stroke="#d22f27" stroke-linecap="round" stroke-linejoin="round"/>
    <path d="M34,32a4,4,0,0,0,0,8" fill="none" stroke="#d22f27" stroke-linecap="round" stroke-linejoin="round"/>
  </g>
  <g id="line">
    <rect fill="none" height="38" stroke="#000" stroke-linecap="round" stroke-linejoin="round" stroke-width="2" width="62" x="5" y="17"/>
  </g>
</svg>