<svg viewBox="0 0 72 72" xmlns="http://www.w3.org/2000/svg">
  <defs>
    <linearGradient id="yellow-gradient" x1="0%" x2="0%" y1="0%" y2="100%">
      <stop offset="0%" style="stop-color:#FDE02F;stop-opacity:1;"/>
      <stop offset="100%" style="stop-color:#F7B209;stop-opacity:1;"/>
    </linearGradient>
  </defs>
  <g id="color">
    <rect fill="#f1b31c" height="38" width="62" x="5" y="17"/>
    <rect fill="#5c9e31" height="13" width="62" x="5" y="42"/>
    <rect fill="#d22f27" height="13" width="62" x="5" y="17"/>
    <g>
      <ellipse cx="38.5" cy="33.2" rx="2.2" ry="1.2" transform="translate(-12.1996 36.9477) rotate(-45)"/>
      <ellipse cx="34.5" cy="33.2" rx="1.2" ry="2.2" transform="translate(-13.3711 34.1192) rotate(-45)"/>
      <ellipse cx="36.5" cy="36.8667" fill="#61b2e4" rx="2" ry="3.1333"/>
      <path d="M40,41a1,1,0,0,1-.707-1.707,1.725,1.725,0,0,0-.0059-2.5918,1,1,0,0,1,1.42-1.4082,3.7206,3.7206,0,0,1,0,5.414A.9967.9967,0,0,1,40,41Z" fill="#d22f27"/>
      <path d="M32.8887,41a.9971.9971,0,0,1-.7071-.293,3.7208,3.7208,0,0,1,0-5.414,1,1,0,0,1,1.419,1.41,1.7242,1.7242,0,0,0-.0049,2.59A1,1,0,0,1,32.8887,41Z" fill="#d22f27"/>
    </g>
  </g>
  <g id="line">
    <rect fill="none" height="38" stroke="#000" stroke-linecap="round" stroke-linejoin="round" stroke-width="2" width="62" x="5" y="17"/>
  </g>
</svg>