<svg viewBox="0 0 72 72" xmlns="http://www.w3.org/2000/svg">
  <defs>
    <linearGradient id="yellow-gradient" x1="0%" x2="0%" y1="0%" y2="100%">
      <stop offset="0%" style="stop-color:#FDE02F;stop-opacity:1;"/>
      <stop offset="100%" style="stop-color:#F7B209;stop-opacity:1;"/>
    </linearGradient>
  </defs>
  <g id="color">
    <rect fill="#fff" height="38" width="62" x="5" y="17"/>
    <rect fill="#1e50a0" height="8" width="62" x="5" y="32"/>
    <rect fill="#1e50a0" height="8" width="62" x="5" y="47"/>
    <rect fill="#1e50a0" height="8" width="62" x="5" y="17"/>
    <path d="m5 55-1e-6 -19 1e-6 -19 32.91 19-16.45 9.5z" fill="#d22f27"/>
    <path d="m19.5 39.74-4.253-0.8137-2.241 3.705-0.5402-4.296-4.216-0.9863 3.919-1.841-0.3648-4.314 2.962 3.158 3.991-1.68-2.088 3.793z" fill="#fff" stroke="#fff" stroke-linecap="round" stroke-linejoin="round" transform="rotate(-120 15.368 32.9) scale(.8682)"/>
  </g>
  <g id="line">
    <rect fill="none" height="38" stroke="#000" stroke-linecap="round" stroke-linejoin="round" stroke-width="2" width="62" x="5" y="17"/>
  </g>
</svg>