<svg viewBox="0 0 72 72" xmlns="http://www.w3.org/2000/svg">
  <defs>
    <linearGradient id="yellow-gradient" x1="0%" x2="0%" y1="0%" y2="100%">
      <stop offset="0%" style="stop-color:#FDE02F;stop-opacity:1;"/>
      <stop offset="100%" style="stop-color:#F7B209;stop-opacity:1;"/>
    </linearGradient>
  </defs>
  <g id="color">
    <rect fill="#1e50a0" height="38" width="62" x="5" y="17"/>
    <g>
      <polygon fill="#fff" points="9.887 18 6 18 6 20.332 32.113 36 36 36 36 33.668 9.887 18"/>
      <polygon fill="#fff" points="36 20.332 36 18 32.113 18 6 33.668 6 36 9.887 36 36 20.332"/>
      <rect fill="#fff" height="6" width="30" x="6" y="24"/>
      <rect fill="#fff" height="18" width="6" x="18" y="18"/>
      <rect fill="#d22f27" height="18" width="2" x="20" y="18"/>
      <rect fill="#d22f27" height="2" width="30" x="6" y="26"/>
      <polygon fill="#d22f27" points="36 33.668 29.887 30 26 30 36 36 36 35.999 36 33.668"/>
      <polygon fill="#d22f27" points="36 18 32.113 18 24 22.868 24 24 26.001 24 36 18.001 36 18"/>
      <polygon fill="#d22f27" points="6 20.332 12.113 24 16.001 24 6.001 18 6 18.001 6 20.332"/>
      <polygon fill="#d22f27" points="6 36 9.887 36 18 31.132 18 30 16 30 6 35.999 6 36"/>
    </g>
    <path d="M59,29v5c0,9-2.6667,13-8,15-5.3333-2-8-6-8-15V29Z" fill="#61b2e4"/>
    <path d="M59,29v5c0,9-2.6667,13-8,15-5.3333-2-8-6-8-15V29Z" fill="none" stroke="#fff" stroke-linecap="round" stroke-linejoin="round" stroke-width="2"/>
    <rect fill="none" height="2" stroke="#fff" stroke-linecap="round" stroke-linejoin="round" stroke-width="2" width="5" x="49" y="33"/>
    <line fill="none" stroke="#fff" stroke-linecap="round" stroke-linejoin="round" stroke-width="2" x1="54" x2="54" y1="35" y2="37"/>
    <line fill="none" stroke="#fff" stroke-linecap="round" stroke-linejoin="round" stroke-width="2" x1="49" x2="49" y1="35" y2="37"/>
    <line fill="none" stroke="#fff" stroke-linecap="round" stroke-linejoin="round" stroke-width="2" x1="47" x2="49" y1="33" y2="33"/>
    <path d="M44.035,40.115C45.035,40.548,45.945,40.925,47,41c2,0,2,-1,4,-1" stroke="#fff" stroke-linecap="round" stroke-linejoin="round" stroke-width="2"/>
    <path d="M45.721,44.814C46.142,44.978,46.579,44.971,47,45c2,0,2,-1,4,-1" fill="none" stroke="#fff" stroke-linecap="round" stroke-linejoin="round" stroke-width="2"/>
    <path d="M57.965,40.115C56.965,40.548,56.055,40.925,55,41c-2,0-2-1-4-1" stroke="#fff" stroke-linecap="round" stroke-linejoin="round" stroke-width="2"/>
    <path d="M56.279,44.814C55.858,44.978,55.421,44.971,55,45c-2,0-2-1-4-1" fill="none" stroke="#fff" stroke-linecap="round" stroke-linejoin="round" stroke-width="2"/>
  </g>
  <g id="line">
    <rect fill="none" height="38" stroke="#000" stroke-linecap="round" stroke-linejoin="round" stroke-width="2" width="62" x="5" y="17"/>
  </g>
</svg>