<svg viewBox="0 0 72 72" xmlns="http://www.w3.org/2000/svg">
  <defs>
    <linearGradient id="yellow-gradient" x1="0%" x2="0%" y1="0%" y2="100%">
      <stop offset="0%" style="stop-color:#FDE02F;stop-opacity:1;"/>
      <stop offset="100%" style="stop-color:#F7B209;stop-opacity:1;"/>
    </linearGradient>
  </defs>
  <g id="color">
    <rect fill="#fff" height="38" width="62" x="5" y="17"/>
    <polygon fill="#d22f27" points="67 33 39 33 39 17 33 17 33 33 5 33 5 39 33 39 33 55 39 55 39 39 67 39 67 33" stroke="#d22f27" stroke-miterlimit="10" stroke-width="2"/>
    <polygon fill="#d22f27" points="54.958 24.684 53.316 24.684 53.316 23 52.684 23 52.684 24.684 51.042 24.684 51.042 25.316 52.684 25.316 52.684 27 53.316 27 53.316 25.316 54.958 25.316 54.958 24.684" stroke="#d22f27" stroke-linecap="round" stroke-linejoin="round"/>
    <polygon fill="#d22f27" points="54.958 46.684 53.316 46.684 53.316 45 52.684 45 52.684 46.684 51.042 46.684 51.042 47.316 52.684 47.316 52.684 49 53.316 49 53.316 47.316 54.958 47.316 54.958 46.684" stroke="#d22f27" stroke-linecap="round" stroke-linejoin="round"/>
    <polygon fill="#d22f27" points="20.958 46.684 19.316 46.684 19.316 45 18.684 45 18.684 46.684 17.042 46.684 17.042 47.316 18.684 47.316 18.684 49 19.316 49 19.316 47.316 20.958 47.316 20.958 46.684" stroke="#d22f27" stroke-linecap="round" stroke-linejoin="round"/>
    <polygon fill="#d22f27" points="20.958 24.684 19.316 24.684 19.316 23 18.684 23 18.684 24.684 17.042 24.684 17.042 25.316 18.684 25.316 18.684 27 19.316 27 19.316 25.316 20.958 25.316 20.958 24.684" stroke="#d22f27" stroke-linecap="round" stroke-linejoin="round"/>
  </g>
  <g id="line">
    <rect fill="none" height="38" stroke="#000" stroke-linecap="round" stroke-linejoin="round" stroke-width="2" width="62" x="5" y="17"/>
  </g>
</svg>