<svg viewBox="0 0 72 72" xmlns="http://www.w3.org/2000/svg">
  <defs>
    <linearGradient id="yellow-gradient" x1="0%" x2="0%" y1="0%" y2="100%">
      <stop offset="0%" style="stop-color:#FDE02F;stop-opacity:1;"/>
      <stop offset="100%" style="stop-color:#F7B209;stop-opacity:1;"/>
    </linearGradient>
  </defs>
  <g id="color">
    <rect fill="#fff" height="38" width="62" x="5" y="17"/>
    <rect height="13" width="62" x="5" y="17"/>
    <polygon fill="#f1b31c" points="35.61 28.038 36 20 36.39 28.038 39.827 20.761 37.111 28.337 43.071 22.929 37.663 28.889 45.239 26.173 37.962 29.61 46 30 37.962 30.39 45.239 33.827 37.663 31.111 43.071 37.071 37.111 31.663 39.827 39.239 36.39 31.962 36 40 35.61 31.962 32.173 39.239 34.889 31.663 28.929 37.071 34.337 31.111 26.761 33.827 34.038 30.39 26 30 34.038 29.61 26.761 26.173 34.337 28.889 28.929 22.929 34.889 28.337 32.173 20.761 35.61 28.038" stroke="#f1b31c" stroke-linecap="round" stroke-linejoin="round" stroke-width="2"/>
    <rect fill="#1e50a0" height="12" width="62" x="5" y="30"/>
    <g>
      <polygon fill="#d22f27" points="5 55 36 55 5 17 5 55"/>
      <polygon fill="#d22f27" points="36 55 67 55 67 17 36 55"/>
    </g>
  </g>
  <g id="line">
    <rect fill="none" height="38" stroke="#000" stroke-linecap="round" stroke-linejoin="round" stroke-width="2" width="62" x="5" y="17"/>
  </g>
</svg>