<svg viewBox="0 0 72 72" xmlns="http://www.w3.org/2000/svg">
  <defs>
    <linearGradient id="yellow-gradient" x1="0%" x2="0%" y1="0%" y2="100%">
      <stop offset="0%" style="stop-color:#FDE02F;stop-opacity:1;"/>
      <stop offset="100%" style="stop-color:#F7B209;stop-opacity:1;"/>
    </linearGradient>
  </defs>
  <g id="color">
    <rect fill="#fff" height="38" width="62" x="5" y="17"/>
    <path d="M67,44a42.5886,42.5886,0,0,1-6.2,1c-1.5693-.0494-4.6308-1.0494-6.2-1s-4.6308,1.0494-6.2,1-4.6307-1.0494-6.2-1-4.6307,1.0494-6.2,1-4.6308-1.0492-6.2-1-4.6308,1.0481-6.2,1-4.6306-1.0415-6.2-1-4.63,1-6.2,1A50.8361,50.8361,0,0,1,5,44V42a50.8361,50.8361,0,0,0,6.2,1c1.57,0,4.6305-.9586,6.2-1s4.6308.9519,6.2,1,4.6308-.9508,6.2-1,4.6307.9506,6.2,1,4.6307-.9506,6.2-1,4.6307.9506,6.2,1,4.6307-.9506,6.2-1,4.6307.9506,6.2,1A42.5886,42.5886,0,0,0,67,42Z" fill="#fff"/>
    <path d="M67,46a42.5886,42.5886,0,0,1-6.2,1c-1.5693-.0494-4.6308-1.0494-6.2-1s-4.6308,1.0494-6.2,1-4.6307-1.0494-6.2-1-4.6307,1.0494-6.2,1-4.6308-1.0492-6.2-1-4.6308,1.0481-6.2,1-4.6306-1.0415-6.2-1-4.63,1-6.2,1A50.8361,50.8361,0,0,1,5,46V44a50.8361,50.8361,0,0,0,6.2,1c1.57,0,4.6305-.9586,6.2-1s4.6308.9519,6.2,1,4.6308-.9508,6.2-1,4.6307.9506,6.2,1,4.6307-.9506,6.2-1,4.6307.9506,6.2,1,4.6307-.9506,6.2-1,4.6307.9506,6.2,1A42.5886,42.5886,0,0,0,67,44Z" fill="#1e50a0"/>
    <path d="M67,48a42.5886,42.5886,0,0,1-6.2,1c-1.5693-.0494-4.6308-1.0494-6.2-1s-4.6308,1.0494-6.2,1-4.6307-1.0494-6.2-1-4.6307,1.0494-6.2,1-4.6308-1.0492-6.2-1-4.6308,1.0481-6.2,1-4.6306-1.0415-6.2-1-4.63,1-6.2,1A50.8361,50.8361,0,0,1,5,48V46a50.8361,50.8361,0,0,0,6.2,1c1.57,0,4.6305-.9586,6.2-1s4.6308.9519,6.2,1,4.6308-.9508,6.2-1,4.6307.9506,6.2,1,4.6307-.9506,6.2-1,4.6307.9506,6.2,1,4.6307-.9506,6.2-1,4.6307.9506,6.2,1A42.5886,42.5886,0,0,0,67,46Z" fill="#fff"/>
    <path d="M67,50a42.5886,42.5886,0,0,1-6.2,1c-1.5693-.0494-4.6308-1.0494-6.2-1s-4.6308,1.0494-6.2,1-4.6307-1.0494-6.2-1-4.6307,1.0494-6.2,1-4.6308-1.0492-6.2-1-4.6308,1.0481-6.2,1-4.6306-1.0415-6.2-1-4.63,1-6.2,1A50.8361,50.8361,0,0,1,5,50V48a50.8361,50.8361,0,0,0,6.2,1c1.57,0,4.6305-.9586,6.2-1s4.6308.9519,6.2,1,4.6308-.9508,6.2-1,4.6307.9506,6.2,1,4.6307-.9506,6.2-1,4.6307.9506,6.2,1,4.6307-.9506,6.2-1,4.6307.9506,6.2,1A42.5886,42.5886,0,0,0,67,48Z" fill="#1e50a0"/>
    <path d="M67,55s-4.6307-.9506-6.2-1-4.6308.9506-6.2,1-4.6308-.9506-6.2-1-4.6307.9506-6.2,1-4.6307-.9506-6.2-1-4.6308.9508-6.2,1-4.6308-.9519-6.2-1-4.6306.9585-6.2,1-4.63-1-6.2-1A50.8361,50.8361,0,0,0,5,55V51a50.8361,50.8361,0,0,0,6.2,1c1.57,0,4.6305-.9586,6.2-1s4.6308.9519,6.2,1,4.6308-.9508,6.2-1,4.6307.9506,6.2,1,4.6307-.9506,6.2-1,4.6307.9506,6.2,1,4.6307-.9506,6.2-1,4.6307.9506,6.2,1A42.5886,42.5886,0,0,0,67,51Z" fill="#1e50a0"/>
    <path d="M67,52a42.5886,42.5886,0,0,1-6.2,1c-1.5693-.0494-4.6308-1.0494-6.2-1s-4.6308,1.0494-6.2,1-4.6307-1.0494-6.2-1-4.6307,1.0494-6.2,1-4.6308-1.0492-6.2-1-4.6308,1.0481-6.2,1-4.6306-1.0415-6.2-1-4.63,1-6.2,1A50.8361,50.8361,0,0,1,5,52V50a50.8361,50.8361,0,0,0,6.2,1c1.57,0,4.6305-.9586,6.2-1s4.6308.9519,6.2,1,4.6308-.9508,6.2-1,4.6307.9506,6.2,1,4.6307-.9506,6.2-1,4.6307.9506,6.2,1,4.6307-.9506,6.2-1,4.6307.9506,6.2,1A42.5886,42.5886,0,0,0,67,50Z" fill="#fff"/>
    <path d="M67,38a42.5886,42.5886,0,0,1-6.2,1c-1.5693-.0494-4.6308-1.0494-6.2-1s-4.6308,1.0494-6.2,1-4.6307-1.0494-6.2-1-4.6307,1.0494-6.2,1-4.6308-1.0492-6.2-1-4.6308,1.0481-6.2,1-4.6306-1.0415-6.2-1-4.63,1-6.2,1A50.8361,50.8361,0,0,1,5,38V36a50.8361,50.8361,0,0,0,6.2,1c1.57,0,4.6305-.9586,6.2-1s4.6308.9519,6.2,1,4.6308-.9508,6.2-1,4.6307.9506,6.2,1,4.6307-.9506,6.2-1,4.6307.9506,6.2,1,4.6307-.9506,6.2-1,4.6307.9506,6.2,1A42.5886,42.5886,0,0,0,67,36Z" fill="#1e50a0"/>
    <path d="M67,40a42.5886,42.5886,0,0,1-6.2,1c-1.5693-.0494-4.6308-1.0494-6.2-1s-4.6308,1.0494-6.2,1-4.6307-1.0494-6.2-1-4.6307,1.0494-6.2,1-4.6308-1.0492-6.2-1-4.6308,1.0481-6.2,1-4.6306-1.0415-6.2-1-4.63,1-6.2,1A50.8361,50.8361,0,0,1,5,40V38a50.8361,50.8361,0,0,0,6.2,1c1.57,0,4.6305-.9586,6.2-1s4.6308.9519,6.2,1,4.6308-.9508,6.2-1,4.6307.9506,6.2,1,4.6307-.9506,6.2-1,4.6307.9506,6.2,1,4.6307-.9506,6.2-1,4.6307.9506,6.2,1A42.5886,42.5886,0,0,0,67,38Z" fill="#fff"/>
    <path d="M67,42a42.5886,42.5886,0,0,1-6.2,1c-1.5693-.0494-4.6308-1.0494-6.2-1s-4.6308,1.0494-6.2,1-4.6307-1.0494-6.2-1-4.6307,1.0494-6.2,1-4.6308-1.0492-6.2-1-4.6308,1.0481-6.2,1-4.6306-1.0415-6.2-1-4.63,1-6.2,1A50.8361,50.8361,0,0,1,5,42V40a50.8361,50.8361,0,0,0,6.2,1c1.57,0,4.6305-.9586,6.2-1s4.6308.9519,6.2,1,4.6308-.9508,6.2-1,4.6307.9506,6.2,1,4.6307-.9506,6.2-1,4.6307.9506,6.2,1,4.6307-.9506,6.2-1,4.6307.9506,6.2,1A42.5886,42.5886,0,0,0,67,40Z" fill="#1e50a0"/>
    <path d="M67,44a42.5886,42.5886,0,0,1-6.2,1c-1.5693-.0494-4.6308-1.0494-6.2-1s-4.6308,1.0494-6.2,1-4.6307-1.0494-6.2-1-4.6307,1.0494-6.2,1-4.6308-1.0492-6.2-1-4.6308,1.0481-6.2,1-4.6306-1.0415-6.2-1-4.63,1-6.2,1A50.8361,50.8361,0,0,1,5,44V42a50.8361,50.8361,0,0,0,6.2,1c1.57,0,4.6305-.9586,6.2-1s4.6308.9519,6.2,1,4.6308-.9508,6.2-1,4.6307.9506,6.2,1,4.6307-.9506,6.2-1,4.6307.9506,6.2,1,4.6307-.9506,6.2-1,4.6307.9506,6.2,1A42.5886,42.5886,0,0,0,67,42Z" fill="#fff"/>
    <path d="M67,30a42.5886,42.5886,0,0,1-6.2,1c-1.5693-.0494-4.6308-1.0494-6.2-1s-4.6308,1.0494-6.2,1-4.6307-1.0494-6.2-1-4.6307,1.0494-6.2,1-4.6308-1.0492-6.2-1-4.6308,1.0481-6.2,1-4.6306-1.0415-6.2-1-4.63,1-6.2,1A50.8361,50.8361,0,0,1,5,30V28a50.8361,50.8361,0,0,0,6.2,1c1.57,0,4.6305-.9586,6.2-1s4.6308.9519,6.2,1,4.6308-.9508,6.2-1,4.6307.9506,6.2,1,4.6307-.9506,6.2-1,4.6307.9506,6.2,1,4.6307-.9506,6.2-1,4.6307.9506,6.2,1A42.5886,42.5886,0,0,0,67,28Z" fill="#1e50a0"/>
    <path d="M67,32a42.5886,42.5886,0,0,1-6.2,1c-1.5693-.0494-4.6308-1.0494-6.2-1s-4.6308,1.0494-6.2,1-4.6307-1.0494-6.2-1-4.6307,1.0494-6.2,1-4.6308-1.0492-6.2-1-4.6308,1.0481-6.2,1-4.6306-1.0415-6.2-1-4.63,1-6.2,1A50.8361,50.8361,0,0,1,5,32V30a50.8361,50.8361,0,0,0,6.2,1c1.57,0,4.6305-.9586,6.2-1s4.6308.9519,6.2,1,4.6308-.9508,6.2-1,4.6307.9506,6.2,1,4.6307-.9506,6.2-1,4.6307.9506,6.2,1,4.6307-.9506,6.2-1,4.6307.9506,6.2,1A42.5886,42.5886,0,0,0,67,30Z" fill="#fff"/>
    <path d="M67,34a42.5886,42.5886,0,0,1-6.2,1c-1.5693-.0494-4.6308-1.0494-6.2-1s-4.6308,1.0494-6.2,1-4.6307-1.0494-6.2-1-4.6307,1.0494-6.2,1-4.6308-1.0492-6.2-1-4.6308,1.0481-6.2,1-4.6306-1.0415-6.2-1-4.63,1-6.2,1A50.8361,50.8361,0,0,1,5,34V32a50.8361,50.8361,0,0,0,6.2,1c1.57,0,4.6305-.9586,6.2-1s4.6308.9519,6.2,1,4.6308-.9508,6.2-1,4.6307.9506,6.2,1,4.6307-.9506,6.2-1,4.6307.9506,6.2,1,4.6307-.9506,6.2-1,4.6307.9506,6.2,1A42.5886,42.5886,0,0,0,67,32Z" fill="#1e50a0"/>
    <path d="M67,36a42.5886,42.5886,0,0,1-6.2,1c-1.5693-.0494-4.6308-1.0494-6.2-1s-4.6308,1.0494-6.2,1-4.6307-1.0494-6.2-1-4.6307,1.0494-6.2,1-4.6308-1.0492-6.2-1-4.6308,1.0481-6.2,1-4.6306-1.0415-6.2-1-4.63,1-6.2,1A50.8361,50.8361,0,0,1,5,36V34a50.8361,50.8361,0,0,0,6.2,1c1.57,0,4.6305-.9586,6.2-1s4.6308.9519,6.2,1,4.6308-.9508,6.2-1,4.6307.9506,6.2,1,4.6307-.9506,6.2-1,4.6307.9506,6.2,1,4.6307-.9506,6.2-1,4.6307.9506,6.2,1A42.5886,42.5886,0,0,0,67,34Z" fill="#fff"/>
    <path d="M67,22a42.5886,42.5886,0,0,1-6.2,1c-1.5693-.0494-4.6308-1.0494-6.2-1s-4.6308,1.0494-6.2,1-4.6307-1.0494-6.2-1-4.6307,1.0494-6.2,1-4.6308-1.0492-6.2-1-4.6308,1.0481-6.2,1-4.6306-1.0415-6.2-1-4.63,1-6.2,1A50.8361,50.8361,0,0,1,5,22V20a50.8361,50.8361,0,0,0,6.2,1c1.57,0,4.6305-.9586,6.2-1s4.6308.9519,6.2,1,4.6308-.9508,6.2-1,4.6307.9506,6.2,1,4.6307-.9506,6.2-1,4.6307.9506,6.2,1,4.6307-.9506,6.2-1,4.6307.9506,6.2,1A42.5886,42.5886,0,0,0,67,20Z" fill="#1e50a0"/>
    <path d="M67,24a42.5886,42.5886,0,0,1-6.2,1c-1.5693-.0494-4.6308-1.0494-6.2-1s-4.6308,1.0494-6.2,1-4.6307-1.0494-6.2-1-4.6307,1.0494-6.2,1-4.6308-1.0492-6.2-1-4.6308,1.0481-6.2,1-4.6306-1.0415-6.2-1-4.63,1-6.2,1A50.8361,50.8361,0,0,1,5,24V22a50.8361,50.8361,0,0,0,6.2,1c1.57,0,4.6305-.9586,6.2-1s4.6308.9519,6.2,1,4.6308-.9508,6.2-1,4.6307.9506,6.2,1,4.6307-.9506,6.2-1,4.6307.9506,6.2,1,4.6307-.9506,6.2-1,4.6307.9506,6.2,1A42.5886,42.5886,0,0,0,67,22Z" fill="#fff"/>
    <path d="M67,18a42.5886,42.5886,0,0,1-6.2,1c-1.5693-.0494-4.6308-1.0494-6.2-1s-4.6308,1.0494-6.2,1-4.6307-1.0494-6.2-1-4.6307,1.0494-6.2,1-4.6308-1.0492-6.2-1-4.6308,1.0481-6.2,1-4.6306-1.0415-6.2-1-4.63,1-6.2,1A50.8361,50.8361,0,0,1,5,18V16a50.8361,50.8361,0,0,0,6.2,1c1.57,0,4.6305-.9586,6.2-1s4.6308.9519,6.2,1,4.6308-.9508,6.2-1,4.6307.9506,6.2,1,4.6307-.9506,6.2-1,4.6307.9506,6.2,1,4.6307-.9506,6.2-1,4.6307.9506,6.2,1A42.5886,42.5886,0,0,0,67,16Z" fill="#1e50a0"/>
    <path d="M67,20a42.5886,42.5886,0,0,1-6.2,1c-1.5693-.0494-4.6308-1.0494-6.2-1s-4.6308,1.0494-6.2,1-4.6307-1.0494-6.2-1-4.6307,1.0494-6.2,1-4.6308-1.0492-6.2-1-4.6308,1.0481-6.2,1-4.6306-1.0415-6.2-1-4.63,1-6.2,1A50.8361,50.8361,0,0,1,5,20V18a50.8361,50.8361,0,0,0,6.2,1c1.57,0,4.6305-.9586,6.2-1s4.6308.9519,6.2,1,4.6308-.9508,6.2-1,4.6307.9506,6.2,1,4.6307-.9506,6.2-1,4.6307.9506,6.2,1,4.6307-.9506,6.2-1,4.6307.9506,6.2,1A42.5886,42.5886,0,0,0,67,18Z" fill="#fff"/>
    <path d="M67,26a42.5886,42.5886,0,0,1-6.2,1c-1.5693-.0494-4.6308-1.0494-6.2-1s-4.6308,1.0494-6.2,1-4.6307-1.0494-6.2-1-4.6307,1.0494-6.2,1-4.6308-1.0492-6.2-1-4.6308,1.0481-6.2,1-4.6306-1.0415-6.2-1-4.63,1-6.2,1A50.8361,50.8361,0,0,1,5,26V24a50.8361,50.8361,0,0,0,6.2,1c1.57,0,4.6305-.9586,6.2-1s4.6308.9519,6.2,1,4.6308-.9508,6.2-1,4.6307.9506,6.2,1,4.6307-.9506,6.2-1,4.6307.9506,6.2,1,4.6307-.9506,6.2-1,4.6307.9506,6.2,1A42.5886,42.5886,0,0,0,67,24Z" fill="#1e50a0"/>
    <path d="M67,28a42.5886,42.5886,0,0,1-6.2,1c-1.5693-.0494-4.6308-1.0494-6.2-1s-4.6308,1.0494-6.2,1-4.6307-1.0494-6.2-1-4.6307,1.0494-6.2,1-4.6308-1.0492-6.2-1-4.6308,1.0481-6.2,1-4.6306-1.0415-6.2-1-4.63,1-6.2,1A50.8361,50.8361,0,0,1,5,28V26a50.8361,50.8361,0,0,0,6.2,1c1.57,0,4.6305-.9586,6.2-1s4.6308.9519,6.2,1,4.6308-.9508,6.2-1,4.6307.9506,6.2,1,4.6307-.9506,6.2-1,4.6307.9506,6.2,1,4.6307-.9506,6.2-1,4.6307.9506,6.2,1A42.5886,42.5886,0,0,0,67,26Z" fill="#fff"/>
    <rect fill="#1e50a0" height="19" width="31" x="5" y="17"/>
    <g>
      <polygon fill="#fff" points="9.887 18 6 18 6 20.332 32.113 36 36 36 36 33.668 9.887 18"/>
      <polygon fill="#fff" points="36 20.332 36 18 32.113 18 6 33.668 6 36 9.887 36 36 20.332"/>
      <rect fill="#fff" height="6" width="30" x="6" y="24"/>
      <rect fill="#fff" height="18" width="6" x="18" y="18"/>
      <rect fill="#d22f27" height="18" width="2" x="20" y="18"/>
      <rect fill="#d22f27" height="2" width="30" x="6" y="26"/>
      <polygon fill="#d22f27" points="36 33.668 29.887 30 26 30 36 36 36 35.999 36 33.668"/>
      <polygon fill="#d22f27" points="36 18 32.113 18 24 22.868 24 24 26.001 24 36 18.001 36 18"/>
      <polygon fill="#d22f27" points="6 20.332 12.113 24 16.001 24 6.001 18 6 18.001 6 20.332"/>
      <polygon fill="#d22f27" points="6 36 9.887 36 18 31.132 18 30 16 30 6 35.999 6 36"/>
    </g>
  </g>
  <g id="line">
    <rect fill="none" height="38" stroke="#000" stroke-linecap="round" stroke-linejoin="round" stroke-width="2" width="62" x="5" y="17"/>
  </g>
</svg>