<svg viewBox="0 0 72 72" xmlns="http://www.w3.org/2000/svg">
  <defs>
    <linearGradient id="yellow-gradient" x1="0%" x2="0%" y1="0%" y2="100%">
      <stop offset="0%" style="stop-color:#FDE02F;stop-opacity:1;"/>
      <stop offset="100%" style="stop-color:#F7B209;stop-opacity:1;"/>
    </linearGradient>
  </defs>
  <g id="color">
    <rect fill="#61b2e4" height="38" width="62" x="5" y="17"/>
    <rect fill="#1e50a0" height="19" width="31" x="5" y="17"/>
    <path d="M52,48s6-1.9375,6-7.75V34.5H46v5.75C46,46.0625,52,48,52,48Z" fill="#d22f27"/>
    <rect fill="#fff" height="4" width="5" x="53" y="37"/>
    <rect fill="#fff" height="4" width="5" x="46" y="37"/>
    <path d="M51,47.5743V43H46.5118A9.0283,9.0283,0,0,0,51,47.5743Z" fill="#fff"/>
    <path d="M57.4882,43H53v4.5743A9.028,9.028,0,0,0,57.4882,43Z" fill="#fff"/>
    <rect fill="#d22f27" height="2" stroke="#d22f27" stroke-linecap="round" stroke-linejoin="round" width="11" x="46.5" y="34"/>
    <g>
      <polygon fill="#fff" points="9.887 18 6 18 6 20.332 32.113 36 36 36 36 33.668 9.887 18"/>
      <polygon fill="#fff" points="36 20.332 36 18 32.113 18 6 33.668 6 36 9.887 36 36 20.332"/>
      <rect fill="#fff" height="6" width="30" x="6" y="24"/>
      <rect fill="#fff" height="18" width="6" x="18" y="18"/>
      <rect fill="#d22f27" height="18" width="2" x="20" y="18"/>
      <rect fill="#d22f27" height="2" width="30" x="6" y="26"/>
      <polygon fill="#d22f27" points="36 33.668 29.887 30 26 30 36 36 36 35.999 36 33.668"/>
      <polygon fill="#d22f27" points="36 18 32.113 18 24 22.868 24 24 26.001 24 36 18.001 36 18"/>
      <polygon fill="#d22f27" points="6 20.332 12.113 24 16.001 24 6.001 18 6 18.001 6 20.332"/>
      <polygon fill="#d22f27" points="6 36 9.887 36 18 31.132 18 30 16 30 6 35.999 6 36"/>
    </g>
  </g>
  <g id="line">
    <rect fill="none" height="38" stroke="#000" stroke-linecap="round" stroke-linejoin="round" stroke-width="2" width="62" x="5" y="17"/>
  </g>
</svg>