<svg viewBox="0 0 72 72" xmlns="http://www.w3.org/2000/svg">
  <defs>
    <linearGradient id="yellow-gradient" x1="0%" x2="0%" y1="0%" y2="100%">
      <stop offset="0%" style="stop-color:#FDE02F;stop-opacity:1;"/>
      <stop offset="100%" style="stop-color:#F7B209;stop-opacity:1;"/>
    </linearGradient>
  </defs>
  <g id="color">
    <rect fill="#f1b31c" height="38" width="62" x="5" y="17"/>
    <rect fill="#1e50a0" height="38" width="21" x="5" y="17"/>
    <rect fill="#1e50a0" height="38" width="21" x="46" y="17"/>
    <g>
      <polygon id="_" points="33.415 29.501 36 26.712 38.585 29.501 37.943 30.096 36.439 28.467 36.439 45.288 35.561 45.288 35.561 28.467 34.057 30.096 33.415 29.501" stroke="#000" stroke-linecap="round" stroke-linejoin="round"/>
      <polygon id="_2" points="41.5 39.212 40.703 39.212 40.703 31.9 39.685 33.003 39.25 32.6 41.5 30.212 41.5 39.212" stroke="#000" stroke-linecap="round" stroke-linejoin="round"/>
      <polygon id="_3" points="30.5 30.212 32.75 32.6 32.315 33.003 31.297 31.9 31.297 39.212 30.5 39.212 30.5 30.212" stroke="#000" stroke-linecap="round" stroke-linejoin="round"/>
      <polygon id="_4" points="41.5 39.297 30.5 39.297 30.5 38.703 41.5 38.703 41.5 39.297" stroke="#000" stroke-linecap="round" stroke-linejoin="round"/>
    </g>
  </g>
  <g id="line">
    <rect fill="none" height="38" stroke="#000" stroke-linecap="round" stroke-linejoin="round" stroke-width="2" width="62" x="5" y="17"/>
  </g>
</svg>