<svg viewBox="0 0 72 72" xmlns="http://www.w3.org/2000/svg">
  <defs>
    <linearGradient id="yellow-gradient" x1="0%" x2="0%" y1="0%" y2="100%">
      <stop offset="0%" style="stop-color:#FDE02F;stop-opacity:1;"/>
      <stop offset="100%" style="stop-color:#F7B209;stop-opacity:1;"/>
    </linearGradient>
  </defs>
  <g id="color">
    <rect fill="#d22f27" height="38" width="62" x="5" y="17"/>
    <rect fill="#5c9e31" height="13" width="62" x="5" y="42"/>
    <rect fill="#61b2e4" height="13" width="62" x="5" y="17"/>
    <polygon fill="#fff" points="38.436 34.61 39.022 33 39.584 34.618 41.137 33.894 40.39 35.436 42 36.022 40.382 36.584 41.106 38.137 39.564 37.39 38.978 39 38.416 37.382 36.863 38.106 37.61 36.564 36 35.978 37.618 35.416 36.894 33.863 38.436 34.61" stroke="#fff" stroke-linecap="round" stroke-linejoin="round"/>
    <path d="M30.5307,36a4.0529,4.0529,0,0,1,3.3784-3.9236A4.3955,4.3955,0,0,0,33.0983,32a4.0043,4.0043,0,1,0,0,8,4.3955,4.3955,0,0,0,.8108-.0764A4.0529,4.0529,0,0,1,30.5307,36Z" fill="#fff" stroke="#fff" stroke-linecap="round" stroke-linejoin="round"/>
  </g>
  <g id="line">
    <rect fill="none" height="38" stroke="#000" stroke-linecap="round" stroke-linejoin="round" stroke-width="2" width="62" x="5" y="17"/>
  </g>
</svg>