<svg viewBox="0 0 72 72" xmlns="http://www.w3.org/2000/svg">
  <defs>
    <linearGradient id="yellow-gradient" x1="0%" x2="0%" y1="0%" y2="100%">
      <stop offset="0%" style="stop-color:#FDE02F;stop-opacity:1;"/>
      <stop offset="100%" style="stop-color:#F7B209;stop-opacity:1;"/>
    </linearGradient>
  </defs>
  <g id="color">
    <rect fill="#1e50a0" height="38" width="62" x="5" y="17"/>
    <rect fill="#fff" height="38" width="62" x="5" y="17"/>
    <rect fill="#61b2e4" height="13" width="62" x="5" y="42"/>
    <rect fill="#61b2e4" height="13" width="62" x="5" y="17"/>
    <polygon fill="#f1b31c" points="36 33.897 37.236 32 37.176 34.299 39.236 33.528 37.902 35.35 40 36 37.902 36.65 39.236 38.472 37.176 37.701 37.236 40 36 38.103 34.764 40 34.824 37.701 32.764 38.472 34.098 36.65 32 36 34.098 35.35 32.764 33.528 34.824 34.299 34.764 32 36 33.897" stroke="#f1b31c" stroke-linecap="round" stroke-linejoin="round"/>
  </g>
  <g id="line">
    <rect fill="none" height="38" stroke="#000" stroke-linecap="round" stroke-linejoin="round" stroke-width="2" width="62" x="5" y="17"/>
  </g>
</svg>