<svg viewBox="0 0 72 72" xmlns="http://www.w3.org/2000/svg">
  <defs>
    <linearGradient id="yellow-gradient" x1="0%" x2="0%" y1="0%" y2="100%">
      <stop offset="0%" style="stop-color:#FDE02F;stop-opacity:1;"/>
      <stop offset="100%" style="stop-color:#F7B209;stop-opacity:1;"/>
    </linearGradient>
  </defs>
  <g id="color">
    <rect fill="#fff" height="38" width="62" x="5" y="17"/>
    <polygon fill="#d22f27" points="67 20 67 17 63 17 5 52 5 55 9 55"/>
    <polygon fill="#d22f27" points="5 20 5 17 9 17 67 52 67 55 63 55"/>
    <path d="m38.74 22.34s0.2958 0.5821 0.2996 2.759c0.0038 2.177-0.9878 4.162-3.017 5.113-2.03-0.9514-3.071-2.972-3.071-5.113 0-2.141 0.3002-2.759 0.3002-2.759z" fill="#d22f27" stroke="#d22f27" stroke-linecap="round" stroke-linejoin="round" stroke-width="1.522"/>
    <path d="m32.66 19.96h6.683l-0.5663 1.193h-5.604z" fill="url(#yellow-gradient)" fill-rule="evenodd" paint-order="normal" stroke="url(#yellow-gradient)" stroke-linecap="round" stroke-linejoin="round" stroke-miterlimit="10" stroke-width="0.9856"/>
    <rect fill="url(#yellow-gradient)" fill-rule="evenodd" height="0.8682" paint-order="stroke fill markers" ry="0.0166" stroke="url(#yellow-gradient)" stroke-linecap="round" stroke-linejoin="round" stroke-miterlimit="10" stroke-width="0.6318" width="5.478" x="33.26" y="22.72"/>
    <rect fill="url(#yellow-gradient)" fill-rule="evenodd" height="0.8682" paint-order="stroke fill markers" ry="0.0166" stroke="url(#yellow-gradient)" stroke-linecap="round" stroke-linejoin="round" stroke-miterlimit="10" stroke-width="0.6318" width="5.478" x="33.26" y="25.08"/>
    <rect fill="url(#yellow-gradient)" fill-rule="evenodd" height="0.7173" paint-order="stroke fill markers" ry="0.0137" stroke="url(#yellow-gradient)" stroke-linecap="round" stroke-linejoin="round" stroke-miterlimit="10" stroke-width="0.522" width="4.526" x="33.74" y="27.39"/>
  </g>
  <g id="line">
    <rect fill="none" height="38" stroke="#000" stroke-linecap="round" stroke-linejoin="round" stroke-width="2" width="62" x="5" y="17"/>
  </g>
</svg>