<svg viewBox="0 0 72 72" xmlns="http://www.w3.org/2000/svg">
  <defs>
    <linearGradient id="yellow-gradient" x1="0%" x2="0%" y1="0%" y2="100%">
      <stop offset="0%" style="stop-color:#FDE02F;stop-opacity:1;"/>
      <stop offset="100%" style="stop-color:#F7B209;stop-opacity:1;"/>
    </linearGradient>
  </defs>
  <g id="color">
    <rect fill="#f1b31c" height="38" width="62" x="5" y="17"/>
    <path d="M5,19v5L67,47V42Z" fill="#fff" stroke="#fff" stroke-miterlimit="10"/>
    <path d="M5,25v5L67,53V48Z" stroke="#000" stroke-miterlimit="10"/>
    <g fill="none" stroke="#d22f27" stroke-linecap="round" stroke-linejoin="round" stroke-width="2">
      <path d="M41.528 34.915c.30362 .71783 .47151 1.507 .47151 2.3355 0 3.3137-2.6863 6-6 6s-6-2.6863-6-6c0-.82843 .16789-1.6176 .47151-2.3355"/>
      <path d="M36 28v12.5"/>
      <path d="M42 43.25c-3.7143 3.1429-8.1429 3.2143-12 0"/>
      <path d="M26 41.75v-5.75l-2-4.25"/>
      <path d="M46 41.75v-5.25l2-4.75"/>
      <path d="M39.385 31.592c-2.2775-.81785-4.6618-.75339-6.8641-.02937"/>
    </g>
  </g>
  <g id="line">
    <rect fill="none" height="38" stroke="#000" stroke-linecap="round" stroke-linejoin="round" stroke-width="2" width="62" x="5" y="17"/>
  </g>
</svg>