<svg viewBox="0 0 72 72" xmlns="http://www.w3.org/2000/svg">
  <defs>
    <linearGradient id="yellow-gradient" x1="0%" x2="0%" y1="0%" y2="100%">
      <stop offset="0%" style="stop-color:#FDE02F;stop-opacity:1;"/>
      <stop offset="100%" style="stop-color:#F7B209;stop-opacity:1;"/>
    </linearGradient>
  </defs>
  <g id="color">
    <rect fill="#1e50a0" height="38" width="62" x="5.0834" y="17"/>
    <rect fill="#d22f27" height="6" width="62" x="5.0834" y="49"/>
    <rect fill="#d22f27" height="6" width="62" x="5" y="17"/>
    <circle cx="36.0834" cy="36" fill="#fff" r="9"/>
    <circle cx="36.0834" cy="36" fill="#fff" r="7.5" stroke="#5c9e31" stroke-miterlimit="10"/>
    <g>
      <polygon fill="url(#yellow-gradient)" points="38.583 38.5 36.083 38.5 36.083 33 39.083 33 38.583 38.5"/>
      <path d="M36.0833,41a4.9451,4.9451,0,0,0,2.5876-2.2291L36,36.1l-2.5576,2.5576A4.9084,4.9084,0,0,0,36.0833,41Z" fill="#61b2e4" stroke="#61b2e4" stroke-linecap="round" stroke-linejoin="round"/>
      <path d="M36.0834,41s3-1,3-4V33h-6v4C33.0834,40,36.0834,41,36.0834,41Z" fill="none" stroke="#000" stroke-linecap="round" stroke-linejoin="round"/>
    </g>
  </g>
  <g id="line">
    <rect fill="none" height="38" stroke="#000" stroke-linecap="round" stroke-linejoin="round" stroke-width="2" width="62" x="5.0834" y="17"/>
  </g>
</svg>