<svg viewBox="0 0 72 72" xmlns="http://www.w3.org/2000/svg">
  <defs>
    <linearGradient id="yellow-gradient" x1="0%" x2="0%" y1="0%" y2="100%">
      <stop offset="0%" style="stop-color:#FDE02F;stop-opacity:1;"/>
      <stop offset="100%" style="stop-color:#F7B209;stop-opacity:1;"/>
    </linearGradient>
  </defs>
  <g id="color">
    <rect fill="#fff" height="38" width="62" x="5" y="17"/>
    <g>
      <polygon fill="url(#yellow-gradient)" points="43.5 25.91 44.5 22.91 27.5 22.91 28.5 25.91 43.5 25.91" stroke="url(#yellow-gradient)" stroke-linecap="round" stroke-linejoin="round"/>
      <path d="M36,45.91s7.5-2.5,7.5-10v-10h-15v10C28.5,43.41,36,45.91,36,45.91Z" fill="#1e50a0" stroke="#1e50a0" stroke-linecap="round" stroke-linejoin="round"/>
      <path d="M28.5,32.41v3.5a10.1844,10.1844,0,0,0,.3063,2.5H43.1938a10.1845,10.1845,0,0,0,.3062-2.5v-3.5Z" fill="#d22f27" stroke="#d22f27" stroke-miterlimit="10"/>
      <g>
        <g>
          <line fill="url(#yellow-gradient)" stroke="url(#yellow-gradient)" stroke-linecap="round" stroke-linejoin="round" x1="36" x2="36" y1="30.1603" y2="27.6603"/>
          <line fill="url(#yellow-gradient)" stroke="url(#yellow-gradient)" stroke-linecap="round" stroke-linejoin="round" x1="35.375" x2="36.625" y1="28.4936" y2="28.4936"/>
        </g>
        <g>
          <line fill="url(#yellow-gradient)" stroke="url(#yellow-gradient)" stroke-linecap="round" stroke-linejoin="round" x1="40.5" x2="40.5" y1="30.1603" y2="27.6603"/>
          <line fill="url(#yellow-gradient)" stroke="url(#yellow-gradient)" stroke-linecap="round" stroke-linejoin="round" x1="39.875" x2="41.125" y1="28.4936" y2="28.4936"/>
        </g>
        <g>
          <line fill="url(#yellow-gradient)" stroke="url(#yellow-gradient)" stroke-linecap="round" stroke-linejoin="round" x1="31.5" x2="31.5" y1="30.1603" y2="27.6603"/>
          <line fill="url(#yellow-gradient)" stroke="url(#yellow-gradient)" stroke-linecap="round" stroke-linejoin="round" x1="30.875" x2="32.125" y1="28.4936" y2="28.4936"/>
        </g>
      </g>
      <g>
        <line fill="#fff" stroke="#fff" stroke-linecap="round" stroke-linejoin="round" x1="36" x2="36" y1="36.6603" y2="34.1603"/>
        <line fill="#fff" stroke="#fff" stroke-linecap="round" stroke-linejoin="round" x1="37.25" x2="34.75" y1="35.4103" y2="35.4103"/>
      </g>
      <circle cx="36" cy="43.9103" fill="url(#yellow-gradient)" r="1"/>
      <circle cx="33" cy="40.9103" fill="url(#yellow-gradient)" r="1"/>
      <circle cx="39" cy="40.9103" fill="url(#yellow-gradient)" r="1"/>
      <path d="M47,46.2692A23.0924,23.0924,0,0,1,36,49.09" fill="none" stroke="#a57939" stroke-linecap="round" stroke-linejoin="round" stroke-width="2"/>
      <path d="M25,46.2692A23.093,23.093,0,0,0,36,49.09" fill="none" stroke="#a57939" stroke-linecap="round" stroke-linejoin="round" stroke-width="2"/>
    </g>
  </g>
  <g id="line">
    <rect fill="none" height="38" stroke="#000" stroke-linecap="round" stroke-linejoin="round" stroke-width="2" width="62" x="5" y="17"/>
  </g>
</svg>