<svg viewBox="0 0 72 72" xmlns="http://www.w3.org/2000/svg">
  <defs>
    <linearGradient id="yellow-gradient" x1="0%" x2="0%" y1="0%" y2="100%">
      <stop offset="0%" style="stop-color:#FDE02F;stop-opacity:1;"/>
      <stop offset="100%" style="stop-color:#F7B209;stop-opacity:1;"/>
    </linearGradient>
  </defs>
  <g id="color">
    <rect fill="#1e50a0" height="38" width="62" x="5" y="17"/>
    <path d="M36.0018,46.5A11.7362,11.7362,0,0,0,42,36.0005,11.736,11.736,0,0,0,36,25.5a11.736,11.736,0,0,0-6,10.5005A11.7364,11.7364,0,0,0,35.9982,46.5Z" fill="#92d3f5" stroke="#d22f27" stroke-linecap="round" stroke-linejoin="round"/>
    <path d="M30.64,40a11.2419,11.2419,0,0,0,5.3581,6.5h.0035A11.2419,11.2419,0,0,0,41.36,40Z" fill="url(#yellow-gradient)"/>
    <rect fill="none" height="34" stroke="#d22f27" stroke-miterlimit="10" stroke-width="2" width="58" x="7" y="19"/>
    <line fill="none" stroke="#1e50a0" stroke-linecap="round" stroke-linejoin="round" stroke-width="2" x1="28" x2="44" y1="39" y2="39"/>
    <path d="M36.0018,46.5A11.7362,11.7362,0,0,0,42,36.0005,11.736,11.736,0,0,0,36,25.5a11.736,11.736,0,0,0-6,10.5005A11.7364,11.7364,0,0,0,35.9982,46.5Z" fill="none" stroke="#d22f27" stroke-linecap="round" stroke-linejoin="round" stroke-width="2"/>
  </g>
  <g id="line">
    <rect fill="none" height="38" stroke="#000" stroke-linecap="round" stroke-linejoin="round" stroke-width="2" width="62" x="5" y="17"/>
  </g>
</svg>