<svg viewBox="0 0 72 72" xmlns="http://www.w3.org/2000/svg">
  <defs>
    <linearGradient id="yellow-gradient" x1="0%" x2="0%" y1="0%" y2="100%">
      <stop offset="0%" style="stop-color:#FDE02F;stop-opacity:1;"/>
      <stop offset="100%" style="stop-color:#F7B209;stop-opacity:1;"/>
    </linearGradient>
  </defs>
  <g id="color">
    <rect fill="#fff" height="38" width="62" x="5" y="17"/>
    <polygon fill="#d22f27" points="63.173 17 8.827 17 36 33.654 63.173 17"/>
    <polygon fill="#d22f27" points="63.173 55 36 38.346 8.827 55 63.173 55"/>
    <polygon fill="#5c9e31" points="67 19.346 39.827 36 67 52.654 67 19.346"/>
    <polygon fill="#5c9e31" points="5 52.654 32.173 36 5 19.346 5 52.654"/>
    <circle cx="36" cy="36" fill="#fff" r="10"/>
    <circle cx="36" cy="31" fill="#d22f27" r="2"/>
    <circle cx="40.3301" cy="38.5" fill="#d22f27" r="2"/>
    <circle cx="31.6699" cy="38.5" fill="#d22f27" r="2"/>
    <line fill="none" x1="31.6699" x2="36" y1="38.5" y2="36"/>
    <line fill="none" x1="40.3301" x2="36" y1="38.5" y2="36"/>
  </g>
  <g id="line">
    <rect fill="none" height="38" stroke="#000" stroke-linecap="round" stroke-linejoin="round" stroke-width="2" width="62" x="5" y="17"/>
  </g>
</svg>