<svg viewBox="0 0 72 72" xmlns="http://www.w3.org/2000/svg">
  <defs>
    <linearGradient id="yellow-gradient" x1="0%" x2="0%" y1="0%" y2="100%">
      <stop offset="0%" style="stop-color:#FDE02F;stop-opacity:1;"/>
      <stop offset="100%" style="stop-color:#F7B209;stop-opacity:1;"/>
    </linearGradient>
  </defs>
  <g id="color">
    <rect fill="url(#yellow-gradient)" height="38" width="62" x="5" y="17"/>
    <rect fill="#d22f27" height="10" width="62" x="5" y="45"/>
    <rect fill="#1e50a0" height="9" width="62" x="5" y="36"/>
    <ellipse cx="36" cy="36" fill="#92d3f5" rx="4.5" ry="6"/>
    <path d="M40.5,36c0,3.3137-2.0147,6-4.5,6s-4.5-2.6863-4.5-6Z" fill="#5c9e31"/>
    <line fill="none" stroke="#d22f27" stroke-miterlimit="10" stroke-width="2" x1="36" x2="36" y1="46" y2="42"/>
    <path d="M42.0652,42A10.9284,10.9284,0,0,0,44.5,35V30H46" fill="none" stroke="#f1b31c" stroke-linecap="round" stroke-linejoin="round" stroke-width="2"/>
    <path d="M26,30h1.5v5a10.9284,10.9284,0,0,0,2.4348,7" fill="none" stroke="#f1b31c" stroke-linecap="round" stroke-linejoin="round" stroke-width="2"/>
    <path d="M29,26c3.5-1,5.25,0,7,3,1.75-3,3.5-4,7-3" fill="none" stroke="#6a462f" stroke-linecap="round" stroke-linejoin="round" stroke-width="2"/>
    <ellipse cx="36" cy="36" fill="none" rx="4.5" ry="6" stroke="#d22f27" stroke-miterlimit="10" stroke-width="2"/>
  </g>
  <g id="line">
    <rect fill="none" height="38" stroke="#000" stroke-linecap="round" stroke-linejoin="round" stroke-width="2" width="62" x="5" y="17"/>
  </g>
</svg>