<svg viewBox="0 0 72 72" xmlns="http://www.w3.org/2000/svg">
  <defs>
    <linearGradient id="yellow-gradient" x1="0%" x2="0%" y1="0%" y2="100%">
      <stop offset="0%" style="stop-color:#FDE02F;stop-opacity:1;"/>
      <stop offset="100%" style="stop-color:#F7B209;stop-opacity:1;"/>
    </linearGradient>
  </defs>
  <g id="color">
    <rect fill="#1e50a0" height="38" width="62" x="5" y="17"/>
    <line fill="none" stroke="#9b9b9a" stroke-linecap="round" stroke-linejoin="round" stroke-width="2" x1="49" x2="51" y1="25" y2="23"/>
    <line fill="none" stroke="#9b9b9a" stroke-linecap="round" stroke-linejoin="round" stroke-width="2" x1="49" x2="47" y1="25" y2="23"/>
    <g>
      <polygon fill="#fff" points="9.887 18 6 18 6 20.332 32.113 36 36 36 36 33.668 9.887 18"/>
      <polygon fill="#fff" points="36 20.332 36 18 32.113 18 6 33.668 6 36 9.887 36 36 20.332"/>
      <rect fill="#fff" height="6" width="30" x="6" y="24"/>
      <rect fill="#fff" height="18" width="6" x="18" y="18"/>
      <rect fill="#d22f27" height="18" width="2" x="20" y="18"/>
      <rect fill="#d22f27" height="2" width="30" x="6" y="26"/>
      <polygon fill="#d22f27" points="36 33.668 29.887 30 26 30 36 36 36 35.999 36 33.668"/>
      <polygon fill="#d22f27" points="36 18 32.113 18 24 22.868 24 24 26.001 24 36 18.001 36 18"/>
      <polygon fill="#d22f27" points="6 20.332 12.113 24 16.001 24 6.001 18 6 18.001 6 20.332"/>
      <polygon fill="#d22f27" points="6 36 9.887 36 18 31.132 18 30 16 30 6 35.999 6 36"/>
    </g>
    <rect fill="none" height="1" stroke="#e27022" stroke-linecap="round" stroke-linejoin="round" stroke-width="2" width="4" x="50" y="26"/>
    <line fill="none" stroke="#e27022" stroke-linecap="round" stroke-linejoin="round" stroke-width="2" x1="54" x2="54" y1="27" y2="30"/>
    <line fill="none" stroke="#e27022" stroke-linecap="round" stroke-linejoin="round" stroke-width="2" x1="50" x2="50" y1="27" y2="30"/>
    <line fill="none" stroke="#e27022" stroke-linecap="round" stroke-linejoin="round" stroke-width="2" x1="49" x2="50" y1="25" y2="26"/>
    <path d="M59.1357,49a9.9864,9.9864,0,0,0-14.2714,0" fill="none" stroke="#f1b31c" stroke-linecap="round" stroke-linejoin="round" stroke-width="2"/>
    <polygon fill="#5c9e31" points="52 42 55 34 49 34 52 42" stroke="#5c9e31" stroke-linecap="round" stroke-linejoin="round" stroke-width="2"/>
    <g>
      <path d="M59,31V41a1.0029,1.0029,0,0,0,1,1h1a1.0029,1.0029,0,0,0,1-1V36a2.094,2.094,0,0,0-.8321-1.5547L59,33"/>
      <path d="M59,31V41a1.0029,1.0029,0,0,0,1,1h1a1.0029,1.0029,0,0,0,1-1V36a2.094,2.094,0,0,0-.8321-1.5547L59,33" fill="none" stroke="#000" stroke-linecap="round" stroke-linejoin="round" stroke-width="2"/>
    </g>
    <g>
      <path d="M45,31V41a1.0029,1.0029,0,0,1-1,1H43a1.0029,1.0029,0,0,1-1-1V36a2.094,2.094,0,0,1,.8321-1.5547L45,33" fill="#9b9b9a"/>
      <path d="M45,31V41a1.0029,1.0029,0,0,1-1,1H43a1.0029,1.0029,0,0,1-1-1V36a2.094,2.094,0,0,1,.8321-1.5547L45,33" fill="none" stroke="#9b9b9a" stroke-linecap="round" stroke-linejoin="round" stroke-width="2"/>
    </g>
  </g>
  <g id="line">
    <rect fill="none" height="38" stroke="#000" stroke-linecap="round" stroke-linejoin="round" stroke-width="2" width="62" x="5" y="17"/>
  </g>
</svg>