<svg viewBox="0 0 72 72" xmlns="http://www.w3.org/2000/svg">
  <defs>
    <linearGradient id="yellow-gradient" x1="0%" x2="0%" y1="0%" y2="100%">
      <stop offset="0%" style="stop-color:#FDE02F;stop-opacity:1;"/>
      <stop offset="100%" style="stop-color:#F7B209;stop-opacity:1;"/>
    </linearGradient>
  </defs>
  <g id="color">
    <rect fill="#fff" height="38" width="62" x="5" y="17"/>
    <rect fill="#d22f27" height="7" width="62" x="5" y="17"/>
    <rect fill="#d22f27" height="7" width="62" x="5" y="48"/>
    <polygon fill="#5c9e31" points="36 27 29 32 36 31 43 32 36 27" stroke="#5c9e31" stroke-linecap="round" stroke-linejoin="round" stroke-width="2"/>
    <polygon fill="#5c9e31" points="36 31 28 36 36 35 44 36 36 31" stroke="#5c9e31" stroke-linecap="round" stroke-linejoin="round" stroke-width="2"/>
    <polygon fill="#5c9e31" points="36 35 27 40 36 39 45 40 36 35" stroke="#5c9e31" stroke-linecap="round" stroke-linejoin="round" stroke-width="2"/>
    <g>
      <path d="M38,39v3.5a2.2272,2.2272,0,0,0,1.4231,1.9743l.1539.0514h0l-.1539-.0514A11.1134,11.1134,0,0,0,36.5,44h-1a11.1126,11.1126,0,0,0-2.923.4743l-.1539.0514h0l.1539-.0514A2.2271,2.2271,0,0,0,34,42.5V39" fill="#5c9e31"/>
      <path d="M38,39v3.5a2.2272,2.2272,0,0,0,1.4231,1.9743l.1539.0514h0l-.1539-.0514A11.1134,11.1134,0,0,0,36.5,44h-1a11.1126,11.1126,0,0,0-2.923.4743l-.1539.0514h0l.1539-.0514A2.2271,2.2271,0,0,0,34,42.5V39" fill="none" stroke="#5c9e31" stroke-linecap="round" stroke-linejoin="round" stroke-width="2"/>
    </g>
  </g>
  <g id="line">
    <rect fill="none" height="38" stroke="#000" stroke-linecap="round" stroke-linejoin="round" stroke-width="2" width="62" x="5" y="17"/>
  </g>
</svg>