<svg viewBox="0 0 72 72" xmlns="http://www.w3.org/2000/svg">
  <defs>
    <linearGradient id="yellow-gradient" x1="0%" x2="0%" y1="0%" y2="100%">
      <stop offset="0%" style="stop-color:#FDE02F;stop-opacity:1;"/>
      <stop offset="100%" style="stop-color:#F7B209;stop-opacity:1;"/>
    </linearGradient>
  </defs>
  <g id="color">
    <rect fill="#186648" height="38" width="62" x="5" y="17"/>
    <rect fill="#fff" height="38" width="21" x="5" y="17"/>
    <path d="M50,44a11.9921,11.9921,0,0,1-9.8474-18.8474A11.9953,11.9953,0,1,0,56.8474,41.8474,11.9362,11.9362,0,0,1,50,44Z" fill="#fff" stroke="#fff" stroke-linecap="round" stroke-linejoin="round"/>
    <polygon fill="#fff" points="53.453 29.52 54.8 27.666 52.621 28.374 51.273 26.52 51.273 28.812 49.094 29.52 51.273 30.228 51.273 32.52 52.621 30.666 54.8 31.374 53.453 29.52" stroke="#fff" stroke-linecap="round" stroke-linejoin="round"/>
  </g>
  <g id="line">
    <rect fill="none" height="38" stroke="#000" stroke-linecap="round" stroke-linejoin="round" stroke-width="2" width="62" x="5" y="17"/>
  </g>
</svg>