<svg viewBox="0 0 72 72" xmlns="http://www.w3.org/2000/svg">
  <defs>
    <linearGradient id="yellow-gradient" x1="0%" x2="0%" y1="0%" y2="100%">
      <stop offset="0%" style="stop-color:#FDE02F;stop-opacity:1;"/>
      <stop offset="100%" style="stop-color:#F7B209;stop-opacity:1;"/>
    </linearGradient>
  </defs>
  <g id="color">
    <rect fill="#1e50a0" height="38" width="62" x="5" y="17"/>
    <g>
      <polygon fill="#fff" points="9.887 18 6 18 6 20.332 32.113 36 36 36 36 33.668 9.887 18"/>
      <polygon fill="#fff" points="36 20.332 36 18 32.113 18 6 33.668 6 36 9.887 36 36 20.332"/>
      <rect fill="#fff" height="6" width="30" x="6" y="24"/>
      <rect fill="#fff" height="18" width="6" x="18" y="18"/>
      <rect fill="#d22f27" height="18" width="2" x="20" y="18"/>
      <rect fill="#d22f27" height="2" width="30" x="6" y="26"/>
      <polygon fill="#d22f27" points="36 33.668 29.887 30 25.999 30 35.999 36 36 35.999 36 33.668"/>
      <polygon fill="#d22f27" points="36 18 32.113 18 24 22.868 24 24 26 24 36 18.001 36 18"/>
      <polygon fill="#d22f27" points="6 20.332 12.113 24 16 24 6 18 6 18.001 6 20.332"/>
      <polygon fill="#d22f27" points="6 36 9.887 36 18 31.132 18 30 15.999 30 6 35.999 6 36"/>
    </g>
    <g>
      <path d="M58.5,29h-.2771c.0939.0307.1839.0693.2771.1014Z" fill="#3f3f3f"/>
      <path d="M45.5,29v.1014c.0932-.0321.1832-.0707.2771-.1014Z" fill="#3f3f3f"/>
      <path d="M52,28a19.9562,19.9562,0,0,0-6.2229,1H58.2229A19.9562,19.9562,0,0,0,52,28Z" fill="url(#yellow-gradient)"/>
      <path d="M58.5,34.5V29.1014c-.0932-.0321-.1832-.0707-.2771-.1014H45.7771c-.0939.0307-.1839.0693-.2771.1014V34.5Z" fill="url(#yellow-gradient)"/>
    </g>
    <path d="M44.9556,34.81,58.5,34.8635S60,44,52,47" fill="#92d3f5"/>
    <path d="M44.9556,34.81S44,45,52,47" fill="#92d3f5"/>
    <path d="M56,42.9188c-2.4-1.5567-8,0-8,0L52,47Z" fill="#1e50a0" stroke="#1e50a0" stroke-linecap="round" stroke-linejoin="round" stroke-width="2"/>
    <polyline fill="none" points="46 37 49 41 49 44" stroke="#a57939" stroke-linecap="round" stroke-linejoin="round" stroke-width="2"/>
    <ellipse cx="46.8576" cy="40.5894" fill="none" rx="0.5" ry="2.6466" stroke="#a57939" stroke-linecap="round" stroke-linejoin="round" stroke-width="2" transform="translate(-10.3208 16.6359) rotate(-18.1699)"/>
    <polygon fill="#f4aa41" points="53 32 51 32 50 30 53 32" stroke="#a57939" stroke-linecap="round" stroke-linejoin="round" stroke-width="2"/>
    <path d="M55,41H52A2.8222,2.8222,0,0,0,55,41Z" fill="none" stroke="#f4aa41" stroke-linecap="round" stroke-linejoin="round" stroke-width="2"/>
    <path d="M58.5833,29v9c0,6.75-6.75,9-6.75,9s-6.75-2.25-6.75-9V29S51.9792,25.5937,58.5833,29Z" fill="none" stroke="#000" stroke-linecap="round" stroke-linejoin="round"/>
    <line fill="none" stroke="#000" stroke-linecap="round" stroke-linejoin="round" x1="58.5" x2="45.5" y1="34.5" y2="34.5"/>
  </g>
  <g id="line">
    <rect fill="none" height="38" stroke="#000" stroke-linecap="round" stroke-linejoin="round" stroke-width="2" width="62" x="5" y="17"/>
  </g>
</svg>