<svg viewBox="0 0 72 72" xmlns="http://www.w3.org/2000/svg">
  <defs>
    <linearGradient id="yellow-gradient" x1="0%" x2="0%" y1="0%" y2="100%">
      <stop offset="0%" style="stop-color:#FDE02F;stop-opacity:1;"/>
      <stop offset="100%" style="stop-color:#F7B209;stop-opacity:1;"/>
    </linearGradient>
  </defs>
  <g id="color">
    <rect fill="url(#yellow-gradient)" height="38" width="62" x="5" y="17"/>
    <rect fill="#1e50a0" height="19" width="31" x="5" y="17"/>
    <g>
      <polygon fill="#fff" points="9.887 18 6 18 6 20.332 32.113 36 36 36 36 33.668 9.887 18"/>
      <polygon fill="#fff" points="36 20.332 36 18 32.113 18 6 33.668 6 36 9.887 36 36 20.332"/>
      <rect fill="#fff" height="6" width="30" x="6" y="24"/>
      <rect fill="#fff" height="18" width="6" x="18" y="18"/>
      <rect fill="#d22f27" height="18" width="2" x="20" y="18"/>
      <rect fill="#d22f27" height="2" width="30" x="6" y="26"/>
      <polygon fill="#d22f27" points="36 33.668 29.887 30 26 30 36 36 36 35.999 36 33.668"/>
      <polygon fill="#d22f27" points="36 18 32.113 18 24 22.868 24 24 26.001 24 36 18.001 36 18"/>
      <polygon fill="#d22f27" points="6 20.332 12.113 24 16.001 24 6.001 18 6 18.001 6 20.332"/>
      <polygon fill="#d22f27" points="6 36 9.887 36 18 31.132 18 30 16 30 6 35.999 6 36"/>
    </g>
    <circle cx="20.5" cy="26.5" fill="#1e50a0" r="2.5"/>
    <polygon fill="url(#yellow-gradient)" points="19.531 28 20.526 25 21.385 27.954 19 26.174 22 26.1 19.531 28" stroke="url(#yellow-gradient)" stroke-linecap="round" stroke-linejoin="round"/>
    <circle cx="27" cy="26.5" fill="url(#yellow-gradient)" r="1"/>
    <circle cx="14" cy="26.5" fill="url(#yellow-gradient)" r="1"/>
    <circle cx="20.5" cy="32" fill="url(#yellow-gradient)" r="1"/>
    <circle cx="20.5" cy="21" fill="url(#yellow-gradient)" r="1"/>
  </g>
  <g id="line">
    <rect fill="none" height="38" stroke="#000" stroke-linecap="round" stroke-linejoin="round" stroke-width="2" width="62" x="5" y="17"/>
  </g>
</svg>