<svg viewBox="0 0 72 72" xmlns="http://www.w3.org/2000/svg">
  <defs>
    <linearGradient id="yellow-gradient" x1="0%" x2="0%" y1="0%" y2="100%">
      <stop offset="0%" style="stop-color:#FDE02F;stop-opacity:1;"/>
      <stop offset="100%" style="stop-color:#F7B209;stop-opacity:1;"/>
    </linearGradient>
  </defs>
  <g id="color">
    <rect fill="#d22f27" height="38" width="62" x="5" y="17"/>
    <rect fill="#fff" height="13" width="62" x="5" y="17"/>
    <rect fill="#1e50a0" height="12" width="62" x="5" y="30"/>
    <path d="M22.5833,22v9c0,6.75-6.75,9-6.75,9s-6.75-2.25-6.75-9V22S15.9792,18.5937,22.5833,22Z" fill="#1e50a0" stroke="#000" stroke-linecap="round" stroke-linejoin="round"/>
    <path d="M11.9626,33.3515l7.9755.3394A6.8155,6.8155,0,0,1,16,38c-3,1-4.0374-4.6485-4.0374-4.6485" fill="#fff" stroke="#fff" stroke-miterlimit="10"/>
    <polyline fill="#fff" points="14.5 33.5 15.5 31.5 17.765 34.084 14.5 33.5" stroke="#fff" stroke-miterlimit="10"/>
    <circle cx="13" cy="24" fill="url(#yellow-gradient)" r="1"/>
    <path d="M21,35l-1-3-2,3-2-5-2,5-2-3-1,3S15,44,21,35Z" fill="none" stroke="#fff" stroke-linecap="round" stroke-linejoin="round" stroke-width="2"/>
    <circle cx="16" cy="26" fill="url(#yellow-gradient)" r="1"/>
    <circle cx="19" cy="24" fill="url(#yellow-gradient)" r="1"/>
    <path d="M22.5833,22v9c0,6.75-6.75,9-6.75,9s-6.75-2.25-6.75-9V22S15.9792,18.5937,22.5833,22Z" fill="none" stroke="#d22f27" stroke-linecap="round" stroke-linejoin="round"/>
  </g>
  <g id="line">
    <rect fill="none" height="38" stroke="#000" stroke-linecap="round" stroke-linejoin="round" stroke-width="2" width="62" x="5" y="17"/>
  </g>
</svg>