<svg viewBox="0 0 72 72" xmlns="http://www.w3.org/2000/svg">
  <defs>
    <linearGradient id="yellow-gradient" x1="0%" x2="0%" y1="0%" y2="100%">
      <stop offset="0%" style="stop-color:#FDE02F;stop-opacity:1;"/>
      <stop offset="100%" style="stop-color:#F7B209;stop-opacity:1;"/>
    </linearGradient>
  </defs>
  <g id="color">
    <rect fill="#5c9e31" height="38" width="62" x="5" y="17"/>
    <rect fill="#d22f27" height="13" width="62" x="5" y="17"/>
    <rect height="12" width="62" x="5" y="30"/>
    <path d="M32.1358,36.125a4.0528,4.0528,0,0,1,3.3783-3.9236,4.3947,4.3947,0,0,0-.8108-.0764,4.0043,4.0043,0,1,0,0,8,4.3947,4.3947,0,0,0,.8108-.0764A4.0527,4.0527,0,0,1,32.1358,36.125Z" fill="#fff" stroke="#fff" stroke-linecap="round" stroke-linejoin="round"/>
    <polygon fill="#fff" points="38.193 37.166 39.521 33.166 40.666 37.105 37.486 34.732 41.486 34.633 38.193 37.166" stroke="#fff" stroke-linecap="round" stroke-linejoin="round"/>
  </g>
  <g id="line">
    <rect fill="none" height="38" stroke="#000" stroke-linecap="round" stroke-linejoin="round" stroke-width="2" width="62" x="5" y="17"/>
  </g>
</svg>