<svg viewBox="0 0 72 72" xmlns="http://www.w3.org/2000/svg">
  <defs>
    <linearGradient id="yellow-gradient" x1="0%" x2="0%" y1="0%" y2="100%">
      <stop offset="0%" style="stop-color:#FDE02F;stop-opacity:1;"/>
      <stop offset="100%" style="stop-color:#F7B209;stop-opacity:1;"/>
    </linearGradient>
  </defs>
  <g id="color">
    <g>
      <rect fill="#d22f27" height="13" width="19" x="5" y="17"/>
      <line fill="none" stroke="#5c9e31" stroke-miterlimit="10" stroke-width="2" x1="6" x2="24" y1="30" y2="18"/>
      <line fill="none" stroke="#5c9e31" stroke-miterlimit="10" stroke-width="2" x1="6" x2="24" y1="18" y2="30"/>
      <line stroke="#fff" stroke-miterlimit="10" stroke-width="2" x1="15" x2="15" y1="30" y2="18"/>
      <line stroke="#fff" stroke-miterlimit="10" stroke-width="2" x1="6" x2="24" y1="24" y2="24"/>
    </g>
    <rect fill="#61b2e4" height="38" width="43" x="24" y="17"/>
    <rect fill="#fff" height="12" width="19" x="5" y="30"/>
    <path d="M36,35c0,3,4,5,7,5s11-1,15-9h2c0,4-3,11-6,13H37l-8-9h7" fill="#f1b31c" stroke="#f1b31c" stroke-linecap="round" stroke-linejoin="round" stroke-width="2"/>
    <g>
      <path d="M24,46c3,0,3-2,6-2s3,2,6,2" fill="none" stroke="#fff" stroke-linecap="round" stroke-linejoin="round" stroke-width="2"/>
      <path d="M36,46c3,0,3-2,6-2s3,2,6,2" fill="none" stroke="#fff" stroke-linecap="round" stroke-linejoin="round" stroke-width="2"/>
      <path d="M48,46c3,0,3-2,6-2s3,2,6,2" fill="none" stroke="#fff" stroke-linecap="round" stroke-linejoin="round" stroke-width="2"/>
      <path d="M60,46c3,0,3-2,6-2" fill="none" stroke="#fff" stroke-linecap="round" stroke-linejoin="round" stroke-width="2"/>
    </g>
    <rect fill="#d22f27" height="13" width="19" x="5" y="42"/>
    <line fill="none" stroke="#f1b31c" stroke-linecap="round" stroke-linejoin="round" stroke-width="2" x1="10" x2="20" y1="46" y2="46"/>
    <line fill="none" stroke="#f1b31c" stroke-linecap="round" stroke-linejoin="round" stroke-width="2" x1="10" x2="20" y1="50" y2="50"/>
    <path d="M47,24c-2,4-3,10-2,12l-4-1c0-5,2-9,5-11Z" fill="#f1b31c" stroke="#f1b31c" stroke-linecap="round" stroke-linejoin="round" stroke-width="2"/>
    <path d="M55,24c-2,4-3,10-2,12l-4-1c0-5,2-9,5-11Z" fill="#f1b31c" stroke="#f1b31c" stroke-linecap="round" stroke-linejoin="round" stroke-width="2"/>
    <path d="M33.4213,30.1053A10.2782,10.2782,0,0,1,38,24h1a25.06,25.06,0,0,0-2.1591,6.96Z" fill="#f1b31c" stroke="#f1b31c" stroke-linecap="round" stroke-linejoin="round" stroke-width="2"/>
  </g>
  <g id="line">
    <rect fill="none" height="38" stroke="#000" stroke-linecap="round" stroke-linejoin="round" stroke-width="2" width="62" x="5" y="17"/>
  </g>
</svg>