<svg viewBox="0 0 72 72" xmlns="http://www.w3.org/2000/svg">
  <defs>
    <linearGradient id="yellow-gradient" x1="0%" x2="0%" y1="0%" y2="100%">
      <stop offset="0%" style="stop-color:#FDE02F;stop-opacity:1;"/>
      <stop offset="100%" style="stop-color:#F7B209;stop-opacity:1;"/>
    </linearGradient>
  </defs>
  <g id="color">
    <rect fill="#d22f27" height="38" width="62" x="5" y="17"/>
    <polygon fill="#f1b31c" points="15 17 5 17 36 36 36 34 15 17"/>
    <polygon fill="#f1b31c" points="15 55 5 55 36 36 36 38 15 55"/>
    <polygon fill="#f1b31c" points="57 17 67 17 36 36 36 34 57 17"/>
    <polygon fill="#f1b31c" points="57 55 67 55 36 36 36 38 57 55"/>
    <polygon fill="#f1b31c" points="33 55 39 55 37 36 35 36 33 55"/>
    <polygon fill="#f1b31c" points="67 39 67 33 36 35 36 37 67 39"/>
    <polygon fill="#f1b31c" points="5 39 5 33 36 35 36 37 5 39"/>
    <polygon fill="#f1b31c" points="33 17 39 17 37 36 35 36 33 17"/>
    <circle cx="36" cy="36" fill="#f1b31c" r="7" stroke="#d22f27" stroke-miterlimit="10"/>
  </g>
  <g id="line">
    <rect fill="none" height="38" stroke="#000" stroke-linecap="round" stroke-linejoin="round" stroke-width="2" width="62" x="5" y="17"/>
  </g>
</svg>