<svg viewBox="0 0 72 72" xmlns="http://www.w3.org/2000/svg">
  <defs>
    <linearGradient id="yellow-gradient" x1="0%" x2="0%" y1="0%" y2="100%">
      <stop offset="0%" style="stop-color:#FDE02F;stop-opacity:1;"/>
      <stop offset="100%" style="stop-color:#F7B209;stop-opacity:1;"/>
    </linearGradient>
  </defs>
  <g id="color">
    <rect fill="#fff" height="38" width="62" x="5" y="17"/>
    <rect fill="#d22f27" height="5" width="62" x="5" y="17"/>
    <rect fill="#d22f27" height="4" width="62" x="5" y="26"/>
    <rect fill="#d22f27" height="4" width="62" x="5" y="34"/>
    <rect fill="#1e50a0" height="21" width="32" x="5" y="17"/>
    <rect fill="#d22f27" height="4" width="62" x="5" y="42"/>
    <circle cx="9" cy="22" fill="#fff" r="1.75"/>
    <circle cx="17" cy="22" fill="#fff" r="1.75"/>
    <circle cx="25" cy="22" fill="#fff" r="1.75"/>
    <circle cx="33" cy="22" fill="#fff" r="1.75"/>
    <circle cx="29" cy="26" fill="#fff" r="1.75"/>
    <circle cx="21" cy="26" fill="#fff" r="1.75"/>
    <circle cx="13" cy="26" fill="#fff" r="1.75"/>
    <circle cx="9" cy="30" fill="#fff" r="1.75"/>
    <circle cx="17" cy="30" fill="#fff" r="1.75"/>
    <circle cx="25" cy="30" fill="#fff" r="1.75"/>
    <circle cx="33" cy="30" fill="#fff" r="1.75"/>
    <circle cx="29" cy="34" fill="#fff" r="1.75"/>
    <circle cx="21" cy="34" fill="#fff" r="1.75"/>
    <circle cx="13" cy="34" fill="#fff" r="1.75"/>
    <rect fill="#d22f27" height="5" width="62" x="5" y="50"/>
  </g>
  <g id="line">
    <rect fill="none" height="38" stroke="#000" stroke-linecap="round" stroke-linejoin="round" stroke-width="2" width="62" x="5" y="17"/>
  </g>
</svg>