<svg viewBox="0 0 72 72" xmlns="http://www.w3.org/2000/svg">
  <defs>
    <linearGradient id="yellow-gradient" x1="0%" x2="0%" y1="0%" y2="100%">
      <stop offset="0%" style="stop-color:#FDE02F;stop-opacity:1;"/>
      <stop offset="100%" style="stop-color:#F7B209;stop-opacity:1;"/>
    </linearGradient>
  </defs>
  <g id="color">
    <rect fill="#1e50a0" height="38" width="62" x="5" y="17"/>
    <polygon fill="#fff" points="19.75 21.972 20.986 25.972 17.75 23.5 21.75 23.5 18.514 25.972 19.75 21.972" stroke="#fff" stroke-linecap="round" stroke-linejoin="round"/>
    <polygon fill="#fff" points="19.75 35.972 20.986 39.972 17.75 37.5 21.75 37.5 18.514 39.972 19.75 35.972" stroke="#fff" stroke-linecap="round" stroke-linejoin="round"/>
    <polygon fill="#fff" points="12.5 27.972 13.736 31.972 10.5 29.5 14.5 29.5 11.264 31.972 12.5 27.972" stroke="#fff" stroke-linecap="round" stroke-linejoin="round"/>
    <polygon fill="#fff" points="26.5 26.972 27.427 29.972 25 28.118 28 28.118 25.573 29.972 26.5 26.972" stroke="#fff" stroke-linecap="round" stroke-linejoin="round"/>
    <path d="M56.4964,22.0042,22.5,47h32l2-.0008c-2.1713-3.7-5.4086-7.9629-5.4086-12.5009C51.0914,29.9634,54.3273,25.7026,56.4964,22.0042Z" fill="#f1b31c" stroke="#f1b31c" stroke-linecap="round" stroke-linejoin="round" stroke-width="2"/>
    <line fill="none" stroke="#f1b31c" stroke-linecap="round" stroke-linejoin="round" stroke-width="2" x1="22.5" x2="58.5" y1="50" y2="50"/>
  </g>
  <g id="line">
    <rect fill="none" height="38" stroke="#000" stroke-linecap="round" stroke-linejoin="round" stroke-width="2" width="62" x="5" y="17"/>
  </g>
</svg>