<svg viewBox="0 0 72 72" xmlns="http://www.w3.org/2000/svg">
  <defs>
    <linearGradient id="yellow-gradient" x1="0%" x2="0%" y1="0%" y2="100%">
      <stop offset="0%" style="stop-color:#FDE02F;stop-opacity:1;"/>
      <stop offset="100%" style="stop-color:#F7B209;stop-opacity:1;"/>
    </linearGradient>
  </defs>
  <g id="color">
    <rect fill="#1e50a0" height="38" width="62" x="5" y="17"/>
    <rect fill="#fff" height="9" width="62" x="5" y="27"/>
    <rect fill="#d22f27" height="9" width="62" x="5" y="36"/>
    <rect fill="#f1b31c" height="10" width="62" x="5" y="17"/>
    <polygon fill="#5c9e31" points="37 36 5 55 5 17 37 36"/>
    <g>
      <circle cx="19" cy="31" fill="#fff" r="1.0435"/>
      <circle cx="19" cy="34.3333" fill="#fff" r="1.0435"/>
      <circle cx="19" cy="37.6667" fill="#fff" r="1.0435"/>
      <circle cx="19" cy="41" fill="#fff" r="1.0435"/>
    </g>
    <path d="M11.6929,36.125a7.4815,7.4815,0,0,1,5.9889-7.3567,7.3762,7.3762,0,0,0-1.4373-.1433,7.5,7.5,0,0,0,0,15,7.3839,7.3839,0,0,0,1.4373-.1432A7.4817,7.4817,0,0,1,11.6929,36.125Z" fill="#fff" stroke="#fff" stroke-linecap="round" stroke-linejoin="round"/>
  </g>
  <g id="line">
    <rect fill="none" height="38" stroke="#000" stroke-linecap="round" stroke-linejoin="round" stroke-width="2" width="62" x="5" y="17"/>
  </g>
</svg>