<svg viewBox="0 0 72 72" xmlns="http://www.w3.org/2000/svg">
  <defs>
    <linearGradient id="yellow-gradient" x1="0%" x2="0%" y1="0%" y2="100%">
      <stop offset="0%" style="stop-color:#FDE02F;stop-opacity:1;"/>
      <stop offset="100%" style="stop-color:#F7B209;stop-opacity:1;"/>
    </linearGradient>
  </defs>
  <g id="color">
    <rect fill="#d22f27" height="38" width="62" x="5" y="17"/>
    <rect fill="#5c9e31" height="38" width="11" x="5" y="17"/>
    <rect fill="#e27022" height="38" width="10" x="16" y="17"/>
    <line fill="none" stroke="#f1b31c" stroke-miterlimit="10" stroke-width="2" x1="26" x2="26" y1="18" y2="54"/>
    <rect fill="none" height="34" stroke="#f1b31c" stroke-miterlimit="10" stroke-width="2" width="58" x="7" y="19"/>
    <g>
      <polyline fill="none" points="50 45 52 45 53 43 50 37" stroke="#f1b31c" stroke-linecap="round" stroke-linejoin="round" stroke-width="2"/>
      <polyline fill="none" points="41 45 43 45 44 43 41 37" stroke="#f1b31c" stroke-linecap="round" stroke-linejoin="round" stroke-width="2"/>
      <path d="M37,26a7.0706,7.0706,0,0,0-1,4V42" fill="none" stroke="#f1b31c" stroke-linecap="round" stroke-linejoin="round" stroke-width="2"/>
      <path d="M44,41c3,0,3-2,7-2l5,2c-1-2,2-3,1-6H42s-3,2-3,5h3Z" fill="#f1b31c" stroke="#f1b31c" stroke-linecap="round" stroke-linejoin="round" stroke-width="2"/>
      <polyline fill="none" points="54 45 56 45 57 43 54 37" stroke="#f1b31c" stroke-linecap="round" stroke-linejoin="round" stroke-width="2"/>
      <line fill="none" stroke="#f1b31c" stroke-linecap="round" stroke-linejoin="round" stroke-width="2" x1="35" x2="39" y1="37" y2="40"/>
      <path d="M56,31a2,2,0,0,1,0,4" fill="none" stroke="#f1b31c" stroke-linecap="round" stroke-linejoin="round" stroke-width="2"/>
      <path d="M52,31a2,2,0,0,1,0-4" fill="none" stroke="#f1b31c" stroke-linecap="round" stroke-linejoin="round" stroke-width="2"/>
      <g>
        <rect fill="#f1b31c" height="5" rx="1" ry="1" width="4" x="42" y="30"/>
        <rect fill="none" height="5" rx="1" ry="1" stroke="#f1b31c" stroke-linecap="round" stroke-linejoin="round" stroke-width="2" width="4" x="42" y="30"/>
      </g>
      <line fill="none" stroke="#f1b31c" stroke-linecap="round" stroke-linejoin="round" stroke-width="2" x1="52" x2="56" y1="31" y2="31"/>
      <line fill="none" stroke="#f1b31c" stroke-linecap="round" stroke-linejoin="round" stroke-width="2" x1="60" x2="61" y1="24" y2="23"/>
      <line fill="none" stroke="#f1b31c" stroke-linecap="round" stroke-linejoin="round" stroke-width="2" x1="31" x2="30" y1="24" y2="23"/>
      <line fill="none" stroke="#f1b31c" stroke-linecap="round" stroke-linejoin="round" stroke-width="2" x1="43" x2="40" y1="32" y2="31"/>
      <line fill="none" stroke="#f1b31c" stroke-linecap="round" stroke-linejoin="round" stroke-width="2" x1="43" x2="40" y1="33" y2="34"/>
      <line fill="none" stroke="#f1b31c" stroke-linecap="round" stroke-linejoin="round" stroke-width="2" x1="60" x2="61" y1="48" y2="49"/>
      <line fill="none" stroke="#f1b31c" stroke-linecap="round" stroke-linejoin="round" stroke-width="2" x1="31" x2="30" y1="48" y2="49"/>
    </g>
  </g>
  <g id="line">
    <rect fill="none" height="38" stroke="#000" stroke-linecap="round" stroke-linejoin="round" stroke-width="2" width="62" x="5" y="17"/>
  </g>
</svg>