<svg viewBox="0 0 72 72" xmlns="http://www.w3.org/2000/svg">
  <defs>
    <linearGradient id="yellow-gradient" x1="0%" x2="0%" y1="0%" y2="100%">
      <stop offset="0%" style="stop-color:#FDE02F;stop-opacity:1;"/>
      <stop offset="100%" style="stop-color:#F7B209;stop-opacity:1;"/>
    </linearGradient>
  </defs>
  <g id="color">
    <rect fill="#d22f27" height="38" width="62" x="5" y="17"/>
    <rect fill="#fff" height="19" width="62" x="5" y="36"/>
    <circle cx="20" cy="22" fill="#fff" r="1"/>
    <circle cx="18" cy="27" fill="#fff" r="1"/>
    <circle cx="22" cy="27" fill="#fff" r="1"/>
    <circle cx="17" cy="24" fill="#fff" r="1"/>
    <circle cx="23" cy="24" fill="#fff" r="1"/>
    <path d="M11.1987,24.9227A4.873,4.873,0,0,1,15,20.094,4.539,4.539,0,0,0,14.0877,20a4.9273,4.9273,0,0,0,0,9.8454A4.539,4.539,0,0,0,15,29.7514,4.873,4.873,0,0,1,11.1987,24.9227Z" fill="#fff" stroke="#fff" stroke-linecap="round" stroke-linejoin="round"/>
  </g>
  <g id="line">
    <rect fill="none" height="38" stroke="#000" stroke-linecap="round" stroke-linejoin="round" stroke-width="2" width="62" x="5" y="17"/>
  </g>
</svg>