<svg viewBox="0 0 72 72" xmlns="http://www.w3.org/2000/svg">
  <defs>
    <linearGradient id="yellow-gradient" x1="0%" x2="0%" y1="0%" y2="100%">
      <stop offset="0%" style="stop-color:#FDE02F;stop-opacity:1;"/>
      <stop offset="100%" style="stop-color:#F7B209;stop-opacity:1;"/>
    </linearGradient>
  </defs>
  <g id="color">
    <rect fill="#1e50a0" height="38" width="62" x="5" y="17"/>
    <rect fill="#fff" height="5" width="62" x="5" y="17"/>
    <rect fill="#fff" height="4" width="62" x="5" y="26"/>
    <rect fill="#fff" height="4" width="62" x="5" y="34"/>
    <rect fill="#fff" height="4" width="62" x="5" y="42"/>
    <rect fill="#fff" height="5" width="62" x="5" y="50"/>
    <rect fill="#fff" height="20.997" width="20.9988" x="5.0006" y="17.0015"/>
    <polygon fill="#f1b31c" points="15.296 26.896 17 24.536 15.808 27.192 18.464 26 16.104 27.704 19 28 16.104 28.296 18.464 30 15.808 28.808 17 31.464 15.296 29.104 15 32 14.704 29.104 13 31.464 14.192 28.808 11.536 30 13.896 28.296 11 28 13.896 27.704 11.536 26 14.192 27.192 13 24.536 14.704 26.896 15 24 15.296 26.896" stroke="#f1b31c" stroke-linecap="round" stroke-linejoin="round"/>
  </g>
  <g id="line">
    <rect fill="none" height="38" stroke="#000" stroke-linecap="round" stroke-linejoin="round" stroke-width="2" width="62" x="5" y="17"/>
  </g>
</svg>