<svg viewBox="0 0 72 72" xmlns="http://www.w3.org/2000/svg">
  <defs>
    <linearGradient id="yellow-gradient" x1="0%" x2="0%" y1="0%" y2="100%">
      <stop offset="0%" style="stop-color:#FDE02F;stop-opacity:1;"/>
      <stop offset="100%" style="stop-color:#F7B209;stop-opacity:1;"/>
    </linearGradient>
  </defs>
  <g id="color">
    <rect fill="#1e50a0" height="38" width="62" x="5" y="17"/>
    <g>
      <polygon fill="#fff" points="9.887 18 6 18 6 20.332 32.113 36 36 36 36 33.668 9.887 18"/>
      <polygon fill="#fff" points="36 20.332 36 18 32.113 18 6 33.668 6 36 9.887 36 36 20.332"/>
      <rect fill="#fff" height="6" width="30" x="6" y="24"/>
      <rect fill="#fff" height="18" width="6" x="18" y="18"/>
      <rect fill="#d22f27" height="18" width="2" x="20" y="18"/>
      <rect fill="#d22f27" height="2" width="30" x="6" y="26"/>
      <polygon fill="#d22f27" points="36 33.668 29.887 30 26 30 36 36 36 35.999 36 33.668"/>
      <polygon fill="#d22f27" points="36 18 32.113 18 24 22.868 24 24 26.001 24 36 18.001 36 18"/>
      <polygon fill="#d22f27" points="6 20.332 12.113 24 16.001 24 6.001 18 6 18.001 6 20.332"/>
      <polygon fill="#d22f27" points="6 36 9.887 36 18 31.132 18 30 16 30 6 35.999 6 36"/>
    </g>
    <g>
      <path d="M59.5,30h-.2771c.0939.0307.1839.0693.2771.1014Z" fill="#3f3f3f"/>
      <path d="M46.5,30v.1014c.0932-.0321.1832-.0707.2771-.1014Z" fill="#3f3f3f"/>
      <path d="M53,29a19.9562,19.9562,0,0,0-6.2229,1H59.2229A19.9562,19.9562,0,0,0,53,29Z" fill="url(#yellow-gradient)"/>
      <path d="M59.5,35.5V30.1014c-.0932-.0321-.1832-.0707-.2771-.1014H46.7771c-.0939.0307-.1839.0693-.2771.1014V35.5Z" fill="url(#yellow-gradient)"/>
    </g>
    <path d="M45.9556,35.81,59.5,35.8635S61,45,53,48" fill="#92d3f5"/>
    <path d="M45.9556,35.81S45,46,53,48" fill="#92d3f5"/>
    <path d="M57,43.9188c-2.4-1.5567-8,0-8,0L53,48Z" fill="#1e50a0" stroke="#1e50a0" stroke-linecap="round" stroke-linejoin="round" stroke-width="2"/>
    <polyline fill="none" points="47 38 50 42 50 45" stroke="#a57939" stroke-linecap="round" stroke-linejoin="round" stroke-width="2"/>
    <ellipse cx="47.8576" cy="41.5894" fill="none" rx="0.5" ry="2.6466" stroke="#a57939" stroke-linecap="round" stroke-linejoin="round" stroke-width="2" transform="translate(-10.5827 16.9976) rotate(-18.1699)"/>
    <polygon fill="#f4aa41" points="54 33 52 33 51 31 54 33" stroke="#a57939" stroke-linecap="round" stroke-linejoin="round" stroke-width="2"/>
    <path d="M56,42H53A2.8222,2.8222,0,0,0,56,42Z" fill="none" stroke="#f4aa41" stroke-linecap="round" stroke-linejoin="round" stroke-width="2"/>
    <path d="M59.5833,30v9c0,6.75-6.75,9-6.75,9s-6.75-2.25-6.75-9V30S52.9792,26.5937,59.5833,30Z" fill="none" stroke="#000" stroke-linecap="round" stroke-linejoin="round"/>
    <line fill="none" stroke="#000" stroke-linecap="round" stroke-linejoin="round" x1="59.5" x2="46.5" y1="35.5" y2="35.5"/>
  </g>
  <g id="line">
    <rect fill="none" height="38" stroke="#000" stroke-linecap="round" stroke-linejoin="round" stroke-width="2" width="62" x="5" y="17"/>
  </g>
</svg>