<svg viewBox="0 0 72 72" xmlns="http://www.w3.org/2000/svg">
  <defs>
    <linearGradient id="yellow-gradient" x1="0%" x2="0%" y1="0%" y2="100%">
      <stop offset="0%" style="stop-color:#FDE02F;stop-opacity:1;"/>
      <stop offset="100%" style="stop-color:#F7B209;stop-opacity:1;"/>
    </linearGradient>
  </defs>
  <g id="color">
    <rect fill="#d22f27" height="38" width="62" x="5" y="17"/>
    <rect fill="#fff" height="13" width="62" x="5" y="17"/>
    <rect fill="#1e50a0" height="12" width="62" x="5" y="30"/>
    <path d="M23.8334,45s6.75-2.25,6.75-9V27h-13.5v9C17.0834,42.75,23.8334,45,23.8334,45Z" fill="#d22f27" stroke="#fff" stroke-linecap="round" stroke-linejoin="round"/>
    <line fill="none" stroke="#fff" stroke-linecap="round" stroke-linejoin="round" stroke-width="2" x1="23.8334" x2="23.8334" y1="29.5" y2="41.5"/>
    <line fill="none" stroke="#fff" stroke-linecap="round" stroke-linejoin="round" stroke-width="2" x1="21.8334" x2="25.8334" y1="31.5" y2="31.5"/>
    <line fill="none" stroke="#fff" stroke-linecap="round" stroke-linejoin="round" stroke-width="2" x1="20.3334" x2="27.3334" y1="34.5" y2="34.5"/>
    <circle cx="23.8334" cy="41.5" fill="#1e50a0" r="3.1667"/>
    <path d="M19.25,39.3333a2.1457,2.1457,0,0,0-1.3265.465,9.5792,9.5792,0,0,0,2.7022,3.3628A2.158,2.158,0,0,0,19.25,39.3333Z" fill="#1e50a0"/>
    <path d="M28.4167,39.3333a2.158,2.158,0,0,0-1.3757,3.8278,9.5792,9.5792,0,0,0,2.7022-3.3628A2.1455,2.1455,0,0,0,28.4167,39.3333Z" fill="#1e50a0"/>
    <path d="M23.8334,45s6.75-2.25,6.75-9V27h-13.5v9C17.0834,42.75,23.8334,45,23.8334,45Z" fill="none" stroke="#fff" stroke-linecap="round" stroke-linejoin="round"/>
  </g>
  <g id="line">
    <rect fill="none" height="38" stroke="#000" stroke-linecap="round" stroke-linejoin="round" stroke-width="2" width="62" x="5" y="17"/>
  </g>
</svg>