<svg viewBox="0 0 72 72" xmlns="http://www.w3.org/2000/svg">
  <defs>
    <linearGradient id="yellow-gradient" x1="0%" x2="0%" y1="0%" y2="100%">
      <stop offset="0%" style="stop-color:#FDE02F;stop-opacity:1;"/>
      <stop offset="100%" style="stop-color:#F7B209;stop-opacity:1;"/>
    </linearGradient>
  </defs>
  <g id="color">
    <rect fill="#5c9e31" height="38" width="62" x="5" y="17"/>
    <polygon fill="#1e50a0" points="5 17 5 55 67 17 5 17"/>
    <polygon fill="url(#yellow-gradient)" points="67 21 67 17 62 17 5 51 5 55 10 55 67 21"/>
    <polygon fill="#fff" points="9.384 25.5 11.044 20.5 12.475 25.423 8.5 22.457 13.5 22.333 9.384 25.5" stroke="#fff" stroke-linecap="round" stroke-linejoin="round"/>
    <polygon fill="#fff" points="21.384 25.5 23.044 20.5 24.475 25.423 20.5 22.457 25.5 22.333 21.384 25.5" stroke="#fff" stroke-linecap="round" stroke-linejoin="round"/>
    <polygon fill="#fff" points="9.384 35.5 11.044 30.5 12.475 35.423 8.5 32.457 13.5 32.333 9.384 35.5" stroke="#fff" stroke-linecap="round" stroke-linejoin="round"/>
    <polygon fill="#fff" points="15.384 30.5 17.044 25.5 18.475 30.423 14.5 27.457 19.5 27.333 15.384 30.5" stroke="#fff" stroke-linecap="round" stroke-linejoin="round"/>
    <polygon fill="#fff" points="21.384 35.5 23.044 30.5 24.475 35.423 20.5 32.457 25.5 32.333 21.384 35.5" stroke="#fff" stroke-linecap="round" stroke-linejoin="round"/>
  </g>
  <g id="line">
    <rect fill="none" height="38" stroke="#000" stroke-linecap="round" stroke-linejoin="round" stroke-width="2" width="62" x="5" y="17"/>
  </g>
</svg>