<svg viewBox="0 0 72 72" xmlns="http://www.w3.org/2000/svg">
  <defs>
    <linearGradient id="yellow-gradient" x1="0%" x2="0%" y1="0%" y2="100%">
      <stop offset="0%" style="stop-color:#FDE02F;stop-opacity:1;"/>
      <stop offset="100%" style="stop-color:#F7B209;stop-opacity:1;"/>
    </linearGradient>
  </defs>
  <g id="color">
    <rect fill="#d22f27" height="38" width="62" x="5" y="17"/>
    <rect fill="#1e50a0" height="19.9971" width="31.9982" x="5.0009" y="17.0014"/>
    <polygon fill="#fff" points="19.523 25.523 18.324 21.999 20.776 24.8 21.5 21.148 22.223 24.8 24.675 21.999 23.476 25.523 27 24.323 24.199 26.776 27.851 27.499 24.199 28.223 27 30.675 23.476 29.475 24.675 33 22.223 30.199 21.5 33.851 20.776 30.199 18.324 33 19.523 29.475 15.999 30.675 18.8 28.223 15.148 27.499 18.8 26.776 15.999 24.323 19.523 25.523" stroke="#fff" stroke-linecap="round" stroke-linejoin="round"/>
    <circle cx="21.4995" cy="27.4992" fill="none" r="4.0888" stroke="#1e50a0" stroke-miterlimit="10"/>
  </g>
  <g id="line">
    <rect fill="none" height="38" stroke="#000" stroke-linecap="round" stroke-linejoin="round" stroke-width="2" width="62" x="5" y="17"/>
  </g>
</svg>