<svg viewBox="0 0 72 72" xmlns="http://www.w3.org/2000/svg">
  <defs>
    <linearGradient id="yellow-gradient" x1="0%" x2="0%" y1="0%" y2="100%">
      <stop offset="0%" style="stop-color:#FDE02F;stop-opacity:1;"/>
      <stop offset="100%" style="stop-color:#F7B209;stop-opacity:1;"/>
    </linearGradient>
  </defs>
  <g id="color">
    <rect fill="#1e50a0" height="38" width="62" x="5" y="17"/>
    <g>
      <polygon fill="#fff" points="9.887 18 6 18 6 20.332 32.113 36 36 36 36 33.668 9.887 18"/>
      <polygon fill="#fff" points="36 20.332 36 18 32.113 18 6 33.668 6 36 9.887 36 36 20.332"/>
      <rect fill="#fff" height="6" width="30" x="6" y="24"/>
      <rect fill="#fff" height="18" width="6" x="18" y="18"/>
      <rect fill="#d22f27" height="18" width="2" x="20" y="18"/>
      <rect fill="#d22f27" height="2" width="30" x="6" y="26"/>
      <polygon fill="#d22f27" points="36 33.668 29.887 30 26 30 36 36 36 35.999 36 33.668"/>
      <polygon fill="#d22f27" points="36 18 32.113 18 24 22.868 24 24 26.001 24 36 18.001 36 18"/>
      <polygon fill="#d22f27" points="6 20.332 12.113 24 16.001 24 6.001 18 6 18.001 6 20.332"/>
      <polygon fill="#d22f27" points="6 36 9.887 36 18 31.132 18 30 16 30 6 35.999 6 36"/>
    </g>
    <g>
      <path d="M60.73,29.0911H44.6178s-1.0053,14.0906,8.0395,18.1475v.0165l.0167-.0082.0167.0082v-.0165C61.7356,43.1817,60.73,29.0911,60.73,29.0911Z" fill="#f1b31c" stroke="#fff" stroke-linecap="round" stroke-linejoin="round" stroke-width="1.0091"/>
      <g>
        <path d="M49.777,42.7141s0-5.0455,3.0273-5.0455,3.0274,5.0455,3.0274,5.0455S52.8043,45.7415,49.777,42.7141Z" fill="#5c9e31"/>
        <circle cx="52.8043" cy="37.6686" fill="#d22f27" r="1.0091" stroke="#d22f27" stroke-miterlimit="10" stroke-width="1.0091"/>
      </g>
      <g>
        <ellipse cx="47.8891" cy="33.506" fill="#f4aa41" rx="1.5137" ry="2.6489" transform="translate(-9.6887 23.4653) rotate(-25.0868)"/>
        <ellipse cx="48.8982" cy="33.506" fill="#ffa7c0" rx="1.5137" ry="2.6489"/>
      </g>
      <ellipse cx="56.9711" cy="33.506" fill="#a57939" rx="1.5137" ry="2.6489"/>
    </g>
  </g>
  <g id="line">
    <rect fill="none" height="38" stroke="#000" stroke-linecap="round" stroke-linejoin="round" stroke-width="2" width="62" x="5" y="17"/>
  </g>
</svg>