<svg viewBox="0 0 72 72" xmlns="http://www.w3.org/2000/svg">
  <defs>
    <linearGradient id="yellow-gradient" x1="0%" x2="0%" y1="0%" y2="100%">
      <stop offset="0%" style="stop-color:#FDE02F;stop-opacity:1;"/>
      <stop offset="100%" style="stop-color:#F7B209;stop-opacity:1;"/>
    </linearGradient>
  </defs>
  <g id="color">
    <rect fill="#fff" height="38" width="62" x="5" y="17"/>
    <rect fill="#61b2e4" height="19" width="62" x="5" y="36"/>
    <path d="M41,31a7.191,7.191,0,0,1,2,5,10.0442,10.0442,0,0,1-7,10,10.0442,10.0442,0,0,1-7-10,7.191,7.191,0,0,1,2-5" fill="#61b2e4"/>
    <path d="M41,31a7.191,7.191,0,0,1,2,5,10.0442,10.0442,0,0,1-7,10,10.0442,10.0442,0,0,1-7-10,7.191,7.191,0,0,1,2-5" fill="#61b2e4"/>
    <line fill="url(#yellow-gradient)" stroke="#f1b31c" stroke-linecap="round" stroke-linejoin="round" stroke-width="2" x1="36" x2="36" y1="22" y2="30"/>
    <path d="M36,28a3,3,0,0,1,3-3c1.6569,0,4.1391,1.4725,2,6H31c-2.1391-4.5275.3431-6,2-6a3,3,0,0,1,3,3" fill="none" stroke="#f1b31c" stroke-linecap="round" stroke-linejoin="round" stroke-width="2"/>
    <line fill="none" stroke="#6a462f" stroke-linecap="round" stroke-linejoin="round" stroke-width="2" x1="36" x2="36" y1="35" y2="41"/>
    <path d="M29.6694,40A10.0342,10.0342,0,0,0,36,46a10.0342,10.0342,0,0,0,6.3306-6Z" fill="#5c9e31"/>
    <path d="M41,31a7.191,7.191,0,0,1,2,5,10.0442,10.0442,0,0,1-7,10,10.0442,10.0442,0,0,1-7-10,7.191,7.191,0,0,1,2-5" fill="none" stroke="#f1b31c" stroke-linecap="round" stroke-linejoin="round" stroke-width="2"/>
    <path d="M41,47c3.3484-1.7381,6-6.2282,6-11a12.9874,12.9874,0,0,0-1.066-5" fill="none" stroke="#186648" stroke-linecap="round" stroke-linejoin="round" stroke-width="2"/>
    <path d="M31,47c-3.3484-1.7381-6-6.2282-6-11a12.9874,12.9874,0,0,1,1.066-5" fill="none" stroke="#186648" stroke-linecap="round" stroke-linejoin="round" stroke-width="2"/>
    <polyline fill="none" points="43 49 41 47 31 47 29 49" stroke="#fff" stroke-linecap="round" stroke-linejoin="round" stroke-width="2"/>
  </g>
  <g id="line">
    <rect fill="none" height="38" stroke="#000" stroke-linecap="round" stroke-linejoin="round" stroke-width="2" width="62" x="5" y="17"/>
  </g>
</svg>