<svg viewBox="0 0 72 72" xmlns="http://www.w3.org/2000/svg">
  <defs>
    <linearGradient id="yellow-gradient" x1="0%" x2="0%" y1="0%" y2="100%">
      <stop offset="0%" style="stop-color:#FDE02F;stop-opacity:1;"/>
      <stop offset="100%" style="stop-color:#F7B209;stop-opacity:1;"/>
    </linearGradient>
  </defs>
  <g id="color">
    <rect fill="#186648" height="38" width="62" x="5" y="17"/>
    <rect fill="#d22f27" height="38" width="14.9278" x="8.1715" y="17"/>
    <polygon fill="#781e32" points="18.624 17 12.658 17 8.171 21.216 15.641 28.234 23.11 21.216 18.624 17"/>
    <polygon fill="#f1b31c" points="17.114 19.628 14.167 19.628 12.693 21.216 14.167 22.804 17.114 22.804 18.588 21.216 17.114 19.628"/>
    <polygon fill="#781e32" points="15.641 38.16 8.171 31.142 15.641 24.123 23.11 31.142 15.641 38.16"/>
    <polygon fill="#f1b31c" points="17.114 29.554 14.167 29.554 12.693 31.142 14.167 32.73 17.114 32.73 18.588 31.142 17.114 29.554"/>
    <polygon fill="#781e32" points="15.641 48.086 8.171 41.067 15.641 34.049 23.11 41.067 15.641 48.086"/>
    <polygon fill="#f1b31c" points="17.114 39.479 14.167 39.479 12.693 41.067 14.167 42.655 17.114 42.655 18.588 41.067 17.114 39.479"/>
    <polygon fill="#781e32" points="18.846 55 23.11 50.993 15.641 43.975 8.171 50.993 12.435 55 18.846 55"/>
    <polygon fill="#f1b31c" points="17.114 49.405 14.167 49.405 12.693 50.993 14.167 52.581 17.114 52.581 18.588 50.993 17.114 49.405"/>
    <g>
      <path d="M37.4927,21.8329a7.7649,7.7649,0,0,1-6.8143,13.66,7.77,7.77,0,1,0,6.8143-13.66Z" fill="#fff" stroke="#fff" stroke-linecap="round" stroke-linejoin="round" stroke-width="0.9952"/>
      <circle cx="32.7629" cy="23.0551" fill="#fff" r="0.7385"/>
      <circle cx="32.7629" cy="26.0091" fill="#fff" r="0.7385"/>
      <circle cx="29.8089" cy="26.0091" fill="#fff" r="0.7385"/>
      <circle cx="35.717" cy="26.0091" fill="#fff" r="0.7385"/>
      <circle cx="32.7629" cy="28.9631" fill="#fff" r="0.7385"/>
    </g>
  </g>
  <g id="line">
    <rect fill="none" height="38" stroke="#000" stroke-linecap="round" stroke-linejoin="round" stroke-width="2" width="62" x="5" y="17"/>
  </g>
</svg>