<svg viewBox="0 0 72 72" xmlns="http://www.w3.org/2000/svg">
  <defs>
    <linearGradient id="yellow-gradient" x1="0%" x2="0%" y1="0%" y2="100%">
      <stop offset="0%" style="stop-color:#FDE02F;stop-opacity:1;"/>
      <stop offset="100%" style="stop-color:#F7B209;stop-opacity:1;"/>
    </linearGradient>
  </defs>
  <g id="color">
    <rect fill="#1e50a0" height="38" width="62" x="5.2273" y="17"/>
    <rect fill="#d22f27" height="38" width="21" x="5.2273" y="17"/>
    <rect fill="#d22f27" height="38" width="21" x="46.2273" y="17"/>
    <circle cx="16" cy="29" fill="url(#yellow-gradient)" r="1" stroke="url(#yellow-gradient)" stroke-linecap="round" stroke-linejoin="round" stroke-width="2"/>
    <circle cx="16" cy="41" fill="url(#yellow-gradient)" r="1" stroke="url(#yellow-gradient)" stroke-linecap="round" stroke-linejoin="round" stroke-width="2"/>
    <path d="M17,24a1,1,0,0,1-2,0l1-1Z" fill="url(#yellow-gradient)" stroke="url(#yellow-gradient)" stroke-linecap="round" stroke-linejoin="round" stroke-width="2"/>
    <polygon fill="url(#yellow-gradient)" points="15 33 17 33 16 34 15 33" stroke="url(#yellow-gradient)" stroke-linecap="round" stroke-linejoin="round" stroke-width="2"/>
    <polygon fill="url(#yellow-gradient)" points="15 48 17 48 16 49 15 48" stroke="url(#yellow-gradient)" stroke-linecap="round" stroke-linejoin="round" stroke-width="2"/>
    <line fill="url(#yellow-gradient)" stroke="url(#yellow-gradient)" stroke-linecap="round" stroke-linejoin="round" stroke-width="2" x1="15" x2="17" y1="37" y2="37"/>
    <line fill="url(#yellow-gradient)" stroke="url(#yellow-gradient)" stroke-linecap="round" stroke-linejoin="round" stroke-width="2" x1="15" x2="17" y1="45" y2="45"/>
    <rect fill="url(#yellow-gradient)" height="16" stroke="url(#yellow-gradient)" stroke-linecap="round" stroke-linejoin="round" stroke-width="2" width="1" x="11" y="33"/>
    <rect fill="url(#yellow-gradient)" height="16" stroke="url(#yellow-gradient)" stroke-linecap="round" stroke-linejoin="round" stroke-width="2" width="1" x="20" y="33"/>
  </g>
  <g id="line">
    <rect fill="none" height="38" stroke="#000" stroke-linecap="round" stroke-linejoin="round" stroke-width="2" width="62" x="5" y="17"/>
  </g>
</svg>