<svg viewBox="0 0 72 72" xmlns="http://www.w3.org/2000/svg">
  <defs>
    <linearGradient id="yellow-gradient" x1="0%" x2="0%" y1="0%" y2="100%">
      <stop offset="0%" style="stop-color:#FDE02F;stop-opacity:1;"/>
      <stop offset="100%" style="stop-color:#F7B209;stop-opacity:1;"/>
    </linearGradient>
  </defs>
  <g id="color">
    <rect fill="#fff" height="38" width="62" x="5" y="17"/>
    <g>
      <circle cx="36" cy="36" fill="#d22f27" r="9"/>
      <g>
        <path d="M28.1267,31.6756A4.4922,4.4922,0,0,0,36,36c.023-.04.0338-.0828.0554-.123l.0232.0138a4.4932,4.4932,0,0,1,7.7243,4.59l.003.0018a8.9918,8.9918,0,0,1-15.6792-8.8071Z" fill="#1e50a0"/>
        <path d="M28.3313,31.2869l.02.0115c-.03.046-.0668.085-.0954.1325C28.283,31.3844,28.3029,31.3328,28.3313,31.2869Z" fill="#1e50a0"/>
      </g>
    </g>
    <g>
      <g>
        <line fill="none" stroke="#000" stroke-linecap="round" stroke-linejoin="round" x1="24.2321" x2="27.2321" y1="41.9019" y2="47.0981"/>
        <line fill="none" stroke="#000" stroke-linecap="round" stroke-linejoin="round" x1="20.768" x2="23.768" y1="43.9019" y2="49.0981"/>
        <line fill="none" stroke="#000" stroke-linecap="round" stroke-linejoin="round" x1="22.5" x2="23.5" y1="42.9019" y2="44.634"/>
        <line fill="none" stroke="#000" stroke-linecap="round" stroke-linejoin="round" x1="24.5" x2="25.5" y1="46.366" y2="48.0981"/>
      </g>
      <g>
        <line fill="none" stroke="#000" stroke-linecap="round" stroke-linejoin="round" x1="45.5" x2="46.5" y1="48.0981" y2="46.366"/>
        <line fill="none" stroke="#000" stroke-linecap="round" stroke-linejoin="round" x1="47.5" x2="48.5" y1="44.634" y2="42.9019"/>
        <line fill="none" stroke="#000" stroke-linecap="round" stroke-linejoin="round" x1="47.2321" x2="48.2321" y1="49.0981" y2="47.366"/>
        <line fill="none" stroke="#000" stroke-linecap="round" stroke-linejoin="round" x1="49.2321" x2="50.2321" y1="45.634" y2="43.9019"/>
        <line fill="none" stroke="#000" stroke-linecap="round" stroke-linejoin="round" x1="43.768" x2="44.768" y1="47.0981" y2="45.366"/>
        <line fill="none" stroke="#000" stroke-linecap="round" stroke-linejoin="round" x1="45.768" x2="46.768" y1="43.634" y2="41.9019"/>
      </g>
      <g>
        <line fill="none" stroke="#000" stroke-linecap="round" stroke-linejoin="round" x1="20.768" x2="23.768" y1="28.0981" y2="22.9019"/>
        <line fill="none" stroke="#000" stroke-linecap="round" stroke-linejoin="round" x1="22.5" x2="25.5" y1="29.0981" y2="23.9019"/>
        <line fill="none" stroke="#000" stroke-linecap="round" stroke-linejoin="round" x1="24.2321" x2="27.2321" y1="30.0981" y2="24.9019"/>
      </g>
      <g>
        <line fill="none" stroke="#000" stroke-linecap="round" stroke-linejoin="round" x1="44.768" x2="45.768" y1="24.9019" y2="26.634"/>
        <line fill="none" stroke="#000" stroke-linecap="round" stroke-linejoin="round" x1="46.768" x2="47.768" y1="28.366" y2="30.0981"/>
        <line fill="none" stroke="#000" stroke-linecap="round" stroke-linejoin="round" x1="48.2321" x2="49.2321" y1="22.9019" y2="24.634"/>
        <line fill="none" stroke="#000" stroke-linecap="round" stroke-linejoin="round" x1="50.2321" x2="51.2321" y1="26.366" y2="28.0981"/>
        <line fill="none" stroke="#000" stroke-linecap="round" stroke-linejoin="round" x1="46.5" x2="49.5" y1="23.9019" y2="29.0981"/>
      </g>
    </g>
  </g>
  <g id="line">
    <rect fill="none" height="38" stroke="#000" stroke-linecap="round" stroke-linejoin="round" stroke-width="2" width="62" x="5" y="17"/>
  </g>
</svg>