<svg viewBox="0 0 72 72" xmlns="http://www.w3.org/2000/svg">
  <defs>
    <linearGradient id="yellow-gradient" x1="0%" x2="0%" y1="0%" y2="100%">
      <stop offset="0%" style="stop-color:#FDE02F;stop-opacity:1;"/>
      <stop offset="100%" style="stop-color:#F7B209;stop-opacity:1;"/>
    </linearGradient>
  </defs>
  <g id="color">
    <rect fill="#92d3f5" height="38" width="62" x="5" y="17"/>
    <polygon fill="#f1b31c" points="58.707 25 60.035 21 61.18 24.939 58 22.565 62 22.467 58.707 25" stroke="#f1b31c" stroke-linecap="round" stroke-linejoin="round"/>
    <polygon fill="#f1b31c" points="58.707 41 60.035 37 61.18 40.939 58 38.565 62 38.467 58.707 41" stroke="#f1b31c" stroke-linecap="round" stroke-linejoin="round"/>
    <polygon fill="#f1b31c" points="51.709 45 53.037 41 54.181 44.939 51.002 42.565 55.002 42.467 51.709 45" stroke="#f1b31c" stroke-linecap="round" stroke-linejoin="round"/>
    <polygon fill="#f1b31c" points="26.709 52 28.037 48 29.181 51.939 26.002 49.565 30.002 49.467 26.709 52" stroke="#f1b31c" stroke-linecap="round" stroke-linejoin="round"/>
    <polygon fill="#f1b31c" points="47.294 45 45.967 49 44.822 45.061 48.002 47.435 44.002 47.533 47.294 45" stroke="#f1b31c" stroke-linecap="round" stroke-linejoin="round"/>
    <polygon fill="#f1b31c" points="37.294 46 35.967 50 34.822 46.061 38.002 48.435 34.002 48.533 37.294 46" stroke="#f1b31c" stroke-linecap="round" stroke-linejoin="round"/>
    <polygon fill="#f1b31c" points="37.294 39 35.967 43 34.822 39.061 38.002 41.435 34.002 41.533 37.294 39" stroke="#f1b31c" stroke-linecap="round" stroke-linejoin="round"/>
    <polygon fill="#f1b31c" points="50.891 29.207 50.041 25.079 53.002 27.918 49.061 27.452 52.476 25.366 50.891 29.207" stroke="#f1b31c" stroke-linecap="round" stroke-linejoin="round"/>
    <polygon fill="#f1b31c" points="44.891 31.207 44.041 27.079 47.002 29.918 43.061 29.452 46.476 27.366 44.891 31.207" stroke="#f1b31c" stroke-linecap="round" stroke-linejoin="round"/>
    <rect fill="#1e50a0" height="19" width="31" x="5" y="17"/>
    <g>
      <polygon fill="#fff" points="9.887 18 6 18 6 20.332 32.113 36 36 36 36 33.668 9.887 18"/>
      <polygon fill="#fff" points="36 20.332 36 18 32.113 18 6 33.668 6 36 9.887 36 36 20.332"/>
      <rect fill="#fff" height="6" width="30" x="6" y="24"/>
      <rect fill="#fff" height="18" width="6" x="18" y="18"/>
      <rect fill="#d22f27" height="18" width="2" x="20" y="18"/>
      <rect fill="#d22f27" height="2" width="30" x="6" y="26"/>
      <polygon fill="#d22f27" points="36 33.668 29.887 30 26 30 36 36 36 35.999 36 33.668"/>
      <polygon fill="#d22f27" points="36 18 32.113 18 24 22.868 24 24 26.001 24 36 18.001 36 18"/>
      <polygon fill="#d22f27" points="6 20.332 12.113 24 16.001 24 6.001 18 6 18.001 6 20.332"/>
      <polygon fill="#d22f27" points="6 36 9.887 36 18 31.132 18 30 16 30 6 35.999 6 36"/>
    </g>
  </g>
  <g id="line">
    <rect fill="none" height="38" stroke="#000" stroke-linecap="round" stroke-linejoin="round" stroke-width="2" width="62" x="5" y="17"/>
  </g>
</svg>