<svg viewBox="0 0 72 72" xmlns="http://www.w3.org/2000/svg">
  <defs>
    <linearGradient id="yellow-gradient" x1="0%" x2="0%" y1="0%" y2="100%">
      <stop offset="0%" style="stop-color:#FDE02F;stop-opacity:1;"/>
      <stop offset="100%" style="stop-color:#F7B209;stop-opacity:1;"/>
    </linearGradient>
  </defs>
  <g id="color">
    <rect height="38" width="62" x="5" y="17"/>
    <rect fill="#f1b31c" height="6" width="62" x="5" y="42"/>
    <rect fill="#d22f27" height="6" width="62" x="5" y="30"/>
    <rect fill="#d22f27" height="7" width="62" x="5" y="48"/>
    <rect fill="#f1b31c" height="6" width="62" x="5" y="24"/>
    <circle cx="36" cy="36" fill="#fff" r="6"/>
    <circle cx="35.215" cy="32.6639" r="0.9933" stroke="#000" stroke-miterlimit="10" stroke-width="1.3347"/>
    <circle cx="36.7049" cy="36.1404" r="0.9933" stroke="#000" stroke-miterlimit="10" stroke-width="1.6683"/>
    <line stroke="#000" stroke-linecap="round" stroke-linejoin="round" stroke-width="1.001" x1="32.7318" x2="35.7116" y1="33.1606" y2="33.1606"/>
    <line stroke="#000" stroke-linecap="round" stroke-linejoin="round" stroke-width="1.6683" x1="35.7116" x2="35.7116" y1="36.1404" y2="33.1606"/>
    <line stroke="#000" stroke-linecap="round" stroke-linejoin="round" stroke-width="1.001" x1="36.7049" x2="36.7049" y1="40.1135" y2="37.1337"/>
    <path d="M38.5822,34.9626c-1.2029-.676-2.5481-.5659-3.0044.246l4.3563,2.4483C40.39,36.8451,39.7851,35.6387,38.5822,34.9626Z" stroke="#000000" stroke-linecap="round" stroke-linejoin="round" stroke-width="0.3337"/>
  </g>
  <g id="line">
    <rect fill="none" height="38" stroke="#000" stroke-linecap="round" stroke-linejoin="round" stroke-width="2" width="62" x="5" y="17"/>
  </g>
</svg>