<svg viewBox="0 0 72 72" xmlns="http://www.w3.org/2000/svg">
  <defs>
    <linearGradient id="yellow-gradient" x1="0%" x2="0%" y1="0%" y2="100%">
      <stop offset="0%" style="stop-color:#FDE02F;stop-opacity:1;"/>
      <stop offset="100%" style="stop-color:#F7B209;stop-opacity:1;"/>
    </linearGradient>
  </defs>
  <g id="color">
    <rect fill="#1e50a0" height="38" width="62" x="5" y="17"/>
    <g>
      <rect fill="#1e50a0" height="19" width="31" x="5" y="17"/>
      <path d="M9.5,36H5L31.5,17H36Z" fill="#fff"/>
      <path d="M36,32.5,5,17v3.5L36,36Z" fill="#fff"/>
      <path d="M36,33.5,5,18v1.5L36,35Z" fill="#d22f27"/>
      <path d="M8.5,36H6L32.5,17H35Z" fill="#d22f27"/>
      <polygon fill="#d22f27" points="36 25 22 25 22 17 19 17 19 25 5 25 5 28 19 28 19 36 22 36 22 28 36 28 36 25"/>
      <g>
        <polyline fill="none" points="5 28 19 28 19 36" stroke="#fff" stroke-linejoin="round"/>
        <polyline fill="none" points="19 17 19 25 5 25" stroke="#fff" stroke-linejoin="round"/>
        <polyline fill="none" points="36 25 22 25 22 17" stroke="#fff" stroke-linejoin="round"/>
        <polyline fill="none" points="22 36 22 28 36 28" stroke="#fff" stroke-linejoin="round"/>
      </g>
    </g>
    <path d="M57.4518,44.7545c-4.5023,3.939-9.0187,3.8068-13.3557.1308-.4754.112-.8438.3264-1.1072.2357-.6456-.2222-.704-.8505-.1978-1.3206a8.0456,8.0456,0,0,0,.9669-.9378c.3463-.4526.6265-.3777.9966-.0522a19.9329,19.9329,0,0,0,1.9685,1.6365,7.357,7.357,0,0,0,9.6994-1.4055c.6294-.7476.8221-.7463,1.4606-.0087a3.6555,3.6555,0,0,0,.6087.6286c.4793.3369.7014.7127.3,1.2333C58.4718,45.31,58.0566,45.2755,57.4518,44.7545Z" fill="url(#yellow-gradient)"/>
    <path d="M50.6427,27.723H45.5671a1.8626,1.8626,0,0,0-1.8626,1.8626V40.3379c0,2.0873,4.749,3.7429,6.389,4.2524a1.84,1.84,0,0,0,1.0983,0c1.64-.5095,6.389-2.1651,6.389-4.2524V29.5856a1.8626,1.8626,0,0,0-1.8625-1.8626Z" fill="#186648"/>
    <circle cx="55.2155" cy="30.246" fill="url(#yellow-gradient)" r="0.6307"/>
    <circle cx="55.2155" cy="32.1382" fill="url(#yellow-gradient)" r="0.6307"/>
    <circle cx="55.2155" cy="34.0305" fill="url(#yellow-gradient)" r="0.6307"/>
    <circle cx="55.2155" cy="35.9227" fill="url(#yellow-gradient)" r="0.6307"/>
    <circle cx="55.2155" cy="37.8149" fill="url(#yellow-gradient)" r="0.6307"/>
    <circle cx="55.2155" cy="39.7072" fill="url(#yellow-gradient)" r="0.6307"/>
    <circle cx="46.3851" cy="30.246" fill="url(#yellow-gradient)" r="0.6307"/>
    <circle cx="51.1157" cy="29.9306" fill="#ffa7c0" r="0.9461"/>
    <circle cx="46.3851" cy="32.1382" fill="url(#yellow-gradient)" r="0.6307"/>
    <circle cx="46.3851" cy="34.0305" fill="url(#yellow-gradient)" r="0.6307"/>
    <circle cx="47.6466" cy="35.9227" fill="url(#yellow-gradient)" r="0.6307"/>
    <circle cx="46.3851" cy="37.8149" fill="url(#yellow-gradient)" r="0.6307"/>
    <circle cx="46.3851" cy="39.7072" fill="url(#yellow-gradient)" r="0.6307"/>
    <circle cx="50.1696" cy="41.5994" fill="url(#yellow-gradient)" r="0.6307"/>
    <circle cx="51.4311" cy="41.5994" fill="url(#yellow-gradient)" r="0.6307"/>
    <line fill="none" stroke="#ffa7c0" stroke-linecap="round" stroke-linejoin="round" stroke-width="0.6307" x1="49.8542" x2="47.962" y1="32.4536" y2="34.9766"/>
    <rect fill="#fff" height="10.0919" rx="1.1546" ry="1.1546" width="3.1537" x="49.46" y="31.5075"/>
    <line fill="none" stroke="#ffa7c0" stroke-linecap="round" stroke-linejoin="round" stroke-width="0.6307" x1="52.3772" x2="52.9628" y1="32.4536" y2="35.8994"/>
    <path d="M52.081,29.1231a.9461.9461,0,0,0-1.338,0l1.338,1.338A.9461.9461,0,0,0,52.081,29.1231Z" fill="#a57939" stroke="#a57939" stroke-linecap="round" stroke-linejoin="round" stroke-width="0.6307"/>
  </g>
  <g id="line">
    <rect fill="none" height="38" stroke="#000" stroke-linecap="round" stroke-linejoin="round" stroke-width="2" width="62" x="5" y="17"/>
  </g>
</svg>