<svg viewBox="0 0 72 72" xmlns="http://www.w3.org/2000/svg">
  <defs>
    <linearGradient id="yellow-gradient" x1="0%" x2="0%" y1="0%" y2="100%">
      <stop offset="0%" style="stop-color:#FDE02F;stop-opacity:1;"/>
      <stop offset="100%" style="stop-color:#F7B209;stop-opacity:1;"/>
    </linearGradient>
  </defs>
  <g id="color">
    <rect fill="#b1cc33" height="38" width="62" x="5" y="17"/>
    <rect fill="#61b2e4" height="13" width="62" x="5" y="17"/>
    <rect fill="#fff" height="11.5" stroke="#d22f27" stroke-miterlimit="10" stroke-width="1.5" width="62" x="5" y="30.25"/>
    <circle cx="29.25" cy="21" fill="#fff" r="1"/>
    <circle cx="29.25" cy="24" fill="#fff" r="1"/>
    <circle cx="29.25" cy="27" fill="#fff" r="1"/>
    <circle cx="26.25" cy="21" fill="#fff" r="1"/>
    <circle cx="26.25" cy="24" fill="#fff" r="1"/>
    <circle cx="26.25" cy="27" fill="#fff" r="1"/>
    <circle cx="23.25" cy="21" fill="#fff" r="1"/>
    <circle cx="23.25" cy="24" fill="#fff" r="1"/>
    <circle cx="23.25" cy="27" fill="#fff" r="1"/>
    <circle cx="20.25" cy="24" fill="#fff" r="1"/>
    <circle cx="20.25" cy="27" fill="#fff" r="1"/>
    <circle cx="17.25" cy="27" fill="#fff" r="1"/>
    <path d="M11.2973,24A3.4648,3.4648,0,0,1,14,20.5668a3.2286,3.2286,0,0,0-.6486-.0668,3.5033,3.5033,0,0,0,0,7A3.2286,3.2286,0,0,0,14,27.4332,3.4648,3.4648,0,0,1,11.2973,24Z" fill="#fff" stroke="#fff" stroke-linecap="round" stroke-linejoin="round"/>
  </g>
  <g id="line">
    <rect fill="none" height="38" stroke="#000" stroke-linecap="round" stroke-linejoin="round" stroke-width="2" width="62" x="5" y="17"/>
  </g>
</svg>