<svg viewBox="0 0 72 72" xmlns="http://www.w3.org/2000/svg">
  <defs>
    <linearGradient id="yellow-gradient" x1="0%" x2="0%" y1="0%" y2="100%">
      <stop offset="0%" style="stop-color:#FDE02F;stop-opacity:1;"/>
      <stop offset="100%" style="stop-color:#F7B209;stop-opacity:1;"/>
    </linearGradient>
  </defs>
  <g id="color">
    <rect fill="#d22f27" height="38" width="62" x="5" y="17"/>
    <rect fill="#1e50a0" height="21" width="32" x="5" y="17"/>
    <polygon fill="#fff" points="20.081 24.089 21.313 20.089 22.553 24.087 19.315 21.618 23.315 21.615 20.081 24.089" stroke="#fff" stroke-linecap="round" stroke-linejoin="round"/>
    <polygon fill="#fff" points="20.081 35.971 21.313 31.971 22.553 35.969 19.315 33.5 23.315 33.497 20.081 35.971" stroke="#fff" stroke-linecap="round" stroke-linejoin="round"/>
    <polygon fill="#fff" points="26.581 27.471 27.813 23.471 29.053 27.469 25.815 25 29.815 24.997 26.581 27.471" stroke="#fff" stroke-linecap="round" stroke-linejoin="round"/>
    <polygon fill="#fff" points="13.581 27.471 14.813 23.471 16.053 27.469 12.815 25 16.815 24.997 13.581 27.471" stroke="#fff" stroke-linecap="round" stroke-linejoin="round"/>
    <circle cx="24.75" cy="30" fill="#fff" r="0.5"/>
  </g>
  <g id="line">
    <rect fill="none" height="38" stroke="#000" stroke-linecap="round" stroke-linejoin="round" stroke-width="2" width="62" x="5" y="17"/>
  </g>
</svg>