<svg viewBox="10 10 52 52" xmlns="http://www.w3.org/2000/svg">
  <defs>
    <linearGradient id="yellow-gradient" x1="0%" x2="0%" y1="0%" y2="100%">
      <stop offset="0%" style="stop-color:#FDE02F;stop-opacity:1;"/>
      <stop offset="100%" style="stop-color:#F7B209;stop-opacity:1;"/>
    </linearGradient>
  </defs>
  <g id="color">
    <path d="M59.0349,60H12.9651 C12.4343,60,12,59.5657,12,59.0349V12.9651C12,12.4343,12.4343,12,12.9651,12h46.0698C59.5657,12,60,12.4343,60,12.9651v46.0698 C60,59.5657,59.5657,60,59.0349,60z" fill="#d0cfce" stroke="none" stroke-miterlimit="10" stroke-width="2"/>
  </g>
  <g id="line">
    <path d="M59.0349,60H12.9651 C12.4343,60,12,59.5657,12,59.0349V12.9651C12,12.4343,12.4343,12,12.9651,12h46.0698C59.5657,12,60,12.4343,60,12.9651v46.0698 C60,59.5657,59.5657,60,59.0349,60z" fill="none" stroke="#000000" stroke-miterlimit="10" stroke-width="2"/>
    <path d="M49.1406,29.8502h-5.4819v-4.7826c0-0.2754-0.2232-0.4986-0.4986-0.4986h-1.7307 c-0.2753,0-0.4985,0.2232-0.4985,0.4986v4.7826h-9.1624v-4.7826c0-0.2754-0.2232-0.4986-0.4985-0.4986h-1.7308 c-0.2753,0-0.4985,0.2232-0.4985,0.4986v4.7826h-6.1812c-0.2753,0-0.4985,0.2232-0.4985,0.4985v1.7307 c0,0.2753,0.2232,0.4985,0.4985,0.4985h6.1812v7.5797c0,0.2753,0.2232,0.4985,0.4985,0.4985h1.7308 c0.2753,0,0.4985-0.2232,0.4985-0.4985V32.578h9.1624v4.9091c0,2.9573-1.1118,5.7651-3.0502,7.7035 c-1.2888,1.2892-2.7015,2.003-4.2061,2.1261c-0.264,0.0216-0.4726,0.2267-0.4726,0.4916v1.736 c0,0.2834,0.2374,0.5209,0.5203,0.5042c2.2291-0.1318,4.2745-1.1155,6.0875-2.9292c2.4459-2.4459,3.8489-5.9564,3.8489-9.6321 V32.578h5.4819c0.2753,0,0.4985-0.2232,0.4985-0.4985v-1.7307C49.6391,30.0734,49.4159,29.8502,49.1406,29.8502z" fill="#000000" stroke="none"/>
  </g>
</svg>