<svg viewBox="10 10 52 52" xmlns="http://www.w3.org/2000/svg">
  <defs>
    <linearGradient id="yellow-gradient" x1="0%" x2="0%" y1="0%" y2="100%">
      <stop offset="0%" style="stop-color:#FDE02F;stop-opacity:1;"/>
      <stop offset="100%" style="stop-color:#F7B209;stop-opacity:1;"/>
    </linearGradient>
  </defs>
  <g id="color">
    <rect fill="#d0cfce" height="48.9841" rx="1.6991" width="48.9841" x="11.5915" y="11.6165"/>
  </g>
  <g id="line">
    <path d="M30.5935,17.7283s-2.7695,7.5391-8.4622,10.3085" fill="none" stroke="#000" stroke-linecap="round" stroke-linejoin="round" stroke-width="2"/>
    <polyline fill="none" points="50.518 23.498 27.355 23.498 27.355 42.038" stroke="#000" stroke-linecap="round" stroke-linejoin="round" stroke-width="2"/>
    <line fill="none" stroke="#000" stroke-linecap="round" stroke-linejoin="round" stroke-width="2" x1="22.1313" x2="50.5181" y1="42.4225" y2="42.4225"/>
    <line fill="none" stroke="#000" stroke-linecap="round" stroke-linejoin="round" stroke-width="2" x1="22.1313" x2="50.5181" y1="32.9602" y2="32.9602"/>
    <line fill="none" stroke="#000" stroke-linejoin="round" stroke-width="2" x1="33.5952" x2="33.5952" y1="23.073" y2="42.4225"/>
    <line fill="none" stroke="#000" stroke-linejoin="round" stroke-width="2" x1="39.825" x2="39.825" y1="23.073" y2="42.4225"/>
    <line fill="none" stroke="#000" stroke-linejoin="round" stroke-width="2" x1="45.9793" x2="45.9793" y1="23.073" y2="42.4225"/>
    <line fill="none" stroke="#000" stroke-linecap="round" stroke-miterlimit="10" stroke-width="2" x1="26.0434" x2="23.7394" y1="46.9261" y2="50.7637"/>
    <line fill="none" stroke="#000" stroke-linecap="round" stroke-miterlimit="10" stroke-width="2" x1="33.0352" x2="32.637" y1="47.6744" y2="52.1327"/>
    <line fill="none" stroke="#000" stroke-linecap="round" stroke-miterlimit="10" stroke-width="2" x1="40.6398" x2="40.9535" y1="47.671" y2="52.1361"/>
    <line fill="none" stroke="#000" stroke-linecap="round" stroke-miterlimit="10" stroke-width="2" x1="47.9054" x2="50.1757" y1="47.1244" y2="50.9819"/>
    <rect fill="none" height="48.9841" rx="1.6991" stroke="#000" stroke-miterlimit="10" stroke-width="2" width="48.9841" x="11.5915" y="11.6165"/>
  </g>
</svg>