<svg viewBox="10 10 52 52" xmlns="http://www.w3.org/2000/svg">
  <defs>
    <linearGradient id="yellow-gradient" x1="0%" x2="0%" y1="0%" y2="100%">
      <stop offset="0%" style="stop-color:#FDE02F;stop-opacity:1;"/>
      <stop offset="100%" style="stop-color:#F7B209;stop-opacity:1;"/>
    </linearGradient>
  </defs>
  <g id="color">
    <path d="M13.7,12H58.4a1.6855,1.6855,0,0,1,1.7,1.7V58.4a1.6855,1.6855,0,0,1-1.7,1.7H13.7A1.6855,1.6855,0,0,1,12,58.4V13.7A1.6275,1.6275,0,0,1,13.7,12Z" fill="#d0cfce"/>
  </g>
  <g id="line">
    <path d="M13.7,12H58.4a1.6855,1.6855,0,0,1,1.7,1.7V58.4a1.6855,1.6855,0,0,1-1.7,1.7H13.7A1.6855,1.6855,0,0,1,12,58.4V13.7A1.6275,1.6275,0,0,1,13.7,12Z" fill="none" stroke="#000" stroke-miterlimit="10" stroke-width="2"/>
    <line fill="none" stroke="#000" stroke-linecap="round" stroke-linejoin="round" stroke-width="2" x1="25" x2="47" y1="39" y2="39"/>
    <line fill="none" stroke="#000" stroke-linecap="round" stroke-linejoin="round" stroke-width="2" x1="25" x2="47" y1="30" y2="30"/>
    <line fill="none" stroke="#000" stroke-linecap="round" stroke-linejoin="round" stroke-width="2" x1="25" x2="47" y1="21" y2="21"/>
    <path d="M25,21V39c0,5-1,9-4,12" fill="none" stroke="#000" stroke-linecap="round" stroke-linejoin="round" stroke-width="2"/>
    <path d="M47,21V49a2.0059,2.0059,0,0,1-2,2H39" fill="none" stroke="#000" stroke-linecap="round" stroke-linejoin="round" stroke-width="2"/>
  </g>
</svg>