<svg viewBox="10 10 52 52" xmlns="http://www.w3.org/2000/svg">
  <defs>
    <linearGradient id="yellow-gradient" x1="0%" x2="0%" y1="0%" y2="100%">
      <stop offset="0%" style="stop-color:#FDE02F;stop-opacity:1;"/>
      <stop offset="100%" style="stop-color:#F7B209;stop-opacity:1;"/>
    </linearGradient>
  </defs>
  <g id="color">
    <path d="M59.0349,60h-46.07A.9679.9679,0,0,1,12,59.0349v-46.07A.9679.9679,0,0,1,12.9651,12h46.07A.9679.9679,0,0,1,60,12.9651v46.07A.9679.9679,0,0,1,59.0349,60Z" fill="#ea5a47"/>
  </g>
  <g id="line">
    <path d="M59.0349,60h-46.07A.9679.9679,0,0,1,12,59.0349v-46.07A.9679.9679,0,0,1,12.9651,12h46.07A.9679.9679,0,0,1,60,12.9651v46.07A.9679.9679,0,0,1,59.0349,60Z" fill="none" stroke="#000" stroke-miterlimit="10" stroke-width="2"/>
    <path d="M20,31c7,0,15-11,15-11s9.5,10.5,15.5,11.5" fill="none" stroke="#000000" stroke-linecap="round" stroke-linejoin="round" stroke-width="2"/>
    <line fill="none" stroke="#000000" stroke-linecap="round" stroke-linejoin="round" stroke-width="2" x1="28.5" x2="42.5" y1="30.5" y2="30.5"/>
    <polyline fill="none" points="25.5 50.5 25.5 37.5 45.5 37.5 45.5 50.5" stroke="#000000" stroke-linecap="round" stroke-linejoin="round" stroke-width="2"/>
    <line fill="none" stroke="#000000" stroke-linecap="round" stroke-linejoin="round" stroke-width="2" x1="26.5" x2="45.5" y1="48.5" y2="48.5"/>
  </g>
  <g id="color-foreground">
    <path d="M20,31c7,0,15-11,15-11s9.5,10.5,15.5,11.5" fill="none" stroke="#ffffff" stroke-linecap="round" stroke-linejoin="round" stroke-width="2"/>
    <line fill="none" stroke="#ffffff" stroke-linecap="round" stroke-linejoin="round" stroke-width="2" x1="28.5" x2="42.5" y1="30.5" y2="30.5"/>
    <polyline fill="none" points="25.5 50.5 25.5 37.5 45.5 37.5 45.5 50.5" stroke="#ffffff" stroke-linecap="round" stroke-linejoin="round" stroke-width="2"/>
    <line fill="none" stroke="#ffffff" stroke-linecap="round" stroke-linejoin="round" stroke-width="2" x1="26.5" x2="45.5" y1="48.5" y2="48.5"/>
  </g>
</svg>