<svg viewBox="10 10 52 52" xmlns="http://www.w3.org/2000/svg">
  <defs>
    <linearGradient id="yellow-gradient" x1="0%" x2="0%" y1="0%" y2="100%">
      <stop offset="0%" style="stop-color:#FDE02F;stop-opacity:1;"/>
      <stop offset="100%" style="stop-color:#F7B209;stop-opacity:1;"/>
    </linearGradient>
  </defs>
  <g id="color">
    <path d="M59.0349,60h-46.07A.9679.9679,0,0,1,12,59.0349v-46.07A.9679.9679,0,0,1,12.9651,12h46.07A.9679.9679,0,0,1,60,12.9651v46.07A.9679.9679,0,0,1,59.0349,60Z" fill="#d0cfce"/>
  </g>
  <g id="line">
    <line stroke="#000" stroke-linecap="round" stroke-linejoin="round" stroke-width="2" x1="25" x2="47" y1="37" y2="37"/>
    <polyline points="21.5 41.5 36 41.5 50.5 41.5" stroke="#000" stroke-linecap="round" stroke-linejoin="round" stroke-width="2"/>
    <polyline fill="none" points="36.5 43 36.5 50.5 31.5 50.5" stroke="#000" stroke-linecap="round" stroke-linejoin="round" stroke-width="2"/>
    <path d="M29,44s-3,5-7,6" fill="none" stroke="#000" stroke-linecap="round" stroke-linejoin="round" stroke-width="2"/>
    <path d="M43,44s3,5,7,6" fill="none" stroke="#000" stroke-linecap="round" stroke-linejoin="round" stroke-width="2"/>
    <line stroke="#000" stroke-linecap="round" stroke-linejoin="round" stroke-width="2" x1="28" x2="28" y1="22" y2="32"/>
    <line stroke="#000" stroke-linecap="round" stroke-linejoin="round" stroke-width="2" x1="21" x2="33.5" y1="24.5741" y2="24.5741"/>
    <path d="M21.5,32.5s6-4,6-8" stroke="#000" stroke-linecap="round" stroke-linejoin="round" stroke-width="2"/>
    <path d="M28.8517,24.5s1.6483,5,4.6483,6" stroke="#000" stroke-linecap="round" stroke-linejoin="round" stroke-width="2"/>
    <line stroke="#000" stroke-linecap="round" stroke-linejoin="round" stroke-width="2" x1="43.5" x2="43.5" y1="22" y2="32"/>
    <line stroke="#000" stroke-linecap="round" stroke-linejoin="round" stroke-width="2" x1="50.5" x2="38" y1="24.5741" y2="24.5741"/>
    <path d="M50,32.5s-6-4-6-8" stroke="#000" stroke-linecap="round" stroke-linejoin="round" stroke-width="2"/>
    <path d="M42.6483,24.5S40.6454,30.75,37,32" stroke="#000" stroke-linecap="round" stroke-linejoin="round" stroke-width="2"/>
    <path d="M59.0349,60h-46.07A.9679.9679,0,0,1,12,59.0349v-46.07A.9679.9679,0,0,1,12.9651,12h46.07A.9679.9679,0,0,1,60,12.9651v46.07A.9679.9679,0,0,1,59.0349,60Z" fill="none" stroke="#000" stroke-miterlimit="10" stroke-width="2"/>
  </g>
</svg>