<svg viewBox="10 10 52 52" xmlns="http://www.w3.org/2000/svg">
  <defs>
    <linearGradient id="yellow-gradient" x1="0%" x2="0%" y1="0%" y2="100%">
      <stop offset="0%" style="stop-color:#FDE02F;stop-opacity:1;"/>
      <stop offset="100%" style="stop-color:#F7B209;stop-opacity:1;"/>
    </linearGradient>
  </defs>
  <g id="color">
    <g id="color-2">
      <path d="M59.0349,60h-46.07A.9679.9679,0,0,1,12,59.0349v-46.07A.9679.9679,0,0,1,12.9651,12h46.07A.9679.9679,0,0,1,60,12.9651v46.07A.9679.9679,0,0,1,59.0349,60Z" fill="#d0cfce"/>
    </g>
  </g>
  <g id="line">
    <path d="M59.0349,60h-46.07A.9679.9679,0,0,1,12,59.0349v-46.07A.9679.9679,0,0,1,12.9651,12h46.07A.9679.9679,0,0,1,60,12.9651v46.07A.9679.9679,0,0,1,59.0349,60Z" fill="none" stroke="#000" stroke-miterlimit="10" stroke-width="2"/>
    <line fill="none" stroke="#000" stroke-linecap="round" stroke-linejoin="round" stroke-width="2" x1="25.5" x2="46.5" y1="41.5" y2="41.5"/>
    <line fill="none" stroke="#000" stroke-linecap="round" stroke-linejoin="round" stroke-width="2" x1="46.5" x2="25.5" y1="33.5" y2="33.5"/>
    <polyline fill="none" points="47.5 43.5 47.5 26.5 24.5 26.5 24.5 43.5" stroke="#000" stroke-linecap="round" stroke-linejoin="round" stroke-width="2"/>
    <line stroke="#000" stroke-linecap="round" stroke-linejoin="round" stroke-width="2" x1="36.5" x2="36.5" y1="21.5" y2="51.5"/>
  </g>
</svg>