<svg viewBox="10 10 52 52" xmlns="http://www.w3.org/2000/svg">
  <defs>
    <linearGradient id="yellow-gradient" x1="0%" x2="0%" y1="0%" y2="100%">
      <stop offset="0%" style="stop-color:#FDE02F;stop-opacity:1;"/>
      <stop offset="100%" style="stop-color:#F7B209;stop-opacity:1;"/>
    </linearGradient>
  </defs>
  <g id="color">
    <rect fill="#d0cfce" height="48.9841" rx="1.6991" width="48.9841" x="11.4718" y="11.0417"/>
  </g>
  <g id="line">
    <g>
      <line fill="none" stroke="#000" stroke-linecap="round" stroke-miterlimit="5" stroke-width="2" x1="21.3208" x2="51.2956" y1="25.1228" y2="25.1228"/>
      <path d="M34.4333,19.9967a46.0471,46.0471,0,0,1-5.197,10.8748,25.378,25.378,0,0,1-8.5626,8.4156" fill="none" stroke="#000" stroke-linecap="round" stroke-miterlimit="5" stroke-width="2"/>
      <path d="M40.3044,51.304h5.89a.6.6,0,0,0,.661-.5073V32.0284a.6.6,0,0,0-.661-.5073H30.6074" fill="none" stroke="#000" stroke-linecap="round" stroke-miterlimit="5" stroke-width="2"/>
      <line fill="none" stroke="#000" stroke-linecap="round" stroke-miterlimit="5" stroke-width="2" x1="29.8502" x2="46.8552" y1="37.9003" y2="37.9003"/>
      <line fill="none" stroke="#000" stroke-linecap="round" stroke-miterlimit="5" stroke-width="2" x1="29.225" x2="29.225" y1="32.0825" y2="51.0883"/>
      <line fill="none" stroke="#000" stroke-miterlimit="5" stroke-width="2" x1="29.225" x2="46.8552" y1="43.2285" y2="43.2285"/>
      <rect fill="none" height="48.9841" rx="1.6991" stroke="#000" stroke-miterlimit="10" stroke-width="2" width="48.9841" x="11.4718" y="11.0417"/>
    </g>
  </g>
</svg>