<svg viewBox="0 0 72 72" xmlns="http://www.w3.org/2000/svg">
  <defs>
    <linearGradient id="yellow-gradient" x1="0%" x2="0%" y1="0%" y2="100%">
      <stop offset="0%" style="stop-color:#FDE02F;stop-opacity:1;"/>
      <stop offset="100%" style="stop-color:#F7B209;stop-opacity:1;"/>
    </linearGradient>
  </defs>
  <g id="color">
    <rect fill="#e27022" height="64" width="64.09" x="4" y="4"/>
    <polyline fill="#f4aa41" points="4 31.112 25.09 36.627 24.647 41.607 4 41.035"/>
    <polyline fill="#f4aa41" points="68.09 31.112 47 36.627 47.443 41.607 68.09 41.035"/>
    <polyline fill="#f4aa41" points="68.09 11.879 51.09 31.879 47.09 28.879 59.927 4.008 68.09 4"/>
    <polyline fill="#f4aa41" points="4 4 4.001 13.364 6.109 15.355 24.64 33.945 28.39 30.638 12.1 4"/>
    <polyline fill="#f4aa41" points="32.502 4 34.438 26.255 39.421 26.666 42.692 4"/>
    <circle cx="37.09" cy="35.8794" fill="url(#yellow-gradient)" r="15"/>
    <polyline fill="#9b9b9a" points="10.013 45.981 10.013 28.981 20.013 28.981 20.013 45.981"/>
    <rect fill="#9b9b9a" height="35.0186" width="13" x="34.0131" y="32.9814"/>
    <polyline fill="#d0cfce" points="51.013 68 51.013 36.981 67.013 36.981 67.013 68"/>
    <polyline fill="#d0cfce" points="5.013 68 5.013 45.981 39.013 45.981 39.013 68"/>
    <rect fill="url(#yellow-gradient)" height="5.9965" width="2.9913" x="9.0131" y="48.9848"/>
    <rect fill="url(#yellow-gradient)" height="5.9965" width="2.9913" x="15.0131" y="48.9848"/>
    <rect fill="url(#yellow-gradient)" height="5.9965" width="2.9913" x="27.0131" y="48.9848"/>
    <rect fill="url(#yellow-gradient)" height="5.9965" width="2.9913" x="33.0131" y="48.9848"/>
    <rect fill="url(#yellow-gradient)" height="5.9965" width="2.9913" x="55.0131" y="39.9848"/>
    <rect fill="url(#yellow-gradient)" height="5.9965" width="2.9913" x="61.0131" y="49.9848"/>
    <rect fill="url(#yellow-gradient)" height="5.9965" width="2.9913" x="61.0131" y="59.9848"/>
    <rect fill="url(#yellow-gradient)" height="5.9965" width="2.9913" x="55.0131" y="59.9848"/>
    <rect fill="url(#yellow-gradient)" height="5.9965" width="2.9913" x="33.0131" y="58.9848"/>
    <rect fill="url(#yellow-gradient)" height="5.9965" width="2.9913" x="21.0131" y="58.9848"/>
    <rect fill="url(#yellow-gradient)" height="5.9965" width="2.9913" x="9.0131" y="58.9848"/>
  </g>
  <g id="line">
    <polyline fill="none" points="51.013 66.981 51.013 36.981 67.013 36.981 67.013 66.981" stroke="#000" stroke-linecap="round" stroke-linejoin="round" stroke-width="2"/>
    <polyline fill="none" points="5.013 66.981 5.013 45.981 39.013 45.981 39.013 66.981" stroke="#000" stroke-linecap="round" stroke-linejoin="round" stroke-width="2"/>
    <polyline fill="none" points="35.013 42.981 35.013 32.981 47.013 32.981 47.013 66.981" stroke="#000" stroke-linecap="round" stroke-linejoin="round" stroke-width="2"/>
    <polyline fill="none" points="11.013 42.981 11.013 28.981 19.013 28.981 19.013 42.981" stroke="#000" stroke-linecap="round" stroke-linejoin="round" stroke-width="2"/>
    <polyline fill="none" points="57.013 45.981 55.013 45.981 55.013 40.981" stroke="#000" stroke-linecap="round" stroke-linejoin="round" stroke-width="2"/>
    <polyline fill="none" points="63.013 55.981 61.013 55.981 61.013 50.981" stroke="#000" stroke-linecap="round" stroke-linejoin="round" stroke-width="2"/>
    <polyline fill="none" points="29.013 54.981 27.013 54.981 27.013 49.981" stroke="#000" stroke-linecap="round" stroke-linejoin="round" stroke-width="2"/>
    <polyline fill="none" points="35.013 54.981 33.013 54.981 33.013 49.981" stroke="#000" stroke-linecap="round" stroke-linejoin="round" stroke-width="2"/>
    <polyline fill="none" points="35.013 64.981 33.013 64.981 33.013 59.981" stroke="#000" stroke-linecap="round" stroke-linejoin="round" stroke-width="2"/>
    <polyline fill="none" points="17.013 54.981 15.013 54.981 15.013 49.981" stroke="#000" stroke-linecap="round" stroke-linejoin="round" stroke-width="2"/>
    <polyline fill="none" points="11.013 54.981 9.013 54.981 9.013 49.981" stroke="#000" stroke-linecap="round" stroke-linejoin="round" stroke-width="2"/>
    <polyline fill="none" points="11.013 64.981 9.013 64.981 9.013 59.981" stroke="#000" stroke-linecap="round" stroke-linejoin="round" stroke-width="2"/>
    <polyline fill="none" points="23.013 64.981 21.013 64.981 21.013 59.981" stroke="#000" stroke-linecap="round" stroke-linejoin="round" stroke-width="2"/>
    <polyline fill="none" points="57.013 65.981 55.013 65.981 55.013 60.981" stroke="#000" stroke-linecap="round" stroke-linejoin="round" stroke-width="2"/>
    <polyline fill="none" points="63.013 65.981 61.013 65.981 61.013 60.981" stroke="#000" stroke-linecap="round" stroke-linejoin="round" stroke-width="2"/>
    <line fill="none" stroke="#000" stroke-linecap="round" stroke-linejoin="round" stroke-width="2" x1="15.0131" x2="15.0131" y1="31.9814" y2="42.9814"/>
    <line fill="none" stroke="#000" stroke-linecap="round" stroke-linejoin="round" stroke-width="2" x1="39.0131" x2="39.0131" y1="35.9814" y2="42.9814"/>
    <line fill="none" stroke="#000" stroke-linecap="round" stroke-linejoin="round" stroke-width="2" x1="43.0131" x2="43.0131" y1="35.9814" y2="66.9814"/>
    <path d="M23.8748,42.982a15.002,15.002,0,1,1,28.0916-9.0372" fill="none" stroke="#000" stroke-linecap="round" stroke-miterlimit="10" stroke-width="2"/>
  </g>
</svg>