<svg viewBox="0 0 72 72" xmlns="http://www.w3.org/2000/svg">
  <defs>
    <linearGradient id="yellow-gradient" x1="0%" x2="0%" y1="0%" y2="100%">
      <stop offset="0%" style="stop-color:#FDE02F;stop-opacity:1;"/>
      <stop offset="100%" style="stop-color:#F7B209;stop-opacity:1;"/>
    </linearGradient>
  </defs>
  <g id="color">
    <rect fill="#61b2e4" height="20.7868" width="64" x="4.0003" y="47.2922"/>
    <rect fill="#e27022" height="43.2132" width="64" x="4.0003" y="4.079"/>
    <polyline fill="#f4aa41" points="68 4.079 60 4.079 44 35.079 48 38.079 65 18.079 68 14.848"/>
    <polygon fill="#f4aa41" points="4 17.641 6.019 19.554 24.55 38.145 28.3 34.837 9 4.079 4 4.079 4 17.641"/>
    <polyline fill="#f4aa41" points="30.879 4.079 33.348 32.454 38.331 32.866 42.08 6.886 42.566 4.079"/>
    <polyline fill="#f4aa41" points="68 34.719 46.068 41.718 46.775 46.668 68 44.947"/>
    <polyline fill="#f4aa41" points="4 34.899 25.933 41.898 25.226 46.848 4 45.127"/>
    <path d="M21.48,47.2923a15.6793,15.6793,0,1,1,29.04.0006" fill="url(#yellow-gradient)"/>
    <polygon fill="#fff" points="67.964 24.049 68 47.292 49.932 47.292 55.019 37.008 58.641 33.433 59.643 27.783 60.927 24.904 67.964 24.049"/>
    <polygon fill="#fff" points="4.037 24.049 4 47.292 21.48 47.292 18.327 36.079 14.848 32.091 14.967 28.846 11.073 24.904 4.037 24.049"/>
  </g>
  <g id="line">
    <path d="M8.48,32.188a7.7528,7.7528,0,0,1,9.8478,4.82" fill="none" stroke="#000" stroke-linecap="round" stroke-miterlimit="10" stroke-width="2"/>
    <path d="M5,24.0262a7.7528,7.7528,0,0,1,9.8478,4.82" fill="none" stroke="#000" stroke-linecap="round" stroke-miterlimit="10" stroke-width="2"/>
    <path d="M54.4754,40.5834a7.7527,7.7527,0,0,1,8.3317-7.127" fill="none" stroke="#000" stroke-linecap="round" stroke-miterlimit="10" stroke-width="2"/>
    <path d="M58.6412,30.7561a7.7529,7.7529,0,0,1,8.3317-7.1271" fill="none" stroke="#000" stroke-linecap="round" stroke-miterlimit="10" stroke-width="2"/>
    <line fill="none" stroke="#000" stroke-linecap="round" stroke-miterlimit="10" stroke-width="2" x1="5.1239" x2="66.8767" y1="47.2929" y2="47.2929"/>
    <path d="M20.49,43.9627a15.6793,15.6793,0,1,1,30.7746.2534" fill="none" stroke="#000" stroke-linecap="round" stroke-miterlimit="10" stroke-width="2"/>
  </g>
</svg>