<svg viewBox="6 6 60 60" xmlns="http://www.w3.org/2000/svg">
  <defs>
    <linearGradient id="yellow-gradient" x1="0%" x2="0%" y1="0%" y2="100%">
      <stop offset="0%" style="stop-color:#FDE02F;stop-opacity:1;"/>
      <stop offset="100%" style="stop-color:#F7B209;stop-opacity:1;"/>
    </linearGradient>
  </defs>
  <g id="color">
    <circle cx="36" cy="36" fill="url(#yellow-gradient)" r="28" stroke="url(#yellow-gradient)" stroke-linecap="round" stroke-linejoin="round" stroke-width="2"/>
    <path d="M29,62c20.0033,0,16.6634-52,16.6634-52s24.9582,7,16.6388,35S13.4011,62,29,62Z" fill="#f1b31c" opacity="0.4" stroke-miterlimit="10" stroke-width="0.204"/>
    <circle cx="26.5" cy="27.5" fill="#fff" r="5" stroke="none"/>
    <circle cx="45.5" cy="27.5" fill="#fff" r="5" stroke="none"/>
  </g>
  <g id="line">
    <rect height="2" stroke="#000" stroke-linecap="round" stroke-linejoin="round" stroke-width="0.25" width="4" x="34" y="37"/>
    <path d="M36,64A28,28,0,0,1,36,8" fill="none" stroke="#000" stroke-linecap="round" stroke-linejoin="round" stroke-width="2"/>
    <path d="M36,8a28,28,0,0,1,0,56" fill="none" stroke="#000" stroke-linecap="round" stroke-linejoin="round" stroke-width="2"/>
    <path d="M36,39.5c1.1046,0,2.5-.8954,2.5-2H34A2,2,0,0,0,36,39.5Z" fill="none" stroke="#000" stroke-linecap="round" stroke-linejoin="round" stroke-width="2"/>
    <path d="m26.92 45.92s3.705 3.389 9.652 3.771c6.942 0.3136 10.42-3.695 10.42-3.695" fill="none" stroke="#000" stroke-linecap="round" stroke-linejoin="round" stroke-width="2"/>
    <circle cx="26.5" cy="27.5" fill="none" r="5" stroke="#000" stroke-linecap="round" stroke-linejoin="round" stroke-width="2"/>
    <circle cx="45.5" cy="27.5" fill="none" r="5" stroke="#000" stroke-linecap="round" stroke-linejoin="round" stroke-width="2"/>
    <circle cx="45.5" cy="27.5" fill="none" r="5" stroke="#000" stroke-linecap="round" stroke-linejoin="round"/>
    <circle cx="43.45" cy="27.75" r="1.75" stroke="#000" stroke-linecap="round" stroke-linejoin="round" stroke-width="2"/>
    <circle cx="26.5" cy="27.5" fill="none" r="5" stroke="#000" stroke-linecap="round" stroke-linejoin="round"/>
    <circle cx="24.25" cy="27.75" r="1.75" stroke="#000" stroke-linecap="round" stroke-linejoin="round" stroke-width="2"/>
  </g>
</svg>