<svg viewBox="6 6 60 60" xmlns="http://www.w3.org/2000/svg">
  <defs>
    <linearGradient id="yellow-gradient" x1="0%" x2="0%" y1="0%" y2="100%">
      <stop offset="0%" style="stop-color:#FDE02F;stop-opacity:1;"/>
      <stop offset="100%" style="stop-color:#F7B209;stop-opacity:1;"/>
    </linearGradient>
  </defs>
  <g id="color">
    <circle cx="36" cy="36" fill="url(#yellow-gradient)" r="28" stroke="#3f3f3f" stroke-linecap="round" stroke-linejoin="round" stroke-width="2"/>
    <path d="M17,37A28.001,28.001,0,0,1,43.5465,9.0374,27.9995,27.9995,0,1,0,36,64q.7312,0,1.4535-.0374A28.0059,28.0059,0,0,1,17,37Z" fill="#3f3f3f"/>
  </g>
  <g id="line">
    <circle cx="36" cy="36" fill="none" r="28" stroke="#000" stroke-linecap="round" stroke-linejoin="round" stroke-width="2"/>
    <path d="M17,37A28.001,28.001,0,0,1,43.5465,9.0374,27.9995,27.9995,0,1,0,36,64q.7312,0,1.4535-.0374A28.0059,28.0059,0,0,1,17,37Z" fill="none" stroke="#000" stroke-linecap="round" stroke-linejoin="round" stroke-width="2"/>
  </g>
</svg>