<svg viewBox="10 10 52 52" xmlns="http://www.w3.org/2000/svg">
  <defs>
    <linearGradient id="yellow-gradient" x1="0%" x2="0%" y1="0%" y2="100%">
      <stop offset="0%" style="stop-color:#FDE02F;stop-opacity:1;"/>
      <stop offset="100%" style="stop-color:#F7B209;stop-opacity:1;"/>
    </linearGradient>
  </defs>
  <g id="color">
    <path d="M48.6367,13.4648c-1.9512-1.9531-5.1172-1.9531-7.0703,0L13.4648,41.5645 c-1.9531,1.9531-1.9531,5.1191-0.0019,7.0712l9.9004,9.8995c1.9531,1.9531,5.1191,1.9531,7.0703,0l28.1035-28.0997 c1.9512-1.9531,1.9512-5.1191,0-7.0712L48.6367,13.4648z" fill="#f4aa41" stroke="none"/>
    <path d="M20.5352,58.5352c-1.9532,1.9531-5.1192,1.9531-7.0723,0c-1.9512-1.9522-1.9512-5.1182,0-7.0704 l38.0019-38c1.9532-1.9531,5.1192-1.9531,7.0723,0c1.9512,1.9522,1.9512,5.1182,0,7.0704L20.5352,58.5352z" fill="#ea5a47" stroke="none"/>
  </g>
  <g id="line">
    <path d="M27,45.001c0,1.6562-1.3437,3.001-3.001,3.001c-1.6572,0-2.999,1.3437-3,3" fill="none" stroke="#000000" stroke-linecap="round" stroke-linejoin="round" stroke-miterlimit="10" stroke-width="2"/>
    <path d="M39.002,33c0,1.6563-1.3438,3-3.002,3c-1.6562,0-2.999,1.3438-3,3" fill="none" stroke="#000000" stroke-linecap="round" stroke-linejoin="round" stroke-miterlimit="10" stroke-width="2"/>
    <path d="M33,39c0,1.6563-1.3418,3.001-3,3c-1.6572,0-3,1.3447-3,3.001" fill="none" stroke="#000000" stroke-linecap="round" stroke-linejoin="round" stroke-miterlimit="10" stroke-width="2"/>
    <path d="M45.002,26.998c0,1.6573-1.3418,3.002-3,3.001c-1.6582,0-3,1.3448-3,3.001" fill="none" stroke="#000000" stroke-linecap="round" stroke-linejoin="round" stroke-miterlimit="10" stroke-width="2"/>
    <path d="M51.002,20.998c0,1.6563-1.3418,3-3,3c-1.6563,0-3,1.3448-3,3" fill="none" stroke="#000000" stroke-linecap="round" stroke-linejoin="round" stroke-miterlimit="10" stroke-width="2"/>
    <path d="M20.5352,58.5352c-1.9532,1.9531-5.1192,1.9531-7.0723,0c-1.9512-1.9522-1.9512-5.1182,0-7.0704l38.0019-38 c1.9532-1.9531,5.1192-1.9531,7.0723,0c1.9512,1.9522,1.9512,5.1182,0,7.0704L20.5352,58.5352z" fill="none" stroke="#000000" stroke-linecap="round" stroke-linejoin="round" stroke-miterlimit="10" stroke-width="2"/>
    <path d="M50.0508,14.8789l-1.4141-1.4141c-1.9512-1.9531-5.1172-1.9531-7.0703,0L13.4648,41.5645 c-1.9531,1.9531-1.9531,5.1191-0.0019,7.0712l1.416,1.4151" fill="none" stroke="#000000" stroke-linecap="round" stroke-linejoin="round" stroke-miterlimit="10" stroke-width="2"/>
    <path d="M21.9492,57.1211l1.4141,1.4141c1.9531,1.9531,5.1191,1.9531,7.0703,0l28.1035-28.0997c1.9512-1.9531,1.9512-5.1191,0-7.0712 l-1.4141-1.4151" fill="none" stroke="#000000" stroke-linecap="round" stroke-linejoin="round" stroke-miterlimit="10" stroke-width="2"/>
  </g>
</svg>