<svg viewBox="0 0 72 72" xmlns="http://www.w3.org/2000/svg">
  <defs>
    <linearGradient id="yellow-gradient" x1="0%" x2="0%" y1="0%" y2="100%">
      <stop offset="0%" style="stop-color:#FDE02F;stop-opacity:1;"/>
      <stop offset="100%" style="stop-color:#F7B209;stop-opacity:1;"/>
    </linearGradient>
  </defs>
  <g id="color">
    <polygon fill="url(#yellow-gradient)" points="16.9962,45.4792 19.7912,54.0814 28.8361,54.0814 21.5186,59.3978 24.3136,68 16.9962,62.6836 9.6787,68 12.4737,59.3978 5.1562,54.0814 14.2011,54.0814" stroke="none"/>
  </g>
  <g id="line">
    <polygon fill="none" points="16.9962,45.4792 19.7912,54.0814 28.8361,54.0814 21.5186,59.3978 24.3136,68 16.9962,62.6836 9.6787,68 12.4737,59.3978 5.1562,54.0814 14.2011,54.0814" stroke="#000000" stroke-linecap="round" stroke-linejoin="round" stroke-miterlimit="10" stroke-width="2"/>
    <line fill="none" stroke="#000000" stroke-linecap="round" stroke-linejoin="round" stroke-miterlimit="10" stroke-width="2" x1="51.3836" x2="22.0786" y1="13.7727" y2="43.0776"/>
    <line fill="none" stroke="#000000" stroke-linecap="round" stroke-linejoin="round" stroke-miterlimit="10" stroke-width="2" x1="32.125" x2="66.8438" y1="38.7188" y2="4"/>
    <line fill="none" stroke="#000000" stroke-linecap="round" stroke-linejoin="round" stroke-miterlimit="10" stroke-width="2" x1="34.2307" x2="57.9976" y1="47.757" y2="23.9901"/>
    <line fill="none" stroke="#000000" stroke-linecap="round" stroke-linejoin="round" stroke-miterlimit="10" stroke-width="2" x1="26.796" x2="48.421" y1="49.4835" y2="27.8585"/>
  </g>
</svg>