<svg viewBox="12 12 48 48" xmlns="http://www.w3.org/2000/svg">
  <defs>
    <linearGradient id="yellow-gradient" x1="0%" x2="0%" y1="0%" y2="100%">
      <stop offset="0%" style="stop-color:#FDE02F;stop-opacity:1;"/>
      <stop offset="100%" style="stop-color:#F7B209;stop-opacity:1;"/>
    </linearGradient>
  </defs>
  <g id="color">
    <path d="M51.935,35.8718c4.1996,0.9278,6.7648,5.4824,6.7648,5.4824s-4.2448,3.05-8.4449,2.1226 s-6.7648-5.4824-6.7648-5.4824S47.7371,34.9462,51.935,35.8718z" fill="#B1CC33" stroke="none"/>
    <path d="M22.3618,19.992c4.067,1.3991,6.0978,6.2158,6.0978,6.2158s-4.5639,2.5478-8.6315,1.149 s-6.0978-6.2158-6.0978-6.2158S18.2963,18.5952,22.3618,19.992z" fill="#5C9E31" stroke="none"/>
  </g>
  <g id="line">
    <polyline fill="none" points="36,63.1661 36,51.1661 31,29.1661" stroke="#000000" stroke-linecap="round" stroke-linejoin="round" stroke-width="2"/>
    <line fill="none" stroke="#000000" stroke-linecap="round" stroke-linejoin="round" stroke-width="2" x1="36" x2="41" y1="51.1661" y2="41.1661"/>
    <path d="M22.3618,19.992 c4.067,1.3991,6.0978,6.2158,6.0978,6.2158s-4.5639,2.5478-8.6315,1.149s-6.0978-6.2158-6.0978-6.2158 S18.2963,18.5952,22.3618,19.992z" fill="none" stroke="#000000" stroke-linecap="round" stroke-linejoin="round" stroke-width="2"/>
    <path d="M51.935,35.8718 c4.1996,0.9278,6.7648,5.4824,6.7648,5.4824s-4.2448,3.05-8.4449,2.1226s-6.7648-5.4824-6.7648-5.4824 S47.7371,34.9462,51.935,35.8718z" fill="none" stroke="#000000" stroke-linecap="round" stroke-linejoin="round" stroke-width="2"/>
  </g>
</svg>