<svg viewBox="4 4 64 64" xmlns="http://www.w3.org/2000/svg">
  <defs>
    <linearGradient id="yellow-gradient" x1="0%" x2="0%" y1="0%" y2="100%">
      <stop offset="0%" style="stop-color:#FDE02F;stop-opacity:1;"/>
      <stop offset="100%" style="stop-color:#F7B209;stop-opacity:1;"/>
    </linearGradient>
  </defs>
  <g id="color">
    <ellipse cx="35.8096" cy="10.1616" fill="#f4aa41" rx="3.4814" ry="5.1616"/>
    <ellipse cx="31.287" cy="19.2067" fill="#f1b31c" rx="3.4814" ry="5.1616" transform="translate(-4.4175 27.7488) rotate(-45)"/>
    <ellipse cx="31.287" cy="27.3474" fill="#f1b31c" rx="3.4814" ry="5.1616" transform="translate(-10.1737 30.1331) rotate(-45)"/>
    <ellipse cx="31.287" cy="35.488" fill="#f1b31c" rx="3.4814" ry="5.1616" transform="translate(-15.93 32.5174) rotate(-45)"/>
    <ellipse cx="31.287" cy="43.6286" fill="#f1b31c" rx="3.4814" ry="5.1616" transform="translate(-21.6863 34.9018) rotate(-45)"/>
    <ellipse cx="31.287" cy="51.7692" fill="#f1b31c" rx="3.4814" ry="5.1616" transform="translate(-27.4426 37.2861) rotate(-45)"/>
    <ellipse cx="40.713" cy="19.2067" fill="#f1b31c" rx="5.1616" ry="3.4814" transform="translate(-1.6567 34.414) rotate(-45)"/>
    <ellipse cx="40.713" cy="27.3474" fill="#f1b31c" rx="5.1616" ry="3.4814" transform="translate(-7.4129 36.7983) rotate(-45)"/>
    <ellipse cx="40.713" cy="35.488" fill="#f1b31c" rx="5.1616" ry="3.4814" transform="translate(-13.1692 39.1826) rotate(-45)"/>
    <ellipse cx="40.713" cy="43.6286" fill="#f1b31c" rx="5.1616" ry="3.4814" transform="translate(-18.9255 41.5669) rotate(-45)"/>
    <ellipse cx="40.713" cy="51.7692" fill="#f1b31c" rx="5.1616" ry="3.4814" transform="translate(-24.6818 43.9513) rotate(-45)"/>
    <path d="M35.79,56v9" fill="none" stroke="#000" stroke-miterlimit="10" stroke-width="2"/>
    <ellipse cx="35.8096" cy="10.1616" fill="#f4aa41" rx="3.4814" ry="5.1616"/>
    <ellipse cx="31.287" cy="19.2067" fill="#f1b31c" rx="3.4814" ry="5.1616" transform="translate(-4.4175 27.7488) rotate(-45)"/>
    <ellipse cx="31.287" cy="27.3474" fill="#f1b31c" rx="3.4814" ry="5.1616" transform="translate(-10.1737 30.1331) rotate(-45)"/>
    <ellipse cx="31.287" cy="35.488" fill="#f1b31c" rx="3.4814" ry="5.1616" transform="translate(-15.93 32.5174) rotate(-45)"/>
    <ellipse cx="31.287" cy="43.6286" fill="#f1b31c" rx="3.4814" ry="5.1616" transform="translate(-21.6863 34.9018) rotate(-45)"/>
    <ellipse cx="31.287" cy="51.7692" fill="#f1b31c" rx="3.4814" ry="5.1616" transform="translate(-27.4426 37.2861) rotate(-45)"/>
    <ellipse cx="40.713" cy="19.2067" fill="#f1b31c" rx="5.1616" ry="3.4814" transform="translate(-1.6567 34.414) rotate(-45)"/>
    <ellipse cx="40.713" cy="27.3474" fill="#f1b31c" rx="5.1616" ry="3.4814" transform="translate(-7.4129 36.7983) rotate(-45)"/>
    <ellipse cx="40.713" cy="35.488" fill="#f1b31c" rx="5.1616" ry="3.4814" transform="translate(-13.1692 39.1826) rotate(-45)"/>
    <ellipse cx="40.713" cy="43.6286" fill="#f1b31c" rx="5.1616" ry="3.4814" transform="translate(-18.9255 41.5669) rotate(-45)"/>
    <ellipse cx="40.713" cy="51.7692" fill="#f1b31c" rx="5.1616" ry="3.4814" transform="translate(-24.6818 43.9513) rotate(-45)"/>
    <ellipse cx="35.8096" cy="10.1616" fill="#f1b31c" rx="3.4814" ry="5.1616"/>
    <ellipse cx="31.287" cy="19.2067" fill="#f1b31c" rx="3.4814" ry="5.1616" transform="translate(-4.4175 27.7488) rotate(-45)"/>
    <ellipse cx="31.287" cy="27.3474" fill="#f1b31c" rx="3.4814" ry="5.1616" transform="translate(-10.1737 30.1331) rotate(-45)"/>
    <ellipse cx="31.287" cy="35.488" fill="#f1b31c" rx="3.4814" ry="5.1616" transform="translate(-15.93 32.5174) rotate(-45)"/>
    <ellipse cx="31.287" cy="43.6286" fill="#f1b31c" rx="3.4814" ry="5.1616" transform="translate(-21.6863 34.9018) rotate(-45)"/>
    <ellipse cx="31.287" cy="51.7692" fill="#f1b31c" rx="3.4814" ry="5.1616" transform="translate(-27.4426 37.2861) rotate(-45)"/>
    <ellipse cx="40.713" cy="19.2067" fill="#f1b31c" rx="5.1616" ry="3.4814" transform="translate(-1.6567 34.414) rotate(-45)"/>
    <ellipse cx="40.713" cy="27.3474" fill="#f1b31c" rx="5.1616" ry="3.4814" transform="translate(-7.4129 36.7983) rotate(-45)"/>
    <ellipse cx="40.713" cy="35.488" fill="#f1b31c" rx="5.1616" ry="3.4814" transform="translate(-13.1692 39.1826) rotate(-45)"/>
    <ellipse cx="40.713" cy="43.6286" fill="#f1b31c" rx="5.1616" ry="3.4814" transform="translate(-18.9255 41.5669) rotate(-45)"/>
    <ellipse cx="40.713" cy="51.7692" fill="#f4aa41" rx="5.1616" ry="3.4814" transform="translate(-24.6818 43.9513) rotate(-45)"/>
  </g>
  <g id="line">
    <ellipse cx="35.8096" cy="10.1616" fill="none" rx="3.4814" ry="5.1616" stroke="#000000" stroke-miterlimit="10" stroke-width="2"/>
    <ellipse cx="31.287" cy="19.2067" fill="none" rx="3.4814" ry="5.1616" stroke="#000000" stroke-miterlimit="10" stroke-width="2" transform="translate(-4.4175 27.7488) rotate(-45)"/>
    <ellipse cx="31.287" cy="27.3474" fill="none" rx="3.4814" ry="5.1616" stroke="#000000" stroke-miterlimit="10" stroke-width="2" transform="translate(-10.1737 30.1331) rotate(-45)"/>
    <ellipse cx="31.287" cy="35.488" fill="none" rx="3.4814" ry="5.1616" stroke="#000000" stroke-miterlimit="10" stroke-width="2" transform="translate(-15.93 32.5174) rotate(-45)"/>
    <ellipse cx="31.287" cy="43.6286" fill="none" rx="3.4814" ry="5.1616" stroke="#000000" stroke-miterlimit="10" stroke-width="2" transform="translate(-21.6863 34.9018) rotate(-45)"/>
    <ellipse cx="31.287" cy="51.7692" fill="none" rx="3.4814" ry="5.1616" stroke="#000000" stroke-miterlimit="10" stroke-width="2" transform="translate(-27.4426 37.2861) rotate(-45)"/>
    <ellipse cx="40.713" cy="19.2067" fill="none" rx="5.1616" ry="3.4814" stroke="#000000" stroke-miterlimit="10" stroke-width="2" transform="translate(-1.6567 34.414) rotate(-45)"/>
    <ellipse cx="40.713" cy="27.3474" fill="none" rx="5.1616" ry="3.4814" stroke="#000000" stroke-miterlimit="10" stroke-width="2" transform="translate(-7.4129 36.7983) rotate(-45)"/>
    <ellipse cx="40.713" cy="35.488" fill="none" rx="5.1616" ry="3.4814" stroke="#000000" stroke-miterlimit="10" stroke-width="2" transform="translate(-13.1692 39.1826) rotate(-45)"/>
    <ellipse cx="40.713" cy="43.6286" fill="none" rx="5.1616" ry="3.4814" stroke="#000000" stroke-miterlimit="10" stroke-width="2" transform="translate(-18.9255 41.5669) rotate(-45)"/>
    <ellipse cx="40.713" cy="51.7692" fill="none" rx="5.1616" ry="3.4814" stroke="#000000" stroke-miterlimit="10" stroke-width="2" transform="translate(-24.6818 43.9513) rotate(-45)"/>
  </g>
</svg>