<svg viewBox="10 10 52 52" xmlns="http://www.w3.org/2000/svg">
  <defs>
    <linearGradient id="yellow-gradient" x1="0%" x2="0%" y1="0%" y2="100%">
      <stop offset="0%" style="stop-color:#FDE02F;stop-opacity:1;"/>
      <stop offset="100%" style="stop-color:#F7B209;stop-opacity:1;"/>
    </linearGradient>
  </defs>
  <g id="color">
    <path d="M55.2257,56.7807 c-10.9878,10.9766-28.7798,10.9766-39.7676,0c-10.9765-10.9878-10.9765-28.7797,0-39.7675l2.6542,2.6542 c-9.5258,9.5145-9.5258,24.9447,0,34.4592c9.5145,9.5258,24.9447,9.5258,34.4592,0L55.2257,56.7807z" fill="#B1CC33" stroke="none" stroke-linejoin="round" stroke-miterlimit="10" stroke-width="2"/>
    <path d="M52.5715,54.1265c-9.5145,9.5258-24.9447,9.5258-34.4592,0c-9.5258-9.5145-9.5258-24.9447,0-34.4592L52.5715,54.1265" fill="#EA5A47" stroke="#EA5A47" stroke-linecap="round" stroke-linejoin="round" stroke-miterlimit="10" stroke-width="2"/>
    <path d="M49.5241,56.7181c-9.5196,6.8373-22.857,5.9734-31.4119-2.5916c-8.6198-8.6097-9.4396-22.0632-2.4594-31.5942" fill="#EA5A47" stroke="none" stroke-linecap="round" stroke-linejoin="round" stroke-miterlimit="10" stroke-width="2"/>
  </g>
  <g id="line">
    <path d="M55.2257,56.7807 c-10.9878,10.9766-28.7798,10.9766-39.7676,0c-10.9765-10.9878-10.9765-28.7797,0-39.7675l2.6542,2.6542 c-9.5258,9.5145-9.5258,24.9447,0,34.4592c9.5145,9.5258,24.9447,9.5258,34.4592,0L55.2257,56.7807z" fill="none" stroke="#000000" stroke-linejoin="round" stroke-miterlimit="10" stroke-width="2"/>
    <line fill="none" stroke="#000000" stroke-linecap="round" stroke-linejoin="round" stroke-miterlimit="10" stroke-width="2" x1="17.5157" x2="53.7223" y1="19.0707" y2="55.2773"/>
    <path d="M49.5241,56.7181c-9.5196,6.8373-22.857,5.9734-31.4119-2.5916c-8.6198-8.6097-9.4396-22.0632-2.4594-31.5942" fill="none" stroke="#000000" stroke-linecap="round" stroke-linejoin="round" stroke-miterlimit="10" stroke-width="2"/>
    <ellipse cx="31.8301" cy="46.9072" fill="#000000" rx="1.687" ry="0.8435" stroke="none" transform="matrix(0.7071 -0.7071 0.7071 0.7071 -23.8456 36.2461)"/>
    <ellipse cx="44.5541" cy="53.2691" fill="#000000" rx="1.687" ry="0.8435" stroke="none" transform="matrix(0.7071 -0.7071 0.7071 0.7071 -24.6174 47.1066)"/>
    <ellipse cx="31.8301" cy="54.8596" fill="#000000" rx="1.687" ry="0.8435" stroke="none" transform="matrix(0.7071 -0.7071 0.7071 0.7071 -29.4688 38.5753)"/>
    <ellipse cx="25.8167" cy="40.8938" fill="#000000" rx="1.687" ry="0.8435" stroke="none" transform="matrix(0.7071 -0.7071 0.7071 0.7071 -21.3547 30.2327)"/>
    <ellipse cx="19.4548" cy="28.1698" fill="#000000" rx="1.687" ry="0.8435" stroke="none" transform="matrix(0.7071 -0.7071 0.7071 0.7071 -14.2209 22.0073)"/>
    <ellipse cx="17.8643" cy="40.8938" fill="#000000" rx="1.687" ry="0.8435" stroke="none" transform="matrix(0.7071 -0.7071 0.7071 0.7071 -23.684 24.6094)"/>
    <ellipse cx="22.2812" cy="50.0862" fill="#000000" rx="1.687" ry="0.8435" stroke="none" transform="matrix(0.7071 -0.7071 0.7071 0.7071 -28.8903 30.4251)"/>
  </g>
</svg>