<svg viewBox="10 10 52 52" xmlns="http://www.w3.org/2000/svg">
  <defs>
    <linearGradient id="yellow-gradient" x1="0%" x2="0%" y1="0%" y2="100%">
      <stop offset="0%" style="stop-color:#FDE02F;stop-opacity:1;"/>
      <stop offset="100%" style="stop-color:#F7B209;stop-opacity:1;"/>
    </linearGradient>
  </defs>
  <g id="color">
    <path d="M52.2637,19.7373c0.4765,0.4775,0.916,0.9775,1.3418,1.4854l2.9004-5.7286 c-11.3252-11.3252-29.6875-11.3252-41.0118,0l2.9004,5.7286c0.4258-0.5079,0.8653-1.0079,1.3418-1.4854 C28.7197,10.7539,43.2803,10.7539,52.2637,19.7373z" fill="#f4aa41" stroke="none"/>
    <path d="M53.6055,21.2227c-0.4258-0.5079-0.8653-1.0079-1.3418-1.4854c-8.9834-8.9834-23.544-8.9834-32.5274,0 c-0.4765,0.4775-0.916,0.9775-1.3418,1.4854L36,56L53.6055,21.2227z" fill="url(#yellow-gradient)" stroke="none"/>
    <circle cx="31" cy="24" fill="#ea5a47" r="5" stroke="none"/>
    <circle cx="44" cy="24" fill="#ea5a47" r="3" stroke="none"/>
    <circle cx="37" cy="36" fill="#ea5a47" r="3" stroke="none"/>
  </g>
  <g id="line">
    <path d="M52.2637,19.7373c0.4765,0.4775,0.916,0.9775,1.3418,1.4854l2.9004-5.7286c-11.3252-11.3252-29.6875-11.3252-41.0118,0 l2.9004,5.7286c0.4258-0.5079,0.8653-1.0079,1.3418-1.4854C28.7197,10.7539,43.2803,10.7539,52.2637,19.7373z" fill="none" stroke="#000000" stroke-linecap="round" stroke-linejoin="round" stroke-miterlimit="10" stroke-width="2"/>
    <path d="M53.6055,21.2227c-0.4258-0.5079-0.8653-1.0079-1.3418-1.4854c-8.9834-8.9834-23.544-8.9834-32.5274,0 c-0.4765,0.4775-0.916,0.9775-1.3418,1.4854L36,56L53.6055,21.2227z" fill="none" stroke="#000000" stroke-linecap="round" stroke-linejoin="round" stroke-miterlimit="10" stroke-width="2"/>
    <circle cx="31" cy="24" fill="none" r="5" stroke="#000000" stroke-linecap="round" stroke-linejoin="round" stroke-miterlimit="10" stroke-width="2"/>
    <circle cx="44" cy="24" fill="none" r="3" stroke="#000000" stroke-linecap="round" stroke-linejoin="round" stroke-miterlimit="10" stroke-width="2"/>
    <circle cx="37" cy="36" fill="none" r="3" stroke="#000000" stroke-linecap="round" stroke-linejoin="round" stroke-miterlimit="10" stroke-width="2"/>
  </g>
</svg>