<svg viewBox="4 4 64 64" xmlns="http://www.w3.org/2000/svg">
  <defs>
    <linearGradient id="yellow-gradient" x1="0%" x2="0%" y1="0%" y2="100%">
      <stop offset="0%" style="stop-color:#FDE02F;stop-opacity:1;"/>
      <stop offset="100%" style="stop-color:#F7B209;stop-opacity:1;"/>
    </linearGradient>
  </defs>
  <g id="color">
    <polyline fill="url(#yellow-gradient)" points="27,48.8418 27,9.5234 26,9.5234 26,7 22,7 22,11.5234 21,11.5234 21,48" stroke="none"/>
    <polyline fill="url(#yellow-gradient)" points="43,46 43,9.5225 42,9.5225 42,5 38,5 38,8.5771 37,8.5225 37,47" stroke="none"/>
    <polyline fill="url(#yellow-gradient)" points="35,42 35,8.5225 34,7.9971 34,5 30,5 30,9.5234 29,9.5234 29,41" stroke="none"/>
    <polyline fill="url(#yellow-gradient)" points="51,40 51,11.5225 50,11.5225 50,7 46,7 46,9.5225 45,9.5225 45,40" stroke="none"/>
    <polyline fill="url(#yellow-gradient)" points="23,41.4209 23,33.6289 22,33.6289 22,15.1055 18,15.1055 18,33.6299 17,33.6299 17,37.1055" stroke="none"/>
    <polyline fill="url(#yellow-gradient)" points="47,44.5254 47,34.5244 46,34.5244 46,13 42,13 42,34.5791 41,34.5244 41,46.5254" stroke="none"/>
    <polyline fill="url(#yellow-gradient)" points="39,45.5254 39,35.5244 38,35.5244 38,12 34,12 34,35.5791 33,35.5244 33,47.5254" stroke="none"/>
    <polyline fill="url(#yellow-gradient)" points="31,46.5254 31,34.5244 30,33.999 30,13 26,13 26,34.5244 25,34.5244 25,44.5244" stroke="none"/>
    <polyline fill="url(#yellow-gradient)" points="55,37 55,32.6289 54,32.6289 54,15.1055 50,15.1055 50,33.6299 49,33.6299 49,42.6309" stroke="none"/>
    <path d="M19,59.1973c10,7.7363,23,7.7363,34,0L55,37l-19,3l-19-3L19,59.1973z" fill="#ea5a47" stroke="none"/>
  </g>
  <g id="line">
    <polyline fill="none" points="42,10 42,5 38,5 38,9" stroke="#000000" stroke-linecap="round" stroke-linejoin="round" stroke-miterlimit="10" stroke-width="2"/>
    <polyline fill="none" points="34,9 34,5 30,5 30,10" stroke="#000000" stroke-linecap="round" stroke-linejoin="round" stroke-miterlimit="10" stroke-width="2"/>
    <polyline fill="none" points="50,12 50,7 46,7 46,10" stroke="#000000" stroke-linecap="round" stroke-linejoin="round" stroke-miterlimit="10" stroke-width="2"/>
    <polyline fill="none" points="26,10 26,7 22,7 22,12" stroke="#000000" stroke-linecap="round" stroke-linejoin="round" stroke-miterlimit="10" stroke-width="2"/>
    <path d="M19,59.2637C29,67,42,67,53,59.2637L55,37l-19,3l-19-3L19,59.2637z" fill="none" stroke="#000000" stroke-linecap="round" stroke-linejoin="round" stroke-miterlimit="10" stroke-width="2"/>
    <polyline fill="none" points="54,33.4736 54,15.1055 50,15.1055 50,34.1045" stroke="#000000" stroke-linecap="round" stroke-linejoin="round" stroke-miterlimit="10" stroke-width="2"/>
    <polyline fill="none" points="30,35.3682 30,13 26,13 26,34.7363" stroke="#000000" stroke-linecap="round" stroke-linejoin="round" stroke-miterlimit="10" stroke-width="2"/>
    <polyline fill="none" points="22,34.1045 22,15.1055 18,15.1055 18,33.4736" stroke="#000000" stroke-linecap="round" stroke-linejoin="round" stroke-miterlimit="10" stroke-width="2"/>
    <polyline fill="none" points="46,34.7363 46,13 42,13 42,35.3682" stroke="#000000" stroke-linecap="round" stroke-linejoin="round" stroke-miterlimit="10" stroke-width="2"/>
    <polyline fill="none" points="38,36 38,12 34,12 34,36" stroke="#000000" stroke-linecap="round" stroke-linejoin="round" stroke-miterlimit="10" stroke-width="2"/>
  </g>
</svg>