<svg viewBox="7 7 58 58" xmlns="http://www.w3.org/2000/svg">
  <defs>
    <linearGradient id="yellow-gradient" x1="0%" x2="0%" y1="0%" y2="100%">
      <stop offset="0%" style="stop-color:#FDE02F;stop-opacity:1;"/>
      <stop offset="100%" style="stop-color:#F7B209;stop-opacity:1;"/>
    </linearGradient>
  </defs>
  <g id="color">
    <ellipse cx="36.1418" cy="35.9995" fill="#FFFFFF" rx="10" ry="9.9996" stroke="none" transform="matrix(0.7071 -0.7071 0.7071 0.7071 -14.8698 36.0984)"/>
    <ellipse cx="22.1423" cy="21.9994" fill="#ea5a47" rx="9.9996" ry="10.0002" stroke="none" transform="matrix(0.7071 -0.7071 0.7071 0.7071 -9.0706 22.1005)"/>
    <path d="M29.2129,14.9199c-2.5938-2.5947-6.2578-3.4551-9.5713-2.602c1.6748,0.4311,3.2607,1.291,4.5713,2.602 c3.9062,3.9053,3.9062,10.2368,0.001,14.1426c-1.3106,1.3105-2.8975,2.1699-4.5713,2.6016 c3.3135,0.8525,6.9765-0.0078,9.5713-2.6016C33.1191,25.1567,33.1191,18.8252,29.2129,14.9199z" fill="#D22F27" stroke="none"/>
    <ellipse cx="50.1423" cy="49.9995" fill="#b1cc33" rx="9.9993" ry="10.0003" stroke="none" transform="matrix(0.7071 -0.7071 0.7071 0.7071 -20.6686 50.098)"/>
    <path d="M57.2129,42.9199c-2.5938-2.5937-6.2578-3.4551-9.5713-2.6015c1.6748,0.4316,3.2607,1.291,4.5713,2.6015 c3.9062,3.9063,3.9062,10.2364,0.001,14.1426c-1.3106,1.3105-2.8975,2.1699-4.5713,2.6016 c3.3135,0.8535,6.9765-0.0078,9.5713-2.6016C61.1191,53.1563,61.1191,46.8262,57.2129,42.9199z" fill="#5c9e31" stroke="none"/>
    <ellipse cx="36.1423" cy="35.9994" fill="none" rx="9.9996" ry="10.0002" stroke="none" transform="matrix(0.7071 -0.7071 0.7071 0.7071 -14.8696 36.1005)"/>
    <path d="M43.2129,28.9199c-2.5938-2.5947-6.2578-3.4551-9.5713-2.602c1.6748,0.4311,3.2607,1.291,4.5713,2.602 c3.9062,3.9053,3.9062,10.2364,0.001,14.1426c-1.3106,1.3105-2.8975,2.1699-4.5713,2.6016 c3.3135,0.8535,6.9765-0.0078,9.5713-2.6016C47.1191,39.1563,47.1191,32.8252,43.2129,28.9199z" fill="#d0cfce" stroke="none"/>
  </g>
  <g id="line">
    <ellipse cx="36.1418" cy="35.9995" fill="none" rx="10" ry="9.9996" stroke="#000000" stroke-linecap="round" stroke-linejoin="round" stroke-miterlimit="10" stroke-width="2" transform="matrix(0.7071 -0.7071 0.7071 0.7071 -14.8698 36.0984)"/>
    <ellipse cx="21.9997" cy="21.8575" fill="none" rx="9.9998" ry="10.0003" stroke="#000000" stroke-linecap="round" stroke-linejoin="round" stroke-miterlimit="10" stroke-width="2" transform="matrix(0.7071 -0.7071 0.7071 0.7071 -9.012 21.9586)"/>
    <ellipse cx="50.2842" cy="50.1416" fill="none" rx="10.0003" ry="10.0003" stroke="#000000" stroke-linecap="round" stroke-linejoin="round" stroke-miterlimit="10" stroke-width="2" transform="matrix(0.7071 -0.7071 0.7071 0.7071 -20.7276 50.2424)"/>
    <line fill="none" stroke="#000000" stroke-linecap="round" stroke-linejoin="round" stroke-miterlimit="10" stroke-width="2" x1="60.1426" x2="67.1426" y1="60" y2="67"/>
  </g>
</svg>