<svg viewBox="5 5 62 62" xmlns="http://www.w3.org/2000/svg">
  <defs>
    <linearGradient id="yellow-gradient" x1="0%" x2="0%" y1="0%" y2="100%">
      <stop offset="0%" style="stop-color:#FDE02F;stop-opacity:1;"/>
      <stop offset="100%" style="stop-color:#F7B209;stop-opacity:1;"/>
    </linearGradient>
  </defs>
  <g id="color">
    <path d="M36,7C19.9834,7,7,19.9839,7,36c0,16.0156,12.9834,29,29,29s29-12.9844,29-29C65,19.9839,52.0166,7,36,7z M36,46c-5.5225,0-10-4.4775-10-10s4.4775-10,10-10c5.5225,0,10,4.4775,10,10S41.5225,46,36,46z" fill="url(#yellow-gradient)" stroke="none"/>
    <path d="M36,46c5.5225,0,10-4.4775,10-10s-4.4775-10-10-10c-5.5225,0-10,4.4775-10,10 c0,2.7266,1.0947,5.1963,2.8652,7h0.4786h-0.4786C30.6797,44.8496,33.2041,46,36,46z" fill="none" stroke="none"/>
    <path d="M46,36c0-5.5225-4.4775-10-10-10c-5.5225,0-10,4.4775-10,10c0,2.7266,1.0947,5.1963,2.8652,7 c1.8145,1.8496,4.3389,3,7.1348,3C41.5225,46,46,41.5225,46,36z" fill="none" stroke="none"/>
    <path d="M36,7C19.9834,7,7,19.9839,7,36c0,1.7061,0.1563,3.375,0.4385,5H10c2.7607,0,5,2.2383,5,5s2.2393,5,5,5 c2.7607,0,5-2.2383,5-5c0-1.6562,1.3428-3,3-3h0.8652C27.0947,41.1963,26,38.7266,26,36c0-5.5225,4.4775-10,10-10 c5.5225,0,10,4.4775,10,10s-4.4775,10-10,10c2.7607,0,5,2.2383,5,5s2.2393,5,5,5c2.7607,0,5-2.2383,5-5c0-1.6562,1.3428-3,3-3 c1.6572,0,3,1.3438,3,3c0,1.2217,0.8418,2.3213,1.8945,2.7891C62.7168,48.877,65,42.707,65,36C65,19.9839,52.0166,7,36,7z" fill="#f1b31c" stroke="none"/>
    <circle cx="14" cy="31" fill="#FFFFFF" r="2" stroke="none" stroke-linecap="round" stroke-linejoin="round" stroke-miterlimit="10" stroke-width="2"/>
    <circle cx="20" cy="39" fill="#FFFFFF" r="2" stroke="none" stroke-linecap="round" stroke-linejoin="round" stroke-miterlimit="10" stroke-width="2"/>
    <circle cx="52" cy="40" fill="#FFFFFF" r="2" stroke="none" stroke-linecap="round" stroke-linejoin="round" stroke-miterlimit="10" stroke-width="2"/>
    <circle cx="58" cy="32" fill="#FFFFFF" r="2" stroke="none" stroke-linecap="round" stroke-linejoin="round" stroke-miterlimit="10" stroke-width="2"/>
    <circle cx="50" cy="25" fill="#FFFFFF" r="2" stroke="none" stroke-linecap="round" stroke-linejoin="round" stroke-miterlimit="10" stroke-width="2"/>
    <circle cx="42" cy="14" fill="#FFFFFF" r="2" stroke="none" stroke-linecap="round" stroke-linejoin="round" stroke-miterlimit="10" stroke-width="2"/>
    <circle cx="33" cy="20" fill="#FFFFFF" r="2" stroke="none" stroke-linecap="round" stroke-linejoin="round" stroke-miterlimit="10" stroke-width="2"/>
    <circle cx="21" cy="20" fill="#FFFFFF" r="2" stroke="none" stroke-linecap="round" stroke-linejoin="round" stroke-miterlimit="10" stroke-width="2"/>
  </g>
  <g id="line">
    <circle cx="14" cy="31" fill="none" r="2" stroke="#000000" stroke-linecap="round" stroke-linejoin="round" stroke-miterlimit="10" stroke-width="2"/>
    <circle cx="20" cy="39" fill="none" r="2" stroke="#000000" stroke-linecap="round" stroke-linejoin="round" stroke-miterlimit="10" stroke-width="2"/>
    <circle cx="52" cy="40" fill="none" r="2" stroke="#000000" stroke-linecap="round" stroke-linejoin="round" stroke-miterlimit="10" stroke-width="2"/>
    <circle cx="58" cy="32" fill="none" r="2" stroke="#000000" stroke-linecap="round" stroke-linejoin="round" stroke-miterlimit="10" stroke-width="2"/>
    <circle cx="50" cy="25" fill="none" r="2" stroke="#000000" stroke-linecap="round" stroke-linejoin="round" stroke-miterlimit="10" stroke-width="2"/>
    <circle cx="42" cy="14" fill="none" r="2" stroke="#000000" stroke-linecap="round" stroke-linejoin="round" stroke-miterlimit="10" stroke-width="2"/>
    <circle cx="33" cy="20" fill="none" r="2" stroke="#000000" stroke-linecap="round" stroke-linejoin="round" stroke-miterlimit="10" stroke-width="2"/>
    <circle cx="21" cy="20" fill="none" r="2" stroke="#000000" stroke-linecap="round" stroke-linejoin="round" stroke-miterlimit="10" stroke-width="2"/>
    <circle cx="36" cy="36" fill="none" r="29" stroke="#000000" stroke-linecap="round" stroke-linejoin="round" stroke-miterlimit="10" stroke-width="2"/>
    <circle cx="36" cy="36" fill="none" r="10" stroke="#000000" stroke-linecap="round" stroke-linejoin="round" stroke-miterlimit="10" stroke-width="2"/>
    <path d="M8,41h2c2.7607,0,5,2.2383,5,5s2.2393,5,5,5c2.7607,0,5-2.2383,5-5c0-1.6562,1.3428-3,3-3h0.667" fill="none" stroke="#000000" stroke-linecap="round" stroke-linejoin="round" stroke-miterlimit="10" stroke-width="2"/>
    <path d="M58.8252,53.7607C57.752,53.3047,57,52.2393,57,51c0-1.6562-1.3428-3-3-3c-1.6572,0-3,1.3438-3,3c0,2.7617-2.2393,5-5,5 c-2.7607,0-5-2.2383-5-5s-2.2393-5-5-5" fill="none" stroke="#000000" stroke-linecap="round" stroke-linejoin="round" stroke-miterlimit="10" stroke-width="2"/>
  </g>
</svg>