<svg viewBox="10 10 52 52" xmlns="http://www.w3.org/2000/svg">
  <defs>
    <linearGradient id="yellow-gradient" x1="0%" x2="0%" y1="0%" y2="100%">
      <stop offset="0%" style="stop-color:#FDE02F;stop-opacity:1;"/>
      <stop offset="100%" style="stop-color:#F7B209;stop-opacity:1;"/>
    </linearGradient>
  </defs>
  <g id="color">
    <circle cx="8.627" cy="51.48" fill="#ea5a47" r="18" stroke-width="1.2" transform="rotate(-45)"/>
  </g>
  <g id="line">
    <circle cx="8.675" cy="51.41" fill="none" r="18.22" stroke="#000" stroke-linecap="round" stroke-linejoin="round" stroke-miterlimit="10" stroke-width="2" transform="rotate(-45)"/>
    <line fill="none" stroke="#000" stroke-linecap="round" stroke-linejoin="round" stroke-miterlimit="10" stroke-width="2" x1="12" x2="25.79" y1="60.7" y2="46.91"/>
    <path d="m42.69 30.99c0.1901-0.7095 1.05-0.09377 1.179 0.316 0.3497 1.11-0.8196 1.996-1.811 2.042-1.774 0.0823-2.992-1.659-2.906-3.306 0.1275-2.417 2.507-4.008 4.801-3.769 3.058 0.3191 5.032 3.357 4.632 6.297-0.5031 3.699-4.208 6.059-7.792 5.495-4.341-0.6831-7.089-5.059-6.359-9.287 0.8609-4.982 5.911-8.12 10.78-7.222 5.624 1.037 9.152 6.763 8.085 12.28-1.213 6.266-7.615 10.18-13.77 8.948-6.907-1.387-11.22-8.467-9.811-15.27 1.562-7.549 9.32-12.25 16.76-10.67" fill="none" stroke="#000" stroke-linecap="round" stroke-linejoin="round" stroke-width="1.864"/>
  </g>
  <g id="color-foreground">
    <path d="m42.69 30.99c0.1901-0.7095 1.05-0.09377 1.179 0.316 0.3497 1.11-0.8196 1.996-1.811 2.042-1.774 0.0823-2.992-1.659-2.906-3.306 0.1275-2.417 2.507-4.008 4.801-3.769 3.058 0.3191 5.032 3.357 4.632 6.297-0.5031 3.699-4.208 6.059-7.792 5.495-4.341-0.6831-7.089-5.059-6.359-9.287 0.8609-4.982 5.911-8.12 10.78-7.222 5.624 1.037 9.152 6.763 8.085 12.28-1.213 6.266-7.615 10.18-13.77 8.948-6.907-1.387-11.22-8.467-9.811-15.27 1.562-7.549 9.32-12.25 16.76-10.67" fill="none" stroke="#fff" stroke-linecap="round" stroke-linejoin="round" stroke-width="1.864"/>
  </g>
</svg>