<svg viewBox="10 10 52 52" xmlns="http://www.w3.org/2000/svg">
  <defs>
    <linearGradient id="yellow-gradient" x1="0%" x2="0%" y1="0%" y2="100%">
      <stop offset="0%" style="stop-color:#FDE02F;stop-opacity:1;"/>
      <stop offset="100%" style="stop-color:#F7B209;stop-opacity:1;"/>
    </linearGradient>
  </defs>
  <g id="color">
    <polyline fill="#f4aa41" points="55,17 55,11 17,11 17,17" stroke="none"/>
    <path d="M45,60c8.2842,0,15-6.7158,15-15V22c0-2.7612-2.2383-5-5-5H17c-2.7617,0-5,2.2388-5,5v23 c0,8.2842,6.7158,15,15,15H45z" fill="#f4aa41" stroke="none"/>
    <path d="M35,17v14c0,2.7617,2.2393,5,5,5c2.7617,0,5-2.2383,5-5v11c0,1.6563,1.3428,3,3,3c1.6572,0,3-1.3437,3-3V23 c0,1.6567,1.3428,3,3,3c1.6563,0,3-1.3433,3-3v-5.5781C56.3867,17.1538,55.7119,17,55,17H35h-2v-6h22v6" fill="url(#yellow-gradient)" stroke="none"/>
  </g>
  <g id="line">
    <polyline fill="none" points="55,17 55,11 17,11 17,17" stroke="#000000" stroke-linecap="round" stroke-linejoin="round" stroke-miterlimit="10" stroke-width="2"/>
    <path d="M51,42c0,1.6563-1.3428,3-3,3c-1.6572,0-3-1.3437-3-3" fill="none" stroke="#000000" stroke-linecap="round" stroke-linejoin="round" stroke-miterlimit="10" stroke-width="2"/>
    <path d="M51,23c0,1.6567,1.3428,3,3,3c1.6563,0,3-1.3433,3-3v-5" fill="none" stroke="#000000" stroke-linecap="round" stroke-linejoin="round" stroke-miterlimit="10" stroke-width="2"/>
    <path d="M45,31c0,2.7617-2.2383,5-5,5c-2.7607,0-5-2.2383-5-5" fill="none" stroke="#000000" stroke-linecap="round" stroke-linejoin="round" stroke-miterlimit="10" stroke-width="2"/>
    <line fill="none" stroke="#000000" stroke-linecap="round" stroke-linejoin="round" stroke-miterlimit="10" stroke-width="2" x1="45" x2="45" y1="42" y2="31"/>
    <line fill="none" stroke="#000000" stroke-linecap="round" stroke-linejoin="round" stroke-miterlimit="10" stroke-width="2" x1="51" x2="51" y1="42" y2="23"/>
    <line fill="none" stroke="#000000" stroke-linecap="round" stroke-linejoin="round" stroke-miterlimit="10" stroke-width="2" x1="35" x2="35" y1="31" y2="17"/>
    <line fill="none" stroke="#000000" stroke-linecap="round" stroke-linejoin="round" stroke-miterlimit="10" stroke-width="2" x1="33" x2="33" y1="17" y2="11"/>
    <path d="M45,60c8.2842,0,15-6.7158,15-15V22c0-2.7612-2.2383-5-5-5H17c-2.7617,0-5,2.2388-5,5v23c0,8.2842,6.7158,15,15,15H45z" fill="none" stroke="#000000" stroke-linecap="round" stroke-linejoin="round" stroke-miterlimit="10" stroke-width="2"/>
  </g>
</svg>