<svg viewBox="0 0 72 72" xmlns="http://www.w3.org/2000/svg">
  <defs>
    <linearGradient id="yellow-gradient" x1="0%" x2="0%" y1="0%" y2="100%">
      <stop offset="0%" style="stop-color:#FDE02F;stop-opacity:1;"/>
      <stop offset="100%" style="stop-color:#F7B209;stop-opacity:1;"/>
    </linearGradient>
  </defs>
  <g id="color">
    <polygon fill="#EA5A47" points="55,26 17,26 17,14 43.0198,14 55,14" stroke="none"/>
    <path d="M56,24c0,11.0457-8.9543,20-20,20s-20-8.9543-20-20" fill="#EA5A47" stroke="none"/>
    <path d="M55,24V14h-7.5698c0.5966,6.3347,0.293,21.2038-13.788,29.849C34.4169,43.9401,35.2009,44,36,44 c11.0457,0,20-8.9543,20-20H55z" fill="#d22f27" stroke="none"/>
  </g>
  <g id="line">
    <line fill="none" stroke="#000000" stroke-linecap="round" stroke-linejoin="round" stroke-miterlimit="10" stroke-width="2" x1="20" x2="52" y1="67" y2="67"/>
    <line fill="none" stroke="#000000" stroke-linecap="round" stroke-linejoin="round" stroke-miterlimit="10" stroke-width="2" x1="36" x2="36" y1="44" y2="67"/>
    <path d="M56,24c0,3.265-0.7824,6.3473-2.1699,9.0696C50.5236,39.557,43.7807,44,36,44c-11.0457,0-20-8.9543-20-20" fill="none" stroke="#000000" stroke-linecap="round" stroke-linejoin="round" stroke-miterlimit="10" stroke-width="2"/>
    <line fill="none" stroke="#000000" stroke-linecap="round" stroke-linejoin="round" stroke-miterlimit="10" stroke-width="2" x1="16" x2="16" y1="5" y2="24"/>
    <line fill="none" stroke="#000000" stroke-linecap="round" stroke-linejoin="round" stroke-miterlimit="10" stroke-width="2" x1="56" x2="56" y1="5" y2="24"/>
    <line fill="none" stroke="#000000" stroke-miterlimit="10" stroke-width="2" x1="15.5" x2="55.5" y1="14.5" y2="14.5"/>
  </g>
</svg>