<svg viewBox="0 0 72 72" xmlns="http://www.w3.org/2000/svg">
  <defs>
    <linearGradient id="yellow-gradient" x1="0%" x2="0%" y1="0%" y2="100%">
      <stop offset="0%" style="stop-color:#FDE02F;stop-opacity:1;"/>
      <stop offset="100%" style="stop-color:#F7B209;stop-opacity:1;"/>
    </linearGradient>
  </defs>
  <g id="color">
    <path d="M66.1204,26.2961 C66.1204,20.353,61,14.1351,61,16s0.9471,26.6324,0.9471,26.6324L61,58.8287c0,1.1046,0.8954,2,2,2s2-0.8954,2-2l-0.5289-16.2893 C64.4711,42.5394,66.1204,32.2392,66.1204,26.2961z" fill="#D0CFCE" stroke="none" stroke-miterlimit="10" stroke-width="2"/>
    <path d="M11.4211,16.7398c0,0,0.1115,4.158,0.1115,8.1058c0,2.9609-0.8993,4.8203-2.1809,5.565l0,0l0.0285,28.4181c0,1.1046-0.8954,2-2,2 s-2-0.8954-2-2L6.191,30.4165l0,0C4.904,29.6757,4,27.8142,4,24.8456c0-3.9478,0.1115-8.1058,0.1115-8.1058" fill="#D0CFCE" stroke="none" stroke-linecap="round" stroke-linejoin="round" stroke-miterlimit="10" stroke-width="2"/>
    <line fill="#D0CFCE" stroke="none" stroke-linecap="round" stroke-linejoin="round" stroke-miterlimit="10" stroke-width="2" x1="7.7663" x2="7.7663" y1="16.7398" y2="26.3247"/>
    <circle cx="36" cy="35.9583" fill="#D0CFCE" r="19.9583" stroke="none" stroke-linecap="round" stroke-linejoin="round" stroke-miterlimit="10" stroke-width="2"/>
    <circle cx="36.0042" cy="36" fill="#D0CFCE" r="12.1495" stroke="none" stroke-linecap="round" stroke-linejoin="round" stroke-miterlimit="10" stroke-width="2"/>
  </g>
  <g id="line">
    <path d="M66.1204,26.2961 C66.1204,20.353,61,14.1351,61,16s0.9471,26.6324,0.9471,26.6324L61,58.8287c0,1.1046,0.8954,2,2,2s2-0.8954,2-2l-0.5289-16.2893 C64.4711,42.5394,66.1204,32.2392,66.1204,26.2961z" fill="none" stroke="#000000" stroke-miterlimit="10" stroke-width="2"/>
    <path d="M11.4211,16.7398c0,0,0.1115,4.158,0.1115,8.1058c0,2.9609-0.8993,4.8203-2.1809,5.565l0,0l0.0285,28.4181c0,1.1046-0.8954,2-2,2 s-2-0.8954-2-2L6.191,30.4165l0,0C4.904,29.6757,4,27.8142,4,24.8456c0-3.9478,0.1115-8.1058,0.1115-8.1058" fill="none" stroke="#000000" stroke-linecap="round" stroke-linejoin="round" stroke-miterlimit="10" stroke-width="2"/>
    <line fill="none" stroke="#000000" stroke-linecap="round" stroke-linejoin="round" stroke-miterlimit="10" stroke-width="2" x1="7.7663" x2="7.7663" y1="16.7398" y2="26.3247"/>
    <circle cx="36" cy="35.9583" fill="none" r="19.9583" stroke="#000000" stroke-linecap="round" stroke-linejoin="round" stroke-miterlimit="10" stroke-width="2"/>
    <circle cx="36.0042" cy="36" fill="none" r="12.1495" stroke="#000000" stroke-linecap="round" stroke-linejoin="round" stroke-miterlimit="10" stroke-width="2"/>
  </g>
</svg>