<svg viewBox="0 0 72 72" xmlns="http://www.w3.org/2000/svg">
  <defs>
    <linearGradient id="yellow-gradient" x1="0%" x2="0%" y1="0%" y2="100%">
      <stop offset="0%" style="stop-color:#FDE02F;stop-opacity:1;"/>
      <stop offset="100%" style="stop-color:#F7B209;stop-opacity:1;"/>
    </linearGradient>
  </defs>
  <g id="line-supplement">
    <line fill="none" stroke="#000000" stroke-linecap="round" stroke-linejoin="round" stroke-miterlimit="10" stroke-width="2" x1="45.6863" x2="53.668" y1="20.0657" y2="20.0657"/>
    <line fill="none" stroke="#000000" stroke-linecap="round" stroke-linejoin="round" stroke-miterlimit="10" stroke-width="2" x1="18.0445" x2="37.0861" y1="20.0657" y2="20.0657"/>
  </g>
  <g id="color">
    <polygon fill="#B1CC33" points="17.0606,19 23.5,27.4999 36,43.9999 48.5,27.4999 54.9394,19"/>
    <polygon fill="#5C9E31" points="44.9394,19 38.5,27.4999 31,37.4 36,43.9999 48.5,27.4999 54.9394,19"/>
  </g>
  <g id="line">
    <line fill="none" stroke="#000000" stroke-linecap="round" stroke-linejoin="round" stroke-miterlimit="10" stroke-width="2" x1="36" x2="36" y1="44" y2="67"/>
    <line fill="none" stroke="#000000" stroke-linecap="round" stroke-linejoin="round" stroke-miterlimit="10" stroke-width="2" x1="20" x2="52" y1="67" y2="67"/>
    <polyline fill="none" points="61,11 48.5,27.5 36,44 23.5,27.5 11.2385,11.3149" stroke="#000000" stroke-linecap="round" stroke-linejoin="round" stroke-miterlimit="10" stroke-width="2"/>
    <line fill="none" stroke="#000000" stroke-linecap="round" stroke-linejoin="round" stroke-miterlimit="10" stroke-width="2" x1="11.2385" x2="11" y1="11.3149" y2="11"/>
    <line fill="none" stroke="#000000" stroke-linecap="round" stroke-linejoin="round" stroke-miterlimit="10" stroke-width="2" x1="39" x2="55" y1="23" y2="4"/>
  </g>
</svg>