<svg viewBox="0 0 72 72" xmlns="http://www.w3.org/2000/svg">
  <defs>
    <linearGradient id="yellow-gradient" x1="0%" x2="0%" y1="0%" y2="100%">
      <stop offset="0%" style="stop-color:#FDE02F;stop-opacity:1;"/>
      <stop offset="100%" style="stop-color:#F7B209;stop-opacity:1;"/>
    </linearGradient>
  </defs>
  <g id="line-supplement">
    <line id="xx" fill="none" stroke="#000000" stroke-linecap="round" stroke-linejoin="round" stroke-miterlimit="10" stroke-width="2" x1="16.9" x2="55.2" y1="28" y2="28"/>
  </g>
  <g id="color">
    <path d="M56,33c-0.1-2.1-0.3-4.1-0.7-6H16.8c-0.4,1.9-0.7,3.9-0.7,6l0,0c0,0.2,0,0.4,0,0.6c0,0.1,0,0.2,0,0.4l0,0 c0.5,12.2,9.2,22,20,22s19.5-9.8,20-22l0,0c0-0.1,0-0.2,0-0.4C56,33.4,56,33.2,56,33L56,33z" fill="url(#yellow-gradient)"/>
    <path d="M56,33L56,33c-0.1-2.1-0.4-4.1-0.8-6h-13c0.4,1.9,0.7,3.9,0.7,6l0,0c0,0.2,0,0.4,0,0.6c0,0.1,0,0.2,0,0.4 l0,0c-0.4,9.6-5.9,17.8-13.5,20.8c2,0.8,4.2,1.2,6.5,1.2c10.8,0,19.5-9.8,20-22l0,0c0-0.1,0-0.2,0-0.4C56,33.4,56,33.2,56,33z" fill="#F1B31C"/>
  </g>
  <g id="line">
    <line fill="none" stroke="#000000" stroke-linecap="round" stroke-linejoin="round" stroke-miterlimit="10" stroke-width="2" x1="36" x2="36" y1="56" y2="67"/>
    <line fill="none" stroke="#000000" stroke-linecap="round" stroke-linejoin="round" stroke-miterlimit="10" stroke-width="2" x1="20" x2="52" y1="67" y2="67"/>
    <path d="M56,33c0,12.7-9,23-20,23S16,45.7,16,33" fill="none" stroke="#000000" stroke-miterlimit="10" stroke-width="2"/>
    <path d="M50.1,15.6C53.8,20.3,56,26.8,56,34" fill="none" stroke="#000000" stroke-linecap="round" stroke-linejoin="round" stroke-miterlimit="10" stroke-width="2"/>
    <path d="M16,34c0-7,2.1-13.3,5.6-18" fill="none" stroke="#000000" stroke-linecap="round" stroke-linejoin="round" stroke-miterlimit="10" stroke-width="2"/>
    <polyline fill="none" points="43,24 43,11 50,4" stroke="#000000" stroke-linecap="round" stroke-linejoin="round" stroke-miterlimit="10" stroke-width="2"/>
  </g>
</svg>