<svg viewBox="8 8 56 56" xmlns="http://www.w3.org/2000/svg">
  <defs>
    <linearGradient id="yellow-gradient" x1="0%" x2="0%" y1="0%" y2="100%">
      <stop offset="0%" style="stop-color:#FDE02F;stop-opacity:1;"/>
      <stop offset="100%" style="stop-color:#F7B209;stop-opacity:1;"/>
    </linearGradient>
  </defs>
  <g id="line-supplement">
    <g>
      <line fill="none" stroke="#000" stroke-linecap="round" stroke-miterlimit="10" stroke-width="2" x1="27.612" x2="27.612" y1="16.1095" y2="16.1095"/>
      <line fill="none" stroke="#000" stroke-linecap="round" stroke-miterlimit="10" stroke-width="2" x1="55.8981" x2="55.8981" y1="44.3824" y2="44.3824"/>
      <line fill="none" stroke="#000" stroke-linecap="round" stroke-miterlimit="10" stroke-width="2" x1="55.8815" x2="55.8815" y1="16.0996" y2="16.0996"/>
      <line fill="none" stroke="#000" stroke-linecap="round" stroke-miterlimit="10" stroke-width="2" x1="27.5931" x2="27.5931" y1="16.1284" y2="16.1284"/>
      <line fill="none" stroke="#000" stroke-linecap="round" stroke-linejoin="round" stroke-width="2" x1="41.75" x2="41.75" y1="10.25" y2="24.25"/>
      <line fill="none" stroke="#000" stroke-linecap="round" stroke-linejoin="round" stroke-width="2" x1="47.75" x2="61.75" y1="30.25" y2="30.25"/>
      <line fill="none" stroke="#000" stroke-linecap="round" stroke-linejoin="round" stroke-width="2" x1="41.75" x2="41.75" y1="50.25" y2="36.25"/>
      <line fill="none" stroke="#000" stroke-linecap="round" stroke-linejoin="round" stroke-width="2" x1="35.75" x2="21.75" y1="30.25" y2="30.25"/>
      <line fill="none" stroke="#000" stroke-linecap="round" stroke-miterlimit="10" stroke-width="2" x1="37.5074" x2="31.1434" y1="26.0074" y2="19.6434"/>
      <line fill="none" stroke="#000" stroke-linecap="round" stroke-miterlimit="10" stroke-width="2" x1="52.3566" x2="45.9927" y1="19.6434" y2="26.0073"/>
      <line fill="none" stroke="#000" stroke-linecap="round" stroke-miterlimit="10" stroke-width="2" x1="52.3566" x2="45.9926" y1="40.8566" y2="34.4926"/>
      <line fill="none" stroke="#000" stroke-linecap="round" stroke-miterlimit="10" stroke-width="2" x1="32.2619" x2="34.9775" y1="7.347" y2="13.9031"/>
      <line fill="none" stroke="#000" stroke-linecap="round" stroke-miterlimit="10" stroke-width="2" x1="18.8402" x2="25.3966" y1="20.7701" y2="23.4851"/>
      <line fill="none" stroke="#000" stroke-linecap="round" stroke-miterlimit="10" stroke-width="2" x1="18.8434" x2="25.399" y1="39.7527" y2="37.0355"/>
      <line fill="none" stroke="#000" stroke-linecap="round" stroke-miterlimit="10" stroke-width="2" x1="32.2693" x2="34.9829" y1="53.1711" y2="46.614"/>
      <line fill="none" stroke="#000" stroke-linecap="round" stroke-miterlimit="10" stroke-width="2" x1="51.2523" x2="48.5336" y1="53.1636" y2="46.6086"/>
      <line fill="none" stroke="#000" stroke-linecap="round" stroke-miterlimit="10" stroke-width="2" x1="64.6674" x2="58.1097" y1="39.7349" y2="37.0228"/>
      <line fill="none" stroke="#000" stroke-linecap="round" stroke-miterlimit="10" stroke-width="2" x1="64.6556" x2="58.1013" y1="20.7516" y2="23.4718"/>
      <line fill="none" stroke="#000" stroke-linecap="round" stroke-miterlimit="10" stroke-width="2" x1="51.218" x2="48.5105" y1="7.348" y2="13.9076"/>
      <line fill="none" stroke="#000" stroke-linecap="round" stroke-miterlimit="10" stroke-width="2" x1="32.2357" x2="34.9513" y1="7.3578" y2="13.914"/>
    </g>
    <path d="M13,57,40.6378,29.2409a1.5,1.5,0,0,1,2.1214,0h0a1.5,1.5,0,0,1,0,2.1213L19,55" fill="none" stroke="#000" stroke-linecap="round" stroke-miterlimit="10" stroke-width="2"/>
  </g>
  <g id="color">
    <g>
      <path d="M11.2929,57.1716,39.9307,28.5338a2.5,2.5,0,0,1,3.5356,0h0a2.5,2.5,0,0,1,0,3.5355L14.8284,60.7071a1,1,0,0,1-1.4142,0l-2.1213-2.1213A1,1,0,0,1,11.2929,57.1716Z" fill="#9b9b9a"/>
      <g>
        <line fill="none" stroke="#f1b31c" stroke-linecap="round" stroke-miterlimit="10" stroke-width="2" x1="27.612" x2="27.612" y1="16.1095" y2="16.1095"/>
        <line fill="none" stroke="#f1b31c" stroke-linecap="round" stroke-miterlimit="10" stroke-width="2" x1="55.8981" x2="55.8981" y1="44.3824" y2="44.3824"/>
        <line fill="none" stroke="#f1b31c" stroke-linecap="round" stroke-miterlimit="10" stroke-width="2" x1="55.8815" x2="55.8815" y1="16.0996" y2="16.0996"/>
        <line fill="none" stroke="#f1b31c" stroke-linecap="round" stroke-miterlimit="10" stroke-width="2" x1="27.5931" x2="27.5931" y1="16.1284" y2="16.1284"/>
        <line fill="none" stroke="#f1b31c" stroke-linecap="round" stroke-linejoin="round" stroke-width="2" x1="41.75" x2="41.75" y1="10.25" y2="24.25"/>
        <line fill="none" stroke="#f1b31c" stroke-linecap="round" stroke-linejoin="round" stroke-width="2" x1="47.75" x2="61.75" y1="30.25" y2="30.25"/>
        <line fill="none" stroke="#f1b31c" stroke-linecap="round" stroke-linejoin="round" stroke-width="2" x1="41.75" x2="41.75" y1="50.25" y2="36.25"/>
        <line fill="none" stroke="#f1b31c" stroke-linecap="round" stroke-linejoin="round" stroke-width="2" x1="35.75" x2="21.75" y1="30.25" y2="30.25"/>
        <line fill="none" stroke="#f1b31c" stroke-linecap="round" stroke-miterlimit="10" stroke-width="2" x1="37.5074" x2="31.1434" y1="26.0074" y2="19.6434"/>
        <line fill="none" stroke="#f1b31c" stroke-linecap="round" stroke-miterlimit="10" stroke-width="2" x1="52.3566" x2="45.9927" y1="19.6434" y2="26.0073"/>
        <line fill="none" stroke="#f1b31c" stroke-linecap="round" stroke-miterlimit="10" stroke-width="2" x1="52.3566" x2="45.9926" y1="40.8566" y2="34.4926"/>
        <line fill="none" stroke="#f1b31c" stroke-linecap="round" stroke-miterlimit="10" stroke-width="2" x1="32.2619" x2="34.9775" y1="7.347" y2="13.9031"/>
        <line fill="none" stroke="#f1b31c" stroke-linecap="round" stroke-miterlimit="10" stroke-width="2" x1="18.8402" x2="25.3966" y1="20.7701" y2="23.4851"/>
        <line fill="none" stroke="#f1b31c" stroke-linecap="round" stroke-miterlimit="10" stroke-width="2" x1="18.8434" x2="25.399" y1="39.7527" y2="37.0355"/>
        <line fill="none" stroke="#f1b31c" stroke-linecap="round" stroke-miterlimit="10" stroke-width="2" x1="32.2693" x2="34.9829" y1="53.1711" y2="46.614"/>
        <line fill="none" stroke="#f1b31c" stroke-linecap="round" stroke-miterlimit="10" stroke-width="2" x1="51.2523" x2="48.5336" y1="53.1636" y2="46.6086"/>
        <line fill="none" stroke="#f1b31c" stroke-linecap="round" stroke-miterlimit="10" stroke-width="2" x1="64.6674" x2="58.1097" y1="39.7349" y2="37.0228"/>
        <line fill="none" stroke="#f1b31c" stroke-linecap="round" stroke-miterlimit="10" stroke-width="2" x1="64.6556" x2="58.1013" y1="20.7516" y2="23.4718"/>
        <line fill="none" stroke="#f1b31c" stroke-linecap="round" stroke-miterlimit="10" stroke-width="2" x1="51.218" x2="48.5105" y1="7.348" y2="13.9076"/>
        <line fill="none" stroke="#f1b31c" stroke-linecap="round" stroke-miterlimit="10" stroke-width="2" x1="32.2357" x2="34.9513" y1="7.3578" y2="13.914"/>
      </g>
    </g>
  </g>
  <g id="line">
    <path d="M17,52.8787,40.6378,29.2409a1.5,1.5,0,0,1,2.1214,0h0a1.5,1.5,0,0,1,0,2.1213L31.92,42.201" fill="none" stroke="#000" stroke-linecap="round" stroke-miterlimit="10" stroke-width="2"/>
  </g>
</svg>