<svg viewBox="0 0 72 72" xmlns="http://www.w3.org/2000/svg">
  <defs>
    <linearGradient id="yellow-gradient" x1="0%" x2="0%" y1="0%" y2="100%">
      <stop offset="0%" style="stop-color:#FDE02F;stop-opacity:1;"/>
      <stop offset="100%" style="stop-color:#F7B209;stop-opacity:1;"/>
    </linearGradient>
  </defs>
  <g id="color">
    <path d="M11,37c0,1.1045,50,2.1045,50,1v-7h-1V20c0-2.7612-2.2393-5-5-5H17c-2.7607,0-5,2.2388-5,5v11h-1V37z" fill="url(#yellow-gradient)" stroke="none"/>
    <path d="M12,21.9238c1.9443-1.3081,4.6025-1.1064,6.3213,0.6123c1.9531,1.9522,5.1191,1.9522,7.0723,0 c1.9521-1.9521,5.1181-1.9521,7.0703,0c1.9531,1.9522,5.1191,1.9522,7.0722,0c1.9522-1.9521,5.1182-1.9521,7.0703,0 c1.9532,1.9522,5.1192,1.9522,7.0723,0c1.7188-1.7187,4.377-1.9204,6.3213-0.6123V20c0-2.7612-2.2393-5-5-5H17 c-2.7607,0-5,2.2388-5,5V21.9238z" fill="#FFFFFF" stroke="none"/>
    <path d="M5,60c0,1.1045,0.8955,2,2,2h58c1.1045,0,2-0.8955,2-2V41c0-2.7617-2.2393-5-5-5H10 c-2.7607,0-5,2.2383-5,5V60z" fill="url(#yellow-gradient)" stroke="none"/>
    <circle cx="36" cy="12" fill="#ea5a47" r="3" stroke="none"/>
    <path d="M11.251,45.5361c1.9521,1.9522,5.1181,1.9522,7.0703,0c1.9531-1.9521,5.1191-1.9521,7.0723,0 c1.9521,1.9522,5.1181,1.9522,7.0703,0c1.9531-1.9521,5.1191-1.9521,7.0722,0c1.9522,1.9522,5.1182,1.9522,7.0703,0 c1.9532-1.9521,5.1192-1.9521,7.0723,0c1.9522,1.9522,5.1182,1.9522,7.0703,0c1.6992-1.6982,4.3135-1.915,6.251-0.6591V41 c0-2.7617-2.2393-5-5-5H10c-2.7607,0-5,2.2383-5,5v3.877C6.9375,43.6211,9.5518,43.8379,11.251,45.5361z" fill="#FFFFFF" stroke="none" stroke-linecap="round" stroke-linejoin="round" stroke-miterlimit="10" stroke-width="2"/>
  </g>
  <g id="line">
    <circle cx="36" cy="12" fill="none" r="3" stroke="#000000" stroke-linecap="round" stroke-linejoin="round" stroke-miterlimit="10" stroke-width="2"/>
    <path d="M36,10.75c0-2.7617,2.2383-5,5-5" fill="none" stroke="#000000" stroke-linecap="round" stroke-linejoin="round" stroke-miterlimit="10" stroke-width="2"/>
    <path d="M11.251,45.5361c1.9521,1.9522,5.1181,1.9522,7.0703,0c1.9531-1.9521,5.1191-1.9521,7.0723,0 c1.9521,1.9522,5.1181,1.9522,7.0703,0c1.9531-1.9521,5.1191-1.9521,7.0722,0c1.9522,1.9522,5.1182,1.9522,7.0703,0 c1.9532-1.9521,5.1192-1.9521,7.0723,0c1.9522,1.9522,5.1182,1.9522,7.0703,0c1.6992-1.6982,4.3135-1.915,6.251-0.6591V41 c0-2.7617-2.2393-5-5-5H10c-2.7607,0-5,2.2383-5,5v3.877C6.9375,43.6211,9.5518,43.8379,11.251,45.5361z" fill="none" stroke="#000000" stroke-linecap="round" stroke-linejoin="round" stroke-miterlimit="10" stroke-width="2"/>
    <path d="M5,44.877V60c0,1.1045,0.8955,2,2,2h58c1.1045,0,2-0.8955,2-2V44.877" fill="none" stroke="#000000" stroke-linecap="round" stroke-linejoin="round" stroke-miterlimit="10" stroke-width="2"/>
    <path d="M11.251,45.5361c1.9521,1.9522,5.1181,1.9522,7.0703,0c1.9531-1.9521,5.1191-1.9521,7.0723,0 c1.9521,1.9522,5.1181,1.9522,7.0703,0c1.9531-1.9521,5.1191-1.9521,7.0722,0c1.9522,1.9522,5.1182,1.9522,7.0703,0 c1.9532-1.9521,5.1192-1.9521,7.0723,0c1.9522,1.9522,5.1182,1.9522,7.0703,0c1.6992-1.6982,4.3135-1.915,6.251-0.6591V41 c0-2.7617-2.2393-5-5-5H10c-2.7607,0-5,2.2383-5,5v3.877C6.9375,43.6211,9.5518,43.8379,11.251,45.5361z" fill="none" stroke="#000000" stroke-linecap="round" stroke-linejoin="round" stroke-miterlimit="10" stroke-width="2"/>
    <line fill="none" stroke="#000000" stroke-linecap="round" stroke-linejoin="round" stroke-miterlimit="10" stroke-width="2" x1="60" x2="60" y1="21.9238" y2="32"/>
    <line fill="none" stroke="#000000" stroke-linecap="round" stroke-linejoin="round" stroke-miterlimit="10" stroke-width="2" x1="12" x2="12" y1="21.9238" y2="32"/>
    <path d="M12,21.9238c1.9443-1.3081,4.6025-1.1064,6.3213,0.6123c1.9531,1.9522,5.1191,1.9522,7.0723,0 c1.9521-1.9521,5.1181-1.9521,7.0703,0c1.9531,1.9522,5.1191,1.9522,7.0722,0c1.9522-1.9521,5.1182-1.9521,7.0703,0 c1.9532,1.9522,5.1192,1.9522,7.0723,0c1.7188-1.7187,4.377-1.9204,6.3213-0.6123V20c0-2.7612-2.2393-5-5-5H17 c-2.7607,0-5,2.2388-5,5V21.9238z" fill="none" stroke="#000000" stroke-linecap="round" stroke-linejoin="round" stroke-miterlimit="10" stroke-width="2"/>
  </g>
</svg>