<svg viewBox="4 4 64 64" xmlns="http://www.w3.org/2000/svg">
  <defs>
    <linearGradient id="yellow-gradient" x1="0%" x2="0%" y1="0%" y2="100%">
      <stop offset="0%" style="stop-color:#FDE02F;stop-opacity:1;"/>
      <stop offset="100%" style="stop-color:#F7B209;stop-opacity:1;"/>
    </linearGradient>
  </defs>
  <g id="line-supplement">
    <line fill="none" stroke="#000" stroke-linecap="round" stroke-miterlimit="10" stroke-width="2" x1="22.7071" x2="31.8995" y1="46.7071" y2="55.8995"/>
    <line fill="none" stroke="#000" stroke-linecap="round" stroke-miterlimit="10" stroke-width="2" x1="29.0711" x2="29.0711" y1="48.8284" y2="53.0711"/>
    <line fill="none" stroke="#000" stroke-linecap="round" stroke-miterlimit="10" stroke-width="2" x1="26.2426" x2="26.2426" y1="46" y2="50.2426"/>
    <line fill="none" stroke="#000" stroke-linecap="round" stroke-miterlimit="10" stroke-width="2" x1="24.8284" x2="29.0711" y1="53.0711" y2="53.0711"/>
    <line fill="none" stroke="#000" stroke-linecap="round" stroke-miterlimit="10" stroke-width="2" x1="22" x2="26.2426" y1="50.2426" y2="50.2426"/>
    <line fill="none" stroke="#000" stroke-linecap="round" stroke-miterlimit="10" stroke-width="2" x1="49.2929" x2="40.1005" y1="46.7071" y2="55.8995"/>
    <line fill="none" stroke="#000" stroke-linecap="round" stroke-miterlimit="10" stroke-width="2" x1="42.9289" x2="42.9289" y1="48.8284" y2="53.0711"/>
    <line fill="none" stroke="#000" stroke-linecap="round" stroke-miterlimit="10" stroke-width="2" x1="45.7574" x2="45.7574" y1="46" y2="50.2426"/>
    <line fill="none" stroke="#000" stroke-linecap="round" stroke-miterlimit="10" stroke-width="2" x1="47.1716" x2="42.9289" y1="53.0711" y2="53.0711"/>
    <line fill="none" stroke="#000" stroke-linecap="round" stroke-miterlimit="10" stroke-width="2" x1="50" x2="45.7574" y1="50.2426" y2="50.2426"/>
    <line fill="none" stroke="#000" stroke-linecap="round" stroke-miterlimit="10" stroke-width="2" x1="36" x2="36" y1="43" y2="56"/>
    <line fill="none" stroke="#000" stroke-linecap="round" stroke-miterlimit="10" stroke-width="2" x1="33" x2="36" y1="49" y2="52"/>
    <line fill="none" stroke="#000" stroke-linecap="round" stroke-miterlimit="10" stroke-width="2" x1="33" x2="36" y1="45" y2="48"/>
    <line fill="none" stroke="#000" stroke-linecap="round" stroke-miterlimit="10" stroke-width="2" x1="39" x2="36" y1="49" y2="52"/>
    <line fill="none" stroke="#000" stroke-linecap="round" stroke-miterlimit="10" stroke-width="2" x1="39" x2="36" y1="45" y2="48"/>
    <line fill="none" stroke="#000" stroke-linecap="round" stroke-miterlimit="10" stroke-width="2" x1="35" x2="35" y1="22" y2="33"/>
    <line fill="none" stroke="#000" stroke-linecap="round" stroke-linejoin="round" stroke-width="2" x1="37" x2="37" y1="28" y2="39"/>
    <path d="M36.5,8C37.8807,8,39,9.7909,39,12s-1.1193,4-2.5,4S34,14.2091,34,12s1.1193-4,2.5-4m0-2C33.9766,6,32,8.6355,32,12s1.9766,6,4.5,6S41,15.3645,41,12s-1.9766-6-4.5-6Z"/>
    <path d="M40.5,24c1.3807,0,2.5,1.7909,2.5,4s-1.1193,4-2.5,4S38,30.2091,38,28s1.1193-4,2.5-4m0-2c-2.5234,0-4.5,2.6355-4.5,6s1.9766,6,4.5,6S45,31.3645,45,28s-1.9766-6-4.5-6Z"/>
    <path d="M31.5,18c1.3807,0,2.5,1.7909,2.5,4s-1.1193,4-2.5,4S29,24.2091,29,22s1.1193-4,2.5-4m0-2c-2.5234,0-4.5,2.6355-4.5,6s1.9766,6,4.5,6S36,25.3645,36,22s-1.9766-6-4.5-6Z"/>
    <path d="M36.5,8C37.8807,8,39,9.7908,39,12V24.8181A1.9823,1.9823,0,0,1,40.5,24c1.3807,0,2.5,1.7908,2.5,4V55H29V22c0-2.2092,1.1193-4,2.5-4S34,19.7908,34,22l.08-10c0-2.2092,1.039-4,2.42-4m0-2c-2.52,0-4.42,2.5794-4.42,6l-.0325,4.0421A3.5721,3.5721,0,0,0,31.5,16c-2.5234,0-4.5,2.6355-4.5,6V55a2,2,0,0,0,2,2H43a2,2,0,0,0,2-2V28c0-3.1388-1.72-5.6432-4-5.965V12c0-3.3645-1.9766-6-4.5-6Z"/>
    <line fill="none" stroke="#000" stroke-linecap="round" stroke-linejoin="round" stroke-width="2" x1="32" x2="32" y1="56" y2="67"/>
    <line fill="none" stroke="#000" stroke-linecap="round" stroke-linejoin="round" stroke-width="2" x1="40" x2="40" y1="56" y2="67"/>
    <line fill="none" stroke="#000" stroke-linecap="round" stroke-linejoin="round" stroke-width="2" x1="46" x2="26" y1="59.5" y2="59.5"/>
    <line fill="none" stroke="#000" stroke-linecap="round" stroke-linejoin="round" stroke-width="2" x1="26" x2="46" y1="63.5" y2="63.5"/>
  </g>
  <g id="color">
    <rect fill="#f4aa41" height="11" width="20" x="26" y="56"/>
    <line fill="none" stroke="#a57939" stroke-linecap="round" stroke-linejoin="round" stroke-width="2" x1="32" x2="32" y1="56" y2="67"/>
    <line fill="none" stroke="#a57939" stroke-linecap="round" stroke-linejoin="round" stroke-width="2" x1="40" x2="40" y1="56" y2="67"/>
    <line fill="none" stroke="#a57939" stroke-linecap="round" stroke-linejoin="round" stroke-width="2" x1="46" x2="26" y1="59.5" y2="59.5"/>
    <line fill="none" stroke="#a57939" stroke-linecap="round" stroke-linejoin="round" stroke-width="2" x1="26" x2="46" y1="63.5" y2="63.5"/>
    <rect fill="#b1cc33" height="33" width="5" x="29" y="22"/>
    <rect fill="#5c9e31" height="43" width="5" x="34" y="12"/>
    <rect fill="#b1cc33" height="27" width="5" x="38" y="28"/>
    <ellipse cx="36.5" cy="12" fill="#f4aa41" rx="2.5" ry="4"/>
    <ellipse cx="40.5" cy="28" fill="#f4aa41" rx="2.5" ry="4"/>
    <ellipse cx="31.5" cy="22" fill="#f4aa41" rx="2.5" ry="4"/>
    <line fill="none" stroke="#186648" stroke-linecap="round" stroke-miterlimit="10" stroke-width="2" x1="22.7071" x2="31.8995" y1="46.7071" y2="55.8995"/>
    <line fill="none" stroke="#186648" stroke-linecap="round" stroke-miterlimit="10" stroke-width="2" x1="29.0711" x2="29.0711" y1="48.8284" y2="53.0711"/>
    <line fill="none" stroke="#186648" stroke-linecap="round" stroke-miterlimit="10" stroke-width="2" x1="26.2426" x2="26.2426" y1="46" y2="50.2426"/>
    <line fill="none" stroke="#186648" stroke-linecap="round" stroke-miterlimit="10" stroke-width="2" x1="24.8284" x2="29.0711" y1="53.0711" y2="53.0711"/>
    <line fill="none" stroke="#186648" stroke-linecap="round" stroke-miterlimit="10" stroke-width="2" x1="22" x2="26.2426" y1="50.2426" y2="50.2426"/>
    <line fill="none" stroke="#186648" stroke-linecap="round" stroke-miterlimit="10" stroke-width="2" x1="49.2929" x2="40.1005" y1="46.7071" y2="55.8995"/>
    <line fill="none" stroke="#186648" stroke-linecap="round" stroke-miterlimit="10" stroke-width="2" x1="42.9289" x2="42.9289" y1="48.8284" y2="53.0711"/>
    <line fill="none" stroke="#186648" stroke-linecap="round" stroke-miterlimit="10" stroke-width="2" x1="45.7574" x2="45.7574" y1="46" y2="50.2426"/>
    <line fill="none" stroke="#186648" stroke-linecap="round" stroke-miterlimit="10" stroke-width="2" x1="47.1716" x2="42.9289" y1="53.0711" y2="53.0711"/>
    <line fill="none" stroke="#186648" stroke-linecap="round" stroke-miterlimit="10" stroke-width="2" x1="50" x2="45.7574" y1="50.2426" y2="50.2426"/>
    <line fill="none" stroke="#186648" stroke-linecap="round" stroke-miterlimit="10" stroke-width="2" x1="36" x2="36" y1="43" y2="56"/>
    <line fill="none" stroke="#186648" stroke-linecap="round" stroke-miterlimit="10" stroke-width="2" x1="33" x2="36" y1="49" y2="52"/>
    <line fill="none" stroke="#186648" stroke-linecap="round" stroke-miterlimit="10" stroke-width="2" x1="33" x2="36" y1="45" y2="48"/>
    <line fill="none" stroke="#186648" stroke-linecap="round" stroke-miterlimit="10" stroke-width="2" x1="39" x2="36" y1="49" y2="52"/>
    <line fill="none" stroke="#186648" stroke-linecap="round" stroke-miterlimit="10" stroke-width="2" x1="39" x2="36" y1="45" y2="48"/>
  </g>
  <g id="line">
    <rect fill="none" height="11" stroke="#000" stroke-linecap="round" stroke-linejoin="round" stroke-width="2" width="20" x="26" y="56"/>
  </g>
</svg>