<svg viewBox="0 0 72 72" xmlns="http://www.w3.org/2000/svg">
  <defs>
    <linearGradient id="yellow-gradient" x1="0%" x2="0%" y1="0%" y2="100%">
      <stop offset="0%" style="stop-color:#FDE02F;stop-opacity:1;"/>
      <stop offset="100%" style="stop-color:#F7B209;stop-opacity:1;"/>
    </linearGradient>
  </defs>
  <g id="color">
    <path d="M57.6,35.9c0-4.9,3.9-9.1,9.4-10.6v-5.2H5v5.5c4.9,1.7,8.4,5.7,8.4,10.3S9.9,44.6,5,46.3v5.5h62v-5.2 C61.6,45.1,57.6,40.9,57.6,35.9z" fill="#D22F27"/>
  </g>
  <g id="line">
    <path d="M57.1,35.6 c0-4.9,3.9-9.1,9.4-10.6v-5.2h-62v5.5c4.9,1.7,8.4,5.7,8.4,10.3s-3.5,8.6-8.4,10.3v5.5h62v-5.2C61.1,44.7,57.1,40.5,57.1,35.6z" fill="none" stroke="#000000" stroke-linejoin="round" stroke-miterlimit="10" stroke-width="2.2157"/>
    <rect fill="none" height="20" stroke="#000000" stroke-linejoin="round" stroke-miterlimit="10" stroke-width="2.0945" width="34" x="18.5" y="25"/>
  </g>
  <g id="color-foreground">
    <rect fill="none" height="20" stroke="#FFFFFF" stroke-linejoin="round" stroke-miterlimit="10" stroke-width="2.1" width="34" x="18.5" y="25"/>
  </g>
</svg>