<svg viewBox="10 10 52 52" xmlns="http://www.w3.org/2000/svg">
  <defs>
    <linearGradient id="yellow-gradient" x1="0%" x2="0%" y1="0%" y2="100%">
      <stop offset="0%" style="stop-color:#FDE02F;stop-opacity:1;"/>
      <stop offset="100%" style="stop-color:#F7B209;stop-opacity:1;"/>
    </linearGradient>
  </defs>
  <g id="color">
    <path d="M42.3923,24.6798L60,24.9369l0.1694-7.6202L12,16.8286v8.1083l20.3445-0.2571 c0.5527,0,1.6146,0.5054,1.6146,1.0576l-0.2315,20.9094c0,0.5527-2.9051,0.3328-3.4578,0.3328L12,46.6875V55l48-0.258v-7.7624 H39.8702c-0.5528,0-1.6399-0.4474-1.6399-1.0001l0.4195-20.7302C38.6498,24.6971,41.8395,24.6798,42.3923,24.6798z" fill="#D0CFCE" stroke="none"/>
    <rect fill="#FFFFFF" height="22.0427" stroke="none" width="21.7425" x="38.244" y="24.9369"/>
    <rect fill="#FFFFFF" height="22.0427" stroke="none" width="21.9508" x="12.0041" y="24.9369"/>
  </g>
  <g id="line">
    <rect fill="none" height="38" stroke="#000000" stroke-linecap="round" stroke-linejoin="round" stroke-miterlimit="10" stroke-width="2" width="48" x="12" y="17"/>
    <polyline fill="none" points="12,24.9369 33.9591,24.9369 33.9591,46.9796 12,46.9796" stroke="#000000" stroke-linecap="round" stroke-linejoin="round" stroke-miterlimit="10" stroke-width="2"/>
    <polyline fill="none" points="60,46.9796 38.2303,46.9796 38.2303,24.9369 60,24.9369" stroke="#000000" stroke-linecap="round" stroke-linejoin="round" stroke-miterlimit="10" stroke-width="2"/>
    <circle cx="18.0947" cy="20.908" fill="#000000" r="1.0794" stroke="none"/>
    <circle cx="24.0947" cy="20.908" fill="#000000" r="1.0794" stroke="none"/>
    <circle cx="30.0947" cy="20.908" fill="#000000" r="1.0794" stroke="none"/>
    <circle cx="36.0947" cy="20.908" fill="#000000" r="1.0794" stroke="none"/>
    <circle cx="42.0947" cy="20.908" fill="#000000" r="1.0794" stroke="none"/>
    <circle cx="48.0947" cy="20.908" fill="#000000" r="1.0794" stroke="none"/>
    <circle cx="54.0947" cy="20.908" fill="#000000" r="1.0794" stroke="none"/>
    <circle cx="18.0778" cy="51.0255" fill="#000000" r="1.0794" stroke="none"/>
    <circle cx="24.0778" cy="51.0255" fill="#000000" r="1.0794" stroke="none"/>
    <circle cx="30.0778" cy="51.0255" fill="#000000" r="1.0794" stroke="none"/>
    <circle cx="36.0778" cy="51.0255" fill="#000000" r="1.0794" stroke="none"/>
    <circle cx="42.0778" cy="51.0255" fill="#000000" r="1.0794" stroke="none"/>
    <circle cx="48.0778" cy="51.0255" fill="#000000" r="1.0794" stroke="none"/>
    <circle cx="54.0778" cy="51.0255" fill="#000000" r="1.0794" stroke="none"/>
  </g>
</svg>