<svg viewBox="0 0 72 72" xmlns="http://www.w3.org/2000/svg">
  <defs>
    <linearGradient id="yellow-gradient" x1="0%" x2="0%" y1="0%" y2="100%">
      <stop offset="0%" style="stop-color:#FDE02F;stop-opacity:1;"/>
      <stop offset="100%" style="stop-color:#F7B209;stop-opacity:1;"/>
    </linearGradient>
  </defs>
  <g id="color">
    <polygon fill="url(#yellow-gradient)" points="36,27.7371 41.2478,43.888 58.2299,43.888 44.4911,53.8699 49.7388,70.0208 36,60.039 22.2612,70.0208 27.5089,53.8699 13.7701,43.888 30.7522,43.888" stroke="none" stroke-linecap="round" stroke-linejoin="round" stroke-miterlimit="10" stroke-width="2"/>
    <polygon fill="#ea5a47" points="56,8.9792 56,2.0208 16,2.0208 16,8.9792 36,23.737" stroke="none" stroke-linecap="round" stroke-linejoin="round" stroke-miterlimit="10" stroke-width="2"/>
  </g>
  <g id="line">
    <polygon fill="none" points="36,27.7371 41.2478,43.888 58.2299,43.888 44.4911,53.8699 49.7388,70.0208 36,60.039 22.2612,70.0208 27.5089,53.8699 13.7701,43.888 30.7522,43.888" stroke="#000000" stroke-linecap="round" stroke-linejoin="round" stroke-miterlimit="10" stroke-width="2"/>
    <line fill="none" stroke="#000000" stroke-linecap="round" stroke-linejoin="round" stroke-miterlimit="10" stroke-width="2" x1="36" x2="36" y1="19.0643" y2="2.0208"/>
    <polygon fill="none" points="56,8.9792 56,2.0208 16,2.0208 16,8.9792 36,23.737" stroke="#000000" stroke-linecap="round" stroke-linejoin="round" stroke-miterlimit="10" stroke-width="2"/>
    <polygon fill="none" points="36,27.7371 41.2478,43.888 58.2299,43.888 44.4911,53.8699 49.7388,70.0208 36,60.039 22.2612,70.0208 27.5089,53.8699 13.7701,43.888 30.7522,43.888" stroke="#000000" stroke-linecap="round" stroke-linejoin="round" stroke-miterlimit="10" stroke-width="2"/>
    <line fill="none" stroke="#000000" stroke-linecap="round" stroke-linejoin="round" stroke-miterlimit="10" stroke-width="2" x1="36" x2="36" y1="19.0643" y2="2.0208"/>
    <polygon fill="none" points="56,8.9792 56,2.0208 16,2.0208 16,8.9792 36,23.737" stroke="#000000" stroke-linecap="round" stroke-linejoin="round" stroke-miterlimit="10" stroke-width="2"/>
  </g>
</svg>