<svg viewBox="10 10 52 52" xmlns="http://www.w3.org/2000/svg">
  <defs>
    <linearGradient id="yellow-gradient" x1="0%" x2="0%" y1="0%" y2="100%">
      <stop offset="0%" style="stop-color:#FDE02F;stop-opacity:1;"/>
      <stop offset="100%" style="stop-color:#F7B209;stop-opacity:1;"/>
    </linearGradient>
  </defs>
  <g id="color">
    <circle cx="15.7986" cy="30.9666" fill="#FFFFFF" r="1.5112" stroke="none"/>
    <path d="M16.5878,37.3974V54.97c0,1.1026,1.8975,3,3,3l33.6372,0.2321c1.1025,0,2.2763-2.1295,2.2763-3.2321 V37.3974H16.5878z" fill="#3F3F3F" stroke="none"/>
    <polygon fill="#3F3F3F" points="41.3736,12.9105 48.5254,16.5978 51.0755,15.6178 43.9229,11.9299" stroke="none"/>
    <polygon fill="#3F3F3F" points="39.9624,20.129 32.2753,16.158 29.5359,17.2084 37.2265,21.1804" stroke="none"/>
    <polygon fill="#3F3F3F" points="22.0853,20.0666 18.6391,21.7152 25.3257,25.7192 29.7098,24.0727" stroke="none"/>
    <polygon fill="#3F3F3F" points="29.2578,31.3147 25.6628,31.3147 20.5536,37.0496 24.1487,37.0496" stroke="none"/>
    <polygon fill="#3F3F3F" points="41.225,30.9669 38.3154,30.9669 32.5865,37.3974 35.4963,37.3974" stroke="none"/>
    <polygon fill="#3F3F3F" points="44.5865,37.3974 47.4963,37.3974 53.225,30.9669 50.3154,30.9669" stroke="none"/>
    <polygon fill="#FFFFFF" points="43.3309,36.9135 48.1979,31.4508 42.4806,31.4508 37.6136,36.9135" stroke="none"/>
    <polygon fill="#FFFFFF" points="49.6923,36.9903 55.0593,36.9903 55.0593,30.9664" stroke="none"/>
    <circle cx="15.7987" cy="30.9667" fill="#3F3F3F" r="2.5116" stroke="none"/>
    <path d="M16.5271,33.8909v3.3443h3.2915l5.4403-6.1061h-6.5834C18.3249,32.2981,17.5547,33.2765,16.5271,33.8909z" fill="#FFFFFF" stroke="none"/>
    <polygon fill="#FFFFFF" points="31.3297,36.9057 36.1827,31.4586 30.4818,31.4586 25.6288,36.9057" stroke="none"/>
    <polygon fill="#FFFFFF" points="45.9297,11.195 49.5767,13.0755 48.4776,10.216" stroke="none"/>
    <polygon fill="#FFFFFF" points="40.0134,13.3957 33.7331,15.8092 40.9335,19.5284 47.2216,17.1118" stroke="none"/>
    <polygon fill="#FFFFFF" points="28.4988,17.9523 23.065,20.0406 29.8998,23.6317 35.4015,21.5173" stroke="none"/>
    <path d="M17.5363,22.2109l-4.9559,1.9047l1.5446,4.0189c0.3313-0.0798,0.6724-0.1334,1.0278-0.1334 c0.658,0,1.2769,0.155,1.8383,0.4148c0.0521-0.0293,0.092-0.0728,0.1495-0.0949l6.9447-2.6689L17.5363,22.2109z" fill="#FFFFFF" stroke="none"/>
  </g>
  <g id="line">
    <polyline fill="none" points="17.7408,28.6434 51.0878,15.828 48.7808,9.8251 12.4573,23.7843 14.1948,28.3057" stroke="#000000" stroke-linecap="round" stroke-linejoin="round" stroke-miterlimit="10" stroke-width="2"/>
    <path d="M16.5878,37.3973v1.6856V54.97c0,1.6569,1.3431,3,3,3h32.9135c1.6569,0,3-1.3431,3-3V39.0829v-1.6855L16.5878,37.3973z" fill="none" stroke="#000000" stroke-linecap="round" stroke-linejoin="round" stroke-miterlimit="10" stroke-width="2"/>
    <polyline fill="none" points="18.8967,30.9664 55.5013,30.9664 55.5013,37.3974" stroke="#000000" stroke-linecap="round" stroke-linejoin="round" stroke-miterlimit="10" stroke-width="2"/>
    <line fill="none" stroke="#000000" stroke-linecap="round" stroke-linejoin="round" stroke-miterlimit="10" stroke-width="2" x1="16.5878" x2="16.5878" y1="37.0496" y2="33.9583"/>
    <polygon fill="none" points="19.6995,37.3974 24.3826,37.3974 30.1119,30.9664 25.4287,30.9664" stroke="#000000" stroke-linecap="round" stroke-linejoin="round" stroke-miterlimit="10" stroke-width="2"/>
    <polygon fill="none" points="31.6995,37.3974 36.3826,37.3974 42.1119,30.9664 37.4287,30.9664" stroke="#000000" stroke-linecap="round" stroke-linejoin="round" stroke-miterlimit="10" stroke-width="2"/>
    <polygon fill="none" points="43.6995,37.3974 48.3826,37.3974 54.1119,30.9664 49.4287,30.9664" stroke="#000000" stroke-linecap="round" stroke-linejoin="round" stroke-miterlimit="10" stroke-width="2"/>
    <circle cx="15.7985" cy="30.9664" fill="none" r="2.5115" stroke="#000000" stroke-linecap="round" stroke-linejoin="round" stroke-miterlimit="10" stroke-width="2"/>
    <polyline fill="none" points="47.8789,17.084 40.2235,13.137 44.5949,11.4566 50.5971,14.5514" stroke="#000000" stroke-linecap="round" stroke-linejoin="round" stroke-miterlimit="10" stroke-width="2"/>
    <polygon fill="none" points="40.7714,19.8114 36.399,21.4887 28.7464,17.5363 33.119,15.859" stroke="#000000" stroke-linecap="round" stroke-linejoin="round" stroke-miterlimit="10" stroke-width="2"/>
    <polygon fill="none" points="29.7098,24.0727 25.3257,25.7192 17.7011,21.7132 22.0853,20.0666" stroke="#000000" stroke-linecap="round" stroke-linejoin="round" stroke-miterlimit="10" stroke-width="2"/>
  </g>
</svg>