<svg viewBox="0 0 72 72" xmlns="http://www.w3.org/2000/svg">
  <defs>
    <linearGradient id="yellow-gradient" x1="0%" x2="0%" y1="0%" y2="100%">
      <stop offset="0%" style="stop-color:#FDE02F;stop-opacity:1;"/>
      <stop offset="100%" style="stop-color:#F7B209;stop-opacity:1;"/>
    </linearGradient>
  </defs>
  <g id="color">
    <polygon fill="url(#yellow-gradient)" points="55.5322,51.262 36.5117,52.262 17.4911,51.262 16.5877,32.3764 56,32.3764" stroke="none"/>
    <polygon fill="#3F3F3F" points="55.355,32.3764 54.6817,47.2519 55.8358,21.7542 55.9525,19.1777 56.5,7.0833 16.5,7.0833 18.3184,47.2519 17.645,32.3764" stroke="none" stroke-linecap="round" stroke-linejoin="round" stroke-miterlimit="10" stroke-width="2"/>
    <path d="M54.5,51.262c0,0-11.2908,1.7703-17.5,1.7703S18.5,51.262,18.5,51.262c-7.3129-1.1586-14-2.0756-14-0.04 c0,3.5608,14.3269,6.4474,32,6.4474s32-2.8866,32-6.4474C68.5,49.1864,61.8129,50.1034,54.5,51.262z" fill="#3F3F3F" stroke="none" stroke-linecap="round" stroke-linejoin="round" stroke-miterlimit="10" stroke-width="2"/>
  </g>
  <g id="line">
    <polygon fill="none" points="55.355,32.3764 54.6817,47.2519 55.8358,21.7542 55.9525,19.1777 56.5,7.0833 16.5,7.0833 18.3184,47.2519 17.645,32.3764" stroke="#000000" stroke-linecap="round" stroke-linejoin="round" stroke-miterlimit="10" stroke-width="2"/>
    <path d="M54.5,51.262c0,0-11.2908,1.7703-17.5,1.7703S18.5,51.262,18.5,51.262c-7.3129-1.1586-14-2.0756-14-0.04 c0,3.5608,14.3269,6.4474,32,6.4474s32-2.8866,32-6.4474C68.5,49.1864,61.8129,50.1034,54.5,51.262z" fill="none" stroke="#000000" stroke-linecap="round" stroke-linejoin="round" stroke-miterlimit="10" stroke-width="2"/>
  </g>
</svg>