<svg viewBox="5 5 62 62" xmlns="http://www.w3.org/2000/svg">
  <defs>
    <linearGradient id="yellow-gradient" x1="0%" x2="0%" y1="0%" y2="100%">
      <stop offset="0%" style="stop-color:#FDE02F;stop-opacity:1;"/>
      <stop offset="100%" style="stop-color:#F7B209;stop-opacity:1;"/>
    </linearGradient>
  </defs>
  <g id="line-supplement">
    <path d="M43.7,63.9c0.3-4.4,1.9-6.6,5.4-10.1c3.3-3.3,5.5-7.4,5.5-12.2c0-9.5-8.3-17.2-18.6-17.2s-18.6,7.7-18.6,17.2 c0,4.8,2.2,8.9,5.5,12.2c3.5,3.5,5.1,5.7,5.4,10.1" fill="none" stroke="#000000" stroke-linecap="round" stroke-linejoin="round" stroke-miterlimit="10" stroke-width="2"/>
  </g>
  <g id="color">
    <circle cx="36" cy="36" fill="url(#yellow-gradient)" r="29"/>
    <path d="M50.7,11c4.8,5.2,7.8,12.1,7.8,19.8c0,16-13,29-29,29c-5.4,0-10.4-1.5-14.7-4C20.1,61.4,27.7,65,36,65 c16,0,29-13,29-29C65,25.3,59.3,16,50.7,11z" fill="#F1B31C"/>
    <path d="M43.7,63.9c0.3-4.4,1.9-6.6,5.4-10.1c3.3-3.3,5.5-7.4,5.5-12.2c0-9.5-8.3-17.2-18.6-17.2s-18.6,7.7-18.6,17.2 c0,4.8,2.2,8.9,5.5,12.2c3.5,3.5,5.1,5.7,5.4,10.1" fill="none" stroke="#FFFFFF" stroke-linecap="round" stroke-linejoin="round" stroke-miterlimit="10" stroke-width="2"/>
  </g>
  <g id="line">
    <circle cx="36" cy="36" fill="none" r="29" stroke="#000000" stroke-linecap="round" stroke-linejoin="round" stroke-miterlimit="10" stroke-width="2"/>
  </g>
</svg>