<svg viewBox="12 12 48 48" xmlns="http://www.w3.org/2000/svg">
  <defs>
    <linearGradient id="yellow-gradient" x1="0%" x2="0%" y1="0%" y2="100%">
      <stop offset="0%" style="stop-color:#FDE02F;stop-opacity:1;"/>
      <stop offset="100%" style="stop-color:#F7B209;stop-opacity:1;"/>
    </linearGradient>
  </defs>
  <g id="color">
    <polygon fill="#D0CFCE" points="58.0936,22.6076 35.6729,27.8442 13.9289,22.2732 35.6729,17.4173"/>
    <polygon fill="#9B9B9A" points="58.2211,48.3473 36.0428,54.1045 35.6729,27.0042 58.1657,21.846"/>
    <polygon fill="#D0CFCE" points="13.9856,47.957 35.7027,54.1045 35.6729,27.8442 22.6497,24.6986 13.9832,22.2957"/>
  </g>
  <g id="line">
    <polyline fill="none" points="35.6352,54.0172 57.4698,48.7313 57.4698,21.7647 35.6167,26.5155 13.7667,21.7647 13.7667,48.7313 35.6013,54.0172 35.6013,30.3713" stroke="#000000" stroke-linecap="round" stroke-linejoin="round" stroke-miterlimit="10" stroke-width="2.069"/>
    <polyline fill="none" points="13.7667,21.7647 35.8082,16.4545 57.4698,21.7647" stroke="#000000" stroke-linecap="round" stroke-linejoin="round" stroke-miterlimit="10" stroke-width="2.069"/>
    <circle cx="21.2735" cy="32.9339" r="3"/>
    <circle cx="27.2446" cy="44.3761" r="3"/>
    <circle cx="41.767" cy="45.2211" r="3"/>
    <circle cx="46.8274" cy="38.0668" r="3"/>
    <circle cx="51.8878" cy="30.9124" r="3"/>
    <ellipse cx="35.8312" cy="21.1219" rx="4" ry="1.6191"/>
  </g>
</svg>