<svg viewBox="7 7 58 58" xmlns="http://www.w3.org/2000/svg">
  <defs>
    <linearGradient id="yellow-gradient" x1="0%" x2="0%" y1="0%" y2="100%">
      <stop offset="0%" style="stop-color:#FDE02F;stop-opacity:1;"/>
      <stop offset="100%" style="stop-color:#F7B209;stop-opacity:1;"/>
    </linearGradient>
  </defs>
  <g id="color">
    <path d="m12.08 19.86h44.95v32.27h-44.95z" fill="#fff" fill-rule="evenodd"/>
    <line fill="none" stroke="#9b9b9a" stroke-linecap="round" stroke-linejoin="round" stroke-width="2.305" x1="13.23" x2="55.87" y1="22.52" y2="22.52"/>
    <line fill="none" stroke="#9b9b9a" stroke-linecap="round" stroke-linejoin="round" stroke-width="2.305" x1="13.23" x2="55.87" y1="49.72" y2="49.72"/>
    <circle cx="63.48" cy="30.73" fill="#ea5a47" r="2.593"/>
    <path d="m64.51 28.18a2.59 2.59 0 0 1-3.579 3.579 2.592 2.592 0 1 0 3.579-3.579z" fill="#d22f27"/>
  </g>
  <g id="line">
    <line stroke="#000" stroke-linecap="round" stroke-linejoin="round" stroke-width="2.305" x1="13.23" x2="55.87" y1="19.86" y2="19.86"/>
    <line fill="none" stroke="#000" stroke-linecap="round" stroke-linejoin="round" stroke-width="2" x1="12.08" x2="12.08" y1="52.14" y2="19.86"/>
    <line fill="none" stroke="#000" stroke-linecap="round" stroke-linejoin="round" stroke-width="4.007" x1="55.95" x2="13.15" y1="52.14" y2="52.14"/>
    <line fill="none" stroke="#000" stroke-linecap="round" stroke-linejoin="round" stroke-width="4.007" x1="13.15" x2="55.95" y1="19.86" y2="19.86"/>
    <line fill="none" stroke="#000" stroke-linecap="round" stroke-linejoin="round" stroke-width="2" x1="27.06" x2="27.06" y1="19.86" y2="52.14"/>
    <line fill="none" stroke="#000" stroke-linecap="round" stroke-linejoin="round" stroke-width="2" x1="42.04" x2="42.04" y1="19.86" y2="52.14"/>
    <line fill="none" stroke="#000" stroke-linecap="round" stroke-linejoin="round" stroke-width="2" x1="57.02" x2="63.16" y1="47.42" y2="47.42"/>
    <line fill="none" stroke="#000" stroke-linecap="round" stroke-linejoin="round" stroke-width="2" x1="63.16" x2="63.16" y1="47.42" y2="34"/>
    <circle cx="63.16" cy="30.73" fill="none" r="2.593" stroke="#000" stroke-miterlimit="10" stroke-width="1.297"/>
    <polyline fill="none" points="17.3 35.69 17.3 33.7 21.84 33.7 19.03 41.77" stroke="#000" stroke-linecap="round" stroke-linejoin="round" stroke-width="2"/>
    <polyline fill="none" points="32.28 31.23 32.28 29.24 36.82 29.24 34.02 37.3" stroke="#000" stroke-linecap="round" stroke-linejoin="round" stroke-width="2"/>
    <polyline fill="none" points="47.26 35.69 47.26 33.7 51.8 33.7 49 41.77" stroke="#000" stroke-linecap="round" stroke-linejoin="round" stroke-width="2"/>
    <line fill="none" stroke="#000" stroke-linecap="round" stroke-linejoin="round" stroke-width="2" x1="57.02" x2="57.02" y1="19.86" y2="52.14"/>
  </g>
  <g id="color-foreground">
    <polyline fill="none" points="17.3 35.69 17.3 33.7 21.84 33.7 19.03 41.77" stroke="#d22f27" stroke-linecap="round" stroke-linejoin="round" stroke-width="2"/>
    <polyline fill="none" points="32.28 31.23 32.28 29.24 36.82 29.24 34.02 37.3" stroke="#d22f27" stroke-linecap="round" stroke-linejoin="round" stroke-width="2"/>
    <polyline fill="none" points="47.26 35.69 47.26 33.7 51.8 33.7 49 41.77" stroke="#d22f27" stroke-linecap="round" stroke-linejoin="round" stroke-width="2"/>
  </g>
</svg>