<svg viewBox="0 0 72 72" xmlns="http://www.w3.org/2000/svg">
  <defs>
    <linearGradient id="yellow-gradient" x1="0%" x2="0%" y1="0%" y2="100%">
      <stop offset="0%" style="stop-color:#FDE02F;stop-opacity:1;"/>
      <stop offset="100%" style="stop-color:#F7B209;stop-opacity:1;"/>
    </linearGradient>
  </defs>
  <g id="line-supplement">
    <line fill="none" stroke="#000000" stroke-linecap="round" stroke-linejoin="round" stroke-miterlimit="10" stroke-width="2" x1="36" x2="36" y1="4.2" y2="67.7"/>
    <line fill="none" stroke="#000000" stroke-linecap="round" stroke-linejoin="round" stroke-miterlimit="10" stroke-width="2" x1="38.9" x2="33.1" y1="35.9" y2="35.9"/>
    <line fill="none" stroke="#000000" stroke-linecap="round" stroke-linejoin="round" stroke-miterlimit="10" stroke-width="2" x1="38.9" x2="33.1" y1="30.9" y2="30.9"/>
    <line fill="none" stroke="#000000" stroke-linecap="round" stroke-linejoin="round" stroke-miterlimit="10" stroke-width="2" x1="38.9" x2="33.1" y1="40.9" y2="40.9"/>
    <line fill="none" stroke="#000000" stroke-linecap="round" stroke-linejoin="round" stroke-miterlimit="10" stroke-width="2" x1="25.6" x2="46.5" y1="58.6" y2="58.6"/>
    <line fill="none" stroke="#000000" stroke-linecap="round" stroke-linejoin="round" stroke-miterlimit="10" stroke-width="2" x1="23.6" x2="48.4" y1="16" y2="16"/>
  </g>
  <g id="color">
    <path d="M35.9,4c-11,6.4-18.3,18.3-18.3,31.9S25,61.5,36,67.9h0.1C47,61.5,54.4,49.6,54.4,36 C54.4,22.3,47,10.4,35.9,4" fill="#A57939"/>
    <path d="M41.7,8.1c5.8,7.9,9.2,18.8,7.4,29.1C47,48.9,39.6,58.4,29.9,63.5c1.9,1.7,3.9,3.2,6.1,4.5h0.1 c11-6.4,18.3-18.3,18.3-31.9C54.4,25.3,49.1,14.9,41.7,8.1z" fill="#6A462F"/>
    <line fill="none" stroke="#FFFFFF" stroke-linecap="round" stroke-linejoin="round" stroke-miterlimit="10" stroke-width="2" x1="36" x2="36" y1="4.2" y2="67.7"/>
    <line fill="none" stroke="#FFFFFF" stroke-linecap="round" stroke-linejoin="round" stroke-miterlimit="10" stroke-width="2" x1="38.9" x2="33.1" y1="35.9" y2="35.9"/>
    <line fill="none" stroke="#FFFFFF" stroke-linecap="round" stroke-linejoin="round" stroke-miterlimit="10" stroke-width="2" x1="38.9" x2="33.1" y1="30.9" y2="30.9"/>
    <line fill="none" stroke="#FFFFFF" stroke-linecap="round" stroke-linejoin="round" stroke-miterlimit="10" stroke-width="2" x1="38.9" x2="33.1" y1="40.9" y2="40.9"/>
    <line fill="none" stroke="#FFFFFF" stroke-linecap="round" stroke-linejoin="round" stroke-miterlimit="10" stroke-width="2" x1="25.6" x2="46.5" y1="58.6" y2="58.6"/>
    <line fill="none" stroke="#FFFFFF" stroke-linecap="round" stroke-linejoin="round" stroke-miterlimit="10" stroke-width="2" x1="23.6" x2="48.4" y1="16" y2="16"/>
  </g>
  <g id="line">
    <path d="M35.9,4c-11,6.4-18.3,18.3-18.3,31.9S25,61.5,36,67.9h0.1C47,61.5,54.4,49.6,54.4,36C54.4,22.3,47,10.4,35.9,4" fill="none" stroke="#000000" stroke-linecap="round" stroke-linejoin="round" stroke-miterlimit="10" stroke-width="2"/>
  </g>
</svg>