<svg viewBox="5 5 62 62" xmlns="http://www.w3.org/2000/svg">
  <defs>
    <linearGradient id="yellow-gradient" x1="0%" x2="0%" y1="0%" y2="100%">
      <stop offset="0%" style="stop-color:#FDE02F;stop-opacity:1;"/>
      <stop offset="100%" style="stop-color:#F7B209;stop-opacity:1;"/>
    </linearGradient>
  </defs>
  <g id="color">
    <circle cx="36" cy="36" fill="#F4AA41" r="29"/>
    <path d="M50.7,11c4.8,5.2,7.8,12.1,7.8,19.8c0,16-13,29-29,29c-5.4,0-10.4-1.5-14.7-4C20.1,61.4,27.7,65,36,65 c16,0,29-13,29-29C65,25.3,59.3,16,50.7,11z" fill="#E27022"/>
  </g>
  <g id="line">
    <line fill="none" stroke="#000000" stroke-linecap="round" stroke-linejoin="round" stroke-miterlimit="10" stroke-width="2" x1="7" x2="65" y1="36" y2="36"/>
    <line fill="none" stroke="#000000" stroke-linecap="round" stroke-linejoin="round" stroke-miterlimit="10" stroke-width="2" x1="36" x2="36" y1="7" y2="65"/>
    <path d="M55.2,57.7c-5.6-5.6-9-13.2-9-21.8c0-8.5,3.4-16.2,9-21.8" fill="none" stroke="#000000" stroke-linecap="round" stroke-linejoin="round" stroke-miterlimit="10" stroke-width="2"/>
    <path d="M16.9,14.2c5.6,5.6,9,13.3,9,21.8s-3.4,16.2-9,21.8" fill="none" stroke="#000000" stroke-linecap="round" stroke-linejoin="round" stroke-miterlimit="10" stroke-width="2"/>
    <circle cx="36" cy="36" fill="none" r="29" stroke="#000000" stroke-linecap="round" stroke-linejoin="round" stroke-miterlimit="10" stroke-width="2"/>
  </g>
</svg>