<svg viewBox="11 11 50 50" xmlns="http://www.w3.org/2000/svg">
  <defs>
    <linearGradient id="yellow-gradient" x1="0%" x2="0%" y1="0%" y2="100%">
      <stop offset="0%" style="stop-color:#FDE02F;stop-opacity:1;"/>
      <stop offset="100%" style="stop-color:#F7B209;stop-opacity:1;"/>
    </linearGradient>
  </defs>
  <g id="color">
    <rect fill="#FFFFFF" height="6.0019" stroke="none" width="6.0019" x="22.3576" y="17.2677"/>
    <polygon fill="#FFFFFF" points="28.3595,33.8934 22.3576,35.2734 22.3576,29.2715 28.3595,29.2715" stroke="none"/>
    <rect fill="#FFFFFF" height="6.0019" stroke="none" width="6.0019" x="28.3595" y="23.2696"/>
    <rect fill="#FFFFFF" height="6.0019" stroke="none" width="6.0019" x="34.3615" y="17.2677"/>
    <rect fill="#FFFFFF" height="2.2809" stroke="none" width="6.0019" x="28.3595" y="14.9868"/>
    <polygon fill="#FFFFFF" points="40.3634,35.2734 34.3615,33.822 34.3615,29.2715 40.3634,29.2715" stroke="none"/>
    <rect fill="#FFFFFF" height="6.0019" stroke="none" width="6.0019" x="40.3634" y="23.2696"/>
    <rect fill="#FFFFFF" height="3.001" stroke="none" width="6.0019" x="46.3653" y="20.2686"/>
    <rect fill="#FFFFFF" height="6.0019" stroke="none" width="6.0019" x="46.3653" y="29.2715"/>
    <rect fill="#FFFFFF" height="6.0019" stroke="none" width="1.7444" x="52.3672" y="23.2696"/>
    <rect fill="#FFFFFF" height="1.9308" stroke="none" width="6.0019" x="40.3634" y="35.2734"/>
    <rect fill="#FFFFFF" height="2.4038" stroke="none" width="2.1134" x="52.3672" y="35.2734"/>
  </g>
  <g id="line">
    <rect fill="#000000" height="6.0019" stroke="none" width="6.0019" x="22.3576" y="23.2696"/>
    <rect fill="#000000" height="6.0019" stroke="none" width="6.0019" x="28.3595" y="17.2677"/>
    <rect fill="#000000" height="5.1396" stroke="none" width="6.0019" x="28.3595" y="29.2715"/>
    <polygon fill="#000000" points="28.3595,17.2677 22.3576,17.2677 23.0418,16.6469 28.3595,16.0262" stroke="none"/>
    <polygon fill="#000000" points="40.3634,17.2677 34.3615,17.2677 34.3615,15.6486 40.3634,16.621" stroke="none"/>
    <rect fill="#000000" height="6.0019" stroke="none" width="6.0019" x="34.3615" y="23.2696"/>
    <polygon fill="#000000" points="46.3653,23.2696 40.3634,23.2696 40.3634,18.6459 46.3653,19.9674" stroke="none"/>
    <rect fill="#000000" height="6.0019" stroke="none" width="6.0019" x="40.3634" y="29.2715"/>
    <rect fill="#000000" height="6.0019" stroke="none" width="6.0019" x="46.3653" y="23.2696"/>
    <rect fill="#000000" height="2.9602" stroke="none" width="1.7444" x="52.3672" y="20.3094"/>
    <rect fill="#000000" height="6.0019" stroke="none" width="1.9094" x="52.3672" y="29.2715"/>
    <rect fill="#000000" height="3.4735" stroke="none" width="6.0019" x="46.3653" y="35.2734"/>
    <path d="M23.0844,17.488C25.9694,15.6897,31.5062,13.2554,37.5,16c3.689,1.6892,5.6344,4.6976,15.0405,4.1142 C53.3291,20.0653,54,20.7109,54,21.5248c0,3.3025,0,11.1393,0,15.1253c0,0.6226-0.4235,1.0771-0.9648,1.354 C51.0882,39,45.7637,38.939,37.5,35c-3.3653-1.6041-8.5703-2.5683-14.4582,1.4425" fill="none" stroke="#000000" stroke-linecap="round" stroke-linejoin="round" stroke-miterlimit="10" stroke-width="2"/>
    <line fill="none" stroke="#000000" stroke-linecap="round" stroke-miterlimit="10" stroke-width="2" x1="19.3271" x2="19.3271" y1="12.875" y2="59.8348"/>
  </g>
</svg>