<svg viewBox="12 12 48 48" xmlns="http://www.w3.org/2000/svg">
  <defs>
    <linearGradient id="yellow-gradient" x1="0%" x2="0%" y1="0%" y2="100%">
      <stop offset="0%" style="stop-color:#FDE02F;stop-opacity:1;"/>
      <stop offset="100%" style="stop-color:#F7B209;stop-opacity:1;"/>
    </linearGradient>
  </defs>
  <g id="color">
    <rect fill="#FFFFFF" height="25" width="35" x="18.5" y="31.5"/>
    <polygon fill="#EA5A47" points="28.5,22.0588 23.5,26.7647 23.5,17 28.5,17"/>
    <rect fill="#A57939" height="16" width="9" x="25.5" y="40"/>
    <polygon fill="#6A462F" points="37.45,40.3798 24.26,53.5698 21.34,50.6598 25.5,46.4998 32,39.9998 34.53,37.4698"/>
    <polygon fill="#9B9B9A" points="48,47 42.7924,47 40,47 40,40 42,40 48,40"/>
    <polygon fill="#92D3F5" points="42.7917,47 46,43 43,42 42,40 48,40 48,47"/>
    <polygon fill="#EA5A47" points="36,15 19,31 19,32.0003 53,32.0003 53,31 47,26 40,27 32,28 34,24 32,22 38.6,17.6"/>
  </g>
  <g id="line">
    <polygon fill="none" points="28.5,22.0588 23.5,26.7647 23.5,17 28.5,17" stroke="#000000" stroke-linecap="round" stroke-linejoin="round" stroke-miterlimit="10" stroke-width="2"/>
    <polygon fill="none" points="32,39.9998 25.5,46.4998 25.5,39.9998" stroke="#000000" stroke-linecap="round" stroke-linejoin="round" stroke-miterlimit="10" stroke-width="2"/>
    <polygon fill="none" points="34.5,43.3298 34.5,55.9998 25.5,55.9998 25.5,52.3298" stroke="#000000" stroke-linecap="round" stroke-linejoin="round" stroke-miterlimit="10" stroke-width="2"/>
    <polygon fill="none" points="48,47 42.7924,47 40,47 40,40 42,40 48,40" stroke="#000000" stroke-linecap="round" stroke-linejoin="round" stroke-miterlimit="10" stroke-width="2"/>
    <rect fill="none" height="4.122" stroke="#000000" stroke-linecap="round" stroke-linejoin="round" stroke-miterlimit="10" stroke-width="2" transform="matrix(0.7071 -0.7071 0.7071 0.7071 -23.5765 34.1179)" width="18.6558" x="20.0678" y="43.4573"/>
    <polygon fill="none" points="42.7917,47 46,43 43,42 42,40 48,40 48,47" stroke="#000000" stroke-linecap="round" stroke-linejoin="round" stroke-miterlimit="10" stroke-width="2"/>
    <line fill="none" stroke="#000000" stroke-linecap="round" stroke-linejoin="round" stroke-miterlimit="10" stroke-width="2" x1="42" x2="42" y1="22" y2="26"/>
    <line fill="none" stroke="#000000" stroke-linecap="round" stroke-linejoin="round" stroke-miterlimit="10" stroke-width="2" x1="45" x2="45" y1="25" y2="26"/>
    <line fill="none" stroke="#000000" stroke-linecap="round" stroke-linejoin="round" stroke-miterlimit="10" stroke-width="2" x1="39" x2="39" y1="19" y2="26"/>
    <polyline fill="none" points="40,19 36,15 19,31 19,32.0003 53,32.0003 53,31 47,26 40,27 32,28 34,24 32,22 38.6,17.6" stroke="#000000" stroke-linecap="round" stroke-linejoin="round" stroke-miterlimit="10" stroke-width="2"/>
    <line fill="none" stroke="#000000" stroke-linecap="round" stroke-linejoin="round" stroke-miterlimit="10" stroke-width="2" x1="36" x2="36" y1="20" y2="27"/>
    <rect fill="none" height="24" stroke="#000000" stroke-linecap="round" stroke-linejoin="round" stroke-miterlimit="10" stroke-width="2" width="34" x="19" y="32"/>
  </g>
</svg>