<svg viewBox="4 4 64 64" xmlns="http://www.w3.org/2000/svg">
  <defs>
    <linearGradient id="yellow-gradient" x1="0%" x2="0%" y1="0%" y2="100%">
      <stop offset="0%" style="stop-color:#FDE02F;stop-opacity:1;"/>
      <stop offset="100%" style="stop-color:#F7B209;stop-opacity:1;"/>
    </linearGradient>
  </defs>
  <g id="color">
    <polygon fill="#D0CFCE" points="66,34 62,49 10,49 6,34"/>
    <path d="M66,34c0-10.4934-19.5066-8-30-8S6,23.5066,6,34H66z" fill="#D0CFCE"/>
    <path d="M14,31c0-10.4934,15.704-6,22-6s22-4.4934,22,6H14z" fill="#D0CFCE"/>
    <path d="M25,33.5733c0-18.3823,8.4816-9.1724,11-9.1724c2.5184,0,12-9.2099,12,9.1724H25z" fill="#D0CFCE"/>
    <path d="M41,49c0-10.4934-2.9013-12-5-12s-5,1.5066-5,12H41z" fill="#92D3F5"/>
  </g>
  <g id="line">
    <path d="M66,33.9998l-4,15H41c0-10.49-2.9-12-5-12s-5,1.51-5,12H10l-4-15c0-4.88,4.23-6.95,9.81-7.78c2.31-2.16,6.51-2.36,10.68-2.08 c2.55-4.75,7.65,0.26,9.51,0.26c1.85,0,7.47-4.98,10.32-0.31c3.9-0.19,7.71,0.11,9.87,2.13C61.77,27.0497,66,29.1198,66,33.9998z" fill="none" stroke="#000000" stroke-linecap="round" stroke-linejoin="round" stroke-miterlimit="10" stroke-width="2"/>
    <line fill="none" stroke="#000000" stroke-linecap="round" stroke-linejoin="round" stroke-miterlimit="10" stroke-width="2" x1="41" x2="31" y1="48.9998" y2="48.9998"/>
    <path d="M58,30.9998c0-2.18-0.68-3.71-1.81-4.78" fill="none" stroke="#000000" stroke-linecap="round" stroke-linejoin="round" stroke-miterlimit="10" stroke-width="2"/>
    <path d="M15.81,26.2198c-1.13,1.07-1.81,2.6-1.81,4.78" fill="none" stroke="#000000" stroke-linecap="round" stroke-linejoin="round" stroke-miterlimit="10" stroke-width="2"/>
    <path d="M48,33.5698c0-3.54-0.35-6.06-0.94-7.82l-0.74-1.66" fill="none" stroke="#000000" stroke-linecap="round" stroke-linejoin="round" stroke-miterlimit="10" stroke-width="2"/>
    <path d="M26.49,24.1398l-0.64,1.61c-0.53,1.76-0.85,4.28-0.85,7.82" fill="none" stroke="#000000" stroke-linecap="round" stroke-linejoin="round" stroke-miterlimit="10" stroke-width="2"/>
    <path d="M13,48.9998v-6c0-0.55,0.45-1,1-1" fill="none" stroke="#000000" stroke-linecap="round" stroke-linejoin="round" stroke-miterlimit="10" stroke-width="2"/>
    <path d="M19,48.9998v-6c0-0.55,0.45-1,1-1" fill="none" stroke="#000000" stroke-linecap="round" stroke-linejoin="round" stroke-miterlimit="10" stroke-width="2"/>
    <path d="M25,48.9998v-6c0-0.55,0.45-1,1-1" fill="none" stroke="#000000" stroke-linecap="round" stroke-linejoin="round" stroke-miterlimit="10" stroke-width="2"/>
    <path d="M57,48.9998v-6c0-0.55,0.45-1,1-1" fill="none" stroke="#000000" stroke-linecap="round" stroke-linejoin="round" stroke-miterlimit="10" stroke-width="2"/>
    <path d="M51,48.9998v-6c0-0.55,0.45-1,1-1" fill="none" stroke="#000000" stroke-linecap="round" stroke-linejoin="round" stroke-miterlimit="10" stroke-width="2"/>
    <path d="M45,48.9998v-6c0-0.55,0.45-1,1-1" fill="none" stroke="#000000" stroke-linecap="round" stroke-linejoin="round" stroke-miterlimit="10" stroke-width="2"/>
    <path d="M41,48.9998H31c0-10.49,2.9-12,5-12S41,38.5098,41,48.9998z" fill="none" stroke="#000000" stroke-linecap="round" stroke-linejoin="round" stroke-miterlimit="10" stroke-width="2"/>
  </g>
</svg>