<svg viewBox="10 10 52 52" xmlns="http://www.w3.org/2000/svg">
  <defs>
    <linearGradient id="yellow-gradient" x1="0%" x2="0%" y1="0%" y2="100%">
      <stop offset="0%" style="stop-color:#FDE02F;stop-opacity:1;"/>
      <stop offset="100%" style="stop-color:#F7B209;stop-opacity:1;"/>
    </linearGradient>
  </defs>
  <g id="color">
    <path d="M53,46c0,0-0.8-10.9-1.1-11.5s-1-2.1-1.3-2.5l-1.8-3l-5.5-4.1l-3.9,4.9L38.6,32l3.4,2" fill="#3F3F3F"/>
    <path d="M22.2,29.8h8.5L41,32.5l9,6.5l3.4,9.1L60,56H12l4-7l2-12C18.5,34,22.2,29.8,22.2,29.8z" fill="#9B9B9A"/>
    <path d="M29,31c0,0-0.8,0.7-1.3,0.9C26,33,25.8,34.8,25,35c-1.3,0.4-0.9-2.7-3-3c-2-0.3-2.1,1.5-3,1 c-1.2-0.7-0.2-4.4,0-5c0.3-1.1,1.2-2.7,3-6c1.6-2.8,1.7-3.1,2-4c0.4-1.6,0.3-1.6,1-2c0.9-0.5,2.3,0.3,3,1c1,1,0.4,0.7,2,2 c1.3,1,1.5,0.8,3,2c0.3,0.2,1.1,0.9,2,2c0.6,0.7,1.4,1.6,2,3c0.7,1.5,0.4,1.7,1,3c0.9,1.9,2.2,2.6,2,3c-0.3,0.5-2.7-1-4,0 c-0.4,0.3-0.3,0.6-1,2c-0.8,1.7-1.2,3.6-2,4c-1.2,0.6-3-0.9-4-2C27.4,34.2,29,31,29,31z" fill="#FFFFFF"/>
    <path d="M44,23c0.8-0.8,1.9,1.3,3,3c0.9,1.4,2.4,3.2,2,4c-0.5,1-3,0.4-4,0c-0.3-0.2-0.4-0.3-1-1 c-1.3-1.5-1.7-1.4-2-2C41.4,25.7,43,24,44,23z" fill="#FFFFFF"/>
  </g>
  <g id="line">
    <polyline fill="none" points="60,55 53.4,48.1 50,39" stroke="#000000" stroke-linecap="round" stroke-linejoin="round" stroke-miterlimit="10" stroke-width="2"/>
    <polyline fill="none" points="19.4,33.1 18,37 16,49 12,55" stroke="#000000" stroke-linecap="round" stroke-linejoin="round" stroke-miterlimit="10" stroke-width="2"/>
    <polyline fill="none" points="40,32 50,39 49,45 50,50 48,52 45,55" stroke="#000000" stroke-linecap="round" stroke-linejoin="round" stroke-miterlimit="10" stroke-width="2"/>
    <line fill="none" stroke="#000000" stroke-linecap="round" stroke-linejoin="round" stroke-miterlimit="10" stroke-width="2" x1="48.7" x2="51" y1="30.3" y2="35"/>
    <line fill="none" stroke="#000000" stroke-linecap="round" stroke-linejoin="round" stroke-miterlimit="10" stroke-width="2" x1="41.2" x2="42.4" y1="29" y2="27.5"/>
    <path d="M29,31c0,0-0.8,0.7-1.3,0.9C26,33,25.8,34.8,25,35c-1.3,0.4-0.9-2.7-3-3c-2-0.3-2.1,1.5-3,1c-1.2-0.7-0.2-4.4,0-5 c0.3-1.1,1.2-2.7,3-6c1.6-2.8,1.7-3.1,2-4c0.4-1.6,0.3-1.6,1-2c0.9-0.5,2.3,0.3,3,1c1,1,0.4,0.7,2,2c1.3,1,1.5,0.8,3,2 c0.3,0.2,1.1,0.9,2,2c0.6,0.7,1.4,1.6,2,3c0.7,1.5,0.4,1.7,1,3c0.9,1.9,2.2,2.6,2,3c-0.3,0.5-2.7-1-4,0c-0.4,0.3-0.3,0.6-1,2 c-0.8,1.7-1.2,3.6-2,4c-1.2,0.6-3-0.9-4-2C27.4,34.2,29,31,29,31z" fill="none" stroke="#000000" stroke-linecap="round" stroke-linejoin="round" stroke-miterlimit="10" stroke-width="2"/>
    <path d="M44,23c0.8-0.8,1.9,1.3,3,3c0.9,1.4,2.4,3.2,2,4c-0.5,1-3,0.4-4,0c-0.3-0.2-0.4-0.3-1-1c-1.3-1.5-1.7-1.4-2-2 C41.4,25.7,43,24,44,23z" fill="none" stroke="#000000" stroke-linecap="round" stroke-linejoin="round" stroke-miterlimit="10" stroke-width="2"/>
  </g>
</svg>