<svg viewBox="12 12 48 48" xmlns="http://www.w3.org/2000/svg">
  <defs>
    <linearGradient id="yellow-gradient" x1="0%" x2="0%" y1="0%" y2="100%">
      <stop offset="0%" style="stop-color:#FDE02F;stop-opacity:1;"/>
      <stop offset="100%" style="stop-color:#F7B209;stop-opacity:1;"/>
    </linearGradient>
  </defs>
  <g id="color">
    <rect fill="#FFFFFF" height="16" stroke="none" width="23" x="14.5" y="41.5"/>
    <rect fill="#FFFFFF" height="16" stroke="none" width="23" x="33.61" y="26.9"/>
    <rect fill="#92D3F5" height="4" stroke="none" stroke-linecap="round" stroke-linejoin="round" stroke-miterlimit="10" stroke-width="2" width="5" x="48.5" y="32"/>
    <polygon fill="#EA5A47" points="57.5,27 34.5,27 34.5,25.5366 46,15 57.5,25.5366" stroke="none" stroke-linecap="round" stroke-linejoin="round" stroke-miterlimit="10" stroke-width="2"/>
    <polygon fill="#EA5A47" points="21,34.5811 17,38.246 17,32 21,32" stroke="none" stroke-linecap="round" stroke-linejoin="round" stroke-miterlimit="10" stroke-width="2"/>
    <polygon fill="#EA5A47" points="41,19.5811 37,23.246 37,17 41,17" stroke="none" stroke-linecap="round" stroke-linejoin="round" stroke-miterlimit="10" stroke-width="2"/>
    <rect fill="#A57939" height="9.9915" stroke="none" width="8" x="38" y="33"/>
    <rect fill="#A57939" height="10" stroke="none" stroke-linecap="round" stroke-linejoin="round" stroke-miterlimit="10" stroke-width="2" width="6" x="19" y="47"/>
    <rect fill="#92D3F5" height="4" stroke="none" stroke-linecap="round" stroke-linejoin="round" stroke-miterlimit="10" stroke-width="2" width="5" x="28.5" y="47"/>
    <polygon fill="#EA5A47" points="37.5,42 14.5,42.0003 14.5,40.5366 26,30 37.5,40.5366" stroke="none" stroke-linecap="round" stroke-linejoin="round" stroke-miterlimit="10" stroke-width="2"/>
  </g>
  <g id="line">
    <rect fill="none" height="4" stroke="#000000" stroke-linecap="round" stroke-linejoin="round" stroke-miterlimit="10" stroke-width="2" width="5" x="48.5" y="32"/>
    <polygon fill="none" points="57.5,27 34.5,27 34.5,25.5366 46,15 57.5,25.5366" stroke="#000000" stroke-linecap="round" stroke-linejoin="round" stroke-miterlimit="10" stroke-width="2"/>
    <polygon fill="none" points="21,34.5811 17,38.246 17,32 21,32" stroke="#000000" stroke-linecap="round" stroke-linejoin="round" stroke-miterlimit="10" stroke-width="2"/>
    <polygon fill="none" points="41,19.5811 37,23.246 37,17 41,17" stroke="#000000" stroke-linecap="round" stroke-linejoin="round" stroke-miterlimit="10" stroke-width="2"/>
    <polyline fill="none" points="34.5,33 34.5,27 34.5,25.5366 46,15 57.5,25.5366 57.5,27.0003 57.5,42 41.5,42" stroke="#000000" stroke-linecap="round" stroke-linejoin="round" stroke-miterlimit="10" stroke-width="2"/>
    <polyline fill="none" points="45,42 45,32 39,32 39,36.0882" stroke="#000000" stroke-linecap="round" stroke-linejoin="round" stroke-miterlimit="10" stroke-width="2"/>
    <rect fill="none" height="10" stroke="#000000" stroke-linecap="round" stroke-linejoin="round" stroke-miterlimit="10" stroke-width="2" width="6" x="19" y="47"/>
    <rect fill="none" height="4" stroke="#000000" stroke-linecap="round" stroke-linejoin="round" stroke-miterlimit="10" stroke-width="2" width="5" x="28.5" y="47"/>
    <polygon fill="none" points="37.5,42 14.5,42.0003 14.5,40.5366 26,30 37.5,40.5366" stroke="#000000" stroke-linecap="round" stroke-linejoin="round" stroke-miterlimit="10" stroke-width="2"/>
    <rect fill="none" height="14.9997" stroke="#000000" stroke-linecap="round" stroke-linejoin="round" stroke-miterlimit="10" stroke-width="2" width="23" x="14.5" y="42.0003"/>
  </g>
</svg>