<svg viewBox="0 0 72 72" xmlns="http://www.w3.org/2000/svg">
  <defs>
    <linearGradient id="yellow-gradient" x1="0%" x2="0%" y1="0%" y2="100%">
      <stop offset="0%" style="stop-color:#FDE02F;stop-opacity:1;"/>
      <stop offset="100%" style="stop-color:#F7B209;stop-opacity:1;"/>
    </linearGradient>
  </defs>
  <g id="color">
    <path d="M14.0839,33l31.4611,16.8688c0,0-8.6284,3.6312-19.2951-1.1188C26.25,48.75,17.3333,43.3333,14.0839,33z" fill="#a57939" stroke="none"/>
    <path d="M50.1114,48.3225c-0.1236,0.1086-0.2469,0.217-0.3769,0.3162 c-4.8051,3.6711-12.1026,3.2038-18.6455,1.6809l-0.0783-0.0091c0,0-1.1392-0.1871-1.6246,0.8975l-6.9608-3.7043 c0.6236-1.0115-0.113-1.7932-0.113-1.7932l-0.0365-0.0382c-7.2736-6.6788-10.9673-14.9122-5.7359-24.7998 C22.6383,9.3458,34.4924-0.9163,48.5632,6.5283c11.3007,5.9789,13.3979,16.7366,10.5849,26.4292 C59.1482,32.9575,56.6567,42.568,50.1114,48.3225z" fill="#EA5A47" stroke="none"/>
    <line fill="#EA5A47" stroke="none" x1="45.5451" x2="14.4533" y1="49.8688" y2="33.4189"/>
    <path d="M21.8392,70.1686l4.099-8.886l7.7953-17.6631l-6.5343-3.4572L16.9616,56.5333l-4.6434,7.3673 c-0.2881,0.4836-0.2898,0.7463-0.2181,1.1494l0,0c0.0742,0.4167,0.4308,0.8499,0.9015,1.2571c0,0,1.3685,1.4157,4.1297,2.6315 C17.1313,68.9387,21.1333,70.8118,21.8392,70.1686z" fill="#A57939" stroke="none"/>
    <circle cx="54.8215" cy="40.8811" fill="#FFFFFF" r="5" stroke="none" stroke-linecap="round" stroke-linejoin="round" stroke-miterlimit="10" stroke-width="2"/>
  </g>
  <g id="line">
    <path d="M29.3861,51.208c0.4854-1.0846,1.6246-0.8975,1.6246-0.8975l0.0783,0.0091c6.7209,1.5643,13.0483,1.2476,18.0324-2.4671" fill="none" stroke="#000000" stroke-linecap="round" stroke-linejoin="round" stroke-miterlimit="10" stroke-width="2"/>
    <path d="M22.4252,47.5037c0.6236-1.0115-0.113-1.7932-0.113-1.7932l-0.0365-0.0382c-7.2736-6.6788-10.9673-14.9122-5.7359-24.7998 C22.6383,9.3458,34.4924-0.9163,48.5632,6.5283c11.3007,5.9789,12.4779,16.3166,9.6649,26.0092" fill="none" stroke="#000000" stroke-linecap="round" stroke-linejoin="round" stroke-miterlimit="10" stroke-width="2"/>
    <line fill="none" stroke="#000000" stroke-linecap="round" stroke-linejoin="round" stroke-miterlimit="10" stroke-width="2" x1="45.5451" x2="14.4533" y1="49.8688" y2="33.4189"/>
    <path d="M21.3523,69.3163l3.9927-9.0477l7.6176-17.0568l-5.9312-3.138l-9.8345,15.8839l-4.4591,7.1491 c-0.2774,0.4689-0.2854,0.7197-0.2294,1.1028v0c0.0579,0.396,0.3755,0.8007,0.7988,1.1777c0,0,1.6564,1.5208,4.1689,2.6128" fill="none" stroke="#000000" stroke-linecap="round" stroke-linejoin="round" stroke-miterlimit="10" stroke-width="2"/>
    <circle cx="54.8215" cy="40.8811" fill="none" r="5" stroke="#000000" stroke-linecap="round" stroke-linejoin="round" stroke-miterlimit="10" stroke-width="2"/>
  </g>
</svg>