<svg viewBox="10 10 52 52" xmlns="http://www.w3.org/2000/svg">
  <defs>
    <linearGradient id="yellow-gradient" x1="0%" x2="0%" y1="0%" y2="100%">
      <stop offset="0%" style="stop-color:#FDE02F;stop-opacity:1;"/>
      <stop offset="100%" style="stop-color:#F7B209;stop-opacity:1;"/>
    </linearGradient>
  </defs>
  <g id="color">
    <rect fill="#9B9B9A" height="34" width="40" x="16" y="26"/>
    <rect fill="#D0CFCE" height="4" width="44" x="14" y="22"/>
    <polyline fill="#FFFFFF" points="19.5,26 21.5525,26 21.5525,60 19.5,60"/>
    <polyline fill="#FFFFFF" points="24.9331,26 26.9708,26 26.9708,60 24.9331,60"/>
    <polyline fill="#FFFFFF" points="47.0669,60 45.0177,60 45.0177,26 47.0669,26"/>
    <polyline fill="#FFFFFF" points="52.5,60 50.4816,60 50.4816,26 52.5,26"/>
    <polygon fill="#D0CFCE" points="36,12 19,22 53,22"/>
    <rect fill="#92D3F5" height="10" width="9" x="31.5" y="50"/>
    <circle cx="36" cy="35" fill="url(#yellow-gradient)" r="5"/>
    <path d="M36.9482,34.2622 c-0.0977-0.3803-0.5204-0.6665-1.0269-0.6665l0,0c-0.5789,0-1.0483,0.3737-1.0483,0.8347c0,0.461,0.4693,0.8347,1.0483,0.8347 L35.9,35.2682c0.5789,0,1.0483,0.3737,1.0483,0.8347c0,0.461-0.4693,0.8347-1.0483,0.8347l0,0 c-0.5066,0-0.9293-0.2861-1.027-0.6665" fill="none" stroke="#F4AA41" stroke-linecap="round" stroke-linejoin="round" stroke-miterlimit="10"/>
    <line fill="none" stroke="#F4AA41" stroke-linecap="round" stroke-linejoin="round" stroke-miterlimit="10" x1="35.9106" x2="35.9106" y1="33.5958" y2="32.8"/>
    <line fill="none" stroke="#F4AA41" stroke-linecap="round" stroke-linejoin="round" stroke-miterlimit="10" x1="35.9106" x2="35.9106" y1="37.7333" y2="36.9375"/>
  </g>
  <g id="line">
    <rect fill="none" height="34" stroke="#000000" stroke-linecap="round" stroke-linejoin="round" stroke-miterlimit="10" stroke-width="2" width="40" x="16" y="26"/>
    <rect fill="none" height="4" stroke="#000000" stroke-linecap="round" stroke-linejoin="round" stroke-miterlimit="10" stroke-width="2" width="44" x="14" y="22"/>
    <polyline fill="none" points="19.5,26 22.5,26 22.5,60 19.5,60" stroke="#000000" stroke-linecap="round" stroke-linejoin="round" stroke-miterlimit="10" stroke-width="2"/>
    <polyline fill="none" points="24.9331,26 27.9331,26 27.9331,60 24.9331,60" stroke="#000000" stroke-linecap="round" stroke-linejoin="round" stroke-miterlimit="10" stroke-width="2"/>
    <polyline fill="none" points="47.0669,60 44.0669,60 44.0669,26 47.0669,26" stroke="#000000" stroke-linecap="round" stroke-linejoin="round" stroke-miterlimit="10" stroke-width="2"/>
    <polyline fill="none" points="52.5,60 49.5,60 49.5,26 52.5,26" stroke="#000000" stroke-linecap="round" stroke-linejoin="round" stroke-miterlimit="10" stroke-width="2"/>
    <polygon fill="none" points="36,12 19,21.7491 53,21.7491" stroke="#000000" stroke-linecap="round" stroke-linejoin="round" stroke-miterlimit="10" stroke-width="2"/>
    <rect fill="none" height="10" stroke="#000000" stroke-linecap="round" stroke-linejoin="round" stroke-miterlimit="10" stroke-width="2" width="9" x="31.5" y="50"/>
    <line fill="none" stroke="#000000" stroke-linecap="round" stroke-linejoin="round" stroke-miterlimit="10" stroke-width="2" x1="36" x2="36" y1="60" y2="50"/>
    <circle cx="36" cy="35" fill="none" r="5" stroke="#000000" stroke-miterlimit="10" stroke-width="2"/>
    <path d="M36.9482,34.2622 c-0.0977-0.3803-0.5204-0.6665-1.0269-0.6665l0,0c-0.5789,0-1.0483,0.3737-1.0483,0.8347c0,0.461,0.4693,0.8347,1.0483,0.8347 L35.9,35.2682c0.5789,0,1.0483,0.3737,1.0483,0.8347c0,0.461-0.4693,0.8347-1.0483,0.8347l0,0 c-0.5066,0-0.9293-0.2861-1.027-0.6665" fill="none" stroke="#000000" stroke-linecap="round" stroke-linejoin="round" stroke-miterlimit="10"/>
    <line fill="none" stroke="#000000" stroke-linecap="round" stroke-linejoin="round" stroke-miterlimit="10" x1="35.9106" x2="35.9106" y1="33.5958" y2="32.8"/>
    <line fill="none" stroke="#000000" stroke-linecap="round" stroke-linejoin="round" stroke-miterlimit="10" x1="35.9106" x2="35.9106" y1="37.7333" y2="36.9375"/>
  </g>
</svg>