<svg viewBox="8 8 56 56" xmlns="http://www.w3.org/2000/svg">
  <defs>
    <linearGradient id="yellow-gradient" x1="0%" x2="0%" y1="0%" y2="100%">
      <stop offset="0%" style="stop-color:#FDE02F;stop-opacity:1;"/>
      <stop offset="100%" style="stop-color:#F7B209;stop-opacity:1;"/>
    </linearGradient>
  </defs>
  <g id="color">
    <rect fill="#EA5A47" height="17" stroke="none" stroke-linecap="round" stroke-linejoin="round" stroke-miterlimit="10" stroke-width="2" width="53" x="9.5" y="38"/>
    <rect fill="#D0CFCE" height="12" stroke="none" stroke-linecap="round" stroke-linejoin="round" stroke-miterlimit="10" stroke-width="2" width="13" x="14.5" y="43"/>
    <rect fill="#92D3F5" height="5" stroke="none" stroke-linecap="round" stroke-linejoin="round" stroke-miterlimit="10" stroke-width="2" width="5" x="32.5" y="43"/>
    <rect fill="#92D3F5" height="5" stroke="none" stroke-linecap="round" stroke-linejoin="round" stroke-miterlimit="10" stroke-width="2" width="5" x="37.5" y="43"/>
    <rect fill="#92D3F5" height="5" stroke="none" stroke-linecap="round" stroke-linejoin="round" stroke-miterlimit="10" stroke-width="2" width="5" x="42.5" y="43"/>
    <rect fill="#92D3F5" height="5" stroke="none" stroke-linecap="round" stroke-linejoin="round" stroke-miterlimit="10" stroke-width="2" width="5" x="47.5" y="43"/>
    <rect fill="#92D3F5" height="5" stroke="none" stroke-linecap="round" stroke-linejoin="round" stroke-miterlimit="10" stroke-width="2" width="5" x="52.5" y="43"/>
    <polygon fill="#3F3F3F" points="56,38 50,38 51,22 55,22" stroke="none" stroke-linecap="round" stroke-linejoin="round" stroke-miterlimit="10" stroke-width="2"/>
    <polygon fill="#D0CFCE" points="14.4968,31 14.5017,38 24.4968,38" stroke="none" stroke-linecap="round" stroke-linejoin="round" stroke-miterlimit="10" stroke-width="2"/>
    <polygon fill="#D0CFCE" points="25,31 25.0049,38 35,38" stroke="none" stroke-linecap="round" stroke-linejoin="round" stroke-miterlimit="10" stroke-width="2"/>
    <polygon fill="#D0CFCE" points="35,31 35.0049,38 45,38" stroke="none" stroke-linecap="round" stroke-linejoin="round" stroke-miterlimit="10" stroke-width="2"/>
  </g>
  <g id="line">
    <rect fill="none" height="17" stroke="#000000" stroke-linecap="round" stroke-linejoin="round" stroke-miterlimit="10" stroke-width="2" width="53" x="9.5" y="38"/>
    <rect fill="none" height="12" stroke="#000000" stroke-linecap="round" stroke-linejoin="round" stroke-miterlimit="10" stroke-width="2" width="13" x="14.5" y="43"/>
    <line fill="none" stroke="#000000" stroke-linecap="round" stroke-linejoin="round" stroke-miterlimit="10" stroke-width="2" x1="14.5" x2="27.5" y1="47" y2="47"/>
    <line fill="none" stroke="#000000" stroke-linecap="round" stroke-linejoin="round" stroke-miterlimit="10" stroke-width="2" x1="14.5" x2="27.5" y1="51" y2="51"/>
    <rect fill="none" height="5" stroke="#000000" stroke-linecap="round" stroke-linejoin="round" stroke-miterlimit="10" stroke-width="2" width="5" x="32.5" y="43"/>
    <rect fill="none" height="5" stroke="#000000" stroke-linecap="round" stroke-linejoin="round" stroke-miterlimit="10" stroke-width="2" width="5" x="37.5" y="43"/>
    <rect fill="none" height="5" stroke="#000000" stroke-linecap="round" stroke-linejoin="round" stroke-miterlimit="10" stroke-width="2" width="5" x="42.5" y="43"/>
    <rect fill="none" height="5" stroke="#000000" stroke-linecap="round" stroke-linejoin="round" stroke-miterlimit="10" stroke-width="2" width="5" x="47.5" y="43"/>
    <rect fill="none" height="5" stroke="#000000" stroke-linecap="round" stroke-linejoin="round" stroke-miterlimit="10" stroke-width="2" width="5" x="52.5" y="43"/>
    <polygon fill="none" points="56,38 50,38 51,22 55,22" stroke="#000000" stroke-linecap="round" stroke-linejoin="round" stroke-miterlimit="10" stroke-width="2"/>
    <polygon fill="none" points="14.4968,31 14.5017,38 24.4968,38" stroke="#000000" stroke-linecap="round" stroke-linejoin="round" stroke-miterlimit="10" stroke-width="2"/>
    <polygon fill="none" points="25,31 25.0049,38 35,38" stroke="#000000" stroke-linecap="round" stroke-linejoin="round" stroke-miterlimit="10" stroke-width="2"/>
    <polygon fill="none" points="35,31 35.0049,38 45,38" stroke="#000000" stroke-linecap="round" stroke-linejoin="round" stroke-miterlimit="10" stroke-width="2"/>
    <path d="M54,19 c0.0435-1.9564-0.3252-4.0019-2.0786-5.5659c-1.4875-1.3268-3.042-1.0494-5.6192-2.1035C44.7835,10.7094,45,7,42.0854,5.4809" fill="none" stroke="#000000" stroke-linecap="round" stroke-miterlimit="10" stroke-width="2"/>
    <path d="M51,19 c-0.6452-1.8475-0.8095-3.15-3-4c-1.8583-0.7211-6,0-7-2" fill="none" stroke="#000000" stroke-linecap="round" stroke-miterlimit="10" stroke-width="2"/>
  </g>
</svg>