<svg viewBox="11 11 50 50" xmlns="http://www.w3.org/2000/svg">
  <defs>
    <linearGradient id="yellow-gradient" x1="0%" x2="0%" y1="0%" y2="100%">
      <stop offset="0%" style="stop-color:#FDE02F;stop-opacity:1;"/>
      <stop offset="100%" style="stop-color:#F7B209;stop-opacity:1;"/>
    </linearGradient>
  </defs>
  <g id="color">
    <rect fill="#d0cfce" height="46" width="46" x="13" y="14"/>
    <circle cx="37" cy="37" fill="url(#yellow-gradient)" r="6"/>
    <rect fill="#92d3f5" height="10" width="13" x="29.5" y="50"/>
    <rect fill="none" height="5" stroke="#92d3f5" stroke-linecap="round" stroke-linejoin="round" stroke-width="2" width="2" x="51" y="30"/>
    <rect fill="none" height="5" stroke="#92d3f5" stroke-linecap="round" stroke-linejoin="round" stroke-width="2" width="2" x="51" y="20"/>
    <rect fill="none" height="5" stroke="#92d3f5" stroke-linecap="round" stroke-linejoin="round" stroke-width="2" width="2" x="35" y="20"/>
    <rect fill="none" height="5" stroke="#92d3f5" stroke-linecap="round" stroke-linejoin="round" stroke-width="2" width="2" x="43" y="20"/>
    <rect fill="none" height="5" stroke="#92d3f5" stroke-linecap="round" stroke-linejoin="round" stroke-width="2" width="2" x="27" y="20"/>
    <rect fill="none" height="5" stroke="#92d3f5" stroke-linecap="round" stroke-linejoin="round" stroke-width="2" width="2" x="51" y="40"/>
    <rect fill="none" height="5" stroke="#92d3f5" stroke-linecap="round" stroke-linejoin="round" stroke-width="2" width="2" x="51" y="50"/>
    <rect fill="none" height="5" stroke="#92d3f5" stroke-linecap="round" stroke-linejoin="round" stroke-width="2" width="2" x="19" y="30"/>
    <rect fill="none" height="5" stroke="#92d3f5" stroke-linecap="round" stroke-linejoin="round" stroke-width="2" width="2" x="19" y="20"/>
    <rect fill="none" height="5" stroke="#92d3f5" stroke-linecap="round" stroke-linejoin="round" stroke-width="2" width="2" x="19" y="40"/>
    <rect fill="none" height="5" stroke="#92d3f5" stroke-linecap="round" stroke-linejoin="round" stroke-width="2" width="2" x="19" y="50"/>
    <circle cx="37" cy="37" fill="#d0cfce" r="3"/>
    <polygon fill="url(#yellow-gradient)" points="31 34.5 26.7 38.8 32 41 33 40 31 34.5"/>
    <polygon fill="url(#yellow-gradient)" points="47 37 43 41 41 39 44.9 35 47 37"/>
    <path d="M43,41a8.89,8.89,0,0,1-6,2,8.89,8.89,0,0,1-6-2l2-2a10.7183,10.7183,0,0,0,4,1,10.7183,10.7183,0,0,0,4-1Z" fill="url(#yellow-gradient)"/>
  </g>
  <g id="line">
    <rect fill="none" height="46" stroke="#000" stroke-linecap="round" stroke-linejoin="round" stroke-width="2" width="46" x="13" y="14"/>
    <path d="M43,36.9,41,39a11.1844,11.1844,0,0,1-3.8,1,3,3,0,1,0-.4,0A9.2887,9.2887,0,0,1,33,39l-.3.3-1.5-4A6.027,6.027,0,0,1,43,36.9Z" fill="none" stroke="#000" stroke-linecap="round" stroke-linejoin="round" stroke-width="2"/>
    <rect fill="none" height="10" stroke="#000" stroke-linecap="round" stroke-linejoin="round" stroke-width="2" width="13" x="29.5" y="50"/>
    <line fill="none" stroke="#000" stroke-linecap="round" stroke-linejoin="round" stroke-width="2" x1="36" x2="36" y1="60" y2="50"/>
    <polygon fill="none" points="32.7 39.3 31.3 40.7 26.7 38.8 31 34.5 31.2 35.3 32.7 39.3" stroke="#000" stroke-linecap="round" stroke-linejoin="round" stroke-width="2"/>
    <polygon fill="none" points="47 37 43 41 41 39 43 36.9 44.9 35 47 37" stroke="#000" stroke-linecap="round" stroke-linejoin="round" stroke-width="2"/>
    <path d="M43,41a8.8127,8.8127,0,0,1-5.5,2h-.9A8.8792,8.8792,0,0,1,31,41l2-2a11.1844,11.1844,0,0,0,3.8,1h.4A9.2887,9.2887,0,0,0,41,39Z" fill="none" stroke="#000" stroke-linecap="round" stroke-linejoin="round" stroke-width="2"/>
    <polyline fill="none" points="21 25 19 25 19 20" stroke="#000" stroke-linecap="round" stroke-linejoin="round" stroke-width="2"/>
    <polyline fill="none" points="53 35 51 35 51 30" stroke="#000" stroke-linecap="round" stroke-linejoin="round" stroke-width="2"/>
    <polyline fill="none" points="45 25 43 25 43 20" stroke="#000" stroke-linecap="round" stroke-linejoin="round" stroke-width="2"/>
    <polyline fill="none" points="53 25 51 25 51 20" stroke="#000" stroke-linecap="round" stroke-linejoin="round" stroke-width="2"/>
    <polyline fill="none" points="37 25 35 25 35 20" stroke="#000" stroke-linecap="round" stroke-linejoin="round" stroke-width="2"/>
    <polyline fill="none" points="29 25 27 25 27 20" stroke="#000" stroke-linecap="round" stroke-linejoin="round" stroke-width="2"/>
    <polyline fill="none" points="21 35 19 35 19 30" stroke="#000" stroke-linecap="round" stroke-linejoin="round" stroke-width="2"/>
    <polyline fill="none" points="21 45 19 45 19 40" stroke="#000" stroke-linecap="round" stroke-linejoin="round" stroke-width="2"/>
    <polyline fill="none" points="53 45 51 45 51 40" stroke="#000" stroke-linecap="round" stroke-linejoin="round" stroke-width="2"/>
    <polyline fill="none" points="53 55 51 55 51 50" stroke="#000" stroke-linecap="round" stroke-linejoin="round" stroke-width="2"/>
    <polyline fill="none" points="21 55 19 55 19 50" stroke="#000" stroke-linecap="round" stroke-linejoin="round" stroke-width="2"/>
  </g>
</svg>