<svg viewBox="11 11 50 50" xmlns="http://www.w3.org/2000/svg">
  <defs>
    <linearGradient id="yellow-gradient" x1="0%" x2="0%" y1="0%" y2="100%">
      <stop offset="0%" style="stop-color:#FDE02F;stop-opacity:1;"/>
      <stop offset="100%" style="stop-color:#F7B209;stop-opacity:1;"/>
    </linearGradient>
  </defs>
  <g id="line-supplement">
    <g>
      <polyline fill="none" points="20.071 27.98 24.541 18.066 29.01 27.98" stroke="#000" stroke-linecap="round" stroke-linejoin="round" stroke-width="2"/>
      <line fill="none" stroke="#000" stroke-linecap="round" stroke-linejoin="round" stroke-width="2" x1="21.1945" x2="27.7593" y1="25.5309" y2="25.5309"/>
    </g>
    <line fill="none" stroke="#000" stroke-linecap="round" stroke-linejoin="round" stroke-width="2" x1="34.5559" x2="34.5559" y1="18.0657" y2="27.9796"/>
    <line fill="none" stroke="#000" stroke-linecap="round" stroke-linejoin="round" stroke-width="2" x1="31.1833" x2="37.9285" y1="18.0657" y2="18.0657"/>
    <polyline fill="none" points="42.575 28.002 42.575 18.044 46.809 26.937 51.278 18.044 51.278 28.002" stroke="#000" stroke-linecap="round" stroke-linejoin="round" stroke-width="2"/>
  </g>
  <g id="color">
    <rect fill="#3f3f3f" height="45.0417" width="40" x="16" y="13.4375"/>
    <g>
      <polyline fill="none" points="20.071 27.98 24.541 18.066 29.01 27.98" stroke="#fff" stroke-linecap="round" stroke-linejoin="round" stroke-width="2"/>
      <line fill="none" stroke="#fff" stroke-linecap="round" stroke-linejoin="round" stroke-width="2" x1="21.1945" x2="27.7593" y1="25.5309" y2="25.5309"/>
    </g>
    <line fill="none" stroke="#fff" stroke-linecap="round" stroke-linejoin="round" stroke-width="2" x1="34.5559" x2="34.5559" y1="18.0657" y2="27.9796"/>
    <line fill="none" stroke="#fff" stroke-linecap="round" stroke-linejoin="round" stroke-width="2" x1="31.1833" x2="37.9285" y1="18.0657" y2="18.0657"/>
    <polyline fill="none" points="42.575 28.002 42.575 18.044 46.809 26.937 51.278 18.044 51.278 28.002" stroke="#fff" stroke-linecap="round" stroke-linejoin="round" stroke-width="2"/>
    <rect fill="#d0cfce" height="13.8874" width="15.1255" x="19.4258" y="33.6381"/>
    <rect fill="#b1cc33" height="3.5422" width="32.4976" x="19.4258" y="51.1472"/>
    <path d="M43.2372,39.7711H38.1044a.9994.9994,0,0,1-1-1V33.6383a1,1,0,0,1,1-1h5.1328a1,1,0,0,1,1,1v5.1328A.9993.9993,0,0,1,43.2372,39.7711Z" fill="#d0cfce"/>
    <path d="M51.9238,39.7711H46.791a.9993.9993,0,0,1-1-1V33.6383a1,1,0,0,1,1-1h5.1328a1,1,0,0,1,1,1v5.1328A.9994.9994,0,0,1,51.9238,39.7711Z" fill="#d0cfce"/>
    <path d="M43.2372,48.5287H38.1044a1,1,0,0,1-1-1V42.3958a1,1,0,0,1,1-1h5.1328a1,1,0,0,1,1,1v5.1329A.9994.9994,0,0,1,43.2372,48.5287Z" fill="#d0cfce"/>
    <path d="M51.9238,48.5287H46.791a.9994.9994,0,0,1-1-1V42.3958a1,1,0,0,1,1-1h5.1328a1,1,0,0,1,1,1v5.1329A1,1,0,0,1,51.9238,48.5287Z" fill="#d0cfce"/>
  </g>
  <g id="line">
    <rect fill="none" height="45.0417" stroke="#000" stroke-linecap="round" stroke-linejoin="round" stroke-width="2.1223" width="40" x="16" y="13.4375"/>
    <rect fill="none" height="13.8874" stroke="#000" stroke-linecap="round" stroke-linejoin="round" stroke-width="2" width="15.1255" x="19.4258" y="33.6381"/>
    <polyline fill="none" points="19.426 53.723 19.426 51.147 51.923 51.147 51.923 53.723" stroke="#000" stroke-linecap="round" stroke-linejoin="round" stroke-width="2"/>
    <polyline fill="none" points="38.104 38.771 38.104 33.638 43.237 33.638" stroke="#000" stroke-linecap="round" stroke-linejoin="round" stroke-width="2"/>
    <polyline fill="none" points="46.79 38.771 46.79 33.638 51.923 33.638" stroke="#000" stroke-linecap="round" stroke-linejoin="round" stroke-width="2"/>
    <polyline fill="none" points="38.104 47.529 38.104 42.396 43.237 42.396" stroke="#000" stroke-linecap="round" stroke-linejoin="round" stroke-width="2"/>
    <polyline fill="none" points="46.79 47.529 46.79 42.396 51.923 42.396" stroke="#000" stroke-linecap="round" stroke-linejoin="round" stroke-width="2"/>
  </g>
</svg>