<svg viewBox="5 5 62 62" xmlns="http://www.w3.org/2000/svg">
  <defs>
    <linearGradient id="yellow-gradient" x1="0%" x2="0%" y1="0%" y2="100%">
      <stop offset="0%" style="stop-color:#FDE02F;stop-opacity:1;"/>
      <stop offset="100%" style="stop-color:#F7B209;stop-opacity:1;"/>
    </linearGradient>
  </defs>
  <g id="color">
    <rect fill="#FFFFFF" height="18.1139" width="26.8836" x="37.0753" y="36.0532"/>
    <polygon fill="#EA5A47" points="50.2353,23.2 38.1,36 63.5,36" stroke="#EA5A47" stroke-linecap="round" stroke-linejoin="round" stroke-miterlimit="10" stroke-width="2"/>
    <path d="M47.3,26l-6.4,6.0595v-8.5733c0-0.9313,0.7549-1.4162,1.6862-1.4162h3.0276 c0.9313,0,1.6862,0.4849,1.6862,1.4162C47.3,23.4862,47.3,26,47.3,26z" fill="#EA5A47"/>
    <rect fill="#A57939" height="12" width="6" x="43" y="42"/>
    <rect fill="#92D3F5" height="5" width="6" x="54" y="42"/>
    <path d="M41.0059,28.3393c0-3.3123-3.4447-6.0025-7.6937-6.0025c-0.3549,0.0029-0.7095,0.025-1.0622,0.0662 c-1.7995-3.4553-5.7065-5.8554-10.2499-5.8554c-6.2478,0-11.3122,4.5286-11.3122,10.1144c0.0012,0.3692,0.0247,0.738,0.0704,1.1043 C7.9656,28.6665,6,30.8102,6,33.3136c0,3.3123,3.4446,6.0025,7.6936,6.0025c1.6151,0.0139,3.2056-0.4022,4.6137-1.207 c1.8177,1.4766,4.7264,2.4385,8.0154,2.4385c5.5105,0,9.9776-2.6875,9.9776-6.0025c-0.0009-0.2191-0.0214-0.4377-0.0612-0.6531 C39.0357,32.9904,41.0059,30.8453,41.0059,28.3393z" fill="#B1CC33"/>
  </g>
  <g id="line">
    <polyline fill="none" points="46,27 50.2353,23 64,35.0976 64,54 38,54 38,41.5482" stroke="#000000" stroke-linecap="round" stroke-linejoin="round" stroke-miterlimit="10" stroke-width="2"/>
    <rect fill="none" height="12" stroke="#000000" stroke-linecap="round" stroke-linejoin="round" stroke-miterlimit="10" stroke-width="2" width="6" x="43" y="42"/>
    <rect fill="none" height="5" stroke="#000000" stroke-linecap="round" stroke-linejoin="round" stroke-miterlimit="10" stroke-width="2" width="6" x="54" y="42"/>
    <polyline fill="none" points="43.5,23 46.5,23 46.5,26" stroke="#000000" stroke-linecap="round" stroke-linejoin="round" stroke-miterlimit="10" stroke-width="2"/>
    <polyline fill="none" points="22.5,54 22.5,46.8269 17.5,42" stroke="#000000" stroke-linecap="round" stroke-linejoin="round" stroke-width="2"/>
    <line fill="none" stroke="#000000" stroke-linecap="round" stroke-linejoin="round" stroke-width="2" x1="23.0408" x2="25.885" y1="46.7265" y2="43.7657"/>
    <path d="M41.0059,28.3393 c0-3.3123-3.4447-6.0025-7.6937-6.0025c-0.3549,0.0029-0.7095,0.025-1.0622,0.0662c-1.7995-3.4553-5.7065-5.8554-10.2499-5.8554 c-6.2478,0-11.3122,4.5286-11.3122,10.1144c0.0012,0.3692,0.0247,0.738,0.0704,1.1043C7.9656,28.6665,6,30.8102,6,33.3136 c0,3.3123,3.4446,6.0025,7.6936,6.0025c1.6151,0.0139,3.2056-0.4022,4.6137-1.207c1.8177,1.4766,4.7264,2.4385,8.0154,2.4385 c5.5105,0,9.9776-2.6875,9.9776-6.0025c-0.0009-0.2191-0.0214-0.4377-0.0612-0.6531 C39.0357,32.9904,41.0059,30.8453,41.0059,28.3393z" fill="none" stroke="#000000" stroke-linecap="round" stroke-miterlimit="10" stroke-width="2"/>
    <line fill="none" stroke="#000000" stroke-linecap="round" stroke-linejoin="round" stroke-miterlimit="10" stroke-width="2" x1="63.5" x2="42.5" y1="36" y2="36"/>
  </g>
</svg>