<svg viewBox="8 8 56 56" xmlns="http://www.w3.org/2000/svg">
  <defs>
    <linearGradient id="yellow-gradient" x1="0%" x2="0%" y1="0%" y2="100%">
      <stop offset="0%" style="stop-color:#FDE02F;stop-opacity:1;"/>
      <stop offset="100%" style="stop-color:#F7B209;stop-opacity:1;"/>
    </linearGradient>
  </defs>
  <g id="color">
    <rect fill="#FFA7C0" height="52" stroke="none" stroke-linecap="round" stroke-linejoin="round" stroke-miterlimit="10" stroke-width="2" width="27" x="22.5" y="10"/>
    <rect fill="#92D3F5" height="10" stroke="none" stroke-linecap="round" stroke-linejoin="round" stroke-miterlimit="10" stroke-width="2" width="10" x="27" y="52"/>
    <rect fill="none" height="5" stroke="#92D3F5" stroke-linecap="round" stroke-linejoin="round" stroke-miterlimit="10" stroke-width="2" width="2" x="35" y="42"/>
    <rect fill="none" height="5" stroke="#92D3F5" stroke-linecap="round" stroke-linejoin="round" stroke-miterlimit="10" stroke-width="2" width="2" x="43" y="42"/>
    <rect fill="none" height="5" stroke="#92D3F5" stroke-linecap="round" stroke-linejoin="round" stroke-miterlimit="10" stroke-width="2" width="2" x="43" y="53"/>
    <rect fill="none" height="5" stroke="#92D3F5" stroke-linecap="round" stroke-linejoin="round" stroke-miterlimit="10" stroke-width="2" width="2" x="27" y="42"/>
    <rect fill="none" height="5" stroke="#92D3F5" stroke-linecap="round" stroke-linejoin="round" stroke-miterlimit="10" stroke-width="2" width="2" x="35" y="31"/>
    <rect fill="none" height="5" stroke="#92D3F5" stroke-linecap="round" stroke-linejoin="round" stroke-miterlimit="10" stroke-width="2" width="2" x="43" y="31"/>
    <rect fill="none" height="5" stroke="#92D3F5" stroke-linecap="round" stroke-linejoin="round" stroke-miterlimit="10" stroke-width="2" width="2" x="27" y="31"/>
    <path d="M35.9997,25.8252 l-4.8692-6.2438l-0.1569-0.232c-0.8207-1.3515-0.3904-3.1124,0.9611-3.9331c1.3516-0.8207,3.1125-0.3904,3.9332,0.9611 c0.0479,0.0789,0.092,0.1601,0.1321,0.2433c0.6865-1.4244,2.3978-2.0225,3.8222-1.336c1.4243,0.6866,2.0224,2.3979,1.3359,3.8222 c-0.0761,0.158-0.1666,0.3086-0.2703,0.45L35.9997,25.8252z" fill="#EA5A47" stroke="none" stroke-linecap="round" stroke-linejoin="round" stroke-width="2"/>
  </g>
  <g id="line">
    <rect fill="none" height="52" stroke="#000000" stroke-linecap="round" stroke-linejoin="round" stroke-miterlimit="10" stroke-width="2" width="27" x="22.5" y="10"/>
    <rect fill="none" height="10" stroke="#000000" stroke-linecap="round" stroke-linejoin="round" stroke-miterlimit="10" stroke-width="2" width="10" x="27" y="52"/>
    <line fill="none" stroke="#000000" stroke-linecap="round" stroke-linejoin="round" stroke-miterlimit="10" stroke-width="2" x1="32" x2="32" y1="62" y2="52"/>
    <path d="M35.9997,25.8252 l-4.8692-6.2438l-0.1569-0.232c-0.8207-1.3515-0.3904-3.1124,0.9611-3.9331c1.3516-0.8207,3.1125-0.3904,3.9332,0.9611 c0.0479,0.0789,0.092,0.1601,0.1321,0.2433c0.6865-1.4244,2.3978-2.0225,3.8222-1.336c1.4243,0.6866,2.0224,2.3979,1.3359,3.8222 c-0.0761,0.158-0.1666,0.3086-0.2703,0.45L35.9997,25.8252z" fill="none" stroke="#000000" stroke-linecap="round" stroke-linejoin="round" stroke-width="2"/>
    <polyline fill="none" points="37,36 35,36 35,31" stroke="#000000" stroke-linecap="round" stroke-linejoin="round" stroke-miterlimit="10" stroke-width="2"/>
    <polyline fill="none" points="29,36 27,36 27,31" stroke="#000000" stroke-linecap="round" stroke-linejoin="round" stroke-miterlimit="10" stroke-width="2"/>
    <polyline fill="none" points="45,36 43,36 43,31" stroke="#000000" stroke-linecap="round" stroke-linejoin="round" stroke-miterlimit="10" stroke-width="2"/>
    <polyline fill="none" points="37,47 35,47 35,42" stroke="#000000" stroke-linecap="round" stroke-linejoin="round" stroke-miterlimit="10" stroke-width="2"/>
    <polyline fill="none" points="29,47 27,47 27,42" stroke="#000000" stroke-linecap="round" stroke-linejoin="round" stroke-miterlimit="10" stroke-width="2"/>
    <polyline fill="none" points="45,47 43,47 43,42" stroke="#000000" stroke-linecap="round" stroke-linejoin="round" stroke-miterlimit="10" stroke-width="2"/>
    <polyline fill="none" points="45,58 43,58 43,53" stroke="#000000" stroke-linecap="round" stroke-linejoin="round" stroke-miterlimit="10" stroke-width="2"/>
  </g>
</svg>