<svg viewBox="8 8 56 56" xmlns="http://www.w3.org/2000/svg">
  <defs>
    <linearGradient id="yellow-gradient" x1="0%" x2="0%" y1="0%" y2="100%">
      <stop offset="0%" style="stop-color:#FDE02F;stop-opacity:1;"/>
      <stop offset="100%" style="stop-color:#F7B209;stop-opacity:1;"/>
    </linearGradient>
  </defs>
  <g id="color">
    <rect fill="#E27022" height="17" width="53" x="9" y="38"/>
    <rect fill="#92D3F5" height="10" width="10" x="14" y="45"/>
    <rect fill="#92D3F5" height="10" width="10" x="28" y="45"/>
    <rect fill="#92D3F5" height="10" width="10" x="38" y="45"/>
    <rect fill="#92D3F5" height="10" width="10" x="48" y="45"/>
    <ellipse cx="19" cy="37" fill="#FFFFFF" rx="7" ry="5"/>
  </g>
  <g id="line">
    <polyline fill="none" points="26,38 62,38 62,55 9,55 9,38 12,38" stroke="#000000" stroke-linecap="round" stroke-linejoin="round" stroke-miterlimit="10" stroke-width="2"/>
    <rect fill="none" height="10" stroke="#000000" stroke-linecap="round" stroke-linejoin="round" stroke-miterlimit="10" stroke-width="2" width="10" x="14" y="45"/>
    <line fill="none" stroke="#000000" stroke-linecap="round" stroke-linejoin="round" stroke-miterlimit="10" stroke-width="2" x1="19" x2="19" y1="55" y2="45"/>
    <rect fill="none" height="10" stroke="#000000" stroke-linecap="round" stroke-linejoin="round" stroke-miterlimit="10" stroke-width="2" width="10" x="28" y="45"/>
    <rect fill="none" height="10" stroke="#000000" stroke-linecap="round" stroke-linejoin="round" stroke-miterlimit="10" stroke-width="2" width="10" x="38" y="45"/>
    <rect fill="none" height="10" stroke="#000000" stroke-linecap="round" stroke-linejoin="round" stroke-miterlimit="10" stroke-width="2" width="10" x="48" y="45"/>
    <ellipse cx="19" cy="37" fill="none" rx="7" ry="5" stroke="#000000" stroke-miterlimit="10" stroke-width="2"/>
    <path d="M16.577,35.9892c0.0859-0.4199,0.4575-0.7358,0.9028-0.7358l0,0c0.2544,0,0.4848,0.1032,0.6516,0.2699 c0.2594,0.2594,0.2355,0.6905-0.0079,0.9649l-1.5652,1.7652h1.843" fill="none" stroke="#000000" stroke-linecap="round" stroke-linejoin="round" stroke-miterlimit="10" stroke-width="0.8571"/>
    <polyline fill="none" points="20.778,35.2534 19.6632,37.7737 21.4179,37.7737" stroke="#000000" stroke-linecap="round" stroke-linejoin="round" stroke-miterlimit="10" stroke-width="0.8571"/>
    <line fill="none" stroke="#000000" stroke-linecap="round" stroke-linejoin="round" stroke-miterlimit="10" stroke-width="0.8571" x1="21.1289" x2="21.1289" y1="36.8447" y2="38.2534"/>
  </g>
</svg>