<svg viewBox="9 9 54 54" xmlns="http://www.w3.org/2000/svg">
  <defs>
    <linearGradient id="yellow-gradient" x1="0%" x2="0%" y1="0%" y2="100%">
      <stop offset="0%" style="stop-color:#FDE02F;stop-opacity:1;"/>
      <stop offset="100%" style="stop-color:#F7B209;stop-opacity:1;"/>
    </linearGradient>
  </defs>
  <g id="color">
    <rect fill="#FFFFFF" height="10" width="38" x="17" y="50"/>
    <rect fill="#FFFFFF" height="10" width="28" x="22" y="33"/>
    <rect fill="#FFFFFF" height="10" width="18" x="27" y="16"/>
    <polygon fill="#3F3F3F" points="54,33 18,33 22,30 24,26 48,26 50,30"/>
    <polygon fill="#3F3F3F" points="59.5,50 12.5,50 16.5,47 18.5,43 53.5,43 55.5,47"/>
    <polygon fill="#3F3F3F" points="49,16 23,16 27,13 29,9 43,9 45,13"/>
    <polygon fill="#A57939" points="41.5,60 30.5,60 30.5,53 34.1247,53 41.5,53"/>
    <rect fill="none" height="4" stroke="#92D3F5" stroke-linecap="round" stroke-linejoin="round" stroke-miterlimit="10" stroke-width="2" width="2" x="23" y="53"/>
    <rect fill="none" height="4" stroke="#92D3F5" stroke-linecap="round" stroke-linejoin="round" stroke-miterlimit="10" stroke-width="2" width="2" x="31" y="19"/>
    <rect fill="none" height="4" stroke="#92D3F5" stroke-linecap="round" stroke-linejoin="round" stroke-miterlimit="10" stroke-width="2" width="2" x="39" y="19"/>
    <rect fill="none" height="4" stroke="#92D3F5" stroke-linecap="round" stroke-linejoin="round" stroke-miterlimit="10" stroke-width="2" width="2" x="47" y="53"/>
    <polygon fill="#D0CFCE" points="36,31 23,45 49,45"/>
    <rect fill="none" height="2" stroke="#92D3F5" stroke-linecap="round" stroke-linejoin="round" stroke-miterlimit="10" stroke-width="2" width="2" x="32" y="40"/>
    <rect fill="none" height="2" stroke="#92D3F5" stroke-linecap="round" stroke-linejoin="round" stroke-miterlimit="10" stroke-width="2" width="2" x="38" y="40"/>
  </g>
  <g id="line">
    <rect fill="none" height="10" stroke="#000000" stroke-linecap="round" stroke-linejoin="round" stroke-miterlimit="10" stroke-width="2" width="38" x="17" y="50"/>
    <polygon fill="none" points="34.14,32.9998 24.86,42.9998 22,42.9998 22,32.9998" stroke="#000000" stroke-linecap="round" stroke-linejoin="round" stroke-miterlimit="10" stroke-width="2"/>
    <polygon fill="none" points="50,32.9998 50,42.9998 47.14,42.9998 37.86,32.9998" stroke="#000000" stroke-linecap="round" stroke-linejoin="round" stroke-miterlimit="10" stroke-width="2"/>
    <rect fill="none" height="10" stroke="#000000" stroke-linecap="round" stroke-linejoin="round" stroke-miterlimit="10" stroke-width="2" width="18" x="27" y="16"/>
    <polygon fill="none" points="54,32.9998 37.86,32.9998 36,30.9998 34.14,32.9998 18,32.9998 22,29.9998 24,25.9998 48,25.9998 50,29.9998" stroke="#000000" stroke-linecap="round" stroke-linejoin="round" stroke-miterlimit="10" stroke-width="2"/>
    <polygon fill="none" points="59.5,49.9998 12.5,49.9998 16.5,46.9998 18.5,42.9998 24.86,42.9998 23,44.9998 49,44.9998 47.14,42.9998 53.5,42.9998 55.5,46.9998" stroke="#000000" stroke-linecap="round" stroke-linejoin="round" stroke-miterlimit="10" stroke-width="2"/>
    <polygon fill="none" points="49,16 23,16 27,13 29,9 43,9 45,13" stroke="#000000" stroke-linecap="round" stroke-linejoin="round" stroke-miterlimit="10" stroke-width="2"/>
    <polygon fill="none" points="41.5,60 30.5,60 30.5,53 34.1247,53 41.5,53" stroke="#000000" stroke-linecap="round" stroke-linejoin="round" stroke-miterlimit="10" stroke-width="2"/>
    <polyline fill="none" points="34.0625,60 34.0625,53 38.0625,53 38.0625,60" stroke="#000000" stroke-linecap="round" stroke-linejoin="round" stroke-miterlimit="10" stroke-width="2"/>
    <polygon fill="none" points="49,44.9998 23,44.9998 24.86,42.9998 34.14,32.9998 36,30.9998 37.86,32.9998 47.14,42.9998" stroke="#000000" stroke-linecap="round" stroke-linejoin="round" stroke-miterlimit="10" stroke-width="2"/>
    <polyline fill="none" points="25,57 23,57 23,53" stroke="#000000" stroke-linecap="round" stroke-linejoin="round" stroke-miterlimit="10" stroke-width="2"/>
    <polyline fill="none" points="33,23 31,23 31,19" stroke="#000000" stroke-linecap="round" stroke-linejoin="round" stroke-miterlimit="10" stroke-width="2"/>
    <polyline fill="none" points="41,23 39,23 39,19" stroke="#000000" stroke-linecap="round" stroke-linejoin="round" stroke-miterlimit="10" stroke-width="2"/>
    <polyline fill="none" points="49,57 47,57 47,53" stroke="#000000" stroke-linecap="round" stroke-linejoin="round" stroke-miterlimit="10" stroke-width="2"/>
    <polyline fill="none" points="34,42 32,42 32,40" stroke="#000000" stroke-linecap="round" stroke-linejoin="round" stroke-miterlimit="10" stroke-width="2"/>
    <polyline fill="none" points="40,42 38,42 38,40" stroke="#000000" stroke-linecap="round" stroke-linejoin="round" stroke-miterlimit="10" stroke-width="2"/>
  </g>
</svg>