<svg viewBox="0 0 72 72" xmlns="http://www.w3.org/2000/svg">
  <defs>
    <linearGradient id="yellow-gradient" x1="0%" x2="0%" y1="0%" y2="100%">
      <stop offset="0%" style="stop-color:#FDE02F;stop-opacity:1;"/>
      <stop offset="100%" style="stop-color:#F7B209;stop-opacity:1;"/>
    </linearGradient>
  </defs>
  <g id="color">
    <g>
      <g>
        <path d="M48.4009,52.2372a2.4286,2.4286,0,1,0-4.8-.0008v.4452l0,3.1548L37.9987,67.0356l3.2.0005,1.6-1.6,1.6,1.6,1.6-1.6,1.6,1.6,1.6-1.6,1.6,1.6,3.2.0005L48.4,55.8372l0-3.1548Z" fill="#d0cfce" stroke="#d0cfce" stroke-linecap="round" stroke-linejoin="round" stroke-width="1.5"/>
        <path d="M49.1757,53.4373l0,2.4s-6.35-.0118-6.35-.001l0-2.4Z" fill="#d22f27"/>
      </g>
      <polygon fill="#9b9b9a" points="23.641 67.036 23.641 53.202 24.495 46.505 26.517 46.505 27.37 53.202 27.37 67.036 23.641 67.036" stroke="#9b9b9a" stroke-linecap="round" stroke-linejoin="round" stroke-width="2"/>
      <rect fill="#3f3f3f" height="16" width="1.5" x="24.7518" y="29.5072"/>
      <g>
        <line fill="none" stroke="#d0cfce" stroke-miterlimit="10" stroke-width="1.5" x1="25.6963" x2="25.6963" y1="4.5" y2="28.5"/>
        <line fill="none" stroke="#d0cfce" stroke-miterlimit="10" stroke-width="1.5" x1="22.6963" x2="22.6963" y1="5" y2="28"/>
        <line fill="none" stroke="#d0cfce" stroke-miterlimit="10" stroke-width="1.5" x1="19.6963" x2="19.6963" y1="7.5" y2="25.5"/>
        <line fill="none" stroke="#d0cfce" stroke-miterlimit="10" stroke-width="1.5" x1="28.6963" x2="28.6963" y1="5" y2="28"/>
        <line fill="none" stroke="#d0cfce" stroke-miterlimit="10" stroke-width="1.5" x1="31.6963" x2="31.6963" y1="7.5" y2="25.5"/>
        <line fill="none" stroke="#d0cfce" stroke-miterlimit="10" stroke-width="1.5" x1="16.2518" x2="34.2518" y1="14" y2="14"/>
        <line fill="none" stroke="#d0cfce" stroke-miterlimit="10" stroke-width="1.5" x1="16.2518" x2="34.2518" y1="17" y2="17"/>
        <line fill="none" stroke="#d0cfce" stroke-miterlimit="10" stroke-width="1.5" x1="16.7518" x2="33.7518" y1="20" y2="20"/>
        <line fill="none" stroke="#d0cfce" stroke-miterlimit="10" stroke-width="1.5" x1="17.7518" x2="33.2518" y1="11" y2="11"/>
        <line fill="none" stroke="#d0cfce" stroke-miterlimit="10" stroke-width="1.5" x1="19.2518" x2="31.2518" y1="8" y2="8"/>
        <line fill="none" stroke="#d0cfce" stroke-miterlimit="10" stroke-width="1.5" x1="19.2518" x2="31.2518" y1="26" y2="26"/>
        <line fill="none" stroke="#d0cfce" stroke-miterlimit="10" stroke-width="1.5" x1="17.2518" x2="33.2518" y1="23" y2="23"/>
      </g>
      <ellipse cx="25.7518" cy="16.8421" fill="none" rx="9" ry="11.8421" stroke="#3f3f3f" stroke-miterlimit="10" stroke-width="2"/>
    </g>
  </g>
  <g id="line">
    <g>
      <path d="M48.4009,52.2372a2.4286,2.4286,0,1,0-4.8-.0008v.4452l0,3.1548-2.05,4.0979-.4957.991-3.0563,6.11,3.2.0005,1.6-1.6,1.6,1.6,1.6-1.6,1.6,1.6,1.6-1.6,1.6,1.6,3.2.0005L50.9358,60.91l-.5629-1.1263L48.4,55.8372l0-3.1548Z" fill="none" stroke="#000" stroke-linecap="round" stroke-linejoin="round" stroke-width="1.5"/>
      <path d="M48.4007,53.4372l0,2.4s-4.8-.0116-4.8-.0008l0-2.4Z" fill="none" stroke="#000" stroke-miterlimit="10" stroke-width="1.5"/>
    </g>
    <g>
      <polyline fill="none" points="24.22 48.658 23.641 53.203 23.641 67.037 27.37 67.037 27.37 53.203" stroke="#000" stroke-linecap="round" stroke-linejoin="round" stroke-width="2"/>
      <rect height="16" width="1.5" x="24.7518" y="29.5072"/>
      <ellipse cx="25.7518" cy="16.8421" fill="none" rx="9" ry="11.8421" stroke="#000" stroke-miterlimit="10" stroke-width="2"/>
    </g>
  </g>
</svg>