<svg viewBox="12 12 48 48" xmlns="http://www.w3.org/2000/svg">
  <defs>
    <linearGradient id="yellow-gradient" x1="0%" x2="0%" y1="0%" y2="100%">
      <stop offset="0%" style="stop-color:#FDE02F;stop-opacity:1;"/>
      <stop offset="100%" style="stop-color:#F7B209;stop-opacity:1;"/>
    </linearGradient>
  </defs>
  <g id="color">
    <g id="_1F3F9">
      <path d="M51.88,55.5863A27.0167,27.0167,0,0,0,16.3837,20.09" fill="none" stroke="#a57939" stroke-linecap="round" stroke-linejoin="round" stroke-width="2.8"/>
      <path d="M31.1285,40.8418l-7.098,7.098v6.8521a.6024.6024,0,0,0,1.0283.4259l5.8933-5.8933a.6027.6027,0,0,0,.1764-.4259Z" fill="#d22f27"/>
      <path d="M31.1285,40.8418l-7.098,7.098H17.1784a.6024.6024,0,0,1-.4259-1.0283l5.8933-5.8933a.6027.6027,0,0,1,.4259-.1764Z" fill="#ea5a47"/>
    </g>
  </g>
  <g id="line">
    <g>
      <line fill="none" stroke="#000" stroke-linecap="round" stroke-linejoin="round" stroke-width="2" x1="19.2278" x2="50.4542" y1="21.5167" y2="52.7424"/>
      <path d="M50.2183,57.2486a2.3515,2.3515,0,0,1-.4964-2.5908,24.6677,24.6677,0,0,0-32.41-32.41,2.3493,2.3493,0,0,1-1.8567-4.3162A29.3663,29.3663,0,0,1,54.0381,56.5145a2.3526,2.3526,0,0,1-3.82.7341Z" fill="none" stroke="#000" stroke-miterlimit="10" stroke-width="2"/>
      <line fill="none" stroke="#000" stroke-linecap="round" stroke-linejoin="round" stroke-width="2" x1="57.966" x2="22.1582" y1="14.0638" y2="49.8716"/>
      <polyline fill="none" points="52.596 14.064 57.966 14.064 57.966 19.153" stroke="#000" stroke-linecap="round" stroke-linejoin="round" stroke-width="2"/>
    </g>
  </g>
</svg>