<svg viewBox="6 6 60 60" xmlns="http://www.w3.org/2000/svg">
  <defs>
    <linearGradient id="yellow-gradient" x1="0%" x2="0%" y1="0%" y2="100%">
      <stop offset="0%" style="stop-color:#FDE02F;stop-opacity:1;"/>
      <stop offset="100%" style="stop-color:#F7B209;stop-opacity:1;"/>
    </linearGradient>
  </defs>
  <g id="color">
    <path d="M24.7,16.4l-17,6v27.9l17,6h40v-40h-40V16.4z M16.2,41.4c-2.8,0-5-2.2-5-5s2.2-5,5-5s5,2.2,5,5 S19,41.4,16.2,41.4z" fill="#F4AA41"/>
  </g>
  <g id="line">
    <path d="M24.7,16.4l-17,6v27.9l17,6h40v-40h-40V16.4z M16.2,41.4c-2.8,0-5-2.2-5-5s2.2-5,5-5s5,2.2,5,5S19,41.4,16.2,41.4z" fill="none" stroke="#000000" stroke-linecap="round" stroke-linejoin="round" stroke-miterlimit="10" stroke-width="2"/>
  </g>
</svg>