<svg viewBox="11 11 50 50" xmlns="http://www.w3.org/2000/svg">
  <defs>
    <linearGradient id="yellow-gradient" x1="0%" x2="0%" y1="0%" y2="100%">
      <stop offset="0%" style="stop-color:#FDE02F;stop-opacity:1;"/>
      <stop offset="100%" style="stop-color:#F7B209;stop-opacity:1;"/>
    </linearGradient>
  </defs>
  <g id="line-supplement">
    <path d="M22.3025 17.4881C25.2605 15.6898 30.9373 13.2555 37.0827 16.0001C40.865 17.6893 42.8596 20.6977 52.5036 20.1143C53.3121 20.0654 54 20.711 54 21.5249C54 24.8274 54 32.6642 54 36.6502C54 37.2728 53.5658 37.7273 53.0108 38.0042C51.0146 39.0001 45.5555 38.9391 37.0827 35.0001C33.6323 33.396 28.2956 32.4318 22.2589 36.4426" fill="#000"/>
  </g>
  <g id="color">
    <path d="M22.3025 17.4881C25.2605 15.6898 30.9373 13.2555 37.0827 16.0001C40.865 17.6893 42.8596 20.6977 52.5036 20.1143C53.3121 20.0654 54 20.711 54 21.5249C54 24.8274 54 32.6642 54 36.6502C54 37.2728 53.5658 37.7273 53.0108 38.0042C51.0146 39.0001 45.5555 38.9391 37.0827 35.0001C33.6323 33.396 28.2956 32.4318 22.2589 36.4426" fill="#3F3F3F"/>
  </g>
  <g id="line">
    <path d="M23.0844 17.4881C25.9694 15.6898 31.5062 13.2555 37.5 16.0001C41.189 17.6893 43.1344 20.6977 52.5405 20.1143C53.3291 20.0654 54 20.711 54 21.5249C54 24.8274 54 32.6642 54 36.6502C54 37.2728 53.5765 37.7273 53.0352 38.0042C51.0882 39.0001 45.7637 38.9391 37.5 35.0001C34.1347 33.396 28.9297 32.4318 23.0418 36.4426" fill="none" stroke="#000" stroke-linecap="round" stroke-linejoin="round" stroke-miterlimit="10" stroke-width="2"/>
    <path d="M19.3271 12.875V59.8348" fill="none" stroke="#000" stroke-linecap="round" stroke-miterlimit="10" stroke-width="2"/>
  </g>
</svg>