<svg viewBox="0 0 72 72" xmlns="http://www.w3.org/2000/svg">
  <defs>
    <linearGradient id="yellow-gradient" x1="0%" x2="0%" y1="0%" y2="100%">
      <stop offset="0%" style="stop-color:#FDE02F;stop-opacity:1;"/>
      <stop offset="100%" style="stop-color:#F7B209;stop-opacity:1;"/>
    </linearGradient>
  </defs>
  <g id="line-supplement">
    <path d="M 57.81375,0 L 44.5425,0 60,34.2 60,36 47.5425,36 31.27125,0 18,0 34.27125,36 21,36 9,9.45 0,7.155 0,18.9 7.72875,36 21,36 0,30.645 0,18.9 60,34.2 60,22.455 9,9.45 4.72875,0 18,0 60,10.71 60,4.8375 z" fill="#000" transform="translate(6,18)"/>
  </g>
  <g id="color">
    <rect fill="#fff" height="38" width="62" x="5" y="17"/>
    <path d="M 57.81375,0 L 44.5425,0 60,34.2 60,36 47.5425,36 31.27125,0 18,0 34.27125,36 21,36 9,9.45 0,7.155 0,18.9 7.72875,36 21,36 0,30.645 0,18.9 60,34.2 60,22.455 9,9.45 4.72875,0 18,0 60,10.71 60,4.8375 z" fill="#61B2E4" transform="translate(6,18)"/>
  </g>
  <g id="line">
    <path d="M67 17H5V55H67V17Z" fill="none" stroke="#000" stroke-linecap="round" stroke-linejoin="round" stroke-width="2"/>
  </g>
</svg>