<svg viewBox="0 0 72 72" xmlns="http://www.w3.org/2000/svg">
  <defs>
    <linearGradient id="yellow-gradient" x1="0%" x2="0%" y1="0%" y2="100%">
      <stop offset="0%" style="stop-color:#FDE02F;stop-opacity:1;"/>
      <stop offset="100%" style="stop-color:#F7B209;stop-opacity:1;"/>
    </linearGradient>
  </defs>
  <g id="color">
    <rect fill="#1e50a0" height="38" width="62" x="5" y="17"/>
    <line fill="none" stroke="url(#yellow-gradient)" stroke-linecap="round" stroke-linejoin="round" stroke-width="2" x1="36" x2="36" y1="26.5" y2="47"/>
    <line fill="none" stroke="url(#yellow-gradient)" stroke-linecap="round" stroke-linejoin="round" stroke-width="2" x1="28.5" x2="43.5" y1="34" y2="34"/>
    <polyline fill="none" points="34.2 24.764 36 26.5 37.8 24.7" stroke="url(#yellow-gradient)" stroke-linecap="round" stroke-linejoin="round" stroke-width="1.8"/>
    <polygon fill="none" points="34 47.929 36 46 38 48 34 47.929" stroke="url(#yellow-gradient)" stroke-linecap="round" stroke-linejoin="round" stroke-width="2"/>
    <line fill="none" stroke="url(#yellow-gradient)" stroke-linecap="round" stroke-linejoin="round" stroke-width="1.8" x1="36" x2="36" y1="26.5" y2="24"/>
    <polyline fill="none" points="26.764 35.8 28.5 34 26.7 32.2" stroke="url(#yellow-gradient)" stroke-linecap="round" stroke-linejoin="round" stroke-width="1.8"/>
    <line fill="none" stroke="url(#yellow-gradient)" stroke-linecap="round" stroke-linejoin="round" stroke-width="1.8" x1="28.5" x2="26" y1="34" y2="34"/>
    <polyline fill="none" points="45.236 35.8 43.5 34 45.3 32.2" stroke="url(#yellow-gradient)" stroke-linecap="round" stroke-linejoin="round" stroke-width="1.8"/>
    <line fill="none" stroke="url(#yellow-gradient)" stroke-linecap="round" stroke-linejoin="round" stroke-width="1.8" x1="43.5" x2="46" y1="34" y2="34"/>
    <circle cx="36" cy="34" fill="none" r="1.5" stroke="url(#yellow-gradient)" stroke-linecap="round" stroke-linejoin="round" stroke-width="2"/>
  </g>
  <g id="line">
    <rect fill="none" height="38" stroke="#000" stroke-linecap="round" stroke-linejoin="round" stroke-width="2" width="62" x="5" y="17"/>
  </g>
</svg>