<svg viewBox="4 4 64 64" xmlns="http://www.w3.org/2000/svg">
  <defs>
    <linearGradient id="yellow-gradient" x1="0%" x2="0%" y1="0%" y2="100%">
      <stop offset="0%" style="stop-color:#FDE02F;stop-opacity:1;"/>
      <stop offset="100%" style="stop-color:#F7B209;stop-opacity:1;"/>
    </linearGradient>
  </defs>
  <g id="color">
    <path d="M46,52c0,0,17,2,19,0v-1c0,0,3-3,1-4s-5,0-5,0s-2.9167-1.3333-6.4583-4.6667C54.5417,42.3333,53,41,51,43c0,0-2-3-8-3s-24,1-24,1 s-6-1,0-3s11-2,12,0c0,0-2.6667-8.4167-17.3333-5.2083C13.6667,32.7917,1,36,8,48c0,0,2,4,8,4H46z" fill="#5C9E31" stroke="#5C9E31" stroke-linecap="round" stroke-linejoin="round" stroke-miterlimit="10" stroke-width="2"/>
    <path d="M23,47c0,0-4.8121,4-3.406,5S23,55,23,55h4l-3.0324-3c0,0,2.0324-1,3.0324-3s0-3.2403,0-3.2403" fill="#B1CC33" stroke="#B1CC33" stroke-linecap="round" stroke-linejoin="round" stroke-miterlimit="10" stroke-width="2"/>
    <path d="M40,47c0,0-4.8121,4-3.406,5S40,55,40,55h4l-3.0324-3c0,0,2.0324-1,3.0324-3s0-3.2403,0-3.2403" fill="#B1CC33" stroke="#B1CC33" stroke-linecap="round" stroke-linejoin="round" stroke-miterlimit="10" stroke-width="2"/>
  </g>
  <g id="line">
    <line fill="none" stroke="#000000" stroke-linecap="round" stroke-linejoin="round" stroke-miterlimit="10" stroke-width="2" x1="29" x2="33" y1="52" y2="52"/>
    <path d="M46,52c0,0,17,2,19,0v-1c0,0,3-3,1-4s-5,0-5,0s-2.9167-1.3333-6.4583-4.6667C54.5417,42.3333,53,41,51,43c0,0-2-3-8-3s-24,1-24,1 s-6-1,0-3s11-2,12,0c0,0-2.6667-8.4167-17.3333-5.2083C13.6667,32.7917,1,36,8,48c0,0,2,4,8,4" fill="none" stroke="#000000" stroke-linecap="round" stroke-linejoin="round" stroke-miterlimit="10" stroke-width="2"/>
    <path d="M23,47c0,0-4.8121,4-3.406,5S23,55,23,55h4l-3.0324-3c0,0,2.0324-1,3.0324-3s0-3.2403,0-3.2403" fill="none" stroke="#000000" stroke-linecap="round" stroke-linejoin="round" stroke-miterlimit="10" stroke-width="2"/>
    <path d="M40,47c0,0-4.8121,4-3.406,5S40,55,40,55h4l-3.0324-3c0,0,2.0324-1,3.0324-3s0-3.2403,0-3.2403" fill="none" stroke="#000000" stroke-linecap="round" stroke-linejoin="round" stroke-miterlimit="10" stroke-width="2"/>
  </g>
</svg>