<svg viewBox="9 9 54 54" xmlns="http://www.w3.org/2000/svg">
  <defs>
    <linearGradient id="yellow-gradient" x1="0%" x2="0%" y1="0%" y2="100%">
      <stop offset="0%" style="stop-color:#FDE02F;stop-opacity:1;"/>
      <stop offset="100%" style="stop-color:#F7B209;stop-opacity:1;"/>
    </linearGradient>
  </defs>
  <g id="color">
    <path d="M23,39c2.2654-7.9289,10-3,10-3c6,5,1,15-8,13 s-9-12-6-17s14-9,21-1c1.8184,2.0781,2,6,1,14l-1,5l-9,1" fill="#6A462F" stroke="#6A462F" stroke-miterlimit="10" stroke-width="2"/>
    <path d="M11,54c18.4032,1.6003,30.4041,0.9994,34.4661,0.2956c0.9792-0.1697,1.901-0.575,2.6746-1.1989 C64.912,39.5719,63,31,58,30c-3.1009-0.6202-9.1515,10.3756-12,14c-1.5905,2.0237-5,4-9,4" fill="#A57939" stroke="none"/>
  </g>
  <g id="line">
    <line fill="none" stroke="#000000" stroke-linecap="round" stroke-linejoin="round" stroke-miterlimit="10" stroke-width="2" x1="55" x2="57" y1="27" y2="30"/>
    <line fill="none" stroke="#000000" stroke-linecap="round" stroke-linejoin="round" stroke-miterlimit="10" stroke-width="2" x1="58.8333" x2="61" y1="29.3333" y2="25"/>
    <path d="M23.0007,39c2.2654-7.9289,10-3,10-3c6,5,1,15-8,13s-9-12-6-17s14-9,21-1c1.8184,2.0781,3,5,1,12" fill="none" stroke="#000000" stroke-linecap="round" stroke-linejoin="round" stroke-miterlimit="10" stroke-width="2"/>
    <path d="M11,55c18.4032,1.6003,30.4041-0.0006,34.4661-0.7044c0.9792-0.1697,1.901-0.575,2.6746-1.1989C64.912,39.5719,63,31,58,30 c-3.1009-0.6202-9.1515,10.3756-12,14c-1.5905,2.0237-5,5-9,5" fill="none" stroke="#000000" stroke-linecap="round" stroke-linejoin="round" stroke-miterlimit="10" stroke-width="2"/>
  </g>
</svg>