<svg viewBox="7 7 58 58" xmlns="http://www.w3.org/2000/svg">
  <defs>
    <linearGradient id="yellow-gradient" x1="0%" x2="0%" y1="0%" y2="100%">
      <stop offset="0%" style="stop-color:#FDE02F;stop-opacity:1;"/>
      <stop offset="100%" style="stop-color:#F7B209;stop-opacity:1;"/>
    </linearGradient>
  </defs>
  <g id="color">
    <path d="M44.62,26.25c0,0,4.375-7.25,2.375-8.25s-5,1-5,1s2-7-2-7s-5,4-5,4s-1.457-8.296-7-6c-3.464,1.435-5,5,0,15" fill="#EA5A47"/>
    <path d="M21,35c0,0,4-11,15-11s15,11,15,11c15,28-15,29-15,29S6,63,21,35z" fill="#FFFFFF"/>
    <path d="M36,43c0,0,18-1,0,18C36,61,18,43,36,43z" fill="#F1B31C"/>
  </g>
  <g id="line">
    <path d="M44.46,26.25c0,0,4.375-7.25,2.375-8.25s-5,1-5,1s2-7-2-7s-5,4-5,4s-1.457-8.296-7-6c-3.464,1.435-5,5,0,15" fill="none" stroke="#000000" stroke-linecap="round" stroke-linejoin="round" stroke-miterlimit="10" stroke-width="2"/>
    <circle cx="27" cy="39" r="2"/>
    <circle cx="45" cy="39" r="2"/>
    <path d="M36.02,43c0,0,18-1,0,18C36.02,61,18.02,43,36.02,43z" fill="none" stroke="#000000" stroke-linecap="round" stroke-linejoin="round" stroke-miterlimit="10" stroke-width="2"/>
    <path d="M21,35c0,0,4-11,15-11s15,11,15,11c15,28-15,29-15,29S6,63,21,35z" fill="none" stroke="#000000" stroke-linecap="round" stroke-linejoin="round" stroke-miterlimit="10" stroke-width="2"/>
  </g>
</svg>