<svg viewBox="9 9 54 54" xmlns="http://www.w3.org/2000/svg">
  <defs>
    <linearGradient id="yellow-gradient" x1="0%" x2="0%" y1="0%" y2="100%">
      <stop offset="0%" style="stop-color:#FDE02F;stop-opacity:1;"/>
      <stop offset="100%" style="stop-color:#F7B209;stop-opacity:1;"/>
    </linearGradient>
  </defs>
  <g id="color">
    <ellipse cx="36.4596" cy="21.9147" fill="#3f3f3f" rx="11.0195" ry="11.0971"/>
    <ellipse cx="36.4865" cy="40.6831" fill="#d22f27" rx="16.5287" ry="17.9871"/>
  </g>
  <g id="line">
    <path d="M18.9837,21.7274c0,3.3082,4.2257,5.9138,5.4833,6.6049" fill="none" stroke="#000" stroke-linecap="round" stroke-linejoin="round" stroke-width="2"/>
    <path d="M14.1235,38.2566c0,.7364,3.9538,2.0393,5.8345,2.6284" fill="none" stroke="#000" stroke-linecap="round" stroke-linejoin="round" stroke-width="2"/>
    <path d="M18.9837,57.6974c0-2.8776,3.1948-4.69,4.8488-5.438" fill="none" stroke="#000" stroke-linecap="round" stroke-linejoin="round" stroke-width="2"/>
    <path d="M49.126,28.53s4.8614-3.8891,4.8614-6.806" fill="none" stroke="#000" stroke-linecap="round" stroke-linejoin="round" stroke-width="2"/>
    <path d="M53.005,40.1373a8.4318,8.4318,0,0,0,4.8715-1.8807" fill="none" stroke="#000" stroke-linecap="round" stroke-linejoin="round" stroke-width="2"/>
    <path d="M48.6433,52.8712c1.2575.1133,4.5656.7251,5.3473,3.8519" fill="none" stroke="#000" stroke-linecap="round" stroke-linejoin="round" stroke-width="2"/>
    <path d="M29.6784,9.0842c.759,3.0135,2.0958,3.6932,2.6623,3.8405" fill="none" stroke="#000" stroke-linecap="round" stroke-linejoin="round" stroke-width="2"/>
    <path d="M42.32,12.9732s2.6586-2.3334,1.9939-3.889" fill="none" stroke="#000" stroke-linecap="round" stroke-linejoin="round" stroke-width="2"/>
    <ellipse cx="36.4865" cy="40.6831" fill="none" rx="16.5287" ry="17.9871" stroke="#000" stroke-linecap="round" stroke-linejoin="round" stroke-width="2"/>
    <line fill="none" stroke="#000" stroke-linecap="round" stroke-linejoin="round" stroke-width="2" x1="36.4865" x2="36.4865" y1="23.6682" y2="57.6979"/>
    <circle cx="26.8192" cy="35.2801" r="2"/>
    <circle cx="46.2647" cy="35.2801" r="2"/>
    <circle cx="42.3756" cy="41.1138" r="2"/>
    <circle cx="46.2647" cy="46.9474" r="2"/>
    <circle cx="30.7082" cy="41.1138" r="2"/>
    <circle cx="26.8192" cy="46.9474" r="2"/>
    <path d="M26.46,21.7237a10.004,10.004,0,0,1,20,0" fill="none" stroke="#000" stroke-linecap="round" stroke-linejoin="round" stroke-width="2"/>
  </g>
</svg>