<svg viewBox="12 12 48 48" xmlns="http://www.w3.org/2000/svg">
  <defs>
    <linearGradient id="yellow-gradient" x1="0%" x2="0%" y1="0%" y2="100%">
      <stop offset="0%" style="stop-color:#FDE02F;stop-opacity:1;"/>
      <stop offset="100%" style="stop-color:#F7B209;stop-opacity:1;"/>
    </linearGradient>
  </defs>
  <g id="color">
    <ellipse cx="36" cy="29.7632" fill="#6A462F" rx="6.2632" ry="4.0263" stroke="none"/>
    <ellipse cx="36" cy="36.9211" fill="#6A462F" rx="4.4737" ry="2.8759" stroke="none"/>
    <ellipse cx="36" cy="50.3421" fill="#6A462F" rx="6.2632" ry="10.2895" stroke="none"/>
  </g>
  <g id="line">
    <polyline fill="none" points="31.5263,34.6842 23.4737,31.1053 20.7895,23.9474" stroke="#000000" stroke-linecap="round" stroke-linejoin="round" stroke-miterlimit="10" stroke-width="2"/>
    <polyline fill="none" points="40.4737,34.6842 48.5263,31.1053 51.2105,23.9474" stroke="#000000" stroke-linecap="round" stroke-linejoin="round" stroke-miterlimit="10" stroke-width="2"/>
    <polyline fill="none" points="40.4737,38.2632 50.3158,38.2632 53,35.5789" stroke="#000000" stroke-linecap="round" stroke-linejoin="round" stroke-miterlimit="10" stroke-width="2"/>
    <polyline fill="none" points="31.5263,38.2632 21.6842,38.2632 19,35.5789" stroke="#000000" stroke-linecap="round" stroke-linejoin="round" stroke-miterlimit="10" stroke-width="2"/>
    <polyline fill="none" points="32.4211,40.1579 22.5789,49.1053 23.4737,56.2632" stroke="#000000" stroke-linecap="round" stroke-linejoin="round" stroke-miterlimit="10" stroke-width="2"/>
    <polyline fill="none" points="39.5789,40.1579 50.3158,49.1053 49.4211,56.2632" stroke="#000000" stroke-linecap="round" stroke-linejoin="round" stroke-miterlimit="10" stroke-width="2"/>
    <polyline fill="none" points="33.8377,25.7368 32.4211,22.1579 33.3158,20.3684" stroke="#000000" stroke-linecap="round" stroke-linejoin="round" stroke-miterlimit="10" stroke-width="2"/>
    <polyline fill="none" points="37.7895,25.7368 39.2061,22.1579 38.3114,20.3684" stroke="#000000" stroke-linecap="round" stroke-linejoin="round" stroke-miterlimit="10" stroke-width="2"/>
    <ellipse cx="36" cy="29.7632" fill="none" rx="6.2632" ry="4.0263" stroke="#000000" stroke-linecap="round" stroke-linejoin="round" stroke-miterlimit="10" stroke-width="2"/>
    <ellipse cx="36" cy="36.9211" fill="none" rx="4.4737" ry="2.8759" stroke="#000000" stroke-linecap="round" stroke-linejoin="round" stroke-miterlimit="10" stroke-width="2"/>
    <ellipse cx="36" cy="50.3421" fill="none" rx="6.2632" ry="10.2895" stroke="#000000" stroke-linecap="round" stroke-linejoin="round" stroke-miterlimit="10" stroke-width="2"/>
  </g>
</svg>