<svg viewBox="7 7 58 58" xmlns="http://www.w3.org/2000/svg">
  <defs>
    <linearGradient id="yellow-gradient" x1="0%" x2="0%" y1="0%" y2="100%">
      <stop offset="0%" style="stop-color:#FDE02F;stop-opacity:1;"/>
      <stop offset="100%" style="stop-color:#F7B209;stop-opacity:1;"/>
    </linearGradient>
  </defs>
  <g id="color">
    <path d="M36.1089,44.1242 c0,0,21.3368-0.7112,10.6684-20.6256c0,0-2.8449-7.8235-10.6684-7.8235c-2.2075,0-4.0187,0.5096-5.4973,1.2733 c-3.7618,1.9427-5.3718,5.5292-5.8823,6.5502C24.018,24.9211,13.3496,42.7018,36.1089,44.1242z" fill="url(#yellow-gradient)" stroke="url(#yellow-gradient)" stroke-miterlimit="10" stroke-width="1.8"/>
    <path d="M35.3719,30.6032c0,0,5.9251-0.2907,0,5.2324C35.3719,35.8356,29.4468,30.6032,35.3719,30.6032z" fill="#F1B31C" stroke="none"/>
    <path d="M61.6942,37.9501C61.6942,52.3371,50.0313,64,35.6443,64S9.5944,52.3371,9.5944,37.9501l7.4428,3.7214 l6.5125-4.6518l8.3732,5.5821l6.2024-5.5821l8.1758,4.7364l7.0199-5.6667L61.6942,37.9501z" fill="#FFFFFF" stroke="none"/>
    <path d="M53.321,36.0894C51.3406,47.7279,46.2215,57.4929,35.6443,64c14.387,0,26.0499-11.663,26.0499-26.0499 L53.321,36.0894z" fill="#D0CFCE" stroke="none"/>
  </g>
  <g id="line">
    <circle cx="30.908" cy="26.3629" fill="#000000" r="2.3682" stroke="none"/>
    <circle cx="40.3807" cy="26.3629" fill="#000000" r="2.3682" stroke="none"/>
    <line fill="none" stroke="#000000" stroke-linecap="round" stroke-linejoin="round" stroke-miterlimit="10" stroke-width="2" x1="34.7963" x2="33.4334" y1="14.9035" y2="9.7857"/>
    <line fill="none" stroke="#000000" stroke-linecap="round" stroke-linejoin="round" stroke-miterlimit="10" stroke-width="2" x1="36.8284" x2="36.8284" y1="15.7062" y2="12.1539"/>
    <line fill="none" stroke="#000000" stroke-linecap="round" stroke-linejoin="round" stroke-miterlimit="10" stroke-width="2" x1="38.9992" x2="40.3807" y1="15.9035" y2="9.7857"/>
    <path d="M35.3719,30.6032c0,0,5.9251-0.2907,0,5.2324C35.3719,35.8356,29.4468,30.6032,35.3719,30.6032z" fill="none" stroke="#000000" stroke-linecap="round" stroke-linejoin="round" stroke-miterlimit="10" stroke-width="2"/>
    <path d="M49.7637,33.4191c0.0286-2.6167-0.8175-5.8717-2.9865-9.9204c0,0-2.8449-7.8235-10.6684-7.8235 c-2.2075,0-4.0187,0.5096-5.4973,1.2733c-3.7618,1.9427-5.3718,5.5292-5.8823,6.5502c-0.3479,0.6959-3.0787,5.3065-3.1133,10.0017" fill="none" stroke="#000000" stroke-linecap="round" stroke-linejoin="round" stroke-miterlimit="10" stroke-width="2"/>
    <path d="M61.6942,37.9501C61.6942,52.3371,50.0313,64,35.6443,64S9.5944,52.3371,9.5944,37.9501l7.4428,3.7214l6.5125-4.6518l8.3732,5.5821 l6.2024-5.5821l8.1758,4.7364l7.0199-5.6667L61.6942,37.9501z" fill="none" stroke="#000000" stroke-linecap="round" stroke-linejoin="round" stroke-miterlimit="10" stroke-width="2"/>
  </g>
</svg>