<svg viewBox="10 10 52 52" xmlns="http://www.w3.org/2000/svg">
  <defs>
    <linearGradient id="yellow-gradient" x1="0%" x2="0%" y1="0%" y2="100%">
      <stop offset="0%" style="stop-color:#FDE02F;stop-opacity:1;"/>
      <stop offset="100%" style="stop-color:#F7B209;stop-opacity:1;"/>
    </linearGradient>
  </defs>
  <g id="color">
    <path d="M51.989,51.91 C63,43,53.7604,34.196,53.7604,34.196c0-13.0876-10.032-17.4726-15.2722-18.8704c-1.9297-0.5147-3.9633-0.5083-5.88,0.053 C17.1418,19.9076,18.3325,34.196,18.3325,34.196C10,44,19.4396,51.4671,19.4396,51.4671S36.0464,66.0812,51.989,51.91" fill="url(#yellow-gradient)" stroke="url(#yellow-gradient)" stroke-miterlimit="10" stroke-width="2"/>
    <path d="M36.7052,38.8074c0,0,10.4746-0.5149,0,9.2687C36.7052,48.076,26.2306,38.8074,36.7052,38.8074z" fill="#F1B31C" stroke="none"/>
  </g>
  <g id="line">
    <line fill="none" stroke="#000000" stroke-linecap="round" stroke-linejoin="round" stroke-miterlimit="10" stroke-width="2" x1="31.3965" x2="26.968" y1="15.5963" y2="12.2749"/>
    <line fill="none" stroke="#000000" stroke-linecap="round" stroke-linejoin="round" stroke-miterlimit="10" stroke-width="2" x1="34.0536" x2="32.2822" y1="14.4892" y2="10.725"/>
    <line fill="none" stroke="#000000" stroke-linecap="round" stroke-linejoin="round" stroke-miterlimit="10" stroke-width="2" x1="37.5964" x2="37.8178" y1="15.1534" y2="9.3964"/>
    <circle cx="28.9608" cy="32.4246" fill="#000000" r="3" stroke="none"/>
    <circle cx="44" cy="32" fill="#000000" r="3" stroke="none"/>
    <path d="M51.989,51.91C63,43,53.7604,34.196,53.7604,34.196c0-13.0876-10.032-17.4726-15.2722-18.8704 c-1.9297-0.5147-3.9633-0.5083-5.88,0.053C17.1418,19.9076,18.3325,34.196,18.3325,34.196C10,44,19.4396,51.4671,19.4396,51.4671 S36.0464,66.0812,51.989,51.91" fill="none" stroke="#000000" stroke-linecap="round" stroke-linejoin="round" stroke-miterlimit="10" stroke-width="2"/>
    <path d="M36.7052,38.8074c0,0,10.4746-0.5149,0,9.2687C36.7052,48.076,26.2306,38.8074,36.7052,38.8074z" fill="none" stroke="#000000" stroke-linecap="round" stroke-linejoin="round" stroke-miterlimit="10" stroke-width="2"/>
  </g>
</svg>