<svg viewBox="9 9 54 54" xmlns="http://www.w3.org/2000/svg">
  <defs>
    <linearGradient id="yellow-gradient" x1="0%" x2="0%" y1="0%" y2="100%">
      <stop offset="0%" style="stop-color:#FDE02F;stop-opacity:1;"/>
      <stop offset="100%" style="stop-color:#F7B209;stop-opacity:1;"/>
    </linearGradient>
  </defs>
  <g id="color">
    <ellipse cx="36" cy="43" fill="url(#yellow-gradient)" rx="15" ry="11" stroke="url(#yellow-gradient)" stroke-miterlimit="10" stroke-width="1.8"/>
    <path d="M42.25,36c2,9,9,9,9,9c2-6-6-11-6-11c7-6,1-10,1-10c0-10-10.375-11-10.375-11C25.5,15,26.25,24,26.25,24 c-6,4,0.625,9.75,0.625,9.75S19.25,38,21.25,45c0,0,8,0,8-9" fill="url(#yellow-gradient)" stroke="none"/>
    <path d="M36.6219,26.6032c0,0,5.9251-0.2907,0,5.2324C36.6219,31.8356,30.6968,26.6032,36.6219,26.6032z" fill="#F1B31C" stroke="none"/>
  </g>
  <g id="line">
    <path d="M23,49c0,0,4.7974,5.0246,13.48,5.0122C45,54,49,49,49,49" fill="none" stroke="#000000" stroke-linecap="round" stroke-linejoin="round" stroke-miterlimit="10" stroke-width="2"/>
    <line fill="none" stroke="#000000" stroke-linecap="round" stroke-linejoin="round" stroke-miterlimit="10" stroke-width="2" x1="33.625" x2="31.125" y1="13.5" y2="11.625"/>
    <line fill="none" stroke="#000000" stroke-linecap="round" stroke-linejoin="round" stroke-miterlimit="10" stroke-width="2" x1="35.125" x2="34.125" y1="12.875" y2="10.75"/>
    <line fill="none" stroke="#000000" stroke-linecap="round" stroke-linejoin="round" stroke-miterlimit="10" stroke-width="2" x1="37.125" x2="37.25" y1="13.25" y2="10"/>
    <polyline fill="none" points="31.3458,53.7306 30.375,58.25 27.25,60" stroke="#000000" stroke-linecap="round" stroke-linejoin="round" stroke-miterlimit="10" stroke-width="2"/>
    <line fill="none" stroke="#000000" stroke-linecap="round" stroke-linejoin="round" stroke-miterlimit="10" stroke-width="2" x1="33.25" x2="30.25" y1="59" y2="58"/>
    <polyline fill="none" points="40.1542,53.7306 41.125,58.25 44.25,60" stroke="#000000" stroke-linecap="round" stroke-linejoin="round" stroke-miterlimit="10" stroke-width="2"/>
    <line fill="none" stroke="#000000" stroke-linecap="round" stroke-linejoin="round" stroke-miterlimit="10" stroke-width="2" x1="38.25" x2="41.25" y1="59" y2="58"/>
    <circle cx="32.25" cy="23" fill="#000000" r="2" stroke="none"/>
    <circle cx="40.25" cy="23" fill="#000000" r="2" stroke="none"/>
    <path d="M36.3719,26.6032c0,0,5.9132-0.2907,0,5.2324C36.3719,31.8356,30.4587,26.6032,36.3719,26.6032z" fill="none" stroke="#000000" stroke-linecap="round" stroke-linejoin="round" stroke-miterlimit="10" stroke-width="2"/>
    <path d="M42,36c2,9,9,9,9,9c2-6-6-11-6-11c7-6,1-10,1-10c0-10-10.375-11-10.375-11C25.25,15,26,24,26,24c-6,4,0.625,9.75,0.625,9.75 S19,38,21,45c0,0,8,0,8-9" fill="none" stroke="#000000" stroke-linecap="round" stroke-linejoin="round" stroke-miterlimit="10" stroke-width="2"/>
  </g>
</svg>