<svg viewBox="6 6 60 60" xmlns="http://www.w3.org/2000/svg">
  <defs>
    <linearGradient id="yellow-gradient" x1="0%" x2="0%" y1="0%" y2="100%">
      <stop offset="0%" style="stop-color:#FDE02F;stop-opacity:1;"/>
      <stop offset="100%" style="stop-color:#F7B209;stop-opacity:1;"/>
    </linearGradient>
  </defs>
  <g id="color">
    <path d="M7.6875,31.4375c7.1875,11.9375,20.4718,18.9653,29.5625,21.5c4.5378,1.2652,16.125,9.75,16.125,9.75 S50.4832,54.1918,50,51.25c-1.8349-11.1713,13.0625-12.5,14.5311-20.4657C56,10.9583,26-6.6875,7.6875,31.4375z" fill="#FFFFFF"/>
    <circle cx="36" cy="30.5" fill="#A57939" r="14.2224"/>
  </g>
  <g id="line">
    <path d="M7.6875,31.4375c7.1875,11.9375,20.4718,18.9653,29.5625,21.5c4.5378,1.2652,16.125,9.75,16.125,9.75S50.4832,54.1918,50,51.25 c-1.8349-11.1713,13.0625-12.5,14.5311-20.4657C56,10.9583,26-6.6875,7.6875,31.4375z" fill="none" stroke="#000000" stroke-linecap="round" stroke-linejoin="round" stroke-miterlimit="10" stroke-width="2"/>
    <circle cx="36" cy="30.5" r="7.7815"/>
    <circle cx="36" cy="30.5" fill="none" r="14.2224" stroke="#000000" stroke-linecap="round" stroke-linejoin="round" stroke-miterlimit="10" stroke-width="2"/>
    <circle cx="36" cy="30.5" fill="none" r="7.7815" stroke="#000000" stroke-linecap="round" stroke-linejoin="round" stroke-miterlimit="10" stroke-width="2"/>
  </g>
</svg>