<svg viewBox="6 6 60 60" xmlns="http://www.w3.org/2000/svg">
  <defs>
    <linearGradient id="yellow-gradient" x1="0%" x2="0%" y1="0%" y2="100%">
      <stop offset="0%" style="stop-color:#FDE02F;stop-opacity:1;"/>
      <stop offset="100%" style="stop-color:#F7B209;stop-opacity:1;"/>
    </linearGradient>
  </defs>
  <g id="skin">
    <path d="M26.3028,55.2881c-11.975,0-18.3906-7.1612-18.3906-16.2494s5.9358-19.2913,31.1527-16.6171" fill="url(#yellow-gradient)" stroke="none"/>
    <line fill="url(#yellow-gradient)" stroke="none" x1="25.2415" x2="37.2415" y1="55.4945" y2="55.4945"/>
    <path d="M37.5349,48.5022c1.9313,0.081,3.4313,1.7123,3.3502,3.6436c-0.081,1.9313-1.7123,3.4313-3.6436,3.3502" fill="url(#yellow-gradient)" stroke="none"/>
    <path d="M37.7678,41.5052c1.9313,0.081,3.4313,1.7123,3.3502,3.6436c-0.081,1.9313-1.7123,3.4313-3.6436,3.3502" fill="url(#yellow-gradient)" stroke="none"/>
    <path d="M37.9016,41.5093c1.9268,0.155,3.3631,1.8426,3.2081,3.7694c-0.155,1.9268-1.8426,3.3631-3.7694,3.2081" fill="url(#yellow-gradient)" stroke="none"/>
    <path d="M38.2461,34.4677c1.929,0.1237,3.3925,1.7878,3.2688,3.7168s-1.7878,3.3925-3.7168,3.2688" fill="url(#yellow-gradient)" stroke="none"/>
    <path d="M28.9418,22.9544c7.6195-5.8672,10.6867-6.7449,12.0296-5.3546c1.3429,1.3904-0.7837,5.6942-2.1741,7.0371" fill="url(#yellow-gradient)" stroke="none"/>
    <path d="M60.6184,27.4677c1.933,0,3.5,1.567,3.5,3.5s-1.567,3.5-3.5,3.5" fill="url(#yellow-gradient)" stroke="none"/>
    <line fill="url(#yellow-gradient)" stroke="none" x1="38.2831" x2="60.6184" y1="34.4677" y2="34.4677"/>
    <line fill="url(#yellow-gradient)" stroke="none" x1="60.6184" x2="32.8278" y1="27.4677" y2="27.4677"/>
    <line fill="url(#yellow-gradient)" stroke="none" x1="38.6717" x2="40.8855" y1="24.5068" y2="22.5488"/>
    <path d="M33.7028,19.2815c-2.1439,1.9526-5.1677,3.3734-9.5218,3.3013" fill="url(#yellow-gradient)" stroke="none"/>
    <line fill="url(#yellow-gradient)" stroke="none" x1="36.0224" x2="33.6423" y1="17.5139" y2="19.3353"/>
    <polygon fill="url(#yellow-gradient)" points="33.2028,34.5778 35.1704,27.5153 60.9528,27.5153 60.9528,34.4677" stroke="none"/>
    <rect fill="url(#yellow-gradient)" height="12.2262" stroke="none" transform="matrix(-1.836970e-16 1 -1 -1.836970e-16 77.2085 12.8684)" width="20.9214" x="21.7093" y="38.9254"/>
    <polygon fill="url(#yellow-gradient)" points="35.0621,27.4677 36.0569,24.8121 39.2427,25.3211 36.313,27.4853" stroke="none"/>
  </g>
  <g id="line">
    <path d="M24.3679,55.4945c-9.0883,0-16.4558-7.3675-16.4558-16.4558s7.3675-16.4558,16.4558-16.4558" fill="none" stroke="#000000" stroke-linecap="round" stroke-linejoin="round" stroke-miterlimit="10" stroke-width="2"/>
    <line fill="none" stroke="#000000" stroke-linecap="round" stroke-linejoin="round" stroke-miterlimit="10" stroke-width="2" x1="25.2415" x2="37.2415" y1="55.4945" y2="55.4945"/>
    <path d="M37.5349,48.5022c1.9313,0.081,3.4313,1.7123,3.3502,3.6436c-0.081,1.9313-1.7123,3.4313-3.6436,3.3502" fill="none" stroke="#000000" stroke-linecap="round" stroke-linejoin="round" stroke-miterlimit="10" stroke-width="2"/>
    <path d="M37.7678,41.5052c1.9313,0.081,3.4313,1.7123,3.3502,3.6436c-0.081,1.9313-1.7123,3.4313-3.6436,3.3502" fill="none" stroke="#000000" stroke-linecap="round" stroke-linejoin="round" stroke-miterlimit="10" stroke-width="2"/>
    <path d="M37.9016,41.5093c1.9268,0.155,3.3631,1.8426,3.2081,3.7694c-0.155,1.9268-1.8426,3.3631-3.7694,3.2081" fill="none" stroke="#000000" stroke-linecap="round" stroke-linejoin="round" stroke-miterlimit="10" stroke-width="2"/>
    <path d="M38.2461,34.4677c1.929,0.1237,3.3925,1.7878,3.2688,3.7168s-1.7878,3.3925-3.7168,3.2688" fill="none" stroke="#000000" stroke-linecap="round" stroke-linejoin="round" stroke-miterlimit="10" stroke-width="2"/>
    <path d="M36.0224,17.5139c1.3904-1.3429,3.6061-1.3044,4.949,0.086c1.3429,1.3904,1.3044,3.6061-0.086,4.949" fill="none" stroke="#000000" stroke-linecap="round" stroke-linejoin="round" stroke-miterlimit="10" stroke-width="2"/>
    <path d="M60.6184,27.4677c1.933,0,3.5,1.567,3.5,3.5s-1.567,3.5-3.5,3.5" fill="none" stroke="#000000" stroke-linecap="round" stroke-linejoin="round" stroke-miterlimit="10" stroke-width="2"/>
    <line fill="none" stroke="#000000" stroke-linecap="round" stroke-linejoin="round" stroke-miterlimit="10" stroke-width="2" x1="38.2831" x2="60.6184" y1="34.4677" y2="34.4677"/>
    <line fill="none" stroke="#000000" stroke-linecap="round" stroke-linejoin="round" stroke-miterlimit="10" stroke-width="2" x1="60.6184" x2="32.8278" y1="27.4677" y2="27.4677"/>
    <line fill="none" stroke="#000000" stroke-linecap="round" stroke-linejoin="round" stroke-miterlimit="10" stroke-width="2" x1="38.6717" x2="40.8855" y1="24.5068" y2="22.5488"/>
    <path d="M33.7028,19.2815c-2.1439,1.9526-5.1677,3.3734-9.5218,3.3013" fill="none" stroke="#000000" stroke-linecap="round" stroke-linejoin="round" stroke-miterlimit="10" stroke-width="2"/>
    <line fill="none" stroke="#000000" stroke-linecap="round" stroke-linejoin="round" stroke-miterlimit="10" stroke-width="2" x1="36.0224" x2="33.6423" y1="17.5139" y2="19.3353"/>
  </g>
</svg>