<svg viewBox="10 10 52 52" xmlns="http://www.w3.org/2000/svg">
  <defs>
    <linearGradient id="yellow-gradient" x1="0%" x2="0%" y1="0%" y2="100%">
      <stop offset="0%" style="stop-color:#FDE02F;stop-opacity:1;"/>
      <stop offset="100%" style="stop-color:#F7B209;stop-opacity:1;"/>
    </linearGradient>
  </defs>
  <g id="skin">
    <path d="M46.0495,41.9032c-1.0781-3.8065-4.3718-14.867-3.1714-30.0282h-13.391 c1.2004,15.1611-2.0933,26.2217-3.1714,30.0282" fill="#a57939" stroke="#a57939"/>
    <path d="M50.25,36.7078c7.5833,4.6667,2.8334,12.7522-1.6875,14.0214C44.6425,51.8296,46,60.0682,36,60.0417 c-10,0.0265-8.6425-8.212-12.5625-9.3125c-4.5209-1.2691-9.2818-9.3547-1.6984-14.0214" fill="#a57939" stroke="#a57939"/>
  </g>
  <g id="line">
    <path d="M29.4871,12.875c1.2004,14.6562-2.0933,25.3484-3.1714,29.0282" fill="none" stroke="#000000" stroke-linecap="round" stroke-linejoin="round" stroke-miterlimit="10" stroke-width="2"/>
    <path d="M42.8781,12.875c-1.2004,14.6562,2.0933,25.3484,3.1714,29.0282" fill="none" stroke="#000000" stroke-linecap="round" stroke-linejoin="round" stroke-miterlimit="10" stroke-width="2"/>
    <path d="M50.25,37.7083c7.5833,4.6667,2.8334,11.7517-1.6875,13.0208C44.6425,51.8296,46,60.0682,36,60.0417 c-10,0.0265-8.6425-8.212-12.5625-9.3125C18.9166,49.46,14.1667,42.375,21.75,37.7083" fill="none" stroke="#000000" stroke-linecap="round" stroke-linejoin="round" stroke-miterlimit="10" stroke-width="2"/>
  </g>
</svg>