<svg viewBox="8 8 56 56" xmlns="http://www.w3.org/2000/svg">
  <defs>
    <linearGradient id="yellow-gradient" x1="0%" x2="0%" y1="0%" y2="100%">
      <stop offset="0%" style="stop-color:#FDE02F;stop-opacity:1;"/>
      <stop offset="100%" style="stop-color:#F7B209;stop-opacity:1;"/>
    </linearGradient>
  </defs>
  <g id="color">
    <path d="M15.625,21.75c0,0,18.6733,0,41.75,0" fill="none" stroke="none"/>
    <path d="M56.9668,16.7774c0,6-41.7793,7.8191-41.3418,1.0066C5.9695,53.0227,24.9617,60.375,36.5,60.375 S68.3952,54.3545,56.9668,16.7774z" fill="#ea5a47" stroke="none"/>
  </g>
  <g id="line">
    <path d="M62.4167,12.5C56.2812,19.625,48.9688,22.1893,36,22.1875C23.0312,22.1893,15.7188,19.625,9.5833,12.5" fill="none" stroke="#000000" stroke-linecap="round" stroke-linejoin="round" stroke-miterlimit="10" stroke-width="2"/>
    <path d="M62.4167,12.5C56.2812,19.625,48.9688,22.1893,36,22.1875C23.0312,22.1893,15.7188,19.625,9.5833,12.5" fill="none" stroke="#000000" stroke-linecap="round" stroke-linejoin="round" stroke-miterlimit="10" stroke-width="2"/>
    <path d="M57.375,21.75C66.5,55.1875,48.0383,60.375,36.5,60.375s-30-5.1875-20.875-38.625" fill="none" stroke="#000000" stroke-linecap="round" stroke-linejoin="round" stroke-miterlimit="10" stroke-width="2"/>
    <line fill="none" stroke="#000000" stroke-linecap="round" stroke-linejoin="round" stroke-miterlimit="10" stroke-width="2" x1="36.5" x2="36.5" y1="60.375" y2="34.1955"/>
  </g>
</svg>