<svg viewBox="6 6 60 60" xmlns="http://www.w3.org/2000/svg">
  <defs>
    <linearGradient id="yellow-gradient" x1="0%" x2="0%" y1="0%" y2="100%">
      <stop offset="0%" style="stop-color:#FDE02F;stop-opacity:1;"/>
      <stop offset="100%" style="stop-color:#F7B209;stop-opacity:1;"/>
    </linearGradient>
  </defs>
  <g id="color">
    <path d="M37.6214,29.6711c-2.5604,0-4.9347,1.7605-4.9347,2.8289s-2,35.4131-2,35.4131H17.625V28.5V16v-5.0417h20h20V16v12.5v39.4131 H44.5633c0,0-2-34.3446-2-35.4131s-2.3743-2.8289-4.9347-2.8289" fill="#61B2E4" stroke="none" stroke-linecap="round" stroke-linejoin="round" stroke-miterlimit="10" stroke-width="2"/>
  </g>
  <g id="line">
    <path d="M37.6214,29.6711c-2.5604,0-4.9347,1.7605-4.9347,2.8289s-2,35.4131-2,35.4131H17.625V28.5V16v-5.0417h20h20V16v12.5v39.4131 H44.5633c0,0-2-34.3446-2-35.4131s-2.3743-2.8289-4.9347-2.8289" fill="none" stroke="#000000" stroke-linecap="round" stroke-linejoin="round" stroke-miterlimit="10" stroke-width="2"/>
    <circle cx="38.125" cy="16.0705" fill="#000000" r="2" stroke="none"/>
    <path d="M48.8653,14.328c0,0-2.403,8.938,6.0876,11.4666" fill="none" stroke="#000000" stroke-linecap="round" stroke-linejoin="round" stroke-miterlimit="10" stroke-width="2"/>
    <path d="M26.3847,14.328c0,0,2.403,8.938-6.0876,11.4666" fill="none" stroke="#000000" stroke-linecap="round" stroke-linejoin="round" stroke-miterlimit="10" stroke-width="2"/>
  </g>
</svg>