<svg viewBox="9 9 54 54" xmlns="http://www.w3.org/2000/svg">
  <defs>
    <linearGradient id="yellow-gradient" x1="0%" x2="0%" y1="0%" y2="100%">
      <stop offset="0%" style="stop-color:#FDE02F;stop-opacity:1;"/>
      <stop offset="100%" style="stop-color:#F7B209;stop-opacity:1;"/>
    </linearGradient>
  </defs>
  <g id="color">
    <path d="M14.5371,29.8485V24.594c0,0,11.7262-1.1745,21.4627-1.1745s21.4784,1.1745,21.4784,1.1745v5.2545" fill="#D0CFCE" stroke="none"/>
    <path d="M36,27.8933H18.2944C18.2944,38.8402,11,41.9357,11,48.999s11.1929,12.2992,25,12.2992s25-5.2359,25-12.2992 s-7.2944-10.1588-7.2944-21.1057H36z" fill="#8967AA" stroke="none" stroke-linecap="round" stroke-linejoin="round" stroke-miterlimit="10" stroke-width="2"/>
    <path d="M44.0272,27.8933c0,0,9.5808,9.9741,5.9505,31.3757C49.6967,60.9256,61,53.4135,61,48.999 c0-7.0633-7.2944-10.1588-7.2944-21.1057H44.0272" fill="#B399C8" stroke="none"/>
    <circle cx="37.6921" cy="14.942" fill="#D0CFCE" r="3.937" stroke="none"/>
    <circle cx="33.012" cy="13.7019" fill="#D0CFCE" r="3" stroke="none" stroke-linecap="round" stroke-linejoin="round" stroke-miterlimit="10" stroke-width="2"/>
    <path d="M38.5215,12.0002c1.5921,0.4585,2.5111,2.1209,2.0526,3.7131s-2.1209,2.5111-3.7131,2.0526" fill="#D0CFCE" stroke="none" stroke-linecap="round" stroke-linejoin="round" stroke-miterlimit="10" stroke-width="2"/>
  </g>
  <g id="line">
    <path d="M36,27.8933H18.2944C18.2944,38.8402,11,41.9357,11,48.999s11.1929,12.2992,25,12.2992s25-5.2359,25-12.2992 s-7.2944-10.1588-7.2944-21.1057H36z" fill="none" stroke="#000000" stroke-linecap="round" stroke-linejoin="round" stroke-miterlimit="10" stroke-width="2"/>
    <path d="M14.5371,28.8933v-4.4738c0,0,11.7262-1,21.4627-1s21.4784,1,21.4784,1v4.4738" fill="none" stroke="#000000" stroke-linecap="round" stroke-linejoin="round" stroke-miterlimit="10" stroke-width="2"/>
    <polyline fill="none" points="18.6989,20.362 24.9529,20.362 28.355,17.396" stroke="#000000" stroke-linecap="round" stroke-linejoin="round" stroke-miterlimit="10" stroke-width="2"/>
    <polyline fill="none" points="50.1012,20.362 43.8472,20.362 42.1461,18.879" stroke="#000000" stroke-linecap="round" stroke-linejoin="round" stroke-miterlimit="10" stroke-width="2"/>
    <circle cx="33.012" cy="13.7019" fill="none" r="3" stroke="#000000" stroke-linecap="round" stroke-linejoin="round" stroke-miterlimit="10" stroke-width="2"/>
    <path d="M38.5215,12.0002c1.5921,0.4585,2.5111,2.1209,2.0526,3.7131s-2.1209,2.5111-3.7131,2.0526" fill="none" stroke="#000000" stroke-linecap="round" stroke-linejoin="round" stroke-miterlimit="10" stroke-width="2"/>
    <path d="M36,27.8933H18.2944C18.2944,38.8402,11,41.9357,11,48.999s11.1929,12.2992,25,12.2992s25-5.2359,25-12.2992 s-7.2944-10.1588-7.2944-21.1057H36z" fill="none" stroke="#000000" stroke-linecap="round" stroke-linejoin="round" stroke-miterlimit="10" stroke-width="2"/>
  </g>
</svg>