<svg viewBox="7 7 58 58" xmlns="http://www.w3.org/2000/svg">
  <defs>
    <linearGradient id="yellow-gradient" x1="0%" x2="0%" y1="0%" y2="100%">
      <stop offset="0%" style="stop-color:#FDE02F;stop-opacity:1;"/>
      <stop offset="100%" style="stop-color:#F7B209;stop-opacity:1;"/>
    </linearGradient>
  </defs>
  <g id="color">
    <path d="M16.4116,17.0402l-7.3166,8.1192 c0,0,1.3568,2.9628,7.282,5.0874l3.5563,1.3571" fill="#8967AA" stroke="#8967AA" stroke-miterlimit="10" stroke-width="2"/>
    <path d="M16.4116,17.0402l-7.7891,7.7891c0,0,1.8293,3.2929,7.7545,5.4175" fill="#8967AA" stroke="none"/>
    <path d="M56.5884,17.0402L63.8468,25.2 c0,0-1.2986,2.9221-7.2238,5.0468l-3.3807,1.3017" fill="#8967AA" stroke="#8967AA" stroke-miterlimit="10" stroke-width="2"/>
    <path d="M56.5884,17.0402l7.7891,7.7891c0,0-1.8293,3.2929-7.7545,5.4175" fill="#8967AA" stroke="none" stroke-linecap="round" stroke-linejoin="round" stroke-miterlimit="10" stroke-width="2.0957"/>
    <path d="M29.4473,16c0,1.4542,3.2125,2.6331,7.1753,2.6331S43.7978,17.4542,43.7978,16h2.9358l-2.9358,13.6195 l-8.155,5.3237l-8.8069-8.9978l-1.6335-9.903L29.4473,16z" fill="#B399C8" stroke="none"/>
    <path d="M36.3775,60.9583h-20c0,0,3.908-7.2615,3.908-21.9591s-3.908-21.9591-3.908-21.9591h9.8889c0,6.0818,5.337,6.6033,5.337,6.6033 l4.7741,10.2047h0.245l4.7741-10.2047c0,0,5.3369-0.5215,5.3369-6.6033h9.8889c0,0-3.908,7.2615-3.908,21.9591 s3.908,21.9591,3.908,21.9591h-20" fill="#8967AA" stroke="none" stroke-linecap="round" stroke-linejoin="round" stroke-miterlimit="10" stroke-width="2.0957"/>
  </g>
  <g id="line">
    <path d="M56.5884,17.0402l7.7891,7.7891c0,0-1.8293,3.2929-7.7545,5.4175" fill="none" stroke="#000000" stroke-linecap="round" stroke-linejoin="round" stroke-miterlimit="10" stroke-width="2.0957"/>
    <path d="M16.4116,17.0402l-7.7891,7.7891c0,0,1.8293,3.2929,7.7545,5.4175" fill="none" stroke="#000000" stroke-linecap="round" stroke-linejoin="round" stroke-miterlimit="10" stroke-width="2.0957"/>
    <path d="M36.3775,60.9583h-20c0,0,3.908-7.2615,3.908-21.9591s-3.908-21.9591-3.908-21.9591h9.8889c0,6.0818,5.337,6.6033,5.337,6.6033 l4.7741,10.2047h0.245l4.7741-10.2047c0,0,5.3369-0.5215,5.3369-6.6033h9.8889c0,0-3.908,7.2615-3.908,21.9591 s3.908,21.9591,3.908,21.9591h-20" fill="none" stroke="#000000" stroke-linecap="round" stroke-linejoin="round" stroke-miterlimit="10" stroke-width="2.0957"/>
    <path d="M43.7978,17c0,1.3775-3.2125,2.4941-7.1753,2.4941S29.4473,18.3775,29.4473,17" fill="none" stroke="#000000" stroke-linecap="round" stroke-linejoin="round" stroke-miterlimit="10" stroke-width="2"/>
  </g>
</svg>