<svg viewBox="0 0 72 72" xmlns="http://www.w3.org/2000/svg">
  <defs>
    <linearGradient id="yellow-gradient" x1="0%" x2="0%" y1="0%" y2="100%">
      <stop offset="0%" style="stop-color:#FDE02F;stop-opacity:1;"/>
      <stop offset="100%" style="stop-color:#F7B209;stop-opacity:1;"/>
    </linearGradient>
  </defs>
  <g id="color">
    <path d="M36,24.6438L29.4165,16V4h-5.5052v12c0,6.0279,4.0037,19.9583,4.0037,19.9583L16,67.9792h20h20L44.0849,35.9583 c0,0,4.0037-13.9304,4.0037-19.9583V4h-5.5052v12L36,24.6438z" fill="#61B2E4" stroke="none" stroke-linecap="round" stroke-linejoin="round" stroke-miterlimit="10" stroke-width="2"/>
  </g>
  <g id="line">
    <path d="M36,24.6438L29.4165,16V4h-5.5052v12c0,6.0279,4.0037,19.9583,4.0037,19.9583L16,67.9792h20h20L44.0849,35.9583 c0,0,4.0037-13.9304,4.0037-19.9583V4h-5.5052v12L36,24.6438z" fill="none" stroke="#000000" stroke-linecap="round" stroke-linejoin="round" stroke-miterlimit="10" stroke-width="2"/>
    <line fill="none" stroke="#000000" stroke-linecap="round" stroke-linejoin="round" stroke-miterlimit="10" stroke-width="2" x1="31.6821" x2="40.3264" y1="35.9583" y2="35.9583"/>
  </g>
</svg>