<svg viewBox="9 9 54 54" xmlns="http://www.w3.org/2000/svg">
  <defs>
    <linearGradient id="yellow-gradient" x1="0%" x2="0%" y1="0%" y2="100%">
      <stop offset="0%" style="stop-color:#FDE02F;stop-opacity:1;"/>
      <stop offset="100%" style="stop-color:#F7B209;stop-opacity:1;"/>
    </linearGradient>
  </defs>
  <g id="color">
    <path d="M56.2271,53.8787h-37.194c-3.4707,0-6.2227-2.9267-6.0092-6.3909l1.2581-20.4171c0.1957-3.1753,2.8279-5.6503,6.0092-5.6503 h34.6779c3.1813,0,5.8136,2.4751,6.0092,5.6503l1.2581,20.4171C62.4498,50.952,59.6978,53.8787,56.2271,53.8787z" fill="#A57939" stroke="none" stroke-linecap="round" stroke-linejoin="round" stroke-miterlimit="10" stroke-width="2"/>
  </g>
  <g id="line">
    <path d="M56.2271,53.8787h-37.194c-3.4707,0-6.2227-2.9267-6.0092-6.3909l1.2581-20.4171c0.1957-3.1753,2.8279-5.6503,6.0092-5.6503 h34.6779c3.1813,0,5.8136,2.4751,6.0092,5.6503l1.2581,20.4171C62.4498,50.952,59.6978,53.8787,56.2271,53.8787z" fill="none" stroke="#000000" stroke-linecap="round" stroke-linejoin="round" stroke-miterlimit="10" stroke-width="2"/>
    <path d="M17.3646,30.0178c0.1698-3.1753,1.4545-5.6503,4.2158-5.6503h32.0995c2.7613,0,4.046,2.4751,4.2158,5.6503" fill="none" stroke="#000000" stroke-linecap="round" stroke-linejoin="round" stroke-miterlimit="10" stroke-width="1.8633"/>
    <line fill="none" stroke="#000000" stroke-linecap="round" stroke-linejoin="round" stroke-miterlimit="10" stroke-width="2" x1="13.2921" x2="10.752" y1="21.7573" y2="19.2172"/>
  </g>
</svg>