<svg viewBox="0 0 72 72" xmlns="http://www.w3.org/2000/svg">
  <defs>
    <linearGradient id="yellow-gradient" x1="0%" x2="0%" y1="0%" y2="100%">
      <stop offset="0%" style="stop-color:#FDE02F;stop-opacity:1;"/>
      <stop offset="100%" style="stop-color:#F7B209;stop-opacity:1;"/>
    </linearGradient>
  </defs>
  <g id="color">
    <rect fill="#FFFFFF" height="7.2668" width="64" x="4" y="51.624"/>
    <circle cx="35.9962" cy="16.008" fill="#FFFFFF" r="5"/>
    <rect fill="#F1B31C" height="7.2668" width="64" x="4" y="51.624"/>
    <path d="M7,11c2.7614,0,5,2.2386,5,5s-2.2386,5-5,5" fill="url(#yellow-gradient)"/>
    <path d="M65,21c-2.7614,0-5-2.2386-5-5s2.2386-5,5-5" fill="url(#yellow-gradient)"/>
    <path d="M64.9674,17.4945c0,9.0811-7.3617,16.4428-16.4428,16.4428H48.238 c-9.0811,0-11.4428-7.3617-11.4428-16.4428h-2.0738c0,9.0811-2.3617,16.4428-11.4428,16.4428h0.1643 c-5.3121,0-10.0359-2.519-13.0419-6.4277C8.2681,24.7363,7,21.2635,7,17.4945V11v40.624h58V11" fill="url(#yellow-gradient)"/>
    <circle cx="35.9962" cy="16.008" fill="url(#yellow-gradient)" r="5"/>
  </g>
  <g id="line">
    <rect fill="none" height="7.2668" stroke="#000000" stroke-linecap="round" stroke-linejoin="round" stroke-miterlimit="10" stroke-width="2" width="64" x="4" y="51.624"/>
    <polyline fill="none" points="7,11 7,51.624 65,51.624 65,11" stroke="#000000" stroke-linecap="round" stroke-linejoin="round" stroke-miterlimit="10" stroke-width="2"/>
    <path d="M7,11c2.7614,0,5,2.2386,5,5s-2.2386,5-5,5" fill="none" stroke="#000000" stroke-linecap="round" stroke-linejoin="round" stroke-miterlimit="10" stroke-width="2"/>
    <path d="M23.4428,33.9373c-5.3121,0-10.0359-2.519-13.0419-6.4277C8.2681,24.7363,7,21.2635,7,17.4945" fill="none" stroke="#000000" stroke-linecap="round" stroke-linejoin="round" stroke-miterlimit="10" stroke-width="2"/>
    <path d="M64.9674,17.4945c0,9.0811-7.3617,16.4428-16.4428,16.4428" fill="none" stroke="#000000" stroke-linecap="round" stroke-linejoin="round" stroke-miterlimit="10" stroke-width="2"/>
    <circle cx="35.9962" cy="16.008" fill="none" r="5" stroke="#000000" stroke-linecap="round" stroke-linejoin="round" stroke-miterlimit="10" stroke-width="2"/>
    <path d="M65,21c-2.7614,0-5-2.2386-5-5s2.2386-5,5-5" fill="none" stroke="#000000" stroke-linecap="round" stroke-linejoin="round" stroke-miterlimit="10" stroke-width="2"/>
    <rect fill="none" height="7.2668" stroke="#000000" stroke-linecap="round" stroke-linejoin="round" stroke-miterlimit="10" stroke-width="2" width="64" x="4" y="51.624"/>
    <path d="M7,11c2.7614,0,5,2.2386,5,5s-2.2386,5-5,5" fill="none" stroke="#000000" stroke-linecap="round" stroke-linejoin="round" stroke-miterlimit="10" stroke-width="2"/>
    <path d="M65,21c-2.7614,0-5-2.2386-5-5s2.2386-5,5-5" fill="none" stroke="#000000" stroke-linecap="round" stroke-linejoin="round" stroke-miterlimit="10" stroke-width="2"/>
    <path d="M34.597,20.8744c-0.5876,7.4597-3.3959,13.0629-11.3184,13.0629h0.1643c-5.3121,0-10.0359-2.519-13.0419-6.4277 C8.2681,24.7363,7,21.2635,7,17.4945V11v40.624h58V11" fill="none" stroke="#000000" stroke-linecap="round" stroke-linejoin="round" stroke-miterlimit="10" stroke-width="2"/>
    <path d="M64.9674,17.4945c0,9.0811-7.3617,16.4428-16.4428,16.4428H48.238c-7.9061,0-10.7191-5.5799-11.3147-13.0163" fill="none" stroke="#000000" stroke-linecap="round" stroke-linejoin="round" stroke-miterlimit="10" stroke-width="2"/>
    <circle cx="35.9962" cy="16.008" fill="none" r="5" stroke="#000000" stroke-linecap="round" stroke-linejoin="round" stroke-miterlimit="10" stroke-width="2"/>
  </g>
</svg>