<svg viewBox="6 6 60 60" xmlns="http://www.w3.org/2000/svg">
  <defs>
    <linearGradient id="yellow-gradient" x1="0%" x2="0%" y1="0%" y2="100%">
      <stop offset="0%" style="stop-color:#FDE02F;stop-opacity:1;"/>
      <stop offset="100%" style="stop-color:#F7B209;stop-opacity:1;"/>
    </linearGradient>
  </defs>
  <g id="skin">
    <g id="skin-b">
      <circle cx="47" cy="11" fill="#fadcbc" r="3"/>
      <path d="M52,24c-2.4,3.3-0.6,6.1,0,8c0.5,1.4,0.7,4.4,0.8,5.9c0.6,5.9,1.1,24,1.1,24c0.1,1.1-0.7,1.8-1.5,1.8 s-1.4-0.6-1.5-1.3l-2.7-23.3C48.1,38.5,47.7,38,47,38s-1.1,0.5-1.2,1.1l-2.7,23.3c-0.1,0.7-0.7,1.3-1.5,1.3S40,63,40.1,61.9 c0,0,0.4-18.2,1-24.2c0.1-1.4,0.4-4.3,0.9-5.6c0.6-1.9,2.3-4.5,0-8" fill="#fadcbc"/>
      <path d="M56,42.9c-3.3,0-5.5-18.3-9-18.3s-7.2,18.3-11,18.3c0,0,2.1-5.7,2.5-10.6c0.2-2.5,0.3-9.3,0.3-9.3 c0.1-2.8,2.4-5,5.2-5h6c2.8,0,5.1,2.2,5.2,5L56,42.9z" fill="#fadcbc"/>
    </g>
    <g id="skin-a">
      <circle cx="25" cy="11" fill="#a57939" r="3"/>
      <path d="M30,24c-2.4,3.5-0.7,6.1,0,8c0.5,1.3,0.8,4.2,0.9,5.6c0.6,6,1,24.2,1,24.2c0.1,1.1-0.7,1.8-1.5,1.8 S29,63,28.9,62.3L26.2,39c-0.1-0.6-0.5-1.1-1.2-1.1s-1.1,0.5-1.2,1.1l-2.7,23.3c-0.1,0.7-0.7,1.3-1.5,1.3s-1.6-0.7-1.5-1.8 c0,0,0.5-18.1,1.1-24c0.1-1.5,0.4-4.4,0.8-5.9c0.6-1.9,2.4-4.7,0-8" fill="#a57939"/>
      <path d="M16.8,23c0.1-2.8,2.4-5,5.2-5h6c2.8,0,5.1,2.2,5.2,5c0,0,0.1,6.7,0.3,9.3c0.4,4.9,2.5,10.6,2.5,10.6 c-3.8,0-7.5-18.3-11-18.3s-5.7,18.3-9,18.3L16.8,23z" fill="#a57939"/>
    </g>
  </g>
  <g id="line">
    <circle cx="25" cy="11" fill="none" r="3" stroke="#000000" stroke-miterlimit="10" stroke-width="2"/>
    <path d="M16,41.9L16.8,23 c0.1-2.8,2.4-5,5.2-5h6c2.8,0,5.1,2.2,5.2,5c0,0,0.1,6.7,0.3,9.3c0.4,4.9,2.5,9.6,2.5,9.6" fill="none" stroke="#000000" stroke-linecap="round" stroke-linejoin="round" stroke-width="2"/>
    <path d="M30,24 c-2.4,3.5-0.7,6.1,0,8c0.5,1.3,0.8,4.2,0.9,5.6c0.6,6,1,24.2,1,24.2c0.1,1.1-0.7,1.8-1.5,1.8S29,63,28.9,62.3L26.2,39 c-0.1-0.6-0.5-1.1-1.2-1.1s-1.1,0.5-1.2,1.1l-2.7,23.3c-0.1,0.7-0.7,1.3-1.5,1.3s-1.6-0.7-1.5-1.8c0,0,0.5-18.1,1.1-24 c0.1-1.5,0.4-4.4,0.8-5.9c0.6-1.9,2.4-4.7,0-8" fill="none" stroke="#000000" stroke-linecap="round" stroke-linejoin="round" stroke-width="2"/>
    <circle cx="47" cy="11" fill="none" r="3" stroke="#000000" stroke-miterlimit="10" stroke-width="2"/>
    <path d="M36,41.9 c0,0,2.1-4.7,2.5-9.6c0.2-2.5,0.3-9.3,0.3-9.3c0.1-2.8,2.4-5,5.2-5h6c2.8,0,5.1,2.2,5.2,5L56,41.9" fill="none" stroke="#000000" stroke-linecap="round" stroke-linejoin="round" stroke-width="2"/>
    <path d="M52,24 c-2.4,3.3-0.6,6.1,0,8c0.5,1.4,0.7,4.4,0.8,5.9c0.6,5.9,1.1,24,1.1,24c0.1,1.1-0.7,1.8-1.5,1.8s-1.4-0.6-1.5-1.3l-2.7-23.3 C48.1,38.5,47.7,38,47,38s-1.1,0.5-1.2,1.1l-2.7,23.3c-0.1,0.7-0.7,1.3-1.5,1.3S40,63,40.1,61.9c0,0,0.4-18.2,1-24.2 c0.1-1.4,0.4-4.3,0.9-5.6c0.6-1.9,2.3-4.5,0-8" fill="none" stroke="#000000" stroke-linecap="round" stroke-linejoin="round" stroke-width="2"/>
  </g>
</svg>