<svg viewBox="6 6 60 60" xmlns="http://www.w3.org/2000/svg">
  <defs>
    <linearGradient id="yellow-gradient" x1="0%" x2="0%" y1="0%" y2="100%">
      <stop offset="0%" style="stop-color:#FDE02F;stop-opacity:1;"/>
      <stop offset="100%" style="stop-color:#F7B209;stop-opacity:1;"/>
    </linearGradient>
  </defs>
  <g id="skin">
    <g id="skin-b">
      <circle cx="47" cy="11" fill="#c19a65" r="3"/>
      <path d="M52,23.6l1.9,38.2c0.1,1.1-0.7,1.8-1.5,1.8S51,63,50.9,62.3L48.2,39c-0.1-0.6-0.5-1.1-1.2-1.1 s-1.1,0.5-1.2,1.1l-2.7,23.3c-0.1,0.7-0.7,1.3-1.5,1.3s-1.6-0.7-1.5-1.8L42,23.6" fill="#c19a65"/>
      <path d="M56,42.9c-3.3,0-5.5-18.3-9-18.3s-7.2,18.3-11,18.3c0,0,2.1-5.7,2.5-10.6c0.2-2.5,0.3-9.3,0.3-9.3 c0.1-2.8,2.4-5,5.2-5h6c2.8,0,5.1,2.2,5.2,5L56,42.9z" fill="#c19a65"/>
    </g>
    <g id="skin-a">
      <circle cx="25" cy="11" fill="#6a462f" r="3"/>
      <path d="M20,23.6l-1.9,38.2c-0.1,1.1,0.7,1.8,1.5,1.8s1.4-0.6,1.5-1.3L23.8,39c0.1-0.6,0.5-1.1,1.2-1.1 s1.1,0.5,1.2,1.1l2.7,23.3c0.1,0.7,0.7,1.3,1.5,1.3s1.6-0.7,1.5-1.8L30,23.6" fill="#6a462f"/>
      <path d="M16.8,23c0.1-2.8,2.4-5,5.2-5h6c2.8,0,5.1,2.2,5.2,5c0,0,0.1,6.7,0.3,9.3C34,37.2,36,42.9,36,42.9 c-3.8,0-7.5-18.3-11-18.3s-5.7,18.3-9,18.3L16.8,23z" fill="#6a462f"/>
    </g>
  </g>
  <g id="line">
    <circle cx="47" cy="11" fill="none" r="3" stroke="#000000" stroke-miterlimit="10" stroke-width="2"/>
    <path d="M36,41.9 c0,0,2.1-4.7,2.5-9.6c0.2-2.5,0.3-9.3,0.3-9.3c0.1-2.8,2.4-5,5.2-5h6c2.8,0,5.1,2.2,5.2,5L56,41.9" fill="none" stroke="#000000" stroke-linecap="round" stroke-linejoin="round" stroke-width="2"/>
    <path d="M52,23.6l1.9,38.2 c0.1,1.1-0.7,1.8-1.5,1.8S51,63,50.9,62.3L48.2,39c-0.1-0.6-0.5-1.1-1.2-1.1s-1.1,0.5-1.2,1.1l-2.7,23.3c-0.1,0.7-0.7,1.3-1.5,1.3 s-1.6-0.7-1.5-1.8L42,23.6" fill="none" stroke="#000000" stroke-linecap="round" stroke-linejoin="round" stroke-width="2"/>
    <circle cx="25" cy="11" fill="none" r="3" stroke="#000000" stroke-miterlimit="10" stroke-width="2"/>
    <path d="M16,41.9L16.8,23 c0.1-2.8,2.4-5,5.2-5h6c2.8,0,5.1,2.2,5.2,5c0,0,0.1,6.7,0.3,9.3c0.4,4.9,2.5,9.6,2.5,9.6" fill="none" stroke="#000000" stroke-linecap="round" stroke-linejoin="round" stroke-width="2"/>
    <path d="M20,23.6l-1.9,38.2 c-0.1,1.1,0.7,1.8,1.5,1.8s1.4-0.6,1.5-1.3L23.8,39c0.1-0.6,0.5-1.1,1.2-1.1s1.1,0.5,1.2,1.1l2.7,23.3c0.1,0.7,0.7,1.3,1.5,1.3 s1.6-0.7,1.5-1.8L30,23.6" fill="none" stroke="#000000" stroke-linecap="round" stroke-linejoin="round" stroke-width="2"/>
  </g>
</svg>