<svg viewBox="11 11 50 50" xmlns="http://www.w3.org/2000/svg">
  <defs>
    <linearGradient id="yellow-gradient" x1="0%" x2="0%" y1="0%" y2="100%">
      <stop offset="0%" style="stop-color:#FDE02F;stop-opacity:1;"/>
      <stop offset="100%" style="stop-color:#F7B209;stop-opacity:1;"/>
    </linearGradient>
  </defs>
  <g id="color">
    <path d="M54,60.9V57c0-5-4.2-9-9.2-9c-6,5-12,5-18,0c-5,0-8.8,4-8.8,9v3.9H54z" fill="#92D3F5"/>
  </g>
  <g id="hair">
    <path d="M24,36c-2,0-3-12,0-16c6-8,18-8,24,0c3,4,2,16,0,16" fill="#000000"/>
  </g>
  <g id="skin">
    <path d="M25,34c0,8,4.8,11.9,10.8,11.9S47,42,47,34s-3-10-3-10c-8,4-14,2-16,0C28,24,25,26,25,34z" fill="#a57939"/>
  </g>
  <g id="line">
    <path d="M24,36c-2,0-3-12,0-16 c6-8,18-8,24,0c3,4,2,16,0,16" fill="none" stroke="#000000" stroke-linecap="round" stroke-linejoin="round" stroke-width="2"/>
    <path d="M54,60v-3.1 c0-5-4.2-9-9.2-9c-6,5-12,5-18,0c-5,0-8.8,4-8.8,9V60" fill="none" stroke="#000000" stroke-linecap="round" stroke-linejoin="round" stroke-width="2"/>
    <path d="M42,33c0,1.1-0.9,2-2,2s-2-0.9-2-2s0.9-2,2-2S42,31.9,42,33"/>
    <path d="M34,33c0,1.1-0.9,2-2,2s-2-0.9-2-2s0.9-2,2-2C33.1,31,34,31.9,34,33"/>
    <path d="M25,34c0,8,4.8,11.9,10.8,11.9S47,42,47,34 s-3-10-3-10c-8,4-14,2-16,0C28,24,25,26,25,34z" fill="none" stroke="#000000" stroke-linejoin="round" stroke-width="2"/>
    <path d="M32.8,39.2 c1.9,1,4.1,1,6,0" fill="none" stroke="#000000" stroke-linecap="round" stroke-linejoin="round" stroke-width="2"/>
  </g>
</svg>