<svg viewBox="7 7 58 58" xmlns="http://www.w3.org/2000/svg">
  <defs>
    <linearGradient id="yellow-gradient" x1="0%" x2="0%" y1="0%" y2="100%">
      <stop offset="0%" style="stop-color:#FDE02F;stop-opacity:1;"/>
      <stop offset="100%" style="stop-color:#F7B209;stop-opacity:1;"/>
    </linearGradient>
  </defs>
  <g id="color">
    <path d="M25.5011,34.5613c2.9156,2.3721,5.4581,5.3848,6.7637,9.1491c4.3333,12.4937,1.0296,12.7289,4.3333,17.3456 c3.9794,5.5609,40.7244,5.1768,23.375-7.0795c0,0-12.2541,2.9795-16.9395-1.3551c0,0-5.428-17.9558-26.1409-38.379 c0,0-4.5005,2.3277-6.2424,8.0451c0,0,0.5599,2.0029,0.5599,4.5792S25.5011,34.5613,25.5011,34.5613z" fill="#D22F27" stroke="none"/>
    <path d="M25.1077,35.453c2.9156,2.3721,5.8515,4.4931,7.1571,8.2574c4.3333,12.4937,1.0296,12.7289,4.3333,17.3456 c3.9794,5.5609,40.7244,5.1768,23.375-7.0795c0,0-12.2541,2.9795-16.9395-1.3551c0,0-5.428-17.9558-26.1409-38.379 c0,0-5.5038,2.1333-7.2458,7.8506c0,0-0.6444,2.1297-0.1093,3.3639S25.1077,35.453,25.1077,35.453z" fill="#D22F27" stroke="none"/>
    <path d="M19.962,33.0858l-2,27.8725h-3.8393V32.0858l-2.9125-5.982c0,0,6.6505,3.8112,10.5259,6.9115L19.962,33.0858z" fill="#3F3F3F" stroke="none" stroke-linecap="round" stroke-linejoin="round" stroke-miterlimit="10" stroke-width="2"/>
  </g>
  <g id="line">
    <path d="M19.962,33.0858l-2,27.8725h-3.8393V32.0858l-2.9125-5.982c0,0,6.6505,3.8112,10.5259,6.9115L19.962,33.0858z" fill="none" stroke="#000000" stroke-linecap="round" stroke-linejoin="round" stroke-miterlimit="10" stroke-width="2"/>
    <path d="M25.5011,34.5613c2.9156,2.3721,5.4581,5.3848,6.7637,9.1491c4.3333,12.4937,1.0296,12.7289,4.3333,17.3456 c3.9794,5.5609,40.7244,5.1768,23.375-7.0795c0,0-12.2541,2.9795-16.9395-1.3551c0,0-5.428-17.9558-26.1409-38.379 c0,0-4.5005,2.3277-6.2424,8.0451" fill="none" stroke="#000000" stroke-linecap="round" stroke-linejoin="round" stroke-miterlimit="10" stroke-width="2"/>
    <path d="M25.5011,34.5613c2.9156,2.3721,5.4581,5.3848,6.7637,9.1491c4.3333,12.4937,1.0296,12.7289,4.3333,17.3456 c3.9794,5.5609,40.7244,5.1768,23.375-7.0795c0,0-12.2541,2.9795-16.9395-1.3551c0,0-5.428-17.9558-26.1409-38.379 c0,0-4.5005,2.3277-6.2424,8.0451" fill="none" stroke="#000000" stroke-linecap="round" stroke-linejoin="round" stroke-miterlimit="10" stroke-width="2"/>
  </g>
</svg>