<svg viewBox="12 12 48 48" xmlns="http://www.w3.org/2000/svg">
  <defs>
    <linearGradient id="yellow-gradient" x1="0%" x2="0%" y1="0%" y2="100%">
      <stop offset="0%" style="stop-color:#FDE02F;stop-opacity:1;"/>
      <stop offset="100%" style="stop-color:#F7B209;stop-opacity:1;"/>
    </linearGradient>
  </defs>
  <g id="skin">
    <ellipse cx="35.8" cy="31" fill="#a57939" rx="11" ry="14"/>
  </g>
  <g id="color">
    <path d="M17,61v-4c0-5,5-9,10-9c6,5,12,5,18,0c5,0,10,4,10,9v4" fill="#92D3F5"/>
  </g>
  <g id="line">
    <path d="M17,59.9v-3c0-5,5-9,10-9 c6,5,12,5,18,0c5,0,10,4,10,9v3" fill="none" stroke="#000000" stroke-linecap="round" stroke-linejoin="round" stroke-width="2"/>
    <path d="M41.8,29.9c0,1.1-0.9,2-2,2s-2-0.9-2-2s0.9-2,2-2S41.8,28.8,41.8,29.9"/>
    <path d="M33.8,29.9c0,1.1-0.9,2-2,2c-1.1,0-2-0.9-2-2s0.9-2,2-2C33,27.9,33.8,28.8,33.8,29.9"/>
    <path d="M32.8,38.1 c1.9,1,4.1,1,6,0" fill="none" stroke="#000000" stroke-linecap="round" stroke-linejoin="round" stroke-width="2"/>
    <path d="M36,45c-5.9,0-11-6-11-14c0-3.3,1-7.4,3-10 c0.3-0.3,0.5-0.6,0.8-0.9c2-1.8,4.5-2.8,7.2-2.8l0,0c2.7,0,5.2,1,7.2,2.8c0.3,0.3,0.6,0.6,0.8,0.9c2,2.6,3,6.7,3,10 C47,39,41.9,45,36,45" fill="none" stroke="#000000" stroke-linejoin="round" stroke-width="2"/>
  </g>
</svg>