<svg viewBox="10 10 52 52" xmlns="http://www.w3.org/2000/svg">
  <defs>
    <linearGradient id="yellow-gradient" x1="0%" x2="0%" y1="0%" y2="100%">
      <stop offset="0%" style="stop-color:#FDE02F;stop-opacity:1;"/>
      <stop offset="100%" style="stop-color:#F7B209;stop-opacity:1;"/>
    </linearGradient>
  </defs>
  <g id="color">
    <path d="M18,60.9V57c0-5,3.8-9,8.8-9c6,5,12,5,18,0c5,0,9.2,4,9.2,9v3.9H18z" fill="#92D3F5"/>
  </g>
  <g id="hair">
    <path d="M22.1,49.4c1.4-0.9,3-1.4,4.7-1.4c6,5,12,5,18,0c1.7,0,3.3,0.5,4.7,1.3c1.2-0.9,2.3-1.8,3.1-2.6 c2.9-3.1,3.7-6.8,2-10.8c-2.4-5.7-3-5.6-3.4-12.8c0-4.2-3.2-7.7-7.4-8c0,0-2.6-3-8-3c-6.4,0-12.2,3.5-13.7,9 c-1.5,5.6,0.3,7.8-1.3,12C19,37.8,15,41.5,19.5,47C20.1,47.7,21,48.6,22.1,49.4z" fill="#F1B31C"/>
  </g>
  <g id="skin">
    <path d="M25,32c0,8,4.8,12.9,10.8,12.9S47,40,47,32c0-4-1-6-1-6c-2-2-4-4-4-4s-12,2-16,4C26,26,25,28,25,32z" fill="url(#yellow-gradient)"/>
  </g>
  <g id="line">
    <path d="M18,60v-3.1 c0-5,3.8-9,8.8-9c6,5,12,5,18,0c5,0,9.2,4,9.2,9V60" fill="none" stroke="#000000" stroke-linecap="round" stroke-linejoin="round" stroke-width="2"/>
    <path d="M42,31c0,1.1-0.9,2-2,2s-2-0.9-2-2s0.9-2,2-2S42,29.9,42,31"/>
    <path d="M34,31c0,1.1-0.9,2-2,2s-2-0.9-2-2s0.9-2,2-2C33.1,29,34,29.9,34,31"/>
    <path d="M25,32c0,8,4.8,12.9,10.8,12.9S47,40,47,32 c0-4-1-6-1-6c-2-2-4-4-4-4s-12,2-16,4C26,26,25,28,25,32z" fill="none" stroke="#000000" stroke-linejoin="round" stroke-width="2"/>
    <path d="M32.8,38.2 c1.9,1,4.1,1,6,0" fill="none" stroke="#000000" stroke-linecap="round" stroke-linejoin="round" stroke-width="2"/>
    <path d="M20,46 c-4-6-1.8-8.3,0.1-13c1.6-4.2-0.2-6.5,1.3-12s7.3-9,13.7-9c5.4,0,8,3,8,3c4.2,0.4,7.4,3.9,7.4,8c0.4,7.2,1,7.2,3.4,12.8 c1.8,4.1,1,6.8-1.9,10.1" fill="none" stroke="#000000" stroke-linecap="round" stroke-linejoin="round" stroke-width="2"/>
  </g>
</svg>