<svg viewBox="6 6 60 60" xmlns="http://www.w3.org/2000/svg">
  <defs>
    <linearGradient id="yellow-gradient" x1="0%" x2="0%" y1="0%" y2="100%">
      <stop offset="0%" style="stop-color:#FDE02F;stop-opacity:1;"/>
      <stop offset="100%" style="stop-color:#F7B209;stop-opacity:1;"/>
    </linearGradient>
  </defs>
  <g id="color">
    <path d="M36,14.7c1.1-2.4,4-3.4,6.3-2.2s3.3,4,2.2,6.4c-0.1,0.3-0.3,0.5-0.4,0.7L36,30l-8.1-10.4 c-0.2-0.2-0.3-0.5-0.4-0.7c-1.1-2.4-0.1-5.2,2.2-6.4S34.9,12.3,36,14.7L36,14.7z" fill="#EA5A47"/>
  </g>
  <g id="hair">
    <g id="hair-a">
      <path d="M9.5,35.8c0.6-8.8,7.3-8.9,10.6-8.3c0.3,0.1,1.2,0,1.5,0c6.1-0.8,9.1,6.1,9.1,9.1c0,1.1,0,3.8-1.5,5.3 c0,0-3.5-4.2-3.6-6.6c0,0-11.5,4.4-12.3,0.6c0,0-0.8,3-1.5,3.8c0,0,0,2.3,0,3C11.8,42.6,9.2,39.5,9.5,35.8z" fill="#000000"/>
    </g>
    <g id="hair-b">
      <path d="M38.7,55c-3-4.5-0.6-8.8,0.8-12.3c1.2-3.2-0.2-4.9,1-9.1c1.1-4.2,5.5-6.8,10.4-6.8c4.1,0,6.1,2.3,6.1,2.3 c3.2,0.3,5.6,2.9,5.6,6.1c0.3,5.4,0.8,5.4,2.6,9.7c1.3,3.1,0.8,7.6-1.4,10.2" fill="#000000"/>
    </g>
  </g>
  <g id="skin">
    <g id="skin-a">
      <path d="M25.6,35.3c0,0-11.5,4.4-12.3,0.6c0,0-0.7353,2.7525-1.4128,3.6849c-0.0514,0.4968-0.0872,1-0.0872,1.5151 c0,6.2408,3.8951,11.3,8.7,11.3c4.6063,0,8.3665-4.6531,8.6703-10.5361C28.8699,41.4988,25.6953,37.5867,25.6,35.3z" fill="#6a462f"/>
    </g>
    <g id="skin-b">
      <path d="M43.2,41.9c0,6.1,3.8,10.6,8.3,10.6s8.3-4.5,8.3-10.6c0-3.8-1.5-6.1-4.5-9.1c-3,3-12.1,6.8-12.1,8.3 C43.2,41.1,43.2,41.9,43.2,41.9z" fill="#6a462f"/>
    </g>
  </g>
  <g id="line">
    <path d="M29.2,40.2c0,0.3,0,0.6,0,0.9 c0,6.3-3.9,11.3-8.7,11.3s-8.7-5.1-8.7-11.3c0-0.2,0-0.4,0-0.7" fill="none" stroke="#000000" stroke-miterlimit="10" stroke-width="2"/>
    <path d="M20.2,47.4 c0.6,0.7,1.4,0.7,2.1,0" fill="none" stroke="#000000" stroke-linecap="round" stroke-linejoin="round" stroke-width="2"/>
    <path d="M22.5,41.8c0,0,1.5,1.5,3,0" fill="none" stroke="#000000" stroke-linecap="round" stroke-miterlimit="10" stroke-width="2"/>
    <path d="M14.9,41.1c0,0,1.5,1.5,3,0" fill="none" stroke="#000000" stroke-linecap="round" stroke-miterlimit="10" stroke-width="2"/>
    <path d="M9.5,35.8 c0.6-8.8,7.3-8.9,10.6-8.3c0.3,0.1,1.2,0,1.5,0c6.1-0.8,9.1,6.1,9.1,9.1c0,1.1,0,3.8-1.5,5.3c0,0-3.5-4.2-3.6-6.6 c0,0-11.5,4.4-12.3,0.6c0,0-0.8,3-1.5,3.8c0,0,0,2.3,0,3C11.8,42.6,9.2,39.5,9.5,35.8z" fill="none" stroke="#000000" stroke-linecap="round" stroke-linejoin="round" stroke-width="2"/>
    <path d="M36,14.7 c1.1-2.4,4-3.4,6.3-2.2s3.3,4,2.2,6.4c-0.1,0.3-0.3,0.5-0.4,0.7L36,30l-8.1-10.4c-0.2-0.2-0.3-0.5-0.4-0.7 c-1.1-2.4-0.1-5.2,2.2-6.4S34.9,12.3,36,14.7L36,14.7z" fill="none" stroke="#000000" stroke-linecap="round" stroke-linejoin="round" stroke-width="2"/>
    <path d="M38.7,54 c-3-4.5-0.6-7.8,0.8-11.3c1.2-3.2-0.2-4.9,1-9.1c1.1-4.2,5.5-6.8,10.4-6.8c4.1,0,6.1,2.3,6.1,2.3c3.2,0.3,5.6,2.9,5.6,6.1 c0.3,5.4,0.8,5.4,2.6,9.7c1.3,3.1,0.8,6.6-1.4,9.2" fill="none" stroke="#000000" stroke-linecap="round" stroke-linejoin="round" stroke-width="2"/>
    <path d="M43.2,41.9 c0,6.1,3.8,10.6,8.3,10.6s8.3-4.5,8.3-10.6c0-3.8-1.5-6.1-4.5-9.1c-3,3-12.1,6.8-12.1,8.3C43.2,41.1,43.2,41.9,43.2,41.9z" fill="none" stroke="#000000" stroke-linejoin="round" stroke-miterlimit="10" stroke-width="2"/>
    <path d="M49.2,47.4 c0.6,0.8,1.4,0.8,2.1,0" fill="none" stroke="#000000" stroke-linecap="round" stroke-linejoin="round" stroke-width="2"/>
    <path d="M53.9,41.1c0,0,1.5,1.5,3,0" fill="none" stroke="#000000" stroke-linecap="round" stroke-miterlimit="10" stroke-width="2"/>
    <path d="M46.3,41.8c0,0,1.5,1.5,3,0" fill="none" stroke="#000000" stroke-linecap="round" stroke-miterlimit="10" stroke-width="2"/>
  </g>
</svg>