<svg viewBox="6 6 60 60" xmlns="http://www.w3.org/2000/svg">
  <defs>
    <linearGradient id="yellow-gradient" x1="0%" x2="0%" y1="0%" y2="100%">
      <stop offset="0%" style="stop-color:#FDE02F;stop-opacity:1;"/>
      <stop offset="100%" style="stop-color:#F7B209;stop-opacity:1;"/>
    </linearGradient>
  </defs>
  <g id="color">
    <path d="m20.02 47.72c-0.9807-6.527-8.532-22.96-8.477-24.99 0.1586-5.812 11.99-9.897 12.91-6.264 0.2885 1.133 3.103 4.632 1.434 8.267-3.016 6.569 2.844 15.95 5.016 20.55 1.22 2.848-1.218 5.988-4.224 6.661-3.006 0.6728-5.888-0.7659-6.661-4.224z" fill="#3f3f3f"/>
    <circle cx="9.976" cy="18.17" fill="#3f3f3f" r="1"/>
    <ellipse cx="3.721" cy="18.65" fill="#3f3f3f" rx="1" ry="1" transform="rotate(-27.29)"/>
    <circle cx="6.459" cy="17.97" fill="#3f3f3f" r="1" transform="rotate(-30)"/>
    <circle cx="18.1" cy="11.11" fill="#3f3f3f" r="1"/>
    <path d="m50.18 59.72c0.9807-6.527 8.894-22.51 8.839-24.53-0.1586-5.812-12.35-10.35-13.27-6.717-0.3047 1.196-2.137 4.667-1.547 8.938 1.208 8.747-2.076 15.97-4.178 20.42-1.22 2.848 0.494 5.445 3.5 6.118 3.006 0.673 5.888-0.7658 6.661-4.224z" fill="#3f3f3f"/>
    <circle cx="60.62" cy="29.62" fill="#3f3f3f" r="1"/>
    <ellipse cx="2.941" cy="64.31" fill="#3f3f3f" rx="1" ry="1" transform="rotate(-62.71)"/>
    <ellipse cx="6.335" cy="60.32" fill="#3f3f3f" rx="1" ry="1" transform="rotate(-60)"/>
    <circle cx="52.01" cy="23.42" fill="#3f3f3f" r="1"/>
    <ellipse cx="52.24" cy="12.96" fill="#3f3f3f" rx="1.561" ry="2.514" transform="matrix(.982 .1891 -.2732 .9619 0 0)"/>
    <ellipse cx="20.5" cy="15.52" fill="#3f3f3f" rx="1.561" ry="2.514" transform="matrix(.9675 -.2528 .1682 .9857 0 0)"/>
  </g>
  <g id="line">
    <path d="m19.92 47.53c-0.9807-6.527-8.351-23.23-8.295-25.26 0.1586-5.812 10.49-9.177 12.76-6.249 0.7559 0.7541 1.984 4.935 1.528 9.273-1.062 10.12 1.628 15.72 3.893 19.89 1.22 2.848-0.2223 5.898-3.228 6.571-3.006 0.6728-5.888-0.7659-6.661-4.224z" fill="none" stroke="#000" stroke-linecap="round" stroke-linejoin="round" stroke-miterlimit="10" stroke-width="2"/>
    <circle cx="9.235" cy="18.07" fill="none" r="1.04" stroke="#000" stroke-linecap="round" stroke-linejoin="round" stroke-miterlimit="10" stroke-width="1.04" transform="rotate(-1.534)"/>
    <circle cx="3.285" cy="18.74" fill="none" r="1.04" stroke="#000" stroke-linecap="round" stroke-linejoin="round" stroke-miterlimit="10" stroke-width="1.04" transform="rotate(-28.82)"/>
    <circle cx="5.978" cy="18.35" fill="none" r="1.04" stroke="#000" stroke-linecap="round" stroke-linejoin="round" stroke-miterlimit="10" stroke-width="1.04" transform="rotate(-31.53)"/>
    <circle cx="17.66" cy="11.5" fill="none" r="1.04" stroke="#000" stroke-linecap="round" stroke-linejoin="round" stroke-miterlimit="10" stroke-width="1.04" transform="rotate(-1.534)"/>
    <path d="m50.09 59.53c0.9807-6.527 8.713-22.96 8.658-24.99-0.1586-5.812-10.79-9.193-12.81-6.392-1.142 0.8976-1.935 5.439-1.647 9.219 0.6607 8.697-1.694 14.58-3.913 19.27-1.22 2.848 0.04114 6.441 3.047 7.114 3.006 0.673 5.888-0.7658 6.661-4.224z" fill="none" stroke="#000" stroke-linecap="round" stroke-linejoin="round" stroke-miterlimit="10" stroke-width="2"/>
    <circle cx="60.55" cy="29.94" fill="none" r="1.04" stroke="#000" stroke-linecap="round" stroke-linejoin="round" stroke-miterlimit="10" stroke-width="1.04"/>
    <circle cx="2.783" cy="64.35" fill="none" r="1.04" stroke="#000" stroke-linecap="round" stroke-linejoin="round" stroke-miterlimit="10" stroke-width="1.04" transform="rotate(-62.71)"/>
    <circle cx="6.263" cy="60.5" fill="none" r="1.04" stroke="#000" stroke-linecap="round" stroke-linejoin="round" stroke-miterlimit="10" stroke-width="1.04" transform="rotate(-60)"/>
    <circle cx="52.26" cy="23.39" fill="none" r="1.04" stroke="#000" stroke-linecap="round" stroke-linejoin="round" stroke-miterlimit="10" stroke-width="1.04"/>
    <ellipse cx="49.94" cy="18.91" fill="none" rx="1.893" ry="2.332" stroke="#000" stroke-linecap="round" stroke-linejoin="round" stroke-miterlimit="10" stroke-width="1.155" transform="matrix(.9973 .07399 -.1025 .9947 0 0)"/>
    <ellipse cx="20.93" cy="12.69" fill="none" rx="1.888" ry="2.374" stroke="#000" stroke-linecap="round" stroke-linejoin="round" stroke-miterlimit="10" stroke-width="1.164" transform="matrix(.9932 -.1168 .1312 .9914 0 0)"/>
  </g>
</svg>