<svg viewBox="8 8 56 56" xmlns="http://www.w3.org/2000/svg">
  <defs>
    <linearGradient id="yellow-gradient" x1="0%" x2="0%" y1="0%" y2="100%">
      <stop offset="0%" style="stop-color:#FDE02F;stop-opacity:1;"/>
      <stop offset="100%" style="stop-color:#F7B209;stop-opacity:1;"/>
    </linearGradient>
  </defs>
  <g id="color">
    <polygon fill="#8967AA" points="10,21 10,35 13,35 13,38 16,38 16,45 22,45 22,51 27,51 28,51 28,45 44,45 44,51 50,51 50,45 56,45 56,38 59,38 59,35 62,35 62,20 56,20 56,24 56,25 49,25 49,20 45,20 45,14 39,14 39,20 32,20 32,14 26,14 26,20 22,20 22,25 16,25 16,20 10,20"/>
    <rect fill="#8967AA" height="6" width="6" x="16" y="51"/>
    <rect fill="#8967AA" height="6" width="6" x="50" y="51"/>
  </g>
  <g id="line">
    <rect height="6" stroke="#000000" stroke-linecap="round" stroke-linejoin="round" stroke-width="2" width="3.6" x="25.175" y="31"/>
    <polyline fill="none" points="22,45 16,45 16,39" stroke="#000000" stroke-linecap="round" stroke-linejoin="round" stroke-width="2"/>
    <polyline fill="none" points="22.583,25 22.583,20 26,20" stroke="#000000" stroke-linecap="round" stroke-linejoin="round" stroke-width="2"/>
    <polyline fill="none" points="48.708,25 48.708,20 45.292,20" stroke="#000000" stroke-linecap="round" stroke-linejoin="round" stroke-width="2"/>
    <polyline fill="none" points="13,35 10,35 10,20 16,20 16,35" stroke="#000000" stroke-linecap="round" stroke-linejoin="round" stroke-width="2"/>
    <polyline fill="none" points="56,35 56,20 62,20 62,35 59,35" stroke="#000000" stroke-linecap="round" stroke-linejoin="round" stroke-width="2"/>
    <polyline fill="none" points="26,20 26,14 32,14 32,20" stroke="#000000" stroke-linecap="round" stroke-linejoin="round" stroke-width="2"/>
    <polyline fill="none" points="39,20 39,14 45,14 45,20" stroke="#000000" stroke-linecap="round" stroke-linejoin="round" stroke-width="2"/>
    <polyline fill="none" points="16,35 19,35 19,38 13,38 13,35" stroke="#000000" stroke-linecap="round" stroke-linejoin="round" stroke-width="2"/>
    <polyline fill="none" points="59,35 59,38 53,38 53,35 56,35" stroke="#000000" stroke-linecap="round" stroke-linejoin="round" stroke-width="2"/>
    <rect fill="none" height="6" stroke="#000000" stroke-linecap="round" stroke-linejoin="round" stroke-width="2" width="6" x="16" y="51"/>
    <rect fill="none" height="6" stroke="#000000" stroke-linecap="round" stroke-linejoin="round" stroke-width="2" width="6" x="50" y="51"/>
    <polyline fill="none" points="28,45 28,51 22,51 22,45" stroke="#000000" stroke-linecap="round" stroke-linejoin="round" stroke-width="2"/>
    <polyline fill="none" points="50,45 56,45 56,39" stroke="#000000" stroke-linecap="round" stroke-linejoin="round" stroke-width="2"/>
    <polyline fill="none" points="44,45 44,51 50,51 50,45" stroke="#000000" stroke-linecap="round" stroke-linejoin="round" stroke-width="2"/>
    <rect height="6" stroke="#000000" stroke-linecap="round" stroke-linejoin="round" stroke-width="2" width="3.6" x="43.425" y="31"/>
    <path d="M44,45L44,45z" fill="none" stroke="#000000" stroke-linecap="round" stroke-linejoin="round" stroke-width="2"/>
    <path d="M39,20L39,20z" fill="none" stroke="#000000" stroke-linecap="round" stroke-linejoin="round" stroke-width="2"/>
    <path d="M16,25L16,25z" fill="none" stroke="#000000" stroke-linecap="round" stroke-linejoin="round" stroke-width="2"/>
    <path d="M49,25L49,25z" fill="none" stroke="#000000" stroke-linecap="round" stroke-linejoin="round" stroke-width="2"/>
    <line fill="none" stroke="#000000" stroke-linecap="round" stroke-linejoin="round" stroke-width="2" x1="28" x2="44" y1="45" y2="45"/>
    <line fill="none" stroke="#000000" stroke-linecap="round" stroke-linejoin="round" stroke-width="2" x1="32" x2="39" y1="20" y2="20"/>
    <line fill="none" stroke="#000000" stroke-linecap="round" stroke-linejoin="round" stroke-width="2" x1="16" x2="22" y1="25" y2="25"/>
    <line fill="none" stroke="#000000" stroke-linecap="round" stroke-linejoin="round" stroke-width="2" x1="49" x2="56" y1="25" y2="25"/>
  </g>
</svg>