<svg viewBox="10 10 52 52" xmlns="http://www.w3.org/2000/svg">
  <defs>
    <linearGradient id="yellow-gradient" x1="0%" x2="0%" y1="0%" y2="100%">
      <stop offset="0%" style="stop-color:#FDE02F;stop-opacity:1;"/>
      <stop offset="100%" style="stop-color:#F7B209;stop-opacity:1;"/>
    </linearGradient>
  </defs>
  <g id="color">
    <path d="M17,61v-4c0-5,5-9,10-9c6,5,12,5,18,0c5,0,10,4,10,9v4" fill="#92D3F5"/>
  </g>
  <g id="hair">
    <path d="M26,39c-4,0-4-6-4-13s4-14,14-14s14,7,14,14s0,13-4,13" fill="url(#yellow-gradient)"/>
  </g>
  <g id="skin">
    <path d="M24.9,31c0,9,4.9,14,11,14c6,0,11.1-5,11.1-14c0-3-1-5-1-5c-3-3-7-8-7-8c-4,3-7,6-13,7 C26,25,24.9,26,24.9,31z" fill="#6a462f"/>
  </g>
  <g id="line">
    <path d="M26,39c-4,0-4-6-4-13 s4-14,14-14s14,7,14,14s0,13-4,13" fill="none" stroke="#000000" stroke-linecap="round" stroke-linejoin="round" stroke-width="2"/>
    <path d="M17,60v-3c0-5,5-9,10-9 c6,5,12,5,18,0c5,0,10,4,10,9v3" fill="none" stroke="#000000" stroke-linecap="round" stroke-linejoin="round" stroke-width="2"/>
    <path d="M41.9,30c0,1.1-0.9,2-2,2s-2-0.9-2-2s0.9-2,2-2S41.9,28.9,41.9,30"/>
    <path d="M33.9,30c0,1.1-0.9,2-2,2c-1.1,0-2-0.9-2-2s0.9-2,2-2C33,28,33.9,28.9,33.9,30"/>
    <path d="M24.9,31c0,9,4.9,14,11,14c6,0,11.1-5,11.1-14 c0-3-1-5-1-5c-3-3-7-8-7-8c-4,3-7,6-13,7C26,25,24.9,26,24.9,31z" fill="none" stroke="#000000" stroke-linejoin="round" stroke-width="2"/>
    <path d="M33,38c1.9,0.9,4,1,6,0" fill="none" stroke="#000000" stroke-linecap="round" stroke-linejoin="round" stroke-width="2"/>
  </g>
</svg>