<svg viewBox="0 0 72 72" xmlns="http://www.w3.org/2000/svg">
  <defs>
    <linearGradient id="yellow-gradient" x1="0%" x2="0%" y1="0%" y2="100%">
      <stop offset="0%" style="stop-color:#FDE02F;stop-opacity:1;"/>
      <stop offset="100%" style="stop-color:#F7B209;stop-opacity:1;"/>
    </linearGradient>
  </defs>
  <g id="color">
    <polygon fill="#61B2E4" points="56.3771,11.9798 16.3771,11.9798 4,23.3481 36,64.0837 68,23.3481"/>
    <polyline fill="#92D3F5" points="37.3698,62.3355 55.7486,23.3482 36,11.9798 56.3771,11.9798 68,23.3481 37.3698,62.3355"/>
  </g>
  <g id="line">
    <polygon fill="none" points="56.3771,11.9798 16.3771,11.9798 4,23.3481 36,64.0837 68,23.3481" stroke="#000000" stroke-linecap="round" stroke-linejoin="round" stroke-miterlimit="10" stroke-width="2"/>
    <polyline fill="none" points="55.7486,23.8595 36,64.0837 36,24.3482 36,11.9798 16.2556,23.3482" stroke="#000000" stroke-linecap="round" stroke-linejoin="round" stroke-miterlimit="10" stroke-width="2"/>
    <line fill="none" stroke="#000000" stroke-linecap="round" stroke-linejoin="round" stroke-miterlimit="10" stroke-width="2" x1="16.2556" x2="36.0042" y1="23.8595" y2="64.0837"/>
    <line fill="none" stroke="#000000" stroke-linecap="round" stroke-linejoin="round" stroke-miterlimit="10" stroke-width="2" x1="4" x2="68" y1="23.3482" y2="23.3482"/>
    <line fill="none" stroke="#000000" stroke-linecap="round" stroke-linejoin="round" stroke-miterlimit="10" stroke-width="2" x1="36" x2="55.7486" y1="11.9798" y2="23.3482"/>
    <polygon fill="none" points="56.3771,11.9798 16.3771,11.9798 4,23.3481 36,64.0837 68,23.3481" stroke="#000000" stroke-linecap="round" stroke-linejoin="round" stroke-miterlimit="10" stroke-width="2"/>
  </g>
</svg>