<svg viewBox="10 10 52 52" xmlns="http://www.w3.org/2000/svg">
  <defs>
    <linearGradient id="yellow-gradient" x1="0%" x2="0%" y1="0%" y2="100%">
      <stop offset="0%" style="stop-color:#FDE02F;stop-opacity:1;"/>
      <stop offset="100%" style="stop-color:#F7B209;stop-opacity:1;"/>
    </linearGradient>
  </defs>
  <g id="color">
    <path d="M37.625,25.0417c8.7995,0,15.9583,7.1589,15.9583,15.9583S46.4245,56.9583,37.625,56.9583 c-8.7995,0-15.9583-7.1589-15.9583-15.9583S28.8255,25.0417,37.625,25.0417 M37.625,21.0417 c-11.0227,0-19.9583,8.9357-19.9583,19.9583s8.9356,19.9583,19.9583,19.9583S57.5833,52.0227,57.5833,41 S48.6477,21.0417,37.625,21.0417L37.625,21.0417z" fill="#D0CFCE" stroke="none"/>
    <polygon fill="#61B2E4" points="41.3137,17 33.6463,17 32.6463,11.9568 42.3137,11.9568" stroke="none" stroke-linecap="round" stroke-linejoin="round" stroke-miterlimit="10" stroke-width="2"/>
  </g>
  <g id="line">
    <circle cx="37.625" cy="41" fill="none" r="19.9583" stroke="#000000" stroke-linecap="round" stroke-linejoin="round" stroke-miterlimit="10" stroke-width="2"/>
    <line fill="none" stroke="#000000" stroke-linecap="round" stroke-linejoin="round" stroke-miterlimit="10" stroke-width="2" x1="27.9329" x2="31.1832" y1="11.9583" y2="18.4279"/>
    <line fill="none" stroke="#000000" stroke-linecap="round" stroke-linejoin="round" stroke-miterlimit="10" stroke-width="2" x1="46.8751" x2="43.6249" y1="11.9568" y2="18.4264"/>
    <polygon fill="none" points="41.3137,17 33.6463,17 32.6463,11.9568 42.3137,11.9568" stroke="#000000" stroke-linecap="round" stroke-linejoin="round" stroke-miterlimit="10" stroke-width="2"/>
  </g>
</svg>