<svg viewBox="10 10 52 52" xmlns="http://www.w3.org/2000/svg">
  <defs>
    <linearGradient id="yellow-gradient" x1="0%" x2="0%" y1="0%" y2="100%">
      <stop offset="0%" style="stop-color:#FDE02F;stop-opacity:1;"/>
      <stop offset="100%" style="stop-color:#F7B209;stop-opacity:1;"/>
    </linearGradient>
  </defs>
  <g id="color">
    <path d="M48.5,16h-23c-1.1046,0-2-0.8954-2-2l0,0c0-1.1046,0.8954-2,2-2h23c1.1046,0,2,0.8954,2,2l0,0C50.5,15.1046,49.6046,16,48.5,16z" fill="#D0CFCE" stroke="none" stroke-linecap="round" stroke-linejoin="round" stroke-miterlimit="10" stroke-width="2"/>
    <path d="M48.5,60h-23c-1.1046,0-2-0.8954-2-2l0,0c0-1.1046,0.8954-2,2-2h23c1.1046,0,2,0.8954,2,2l0,0C50.5,59.1046,49.6046,60,48.5,60z" fill="#D0CFCE" stroke="none" stroke-linecap="round" stroke-linejoin="round" stroke-miterlimit="10" stroke-width="2"/>
    <rect fill="#EA5A47" height="40" stroke="none" stroke-linecap="round" stroke-linejoin="round" stroke-miterlimit="10" stroke-width="2" width="22" x="26" y="16"/>
    <polygon fill="#FFFFFF" points="41.8225,16 26,25 26,21 34.4615,16" stroke="none" stroke-linecap="round" stroke-linejoin="round" stroke-miterlimit="10" stroke-width="2"/>
    <polygon fill="#FFFFFF" points="26,37 48,24 48,20 26,33" stroke="none" stroke-linecap="round" stroke-linejoin="round" stroke-miterlimit="10" stroke-width="2"/>
    <polygon fill="#FFFFFF" points="48,32 26,45 26,49 48,36" stroke="none" stroke-linecap="round" stroke-linejoin="round" stroke-miterlimit="10" stroke-width="2"/>
    <polygon fill="#FFFFFF" points="48,44 27.6922,56 34.4615,56 48,48" stroke="none" stroke-linecap="round" stroke-linejoin="round" stroke-miterlimit="10" stroke-width="2"/>
    <polygon fill="#92D3F5" points="48,16 41.8225,16 26,25 26,33 48,20" stroke="none" stroke-linecap="round" stroke-linejoin="round" stroke-miterlimit="10" stroke-width="2"/>
    <polygon fill="#92D3F5" points="48,44 27.6922,56 26,56 26,49 48,36" stroke="none" stroke-linecap="round" stroke-linejoin="round" stroke-miterlimit="10" stroke-width="2"/>
  </g>
  <g id="line">
    <path d="M48.5,16h-23c-1.1046,0-2-0.8954-2-2l0,0c0-1.1046,0.8954-2,2-2h23c1.1046,0,2,0.8954,2,2l0,0C50.5,15.1046,49.6046,16,48.5,16z" fill="none" stroke="#000000" stroke-linecap="round" stroke-linejoin="round" stroke-miterlimit="10" stroke-width="2"/>
    <path d="M48.5,60h-23c-1.1046,0-2-0.8954-2-2l0,0c0-1.1046,0.8954-2,2-2h23c1.1046,0,2,0.8954,2,2l0,0C50.5,59.1046,49.6046,60,48.5,60z" fill="none" stroke="#000000" stroke-linecap="round" stroke-linejoin="round" stroke-miterlimit="10" stroke-width="2"/>
    <rect fill="none" height="40" stroke="#000000" stroke-linecap="round" stroke-linejoin="round" stroke-miterlimit="10" stroke-width="2" width="22" x="26" y="16"/>
    <polygon fill="none" points="41.8225,16 26,25 26,21 34.4615,16" stroke="#000000" stroke-linecap="round" stroke-linejoin="round" stroke-miterlimit="10" stroke-width="2"/>
    <polygon fill="none" points="26,37 48,24 48,20 26,33" stroke="#000000" stroke-linecap="round" stroke-linejoin="round" stroke-miterlimit="10" stroke-width="2"/>
    <polygon fill="none" points="48,32 26,45 26,49 48,36" stroke="#000000" stroke-linecap="round" stroke-linejoin="round" stroke-miterlimit="10" stroke-width="2"/>
    <polygon fill="none" points="48,44 27.6922,56 34.4615,56 48,48" stroke="#000000" stroke-linecap="round" stroke-linejoin="round" stroke-miterlimit="10" stroke-width="2"/>
    <polygon fill="none" points="48,16 41.8225,16 26,25 26,33 48,20" stroke="#000000" stroke-linecap="round" stroke-linejoin="round" stroke-miterlimit="10" stroke-width="2"/>
    <polygon fill="none" points="48,44 27.6922,56 26,56 26,49 48,36" stroke="#000000" stroke-linecap="round" stroke-linejoin="round" stroke-miterlimit="10" stroke-width="2"/>
  </g>
</svg>