<svg viewBox="5 5 62 62" xmlns="http://www.w3.org/2000/svg">
  <defs>
    <linearGradient id="yellow-gradient" x1="0%" x2="0%" y1="0%" y2="100%">
      <stop offset="0%" style="stop-color:#FDE02F;stop-opacity:1;"/>
      <stop offset="100%" style="stop-color:#F7B209;stop-opacity:1;"/>
    </linearGradient>
  </defs>
  <g id="color">
    <path d="m45.25-20.36h9.591v19.33h-9.591z" fill="#fff" fill-rule="evenodd" stroke-linecap="round" stroke-linejoin="round" stroke-miterlimit="10" stroke-width="0.1" transform="rotate(45)"/>
    <path d="m48.52 10.64h3.608v3.691h-3.608z" fill="#d22f27" transform="rotate(45)"/>
    <rect fill="#d0cfce" height="10.19" transform="rotate(45)" width="4.643" x="47.94" y="-29.98"/>
    <path d="m32.77 31.37 6.738 6.681-8.252 8.252-6.782-6.782z" fill="#d22f27"/>
  </g>
  <g id="line">
    <path d="m45.25-20.36h9.591v31.01h-9.591z" fill="none" stroke="#000" stroke-linecap="round" stroke-linejoin="round" stroke-width="2" transform="rotate(45)"/>
    <rect fill="none" height="3.691" stroke="#000" stroke-linecap="round" stroke-linejoin="round" stroke-width="2" transform="rotate(45)" width="3.608" x="48.52" y="10.64"/>
    <path d="m58.61 15.46-7.123 7.123-3.283-3.283 7.108-7.108" fill="none" stroke="#000" stroke-linecap="round" stroke-linejoin="round" stroke-width="2"/>
    <line fill="none" stroke="#000" stroke-linecap="round" stroke-linejoin="round" stroke-width="2" x1="24.95" x2="12.8" y1="46.21" y2="58.37"/>
    <line fill="none" stroke="#000" stroke-linecap="round" stroke-linejoin="round" stroke-width="2" x1="41.07" x2="43.16" y1="32.29" y2="34.37"/>
    <line fill="none" stroke="#000" stroke-linecap="round" stroke-linejoin="round" stroke-width="2" x1="43.93" x2="47.14" y1="27.18" y2="30.39"/>
    <path d="m45.25-1.03h9.591v11.67h-9.591z" fill="none" stroke="#000" stroke-linecap="round" stroke-linejoin="round" stroke-width="2" transform="rotate(45)"/>
    <path d="m53.57 10.43 6.744 6.744" fill="none" stroke="#000" stroke-linecap="round" stroke-linejoin="round" stroke-width="2"/>
  </g>
</svg>