<svg viewBox="10 10 52 52" xmlns="http://www.w3.org/2000/svg">
  <defs>
    <linearGradient id="yellow-gradient" x1="0%" x2="0%" y1="0%" y2="100%">
      <stop offset="0%" style="stop-color:#FDE02F;stop-opacity:1;"/>
      <stop offset="100%" style="stop-color:#F7B209;stop-opacity:1;"/>
    </linearGradient>
  </defs>
  <g id="line">
    <line fill="none" stroke="#000000" stroke-linecap="round" stroke-linejoin="round" stroke-miterlimit="10" stroke-width="4" x1="59.1829" x2="13.1829" y1="46.059" y2="46.059"/>
    <line fill="none" stroke="#000000" stroke-linecap="round" stroke-linejoin="round" stroke-miterlimit="10" stroke-width="4" x1="59.1829" x2="13.1829" y1="54.059" y2="54.059"/>
    <path d="M32.9833,37.0046L32.9833,37.0046c-3.4677,0-6.2789-2.8112-6.2789-6.2789V20.3382c0-3.4677,2.8112-6.2792,6.2789-6.2792l0,0 c3.4681,0,6.2792,2.8115,6.2792,6.2792v10.3875C39.2625,34.1934,36.4513,37.0046,32.9833,37.0046z" fill="none" stroke="#000000" stroke-linecap="round" stroke-linejoin="round" stroke-miterlimit="10" stroke-width="4"/>
    <path d="M52.9092,37.0046L52.9092,37.0046c-3.4677,0-6.2789-2.8112-6.2789-6.2789V20.3382c0-3.4677,2.8112-6.2792,6.2789-6.2792l0,0 c3.4681,0,6.2792,2.8115,6.2792,6.2792v10.3875C59.1884,34.1934,56.3773,37.0046,52.9092,37.0046z" fill="none" stroke="#000000" stroke-linecap="round" stroke-linejoin="round" stroke-miterlimit="10" stroke-width="4"/>
    <polyline fill="none" points="12.9843,18.8851 19.3366,14.1262 19.3366,37.0718" stroke="#000000" stroke-linecap="round" stroke-linejoin="round" stroke-miterlimit="10" stroke-width="4"/>
  </g>
  <g id="color-foreground">
    <line fill="none" stroke="#D22F27" stroke-linecap="round" stroke-linejoin="round" stroke-miterlimit="10" stroke-width="4.1" x1="59.1829" x2="13.1829" y1="46.059" y2="46.059"/>
    <line fill="none" stroke="#D22F27" stroke-linecap="round" stroke-linejoin="round" stroke-miterlimit="10" stroke-width="4.1" x1="59.1829" x2="13.1829" y1="54.059" y2="54.059"/>
    <path d="M32.9833,37.0046L32.9833,37.0046c-3.4677,0-6.2789-2.8112-6.2789-6.2789V20.3382c0-3.4677,2.8112-6.2792,6.2789-6.2792l0,0 c3.4681,0,6.2792,2.8115,6.2792,6.2792v10.3875C39.2625,34.1934,36.4513,37.0046,32.9833,37.0046z" fill="none" stroke="#D22F27" stroke-linecap="round" stroke-linejoin="round" stroke-miterlimit="10" stroke-width="4.1"/>
    <path d="M52.9092,37.0046L52.9092,37.0046c-3.4677,0-6.2789-2.8112-6.2789-6.2789V20.3382c0-3.4677,2.8112-6.2792,6.2789-6.2792l0,0 c3.4681,0,6.2792,2.8115,6.2792,6.2792v10.3875C59.1884,34.1934,56.3773,37.0046,52.9092,37.0046z" fill="none" stroke="#D22F27" stroke-linecap="round" stroke-linejoin="round" stroke-miterlimit="10" stroke-width="4.1"/>
    <polyline fill="none" points="12.9843,18.8851 19.3366,14.1262 19.3366,37.0718" stroke="#D22F27" stroke-linecap="round" stroke-linejoin="round" stroke-miterlimit="10" stroke-width="4.1"/>
  </g>
</svg>