<svg viewBox="10 10 52 52" xmlns="http://www.w3.org/2000/svg">
  <defs>
    <linearGradient id="yellow-gradient" x1="0%" x2="0%" y1="0%" y2="100%">
      <stop offset="0%" style="stop-color:#FDE02F;stop-opacity:1;"/>
      <stop offset="100%" style="stop-color:#F7B209;stop-opacity:1;"/>
    </linearGradient>
  </defs>
  <g id="color">
    <rect fill="#FFFFFF" height="32.6337" stroke="none" width="48.7424" x="11.3539" y="20.1337"/>
    <rect fill="#EA5A47" height="24.2" stroke="none" width="40.0318" x="15.3299" y="24.4"/>
    <rect fill="#F4AA41" height="0.19" stroke="none" width="4.63" x="55.82" y="20.62"/>
    <circle cx="46.3017" cy="34.5781" fill="#FFFFFF" r="5.9328" stroke="none" stroke-miterlimit="10" stroke-width="2"/>
    <path d="M37.4939,21.9515v29.097c0,0.1047-0.02,0.1998-0.05,0.295c-0.13,0.3806-0.51,0.6565-0.95,0.6565h-15.34 c-0.44,0-0.82-0.276-0.95-0.6565c-0.03-0.0952-0.05-0.1903-0.05-0.295v-29.097c0-0.1047,0.02-0.1998,0.05-0.295 c0.13-0.3806,0.51-0.6565,0.95-0.6565h15.34c0.44,0,0.82,0.2759,0.95,0.6565C37.4739,21.7517,37.4939,21.8469,37.4939,21.9515z" fill="#D0CFCE" stroke="none" stroke-linecap="round" stroke-linejoin="round" stroke-miterlimit="10" stroke-width="2"/>
  </g>
  <g id="line">
    <circle cx="46.3017" cy="34.5781" fill="none" r="5.9328" stroke="#000000" stroke-miterlimit="10" stroke-width="2"/>
    <path d="M37.4939,21.9515v29.097c0,0.1047-0.02,0.1998-0.05,0.295c-0.13,0.3806-0.51,0.6565-0.95,0.6565h-15.34 c-0.44,0-0.82-0.276-0.95-0.6565c-0.03-0.0952-0.05-0.1903-0.05-0.295v-29.097c0-0.1047,0.02-0.1998,0.05-0.295 c0.13-0.3806,0.51-0.6565,0.95-0.6565h15.34c0.44,0,0.82,0.2759,0.95,0.6565C37.4739,21.7517,37.4939,21.8469,37.4939,21.9515z" fill="none" stroke="#000000" stroke-linecap="round" stroke-linejoin="round" stroke-miterlimit="10" stroke-width="2"/>
    <polyline fill="none" points="29.0372,41 29.0372,37.13 31.6172,31.9699 29.0372,37.13 26.4572,31.9699" stroke="#000000" stroke-linecap="round" stroke-linejoin="round" stroke-miterlimit="10" stroke-width="2"/>
    <line fill="none" stroke="#000000" stroke-linecap="round" stroke-linejoin="round" stroke-miterlimit="10" stroke-width="2" x1="26.5882" x2="31.4506" y1="36.4681" y2="36.4681"/>
    <path d="M15.7058,52.079h-3.6296c-0.5523,0-1-0.4477-1-1V21.8782c0-0.5523,0.4477-1,1-1h3.6296" fill="none" stroke="#000000" stroke-linecap="round" stroke-linejoin="round" stroke-miterlimit="10" stroke-width="2"/>
    <path d="M42,21l17.4462-0.1218c0.5523,0,1,0.4477,1,1V51.079c0,0.5523-0.4477,1-1,1L42,52" fill="none" stroke="#000000" stroke-linecap="round" stroke-linejoin="round" stroke-miterlimit="10" stroke-width="2"/>
    <polyline fill="none" points="42,25.1562 55.8166,25.1562 55.8166,47.83 42,47.83" stroke="#000000" stroke-linecap="round" stroke-linejoin="round" stroke-miterlimit="10" stroke-width="2"/>
    <line fill="none" stroke="#000000" stroke-linecap="round" stroke-linejoin="round" stroke-miterlimit="10" stroke-width="2" x1="15.7058" x2="15.7058" y1="48" y2="25.1562"/>
  </g>
</svg>