<svg viewBox="10 10 52 52" xmlns="http://www.w3.org/2000/svg">
  <defs>
    <linearGradient id="yellow-gradient" x1="0%" x2="0%" y1="0%" y2="100%">
      <stop offset="0%" style="stop-color:#FDE02F;stop-opacity:1;"/>
      <stop offset="100%" style="stop-color:#F7B209;stop-opacity:1;"/>
    </linearGradient>
  </defs>
  <g id="color">
    <polygon id="_1F4B9" fill="#b1cc33" points="34.091 29.625 25.416 50.239 18.42 47.255 10.958 59.008 14.036 61.06 19.633 52.012 24.017 53.691 27.375 55.09 36.061 34.53 46.777 40.539 60.302 13.389 57.504 11.524 44.911 35.875 34.091 29.625"/>
  </g>
  <g id="line">
    <g id="_1F4B9-2">
      <g>
        <polyline fill="none" points="18.316 32.405 18.316 24.155 23.816 13.155 18.316 24.155 12.816 13.155" stroke="#000" stroke-linecap="round" stroke-linejoin="round" stroke-width="2"/>
        <line fill="none" stroke="#000" stroke-linecap="round" stroke-linejoin="round" stroke-width="2" x1="13.0952" x2="23.4605" y1="23.7435" y2="23.7435"/>
      </g>
      <polygon fill="none" points="34.091 29.625 25.416 50.239 18.42 47.255 10.958 59.008 14.036 61.06 19.633 52.012 24.017 53.691 27.375 55.09 36.061 34.53 46.777 40.539 60.302 13.389 57.504 11.524 44.911 35.875 34.091 29.625" stroke="#000" stroke-linecap="round" stroke-linejoin="round" stroke-width="2"/>
    </g>
  </g>
</svg>