<svg viewBox="0 0 72 72" xmlns="http://www.w3.org/2000/svg">
  <defs>
    <linearGradient id="yellow-gradient" x1="0%" x2="0%" y1="0%" y2="100%">
      <stop offset="0%" style="stop-color:#FDE02F;stop-opacity:1;"/>
      <stop offset="100%" style="stop-color:#F7B209;stop-opacity:1;"/>
    </linearGradient>
  </defs>
  <g id="color">
    <polygon fill="#9B9B9A" points="63.738,40.9795 63.738,68.0462 11.8119,68.0462 11.8119,40.9795 11.8119,35.9583 63.738,35.9583" stroke="none"/>
    <rect fill="#9B9B9A" height="32.0667" stroke="none" stroke-linecap="round" stroke-linejoin="round" stroke-miterlimit="10" stroke-width="2" transform="matrix(-1 -1.224647e-16 1.224647e-16 -1 75.25 39.85)" width="50" x="12.625" y="3.8917"/>
    <polygon fill="#FFFFFF" points="62.625,36 12.625,13.779 12.625,3.8917 62.625,26.1127" stroke="none"/>
  </g>
  <g id="line">
    <polyline fill="none" points="62.625,40.9795 62.625,68.0462 12.625,68.0462 12.625,40.9795" stroke="#000000" stroke-linecap="round" stroke-linejoin="round" stroke-miterlimit="10" stroke-width="2"/>
    <rect fill="none" height="32.0667" stroke="#000000" stroke-linecap="round" stroke-linejoin="round" stroke-miterlimit="10" stroke-width="2" transform="matrix(-1 -1.224647e-16 1.224647e-16 -1 75.25 39.85)" width="50" x="12.625" y="3.8917"/>
    <line fill="none" stroke="#000000" stroke-linecap="round" stroke-linejoin="round" stroke-miterlimit="10" stroke-width="2" x1="17.625" x2="57.625" y1="41.5275" y2="41.5275"/>
    <line fill="none" stroke="#000000" stroke-linecap="round" stroke-linejoin="round" stroke-miterlimit="10" stroke-width="2" x1="17.625" x2="57.625" y1="47.0967" y2="47.0967"/>
    <line fill="none" stroke="#000000" stroke-linecap="round" stroke-linejoin="round" stroke-miterlimit="10" stroke-width="2" x1="17.625" x2="57.625" y1="52.666" y2="52.666"/>
    <rect fill="none" height="8.1037" stroke="#000000" stroke-linecap="round" stroke-linejoin="round" stroke-miterlimit="10" stroke-width="2" width="13.5062" x="30.7171" y="56.1856"/>
    <rect fill="none" height="32.0667" stroke="#000000" stroke-linecap="round" stroke-linejoin="round" stroke-miterlimit="10" stroke-width="2" transform="matrix(-1 -1.224647e-16 1.224647e-16 -1 75.25 39.85)" width="50" x="12.625" y="3.8917"/>
  </g>
</svg>