<svg viewBox="9 9 54 54" xmlns="http://www.w3.org/2000/svg">
  <defs>
    <linearGradient id="yellow-gradient" x1="0%" x2="0%" y1="0%" y2="100%">
      <stop offset="0%" style="stop-color:#FDE02F;stop-opacity:1;"/>
      <stop offset="100%" style="stop-color:#F7B209;stop-opacity:1;"/>
    </linearGradient>
  </defs>
  <g id="color">
    <rect fill="#3F3F3F" height="50" stroke="none" stroke-linecap="round" stroke-linejoin="round" stroke-miterlimit="10" stroke-width="2" width="50" x="11" y="10.9583"/>
    <path d="M52.5498,47.1172c-3.5867,5.309-9.6606,8.7994-16.5498,8.7994c-11.0227,0-19.9583-8.9356-19.9583-19.9583S24.9773,16,36,16 c6.8569,0,12.9061,3.4578,16.4992,8.7249" fill="#D0CFCE" stroke="none" stroke-linecap="round" stroke-linejoin="round" stroke-miterlimit="10" stroke-width="2"/>
    <circle cx="35.9271" cy="35.887" fill="#D0CFCE" r="19.9583" stroke="none"/>
    <path d="M17.5128,26.3859c3.078-5.9375,8.9544-10.2898,16.0975-11.1214 c11.4289-1.3305,21.7725,6.8558,23.103,18.2847c1.3305,11.4289-6.8558,21.7725-18.2847,23.103 c-7.1096,0.8277-13.7992-2.0274-18.1604-7.0549" fill="#D0CFCE" stroke="none"/>
    <path d="M52.5498,47.0458c-3.5867,5.309-9.6606,8.7994-16.5498,8.7994c-11.0227,0-19.9583-8.9356-19.9583-19.9583 S24.9773,15.9286,36,15.9286c6.8569,0,12.9061,3.4578,16.4992,8.7249" fill="#D0CFCE" stroke="none" stroke-linecap="round" stroke-linejoin="round" stroke-miterlimit="10" stroke-width="2"/>
    <circle cx="36" cy="35.9583" fill="#3F3F3F" r="5" stroke="none" stroke-linecap="round" stroke-linejoin="round" stroke-miterlimit="10" stroke-width="2"/>
    <polyline fill="#D0CFCE" points="44,36.5005 44,41.9751 61,44.4334 61,36.5 61,36.4334 61,28.5 44,30.9583 44,36.4329" stroke="none" stroke-linecap="round" stroke-linejoin="round" stroke-miterlimit="10" stroke-width="2"/>
  </g>
  <g id="line">
    <rect fill="none" height="50" stroke="#000000" stroke-linecap="round" stroke-linejoin="round" stroke-miterlimit="10" stroke-width="2" width="50" x="11" y="10.9583"/>
    <path d="M52.5498,47.1172c-3.5867,5.309-9.6606,8.7994-16.5498,8.7994c-11.0227,0-19.9583-8.9356-19.9583-19.9583S24.9773,16,36,16 c6.8569,0,12.9061,3.4578,16.4992,8.7249" fill="none" stroke="#000000" stroke-linecap="round" stroke-linejoin="round" stroke-miterlimit="10" stroke-width="2"/>
    <path d="M52.5498,47.0458c-3.5867,5.309-9.6606,8.7994-16.5498,8.7994c-11.0227,0-19.9583-8.9356-19.9583-19.9583 S24.9773,15.9286,36,15.9286c6.8569,0,12.9061,3.4578,16.4992,8.7249" fill="none" stroke="#000000" stroke-linecap="round" stroke-linejoin="round" stroke-miterlimit="10" stroke-width="2"/>
    <circle cx="36" cy="35.9583" fill="none" r="5" stroke="#000000" stroke-linecap="round" stroke-linejoin="round" stroke-miterlimit="10" stroke-width="2"/>
    <polyline fill="none" points="44,36.5005 44,41.9751 61,44.4334 61,36.5 61,36.4334 61,28.5 44,30.9583 44,36.4329" stroke="#000000" stroke-linecap="round" stroke-linejoin="round" stroke-miterlimit="10" stroke-width="2"/>
  </g>
</svg>