<svg viewBox="7 7 58 58" xmlns="http://www.w3.org/2000/svg">
  <defs>
    <linearGradient id="yellow-gradient" x1="0%" x2="0%" y1="0%" y2="100%">
      <stop offset="0%" style="stop-color:#FDE02F;stop-opacity:1;"/>
      <stop offset="100%" style="stop-color:#F7B209;stop-opacity:1;"/>
    </linearGradient>
  </defs>
  <g id="color">
    <path d="M46.288,34.3932c-0.8205-1.4005-3.5756-2.5592-3.5756-2.5592l-1.0343-4.1975l-1.4782-13.0482 l-9.8551-0.6051l-0.9527,4.2373c0,0,0.0101-0.0118,0.0231-0.0265c0.152-0.3584-1.2544,12.4185-1.2544,12.4185 c-0.0635,0.3545-1.4459,1.7772-1.7857,1.8963c-2.8213,0.9893-3.0856,3.5212-3.57,4.5505l25.4157,0.0322 C48.1904,36.9485,46.9934,35.5975,46.288,34.3932z" fill="#EA5A47" stroke="none"/>
    <polygon fill="#EA5A47" points="31.0083,8.5994 29.5845,14.5883 40.2816,14.1282 39.8274,8.7892" stroke="none"/>
    <polygon fill="#D22F27" points="39.8274,8.7892 36.848,8.7892 37.1401,14.5883 40.8274,14.5883" stroke="none"/>
    <path d="M33.051,40.2346c0,0-0.0242,2.6808-0.0242,3.2335l0.3163,12.4946l2.5622,7.4335l2.1319-4.849 l0.2783-18.2953L33.051,40.2346z" fill="#d0cfce" stroke="none"/>
    <polygon fill="#9b9b9a" points="35.8736,62.4789 38.246,55.9627 38.3093,41.6967 38.32,40.2367 35.6609,40.2456" stroke="none"/>
    <path d="M38.0116,31.834c0,0,1.4394,1.1587,2.2599,2.5592c0.7054,1.2043,1.238,2.5553,1.2684,2.6983l6.2498-0.3612 c-0.4834-1.0264-1.2141-2.9608-4.0383-3.951c-0.3398-0.1191-0.6609-0.5908-0.7244-0.9453c0,0-2.212-14.0382-2.0498-13.5879 l-0.6956-4.1179l-3.1415,0.4601L37.99,29.9786L38.0116,31.834z" fill="#D22F27" stroke="none"/>
  </g>
  <g id="line">
    <polyline fill="none" points="33.069,41.2315 33.0753,56.0146 35.9361,63.8727 38.2539,55.9913 38.2479,41.2352" stroke="#000000" stroke-linecap="round" stroke-linejoin="round" stroke-miterlimit="10" stroke-width="2"/>
    <path d="M30.3187,18.576l-2.3773,13.26c-5.2242,1.8318-5.4803,5.4953-5.4803,5.4953h25.4502c0,0-0.2561-3.6635-5.4803-5.4953 l-2.3773-13.26" fill="none" stroke="#000000" stroke-linecap="round" stroke-linejoin="round" stroke-miterlimit="10" stroke-width="2"/>
    <polygon fill="none" points="40.8274,14.5883 29.5845,14.5883 30.5845,8.7892 39.8274,8.7892" stroke="#000000" stroke-linecap="round" stroke-linejoin="round" stroke-miterlimit="10" stroke-width="2"/>
  </g>
</svg>