<svg viewBox="7 7 58 58" xmlns="http://www.w3.org/2000/svg">
  <defs>
    <linearGradient id="yellow-gradient" x1="0%" x2="0%" y1="0%" y2="100%">
      <stop offset="0%" style="stop-color:#FDE02F;stop-opacity:1;"/>
      <stop offset="100%" style="stop-color:#F7B209;stop-opacity:1;"/>
    </linearGradient>
  </defs>
  <g id="color">
    <path d="M35.9717,9.7197c-6.4217,0-11.6459,5.2242-11.6459,11.6459S29.55,33.0115,35.9717,33.0115 c6.4216,0,11.6459-5.2242,11.6459-11.6459S42.3933,9.7197,35.9717,9.7197z" fill="#EA5A47" stroke="none"/>
    <path d="M39.1689,32.3818c1.7258-0.6456,3.289-0.8166,4.8143-2.212c2.1013-1.9223,3.9035-5.3398,3.9035-8.0238 c0-2.4449-0.578-5.3031-2.3421-7.6335c-1.6276-2.15-4.3608-3.8416-6.3757-4.554c0,0,3.5175,5.6512,3.5175,11.3739 S39.1689,32.3818,39.1689,32.3818z" fill="#D22F27" stroke="none"/>
    <path d="M35.837,63.4888l2.8467-7.6704c0,0-0.8248-19.5768-0.3788-19.6775h-5.1693 c0.4459,0.1007-0.2244,19.5589-0.2244,19.5589L35.837,63.4888z" fill="#D0CFCE" stroke="none"/>
    <path d="M35.9556,62.7376l2.649-7.0773c0,0,0.1045-19.0577,0.0622-19.5266l-2.9331,0.0072L35.9556,62.7376z" fill="#9B9B9A" stroke="none"/>
  </g>
  <g id="line">
    <circle cx="35.9715" cy="21.3656" fill="none" r="11.8084" stroke="#000000" stroke-linecap="round" stroke-linejoin="round" stroke-miterlimit="10" stroke-width="2"/>
    <polyline fill="none" points="38.5196,37.0981 38.5196,55.7135 35.9356,64.2191 32.9209,55.7135 32.9209,37.0981" stroke="#000000" stroke-linecap="round" stroke-linejoin="round" stroke-miterlimit="10" stroke-width="2"/>
  </g>
</svg>