<svg viewBox="9 9 54 54" xmlns="http://www.w3.org/2000/svg">
  <defs>
    <linearGradient id="yellow-gradient" x1="0%" x2="0%" y1="0%" y2="100%">
      <stop offset="0%" style="stop-color:#FDE02F;stop-opacity:1;"/>
      <stop offset="100%" style="stop-color:#F7B209;stop-opacity:1;"/>
    </linearGradient>
  </defs>
  <g id="color">
    <path d="M13.5626,18.7338l34.6292,42.2421l10.5838-8.1699L24.0535,10.1925L13.5626,18.7338z" fill="#D0CFCE" stroke="none"/>
    <polygon fill="#9B9B9A" points="23.8877,10.4284 21.2868,12.4577 55.8483,55.137 58.2678,52.5901" stroke="none"/>
    <line fill="#d0cfce" stroke="none" stroke-linecap="round" stroke-linejoin="round" stroke-miterlimit="10" stroke-width="2" x1="19.7269" x2="21.2785" y1="20.9377" y2="19.6758"/>
  </g>
  <g id="line">
    <rect fill="none" height="54.9324" stroke="#000000" stroke-linecap="round" stroke-linejoin="round" stroke-miterlimit="10" stroke-width="2" transform="matrix(-0.7776 0.6288 -0.6288 -0.7776 86.547 40.7853)" width="13.6862" x="29.2167" y="8.2339"/>
    <line fill="none" stroke="#000000" stroke-linecap="round" stroke-linejoin="round" stroke-miterlimit="10" stroke-width="2" x1="47.4897" x2="49.0413" y1="55.0731" y2="53.8112"/>
    <line fill="none" stroke="#000000" stroke-linecap="round" stroke-linejoin="round" stroke-miterlimit="10" stroke-width="2" x1="44.9658" x2="46.5175" y1="51.9699" y2="50.708"/>
    <line fill="none" stroke="#000000" stroke-linecap="round" stroke-linejoin="round" stroke-miterlimit="10" stroke-width="2" x1="42.442" x2="43.9935" y1="48.8667" y2="47.6048"/>
    <line fill="none" stroke="#000000" stroke-linecap="round" stroke-linejoin="round" stroke-miterlimit="10" stroke-width="2" x1="37.3941" x2="38.9457" y1="42.6602" y2="41.3983"/>
    <line fill="none" stroke="#000000" stroke-linecap="round" stroke-linejoin="round" stroke-miterlimit="10" stroke-width="2" x1="34.8702" x2="36.4219" y1="39.5571" y2="38.2952"/>
    <line fill="none" stroke="#000000" stroke-linecap="round" stroke-linejoin="round" stroke-miterlimit="10" stroke-width="2" x1="32.3464" x2="33.898" y1="36.4538" y2="35.1919"/>
    <line fill="none" stroke="#000000" stroke-linecap="round" stroke-linejoin="round" stroke-miterlimit="10" stroke-width="2" x1="29.8225" x2="31.374" y1="33.3506" y2="32.0887"/>
    <line fill="none" stroke="#000000" stroke-linecap="round" stroke-linejoin="round" stroke-miterlimit="10" stroke-width="2" x1="24.7746" x2="26.3263" y1="27.1442" y2="25.8823"/>
    <line fill="none" stroke="#000000" stroke-linecap="round" stroke-linejoin="round" stroke-miterlimit="10" stroke-width="2" x1="22.2508" x2="23.8024" y1="24.041" y2="22.779"/>
    <line fill="none" stroke="#000000" stroke-linecap="round" stroke-linejoin="round" stroke-miterlimit="10" stroke-width="2" x1="19.7269" x2="21.2785" y1="20.9377" y2="19.6758"/>
    <line fill="none" stroke="#000000" stroke-linecap="round" stroke-linejoin="round" stroke-miterlimit="10" stroke-width="2" x1="39.8121" x2="42.46" y1="45.8496" y2="43.6961"/>
    <line fill="none" stroke="#000000" stroke-linecap="round" stroke-linejoin="round" stroke-miterlimit="10" stroke-width="2" x1="27.1926" x2="29.8405" y1="30.3335" y2="28.18"/>
  </g>
</svg>