<svg viewBox="12 12 48 48" xmlns="http://www.w3.org/2000/svg">
  <defs>
    <linearGradient id="yellow-gradient" x1="0%" x2="0%" y1="0%" y2="100%">
      <stop offset="0%" style="stop-color:#FDE02F;stop-opacity:1;"/>
      <stop offset="100%" style="stop-color:#F7B209;stop-opacity:1;"/>
    </linearGradient>
  </defs>
  <g id="color">
    <polyline fill="#9B9B9A" points="56,48.8213 56,10.9583 15.0372,10.9583 15.0372,41.1106 15.0372,52.2652 54.4639,50.9166" stroke="none"/>
    <polyline fill="#9B9B9A" points="56,48.8213 56,10.9583 16,10.9583 16,41.1106" stroke="none" stroke-linecap="round" stroke-linejoin="round" stroke-miterlimit="10" stroke-width="2"/>
    <polygon fill="#D0CFCE" points="47.9719,38.1494 13.8387,45.6521 14.6533,56.4415 45.8422,52.277 49.1154,51.84 53,51.3213" stroke="none" stroke-linecap="round" stroke-linejoin="round" stroke-miterlimit="10" stroke-width="2"/>
  </g>
  <g id="line">
    <polyline fill="none" points="56,48.8213 56,10.9583 16,10.9583 16,41.1106" stroke="#000000" stroke-linecap="round" stroke-linejoin="round" stroke-miterlimit="10" stroke-width="2"/>
    <polygon fill="none" points="47.9719,38.1494 13.8387,45.6521 14.6533,56.4415 45.8422,52.277 49.1154,51.84 53,51.3213" stroke="#000000" stroke-linecap="round" stroke-linejoin="round" stroke-miterlimit="10" stroke-width="2"/>
    <line fill="none" stroke="#000000" stroke-linecap="round" stroke-linejoin="round" stroke-miterlimit="10" stroke-width="2" x1="20.6218" x2="36" y1="16" y2="16"/>
    <line fill="none" stroke="#000000" stroke-linecap="round" stroke-linejoin="round" stroke-miterlimit="10" stroke-width="2" x1="20.6218" x2="51.6602" y1="21.328" y2="21.328"/>
    <line fill="none" stroke="#000000" stroke-linecap="round" stroke-linejoin="round" stroke-miterlimit="10" stroke-width="2" x1="20.6218" x2="51.6602" y1="32.2205" y2="32.2205"/>
    <line fill="none" stroke="#000000" stroke-linecap="round" stroke-linejoin="round" stroke-miterlimit="10" stroke-width="2" x1="20.6218" x2="33.3927" y1="37.6274" y2="37.6274"/>
    <line fill="none" stroke="#000000" stroke-linecap="round" stroke-linejoin="round" stroke-miterlimit="10" stroke-width="2" x1="20.6218" x2="51.6602" y1="26.8137" y2="26.8137"/>
    <path d="M56,48.3213c0,1.6569-1.3431,3-3,3" fill="none" stroke="#000000" stroke-linecap="round" stroke-linejoin="round" stroke-miterlimit="10" stroke-width="2"/>
  </g>
</svg>