<svg viewBox="12 12 48 48" xmlns="http://www.w3.org/2000/svg">
  <defs>
    <linearGradient id="yellow-gradient" x1="0%" x2="0%" y1="0%" y2="100%">
      <stop offset="0%" style="stop-color:#FDE02F;stop-opacity:1;"/>
      <stop offset="100%" style="stop-color:#F7B209;stop-opacity:1;"/>
    </linearGradient>
  </defs>
  <g id="color">
    <path d="M13.6707,21.3098c1.4142,9.8995,26.8701,35.3553,36.7696,36.7696c0,0,5.6569,0,8.4853-5.6569l-9.1924-9.1924l-3.5355,3.5355 c-7.0711-1.4142-19.799-14.1421-21.2132-21.2132l3.5355-3.5355l-9.1924-9.1924C13.6707,15.6529,13.6707,21.3098,13.6707,21.3098z" fill="#d0cfce" stroke="none" stroke-linecap="round" stroke-linejoin="round" stroke-miterlimit="10" stroke-width="2"/>
    <polygon fill="#9b9b9a" points="25,26 15.125,16.25 19,13 27.75,21.875" stroke="none"/>
    <polygon fill="#9b9b9a" points="56,57 46.125,47.25 50,44 58.75,52.875" stroke="none"/>
  </g>
  <g id="line">
    <path d="M13.6707,21.3098c1.4142,9.8995,26.8701,35.3553,36.7696,36.7696c0,0,5.6569,0,8.4853-5.6569l-9.1924-9.1924l-3.5355,3.5355 c-7.0711-1.4142-19.799-14.1421-21.2132-21.2132l3.5355-3.5355l-9.1924-9.1924C13.6707,15.6529,13.6707,21.3098,13.6707,21.3098z" fill="none" stroke="#000000" stroke-linecap="round" stroke-linejoin="round" stroke-miterlimit="10" stroke-width="2"/>
    <path d="M13.6707,21.3098c1.4142,9.8995,26.8701,35.3553,36.7696,36.7696c0,0,5.6569,0,8.4853-5.6569l-9.1924-9.1924l-3.5355,3.5355 c-7.0711-1.4142-19.799-14.1421-21.2132-21.2132l3.5355-3.5355l-9.1924-9.1924C13.6707,15.6529,13.6707,21.3098,13.6707,21.3098z" fill="none" stroke="#000000" stroke-linecap="round" stroke-linejoin="round" stroke-miterlimit="10" stroke-width="2"/>
  </g>
</svg>