<svg viewBox="9 9 54 54" xmlns="http://www.w3.org/2000/svg">
  <defs>
    <linearGradient id="yellow-gradient" x1="0%" x2="0%" y1="0%" y2="100%">
      <stop offset="0%" style="stop-color:#FDE02F;stop-opacity:1;"/>
      <stop offset="100%" style="stop-color:#F7B209;stop-opacity:1;"/>
    </linearGradient>
  </defs>
  <g id="color">
    <rect fill="#FFFFFF" height="49.0659" stroke="none" width="39.5645" x="16.4055" y="11.3783"/>
    <polyline fill="#f4aa41" points="39.9312,40.2224 51.2252,28.9284 58.6008,36.304 47.4027,47.5021" stroke="none"/>
    <polyline fill="#a57939" points="37.9415,46.8185 39.902,41.17 46.3562,47.624 40.7075,49.5846" stroke="none"/>
    <polyline fill="#EA5A47" points="54.6088,25.0518 58.5874,21.0732 66.4459,28.9316 62.5011,32.8765" stroke="none"/>
    <polyline fill="#d0cfce" points="50.4943,29.6593 55.1018,25.0519 62.4773,32.4274 57.9089,36.9958" stroke="none"/>
  </g>
  <g id="line">
    <polygon fill="#000000" points="38.0702,47.191 40.4564,49.5772 36.9921,50.8566" stroke="none"/>
    <line fill="none" stroke="#000000" stroke-linecap="round" stroke-linejoin="round" stroke-miterlimit="10" stroke-width="2" x1="22.3215" x2="49.3215" y1="19.875" y2="19.875"/>
    <line fill="none" stroke="#000000" stroke-linecap="round" stroke-linejoin="round" stroke-miterlimit="10" stroke-width="2" x1="22.3215" x2="47.9215" y1="27.875" y2="27.875"/>
    <line fill="none" stroke="#000000" stroke-linecap="round" stroke-linejoin="round" stroke-miterlimit="10" stroke-width="2" x1="22.3215" x2="39.4312" y1="35.875" y2="35.875"/>
    <line fill="none" stroke="#000000" stroke-linecap="round" stroke-linejoin="round" stroke-miterlimit="10" stroke-width="2" x1="22.3215" x2="34.5284" y1="43.875" y2="43.875"/>
    <line fill="none" stroke="#000000" stroke-linecap="round" stroke-linejoin="round" stroke-miterlimit="10" stroke-width="2" x1="22.3215" x2="32.4675" y1="51.875" y2="51.875"/>
    <polygon fill="#000000" points="38.0702,47.191 40.4564,49.5772 36.9921,50.8566" stroke="none"/>
    <polygon fill="none" points="40.6919,49.591 46.3562,47.624 61.9461,32.034 55.492,25.5799 39.902,41.17 37.9282,46.841" stroke="#000000" stroke-linecap="round" stroke-linejoin="round" stroke-miterlimit="10" stroke-width="2"/>
    <polyline fill="none" points="58.0856,22.9863 59.6411,21.4309 66.0952,27.885 64.4634,29.5168" stroke="#000000" stroke-linecap="round" stroke-linejoin="round" stroke-miterlimit="10" stroke-width="2"/>
    <line fill="none" stroke="#000000" stroke-linecap="round" stroke-linejoin="round" stroke-miterlimit="10" stroke-width="2" x1="40.2788" x2="46.7329" y1="40.7932" y2="47.2473"/>
    <polyline fill="none" points="37.9323,46.8277 36.5493,50.9768 40.7075,49.5846" stroke="#000000" stroke-linecap="round" stroke-linejoin="round" stroke-miterlimit="10" stroke-width="2"/>
    <line fill="none" stroke="#000000" stroke-linecap="round" stroke-linejoin="round" stroke-miterlimit="10" stroke-width="2" x1="51.3023" x2="57.5042" y1="30.1572" y2="36.3591"/>
    <polyline fill="none" points="55.3215,44.228 55.3215,59.875 16.3215,59.875 16.3215,11.875 55.3215,11.875 55.3215,20.3309" stroke="#000000" stroke-linecap="round" stroke-linejoin="round" stroke-miterlimit="10" stroke-width="2.0206"/>
  </g>
</svg>