<svg viewBox="8 8 56 56" xmlns="http://www.w3.org/2000/svg">
  <defs>
    <linearGradient id="yellow-gradient" x1="0%" x2="0%" y1="0%" y2="100%">
      <stop offset="0%" style="stop-color:#FDE02F;stop-opacity:1;"/>
      <stop offset="100%" style="stop-color:#F7B209;stop-opacity:1;"/>
    </linearGradient>
  </defs>
  <g id="color">
    <rect fill="#92d3f5" height="47.5" width="42" x="18" y="12"/>
    <rect fill="#61b2e4" height="47.5" width="6.9925" x="12" y="12"/>
  </g>
  <g id="line">
    <line fill="none" stroke="#000" stroke-linecap="round" stroke-linejoin="round" stroke-width="2" x1="18" x2="18" y1="13" y2="59"/>
    <path d="M62.9087,54.8149A1.986,1.986,0,0,0,64,53.0467V9.0833A2.0833,2.0833,0,0,0,61.9167,7H16.4591a4.7714,4.7714,0,0,0-3.9733,2.13h0a1.889,1.889,0,0,0,1.573,2.9349h3.8086l2.1331-.0177H59.9167v48H14.0583a1.8905,1.8905,0,0,1-1.8916-1.85V10.575" fill="none" stroke="#000" stroke-linecap="round" stroke-linejoin="round" stroke-width="2"/>
    <g>
      <polyline fill="none" points="39.533 27.219 39.533 34.219 42.533 34.219" stroke="#000" stroke-linecap="round" stroke-linejoin="round" stroke-width="2"/>
      <path d="M33.7078,34.2187h0a2.5,2.5,0,0,1-2.5-2.5v-2a2.5,2.5,0,0,1,2.5-2.5h0a2.5,2.5,0,0,1,2.5,2.5v2A2.5,2.5,0,0,1,33.7078,34.2187Z" fill="none" stroke="#000" stroke-linecap="round" stroke-linejoin="round" stroke-width="2"/>
      <circle cx="45.5328" cy="34.2187" r="1"/>
      <polyline fill="none" points="28.416 27.29 26.898 34.29 26.208 34.29 25.537 34.29 24 27.29" stroke="#000" stroke-linecap="round" stroke-linejoin="round" stroke-width="2"/>
      <path d="M49.5633,32.8214a1.9316,1.9316,0,0,0,1.9338,1.3973h0a1.7627,1.7627,0,1,0,0-3.5,1.7627,1.7627,0,1,0,0-3.5h0a1.9317,1.9317,0,0,0-1.9338,1.3973" fill="none" stroke="#000" stroke-linecap="round" stroke-linejoin="round" stroke-width="2"/>
    </g>
  </g>
</svg>