<svg viewBox="9 9 54 54" xmlns="http://www.w3.org/2000/svg">
  <defs>
    <linearGradient id="yellow-gradient" x1="0%" x2="0%" y1="0%" y2="100%">
      <stop offset="0%" style="stop-color:#FDE02F;stop-opacity:1;"/>
      <stop offset="100%" style="stop-color:#F7B209;stop-opacity:1;"/>
    </linearGradient>
  </defs>
  <g id="color">
    <rect fill="#d0cfce" height="28" width="50" x="11" y="22"/>
    <polygon fill="#9b9b9a" points="61 50 50.685 50 36.512 22 61 22 61 50"/>
    <rect fill="#b1cc33" height="11.2" width="33" x="16" y="27"/>
    <polygon fill="#5c9e31" points="49 38.2 41.512 38.2 35.843 27 49 27 49 38.2"/>
  </g>
  <g id="line">
    <line fill="none" stroke="#000" stroke-linecap="round" stroke-linejoin="round" stroke-width="2" x1="11" x2="11" y1="50" y2="22"/>
    <line fill="none" stroke="#000" stroke-linecap="round" stroke-linejoin="round" stroke-width="2" x1="61" x2="11" y1="50" y2="50"/>
    <line fill="none" stroke="#000" stroke-linecap="round" stroke-linejoin="round" stroke-width="2" x1="61" x2="61" y1="22" y2="50"/>
    <line fill="none" stroke="#000" stroke-linecap="round" stroke-linejoin="round" stroke-width="2" x1="11" x2="61" y1="22" y2="22"/>
    <line fill="none" stroke="#000" stroke-linecap="round" stroke-linejoin="round" stroke-width="1.8" x1="16" x2="16" y1="38.2" y2="27"/>
    <line fill="none" stroke="#000" stroke-linecap="round" stroke-linejoin="round" stroke-width="1.8" x1="49" x2="16" y1="38.2" y2="38.2"/>
    <line fill="none" stroke="#000" stroke-linecap="round" stroke-linejoin="round" stroke-width="1.8" x1="49" x2="49" y1="27" y2="38.2"/>
    <line fill="none" stroke="#000" stroke-linecap="round" stroke-linejoin="round" stroke-width="1.8" x1="16" x2="49" y1="27" y2="27"/>
    <circle cx="20.6383" cy="44.1" r="2"/>
    <circle cx="28.6383" cy="44.1" r="2"/>
    <circle cx="36.6383" cy="44.1" r="2"/>
  </g>
</svg>