<svg viewBox="4 4 64 64" xmlns="http://www.w3.org/2000/svg">
  <defs>
    <linearGradient id="yellow-gradient" x1="0%" x2="0%" y1="0%" y2="100%">
      <stop offset="0%" style="stop-color:#FDE02F;stop-opacity:1;"/>
      <stop offset="100%" style="stop-color:#F7B209;stop-opacity:1;"/>
    </linearGradient>
  </defs>
  <g id="color">
    <path d="m19.64 44.88 20.94 1.577 19.06 7.565v-37.19l-18.12 7.952-21.88 1.19z" fill="#fff"/>
    <path d="m19.64 45v-4.116s25.39-0.507 40 8.546v4.596c-15.21-10.43-40-9.142-40-9.142" fill="#d0cfce"/>
    <path d="m12.85 25.98h6.787v18.63h-6.787a2 2 0 0 1-2-2v-14.63a2 2 0 0 1 2-2z" fill="#d22f27"/>
    <rect fill="#ea5a47" height="40.01" rx="2" ry="2" width="6" x="59.64" y="15.29"/>
    <path d="m21 44.92 0.6284 4.031-1.368 1.37e-4 1.681 8.916h1.5l0.38 2.016-6.475 0.07576-2.835-15.04" fill="#9b9b9a" transform="translate(-1.364)"/>
    <path d="m10.85 28.79h-2.485a2 2 0 0 0-2 2v8.922a2 2 0 0 0 2 2h2.485" fill="#ea5a47"/>
  </g>
  <g id="line">
    <path d="m19.64 25.98s24.79 1.289 40-9.142" fill="none" stroke="#000" stroke-linecap="round" stroke-linejoin="round" stroke-width="2"/>
    <path d="m19.64 44.88s24.79-1.289 40 9.142" fill="none" stroke="#000" stroke-linecap="round" stroke-linejoin="round" stroke-width="2"/>
    <path d="m12.85 25.98h6.787v18.63h-6.787a2 2 0 0 1-2-2v-14.63a2 2 0 0 1 2-2z" fill="none" stroke="#000" stroke-linecap="round" stroke-linejoin="round" stroke-width="2"/>
    <rect fill="none" height="40.01" rx="2" ry="2" stroke="#000" stroke-linecap="round" stroke-linejoin="round" stroke-width="2" width="6" x="59.64" y="15.29"/>
    <path d="m21 44.92 0.8766 4.648h-1.5l1.564 8.299h0.4996l0.38 2.016-5.475 0.07576-2.835-15.04" fill="none" stroke="#000" stroke-linecap="round" stroke-linejoin="round" stroke-width="2" transform="translate(-1.364)"/>
    <path d="m19.64 25.98s24.79 1.289 40-9.142" fill="none" stroke="#000" stroke-linecap="round" stroke-linejoin="round" stroke-width="2"/>
    <path d="m19.64 44.88s24.79-1.289 40 9.142" fill="none" stroke="#000" stroke-linecap="round" stroke-linejoin="round" stroke-width="2"/>
    <path d="m10.85 28.79h-2.485a2 2 0 0 0-2 2v8.922a2 2 0 0 0 2 2h2.485" fill="none" stroke="#000" stroke-linecap="round" stroke-linejoin="round" stroke-width="2"/>
    <line fill="none" stroke="#000" stroke-linecap="round" stroke-linejoin="round" stroke-width="2" x1="13.64" x2="16.64" y1="41" y2="41"/>
  </g>
</svg>