<svg viewBox="11 11 50 50" xmlns="http://www.w3.org/2000/svg">
  <defs>
    <linearGradient id="yellow-gradient" x1="0%" x2="0%" y1="0%" y2="100%">
      <stop offset="0%" style="stop-color:#FDE02F;stop-opacity:1;"/>
      <stop offset="100%" style="stop-color:#F7B209;stop-opacity:1;"/>
    </linearGradient>
  </defs>
  <g id="color">
    <rect fill="#9B9B9A" height="26" stroke="none" stroke-linecap="round" stroke-linejoin="round" stroke-miterlimit="10" stroke-width="2" width="46" x="13" y="32"/>
    <path d="M21,55h-1c-1.6569,0-3-1.3431-3-3V38c0-1.6569,1.3431-3,3-3h1c1.6569,0,3,1.3431,3,3v14C24,53.6569,22.6569,55,21,55z" fill="#D0CFCE" stroke="none" stroke-linecap="round" stroke-linejoin="round" stroke-miterlimit="10" stroke-width="2"/>
    <rect fill="#9B9B9A" height="19" stroke="none" stroke-linecap="round" stroke-linejoin="round" stroke-miterlimit="10" stroke-width="2" width="38" x="17" y="13"/>
    <rect fill="#FFFFFF" height="15" stroke="none" stroke-linecap="round" stroke-linejoin="round" stroke-miterlimit="10" stroke-width="2" width="22" x="29" y="17"/>
    <rect fill="#B1CC33" height="8" stroke="none" stroke-linecap="round" stroke-linejoin="round" stroke-miterlimit="10" stroke-width="2" width="9" x="46" y="37"/>
  </g>
  <g id="line">
    <rect fill="none" height="26" stroke="#000000" stroke-linecap="round" stroke-linejoin="round" stroke-miterlimit="10" stroke-width="2" width="46" x="13" y="32"/>
    <path d="M21,55h-1c-1.6569,0-3-1.3431-3-3V38c0-1.6569,1.3431-3,3-3h1c1.6569,0,3,1.3431,3,3v14C24,53.6569,22.6569,55,21,55z" fill="none" stroke="#000000" stroke-linecap="round" stroke-linejoin="round" stroke-miterlimit="10" stroke-width="2"/>
    <rect fill="none" height="19" stroke="#000000" stroke-linecap="round" stroke-linejoin="round" stroke-miterlimit="10" stroke-width="2" width="38" x="17" y="13"/>
    <rect fill="none" height="15" stroke="#000000" stroke-linecap="round" stroke-linejoin="round" stroke-miterlimit="10" stroke-width="2" width="22" x="29" y="17"/>
    <circle cx="29" cy="39" fill="#000000" r="2" stroke="none"/>
    <circle cx="35" cy="39" fill="#000000" r="2" stroke="none"/>
    <circle cx="41" cy="39" fill="#000000" r="2" stroke="none"/>
    <circle cx="29" cy="45" fill="#000000" r="2" stroke="none"/>
    <circle cx="35" cy="45" fill="#000000" r="2" stroke="none"/>
    <circle cx="41" cy="45" fill="#000000" r="2" stroke="none"/>
    <circle cx="29" cy="51" fill="#000000" r="2" stroke="none"/>
    <circle cx="35" cy="51" fill="#000000" r="2" stroke="none"/>
    <circle cx="41" cy="51" fill="#000000" r="2" stroke="none"/>
    <rect fill="none" height="8" stroke="#000000" stroke-linecap="round" stroke-linejoin="round" stroke-miterlimit="10" stroke-width="2" width="9" x="46" y="37"/>
  </g>
</svg>