<svg viewBox="9 9 54 54" xmlns="http://www.w3.org/2000/svg">
  <defs>
    <linearGradient id="yellow-gradient" x1="0%" x2="0%" y1="0%" y2="100%">
      <stop offset="0%" style="stop-color:#FDE02F;stop-opacity:1;"/>
      <stop offset="100%" style="stop-color:#F7B209;stop-opacity:1;"/>
    </linearGradient>
  </defs>
  <g id="color">
    <path d="M41.0031,26.1404h-1.5889 c-0.5519,0-0.9994,0.4474-0.9994,0.9994v4.4112c0,0.5519-0.4474,0.9994-0.9994,0.9994h-4.3313 c-0.5519,0-0.9994-0.4474-0.9994-0.9994v-4.4112c0-0.5519-0.4474-0.9994-0.9994-0.9994h-1.5788 c-0.8109,0-1.2842-0.9149-0.8157-1.5768l5.7482-8.1208c0.3983-0.5627,1.2331-0.5627,1.6314,0l5.7482,8.1208 C42.2873,25.2255,41.814,26.1404,41.0031,26.1404z" fill="#92D3F5" stroke="none" stroke-miterlimit="10" stroke-width="2"/>
    <path d="M61,42.1886v10.7401c0,1.711-1.3914,3.0922-3.0922,3.0922h-43.908c-1.6569,0-3-1.3431-3-3V42.0964c0-1.6569,1.3431-3,3-3h5.4067 c1.1204,0,2.2273,0.523,2.7865,1.4938c0.5049,0.8765,1.4431,1.4643,2.5154,1.4643l11.2863,0.0103l11.2864-0.0103 c1.0722,0,2.0104-0.5878,2.5154-1.4643c0.5593-0.9708,1.6662-1.4938,2.7865-1.4938h5.3248C59.6086,39.0964,61,40.4776,61,42.1886z" fill="#d0cfce" stroke="none" stroke-linecap="round" stroke-linejoin="round" stroke-miterlimit="10" stroke-width="2"/>
  </g>
  <g id="line">
    <path d="M41.0031,26.1404h-1.5889 c-0.5519,0-0.9994,0.4474-0.9994,0.9994v4.4112c0,0.5519-0.4474,0.9994-0.9994,0.9994h-4.3313 c-0.5519,0-0.9994-0.4474-0.9994-0.9994v-4.4112c0-0.5519-0.4474-0.9994-0.9994-0.9994h-1.5788 c-0.8109,0-1.2842-0.9149-0.8157-1.5768l5.7482-8.1208c0.3983-0.5627,1.2331-0.5627,1.6314,0l5.7482,8.1208 C42.2873,25.2255,41.814,26.1404,41.0031,26.1404z" fill="none" stroke="#000000" stroke-miterlimit="10" stroke-width="2"/>
    <path d="M61,42.1886v10.7401c0,1.711-1.3914,3.0922-3.0922,3.0922h-43.908c-1.6569,0-3-1.3431-3-3V42.0964c0-1.6569,1.3431-3,3-3h5.4067 c1.1204,0,2.2273,0.523,2.7865,1.4938c0.5049,0.8765,1.4431,1.4643,2.5154,1.4643l11.2863,0.0103l11.2864-0.0103 c1.0722,0,2.0104-0.5878,2.5154-1.4643c0.5593-0.9708,1.6662-1.4938,2.7865-1.4938h5.3248C59.6086,39.0964,61,40.4776,61,42.1886z" fill="none" stroke="#000000" stroke-linecap="round" stroke-linejoin="round" stroke-miterlimit="10" stroke-width="2"/>
  </g>
</svg>