<svg viewBox="10 10 52 52" xmlns="http://www.w3.org/2000/svg">
  <defs>
    <linearGradient id="yellow-gradient" x1="0%" x2="0%" y1="0%" y2="100%">
      <stop offset="0%" style="stop-color:#FDE02F;stop-opacity:1;"/>
      <stop offset="100%" style="stop-color:#F7B209;stop-opacity:1;"/>
    </linearGradient>
  </defs>
  <g id="color">
    <path d="M13.2227,59.3477h45.7451V32.7764H13.2227V59.3477z" fill="#d0cfce" stroke="none"/>
    <path d="M18.7401,38.2841l36.479,0.177l0.4075-2.1818H16.6237v11.1684l2.0825,0.336L18.7401,38.2841z" fill="#9B9B9A" stroke="none"/>
    <polygon fill="#d0cfce" points="59.9675,23.7932 12.2227,23.7932 12.2227,26.6208 59.9675,26.6059" stroke="none"/>
    <circle cx="22.2676" cy="13.5693" fill="#d0cfce" r="1" stroke="none"/>
    <circle cx="22.4902" cy="41.9844" fill="#3f3f3f" r="2.0004" stroke="none"/>
  </g>
  <g id="line">
    <line fill="none" stroke="#000000" stroke-linecap="round" stroke-linejoin="round" stroke-miterlimit="10" stroke-width="2" x1="47.4338" x2="55.2191" y1="27.2143" y2="31.4279"/>
    <line fill="none" stroke="#000000" stroke-linecap="round" stroke-linejoin="round" stroke-miterlimit="10" stroke-width="2" x1="24.0277" x2="34.665" y1="14.5462" y2="20.3035"/>
    <circle cx="22.2675" cy="13.5691" fill="none" r="2" stroke="#000000" stroke-linecap="round" stroke-linejoin="round" stroke-miterlimit="10" stroke-width="2"/>
    <rect fill="none" height="28.5707" stroke="#000000" stroke-linecap="round" stroke-linejoin="round" stroke-miterlimit="10" stroke-width="2" width="47.7448" x="12.2227" y="31.7767"/>
    <line fill="none" stroke="#000000" stroke-linecap="round" stroke-linejoin="round" stroke-miterlimit="10" stroke-width="2" x1="16.5455" x2="55.1183" y1="52.2367" y2="52.2367"/>
    <line fill="none" stroke="#000000" stroke-linecap="round" stroke-linejoin="round" stroke-miterlimit="10" stroke-width="2" x1="16.5455" x2="55.1183" y1="56.2367" y2="56.2367"/>
    <rect fill="none" height="11.5044" stroke="#000000" stroke-linecap="round" stroke-linejoin="round" stroke-miterlimit="10" stroke-width="2" width="38.5954" x="16.6237" y="36.2793"/>
    <circle cx="22.4906" cy="41.9848" fill="none" r="2" stroke="#000000" stroke-linecap="round" stroke-linejoin="round" stroke-miterlimit="10" stroke-width="2"/>
    <polyline fill="none" points="12.2227,26.9462 12.2227,23.7932 59.9675,23.7932 59.9675,26.9462" stroke="#000000" stroke-linecap="round" stroke-linejoin="round" stroke-miterlimit="10" stroke-width="2"/>
    <line fill="none" stroke="#000000" stroke-linecap="round" stroke-linejoin="round" stroke-miterlimit="10" stroke-width="2" x1="38.2935" x2="38.2935" y1="41.6974" y2="42.3642"/>
    <line fill="none" stroke="#000000" stroke-linecap="round" stroke-linejoin="round" stroke-miterlimit="10" stroke-width="2" x1="42.2935" x2="42.2935" y1="41.6974" y2="42.3642"/>
    <line fill="none" stroke="#000000" stroke-linecap="round" stroke-linejoin="round" stroke-miterlimit="10" stroke-width="2" x1="46.2935" x2="46.2935" y1="41.6974" y2="42.3642"/>
  </g>
</svg>