<svg viewBox="0 0 72 72" xmlns="http://www.w3.org/2000/svg">
  <defs>
    <linearGradient id="yellow-gradient" x1="0%" x2="0%" y1="0%" y2="100%">
      <stop offset="0%" style="stop-color:#FDE02F;stop-opacity:1;"/>
      <stop offset="100%" style="stop-color:#F7B209;stop-opacity:1;"/>
    </linearGradient>
  </defs>
  <g id="color">
    <path d="M5.2629,15.7371L4.5,56.0004h62.1729L67,16L5.2629,15.7371z" fill="#9B9B9A" stroke="none"/>
    <rect fill="#3F3F3F" height="26" stroke="none" width="54" x="9" y="20"/>
    <polygon fill="#FFFFFF" points="63,46 63,20 48.3262,19.6764 57.2277,45.7365" stroke="none"/>
    <path d="M34.2719,60.958l-0.2095,5.894l4.5437,0.1057l0.1946-6.6887c0,0-0.8534-1.3007-0.3007-1.3007h-4 C35.0527,58.9683,34.2719,60.958,34.2719,60.958z" fill="#9B9B9A" stroke="none"/>
  </g>
  <g id="line">
    <rect fill="none" height="40" stroke="#000000" stroke-linecap="round" stroke-linejoin="round" stroke-miterlimit="10" stroke-width="2" width="62" x="5" y="16"/>
    <line fill="#000000" stroke="#000000" stroke-linecap="round" stroke-linejoin="round" stroke-miterlimit="10" stroke-width="2" x1="50.9229" x2="22.0771" y1="66.852" y2="66.852"/>
    <circle cx="36.5" cy="51" fill="#000000" r="2" stroke="none"/>
    <rect fill="none" height="26" stroke="#000000" stroke-linecap="round" stroke-linejoin="round" stroke-miterlimit="10" stroke-width="2" width="54" x="9" y="20"/>
    <line fill="none" stroke="#000000" stroke-linecap="round" stroke-linejoin="round" stroke-miterlimit="10" stroke-width="2" x1="38.5" x2="38.5" y1="59.9683" y2="66.3538"/>
    <line fill="none" stroke="#000000" stroke-linecap="round" stroke-linejoin="round" stroke-miterlimit="10" stroke-width="2" x1="34.5" x2="34.5" y1="59.9683" y2="66.3538"/>
  </g>
</svg>