<svg viewBox="5 5 62 62" xmlns="http://www.w3.org/2000/svg">
  <defs>
    <linearGradient id="yellow-gradient" x1="0%" x2="0%" y1="0%" y2="100%">
      <stop offset="0%" style="stop-color:#FDE02F;stop-opacity:1;"/>
      <stop offset="100%" style="stop-color:#F7B209;stop-opacity:1;"/>
    </linearGradient>
  </defs>
  <g id="color">
    <path d="M52.5,64.7644h-33c-0.5523,0-1-0.4477-1-1v-56c0-0.5523,0.4477-1,1-1h33c0.5523,0,1,0.4477,1,1v56 C53.5,64.3167,53.0523,64.7644,52.5,64.7644z" fill="#9B9B9A" stroke="none" stroke-linecap="round" stroke-linejoin="round" stroke-miterlimit="10" stroke-width="2"/>
    <path d="M48.0339,55H23.9661C23.4325,55,23,54.5675,23,54.0339V13.9661C23,13.4325,23.4325,13,23.9661,13h24.0678 C48.5675,13,49,13.4325,49,13.9661v40.0678C49,54.5675,48.5675,55,48.0339,55z" fill="#D0CFCE" stroke="none" stroke-linecap="round" stroke-linejoin="round" stroke-miterlimit="10" stroke-width="2"/>
    <polygon fill="#FFFFFF" points="31,10 41,10 41,10 31,10" stroke="none" stroke-linecap="round" stroke-linejoin="round" stroke-miterlimit="10" stroke-width="2"/>
  </g>
  <g id="line">
    <path d="M52.5,64.7644h-33c-0.5523,0-1-0.4477-1-1v-56c0-0.5523,0.4477-1,1-1h33c0.5523,0,1,0.4477,1,1v56 C53.5,64.3167,53.0523,64.7644,52.5,64.7644z" fill="none" stroke="#000000" stroke-linecap="round" stroke-linejoin="round" stroke-miterlimit="10" stroke-width="2"/>
    <path d="M48.0339,55H23.9661C23.4325,55,23,54.5675,23,54.0339V13.9661C23,13.4325,23.4325,13,23.9661,13h24.0678 C48.5675,13,49,13.4325,49,13.9661v40.0678C49,54.5675,48.5675,55,48.0339,55z" fill="none" stroke="#000000" stroke-linecap="round" stroke-linejoin="round" stroke-miterlimit="10" stroke-width="2"/>
    <circle cx="36" cy="60" fill="#000000" r="2" stroke="#000000" stroke-miterlimit="10"/>
    <polygon fill="none" points="31,10 41,10 41,10 31,10" stroke="#000000" stroke-linecap="round" stroke-linejoin="round" stroke-miterlimit="10" stroke-width="2"/>
  </g>
</svg>