<svg viewBox="10 10 52 52" xmlns="http://www.w3.org/2000/svg">
  <defs>
    <linearGradient id="yellow-gradient" x1="0%" x2="0%" y1="0%" y2="100%">
      <stop offset="0%" style="stop-color:#FDE02F;stop-opacity:1;"/>
      <stop offset="100%" style="stop-color:#F7B209;stop-opacity:1;"/>
    </linearGradient>
  </defs>
  <g id="color">
    <path d="M54.0698,59H27.6801c-0.4447,0-0.8052-0.3605-0.8052-0.8052V12.8052c0-0.4447,0.3605-0.8052,0.8052-0.8052h26.3897 c0.4446,0,0.8051,0.3605,0.8051,0.8052v45.3896C54.8749,58.6395,54.5144,59,54.0698,59z" fill="#9B9B9A" stroke="none" stroke-linecap="round" stroke-linejoin="round" stroke-miterlimit="10" stroke-width="2"/>
    <path d="M50.5937,52.053H31.1561c-0.4314,0-0.7812-0.3498-0.7812-0.7812V18.8342c0-0.4315,0.3498-0.7812,0.7812-0.7812h19.4376 c0.4315,0,0.7812,0.3497,0.7812,0.7812v32.4376C51.3749,51.7032,51.0252,52.053,50.5937,52.053z" fill="#D0CFCE" stroke="none" stroke-linecap="round" stroke-linejoin="round" stroke-miterlimit="10" stroke-width="2"/>
    <polygon fill="#FFFFFF" points="37,15 45,15 45,15 37,15" stroke="none" stroke-linecap="round" stroke-linejoin="round" stroke-miterlimit="10" stroke-width="2"/>
  </g>
  <g id="line">
    <path d="M54.0698,59H27.6801c-0.4447,0-0.8052-0.3605-0.8052-0.8052V12.8052c0-0.4447,0.3605-0.8052,0.8052-0.8052h26.3897 c0.4446,0,0.8051,0.3605,0.8051,0.8052v45.3896C54.8749,58.6395,54.5144,59,54.0698,59z" fill="none" stroke="#000000" stroke-linecap="round" stroke-linejoin="round" stroke-miterlimit="10" stroke-width="2"/>
    <path d="M50.5937,52.053H31.1561c-0.4314,0-0.7812-0.3498-0.7812-0.7812V18.8342c0-0.4315,0.3498-0.7812,0.7812-0.7812h19.4376 c0.4315,0,0.7812,0.3497,0.7812,0.7812v32.4376C51.3749,51.7032,51.0252,52.053,50.5937,52.053z" fill="none" stroke="#000000" stroke-linecap="round" stroke-linejoin="round" stroke-miterlimit="10" stroke-width="2"/>
    <circle cx="41" cy="55.5" fill="#000000" r="1.5" stroke="#000000" stroke-miterlimit="10"/>
    <polygon fill="none" points="37,15 45,15 45,15 37,15" stroke="#000000" stroke-linecap="round" stroke-linejoin="round" stroke-miterlimit="10" stroke-width="2"/>
    <path d="M16.5297,42.7513L17.6409,44L25.5,35.5029L17.6351,27L16.53,28.2401l5.1655,5.55 c0.1464,0.1573,0.1693,0.4427,0.051,0.6374c-0.0646,0.1065-0.1621,0.1685-0.265,0.1685H6.5v1.813h14.9675 c0.1882,0.0001,0.3407,0.203,0.3407,0.4534c0,0.1369-0.0466,0.2664-0.1267,0.3525L16.5297,42.7513z" fill="#000000" stroke="#000000" stroke-miterlimit="10"/>
  </g>
</svg>