<svg viewBox="10 10 52 52" xmlns="http://www.w3.org/2000/svg">
  <defs>
    <linearGradient id="yellow-gradient" x1="0%" x2="0%" y1="0%" y2="100%">
      <stop offset="0%" style="stop-color:#FDE02F;stop-opacity:1;"/>
      <stop offset="100%" style="stop-color:#F7B209;stop-opacity:1;"/>
    </linearGradient>
  </defs>
  <g id="color">
    <ellipse cx="29.5854" cy="24.8305" fill="#FFFFFF" rx="11.1656" ry="11.1657" stroke="none" transform="matrix(0.8006 -0.5992 0.5992 0.8006 -8.979 22.6777)"/>
    <path d="M39,19c-1.6269-2.1743-5.3114-4.6131-8-5c-1.841-0.2648-5,0-5.3126,1.4508 c2.432,0.2232,6.261,1.3933,9.4483,6.0391c2.7047,3.9427,2.9098,7.2606,2.5092,9.5215C40,31,41.7867,22.7243,39,19z" fill="#92D3F5" stroke="none"/>
    <path d="M20.717,13.2532c-3.1395,2.3517-5.1766,5.7832-5.7372,9.6663c-0.5584,3.883,0.4286,7.7514,2.7785,10.8927 c4.8528,6.4827,14.0758,7.8101,20.5595,2.9577c6.4832-4.8514,7.8112-14.073,2.9587-20.5591 c-2.3504-3.1402-5.7839-5.1778-9.6668-5.7362C27.7267,9.9161,23.8587,10.9022,20.717,13.2532z M38.1933,18.3883 c2.2813,3.0482,2.696,6.924,1.4434,10.248c-0.6965,1.8514-1.9113,3.5306-3.6095,4.8016c-4.7463,3.5525-11.498,2.58-15.0496-2.166 c-1.7206-2.2992-2.4437-5.1309-2.0341-7.9731c0.41-2.8429,1.8999-5.3554,4.2002-7.0765c2.2984-1.721,5.1298-2.4433,7.9731-2.0341 C33.9592,14.5969,36.4719,16.0889,38.1933,18.3883z" fill="#D0CFCE" stroke="none"/>
    <path d="M39,42l10,14c0,0,3,4,5,2s0-5,0-5L43,39L39,42z" fill="#3F3F3F" stroke="none"/>
  </g>
  <g id="line">
    <ellipse cx="29.5854" cy="24.8305" fill="none" rx="14.6372" ry="14.6372" stroke="#000000" stroke-linecap="round" stroke-linejoin="round" stroke-miterlimit="10" stroke-width="2" transform="matrix(0.8006 -0.5992 0.5992 0.8006 -8.979 22.6778)"/>
    <ellipse cx="29.5854" cy="24.8305" fill="none" rx="11.1656" ry="11.1657" stroke="#000000" stroke-linecap="round" stroke-linejoin="round" stroke-miterlimit="10" stroke-width="2" transform="matrix(0.8006 -0.5992 0.5992 0.8006 -8.979 22.6777)"/>
    <path d="M38.6805,41.7876l4.1839-3.1316l11.6927,15.622c0.8354,1.1162,0.5758,2.7219-0.5795,3.5867l0,0 c-1.1554,0.8647-2.7691,0.661-3.6045-0.4551L38.6805,41.7876z" fill="none" stroke="#000000" stroke-linecap="round" stroke-linejoin="round" stroke-miterlimit="10" stroke-width="2"/>
  </g>
</svg>