<svg viewBox="12 12 48 48" xmlns="http://www.w3.org/2000/svg">
  <defs>
    <linearGradient id="yellow-gradient" x1="0%" x2="0%" y1="0%" y2="100%">
      <stop offset="0%" style="stop-color:#FDE02F;stop-opacity:1;"/>
      <stop offset="100%" style="stop-color:#F7B209;stop-opacity:1;"/>
    </linearGradient>
  </defs>
  <g id="color">
    <path d="m15.74 31.83v-6.134h27.84v-8.433l12.66 11.5-12.66 11.5v-8.433h-27.84" fill="#3f3f3f"/>
  </g>
  <g id="line">
    <path d="m15.75 31.83h27.84v8.433l12.66-11.5-12.66-11.5v8.433h-27.84z" fill="none" stroke="#000" stroke-linecap="round" stroke-linejoin="round" stroke-width="2"/>
    <path d="m23.65 46.72a3.049 3.049 0 0 0-3.073-1.994v0c-1.732 0-3.137 1.118-3.137 2.498s1.404 2.498 3.137 2.498l-0.0638 0.0093c1.733 0 3.137 1.118 3.137 2.498s-1.404 2.498-3.137 2.498v0a3.049 3.049 0 0 1-3.073-1.994" fill="none" stroke="#000" stroke-linecap="round" stroke-linejoin="round" stroke-width="2"/>
    <polyline fill="none" points="47.39 53.38 47.39 43.38 54.53 53.38 54.53 43.38" stroke="#000" stroke-linecap="round" stroke-linejoin="round" stroke-width="2" transform="translate(-.75 1.263)"/>
    <path d="m40.21 54.61v0a3.572 3.572 0 0 1-3.572-3.571v-2.857a3.572 3.572 0 0 1 3.572-3.571v0a3.571 3.571 0 0 1 3.571 3.571v2.857a3.571 3.571 0 0 1-3.571 3.571z" fill="none" stroke="#000" stroke-linecap="round" stroke-linejoin="round" stroke-width="2"/>
    <path d="m30.21 54.61v0a3.572 3.572 0 0 1-3.572-3.571v-2.857a3.572 3.572 0 0 1 3.572-3.571v0a3.571 3.571 0 0 1 3.571 3.571v2.857a3.571 3.571 0 0 1-3.571 3.571z" fill="none" stroke="#000" stroke-linecap="round" stroke-linejoin="round" stroke-width="2"/>
  </g>
</svg>