<svg viewBox="12 12 48 48" xmlns="http://www.w3.org/2000/svg">
  <defs>
    <linearGradient id="yellow-gradient" x1="0%" x2="0%" y1="0%" y2="100%">
      <stop offset="0%" style="stop-color:#FDE02F;stop-opacity:1;"/>
      <stop offset="100%" style="stop-color:#F7B209;stop-opacity:1;"/>
    </linearGradient>
  </defs>
  <g id="color">
    <polyline fill="#3f3f3f" points="35.991 14 23 28.516 32.527 28.516 32.69 40 39.483 40 39.456 28.516 48.982 28.516 35.991 14"/>
  </g>
  <g id="line">
    <polyline fill="none" points="35.991 14 23 28.516 32.527 28.516 32.69 40 39.483 40 39.456 28.516 48.982 28.516 35.991 14" stroke="#000" stroke-linecap="round" stroke-linejoin="round" stroke-width="2"/>
    <path d="M36.33,55.47h0a3.5714,3.5714,0,0,1-3.5714-3.5714V49.0413A3.5714,3.5714,0,0,1,36.33,45.47h0a3.5714,3.5714,0,0,1,3.5714,3.5714v2.8572A3.5714,3.5714,0,0,1,36.33,55.47Z" fill="none" stroke="#000" stroke-linecap="round" stroke-linejoin="round" stroke-width="2"/>
    <g>
      <line fill="none" stroke="#000" stroke-linecap="round" stroke-linejoin="round" stroke-width="2" x1="24.1429" x2="29.8571" y1="45.5" y2="45.5"/>
      <line fill="none" stroke="#000" stroke-linecap="round" stroke-linejoin="round" stroke-width="2" x1="27" x2="27" y1="45.5" y2="55.5"/>
    </g>
    <path d="M43.1422,55.47v-10h3.8132a2.49,2.49,0,0,1,2.4905,2.4907h0a2.49,2.49,0,0,1-2.4905,2.4906H43.1422" fill="none" stroke="#000" stroke-linecap="round" stroke-linejoin="round" stroke-width="2"/>
  </g>
</svg>