<svg viewBox="7 7 58 58" xmlns="http://www.w3.org/2000/svg">
  <defs>
    <linearGradient id="yellow-gradient" x1="0%" x2="0%" y1="0%" y2="100%">
      <stop offset="0%" style="stop-color:#FDE02F;stop-opacity:1;"/>
      <stop offset="100%" style="stop-color:#F7B209;stop-opacity:1;"/>
    </linearGradient>
  </defs>
  <g id="color">
    <circle cx="35.6102" cy="57.7716" fill="#f1b31c" r="5" stroke="#f1b31c" stroke-miterlimit="10" stroke-width="2"/>
    <path d="M56.1048,56.7825c0,0-2.0587-3.7664-3.254-9.5855c-1.3523-6.5836-1.8795-15.5146-2.246-19.4145 c-0.7752-8.2479-6.7157-15-15-15h-0.5c-8.2843,0-14.2248,6.7521-15,15c-0.3665,3.8999-0.8937,12.8309-2.246,19.4145 c-1.1953,5.8191-3.254,9.5855-3.254,9.5855H56.1048z" fill="url(#yellow-gradient)" stroke="none"/>
  </g>
  <g id="line">
    <path d="M30.1048,13.2825 c0-2.7614,2.2386-5,5-5c2.7614,0,5,2.2386,5,5" fill="none" stroke="#000000" stroke-linecap="round" stroke-linejoin="round" stroke-width="2"/>
    <path d="M40.0872,60.0005 c-0.8174,1.6487-2.5176,2.782-4.4824,2.782c-1.9659,0-3.6667-1.1345-4.4836-2.7845" fill="none" stroke="#000000" stroke-linecap="round" stroke-linejoin="round" stroke-width="2"/>
    <path d="M56.1048,56.7825c0,0-2.0587-3.7664-3.254-9.5855c-1.3523-6.5836-1.8795-15.5146-2.246-19.4145c-0.7752-8.2479-6.7157-15-15-15 h-0.5c-8.2843,0-14.2248,6.7521-15,15c-0.3665,3.8999-0.8937,12.8309-2.246,19.4145c-1.1953,5.8191-3.254,9.5855-3.254,9.5855 H56.1048z" fill="none" stroke="#000000" stroke-linecap="round" stroke-linejoin="round" stroke-miterlimit="10" stroke-width="1.8182"/>
  </g>
</svg>