<svg viewBox="10 10 52 52" xmlns="http://www.w3.org/2000/svg">
  <defs>
    <linearGradient id="yellow-gradient" x1="0%" x2="0%" y1="0%" y2="100%">
      <stop offset="0%" style="stop-color:#FDE02F;stop-opacity:1;"/>
      <stop offset="100%" style="stop-color:#F7B209;stop-opacity:1;"/>
    </linearGradient>
  </defs>
  <g id="color">
    <path d="M59.0349,60H12.9651 C12.4343,60,12,59.5657,12,59.0349V12.9651C12,12.4343,12.4343,12,12.9651,12h46.0698C59.5657,12,60,12.4343,60,12.9651v46.0698 C60,59.5657,59.5657,60,59.0349,60z" fill="#d0cfce" stroke="none" stroke-linejoin="round" stroke-miterlimit="10" stroke-width="2"/>
  </g>
  <g id="line">
    <path d="M59.0349,60H12.9651 C12.4343,60,12,59.5657,12,59.0349V12.9651C12,12.4343,12.4343,12,12.9651,12h46.0698C59.5657,12,60,12.4343,60,12.9651v46.0698 C60,59.5657,59.5657,60,59.0349,60z" fill="none" stroke="#000000" stroke-linejoin="round" stroke-miterlimit="10" stroke-width="2"/>
    <polyline fill="none" points="33.6112,33.175 28.9827,22.375 24.3541,33.175" stroke="#000000" stroke-linecap="round" stroke-linejoin="round" stroke-miterlimit="10" stroke-width="2"/>
    <line fill="none" stroke="#000000" stroke-linecap="round" stroke-linejoin="round" stroke-miterlimit="10" stroke-width="2" x1="25.8969" x2="32.0684" y1="30.589" y2="30.589"/>
    <path d="M32.1905,48.4044c-0.6809,0.6039-1.5768,0.9706-2.5585,0.9706l0,0c-2.1302,0-3.8571-1.7269-3.8571-3.8571v-3.0857v3.0857v-3.0857 c0-2.1302,1.7269-3.8571,3.8571-3.8571l0,0c0.9817,0,1.8777,0.3667,2.5585,0.9708" fill="none" stroke="#000000" stroke-linecap="round" stroke-linejoin="round" stroke-miterlimit="10" stroke-width="2"/>
    <path d="M44.8168,27.7749h-4.1182v-5.3798h4.1182c1.4856,0,2.69,1.2044,2.69,2.69l0,0C47.5067,26.5707,46.3024,27.7749,44.8168,27.7749z" fill="none" stroke="#000000" stroke-linecap="round" stroke-linejoin="round" stroke-miterlimit="10" stroke-width="2"/>
    <path d="M44.8168,33.1549h-4.1182v-5.3799h4.1182c1.4856,0,2.69,1.2044,2.69,2.69l0,0C47.5067,31.9505,46.3024,33.1549,44.8168,33.1549z" fill="none" stroke="#000000" stroke-linecap="round" stroke-linejoin="round" stroke-miterlimit="10" stroke-width="2"/>
    <path d="M45.4998,49.3549h-4.8739V38.5951h4.8739c1.1485,0,2.0796,0.9311,2.0796,2.0796v6.6005 C47.5794,48.4238,46.6483,49.3549,45.4998,49.3549z" fill="none" stroke="#000000" stroke-linecap="round" stroke-linejoin="round" stroke-miterlimit="10" stroke-width="2"/>
  </g>
</svg>