<svg viewBox="9 9 54 54" xmlns="http://www.w3.org/2000/svg">
  <defs>
    <linearGradient id="yellow-gradient" x1="0%" x2="0%" y1="0%" y2="100%">
      <stop offset="0%" style="stop-color:#FDE02F;stop-opacity:1;"/>
      <stop offset="100%" style="stop-color:#F7B209;stop-opacity:1;"/>
    </linearGradient>
  </defs>
  <g id="color">
    <path d="M50.1,55.5l-2.8-2.8c-0.2-0.2-0.5-0.3-0.8-0.3l-23.4-1.9c-0.3,0-1.5,1.3-1.7,1.5l-2.5,2.4" fill="#3F3F3F"/>
    <path d="M19.9,53.4l-5.7,5.3c-0.7,0.7,0.5,2.6,1.5,2.6h39.5c1,0,1.5-1.2,0.8-1.9l-8.6-8.2" fill="#3F3F3F"/>
    <circle cx="36" cy="32.8" fill="#B399C8" r="22.2"/>
    <path d="M58.2,33c0,12.3-9.7,22.1-22,22.1c11.6-8,14.8-16.8,14.4-24.5c0-0.3,0-0.5-0.1-0.8c-0.2-1.7-0.5-3.4-1.1-5 c-0.1-0.2-0.1-0.4-0.2-0.6c-0.7-2-1.7-3.8-2.7-5.4c-0.2-0.3-0.3-0.5-0.5-0.7c-0.6-0.9-1.3-1.8-2.1-2.5c-0.2-0.2-0.3-0.4-0.5-0.5 c-0.2-0.2-0.4-0.4-0.6-0.6c-0.2-0.2-0.4-0.3-0.6-0.5c-0.1-0.1-0.2-0.2-0.3-0.3c-0.2-0.2-0.4-0.3-0.5-0.4c-0.8-0.6-1.7-1.2-2.5-1.6 c-0.1-0.1-0.3-0.1-0.4-0.2c-0.3-0.1-0.7-0.3-1-0.4C37.3,11,37.1,11,37,11s-0.2,0-0.3,0s-0.2,0-0.3,0h0.1 C48.6,11.1,58.2,20.9,58.2,33z" fill="#8967AA"/>
    <path d="M19.4,30.7c0.1-0.5,0.2-1.1,0.3-1.6" fill="none" stroke="#FFFFFF" stroke-linecap="round" stroke-linejoin="round" stroke-miterlimit="10" stroke-width="2"/>
    <path d="M21.4,24.6c1.5-2.7,3.6-4.9,6.2-6.4" fill="none" stroke="#FFFFFF" stroke-linecap="round" stroke-linejoin="round" stroke-miterlimit="10" stroke-width="2"/>
    <path d="M48.7,50.8c0.1,0,0.2,0.1,0.3,0.2l2.8,2.8l2.1,2.1l2.8,2.8c0.7,0.7-0.5,2.6-1.5,2.6h-13v-7.2"/>
  </g>
  <g id="line">
    <circle cx="36" cy="32.8" fill="none" r="22.2" stroke="#000000" stroke-linecap="round" stroke-linejoin="round" stroke-miterlimit="10" stroke-width="2"/>
    <circle cx="36" cy="32.8" fill="none" r="22.2" stroke="#000000" stroke-linecap="round" stroke-linejoin="round" stroke-miterlimit="10" stroke-width="2"/>
    <path d="M18,56.6l-3,2.8 c-0.7,0.7-0.3,1.9,0.8,1.9h39.5c1,0,1.5-1.2,0.8-1.9l-2.8-2.8" fill="none" stroke="#000000" stroke-linecap="round" stroke-miterlimit="10" stroke-width="2"/>
    <path d="M53.2,56.6l2.8,2.8c0.7,0.7,0.2,1.9-0.8,1.9" fill="none" stroke="#000000" stroke-linecap="round" stroke-linejoin="round" stroke-miterlimit="10" stroke-width="2"/>
  </g>
</svg>