<svg viewBox="10 10 52 52" xmlns="http://www.w3.org/2000/svg">
  <defs>
    <linearGradient id="yellow-gradient" x1="0%" x2="0%" y1="0%" y2="100%">
      <stop offset="0%" style="stop-color:#FDE02F;stop-opacity:1;"/>
      <stop offset="100%" style="stop-color:#F7B209;stop-opacity:1;"/>
    </linearGradient>
  </defs>
  <g id="color">
    <path d="M59.0349,60H12.9651 C12.4343,60,12,59.5657,12,59.0349V12.9651C12,12.4343,12.4343,12,12.9651,12h46.0698C59.5657,12,60,12.4343,60,12.9651v46.0698 C60,59.5657,59.5657,60,59.0349,60z" fill="#d0cfce" stroke="none" stroke-linejoin="round" stroke-miterlimit="10" stroke-width="2"/>
  </g>
  <g id="line">
    <path d="M59.0349,60H12.9651 C12.4343,60,12,59.5657,12,59.0349V12.9651C12,12.4343,12.4343,12,12.9651,12h46.0698C59.5657,12,60,12.4343,60,12.9651v46.0698 C60,59.5657,59.5657,60,59.0349,60z" fill="none" stroke="#000000" stroke-linejoin="round" stroke-miterlimit="10" stroke-width="2"/>
    <path d="M47.5663,40.8709C47.125,41.2623,46.5443,41.5,45.908,41.5l0,0c-1.3807,0-2.5-1.1193-2.5-2.5v-2v2v-2c0-1.3807,1.1193-2.5,2.5-2.5 l0,0c0.6363,0,1.217,0.2377,1.6583,0.6292" fill="none" stroke="#000000" stroke-linecap="round" stroke-linejoin="round" stroke-miterlimit="10" stroke-width="2"/>
    <path d="M36.3633,41.75L36.3633,41.75c1.3807,0,2.5-1.1193,2.5-2.5v-2c0-1.3807-1.1193-2.5-2.5-2.5l0,0c-1.3807,0-2.5,1.1193-2.5,2.5v2 C33.8633,40.6307,34.9826,41.75,36.3633,41.75z" fill="none" stroke="#000000" stroke-linecap="round" stroke-linejoin="round" stroke-miterlimit="10" stroke-width="2"/>
    <line fill="none" stroke="#000000" stroke-linecap="round" stroke-linejoin="round" stroke-miterlimit="10" stroke-width="2" x1="33.8633" x2="33.8633" y1="38.7801" y2="29.7801"/>
    <path d="M23.4337,39.9583L23.4337,39.9583c0,0.9895,0.8523,1.7917,1.9036,1.7917h1.5229c1.0513,0,1.9036-0.8022,1.9036-1.7917l0,0 c0-0.9895-0.8523-1.7917-1.9036-1.7917h-1.5229C24.286,38.1667,23.4337,38.9688,23.4337,39.9583z" fill="none" stroke="#000000" stroke-linecap="round" stroke-linejoin="round" stroke-miterlimit="10" stroke-width="2"/>
    <path d="M23.8369,35.5208c0.4185-0.5629,1.1625-0.9374,2.0105-0.9374h0.8291c1.3083,0,2.3689,0.8913,2.3689,1.9907l0,0V41.75" fill="none" stroke="#000000" stroke-linecap="round" stroke-linejoin="round" stroke-miterlimit="10" stroke-width="2"/>
  </g>
</svg>