<svg viewBox="0 0 72 72" xmlns="http://www.w3.org/2000/svg">
  <defs>
    <linearGradient id="yellow-gradient" x1="0%" x2="0%" y1="0%" y2="100%">
      <stop offset="0%" style="stop-color:#FDE02F;stop-opacity:1;"/>
      <stop offset="100%" style="stop-color:#F7B209;stop-opacity:1;"/>
    </linearGradient>
  </defs>
  <g id="color">
    <ellipse cx="36" cy="36" fill="#3F3F3F" rx="32.5" ry="13.5"/>
    <path d="M36,32.5c13.5192,0,25.1072,3.3025,30.0053,8c1.6051-1.5394,2.4947-3.228,2.4947-5 c0-7.1797-14.5507-13-32.5-13s-32.5,5.8203-32.5,13c0,1.772,0.8896,3.4606,2.4947,5C10.8928,35.8025,22.4808,32.5,36,32.5z" fill="#9B9B9A"/>
  </g>
  <g id="line">
    <ellipse cx="36" cy="36" fill="none" rx="32.5" ry="13.5" stroke="#000000" stroke-miterlimit="10" stroke-width="2"/>
    <path d="M36,32.5c13.5192,0,25.1072,3.3025,30.0053,8 c1.6051-1.5394,2.4947-3.228,2.4947-5c0-7.1797-14.5507-13-32.5-13s-32.5,5.8203-32.5,13c0,1.772,0.8896,3.4606,2.4947,5 C10.8928,35.8025,22.4808,32.5,36,32.5z" fill="none" stroke="#000000" stroke-miterlimit="10" stroke-width="2"/>
  </g>
</svg>