<svg viewBox="6 6 60 60" xmlns="http://www.w3.org/2000/svg">
  <defs>
    <linearGradient id="yellow-gradient" x1="0%" x2="0%" y1="0%" y2="100%">
      <stop offset="0%" style="stop-color:#FDE02F;stop-opacity:1;"/>
      <stop offset="100%" style="stop-color:#F7B209;stop-opacity:1;"/>
    </linearGradient>
  </defs>
  <g id="color">
    <ellipse cx="36.22" cy="29.93" fill="#9b9b9a" rx="8.644" ry="11.3" stroke-width="1.33"/>
    <circle cx="36.22" cy="45.89" fill="#9b9b9a" r="4.654" stroke-width="1.33"/>
  </g>
  <g id="line">
    <path d="m25.98 8.278s-14.61 29.22 9.296 33.2" fill="none" stroke="#000" stroke-linecap="round" stroke-linejoin="round" stroke-miterlimit="10" stroke-width="2"/>
    <path d="m36.61 41.48c26.56-3.984 10.62-33.2 10.62-33.2" fill="none" stroke="#000" stroke-linecap="round" stroke-linejoin="round" stroke-miterlimit="10" stroke-width="2"/>
    <path d="m61.4 21.34s-3.541 22.13-23.46 19.81" fill="none" stroke="#000" stroke-linecap="round" stroke-linejoin="round" stroke-miterlimit="10" stroke-width="2"/>
    <path d="m10.6 21.45s5.201 21.36 23.57 20.03" fill="none" stroke="#000" stroke-linecap="round" stroke-linejoin="round" stroke-miterlimit="10" stroke-width="2"/>
    <path d="m33.29 41.48s-12.62 9.668-5.976 18.59" fill="none" stroke="#000" stroke-linecap="round" stroke-linejoin="round" stroke-miterlimit="10" stroke-width="2"/>
    <path d="m31.3 40.7s-18.59 7.415-13.28 22.02" fill="none" stroke="#000" stroke-linecap="round" stroke-linejoin="round" stroke-miterlimit="10" stroke-width="2"/>
    <path d="m38.93 41.04s13.61 8.411 6.972 19.03" fill="none" stroke="#000" stroke-linecap="round" stroke-linejoin="round" stroke-miterlimit="10" stroke-width="2"/>
    <path d="m42.03 40.92s18.7 7.857 12.62 22.8" fill="none" stroke="#000" stroke-linecap="round" stroke-linejoin="round" stroke-miterlimit="10" stroke-width="2"/>
    <ellipse cx="35.94" cy="30.19" fill="none" rx="8.632" ry="11.29" stroke="#000" stroke-linecap="round" stroke-linejoin="round" stroke-miterlimit="10" stroke-width="2"/>
    <circle cx="35.94" cy="46.13" fill="none" r="4.648" stroke="#000" stroke-linecap="round" stroke-linejoin="round" stroke-miterlimit="10" stroke-width="2"/>
  </g>
</svg>