<svg viewBox="5 5 62 62" xmlns="http://www.w3.org/2000/svg">
  <defs>
    <linearGradient id="yellow-gradient" x1="0%" x2="0%" y1="0%" y2="100%">
      <stop offset="0%" style="stop-color:#FDE02F;stop-opacity:1;"/>
      <stop offset="100%" style="stop-color:#F7B209;stop-opacity:1;"/>
    </linearGradient>
  </defs>
  <g id="color">
    <polyline fill="#EA5A47" points="17,55 17,52 24,52 24,55" stroke="none"/>
    <circle cx="36" cy="17" fill="#EA5A47" r="10" stroke="none"/>
    <path d="M27,55c0-3.866,4.0294-7,9-7s9,3.134,9,7" fill="#3F3F3F" stroke="none"/>
    <rect fill="#9B9B9A" height="21" stroke="#9B9B9A" stroke-linecap="round" stroke-linejoin="round" stroke-miterlimit="10" stroke-width="2" width="6" x="33" y="27"/>
    <rect fill="#9B9B9A" height="10" stroke="none" stroke-linecap="round" stroke-linejoin="round" stroke-miterlimit="10" stroke-width="2" width="44" x="14" y="55"/>
    <polygon fill="#D22F27" points="41,8 34,27 40,26 45,21 46,15" stroke="none"/>
  </g>
  <g id="line">
    <rect fill="none" height="10" stroke="#000000" stroke-linecap="round" stroke-linejoin="round" stroke-miterlimit="10" stroke-width="2" width="44" x="14" y="55"/>
    <path d="M27,55c0-3.866,4.0294-7,9-7s9,3.134,9,7" fill="none" stroke="#000000" stroke-miterlimit="10" stroke-width="2"/>
    <polyline fill="none" points="17,55 17,52 24,52 24,55" stroke="#000000" stroke-linecap="round" stroke-linejoin="round" stroke-miterlimit="10" stroke-width="2"/>
    <polyline fill="none" points="39,44.703 39,44 39,27 33,27 33,44.7053" stroke="#000000" stroke-linecap="round" stroke-linejoin="round" stroke-miterlimit="10" stroke-width="2"/>
    <circle cx="36" cy="17" fill="none" r="10" stroke="#000000" stroke-miterlimit="10" stroke-width="2"/>
  </g>
</svg>