<svg viewBox="0 0 72 72" xmlns="http://www.w3.org/2000/svg">
  <defs>
    <linearGradient id="yellow-gradient" x1="0%" x2="0%" y1="0%" y2="100%">
      <stop offset="0%" style="stop-color:#FDE02F;stop-opacity:1;"/>
      <stop offset="100%" style="stop-color:#F7B209;stop-opacity:1;"/>
    </linearGradient>
  </defs>
  <g id="color">
    <path d="M44.1833,60.9583c0,4.9583,7.8401,7.0417,7.8401,7.0417H36.4029h-0.3795H20.4029 c0,0,7.8401-2.0833,7.8401-7.0417v-4.9336h15.7785L44.1833,60.9583z" fill="#D0CFCE" stroke="none"/>
    <path d="M63.1941,56H9.2323c-2.8026,0-5.0746-2.272-5.0746-5.0746V16.033c0-2.8026,2.272-5.0746,5.0746-5.0746h53.9618 c2.8026,0,5.0746,2.272,5.0746,5.0746v34.8924C68.2687,53.728,65.9967,56,63.1941,56z" fill="#9B9B9A" stroke="none" stroke-linecap="round" stroke-linejoin="round" stroke-miterlimit="10" stroke-width="2"/>
    <path d="M67.5469,46.7214L4.2132,24.2006V14.743c0-1.8455,1.827-3.135,3.5659-2.5167l59.7678,21.2528V46.7214z" fill="#FFFFFF" stroke="none"/>
    <path d="M68.2687,47.5629c0,0,0.1688,4.8556-1.5499,6.8305s-0.7221,1.6035-3.5247,1.6035H9.2323c-2.8026,0-4.164-1.852-4.164-2.4434 l-0.9106-5.9906" fill="#D0CFCE" stroke="none" stroke-linecap="round" stroke-linejoin="round" stroke-miterlimit="10" stroke-width="0.9187"/>
  </g>
  <g id="line">
    <path d="M63.1941,56H9.2323c-2.8026,0-5.0746-2.272-5.0746-5.0746V16.033c0-2.8026,2.272-5.0746,5.0746-5.0746h53.9618 c2.8026,0,5.0746,2.272,5.0746,5.0746v34.8924C68.2687,53.728,65.9967,56,63.1941,56z" fill="none" stroke="#000000" stroke-linecap="round" stroke-linejoin="round" stroke-miterlimit="10" stroke-width="2"/>
    <path d="M68.2687,47.5629c0,0,0.1688,4.8556-1.5499,6.8305s-0.7221,1.6035-3.5247,1.6035H9.2323c-2.8026,0-4.164-1.852-4.164-2.4434 l-0.9106-5.9906" fill="none" stroke="#000000" stroke-linecap="round" stroke-linejoin="round" stroke-miterlimit="10" stroke-width="0.9187"/>
    <path d="M63.1941,56H9.2323c-2.8026,0-5.0746-2.272-5.0746-5.0746V16.033c0-2.8026,2.272-5.0746,5.0746-5.0746h53.9618 c2.8026,0,5.0746,2.272,5.0746,5.0746v34.8924C68.2687,53.728,65.9967,56,63.1941,56z" fill="none" stroke="#000000" stroke-linecap="round" stroke-linejoin="round" stroke-miterlimit="10" stroke-width="2"/>
    <line fill="none" stroke="#000000" stroke-linecap="round" stroke-linejoin="round" stroke-miterlimit="10" stroke-width="2" x1="7.2132" x2="65.2132" y1="48.4924" y2="48.4924"/>
    <path d="M43.1833,60.9583c0,4.9583,8.8401,7.0417,8.8401,7.0417H36.4029h-0.3795H20.4029c0,0,8.8401-2.0833,8.8401-7.0417" fill="none" stroke="#000000" stroke-linecap="round" stroke-linejoin="round" stroke-miterlimit="10" stroke-width="2"/>
  </g>
</svg>