<svg viewBox="9 9 54 54" xmlns="http://www.w3.org/2000/svg">
  <defs>
    <linearGradient id="yellow-gradient" x1="0%" x2="0%" y1="0%" y2="100%">
      <stop offset="0%" style="stop-color:#FDE02F;stop-opacity:1;"/>
      <stop offset="100%" style="stop-color:#F7B209;stop-opacity:1;"/>
    </linearGradient>
  </defs>
  <g id="color">
    <rect fill="#d0cfce" height="36" width="50" x="11" y="21"/>
    <rect fill="#9b9b9a" height="4" width="50" x="11" y="21"/>
    <rect fill="#9b9b9a" height="4" width="50" x="11" y="25"/>
    <path d="M17.565,16h5.87A1.565,1.565,0,0,1,25,17.565V21a0,0,0,0,1,0,0H16a0,0,0,0,1,0,0V17.565A1.565,1.565,0,0,1,17.565,16Z" fill="#b1cc33"/>
    <path d="M30.565,20h5.87A1.565,1.565,0,0,1,38,21.565V25a0,0,0,0,1,0,0H29a0,0,0,0,1,0,0V21.565A1.565,1.565,0,0,1,30.565,20Z" fill="#ea5a47"/>
    <path d="M19.565,24h5.87A1.565,1.565,0,0,1,27,25.565V29a0,0,0,0,1,0,0H18a0,0,0,0,1,0,0V25.565A1.565,1.565,0,0,1,19.565,24Z" fill="#92d3f5"/>
  </g>
  <g id="line">
    <line fill="none" stroke="#000" stroke-linecap="round" stroke-linejoin="round" stroke-width="2" x1="11" x2="61" y1="29" y2="29"/>
    <line fill="none" stroke="#000" stroke-linecap="round" stroke-linejoin="round" stroke-width="2" x1="26.8928" x2="61" y1="25" y2="25"/>
    <line fill="none" stroke="#000" stroke-linecap="round" stroke-linejoin="round" stroke-width="2" x1="11" x2="18.1079" y1="25" y2="25"/>
    <polyline fill="none" points="29 21 11 21 11 57 61 57 61 21 37.893 21" stroke="#000" stroke-linecap="round" stroke-linejoin="round" stroke-width="2"/>
    <path d="M17.565,16h5.87A1.565,1.565,0,0,1,25,17.565V21a0,0,0,0,1,0,0H16a0,0,0,0,1,0,0V17.565A1.565,1.565,0,0,1,17.565,16Z" fill="none" stroke="#000" stroke-linecap="round" stroke-linejoin="round" stroke-width="2"/>
    <path d="M30.565,20h5.87A1.565,1.565,0,0,1,38,21.565V25a0,0,0,0,1,0,0H29a0,0,0,0,1,0,0V21.565A1.565,1.565,0,0,1,30.565,20Z" fill="none" stroke="#000" stroke-linecap="round" stroke-linejoin="round" stroke-width="2"/>
    <path d="M19.565,24h5.87A1.565,1.565,0,0,1,27,25.565V29a0,0,0,0,1,0,0H18a0,0,0,0,1,0,0V25.565A1.565,1.565,0,0,1,19.565,24Z" fill="none" stroke="#000" stroke-linecap="round" stroke-linejoin="round" stroke-width="2"/>
  </g>
</svg>