<svg viewBox="11 11 50 50" xmlns="http://www.w3.org/2000/svg">
  <defs>
    <linearGradient id="yellow-gradient" x1="0%" x2="0%" y1="0%" y2="100%">
      <stop offset="0%" style="stop-color:#FDE02F;stop-opacity:1;"/>
      <stop offset="100%" style="stop-color:#F7B209;stop-opacity:1;"/>
    </linearGradient>
  </defs>
  <g id="color">
    <rect fill="#9B9B9A" height="3.3833" stroke="none" width="3.0001" x="43.0002" y="36.1661"/>
    <rect fill="#9B9B9A" height="12" stroke="none" width="3.0001" x="43.0013" y="46.1665"/>
    <rect fill="#9B9B9A" height="3.0001" stroke="none" width="8" x="41" y="22.1661"/>
    <path d="M47,45.7774H22.6774C20.0942,45.7774,18,43.6833,18,41.1V22.3904c0-5.1665,4.1883-9.3548,9.3548-9.3548 h13.0968h1.871c2.5833,0,4.6774,2.0942,4.6774,4.6774v4.0092h-4.9714c0-1.6976-1.3762-3.0737-3.0737-3.0737h-1.2295h-8.6065 c-3.3952,0-6.1475,2.7523-6.1475,6.1475v12.2949c0,1.6976,1.3762,3.0737,3.0737,3.0737h15.9834H47V45.7774z" fill="#D0CFCE" stroke="none"/>
  </g>
  <g id="line">
    <path d="M47,45.7774H22.6774C20.0942,45.7774,18,43.6833,18,41.1V22.3904c0-5.1665,4.1883-9.3548,9.3548-9.3548h13.0968h1.871 c2.5833,0,4.6774,2.0942,4.6774,4.6774v4.0092h-4.9714c0-1.6976-1.3762-3.0737-3.0737-3.0737h-1.2295h-8.6065 c-3.3952,0-6.1475,2.7523-6.1475,6.1475v12.2949c0,1.6976,1.3762,3.0737,3.0737,3.0737h15.9834H47V45.7774z" fill="none" stroke="#000000" stroke-linecap="round" stroke-linejoin="round" stroke-miterlimit="10" stroke-width="2"/>
    <rect fill="none" height="13" stroke="#000000" stroke-linecap="round" stroke-linejoin="round" stroke-miterlimit="10" stroke-width="2" width="5" x="42" y="45.9065"/>
    <rect fill="none" height="3.6429" stroke="#000000" stroke-linecap="round" stroke-linejoin="round" stroke-miterlimit="10" stroke-width="2" width="10" x="39.9999" y="21.9065"/>
    <path d="M42,36.7186v3.1878h5v-3.1878c0-0.4485-0.4545-0.8122-1.0152-0.8122h-2.9696C42.4545,35.9065,42,36.2701,42,36.7186z" fill="none" stroke="#000000" stroke-linecap="round" stroke-linejoin="round" stroke-miterlimit="10" stroke-width="2"/>
    <line fill="none" stroke="#000000" stroke-linecap="round" stroke-linejoin="round" stroke-miterlimit="10" stroke-width="2" x1="41" x2="37" y1="52.1661" y2="52.1661"/>
    <line fill="none" stroke="#000000" stroke-linecap="round" stroke-linejoin="round" stroke-miterlimit="10" stroke-width="2" x1="52" x2="48" y1="52.1661" y2="52.1661"/>
  </g>
</svg>