<svg viewBox="10 10 52 52" xmlns="http://www.w3.org/2000/svg">
  <defs>
    <linearGradient id="yellow-gradient" x1="0%" x2="0%" y1="0%" y2="100%">
      <stop offset="0%" style="stop-color:#FDE02F;stop-opacity:1;"/>
      <stop offset="100%" style="stop-color:#F7B209;stop-opacity:1;"/>
    </linearGradient>
  </defs>
  <g id="color">
    <polygon fill="#D0CFCE" points="15.0757,12.0679 15.0757,18.0188 50.8205,18.0188 51.4647,12.0679" stroke="none"/>
    <polygon fill="#D0CFCE" points="21.9094,54.6893 22.4092,59.971 43.9266,59.971 44.5185,54.6893" stroke="none"/>
    <polygon fill="#9B9B9A" points="42.0965,60.1783 49.4185,60.1783 49.9338,54.4471 42.696,54.4471" stroke="none"/>
    <polygon fill="#9B9B9A" points="56.5286,12.2876 48.939,12.2876 48.3108,17.9011 56.5286,17.9011" stroke="none"/>
  </g>
  <g id="line">
    <line fill="none" stroke="#000000" stroke-linecap="round" stroke-linejoin="round" stroke-miterlimit="10" stroke-width="2" x1="21.3803" x2="17.7729" y1="50.393" y2="22.0118"/>
    <line fill="none" stroke="#000000" stroke-linecap="round" stroke-linejoin="round" stroke-miterlimit="10" stroke-width="2" x1="54.2631" x2="50.5056" y1="21.9835" y2="50.3779"/>
    <line fill="none" stroke="#000000" stroke-linecap="round" stroke-linejoin="round" stroke-miterlimit="10" stroke-width="2" x1="40.5756" x2="48.7493" y1="22.0889" y2="32.1094"/>
    <line fill="none" stroke="#000000" stroke-linecap="round" stroke-linejoin="round" stroke-miterlimit="10" stroke-width="2" x1="30.4171" x2="47.5692" y1="22.1297" y2="42.7723"/>
    <line fill="none" stroke="#000000" stroke-linecap="round" stroke-linejoin="round" stroke-miterlimit="10" stroke-width="2" x1="22.3519" x2="44.2156" y1="24.2532" y2="50.4248"/>
    <line fill="none" stroke="#000000" stroke-linecap="round" stroke-linejoin="round" stroke-miterlimit="10" stroke-width="2" x1="23.9019" x2="35.928" y1="36.996" y2="50.6301"/>
    <line fill="none" stroke="#000000" stroke-linecap="round" stroke-linejoin="round" stroke-miterlimit="10" stroke-width="2" x1="25.3172" x2="26.68" y1="49.3963" y2="50.7533"/>
    <line fill="none" stroke="#000000" stroke-linecap="round" stroke-linejoin="round" stroke-miterlimit="10" stroke-width="2" x1="23.228" x2="31.8134" y1="31.2338" y2="22.103"/>
    <line fill="none" stroke="#000000" stroke-linecap="round" stroke-linejoin="round" stroke-miterlimit="10" stroke-width="2" x1="24.6095" x2="42.853" y1="41.882" y2="22.1297"/>
    <line fill="none" stroke="#000000" stroke-linecap="round" stroke-linejoin="round" stroke-miterlimit="10" stroke-width="2" x1="26.8854" x2="49.3815" y1="50.6301" y2="26.7148"/>
    <line fill="none" stroke="#000000" stroke-linecap="round" stroke-linejoin="round" stroke-miterlimit="10" stroke-width="2" x1="36.5741" x2="48.1171" y1="50.6301" y2="38.6841"/>
    <line fill="none" stroke="#000000" stroke-linecap="round" stroke-linejoin="round" stroke-miterlimit="10" stroke-width="2" x1="44.2156" x2="46.3434" y1="50.7533" y2="48.96"/>
    <rect fill="none" height="5.9459" stroke="#000000" stroke-linecap="round" stroke-linejoin="round" stroke-miterlimit="10" stroke-width="2" width="42.045" x="14.9055" y="12.0285"/>
    <line fill="none" stroke="#000000" stroke-miterlimit="10" x1="42.853" x2="50.1245" y1="54.4035" y2="54.4035"/>
    <polyline fill="none" points="50.1245,54.4035 49.4158,59.9663 22.4302,59.9663 21.7487,54.4035 50.1245,54.4035" stroke="#000000" stroke-linecap="round" stroke-linejoin="round" stroke-miterlimit="10" stroke-width="2"/>
  </g>
</svg>