<svg viewBox="10 10 52 52" xmlns="http://www.w3.org/2000/svg">
  <defs>
    <linearGradient id="yellow-gradient" x1="0%" x2="0%" y1="0%" y2="100%">
      <stop offset="0%" style="stop-color:#FDE02F;stop-opacity:1;"/>
      <stop offset="100%" style="stop-color:#F7B209;stop-opacity:1;"/>
    </linearGradient>
  </defs>
  <g id="color">
    <path d="M11.9726,28.2042l0.123,31.8059l31.6009-0.082L59.9274,47.55l0.1229-19.4688L11.9726,28.2042z" fill="#FFFFFF" stroke="none"/>
    <path d="M12.1421,28.1401h47.71V12.2523h-47.71V28.1401z M49.9972,16.7595c0.0107,0,0.0207,0,0.0307,0 c0.841,0.0081,1.6281,0.3433,2.2169,0.9435c0.5897,0.6004,0.9094,1.3941,0.901,2.2351c-0.0162,1.7261-1.426,3.1186-3.1479,3.1186 c-0.0099,0-0.0207,0-0.0307,0c-1.7357-0.017-3.134-1.4429-3.1179-3.1786C46.8655,18.152,48.2753,16.7595,49.9972,16.7595z M19.7269,17.6075c0.6109-0.5985,1.4156-0.9273,2.2694-0.9273c0.0103,0,0.0206,0,0.0317,0 c1.7866,0.0174,3.2267,1.4852,3.2101,3.2719c-0.0166,1.7768-1.4678,3.2102-3.2403,3.2102c-0.0102,0-0.0213,0-0.0316,0 c-1.7867-0.0175-3.2267-1.4852-3.2101-3.2719C18.7639,19.0248,19.1089,18.2141,19.7269,17.6075z" fill="#ea5a47" stroke="none"/>
    <path d="M56.9559,49.0381H44.1387v4.4795c0,0.5527-0.4473,1-1,1c-0.502,0-0.8992-0.3752-0.9712-0.8569v5.4255 l1.1596-0.0003L56.9559,49.0381z" fill="#d0cfce" stroke="none"/>
  </g>
  <g id="line">
    <ellipse clip-rule="evenodd" cx="21.997" cy="19.9408" fill="none" fill-rule="evenodd" rx="3" ry="3" stroke="#000000" stroke-linecap="round" stroke-linejoin="round" stroke-miterlimit="10" stroke-width="2" transform="matrix(0.0096 -1 1 0.0096 1.8467 41.746)"/>
    <rect fill="none" height="16" stroke="#000000" stroke-linecap="round" stroke-linejoin="round" stroke-miterlimit="10" stroke-width="2" width="48" x="11.997" y="12.2142"/>
    <ellipse clip-rule="evenodd" cx="49.9976" cy="19.9408" fill="none" fill-rule="evenodd" rx="3" ry="3" stroke="#000000" stroke-linecap="round" stroke-linejoin="round" stroke-miterlimit="10" stroke-width="2" transform="matrix(0.0096 -1 1 0.0096 29.5794 69.7454)"/>
    <polyline fill="none" points="11.997,28.0918 11.997,60.0918 43.6564,60.0864 59.997,48.0382 59.997,28.0918" stroke="#000000" stroke-linecap="round" stroke-linejoin="round" stroke-miterlimit="10" stroke-width="2"/>
    <ellipse cx="18.2166" cy="33.6726" fill="#000000" rx="2" ry="2" stroke="none" transform="matrix(0.0096 -1 1 0.0096 -15.6284 51.5668)"/>
    <ellipse cx="24.2166" cy="33.6726" fill="#000000" rx="2" ry="2" stroke="none" transform="matrix(0.0096 -1 1 0.0096 -9.6857 57.5665)"/>
    <ellipse cx="30.2166" cy="33.6726" fill="#000000" rx="2" ry="2" stroke="none" transform="matrix(0.0096 -1 1 0.0096 -3.743 63.5662)"/>
    <ellipse cx="36.2166" cy="33.6726" fill="#000000" rx="2" ry="2" stroke="none" transform="matrix(0.0096 -1 1 0.0096 2.1997 69.566)"/>
    <ellipse cx="18.2166" cy="39.6726" fill="#000000" rx="2" ry="2" stroke="none" transform="matrix(0.0096 -1 1 0.0096 -21.6282 57.5095)"/>
    <ellipse cx="24.2166" cy="39.6726" fill="#000000" rx="2" ry="2" stroke="none" transform="matrix(0.0096 -1 1 0.0096 -15.6855 63.5092)"/>
    <ellipse cx="30.2166" cy="39.6726" fill="#000000" rx="2" ry="2" stroke="none" transform="matrix(0.0096 -1 1 0.0096 -9.7428 69.5089)"/>
    <ellipse cx="36.2166" cy="39.6726" fill="#000000" rx="2" ry="2" stroke="none" transform="matrix(0.0096 -1 1 0.0096 -3.8001 75.5087)"/>
    <ellipse cx="18.2166" cy="45.6726" fill="#000000" rx="2" ry="2" stroke="none" transform="matrix(0.0096 -1 1 0.0096 -27.6279 63.4522)"/>
    <polyline fill="none" points="59.8694,48.0382 43.1384,48.0382 43.1384,53.5175" stroke="#000000" stroke-linecap="round" stroke-linejoin="round" stroke-miterlimit="10" stroke-width="2"/>
  </g>
</svg>