<svg viewBox="0 0 72 72" xmlns="http://www.w3.org/2000/svg">
  <defs>
    <linearGradient id="yellow-gradient" x1="0%" x2="0%" y1="0%" y2="100%">
      <stop offset="0%" style="stop-color:#FDE02F;stop-opacity:1;"/>
      <stop offset="100%" style="stop-color:#F7B209;stop-opacity:1;"/>
    </linearGradient>
  </defs>
  <g id="color">
    <rect fill="#d22f27" height="9.498" width="0.9994" x="36.1184" y="7"/>
    <rect fill="#ea5a47" height="9.498" width="1.0503" x="35.0681" y="7"/>
    <polygon fill="#d0cfce" points="41.824 22.646 36.142 22.646 36.142 18.394 41.06 18.394 41.824 22.646"/>
    <path d="M36.16,48.84l-.0185,2.6071s-3.0975.077-5.3547,3.6929a14.1107,14.1107,0,0,0-1.6149,6.5818l-10.541-.2452s6.8354-3.1377,8.8827-6.7536a50.8353,50.8353,0,0,0,2.5209-5.712" fill="#ea5a47"/>
    <path d="M36.121,49.1779l-.0026,2.2692s3.0974.077,5.3547,3.6929a14.1113,14.1113,0,0,1,1.6148,6.5818l10.541-.2452s-6.8354-3.1377-8.8826-6.7536a48.79,48.79,0,0,1-2.3983-5.3975" fill="#d22f27"/>
    <rect fill="#b1cc33" height="2.5875" width="30.0405" x="5.9595" y="63.4125"/>
    <rect fill="#5c9e31" height="2.5875" width="30.0405" x="36" y="63.4125"/>
    <polygon fill="#ea5a47" points="36.111 42.5 30.13 42.5 32.803 24.087 36.111 24.196 36.111 42.5"/>
    <polygon fill="#d22f27" points="40.931 42.5 36.111 42.5 36.111 24.196 40.343 24.196 40.931 42.5"/>
    <polygon fill="#d0cfce" points="43.031 47.984 36.178 47.984 36.178 43.907 44.04 43.907 43.031 47.984"/>
  </g>
  <g id="line">
    <polygon fill="none" points="27.44 43.196 44.56 43.196 43.519 48.696 28.385 48.696 27.44 43.196" stroke="#000000" stroke-linecap="round" stroke-linejoin="round" stroke-width="2"/>
    <rect fill="none" height="4.5" stroke="#000000" stroke-linecap="round" stroke-linejoin="round" stroke-width="2" width="61.9618" x="5.0191" y="62.5"/>
    <path d="M29.7858,62c0-5.314,2.8457-9.6218,6.3561-9.6218S42.4979,56.686,42.4979,62" fill="none" stroke="#000000" stroke-miterlimit="10" stroke-width="2"/>
    <path d="M42.8775,49.5a17.0418,17.0418,0,0,0,3.03,5.8265A25.6341,25.6341,0,0,0,54.5692,62" fill="none" stroke="#000000" stroke-linecap="round" stroke-linejoin="round" stroke-width="2"/>
    <path d="M40.2545,34.5912c-.0995-.9287-.2542-2.5213-.3586-4.5274-.1773-3.4091-.1-6.1179-.0849-6.14a104.18,104.18,0,0,0,1.61,19.158" fill="none" stroke="#000000" stroke-linecap="round" stroke-linejoin="round" stroke-width="2"/>
    <path d="M28.832,49.3254a17.8744,17.8744,0,0,1-3.3641,7.0014,18.5363,18.5363,0,0,1-7.6913,5.5376" fill="none" stroke="#000000" stroke-linecap="round" stroke-linejoin="round" stroke-width="2"/>
    <path d="M31.9474,34.5912c.1-.9287.2542-2.5213.3585-4.5274.1774-3.4091.1-6.1179.085-6.14a104.18,104.18,0,0,1-1.61,19.158" fill="none" stroke="#000000" stroke-linecap="round" stroke-linejoin="round" stroke-width="2"/>
    <polyline fill="none" points="36.182 17.5 30.745 17.5 30.202 23.386 42.162 23.386 41.619 17.5 36.182 17.5" stroke="#000000" stroke-linecap="round" stroke-linejoin="round" stroke-width="2"/>
    <polyline fill="none" points="34.444 17 34.444 6 37.792 6 37.792 17" stroke="#000000" stroke-linecap="round" stroke-linejoin="round" stroke-width="2"/>
  </g>
</svg>