<svg viewBox="11 11 50 50" xmlns="http://www.w3.org/2000/svg">
  <defs>
    <linearGradient id="yellow-gradient" x1="0%" x2="0%" y1="0%" y2="100%">
      <stop offset="0%" style="stop-color:#FDE02F;stop-opacity:1;"/>
      <stop offset="100%" style="stop-color:#F7B209;stop-opacity:1;"/>
    </linearGradient>
  </defs>
  <g id="color">
    <circle cx="36" cy="36" fill="url(#yellow-gradient)" r="23"/>
  </g>
  <g id="line">
    <circle cx="36" cy="36" fill="none" r="23" stroke="#000000" stroke-linecap="round" stroke-linejoin="round" stroke-miterlimit="10" stroke-width="2"/>
    <path d="M45.8147,44.8055c-5.8513,4.7083-14.1004,4.6878-19.6295,0" fill="none" stroke="#000000" stroke-linecap="round" stroke-linejoin="round" stroke-miterlimit="10" stroke-width="2"/>
    <path d="M40.3059,30.5952 c1.0598,2.3854,3.8527,3.46,6.238,2.4002c1.0697-0.4752,1.9249-1.3305,2.4002-2.4002" fill="none" stroke="#000000" stroke-linecap="round" stroke-miterlimit="10" stroke-width="2"/>
    <path d="M23.0559,30.5952 c1.0598,2.3854,3.8527,3.46,6.238,2.4002c1.0697-0.4752,1.9249-1.3305,2.4002-2.4002" fill="none" stroke="#000000" stroke-linecap="round" stroke-miterlimit="10" stroke-width="2"/>
    <path d="M21.8487,27.1448c0.846-1.6267,2.2631-2.8809,3.9804-3.5217c1.6496-0.822,3.5458-0.9962,5.3181-0.4941" fill="none" stroke="#000000" stroke-linecap="round" stroke-linejoin="round" stroke-miterlimit="10" stroke-width="2"/>
    <path d="M51.7827,27.1448c-1.8571-3.2546-5.6391-4.8951-9.2847-4.0272" fill="none" stroke="#000000" stroke-linecap="round" stroke-linejoin="round" stroke-miterlimit="10" stroke-width="2"/>
  </g>
</svg>