<svg viewBox="11 11 50 50" xmlns="http://www.w3.org/2000/svg">
  <defs>
    <linearGradient id="yellow-gradient" x1="0%" x2="0%" y1="0%" y2="100%">
      <stop offset="0%" style="stop-color:#FDE02F;stop-opacity:1;"/>
      <stop offset="100%" style="stop-color:#F7B209;stop-opacity:1;"/>
    </linearGradient>
  </defs>
  <g id="color">
    <circle cx="36" cy="36" fill="url(#yellow-gradient)" r="24"/>
    <path d="M50.5707,44.471c0,0,6.3864,4.2101,6.3864,7.6241c0,2.4671-1.5752,4.5107-4.2717,4.5107 c-3.7214,0-7.6844-6.2448-7.6844-6.2448" fill="#EA5A47"/>
  </g>
  <g id="line">
    <path d="M57.2506,44.8137C58.3778,42.0992,59,39.1222,59,36c0-12.7031-10.2978-23-23-23c-12.7031,0-23,10.2969-23,23 c0,12.7022,10.2969,23,23,23c3.3707,0,6.5721-0.7251,9.4566-2.0279" fill="none" stroke="#000000" stroke-linecap="round" stroke-linejoin="round" stroke-miterlimit="10" stroke-width="2"/>
    <path d="M31.6941,33.4036 c-1.0598-2.3854-3.8527-3.46-6.238-2.4002c-1.0697,0.4752-1.9249,1.3305-2.4002,2.4002" fill="none" stroke="#000000" stroke-linecap="round" stroke-miterlimit="10" stroke-width="2"/>
    <path d="M48.9441,33.4036 c-1.0598-2.3854-3.8527-3.46-6.238-2.4002c-1.0697,0.4752-1.9249,1.3305-2.4002,2.4002" fill="none" stroke="#000000" stroke-linecap="round" stroke-miterlimit="10" stroke-width="2"/>
    <path d="M50.5707,44.471c0,0,6.3864,4.2101,6.3864,7.6241 c0,2.4671-1.5752,4.5107-4.2717,4.5107c-3.7214,0-7.6844-6.2448-7.6844-6.2448" fill="none" stroke="#000000" stroke-miterlimit="10" stroke-width="2"/>
    <path d="M20.1657,41.3575C22.3985,47.9591,28.644,52.7116,36,52.7116c7.3561,0,13.6024-4.7533,15.8349-11.3559" fill="none" stroke="#000000" stroke-linecap="round" stroke-linejoin="round" stroke-miterlimit="10" stroke-width="2"/>
  </g>
</svg>