<svg viewBox="11 11 50 50" xmlns="http://www.w3.org/2000/svg">
  <defs>
    <linearGradient id="yellow-gradient" x1="0%" x2="0%" y1="0%" y2="100%">
      <stop offset="0%" style="stop-color:#FDE02F;stop-opacity:1;"/>
      <stop offset="100%" style="stop-color:#F7B209;stop-opacity:1;"/>
    </linearGradient>
  </defs>
  <g id="color">
    <path d="M36,13c-12.6823,0-23,10.3177-23,23c0,12.6822,10.3177,23,23,23c12.6822,0,23-10.3178,23-23 C59,23.3177,48.6822,13,36,13z" fill="url(#yellow-gradient)"/>
    <path d="M41.6682,45.5925c2.018-1.0892,3.6277-2.7511,4.4969-4.7746c-1.9847,0.9853-6.1585,1.5931-10.5745,1.5426 c-4.0546-0.0464-7.7116-0.6408-9.5171-1.5426H25.835c0.939,2.1647,2.7178,3.8986,4.9168,4.9729" fill="#FFFFFF"/>
    <path d="M41.5772,41.818c0,6.0751-2.5324,11-5.6562,11c-3.1239,0-5.6563-4.9249-5.6563-11" fill="#EA5A47"/>
  </g>
  <g id="line">
    <circle cx="36" cy="36" fill="none" r="23" stroke="#000000" stroke-miterlimit="10" stroke-width="2"/>
    <path d="M40,31.7253c0.4132-0.344,2.2456-1.7915,4.9091-1.6364c2.1608,0.1259,3.61,1.2333,4.0909,1.6364" fill="none" stroke="#000000" stroke-linecap="round" stroke-linejoin="round" stroke-miterlimit="10" stroke-width="2"/>
    <path d="M30.7517,45.7908c-2.199-1.0742-3.9778-2.8081-4.9168-4.9729 M46.165,40.818c-0.8692,2.0234-2.4789,3.6854-4.4969,4.7746 M26.0734,40.818c1.8055,0.9018,5.4625,1.4962,9.5171,1.5426c4.4161,0.0505,8.5899-0.5572,10.5745-1.5426" fill="none" stroke="#000000" stroke-linecap="round" stroke-linejoin="round" stroke-miterlimit="10" stroke-width="2"/>
    <path d="M41.6597,41.818c0,6.0751-2.5324,11-5.6562,11 s-5.6563-4.9249-5.6563-11" fill="none" stroke="#000000" stroke-miterlimit="10" stroke-width="2"/>
    <path d="M30,31c0,1.6568-1.3448,3-3,3c-1.6553,0-3-1.3433-3-3c0-1.6552,1.3447-3,3-3C28.6552,28,30,29.3448,30,31"/>
  </g>
</svg>