<svg viewBox="11 11 50 50" xmlns="http://www.w3.org/2000/svg">
  <defs>
    <linearGradient id="yellow-gradient" x1="0%" x2="0%" y1="0%" y2="100%">
      <stop offset="0%" style="stop-color:#FDE02F;stop-opacity:1;"/>
      <stop offset="100%" style="stop-color:#F7B209;stop-opacity:1;"/>
    </linearGradient>
  </defs>
  <g id="color">
    <path d="M36,13.2002c-12.5719,0-22.7998,10.2279-22.7998,22.7998c0,12.5718,10.2279,22.7998,22.7998,22.7998 c12.5718,0,22.7998-10.228,22.7998-22.7998C58.7998,23.4281,48.5718,13.2002,36,13.2002z" fill="url(#yellow-gradient)"/>
  </g>
  <g id="line">
    <circle cx="36" cy="36" fill="none" r="23" stroke="#000" stroke-miterlimit="10" stroke-width="2"/>
    <path d="m21.88 23.92c5.102-0.06134 7.273-1.882 8.383-3.346" fill="none" stroke="#000" stroke-linecap="round" stroke-linejoin="round" stroke-miterlimit="10" stroke-width="2"/>
    <path d="m46.24 47.56c0-2.592-2.867-7.121-10.25-6.93-6.974 0.1812-10.22 4.518-10.22 7.111s4.271-1.611 10.05-1.492c6.317 0.13 10.43 3.903 10.43 1.311z" stroke="#000" stroke-miterlimit="10" stroke-width="2"/>
    <path d="m23.16 28.47c5.215 1.438 5.603 0.9096 8.204 1.207 1.068 0.1221-2.03 2.67-7.282 4.397" fill="none" stroke="#000" stroke-linecap="round" stroke-linejoin="round" stroke-miterlimit="10" stroke-width="2"/>
    <path d="m50.12 23.92c-5.102-0.06134-7.273-1.882-8.383-3.346" fill="none" stroke="#000" stroke-linecap="round" stroke-linejoin="round" stroke-miterlimit="10" stroke-width="2"/>
    <path d="m48.84 28.47c-5.215 1.438-5.603 0.9096-8.204 1.207-1.068 0.1221 2.03 2.67 7.282 4.397" fill="none" stroke="#000" stroke-linecap="round" stroke-linejoin="round" stroke-miterlimit="10" stroke-width="2"/>
  </g>
</svg>