<svg viewBox="11 11 50 50" xmlns="http://www.w3.org/2000/svg">
  <defs>
    <linearGradient id="yellow-gradient" x1="0%" x2="0%" y1="0%" y2="100%">
      <stop offset="0%" style="stop-color:#FDE02F;stop-opacity:1;"/>
      <stop offset="100%" style="stop-color:#F7B209;stop-opacity:1;"/>
    </linearGradient>
  </defs>
  <g id="color">
    <path d="m36 12c-13.23 0-24 10.77-24 24 0 13.23 10.77 24 24 24 13.23 0 24-10.77 24-24 0-13.23-10.77-24-24-24z" fill="url(#yellow-gradient)"/>
  </g>
  <g id="line">
    <circle cx="36" cy="36" fill="none" r="23" stroke="#000" stroke-miterlimit="10" stroke-width="2"/>
    <path d="m22.88 23.92c5.102-0.06134 7.273-1.882 8.383-3.346" fill="none" stroke="#000" stroke-linecap="round" stroke-linejoin="round" stroke-miterlimit="10" stroke-width="2"/>
    <path d="m46.24 47.56c0-2.592-2.867-7.121-10.25-6.93-6.974 0.1812-10.22 4.518-10.22 7.111s4.271-1.611 10.05-1.492c6.317 0.13 10.43 3.903 10.43 1.311z" stroke="#000" stroke-miterlimit="10" stroke-width="2"/>
    <path d="m49.12 23.92c-5.102-0.06134-7.273-1.882-8.383-3.346" fill="none" stroke="#000" stroke-linecap="round" stroke-linejoin="round" stroke-miterlimit="10" stroke-width="2"/>
    <path d="m48.24 30.51c-6.199 1.47-7.079 1.059-8.868-1.961" fill="none" stroke="#000" stroke-linecap="round" stroke-linejoin="round" stroke-miterlimit="10" stroke-width="2"/>
    <path d="m23.76 30.51c6.199 1.47 7.079 1.059 8.868-1.961" fill="none" stroke="#000" stroke-linecap="round" stroke-linejoin="round" stroke-miterlimit="10" stroke-width="2"/>
  </g>
</svg>