<svg viewBox="11 11 50 50" xmlns="http://www.w3.org/2000/svg">
  <defs>
    <linearGradient id="yellow-gradient" x1="0%" x2="0%" y1="0%" y2="100%">
      <stop offset="0%" style="stop-color:#FDE02F;stop-opacity:1;"/>
      <stop offset="100%" style="stop-color:#F7B209;stop-opacity:1;"/>
    </linearGradient>
  </defs>
  <g id="color">
    <path d="M36,13c-12.7025,0-23,10.2975-23,23s10.2975,23,23,23s23-10.2975,23-23 C58.9857,23.3034,48.6966,13.0143,36,13z" fill="url(#yellow-gradient)"/>
    <path d="M44.5,49.2708h-17c-2.2064-0.0065-3.9935-1.7936-4-4l0,0c0.0065-2.2064,1.7936-3.9935,4-4h17 c2.2064,0.0065,3.9935,1.7936,4,4l0,0C48.4935,47.4772,46.7064,49.2643,44.5,49.2708z" fill="#FFFFFF"/>
  </g>
  <g id="line">
    <line fill="none" stroke="#000000" stroke-linecap="round" stroke-linejoin="round" stroke-width="2" x1="28" x2="28" y1="41.7708" y2="48.7708"/>
    <line fill="none" stroke="#000000" stroke-linecap="round" stroke-linejoin="round" stroke-width="2" x1="33" x2="33" y1="41.7708" y2="48.7708"/>
    <line fill="none" stroke="#000000" stroke-linecap="round" stroke-linejoin="round" stroke-width="2" x1="38" x2="38" y1="41.7708" y2="48.7708"/>
    <line fill="none" stroke="#000000" stroke-linecap="round" stroke-linejoin="round" stroke-width="2" x1="43" x2="43" y1="41.7708" y2="48.7708"/>
    <circle cx="36" cy="36" fill="none" r="23" stroke="#000000" stroke-miterlimit="10" stroke-width="2"/>
    <path d="M44.5,49.2708h-17c-2.2064-0.0065-3.9935-1.7936-4-4 l0,0c0.0065-2.2064,1.7936-3.9935,4-4h17c2.2064,0.0065,3.9935,1.7936,4,4l0,0C48.4935,47.4772,46.7064,49.2643,44.5,49.2708z" fill="none" stroke="#000000" stroke-miterlimit="2" stroke-width="2"/>
    <path d="M30,31c0,1.6568-1.3448,3-3,3c-1.6553,0-3-1.3433-3-3c0-1.6552,1.3447-3,3-3C28.6552,28,30,29.3448,30,31"/>
    <path d="M48,31c0,1.6568-1.3447,3-3,3s-3-1.3433-3-3c0-1.6552,1.3447-3,3-3S48,29.3448,48,31"/>
  </g>
</svg>