<svg viewBox="11 11 50 50" xmlns="http://www.w3.org/2000/svg">
  <defs>
    <linearGradient id="yellow-gradient" x1="0%" x2="0%" y1="0%" y2="100%">
      <stop offset="0%" style="stop-color:#FDE02F;stop-opacity:1;"/>
      <stop offset="100%" style="stop-color:#F7B209;stop-opacity:1;"/>
    </linearGradient>
  </defs>
  <g id="color">
    <path d="M36,13c-12.6823,0-23,10.3177-23,23c0,12.6822,10.3177,23,23,23c12.6822,0,23-10.3178,23-23 C59,23.3177,48.6822,13,36,13z" fill="#E27022"/>
  </g>
  <g id="line">
    <circle cx="36" cy="36" fill="none" r="23" stroke="#000000" stroke-miterlimit="10" stroke-width="2"/>
    <path d="M28,46c1.5805-2.5575,4.9043-4.1349,8.4211-4.0038C39.6499,42.1166,42.5622,43.6595,44,46" fill="none" stroke="#000000" stroke-linecap="round" stroke-linejoin="round" stroke-miterlimit="10" stroke-width="2"/>
    <path d="M30,32.9252c0,1.6567-1.3448,3-3,3c-1.6553,0-3-1.3433-3-3c0-1.6553,1.3447-3,3-3C28.6552,29.9252,30,31.27,30,32.9252"/>
    <path d="M48,32.9252c0,1.6567-1.3447,3-3,3s-3-1.3433-3-3c0-1.6553,1.3447-3,3-3S48,31.27,48,32.9252"/>
    <line fill="none" stroke="#000000" stroke-linecap="round" stroke-linejoin="round" stroke-miterlimit="10" stroke-width="2" x1="23" x2="30" y1="24" y2="28"/>
    <line fill="none" stroke="#000000" stroke-linecap="round" stroke-linejoin="round" stroke-miterlimit="10" stroke-width="2" x1="49" x2="42" y1="24" y2="28"/>
  </g>
</svg>