<svg viewBox="11 11 50 50" xmlns="http://www.w3.org/2000/svg">
  <defs>
    <linearGradient id="yellow-gradient" x1="0%" x2="0%" y1="0%" y2="100%">
      <stop offset="0%" style="stop-color:#FDE02F;stop-opacity:1;"/>
      <stop offset="100%" style="stop-color:#F7B209;stop-opacity:1;"/>
    </linearGradient>
  </defs>
  <g id="color">
    <path d="M36,13c-12.6823,0-23,10.3177-23,23c0,12.6822,10.3177,23,23,23c12.6822,0,23-10.3178,23-23 C59,23.3177,48.6822,13,36,13z" fill="url(#yellow-gradient)"/>
  </g>
  <g id="line">
    <circle cx="36" cy="36" fill="none" r="23" stroke="#000" stroke-miterlimit="10" stroke-width="2"/>
    <path d="m42.87 45.7c0-2.592-3.834-4.694-6.869-4.694-3.035 0-6.869 2.101-6.869 4.694s3.659 0.9248 6.694 0.9248 7.044 1.667 7.044-0.9248z" stroke="#000" stroke-miterlimit="10" stroke-width="2"/>
    <path d="m30 31c0 1.657-1.345 3-3 3-1.655 0-3-1.343-3-3 0-1.655 1.345-3 3-3 1.655 0 3 1.345 3 3"/>
    <path d="m48 31c0 1.657-1.345 3-3 3s-3-1.343-3-3c0-1.655 1.345-3 3-3s3 1.345 3 3"/>
  </g>
</svg>