<svg viewBox="7 7 58 58" xmlns="http://www.w3.org/2000/svg">
  <defs>
    <linearGradient id="yellow-gradient" x1="0%" x2="0%" y1="0%" y2="100%">
      <stop offset="0%" style="stop-color:#FDE02F;stop-opacity:1;"/>
      <stop offset="100%" style="stop-color:#F7B209;stop-opacity:1;"/>
    </linearGradient>
  </defs>
  <g id="color">
    <path d="M22.729,51.4623a23.8831,23.8831,0,1,1,27.72-.5986s-6.6507,4.6412-14.279,4.6412A24.4594,24.4594,0,0,1,22.729,51.4623Z" fill="url(#yellow-gradient)" transform="translate(0 0)"/>
    <path d="M40.452,59.156a3.1437,3.1437,0,0,0-.0224-.3616,2.6344,2.6344,0,0,0,2.17-2.4056,2.1583,2.1583,0,0,0-.3752-1.2049,3.9224,3.9224,0,0,0,3.136-3.5746c-.0006-2.0838-2.062-3.7726-4.6044-3.7721a5.6077,5.6077,0,0,0-.6185.0381l-2.3021-5.29H33.6321L31.2693,47.84l-.0271-.0011c-2.5424,0-4.6029,1.69-4.6024,3.7737a3.8021,3.8021,0,0,0,2.6453,3.41,2.19,2.19,0,0,0-.4957,1.3686,2.7049,2.7049,0,0,0,2.4742,2.4667c-.0095.0992-.0184.1985-.0184.3.0006,2.0837,2.062,3.7726,4.6044,3.7721S40.4525,61.24,40.452,59.156Z" fill="#d0cfce" transform="translate(0 0)"/>
    <path d="M40.452,59.3012a3.16,3.16,0,0,0-.022-.3612,2.6345,2.6345,0,0,0,2.17-2.4056,2.1583,2.1583,0,0,0-.3752-1.2049,3.9224,3.9224,0,0,0,3.136-3.5746c-.0006-2.0838-2.062-3.7726-4.6044-3.7721a5.6077,5.6077,0,0,0-.6185.0381l-.6468-1.2458a4.4852,4.4852,0,0,1-2.6157,1.8326,2.1584,2.1584,0,0,1,.3752,1.205,2.6342,2.6342,0,0,1-2.17,2.4055,3.1454,3.1454,0,0,1,.0224.3617c0,2.0837-2.06,3.7732-4.6024,3.7737a5.479,5.479,0,0,1-1.6588-.2563,2.0627,2.0627,0,0,0-.0521.44,2.7051,2.7051,0,0,0,2.4743,2.4666c-.0095.0992-.0184.1986-.0184.3.0006,2.0837,2.062,3.7725,4.6044,3.772S40.4525,61.3849,40.452,59.3012Z" fill="#fff" transform="translate(0 0)"/>
    <path d="M36.0219,38.6794c2.2919.0047,6.3823.9679,6.3823,2.4233,0,3.06-3.09,3.2728-6.4042,3.2722-3.2912,0-6.624-.1615-6.624-3.1813C29.376,40.1431,33.54,38.6743,36.0219,38.6794Z" fill="#fff" transform="translate(0 0)"/>
  </g>
  <g id="line">
    <path d="M33.6029,43.5631l-2.3336,4.4614-.0271-.0011c-2.5424,0-4.6029,1.6775-4.6024,3.7457a3.7782,3.7782,0,0,0,2.6453,3.3847,2.1643,2.1643,0,0,0-.4957,1.3585,2.6943,2.6943,0,0,0,2.4742,2.4484c-.0095.0984-.0184.1971-.0184.2975.0006,2.0683,2.062,3.7446,4.6044,3.7441s4.6029-1.6774,4.6024-3.7457a3.0971,3.0971,0,0,0-.0224-.3589A2.6218,2.6218,0,0,0,42.6,56.51a2.1319,2.1319,0,0,0-.3752-1.196,3.9022,3.9022,0,0,0,3.136-3.5481c-.0006-2.0682-2.062-3.7446-4.6044-3.7441a5.6567,5.6567,0,0,0-.6185.0378l-2.352-4.4964" fill="none" stroke="#000" stroke-linecap="round" stroke-linejoin="round" stroke-width="2" transform="translate(0 0)"/>
    <path d="M23.2256,50.7311a23.0008,23.0008,0,1,1,26.6961-.5765" fill="none" stroke="#000" stroke-linecap="round" stroke-linejoin="round" stroke-width="2" transform="translate(0 0)"/>
    <path d="M40.4759,26.3119a4.7262,4.7262,0,0,0,8.6382,0" fill="none" stroke="#000" stroke-linecap="round" stroke-miterlimit="10" stroke-width="2" transform="translate(0 0)"/>
    <path d="M23.2259,26.3119a4.7262,4.7262,0,0,0,8.6382,0" fill="none" stroke="#000" stroke-linecap="round" stroke-miterlimit="10" stroke-width="2" transform="translate(0 0)"/>
    <path d="M31.1048,42.6884a1.5162,1.5162,0,0,1-.8222-1.3939c0-2.198,3.4938-3.4248,5.6918-3.4248s5.52,1.2268,5.52,3.4248A1.6853,1.6853,0,0,1,40.1185,42.95" fill="none" stroke="#000" stroke-linecap="round" stroke-linejoin="round" stroke-width="2" transform="translate(0 0)"/>
  </g>
</svg>