<svg viewBox="11 11 50 50" xmlns="http://www.w3.org/2000/svg">
  <defs>
    <linearGradient id="yellow-gradient" x1="0%" x2="0%" y1="0%" y2="100%">
      <stop offset="0%" style="stop-color:#FDE02F;stop-opacity:1;"/>
      <stop offset="100%" style="stop-color:#F7B209;stop-opacity:1;"/>
    </linearGradient>
  </defs>
  <g id="line-supplement">
    <line fill="none" stroke="#000000" stroke-linecap="round" stroke-linejoin="round" stroke-miterlimit="10" stroke-width="2" x1="18" x2="20" y1="39.8839" y2="37.8839"/>
    <line fill="none" stroke="#000000" stroke-linecap="round" stroke-linejoin="round" stroke-miterlimit="10" stroke-width="2" x1="20" x2="24" y1="43.8839" y2="39.8839"/>
    <line fill="none" stroke="#000000" stroke-linecap="round" stroke-linejoin="round" stroke-miterlimit="10" stroke-width="2" x1="54" x2="52" y1="39.8839" y2="37.8839"/>
    <line fill="none" stroke="#000000" stroke-linecap="round" stroke-linejoin="round" stroke-miterlimit="10" stroke-width="2" x1="52" x2="48" y1="43.8839" y2="39.8839"/>
  </g>
  <g id="color">
    <path d="M36,13c-12.68,0-23,10.32-23,23s10.32,23,23,23s23-10.32,23-23S48.68,13,36,13z" fill="url(#yellow-gradient)"/>
    <path d="M33.5,32.31c0,3.59-2.914,6.5-6.5,6.5s-6.5-2.91-6.5-6.5c0-3.586,2.914-6.5,6.5-6.5S33.5,28.724,33.5,32.31" fill="#FFFFFF"/>
    <path d="M51.5,32.31c0,3.59-2.914,6.5-6.5,6.5s-6.5-2.91-6.5-6.5c0-3.586,2.914-6.5,6.5-6.5S51.5,28.724,51.5,32.31" fill="#FFFFFF"/>
    <line fill="none" stroke="#EA5A47" stroke-linecap="round" stroke-linejoin="round" stroke-miterlimit="10" stroke-width="2" x1="18" x2="20" y1="42.5532" y2="40.5532"/>
    <line fill="none" stroke="#EA5A47" stroke-linecap="round" stroke-linejoin="round" stroke-miterlimit="10" stroke-width="2" x1="20" x2="24" y1="46.5532" y2="42.5532"/>
    <line fill="none" stroke="#EA5A47" stroke-linecap="round" stroke-linejoin="round" stroke-miterlimit="10" stroke-width="2" x1="54" x2="52" y1="42.5532" y2="40.5532"/>
    <line fill="none" stroke="#EA5A47" stroke-linecap="round" stroke-linejoin="round" stroke-miterlimit="10" stroke-width="2" x1="52" x2="48" y1="46.5532" y2="42.5532"/>
  </g>
  <g id="line">
    <path d="M29.56,32.43c0,1.411-1.146,2.556-2.556,2.556s-2.556-1.144-2.556-2.556c0-1.41,1.146-2.556,2.556-2.556 S29.56,31.02,29.56,32.43"/>
    <path d="M47.56,32.43c0,1.411-1.146,2.556-2.556,2.556s-2.556-1.144-2.556-2.556c0-1.41,1.146-2.556,2.556-2.556 S47.56,31.02,47.56,32.43"/>
    <circle cx="36" cy="36" fill="none" r="23" stroke="#000000" stroke-miterlimit="10" stroke-width="2"/>
    <path d="M33.5,32.43c0,3.59-2.914,6.5-6.5,6.5 s-6.5-2.91-6.5-6.5c0-3.586,2.914-6.5,6.5-6.5S33.5,28.844,33.5,32.43" fill="none" stroke="#000000" stroke-miterlimit="10" stroke-width="2"/>
    <path d="M51.5,32.43c0,3.59-2.914,6.5-6.5,6.5 s-6.5-2.91-6.5-6.5c0-3.586,2.914-6.5,6.5-6.5S51.5,28.844,51.5,32.43" fill="none" stroke="#000000" stroke-miterlimit="10" stroke-width="2"/>
    <path d="M21.69,22.44c0.3525-0.406,1.928-2.129,4.582-2.405c2.153-0.2232,3.761,0.6367,4.301,0.9572" fill="none" stroke="#000000" stroke-linecap="round" stroke-linejoin="round" stroke-miterlimit="10" stroke-width="2"/>
    <path d="M41.43,20.97c0.464-0.2717,2.509-1.4,5.111-0.8103c2.111,0.4781,3.359,1.808,3.768,2.284" fill="none" stroke="#000000" stroke-linecap="round" stroke-linejoin="round" stroke-miterlimit="10" stroke-width="2"/>
    <path d="M42.5,46.5c-1.2841,0.6376-11.8318,0.5835-13,0" fill="none" stroke="#000000" stroke-linecap="round" stroke-linejoin="round" stroke-miterlimit="10" stroke-width="2"/>
  </g>
</svg>