<svg viewBox="11 11 50 50" xmlns="http://www.w3.org/2000/svg">
  <defs>
    <linearGradient id="yellow-gradient" x1="0%" x2="0%" y1="0%" y2="100%">
      <stop offset="0%" style="stop-color:#FDE02F;stop-opacity:1;"/>
      <stop offset="100%" style="stop-color:#F7B209;stop-opacity:1;"/>
    </linearGradient>
  </defs>
  <g id="color">
    <circle cx="36" cy="36" fill="url(#yellow-gradient)" r="23"/>
  </g>
  <g id="line">
    <circle cx="36" cy="36" fill="none" r="23" stroke="#000000" stroke-linecap="round" stroke-linejoin="round" stroke-width="2"/>
    <path d="M26.1851,27.0707 c2.8995-1.6362,6.2482-2.5699,9.8149-2.5699s6.9153,0.9336,9.8149,2.5699" fill="none" stroke="#000000" stroke-linecap="round" stroke-linejoin="round" stroke-width="2"/>
    <path d="M42,41c0-1.6568,1.3448-3,3-3c1.6553,0,3,1.3433,3,3c0,1.6552-1.3447,3-3,3C43.3448,44,42,42.6552,42,41"/>
    <path d="M24,41c0-1.6568,1.3447-3,3-3s3,1.3433,3,3c0,1.6552-1.3447,3-3,3S24,42.6552,24,41"/>
  </g>
</svg>