<svg viewBox="8 8 56 56" xmlns="http://www.w3.org/2000/svg">
  <defs>
    <linearGradient id="yellow-gradient" x1="0%" x2="0%" y1="0%" y2="100%">
      <stop offset="0%" style="stop-color:#FDE02F;stop-opacity:1;"/>
      <stop offset="100%" style="stop-color:#F7B209;stop-opacity:1;"/>
    </linearGradient>
  </defs>
  <g id="color">
    <polygon fill="#3f3f3f" points="21 50 11 61 61 61 51 50 21 50"/>
    <rect fill="#d0cfce" height="33" rx="3.0558" ry="3.0558" width="28.8" x="21.6" y="15"/>
    <rect fill="#61b2e4" height="14" width="22" x="25" y="19"/>
    <polyline fill="#92d3f5" points="47 19 25 19 25 33"/>
    <rect fill="url(#yellow-gradient)" height="5" width="5" x="25" y="37"/>
    <rect fill="url(#yellow-gradient)" height="5" width="5" x="42" y="37"/>
  </g>
  <g id="line">
    <rect fill="none" height="33" rx="3.0558" ry="3.0558" stroke="#000" stroke-linecap="round" stroke-linejoin="round" stroke-width="2" width="28.8" x="21.6" y="15"/>
    <line fill="none" stroke="#000" stroke-linecap="round" stroke-miterlimit="10" stroke-width="2" x1="24" x2="16" y1="51" y2="60"/>
    <line fill="none" stroke="#000" stroke-linecap="round" stroke-miterlimit="10" stroke-width="2" x1="48" x2="56" y1="51" y2="60"/>
    <polygon fill="none" points="35.166 15 27 8 44 8 35.166 15" stroke="#000" stroke-linecap="round" stroke-linejoin="round" stroke-width="2"/>
    <path d="M47,20V33H26" fill="none" stroke="#000" stroke-linecap="round" stroke-linejoin="round" stroke-width="2"/>
    <polyline fill="none" points="26 42 30 42 30 38" stroke="#000" stroke-linecap="round" stroke-linejoin="round" stroke-width="2"/>
    <polyline fill="none" points="43 42 47 42 47 38" stroke="#000" stroke-linecap="round" stroke-linejoin="round" stroke-width="2"/>
  </g>
</svg>