<svg viewBox="0 0 72 72" xmlns="http://www.w3.org/2000/svg">
  <defs>
    <linearGradient id="yellow-gradient" x1="0%" x2="0%" y1="0%" y2="100%">
      <stop offset="0%" style="stop-color:#FDE02F;stop-opacity:1;"/>
      <stop offset="100%" style="stop-color:#F7B209;stop-opacity:1;"/>
    </linearGradient>
  </defs>
  <g id="color">
    <rect fill="#D0CFCE" height="64.1" width="4" x="34.1" y="3.9"/>
    <path d="M48.9,38.5H23.4c-1.1,0-2-0.9-2-2V10.9c0-1.1,0.9-2,2-2h25.5c1.1,0,2,0.9,2,2v25.6 C50.9,37.6,50,38.5,48.9,38.5z" fill="#FFFFFF"/>
    <circle cx="36.1" cy="23.6" fill="url(#yellow-gradient)" r="10" stroke="#5C9E31" stroke-linecap="round" stroke-linejoin="round" stroke-miterlimit="10" stroke-width="2"/>
  </g>
  <g id="line">
    <polyline fill="none" points="34.1,8.5 34.1,3.9 38.1,3.9 38.1,8.5" stroke="#000000" stroke-linecap="round" stroke-linejoin="round" stroke-miterlimit="10" stroke-width="2"/>
    <polyline fill="none" points="38.1,39 38.1,68 34.1,68 34.1,38.9" stroke="#000000" stroke-linecap="round" stroke-linejoin="round" stroke-miterlimit="10" stroke-width="2"/>
    <path d="M48.9,38.5H23.4c-1.1,0-2-0.9-2-2V10.9c0-1.1,0.9-2,2-2h25.5c1.1,0,2,0.9,2,2v25.6C50.9,37.6,50,38.5,48.9,38.5z" fill="none" stroke="#000000" stroke-linecap="round" stroke-linejoin="round" stroke-miterlimit="10" stroke-width="2"/>
    <circle cx="36.1" cy="23.6" fill="none" r="10" stroke="#000000" stroke-linecap="round" stroke-linejoin="round" stroke-miterlimit="10" stroke-width="2"/>
    <line fill="none" stroke="#000000" stroke-linecap="round" stroke-linejoin="round" stroke-miterlimit="10" stroke-width="2" x1="32.7" x2="32.7" y1="18" y2="28.9"/>
    <line fill="none" stroke="#000000" stroke-linecap="round" stroke-linejoin="round" stroke-miterlimit="10" stroke-width="2" x1="39" x2="39" y1="18" y2="28.9"/>
    <line fill="none" stroke="#000000" stroke-linecap="round" stroke-linejoin="round" stroke-miterlimit="10" stroke-width="2" x1="39" x2="32.7" y1="23.4" y2="23.4"/>
  </g>
  <g id="color-foreground">
    <circle cx="36.1" cy="23.6" fill="none" r="10" stroke="#5C9E31" stroke-linecap="round" stroke-linejoin="round" stroke-miterlimit="10" stroke-width="2.1"/>
    <line fill="none" stroke="#5C9E31" stroke-linecap="round" stroke-linejoin="round" stroke-miterlimit="10" stroke-width="2.1" x1="32.7" x2="32.7" y1="18" y2="28.9"/>
    <line fill="none" stroke="#5C9E31" stroke-linecap="round" stroke-linejoin="round" stroke-miterlimit="10" stroke-width="2.1" x1="39" x2="39" y1="18" y2="28.9"/>
    <line fill="none" stroke="#5C9E31" stroke-linecap="round" stroke-linejoin="round" stroke-miterlimit="10" stroke-width="2.1" x1="39" x2="32.7" y1="23.4" y2="23.4"/>
  </g>
</svg>