<svg viewBox="0 0 72 72" xmlns="http://www.w3.org/2000/svg">
  <defs>
    <linearGradient id="yellow-gradient" x1="0%" x2="0%" y1="0%" y2="100%">
      <stop offset="0%" style="stop-color:#FDE02F;stop-opacity:1;"/>
      <stop offset="100%" style="stop-color:#F7B209;stop-opacity:1;"/>
    </linearGradient>
  </defs>
  <g id="color">
    <path d="M17.9247,53.9753l-6.625-1.017c0,0-1.0625,0-1.0625-1.25s-0.0625-3.5625-0.0625-3.5625 s0.6832-9.4798,2.625-10.625c1.625-0.9583,46.544-0.7036,53.1365-0.5781c0.4728,0.009,0.8668,0.3478,0.9496,0.8133 c0.2375,1.3354,0.6809,4.0966,0.7264,6.3273c0.0625,3.0625-0.125,8-0.125,8l-4.7646,1.7952" fill="#EA5A47"/>
    <path d="M13.1331,38.0833c0,0-2.3125,3.1667-2.125,9.0417c0,0,3.9166,1.4583,9.9791-4.3125l42.9375,1.3125 c0,0,2.2292-1.2292,2.3334-6.2917C66.2581,37.8333,20.3831,35.6667,13.1331,38.0833z" fill="#3F3F3F"/>
    <line fill="none" x1="50.3414" x2="30.1747" y1="53.0606" y2="53.0065"/>
    <circle cx="56.4803" cy="53.2917" fill="#D0CFCE" r="3"/>
    <circle cx="23.9803" cy="53.2917" fill="#D0CFCE" r="3"/>
    <rect fill="#3F3F3F" height="12.6667" width="5.0625" x="40.4872" y="40.3177"/>
    <path d="M11.1591,50.6562h2.5783l1.0723-2.3125h-2.8795c-0.4259,0-0.7711,0.3992-0.7711,0.8916 C11.1591,49.2353,11.1591,50.6562,11.1591,50.6562z" fill="url(#yellow-gradient)"/>
  </g>
  <g id="line">
    <path d="M17.9247,52.9753l-6.625-0.017c0,0-1.0625,0-1.0625-1.25s-0.0625-3.5625-0.0625-3.5625s0.6832-9.4798,2.625-10.625 c1.625-0.9583,46.544-0.7036,53.1365-0.5781c0.4728,0.009,0.8668,0.3478,0.9496,0.8133c0.2375,1.3354,0.6809,4.0966,0.7264,6.3273 c0.0625,3.0625-0.125,8-0.125,8l-4.7646,0.7952" fill="none" stroke="#000000" stroke-linecap="round" stroke-linejoin="round" stroke-miterlimit="10" stroke-width="2"/>
    <line fill="none" stroke="#000000" stroke-linecap="round" stroke-linejoin="round" stroke-miterlimit="10" stroke-width="2" x1="50.3414" x2="30.1747" y1="53.0606" y2="53.0065"/>
    <polyline fill="none" points="11.2997,40.5 6.7372,40.8125 5.2997,44.125" stroke="#000000" stroke-linecap="round" stroke-linejoin="round" stroke-miterlimit="10" stroke-width="2"/>
    <circle cx="56.4803" cy="53.2917" fill="none" r="3" stroke="#000000" stroke-linecap="round" stroke-linejoin="round" stroke-miterlimit="10" stroke-width="2"/>
    <circle cx="23.9803" cy="53.2917" fill="none" r="3" stroke="#000000" stroke-linecap="round" stroke-linejoin="round" stroke-miterlimit="10" stroke-width="2"/>
    <path d="M45.5493,43.0283l18.1254,0.1592c0,0,0.0142-0.0017,0.0403-0.0069" fill="none" stroke="#000000" stroke-linecap="round" stroke-linejoin="round" stroke-miterlimit="10" stroke-width="2"/>
    <path d="M13.2782,46.3109c0,0,4.0241-0.9494,7.709-3.4984l19.5,0.1713" fill="none" stroke="#000000" stroke-linecap="round" stroke-linejoin="round" stroke-miterlimit="10" stroke-width="2"/>
    <path d="M17.9247,52.9753l-6.625-0.017c0,0-1.0625,0-1.0625-1.25s-0.0625-3.5625-0.0625-3.5625s0.6832-9.4798,2.625-10.625 c1.625-0.9583,46.544-0.7036,53.1365-0.5781c0.4728,0.009,0.8668,0.3478,0.9496,0.8133c0.2375,1.3354,0.6809,4.0966,0.7264,6.3273 c0.0625,3.0625-0.125,8-0.125,8" fill="none" stroke="#000000" stroke-linecap="round" stroke-linejoin="round" stroke-miterlimit="10" stroke-width="2"/>
    <rect fill="none" height="12.6667" stroke="#000000" stroke-linecap="round" stroke-linejoin="round" stroke-miterlimit="10" stroke-width="2" width="5.0625" x="40.4872" y="40.3177"/>
    <polyline fill="none" points="11.1591,50.6562 13.7374,50.6562 14.8097,49.2948" stroke="#000000" stroke-linecap="round" stroke-linejoin="round" stroke-miterlimit="10" stroke-width="2"/>
  </g>
</svg>