<svg viewBox="12 12 48 48" xmlns="http://www.w3.org/2000/svg">
  <defs>
    <linearGradient id="yellow-gradient" x1="0%" x2="0%" y1="0%" y2="100%">
      <stop offset="0%" style="stop-color:#FDE02F;stop-opacity:1;"/>
      <stop offset="100%" style="stop-color:#F7B209;stop-opacity:1;"/>
    </linearGradient>
  </defs>
  <g id="color">
    <polygon fill="#ea5a47" points="22.647 27.358 27.455 24.854 44.988 24.812 50.21 28.861 52.822 38.045 54.853 39.798 54.397 52.154 17.384 52.531 17.384 39.051 18.414 38.511 22.647 27.358"/>
    <polygon fill="#92d3f5" points="23.192 37.462 48.756 37.443 45.846 28.155 26.314 28.155 23.192 37.462"/>
    <rect fill="url(#yellow-gradient)" height="3.51" width="5" x="19.9781" y="41.3302"/>
    <rect fill="url(#yellow-gradient)" height="3.51" width="5" x="45.9781" y="41.3302"/>
    <rect fill="#3f3f3f" height="4.2363" rx="2.1181" ry="2.1181" width="37.242" x="17.6414" y="47.8436"/>
  </g>
  <g id="line">
    <polyline fill="none" points="24.095 37.443 48.756 37.443 45.878 28.852" stroke="#000" stroke-linecap="round" stroke-linejoin="round" stroke-width="2"/>
    <line fill="none" stroke="#000" stroke-linecap="round" stroke-miterlimit="10" stroke-width="2" x1="32" x2="41" y1="42.1606" y2="42.1606"/>
    <line fill="none" stroke="#000" stroke-linecap="round" stroke-miterlimit="10" stroke-width="2" x1="32" x2="41" y1="44.7931" y2="44.7931"/>
    <polyline fill="none" points="21 44.793 25 44.793 25 42.161" stroke="#000" stroke-linecap="round" stroke-linejoin="round" stroke-width="2"/>
    <polyline fill="none" points="47 44.793 51 44.793 51 42.161" stroke="#000" stroke-linecap="round" stroke-linejoin="round" stroke-width="2"/>
    <rect height="3.51" rx="1.755" ry="1.755" width="6" x="18" y="52.49"/>
    <rect height="3.51" rx="1.755" ry="1.755" width="6" x="48" y="52.49"/>
    <rect height="3.2736" rx="1.6368" ry="1.6368" width="4.9651" x="52.4782" y="35.5017"/>
    <rect height="3.2736" rx="1.6368" ry="1.6368" width="4.9651" x="14.5041" y="35.6858"/>
    <path d="M19.598,38.3373l2.0507-6.9637c1.1278-3.83,4.8183-6.9636,8.201-6.9636H36" fill="none" stroke="#000" stroke-linecap="round" stroke-linejoin="round" stroke-width="2"/>
    <path d="M52.4019,38.3371l-2.0506-6.9635c-1.1279-3.83-4.8183-6.9636-8.201-6.9636H36" fill="none" stroke="#000" stroke-linecap="round" stroke-linejoin="round" stroke-width="2"/>
    <path d="M36.2624,52.49H19.9134a2.9458,2.9458,0,0,1-2.9267-2.9474V42.5053c0-1.5965.89-4.0754,2.4927-4.0754" fill="none" stroke="#000" stroke-linecap="round" stroke-linejoin="round" stroke-width="2"/>
    <path d="M35.6851,52.49h16.349a2.9458,2.9458,0,0,0,2.9267-2.9474V42.5053c0-1.5965-.89-4.0754-2.4927-4.0754" fill="none" stroke="#000" stroke-linecap="round" stroke-linejoin="round" stroke-width="2"/>
  </g>
</svg>