<svg viewBox="4 4 64 64" xmlns="http://www.w3.org/2000/svg">
  <defs>
    <linearGradient id="yellow-gradient" x1="0%" x2="0%" y1="0%" y2="100%">
      <stop offset="0%" style="stop-color:#FDE02F;stop-opacity:1;"/>
      <stop offset="100%" style="stop-color:#F7B209;stop-opacity:1;"/>
    </linearGradient>
  </defs>
  <g id="color">
    <path d="M42.5,30.1L39,27.7c-0.5-0.3-1.2-0.2-1.5,0.4l-1.1,2" fill="#F1B31C"/>
    <path d="M64.8,44.7l-1.1-0.6c-0.4-0.2-0.6-0.6-0.5-1c0.3-1.9,0.5-8.5-9.7-11.5c-0.2-0.1-0.4-0.1-0.6-0.1l-19.6,0.1 c-0.4,0-0.8,0.1-1.1,0.3l-10.3,6.9c-0.2,0.1-0.4,0.2-0.6,0.2c-1.9-0.1-3.7,0.1-5.6,0.4c-5.4,1.1-7.6,4-8.4,5.5 c-0.2,0.3-0.2,0.7-0.2,1C7.2,48.3,5.6,51,8,53.2l19.4-0.1l20.4-0.5l16.1-0.2c0.9-0.1,2.4-1.4,2.8-2.2C68.4,47.5,65,44.8,64.8,44.7z" fill="url(#yellow-gradient)"/>
    <path d="M17.3,47.1c-2.2,0-4,1.8-4,4s1.8,4,4,4s4-1.8,4-4C21.3,48.9,19.5,47.1,17.3,47.1z" fill="#9B9B9A"/>
    <path d="M57.1,47.1c-2.2,0-4,1.8-4,4s1.8,4,4,4s4-1.8,4-4C61.1,48.9,59.3,47.1,57.1,47.1z" fill="#9B9B9A"/>
    <path d="M56.1,40v-4.3c0-0.9-0.8-1.7-1.7-1.7l0,0H33.2c-0.1,0-0.2,0-0.2,0.1l-8.6,5.7c-0.2,0.1,0.4,0.4,0.5,0.6 c0.1,0.1,0.2,0.2,0.3,0.2c5.6,0,27.2-0.2,30.4-0.1C55.9,40.5,56.1,40.3,56.1,40C56.1,40.1,56.1,40.1,56.1,40z" fill="#3F3F3F"/>
    <polygon fill="#D0CFCE" points="8.9,41.2 12.9,42.8 10.8,45.7 5.8,45.8"/>
  </g>
  <g id="line">
    <path d="M42.5,30.1L39,27.7c-0.5-0.3-1.2-0.2-1.5,0.4l-1.1,2" fill="none" stroke="#000000" stroke-linecap="round" stroke-linejoin="round" stroke-miterlimit="10" stroke-width="2"/>
    <line fill="none" stroke="#000000" stroke-linecap="round" stroke-linejoin="round" stroke-width="2" x1="47.6" x2="27" y1="51.7" y2="52.1"/>
    <path d="M8.1,52.1 c-0.9-0.2-1.7-0.5-1.8-1C6.2,50.1,6,47.3,6,46c0-0.5,0.1-1.1,0.4-1.5c1.1-2,4.8-6.8,14.9-6.4l10.3-6.9c0.5-0.3,1.1-0.5,1.6-0.5 l19.6-0.1c0.3,0,0.6,0,0.9,0.1c2.2,0.6,11.7,4,10.4,12.6l1.1,0.6c0.5,0.2,0.9,0.7,1,1.2c0.4,1.4,0.3,2.9-0.2,4.3" fill="none" stroke="#000000" stroke-linecap="round" stroke-linejoin="round" stroke-width="2"/>
    <polyline fill="none" points="24.9,40.6 55.1,40.4 55.1,35.9" stroke="#000000" stroke-linecap="round" stroke-linejoin="round" stroke-width="2"/>
    <circle cx="17.3" cy="51.1" fill="none" r="5" stroke="#000000" stroke-linecap="round" stroke-linejoin="round" stroke-width="2"/>
    <circle cx="57.1" cy="51.1" fill="none" r="5" stroke="#000000" stroke-linecap="round" stroke-linejoin="round" stroke-width="2"/>
    <polyline fill="none" points="12.3,43.6 10.5,45.8 6.8,45.7" stroke="#000000" stroke-linecap="round" stroke-linejoin="round" stroke-width="2"/>
    <line fill="none" stroke="#000000" stroke-linecap="round" stroke-linejoin="round" stroke-miterlimit="10" stroke-width="2" x1="24.1" x2="50.1" y1="44.1" y2="44.1"/>
  </g>
  <g id="color-foreground">
    <line id="xx" fill="none" stroke="#F1B31C" stroke-linecap="round" stroke-linejoin="round" stroke-miterlimit="10" stroke-width="2.1" x1="24.1" x2="50.1" y1="44.1" y2="44.1"/>
  </g>
</svg>