<svg viewBox="5 5 62 62" xmlns="http://www.w3.org/2000/svg">
  <defs>
    <linearGradient id="yellow-gradient" x1="0%" x2="0%" y1="0%" y2="100%">
      <stop offset="0%" style="stop-color:#FDE02F;stop-opacity:1;"/>
      <stop offset="100%" style="stop-color:#F7B209;stop-opacity:1;"/>
    </linearGradient>
  </defs>
  <g id="color">
    <path d="M33.429,22.5141c.0563.261-.4737.8975-.1653.5925a1.5438,1.5438,0,0,0,.4295-.9446,1.6034,1.6034,0,0,0-.8064-1.61,1.5,1.5,0,1,0-1.5142,2.59l.0649.0374-.6893-.8964.0254.078v-.7976l-.017.0834.3858-.6619a2.5641,2.5641,0,0,0-.64,1.0319,2.8242,2.8242,0,0,0,.0336,1.2944,1.5,1.5,0,1,0,2.8928-.7975Z" fill="#3f3f3f"/>
    <path d="M41.997,25.426a1.5009,1.5009,0,0,0,0-3,1.5009,1.5009,0,0,0,0,3Z" fill="#3f3f3f"/>
    <path d="M37.1958,24.4221a1.5009,1.5009,0,0,0,0-3,1.5009,1.5009,0,0,0,0,3Z" fill="#3f3f3f"/>
    <path d="M26.2273,20.0344a1.61,1.61,0,0,0,1.5666,2.701A1.515,1.515,0,0,0,28.8416,20.89a2.7206,2.7206,0,0,0-1.0805-1.438,1.5105,1.5105,0,0,0-2.0523.5381,1.5349,1.5349,0,0,0,.5381,2.0523.632.632,0,0,1-.2982-.3549l1.0477-1.8452-.0942.0243,1.1558.1512-.0807-.0542.7429,1.2952-.0029-.0972-.4393,1.0607.0706-.0669a1.5,1.5,0,1,0-2.1213-2.1213Z" fill="#3f3f3f"/>
    <rect fill="url(#yellow-gradient)" height="23" stroke="#000" stroke-linejoin="round" stroke-width="2" width="15" x="27" y="30"/>
    <line fill="none" stroke="#61b2e4" stroke-linejoin="round" stroke-width="2" x1="28" x2="42" y1="50" y2="50"/>
    <rect fill="#d0cfce" height="4" stroke="#d0cfce" stroke-linejoin="round" stroke-width="1.633" width="6" x="27" y="42"/>
    <rect fill="#3f3f3f" height="6.5" stroke="#3f3f3f" stroke-linejoin="round" stroke-width="1.472" width="6" x="27" y="34"/>
    <rect fill="#d0cfce" height="11" stroke="#d0cfce" stroke-linejoin="round" stroke-width="2" width="6" x="36" y="34"/>
  </g>
  <g id="line">
    <rect fill="none" height="4" rx="1.732" stroke="#000" stroke-miterlimit="10" stroke-width="2" transform="translate(4.1507 -5.0632) rotate(9.6714)" width="4" x="30" y="20"/>
    <rect fill="none" height="4" rx="1.732" stroke="#000" stroke-miterlimit="10" stroke-width="2" transform="translate(4.3898 -5.889) rotate(9.6714)" width="4" x="35" y="21"/>
    <rect fill="none" height="4" rx="1.732" stroke="#000" stroke-miterlimit="10" stroke-width="2" transform="matrix(0.9858, 0.168, -0.168, 0.9858, 4.6289, -6.7148)" width="4" x="40" y="22"/>
    <rect fill="none" height="4" rx="1.732" stroke="#000" stroke-miterlimit="10" stroke-width="2" transform="matrix(0.9858, 0.168, -0.168, 0.9858, 3.9117, -4.2375)" width="4" x="25" y="19"/>
    <line fill="none" stroke="#000" stroke-miterlimit="10" stroke-width="2" x1="12" x2="60" y1="18" y2="28"/>
    <line fill="none" stroke="#000" stroke-miterlimit="10" stroke-width="2" x1="35" x2="35" y1="23" y2="31"/>
    <rect fill="none" height="11" stroke="#000" stroke-linejoin="round" stroke-width="2" width="6" x="36" y="34"/>
    <rect fill="none" height="13" stroke="#000" stroke-linejoin="round" stroke-width="2" width="6" x="27" y="34"/>
    <rect fill="none" height="23" stroke="#000" stroke-linejoin="round" stroke-width="2" width="15" x="27" y="30"/>
  </g>
</svg>