<svg viewBox="0 0 72 72" xmlns="http://www.w3.org/2000/svg">
  <defs>
    <linearGradient id="yellow-gradient" x1="0%" x2="0%" y1="0%" y2="100%">
      <stop offset="0%" style="stop-color:#FDE02F;stop-opacity:1;"/>
      <stop offset="100%" style="stop-color:#F7B209;stop-opacity:1;"/>
    </linearGradient>
  </defs>
  <g id="color">
    <path d="M68,26.0871H32.9622c-0.5314,0-0.9622,0.391-0.9622,0.8733v2.4004h36V26.0871z" fill="#EA5A47"/>
    <path d="M68,25.0871H46.7416l6.1518-13.0284c0.1277-0.31,0.4055-0.5086,0.7113-0.5086H68" fill="#FFFFFF"/>
    <path d="M32,29.3608c0,0,13.4044,6.7981,15.6724,22.2469c0.0637,0.4344,0.4686,0.7673,0.9515,0.7673H68V29.3608" fill="#3F3F3F"/>
    <path d="M63.146,11.5501V5.8734C63.146,5.391,63.4699,5,63.8695,5h2.261c0.3996,0,0.7235,0.391,0.7235,0.8734 v5.6767H63.146z" fill="#3F3F3F"/>
    <path d="M32,29.3608c0,0,10.4044,6.7981,12.6724,22.2469c0.0637,0.4344,0.4686,0.7673,0.9515,0.7673H67" fill="#3F3F3F"/>
    <path d="M67,25.625H32.9622C32.4308,25.625,32,26.016,32,26.4984v2.4004h35" fill="#EA5A47"/>
    <path d="M67,26.0871H45.7416l7.1518-14.0284c0.1277-0.31,0.4055-0.5086,0.7113-0.5086H68" fill="none"/>
    <line fill="none" x1="4" x2="4" y1="68" y2="48.2353"/>
    <line fill="none" x1="69" x2="68" y1="48.2353" y2="68"/>
    <path d="M68,47v21H4V47h1c3,0,9,3,15,3s10-3,16-3s11,3,16,3s7-3,15-3H68z" fill="#92D3F5"/>
  </g>
  <g id="line">
    <path d="M63.146,11.5501V5.8734C63.146,5.391,63.4699,5,63.8695,5h2.261c0.3996,0,0.7235,0.391,0.7235,0.8734v5.6767H63.146z" fill="none" stroke="#000000" stroke-linecap="round" stroke-linejoin="round" stroke-miterlimit="10" stroke-width="2"/>
    <line fill="none" stroke="#000000" stroke-linecap="round" stroke-linejoin="round" stroke-miterlimit="10" stroke-width="2" x1="53.7229" x2="64.3773" y1="16.3536" y2="16.3536"/>
    <line fill="none" stroke="#000000" stroke-linecap="round" stroke-linejoin="round" stroke-miterlimit="10" stroke-width="2" x1="51.5349" x2="64.3773" y1="20.4474" y2="20.4474"/>
    <path d="M32,29.3608c0,0,8.8829,5.804,12.0224,18.8735" fill="none" stroke="#000000" stroke-linecap="round" stroke-linejoin="round" stroke-miterlimit="10" stroke-width="2"/>
    <line fill="none" stroke="#000000" stroke-linecap="round" stroke-linejoin="round" stroke-miterlimit="10" stroke-width="2" x1="53.7229" x2="64.3773" y1="16.3536" y2="16.3536"/>
    <line fill="none" stroke="#000000" stroke-linecap="round" stroke-linejoin="round" stroke-miterlimit="10" stroke-width="2" x1="51.5349" x2="64.3773" y1="20.4474" y2="20.4474"/>
    <path d="M67,25.625H32.9622C32.4308,25.625,32,26.016,32,26.4984v2.4004h35" fill="none" stroke="#000000" stroke-linecap="round" stroke-linejoin="round" stroke-miterlimit="10" stroke-width="2"/>
    <path d="M66,25.625H45.7416l7.1518-13.5663c0.1277-0.31,0.4055-0.5086,0.7113-0.5086H67" fill="none" stroke="#000000" stroke-linecap="round" stroke-linejoin="round" stroke-miterlimit="10" stroke-width="2"/>
    <line fill="none" stroke="#000000" stroke-linecap="round" stroke-linejoin="round" stroke-miterlimit="10" stroke-width="2" x1="53.7229" x2="64.3773" y1="16.3536" y2="16.3536"/>
    <line fill="none" stroke="#000000" stroke-linecap="round" stroke-linejoin="round" stroke-miterlimit="10" stroke-width="2" x1="51.5349" x2="64.3773" y1="20.4474" y2="20.4474"/>
    <line fill="none" stroke="#000000" stroke-linecap="round" stroke-linejoin="round" stroke-miterlimit="10" stroke-width="2" x1="53.7229" x2="64.3773" y1="16.3536" y2="16.3536"/>
    <line fill="none" stroke="#000000" stroke-linecap="round" stroke-linejoin="round" stroke-miterlimit="10" stroke-width="2" x1="51.5349" x2="64.3773" y1="20.4474" y2="20.4474"/>
    <path d="M5,47c3,0,9,3,15,3s10-3,16-3s11,3,16,3s7-3,15-3" fill="none" stroke="#000000" stroke-linecap="round" stroke-linejoin="round" stroke-miterlimit="10" stroke-width="2"/>
  </g>
</svg>