<svg viewBox="9 9 54 54" xmlns="http://www.w3.org/2000/svg">
  <defs>
    <linearGradient id="yellow-gradient" x1="0%" x2="0%" y1="0%" y2="100%">
      <stop offset="0%" style="stop-color:#FDE02F;stop-opacity:1;"/>
      <stop offset="100%" style="stop-color:#F7B209;stop-opacity:1;"/>
    </linearGradient>
  </defs>
  <g id="color">
    <path d="M54.09,46.91h-36c-3.85,0-7-3.15-7-7v-8c0-3.85,3.15-7,7-7h36 c3.85,0,7,3.15,7,7v8C61.09,43.76,57.94,46.91,54.09,46.91z" fill="#d0cfce" stroke="none" stroke-miterlimit="10"/>
    <circle cx="21.6177" cy="35.91" fill="#b1cc33" r="5.0001" stroke="none" stroke-miterlimit="10"/>
    <circle cx="35.6177" cy="35.91" fill="#f4aa41" r="5.0001" stroke="none" stroke-miterlimit="10"/>
    <circle cx="50.6177" cy="35.91" fill="#ea5a47" r="5.0001" stroke="none" stroke-miterlimit="10"/>
  </g>
  <g id="line">
    <path d="M54.09,46.91h-36c-3.85,0-7-3.15-7-7v-8c0-3.85,3.15-7,7-7h36 c3.85,0,7,3.15,7,7v8C61.09,43.76,57.94,46.91,54.09,46.91z" fill="none" stroke="#000000" stroke-miterlimit="10"/>
    <circle cx="21.6177" cy="35.91" fill="none" r="5.0001" stroke="#000000" stroke-miterlimit="10"/>
    <circle cx="35.6177" cy="35.91" fill="none" r="5.0001" stroke="#000000" stroke-miterlimit="10"/>
    <circle cx="50.6177" cy="35.91" fill="none" r="5.0001" stroke="#000000" stroke-miterlimit="10"/>
    <path d="M53.91,46.91h-36c-3.85,0-7-3.15-7-7v-8c0-3.85,3.15-7,7-7h36c3.85,0,7,3.15,7,7v8C60.91,43.76,57.76,46.91,53.91,46.91z" fill="none" stroke="#000000" stroke-linecap="round" stroke-linejoin="round" stroke-miterlimit="10" stroke-width="2"/>
    <circle cx="21.4377" cy="35.91" fill="none" r="5.0001" stroke="#000000" stroke-linecap="round" stroke-linejoin="round" stroke-miterlimit="10" stroke-width="2"/>
    <circle cx="35.4377" cy="35.91" fill="none" r="5.0001" stroke="#000000" stroke-linecap="round" stroke-linejoin="round" stroke-miterlimit="10" stroke-width="2"/>
    <circle cx="50.4377" cy="35.91" fill="none" r="5.0001" stroke="#000000" stroke-linecap="round" stroke-linejoin="round" stroke-miterlimit="10" stroke-width="2"/>
  </g>
</svg>