<svg viewBox="0 0 72 72" xmlns="http://www.w3.org/2000/svg">
  <defs>
    <linearGradient id="yellow-gradient" x1="0%" x2="0%" y1="0%" y2="100%">
      <stop offset="0%" style="stop-color:#FDE02F;stop-opacity:1;"/>
      <stop offset="100%" style="stop-color:#F7B209;stop-opacity:1;"/>
    </linearGradient>
  </defs>
  <g id="color">
    <polygon fill="#D0CFCE" points="58,48 66,39.7002 44,39 33,39 6,40.2998 12,48 18,50.167 26.833,48.75 36,47 43.167,48.167 52,50" stroke="none"/>
    <path d="M67.958,46.958C59.958,46.958,57,50,52,50s-10-3-16-3s-10,3-16,3S7,47,4,47c0,0,0,10.916,0,12.666 C4,61.082,5.4189,68,11,68c5.6689,0,19.0635,0,24.9795,0c3.083,0,20.1035,0,26.1035,0c5.832,0,5.876-5.834,5.876-10.5215 C67.959,54.8125,67.958,46.958,67.958,46.958z" fill="#92D3F5" stroke="none"/>
    <path d="M25,49c0,0,3.0557-2.1807,4-3c2.1367-1.8535,5-2,5-2l13-11l0.75-0.666c0,0,0.916,1.582,0.582,2.249 S42.25,39.75,42.25,39.75l-6.334,5.583l0.251,2.084l-9.334,1.333L25,49z" fill="#A57939" stroke="none"/>
  </g>
  <g id="skin">
    <circle cx="35" cy="23" fill="#6a462f" r="3" stroke="#6a462f"/>
    <path d="M47,33c-4-1-11.0996-3.2002-15-4c-5-1-10,11-10,11h8l4.5039-7.791l10.166,2.166" fill="#6a462f" stroke="#6a462f"/>
  </g>
  <g id="line">
    <polyline fill="none" points="12,48 6,40.2998 33,40" stroke="#000000" stroke-linecap="round" stroke-linejoin="round" stroke-miterlimit="10" stroke-width="2"/>
    <circle cx="35" cy="23" fill="none" r="3" stroke="#000000" stroke-linecap="round" stroke-linejoin="round" stroke-miterlimit="10" stroke-width="2"/>
    <path d="M47,33c-4-1-11.0996-3.2002-15-4c-5-1-10,11-10,11" fill="none" stroke="#000000" stroke-linecap="round" stroke-linejoin="round" stroke-miterlimit="10" stroke-width="2"/>
    <line fill="none" stroke="#000000" stroke-linecap="round" stroke-linejoin="round" stroke-miterlimit="10" stroke-width="2" x1="30" x2="34" y1="40" y2="33"/>
    <path d="M5,47c3,0,9,3,15,3s10-3,16-3s11,3,16,3s7-3,15-3" fill="none" stroke="#000000" stroke-linecap="round" stroke-linejoin="round" stroke-miterlimit="10" stroke-width="2"/>
    <path d="M25,49c0,0,3.0557-2.1807,4-3c2.1367-1.8535,5-2,5-2l13-11" fill="none" stroke="#000000" stroke-linecap="round" stroke-linejoin="round" stroke-miterlimit="10" stroke-width="2"/>
    <polyline fill="none" points="56.9775,49 66,39.7002 44,40" stroke="#000000" stroke-linecap="round" stroke-linejoin="round" stroke-miterlimit="10" stroke-width="2"/>
  </g>
</svg>