<svg viewBox="9 9 54 54" xmlns="http://www.w3.org/2000/svg">
  <defs>
    <linearGradient id="yellow-gradient" x1="0%" x2="0%" y1="0%" y2="100%">
      <stop offset="0%" style="stop-color:#FDE02F;stop-opacity:1;"/>
      <stop offset="100%" style="stop-color:#F7B209;stop-opacity:1;"/>
    </linearGradient>
  </defs>
  <g id="line-supplement">
    <path d="M50.0852,41.7317c-0.8686,0.7704-2.0115,1.2382-3.2639,1.2382l0,0c-2.7175,0-4.9206-2.203-4.9206-4.9206v-3.9364v3.9364v-3.9364 c0-2.7176,2.2031-4.9206,4.9206-4.9206l0,0c1.2524,0,2.3953,0.4679,3.2639,1.2384" fill="none" stroke="#000000" stroke-linecap="round" stroke-linejoin="round" stroke-miterlimit="10" stroke-width="2"/>
    <polyline fill="none" points="37.6606,29.1923 33.7242,42.9699 29.7877,29.1923 25.8512,42.9699 21.9148,29.1923" stroke="#000000" stroke-linecap="round" stroke-linejoin="round" stroke-miterlimit="10" stroke-width="2"/>
  </g>
  <g id="color">
    <path d="M60,61H12c-0.5523,0-1-0.4477-1-1V12c0-0.5523,0.4477-1,1-1h48c0.5523,0,1,0.4477,1,1v48 C61,60.5523,60.5523,61,60,61z" fill="#61B2E4"/>
    <path d="M50.0852,41.7317c-0.8686,0.7704-2.0115,1.2382-3.2639,1.2382l0,0c-2.7175,0-4.9206-2.203-4.9206-4.9206v-3.9364v3.9364v-3.9364 c0-2.7176,2.2031-4.9206,4.9206-4.9206l0,0c1.2524,0,2.3953,0.4679,3.2639,1.2384" fill="none" stroke="#FFFFFF" stroke-linecap="round" stroke-linejoin="round" stroke-miterlimit="10" stroke-width="2"/>
    <polyline fill="none" points="37.6606,29.1923 33.7242,42.9699 29.7877,29.1923 25.8512,42.9699 21.9148,29.1923" stroke="#FFFFFF" stroke-linecap="round" stroke-linejoin="round" stroke-miterlimit="10" stroke-width="2"/>
  </g>
  <g id="line">
    <path d="M60,61H12c-0.5523,0-1-0.4477-1-1V12c0-0.5523,0.4477-1,1-1h48c0.5523,0,1,0.4477,1,1v48C61,60.5523,60.5523,61,60,61z" fill="none" stroke="#000000" stroke-linecap="round" stroke-linejoin="round" stroke-miterlimit="10" stroke-width="2"/>
  </g>
</svg>