<svg viewBox="11 11 50 50" xmlns="http://www.w3.org/2000/svg">
  <defs>
    <linearGradient id="yellow-gradient" x1="0%" x2="0%" y1="0%" y2="100%">
      <stop offset="0%" style="stop-color:#FDE02F;stop-opacity:1;"/>
      <stop offset="100%" style="stop-color:#F7B209;stop-opacity:1;"/>
    </linearGradient>
  </defs>
  <g id="color">
    <rect fill="#D0CFCE" height="30.9" stroke="none" width="11.3187" x="35.264" y="29.2096"/>
    <rect fill="#9B9B9A" height="7.2501" stroke="none" width="11.3187" x="29.9925" y="29.2096"/>
    <path d="M14.7762,36c-0.2747-6.5184,0.5759-5.8923,0.5759-5.8923l22.9394-0.0462l-0.0012,3.538 C38.2899,34.9256,37.8453,36,37.2971,36H14.7762z" fill="#9B9B9A" stroke="none"/>
    <path d="M42.0698,59.2955 h6.9469c-2.6901-9.2639-1.7826-17.3885-1.7826-17.3885s0.1739-4.8033,3.4783-5.8033c0,0,3.7391-1.087,5-1.8261V16.893H42.1083 v14.1367L42.0698,59.2955z" fill="#D0CFCE" stroke="#D0CFCE" stroke-linejoin="round" stroke-miterlimit="10" stroke-width="2"/>
    <path d="M15.661,35.5399c0,0-0.201,5.0192,4.9803,8.9725l2.9011,1.7458c0,0-0.8331,7.4562-0.9581,11.4135 c0,0,0.0723,1.5872,3.2907,1.7079h9.6223c0,0,1.9343,0.0514,2.4769-1.4407V46.0925c0,0,2.8109-2.3107,3.4363-3.3459 c0,0,2.8044-3.9765,1.6135-7.0315c0,0-0.93-0.1194-4.1375-0.1263l-18.8161-0.0401L15.661,35.5399z" fill="#D0CFCE" stroke="none"/>
  </g>
  <g id="line">
    <path d="M15.661,35.5399c0,0-0.201,5.0192,4.9803,8.9725l2.9011,1.7458c0,0-0.9857,7.4544-0.9581,11.4135 c0.0065,0.9269,0.0723,1.5872,3.2907,1.7079h9.6223c0,0,2.4297,0.1463,2.4769-1.4407c0.0894-3.0038,0-11.8463,0-11.8463 s2.8109-2.3107,3.4363-3.3459c0,0,2.8044-3.9765,1.6135-7.0315c0,0-0.93-0.1194-4.1375-0.1263l-18.8161-0.0401L15.661,35.5399z" fill="none" stroke="#000000" stroke-linecap="round" stroke-linejoin="round" stroke-miterlimit="10" stroke-width="2"/>
    <path d="M38.1354,30.0615H16.4951c0,0-0.9323,0.0764-0.8214,1.6588" fill="none" stroke="#000000" stroke-linecap="round" stroke-linejoin="round" stroke-miterlimit="10" stroke-width="2"/>
    <path d="M42.0698,59.2955h6.9469c-2.6901-9.2639-1.7826-17.3885-1.7826-17.3885s0.1739-4.8033,3.4783-5.8033c0,0,3.7391-1.087,5-1.8261 V16.893H42.1083v14.1367" fill="none" stroke="#000000" stroke-linecap="round" stroke-linejoin="round" stroke-miterlimit="10" stroke-width="2"/>
    <line fill="none" stroke="#000000" stroke-linecap="round" stroke-linejoin="round" stroke-miterlimit="10" stroke-width="2" x1="42" x2="55.9655" y1="12.875" y2="12.875"/>
  </g>
</svg>