<svg viewBox="4 4 64 64" xmlns="http://www.w3.org/2000/svg">
  <defs>
    <linearGradient id="yellow-gradient" x1="0%" x2="0%" y1="0%" y2="100%">
      <stop offset="0%" style="stop-color:#FDE02F;stop-opacity:1;"/>
      <stop offset="100%" style="stop-color:#F7B209;stop-opacity:1;"/>
    </linearGradient>
  </defs>
  <g id="color">
    <circle cx="36" cy="36" fill="#fff" r="26"/>
    <path d="m36 7c-16.02 0-29 12.98-29 29s12.98 29 29 29 29-12.98 29-29-12.98-29-29-29zm-25.21 29.27c0-5.075 3.417-12.69 6.202-16.49l35.2 35.27c-3.805 2.784-10.93 5.904-16.01 5.904-12.7 0-25.39-11.98-25.39-24.68zm44.87 15.18-35.06-35.13c3.805-2.784 10.77-5.441 15.84-5.441 12.7 0 24.68 12.25 24.68 24.95 0 5.075-2.686 11.81-5.47 15.62z" fill="#ea5a47" stroke-miterlimit="10"/>
  </g>
  <g id="line">
    <circle cx="36" cy="36" fill="none" r="30" stroke="#000" stroke-linecap="round" stroke-linejoin="round" stroke-width="2"/>
    <path d="m55.66 51.44a24.99 24.99 0 0 0-35.06-35.13z" fill="none" stroke="#000" stroke-linecap="round" stroke-linejoin="round" stroke-width="2"/>
    <path d="m16.99 19.77a24.99 24.99 0 0 0 35.2 35.27z" fill="none" stroke="#000" stroke-linecap="round" stroke-linejoin="round" stroke-width="2"/>
    <g stroke-width="2.727" transform="matrix(.7371 0 0 .7297 8.857 6.124)">
      <path d="m42 25.7h6" fill="none" stroke="#000" stroke-linecap="round" stroke-linejoin="round" stroke-width="2.727"/>
    </g>
    <path d="m24.41 39.69 1.754-5.673" fill="none" stroke="#000" stroke-linecap="round" stroke-linejoin="round" stroke-width="2"/>
    <path d="m41.42 28.01 4.703 9.462" fill="none" stroke="#000" stroke-linecap="round" stroke-linejoin="round" stroke-width="2"/>
    <path d="m36.74 28.01h4.683" fill="none" stroke="#000" stroke-linecap="round" stroke-linejoin="round" stroke-width="2"/>
    <path d="m43.64 24.88-3.986 6.085" fill="none" stroke="#000" stroke-linecap="round" stroke-linejoin="round" stroke-width="2"/>
    <path d="m42.47 33.92a7.439 7.439 0 0 1 9.826 0.3072 7.439 7.439 0 0 1 0.9408 9.786" fill="none" paint-order="normal" stroke="#000" stroke-linecap="round" stroke-linejoin="round" stroke-width="2"/>
    <path d="m31.93 39.69a7.439 7.439 0 0 1-7.429 7.439 7.439 7.439 0 0 1-7.449-7.419 7.439 7.439 0 0 1 7.409-7.459" fill="none" paint-order="normal" stroke="#000" stroke-linecap="round" stroke-linejoin="round" stroke-width="2"/>
  </g>
</svg>