<svg viewBox="0 0 72 72" xmlns="http://www.w3.org/2000/svg">
  <defs>
    <linearGradient id="yellow-gradient" x1="0%" x2="0%" y1="0%" y2="100%">
      <stop offset="0%" style="stop-color:#FDE02F;stop-opacity:1;"/>
      <stop offset="100%" style="stop-color:#F7B209;stop-opacity:1;"/>
    </linearGradient>
  </defs>
  <g id="color">
    <rect fill="#a57939" height="6.5" width="62" x="5" y="42.5"/>
    <path d="m5 42v-4c0-1.65 1.35-3 3-3h56c1.65 0 3 1.35 3 3v4" fill="#d0cfce"/>
    <path d="m5.125 30.44s4.875-3.688 16.88-0.6875v4l-15 1-0.8125 1.25-1.062-1.625-0.125-3.625z" fill="#92d3f5"/>
    <path d="m22 41.6v-12.72s0.2674-3.099 2.535-4.415c2.535-1.472 7.606 0 11.41-1.472 8.606-3.331 19.96 2.94 25.55 6.831 7.497 2.256 5.579 7.111 5.505 12.17" fill="#92d3f5"/>
  </g>
  <g id="skin">
    <path d="m15.08 27.56c-0.0498-0.2168-0.0762-0.4429-0.0762-0.6748 0-1.657 1.344-3 3-3 1.656 0 3 1.343 3 3 0 0.3926-0.0752 0.7676-0.2129 1.111" fill="url(#yellow-gradient)"/>
  </g>
  <g id="line">
    <rect fill="none" height="7" stroke="#000" stroke-linecap="round" stroke-linejoin="round" stroke-miterlimit="10" stroke-width="2" width="62" x="5" y="42"/>
    <path d="m5 40.99v-4c0-1.65 1.35-3 3-3h13.83" fill="none" stroke="#000" stroke-linecap="round" stroke-linejoin="round" stroke-miterlimit="10" stroke-width="2"/>
    <line fill="none" stroke="#000" stroke-linecap="round" stroke-linejoin="round" stroke-miterlimit="10" stroke-width="2" x1="5" x2="5" y1="55.03" y2="16.97"/>
    <line fill="none" stroke="#000" stroke-linecap="round" stroke-linejoin="round" stroke-miterlimit="10" stroke-width="2" x1="67" x2="67" y1="27.04" y2="55.04"/>
    <path d="m15.08 27.66c-0.0498-0.2168-0.0762-0.4429-0.0762-0.6748 0-1.657 1.344-3 3-3 1.656 0 3 1.343 3 3 0 0.3926-0.0752 0.7676-0.2129 1.111" fill="none" stroke="#000" stroke-linecap="round" stroke-linejoin="round" stroke-miterlimit="10" stroke-width="2"/>
    <path d="m22 41.99v-14s0.2109-2.106 2-3c2-1 9.301-0.959 12.3-1.959 6.789-2.263 18.59 3.356 23 6 5 3 7.699 1.813 7.699 4.959" fill="none" stroke="#000" stroke-linecap="round" stroke-linejoin="round" stroke-miterlimit="10" stroke-width="2"/>
    <path d="m5.042 29.9c1.854-1.855 9.25-3.042 15.96-0.9175" fill="none" stroke="#000" stroke-linecap="round" stroke-linejoin="round" stroke-miterlimit="10" stroke-width="2"/>
  </g>
</svg>