<svg viewBox="10 10 52 52" xmlns="http://www.w3.org/2000/svg">
  <defs>
    <linearGradient id="yellow-gradient" x1="0%" x2="0%" y1="0%" y2="100%">
      <stop offset="0%" style="stop-color:#FDE02F;stop-opacity:1;"/>
      <stop offset="100%" style="stop-color:#F7B209;stop-opacity:1;"/>
    </linearGradient>
  </defs>
  <g id="color">
    <rect fill="#b1cc33" height="38.83" width="50" x="11" y="17.17"/>
    <polygon fill="#6a462f" points="26.564 17.552 16 43.649 11 56 15.989 56 55.978 56 61 56 56 43.649 45.436 17.552 26.564 17.552"/>
    <polygon fill="#a57939" points="16 54.941 18.075 49.653 53.925 49.653 56 54.941 16 54.941"/>
    <polygon fill="#a57939" points="19.174 46.852 52.826 46.852 50.829 41.761 21.171 41.761 19.174 46.852"/>
    <polygon fill="#a57939" points="22.199 38.939 49.801 38.939 47.836 33.93 24.164 33.93 22.199 38.939"/>
    <polygon fill="#a57939" points="25.351 31.108 46.649 31.108 44.586 25.848 27.414 25.848 25.351 31.108"/>
    <polygon fill="#a57939" points="28.509 23.059 43.491 23.059 41.512 18.682 30.046 18.682 28.509 23.059"/>
  </g>
  <g id="line">
    <line fill="none" stroke="#000" stroke-linecap="round" stroke-linejoin="round" stroke-width="2" x1="12.2327" x2="59.9349" y1="17.17" y2="17.17"/>
    <polygon fill="none" points="16 54.941 18.075 49.653 53.925 49.653 56 54.941 16 54.941" stroke="#000" stroke-linecap="round" stroke-linejoin="round" stroke-width="2"/>
    <polygon fill="none" points="19.174 46.852 52.826 46.852 50.829 41.761 21.171 41.761 19.174 46.852" stroke="#000" stroke-linecap="round" stroke-linejoin="round" stroke-width="2"/>
    <polygon fill="none" points="22.199 38.939 49.801 38.939 47.836 33.93 24.164 33.93 22.199 38.939" stroke="#000" stroke-linecap="round" stroke-linejoin="round" stroke-width="2"/>
    <polygon fill="none" points="25.351 31.108 46.649 31.108 44.586 25.848 27.414 25.848 25.351 31.108" stroke="#000" stroke-linecap="round" stroke-linejoin="round" stroke-width="2"/>
    <polygon fill="none" points="28.509 23.059 43.491 23.059 41.512 18.682 30.046 18.682 28.509 23.059" stroke="#000" stroke-linecap="round" stroke-linejoin="round" stroke-width="2"/>
    <line fill="none" stroke="#000" stroke-linecap="round" stroke-linejoin="round" stroke-width="2" x1="23.1988" x2="32.8913" y1="54.5256" y2="18.7251"/>
    <line fill="none" stroke="#000" stroke-linecap="round" stroke-linejoin="round" stroke-width="2" x1="48.8012" x2="39.1087" y1="54.5256" y2="18.7251"/>
  </g>
</svg>