<svg viewBox="9 9 54 54" xmlns="http://www.w3.org/2000/svg">
  <defs>
    <linearGradient id="yellow-gradient" x1="0%" x2="0%" y1="0%" y2="100%">
      <stop offset="0%" style="stop-color:#FDE02F;stop-opacity:1;"/>
      <stop offset="100%" style="stop-color:#F7B209;stop-opacity:1;"/>
    </linearGradient>
  </defs>
  <g id="color">
    <circle cx="18.8248" cy="55.0572" fill="#D0CFCE" r="5.0001"/>
    <circle cx="55.3418" cy="55.0572" fill="#D0CFCE" r="5.0001"/>
    <path d="M27.7376,52.0572h22.6042v0.5833c0,1.6568-1.2226,3-2.7307,3H30.4683c-1.5081,0-2.7307-1.3432-2.7307-3 V52.0572z" fill="#EA5A47"/>
    <path d="M28.1981,17.3755l-1.0583-0.2316c-0.5395-0.118-0.8812-0.6511-0.7631-1.1906l0.4453-2.0352 c0.118-0.5395,0.6511-0.8812,1.1906-0.7631l1.0583,0.2315c0.5395,0.1181,0.8812,0.6511,0.7631,1.1907l-0.4453,2.0351 C29.2707,17.1519,28.7376,17.4935,28.1981,17.3755z" fill="#D0CFCE"/>
    <path d="M41.0482,15.8642l-0.2506,1.3235c-0.0974,0.5142-0.5977,0.8553-1.1119,0.7579l-4.132-0.7824 c-0.5141-0.0974-0.8552-0.5978-0.7578-1.1119l0.2506-1.3236c0.0974-0.5141,0.5977-0.8552,1.1119-0.7578l4.132,0.7824 C40.8046,14.8497,41.1456,15.3501,41.0482,15.8642z" fill="#EA5A47"/>
    <path d="M21.548,11.9126l-0.2511,1.3257c-0.0972,0.5136-0.597,0.8542-1.1106,0.757l-4.12-0.7802 c-0.5136-0.0973-0.8542-0.597-0.7569-1.1106l0.251-1.3257c0.0972-0.5136,0.597-0.8542,1.1106-0.757l4.12,0.7802 C21.3046,10.8993,21.6452,11.399,21.548,11.9126z" fill="#EA5A47"/>
  </g>
  <g id="line">
    <line fill="none" stroke="#000000" stroke-linecap="round" stroke-linejoin="round" stroke-miterlimit="10" stroke-width="2" x1="29.9153" x2="34.7793" y1="14.2621" y2="15.2164"/>
    <line fill="none" stroke="#000000" stroke-linecap="round" stroke-linejoin="round" stroke-miterlimit="10" stroke-width="2" x1="21.9031" x2="26.833" y1="12.6902" y2="13.6574"/>
    <circle cx="18.8248" cy="55.0572" fill="none" r="5.0001" stroke="#000000" stroke-miterlimit="10" stroke-width="2"/>
    <circle cx="55.3418" cy="55.0572" fill="none" r="5.0001" stroke="#000000" stroke-miterlimit="10" stroke-width="2"/>
    <polyline fill="none" points="27.5292,17.3183 20.4161,48.1583 18.8249,55.0572" stroke="#000000" stroke-linecap="round" stroke-linejoin="round" stroke-miterlimit="10" stroke-width="2"/>
    <path d="M27.7376,52.0572h22.6042v0.5833c0,1.6568-1.2226,3-2.7307,3H30.4683c-1.5081,0-2.7307-1.3432-2.7307-3V52.0572z" fill="none" stroke="#000000" stroke-linecap="round" stroke-linejoin="round" stroke-miterlimit="10" stroke-width="1.9081"/>
    <path d="M29.8508,14.2491c0.0123,0.1067,0.0074,0.2173-0.0168,0.3281l-0.4453,2.0351c-0.118,0.5396-0.6511,0.8812-1.1906,0.7632 l-1.0583-0.2316c-0.5395-0.118-0.8812-0.6511-0.7631-1.1906l0.4453-2.0352c0.0191-0.0875,0.0492-0.1698,0.0885-0.2458" fill="none" stroke="#000000" stroke-linecap="round" stroke-linejoin="round" stroke-miterlimit="10" stroke-width="2"/>
    <path d="M26.9105,13.6723c0.2027-0.3924,0.6502-0.6162,1.1021-0.5173l1.0583,0.2315c0.4287,0.0938,0.7325,0.4497,0.7799,0.8626" fill="none" stroke="#000000" stroke-linecap="round" stroke-linejoin="round" stroke-miterlimit="10" stroke-width="2"/>
    <line fill="none" stroke="#000000" stroke-linecap="round" stroke-linejoin="round" stroke-miterlimit="10" stroke-width="2" x1="22.6543" x2="27.7376" y1="39.9167" y2="52.0572"/>
    <path d="M41.0482,15.8642l-0.2506,1.3235c-0.0974,0.5142-0.5977,0.8553-1.1119,0.7579l-4.132-0.7824 c-0.5141-0.0974-0.8552-0.5978-0.7578-1.1119l0.2506-1.3236c0.0974-0.5141,0.5977-0.8552,1.1119-0.7578l4.132,0.7824 C40.8046,14.8497,41.1456,15.3501,41.0482,15.8642z" fill="none" stroke="#000000" stroke-linecap="round" stroke-linejoin="round" stroke-miterlimit="10" stroke-width="1.9081"/>
    <path d="M21.548,11.9126l-0.2511,1.3257c-0.0972,0.5136-0.597,0.8542-1.1106,0.757l-4.12-0.7802c-0.5136-0.0973-0.8542-0.597-0.7569-1.1106 l0.251-1.3257c0.0972-0.5136,0.597-0.8542,1.1106-0.757l4.12,0.7802C21.3046,10.8993,21.6452,11.399,21.548,11.9126z" fill="none" stroke="#000000" stroke-linecap="round" stroke-linejoin="round" stroke-miterlimit="10" stroke-width="1.9081"/>
  </g>
</svg>