<svg viewBox="7 7 58 58" xmlns="http://www.w3.org/2000/svg">
  <defs>
    <linearGradient id="yellow-gradient" x1="0%" x2="0%" y1="0%" y2="100%">
      <stop offset="0%" style="stop-color:#FDE02F;stop-opacity:1;"/>
      <stop offset="100%" style="stop-color:#F7B209;stop-opacity:1;"/>
    </linearGradient>
  </defs>
  <g id="color">
    <path d="M20.2992,19s-1.1617,18.5109,9.2929,25.5631H19S11.9026,37.4081,20.2992,19Z" fill="#6a462f"/>
    <polygon fill="#6a462f" points="44 38 64.22 38 64.22 43.514 43 43.514 43 38 44 38"/>
    <circle cx="17.0818" cy="49.5632" fill="#d0cfce" r="5.0001"/>
    <circle cx="54.6092" cy="49.5632" fill="#d0cfce" r="5.0001"/>
  </g>
  <g id="line">
    <polyline fill="none" points="23.718 37 27.588 37 28.389 29.575" stroke="#000" stroke-linecap="round" stroke-linejoin="round" stroke-width="2"/>
    <path d="M64.22,44.5631H19L17.4022,41.6A11.7019,11.7019,0,0,1,16,36.0458v-.7653A13.8765,13.8765,0,0,1,16.6,30.8L19,22c0-1.4712,1.5288-4,3-4l39.5557.3893A2.6638,2.6638,0,0,1,64.22,21.0531Z" fill="none" stroke="#000" stroke-linecap="round" stroke-linejoin="round" stroke-width="2.0875"/>
    <line fill="none" stroke="#000" stroke-linecap="round" stroke-linejoin="round" stroke-width="2" x1="45.7985" x2="25.2182" y1="48.4706" y2="48.4706"/>
    <circle cx="17.0818" cy="49.5632" fill="none" r="5.0001" stroke="#000" stroke-linecap="round" stroke-linejoin="round" stroke-width="2"/>
    <circle cx="54.6092" cy="49.5632" fill="none" r="5.0001" stroke="#000" stroke-linecap="round" stroke-linejoin="round" stroke-width="2"/>
    <line fill="none" stroke="#000" stroke-linecap="round" stroke-linejoin="round" stroke-width="2.0875" x1="43" x2="43" y1="19" y2="44"/>
    <line fill="none" stroke="#000" stroke-linecap="round" stroke-linejoin="round" stroke-width="2.0875" x1="44" x2="64.2195" y1="35" y2="35"/>
    <polygon fill="none" points="44 38 64.22 38 64.22 43.514 43 43.514 43 38 44 38" stroke="#000" stroke-linecap="round" stroke-linejoin="round" stroke-width="2.0875"/>
    <line fill="none" stroke="#000" stroke-linecap="round" stroke-linejoin="round" stroke-width="2.0875" x1="61" x2="62" y1="37" y2="32"/>
    <path d="M20.2992,19s-1.1617,18.5109,9.2929,25.5631" fill="none" stroke="#000" stroke-linecap="round" stroke-linejoin="round" stroke-width="2"/>
    <line fill="none" stroke="#000" stroke-linecap="round" stroke-linejoin="round" stroke-width="2" x1="25.6419" x2="25.6419" y1="37" y2="39.7847"/>
    <path d="M60.072,44.5631h0a1.0492,1.0492,0,0,1,1.0492-1.0492h4.1967a1.0493,1.0493,0,0,1,1.0492,1.0492h0a1.0492,1.0492,0,0,1-1.0492,1.0492H61.1212A1.0491,1.0491,0,0,1,60.072,44.5631Z"/>
    <path d="M18,42.5319c-2.4819-1.901-4.8514.3691-5,.4681" fill="none" stroke="#000" stroke-linecap="round" stroke-linejoin="round" stroke-width="2"/>
  </g>
</svg>