<svg viewBox="11 11 50 50" xmlns="http://www.w3.org/2000/svg">
  <defs>
    <linearGradient id="yellow-gradient" x1="0%" x2="0%" y1="0%" y2="100%">
      <stop offset="0%" style="stop-color:#FDE02F;stop-opacity:1;"/>
      <stop offset="100%" style="stop-color:#F7B209;stop-opacity:1;"/>
    </linearGradient>
  </defs>
  <g id="color">
    <circle cx="36" cy="36" fill="url(#yellow-gradient)" r="23.8"/>
    <g transform="translate(.3 .5)">
      <path d="m 27.702038,55.459045 c -0.612283,-0.511805 -1.061336,-0.914727 -1.229347,-1.607134 -0.165688,-1.997532 -1.057921,-3.863148 -1.912316,-5.424076 -0.204892,-0.33482 -0.614674,-1.339278 -1.024456,-1.473206 -0.614673,-0.200892 -1.024456,0 -1.16105,0.736603 -0.136594,0.736603 0.409782,2.209809 0.546377,2.611592 -1.609762,-0.839057 -3.121858,-1.812713 -4.371011,-2.745519 -0.819564,-0.468748 -1.502534,-0.267856 -1.84402,0.267854 -0.136594,0.200892 -0.136594,0.33482 -0.204891,0.468748 -1.024455,-0.736602 -1.775723,-0.468748 -2.117208,0 -0.341486,0.401783 -0.341486,1.004459 -0.0683,1.406242 -0.136594,0.06696 -0.273188,0.200892 -0.341485,0.334819 -0.409782,0.669639 -0.204891,1.540171 0.47808,1.941954 0.136593,0.06696 0.341485,0.267856 0.614673,0.401784 -0.06829,0.06696 -0.136594,0.06696 -0.136594,0.133927 -0.341486,0.401784 -0.341486,1.071423 0,1.473207 1.092753,1.874988 6.146733,3.281231 7.854159,3.683014 l 1.229347,1.205351" fill="url(#yellow-gradient)"/>
      <path d="m 47.465469,58.438129 1.184911,-1.184911 c 1.645709,-0.39497 6.517008,-1.843194 7.570262,-3.62056 0.329141,-0.39497 0.329141,-1.053254 -0.06583,-1.382395 -0.06583,-0.06583 -0.06583,-0.131657 -0.131656,-0.131657 0.329141,-0.197485 0.526626,-0.39497 0.592455,-0.39497 0.658283,-0.394971 0.855769,-1.250739 0.460798,-1.909023 -0.06583,-0.131657 -0.197485,-0.263313 -0.329141,-0.329142 0.263313,-0.39497 0.263313,-0.987425 -0.06583,-1.382395 -0.329142,-0.394971 -1.053254,-0.724112 -2.040679,0 0,-0.197486 -0.06583,-0.394971 -0.197485,-0.460799 -0.329142,-0.460799 -0.921597,-0.724112 -1.777366,-0.263313 0,0 -0.06583,0 -0.06583,0.06583 -1.250739,1.053254 -2.698963,1.909022 -4.147187,2.633134 0.330853,-0.846552 1.112499,-3.827261 -0.394971,-3.357246 -0.39497,0.131657 -0.78994,1.119082 -0.987425,1.448224 -1.144097,1.65295 -1.486404,3.434924 -1.843194,5.332097 0.02042,0.708972 -0.708313,1.103284 -1.184911,1.579881" fill="url(#yellow-gradient)"/>
    </g>
  </g>
  <g id="line">
    <path d="M56.2,47C58,43.6,59,39.8,59,36c0-12.7-10.3-23-23-23S13,23.3,13,36c0,3.7,0.9,7.4,2.7,10.7 c0,0.1,0,0.1,0.1,0.2" fill="none" stroke="#000" stroke-linecap="round" stroke-linejoin="round" stroke-width="2"/>
    <path d="m29.6 58.1c2.1 0.6 4.2 0.9 6.4 0.9 2.1 0 4.2-0.3 6.2-0.8" fill="none" stroke="#000" stroke-linecap="round" stroke-linejoin="round" stroke-width="2"/>
    <path d="m45.8 45.2c-5.7 4.7-13.9 4.7-19.6 0" fill="none" stroke="#000" stroke-linecap="round" stroke-linejoin="round" stroke-width="2"/>
    <path d="m31.7 33.4c-1-2.4-3.8-3.5-6.2-2.4-1.1 0.5-1.9 1.3-2.4 2.4" fill="none" stroke="#000" stroke-linecap="round" stroke-miterlimit="10" stroke-width="2"/>
    <path d="m48.9 33.4c-1-2.4-3.8-3.5-6.2-2.4-1.1 0.5-1.9 1.3-2.4 2.4" fill="none" stroke="#000" stroke-linecap="round" stroke-miterlimit="10" stroke-width="2"/>
    <path d="m 27.702038,55.459045 c -0.612283,-0.511805 -1.061336,-0.914727 -1.229347,-1.607134 -0.165688,-1.997532 -1.057921,-3.863148 -1.912316,-5.424076 -0.204892,-0.33482 -0.614674,-1.339278 -1.024456,-1.473206 -0.614673,-0.200892 -1.024456,0 -1.16105,0.736603 -0.136594,0.736603 0.409782,2.209809 0.546377,2.611592 -1.609762,-0.839057 -3.121858,-1.812713 -4.371011,-2.745519 -0.819564,-0.468748 -1.502534,-0.267856 -1.84402,0.267854 -0.136594,0.200892 -0.136594,0.33482 -0.204891,0.468748 -1.024455,-0.736602 -1.775723,-0.468748 -2.117208,0 -0.341486,0.401783 -0.341486,1.004459 -0.0683,1.406242 -0.136594,0.06696 -0.273188,0.200892 -0.341485,0.334819 -0.409782,0.669639 -0.204891,1.540171 0.47808,1.941954 0.136593,0.06696 0.341485,0.267856 0.614673,0.401784 -0.06829,0.06696 -0.136594,0.06696 -0.136594,0.133927 -0.341486,0.401784 -0.341486,1.071423 0,1.473207 1.092753,1.874988 6.146733,3.281231 7.854159,3.683014 l 1.229347,1.205351" fill="none" stroke="#000" stroke-linecap="round" stroke-linejoin="round" stroke-width="2"/>
    <path d="m 47.465469,58.438129 1.184911,-1.184911 c 1.645709,-0.39497 6.517008,-1.843194 7.570262,-3.62056 0.329141,-0.39497 0.329141,-1.053254 -0.06583,-1.382395 -0.06583,-0.06583 -0.06583,-0.131657 -0.131656,-0.131657 0.329141,-0.197485 0.526626,-0.39497 0.592455,-0.39497 0.658283,-0.394971 0.855769,-1.250739 0.460798,-1.909023 -0.06583,-0.131657 -0.197485,-0.263313 -0.329141,-0.329142 0.263313,-0.39497 0.263313,-0.987425 -0.06583,-1.382395 -0.329142,-0.394971 -1.053254,-0.724112 -2.040679,0 0,-0.197486 -0.06583,-0.394971 -0.197485,-0.460799 -0.329142,-0.460799 -0.921597,-0.724112 -1.777366,-0.263313 0,0 -0.06583,0 -0.06583,0.06583 -1.250739,1.053254 -2.698963,1.909022 -4.147187,2.633134 0.330853,-0.846552 1.112499,-3.827261 -0.394971,-3.357246 -0.39497,0.131657 -0.78994,1.119082 -0.987425,1.448224 -1.144097,1.65295 -1.486404,3.434924 -1.843194,5.332097 0.02042,0.708972 -0.708313,1.103284 -1.184911,1.579881" fill="none" stroke="#000" stroke-linecap="round" stroke-linejoin="round" stroke-width="2"/>
  </g>
</svg>