<svg viewBox="10 10 52 52" xmlns="http://www.w3.org/2000/svg">
  <defs>
    <linearGradient id="yellow-gradient" x1="0%" x2="0%" y1="0%" y2="100%">
      <stop offset="0%" style="stop-color:#FDE02F;stop-opacity:1;"/>
      <stop offset="100%" style="stop-color:#F7B209;stop-opacity:1;"/>
    </linearGradient>
  </defs>
  <g id="color">
    <circle cx="36" cy="36" fill="url(#yellow-gradient)" r="24"/>
    <path d="M30.498,53.374c-4.296-1.49-6.4614-4.8011-6.4614-8.6835h.0939s12.1375,3.0627,23.683.066l.1606-.066a8.881,8.881,0,0,1-6.4152,8.6842" fill="#fff"/>
    <path d="M40.5383,49.2888s1.518,8.819-1.0644,10.9394l.0255-.0218a4.8842,4.8842,0,0,1-7.0087,0c-2.5824-2.12-1.0644-10.9394-1.0644-10.9394" fill="#b1cc33"/>
  </g>
  <g id="line">
    <path d="M30.498,53.374c-4.296-1.49-6.4614-4.8011-6.4614-8.6835h.0939s12.1375,3.0627,23.683.066l.1606-.066a8.881,8.881,0,0,1-6.4152,8.6842" fill="none" stroke="#000" stroke-linecap="round" stroke-linejoin="round" stroke-width="2"/>
    <path d="M20.2793,27.2a6.3062,6.3062,0,0,1,3.3907-3,6.3038,6.3038,0,0,1,4.53-.4209" fill="none" stroke="#000" stroke-linecap="round" stroke-linejoin="round" stroke-width="2"/>
    <path d="M50.89,27.2A7.19,7.19,0,0,0,42.9805,23.77" fill="none" stroke="#000" stroke-linecap="round" stroke-linejoin="round" stroke-width="2"/>
    <path d="M44.324,57.4474a23,23,0,1,0-16.5891.0229" fill="none" stroke="#000" stroke-linecap="round" stroke-linejoin="round" stroke-width="2"/>
    <path d="M20.2793,27.2a6.3062,6.3062,0,0,1,3.3907-3,6.3038,6.3038,0,0,1,4.53-.4209" fill="none" stroke="#000" stroke-linecap="round" stroke-linejoin="round" stroke-width="2"/>
    <path d="M50.89,27.2A7.19,7.19,0,0,0,42.9805,23.77" fill="none" stroke="#000" stroke-linecap="round" stroke-linejoin="round" stroke-width="2"/>
    <path d="M40.5383,49.2888s1.518,8.819-1.0644,10.9394l.0255-.0218a4.8842,4.8842,0,0,1-7.0087,0c-2.5824-2.12-1.0644-10.9394-1.0644-10.9394" fill="none" stroke="#000" stroke-linecap="round" stroke-linejoin="round" stroke-width="2"/>
    <path d="M29.23,31.5494a1.9352,1.9352,0,0,0-1.9506-1.2659h0a1.8234,1.8234,0,0,0-1.9911,1.5854,1.8233,1.8233,0,0,0,1.9911,1.5854l-.04.0059A1.8234,1.8234,0,0,1,29.23,35.0456a1.8233,1.8233,0,0,1-1.9911,1.5854h0a1.9353,1.9353,0,0,1-1.9507-1.2659" fill="none" stroke="#000" stroke-linecap="round" stroke-linejoin="round" stroke-width="2"/>
    <line fill="none" stroke="#000" stroke-linecap="round" stroke-linejoin="round" stroke-width="2" x1="27.2589" x2="27.2589" y1="30.2835" y2="28.7721"/>
    <line fill="none" stroke="#000" stroke-linecap="round" stroke-linejoin="round" stroke-width="2" x1="27.2589" x2="27.2589" y1="38.1424" y2="36.631"/>
    <path d="M46.2668,31.5494a1.9352,1.9352,0,0,0-1.9506-1.2659h0a1.8234,1.8234,0,0,0-1.9911,1.5854,1.8233,1.8233,0,0,0,1.9911,1.5854l-.04.0059a1.8234,1.8234,0,0,1,1.9911,1.5854,1.8233,1.8233,0,0,1-1.9911,1.5854h0a1.9353,1.9353,0,0,1-1.9507-1.2659" fill="none" stroke="#000" stroke-linecap="round" stroke-linejoin="round" stroke-width="2"/>
    <line fill="none" stroke="#000" stroke-linecap="round" stroke-linejoin="round" stroke-width="2" x1="44.2959" x2="44.2959" y1="30.2835" y2="28.7721"/>
    <line fill="none" stroke="#000" stroke-linecap="round" stroke-linejoin="round" stroke-width="2" x1="44.2959" x2="44.2959" y1="38.1424" y2="36.631"/>
    <path d="M37.8973,53.146A1.9352,1.9352,0,0,0,35.9467,51.88h0a1.6267,1.6267,0,1,0,0,3.1708l-.04.0059a1.6267,1.6267,0,1,1,0,3.1708h0a1.9353,1.9353,0,0,1-1.9507-1.2659" fill="none" stroke="#000" stroke-linecap="round" stroke-linejoin="round" stroke-width="2"/>
    <line fill="none" stroke="#000" stroke-linecap="round" stroke-linejoin="round" stroke-width="2" x1="35.9264" x2="35.9264" y1="51.8801" y2="50.3686"/>
    <line fill="none" stroke="#000" stroke-linecap="round" stroke-linejoin="round" stroke-width="2" x1="35.9264" x2="35.9264" y1="59.739" y2="58.2276"/>
  </g>
</svg>