<svg viewBox="11 11 50 50" xmlns="http://www.w3.org/2000/svg">
  <defs>
    <linearGradient id="yellow-gradient" x1="0%" x2="0%" y1="0%" y2="100%">
      <stop offset="0%" style="stop-color:#FDE02F;stop-opacity:1;"/>
      <stop offset="100%" style="stop-color:#F7B209;stop-opacity:1;"/>
    </linearGradient>
  </defs>
  <g id="color">
    <path d="M36,13c-12.6823,0-23,10.3177-23,23s10.3177,23,23,23s23-10.3178,23-23C59.0001,23.3177,48.6823,13,36,13z" fill="url(#yellow-gradient)"/>
  </g>
  <g id="line">
    <circle cx="36" cy="36" fill="none" r="23" stroke="#000000" stroke-linecap="round" stroke-linejoin="round" stroke-width="2"/>
    <path d="M23.0708,27.7432c0.4132-0.344,2.2456-1.7915,4.9091-1.6364c2.1608,0.1259,3.61,1.2333,4.0909,1.6364" fill="none" stroke="#000000" stroke-linecap="round" stroke-linejoin="round" stroke-miterlimit="10" stroke-width="2"/>
    <path d="M48.9292,27.0952c-0.4132,0.344-2.2456,1.7915-4.9091,1.6364c-2.1608-0.1259-3.61-1.2333-4.0909-1.6364" fill="none" stroke="#000000" stroke-linecap="round" stroke-linejoin="round" stroke-miterlimit="10" stroke-width="2"/>
    <path d="M30,35c0,1.6568-1.3448,3-3,3c-1.6553,0-3-1.3433-3-3c0-1.6552,1.3447-3,3-3C28.6552,32,30,33.3448,30,35"/>
    <path d="M48,35c0,1.6568-1.3447,3-3,3s-3-1.3433-3-3c0-1.6552,1.3447-3,3-3S48,33.3448,48,35"/>
    <path d="M29.1321,47.1385 c4.6002-1.4165,9.8284-1.4698,13.7359,0" fill="none" stroke="#000000" stroke-linecap="round" stroke-linejoin="round" stroke-width="2"/>
  </g>
</svg>