<svg viewBox="11 11 50 50" xmlns="http://www.w3.org/2000/svg">
  <defs>
    <linearGradient id="yellow-gradient" x1="0%" x2="0%" y1="0%" y2="100%">
      <stop offset="0%" style="stop-color:#FDE02F;stop-opacity:1;"/>
      <stop offset="100%" style="stop-color:#F7B209;stop-opacity:1;"/>
    </linearGradient>
  </defs>
  <g id="color">
    <circle cx="36.0027" cy="36" fill="#B1CC33" r="23"/>
  </g>
  <g id="line">
    <path d="M27.2671,22.3665c-0.2383,1.5436-1.039,2.9427-2.2496,3.9289c-1.1065,1.1138-2.5889,1.7724-4.156,1.8514" fill="none" stroke="#000000" stroke-linecap="round" stroke-linejoin="round" stroke-miterlimit="10" stroke-width="2"/>
    <path d="M44.7329,22.3665c0.2383,1.5436,1.039,2.9427,2.2496,3.9289c1.1065,1.1138,2.5889,1.7724,4.156,1.8514" fill="none" stroke="#000000" stroke-linecap="round" stroke-linejoin="round" stroke-miterlimit="10" stroke-width="2"/>
    <circle cx="36.0027" cy="36" fill="none" r="23" stroke="#000000" stroke-linecap="round" stroke-linejoin="round" stroke-miterlimit="10" stroke-width="2"/>
    <path d="M30.0432,46.0186c1.2832-0.8191,3.8698-1.0381,5.9568-1.0381s4.6737,0.219,5.9568,1.0381" fill="none" stroke="#000000" stroke-linecap="round" stroke-linejoin="round" stroke-miterlimit="10" stroke-width="2"/>
    <path d="M28.669,42.8384c1.8323,1.6694,1.8323,4.2345,0,5.9854" fill="none" stroke="#000000" stroke-linecap="round" stroke-linejoin="round" stroke-miterlimit="10" stroke-width="2"/>
    <path d="M43.3308,42.8384c-1.8323,1.6694-1.8323,4.2345,0,5.9854" fill="none" stroke="#000000" stroke-linecap="round" stroke-linejoin="round" stroke-miterlimit="10" stroke-width="2"/>
    <path d="M30,33c0,1.6568-1.3448,3-3,3c-1.6553,0-3-1.3433-3-3c0-1.6552,1.3447-3,3-3C28.6552,30,30,31.3448,30,33"/>
    <path d="M48,33c0,1.6568-1.3447,3-3,3s-3-1.3433-3-3c0-1.6552,1.3447-3,3-3S48,31.3448,48,33"/>
  </g>
</svg>