<svg viewBox="10 10 52 52" xmlns="http://www.w3.org/2000/svg">
  <defs>
    <linearGradient id="yellow-gradient" x1="0%" x2="0%" y1="0%" y2="100%">
      <stop offset="0%" style="stop-color:#FDE02F;stop-opacity:1;"/>
      <stop offset="100%" style="stop-color:#F7B209;stop-opacity:1;"/>
    </linearGradient>
  </defs>
  <g id="color">
    <circle cx="35.9997" cy="35.9989" fill="url(#yellow-gradient)" r="24"/>
    <path d="M51.58,34.554a11.5549,11.5549,0,0,1,1.2192,4.408C42.9625,47.2342,30.1775,50.5842,28.1236,51.08a11.4345,11.4345,0,0,1-2.6837-3.535l.0985-.0489S40.39,44.1243,51.4407,34.7013Z" fill="#fff"/>
    <path d="M52.799,38.962c.2974,4.6205-2.4688,9.3006-9.0418,12.5673C37.1215,54.8271,31.6358,54.17,28.1237,51.08,30.1775,50.5841,42.9626,47.234,52.799,38.962Z" fill="#ea5a47"/>
    <path d="m 58.647106,32.656278 a 3.4939405,3.4939405 0 0 1 -4.42601,2.200608 c -3.28135,-1.102569 -5.502139,-5.507822 -5.524295,-5.551559 0.175442,-0.07512 4.486055,-2.172027 7.750767,-1.075059 a 3.4931992,3.4931992 0 0 1 2.199702,4.426175 z" fill="#92d3f5"/>
    <path d="m 18.69698,52.147853 a 3.3478974,3.3478974 0 0 1 -2.108605,-4.240886 c 1.056512,-3.143966 5.277352,-5.271906 5.319259,-5.293057 0.07198,0.168101 2.081061,4.29834 1.030074,7.426443 a 3.3471082,3.3471082 0 0 1 -4.240965,2.107737 z" fill="#92d3f5"/>
  </g>
  <g id="line">
    <circle cx="36" cy="36" fill="none" r="24" stroke="#000" stroke-width="2"/>
    <path d="M51.58,34.554a11.5549,11.5549,0,0,1,1.2192,4.408C42.9625,47.2342,30.1775,50.5842,28.1236,51.08a11.4345,11.4345,0,0,1-2.6837-3.535l.0985-.0489S40.39,44.1243,51.4407,34.7013Z" fill="none" stroke="#000" stroke-linecap="round" stroke-linejoin="round" stroke-width="2"/>
    <path d="M52.799,38.962c.2974,4.6205-2.4688,9.3006-9.0418,12.5673C37.1215,54.8271,31.6358,54.17,28.1237,51.08,30.1775,50.584,42.9625,47.2341,52.799,38.962Z" fill="none" stroke="#000" stroke-linecap="round" stroke-linejoin="round" stroke-width="2"/>
    <path d="m 58.647106,32.656278 a 3.4939405,3.4939405 0 0 1 -4.42601,2.200608 c -3.28135,-1.102569 -5.502139,-5.507822 -5.524295,-5.551559 0.175442,-0.07512 4.486055,-2.172027 7.750767,-1.075059 a 3.4931992,3.4931992 0 0 1 2.199702,4.426175 z" fill="none" stroke="#000" stroke-linejoin="round" stroke-width="2"/>
    <path d="m 18.69698,52.147853 a 3.3478974,3.3478974 0 0 1 -2.108605,-4.240886 c 1.056512,-3.143966 5.277352,-5.271906 5.319259,-5.293057 0.07198,0.168101 2.081061,4.29834 1.030074,7.426443 a 3.3471082,3.3471082 0 0 1 -4.240965,2.107737 z" fill="none" stroke="#000" stroke-linejoin="round" stroke-width="2"/>
    <polyline fill="none" points="22.478 33.13 30.163 33.793 25.928 40.072" stroke="#000" stroke-linecap="round" stroke-linejoin="round" stroke-width="2"/>
    <polyline fill="none" points="41.878 23.488 37.766 30.014 45.328 30.43" stroke="#000" stroke-linecap="round" stroke-linejoin="round" stroke-width="2"/>
  </g>
</svg>