<svg viewBox="11 11 50 50" xmlns="http://www.w3.org/2000/svg">
  <defs>
    <linearGradient id="yellow-gradient" x1="0%" x2="0%" y1="0%" y2="100%">
      <stop offset="0%" style="stop-color:#FDE02F;stop-opacity:1;"/>
      <stop offset="100%" style="stop-color:#F7B209;stop-opacity:1;"/>
    </linearGradient>
  </defs>
  <g id="color">
    <path d="m36 13c-12.68 0-23 10.32-23 23 0 12.68 10.32 23 23 23 12.68 0 23-10.32 23-23 0-12.68-10.32-23-23-23z" fill="url(#yellow-gradient)"/>
    <path d="m31.76 31.17c0 2.464-2 4.463-4.463 4.463s-4.463-1.998-4.463-4.463c0-2.462 2-4.463 4.463-4.463s4.463 2 4.463 4.463z" fill="#fff"/>
    <path d="m50.84 32.72c0 3.364-2.73 6.091-6.091 6.091s-6.091-2.727-6.091-6.091c0-3.361 2.73-6.091 6.091-6.091s6.091 2.73 6.091 6.091z" fill="#fff"/>
    <path d="m42.86 46.04c-0.339 0.2917-4.957 7.343-9.91 6.064-4.463-1.152-5.49-8.887-5.736-9.413 5.215 1.116 10.43 2.233 15.65 3.349z" fill="#fff"/>
    <path d="m41.71 46.13c-1.293 5.936-4.618 10.25-7.426 9.64s-4.037-5.92-2.744-11.86z" fill="#ea5a47"/>
  </g>
  <g id="line">
    <circle cx="36" cy="36" fill="none" r="23" stroke="#000" stroke-miterlimit="10" stroke-width="2"/>
    <path d="m31.96 31.29c0 2.464-2 4.463-4.463 4.463s-4.463-1.998-4.463-4.463c0-2.462 2-4.463 4.463-4.463s4.463 2 4.463 4.463" fill="none" stroke="#000" stroke-miterlimit="10" stroke-width="2"/>
    <path d="m28.52 32.3c0 1.104-0.8965 2-2 2s-2-0.8955-2-2c0-1.104 0.8965-2 2-2s2 0.8965 2 2"/>
    <path d="m51.04 32.83c0 3.364-2.73 6.091-6.091 6.091s-6.091-2.727-6.091-6.091c0-3.361 2.73-6.091 6.091-6.091s6.091 2.73 6.091 6.091" fill="none" stroke="#000" stroke-miterlimit="10" stroke-width="2"/>
    <path d="m49.04 32.1c0 1.508-1.224 2.73-2.73 2.73s-2.73-1.222-2.73-2.73c0-1.506 1.224-2.73 2.73-2.73s2.73 1.224 2.73 2.73"/>
    <path d="m39.08 23.94c0.4132-0.344 2.246-1.792 4.909-1.636 2.161 0.1259 3.61 1.233 4.091 1.636" fill="none" stroke="#000" stroke-linecap="round" stroke-linejoin="round" stroke-miterlimit="10" stroke-width="2"/>
    <path d="m23 23.57c0.4132-0.344 2.246-1.792 4.909-1.636 2.161 0.1259 3.61 1.233 4.091 1.636" fill="none" stroke="#000" stroke-linecap="round" stroke-linejoin="round" stroke-miterlimit="10" stroke-width="2"/>
    <path d="m40.46 49.13c0.01-0.01 0.01-0.02 0.01-0.02 1.4-1.62 2.02-3.37 2.18-3.512l-15.65-3.349c0.2275 0.472-0.5225 6.682 4.108 8.862" fill="none" stroke="#000" stroke-linecap="round" stroke-linejoin="round" stroke-miterlimit="10" stroke-width="2"/>
    <path d="m41.5 45.68c-1.293 5.936-4.618 10.25-7.426 9.64s-4.037-5.92-2.744-11.86" fill="none" stroke="#000" stroke-linecap="round" stroke-linejoin="round" stroke-miterlimit="10" stroke-width="2"/>
  </g>
</svg>