<svg viewBox="8 8 56 56" xmlns="http://www.w3.org/2000/svg">
  <defs>
    <linearGradient id="yellow-gradient" x1="0%" x2="0%" y1="0%" y2="100%">
      <stop offset="0%" style="stop-color:#FDE02F;stop-opacity:1;"/>
      <stop offset="100%" style="stop-color:#F7B209;stop-opacity:1;"/>
    </linearGradient>
  </defs>
  <g id="line">
    <polyline fill="none" points="62 55.5 62 17 10 17 10 55.5" stroke="#000" stroke-linecap="round" stroke-linejoin="round" stroke-width="2"/>
    <line fill="none" stroke="#000" stroke-linecap="round" stroke-linejoin="round" stroke-width="2" x1="62" x2="52.9038" y1="55.5" y2="46.4038"/>
    <line fill="none" stroke="#000" stroke-linecap="round" stroke-linejoin="round" stroke-width="2" x1="20" x2="53" y1="46" y2="46"/>
    <line fill="none" stroke="#000" stroke-linecap="round" stroke-linejoin="round" stroke-width="2" x1="10" x2="19.0962" y1="55.5" y2="46.4038"/>
    <line fill="none" stroke="#000" stroke-linecap="round" stroke-linejoin="round" stroke-width="2" x1="10" x2="19.32" y1="17" y2="45.5834"/>
    <line fill="none" stroke="#000" stroke-linecap="round" stroke-linejoin="round" stroke-width="2" x1="10.7518" x2="61.7518" y1="18.0834" y2="18.0834"/>
    <line fill="none" stroke="#000" stroke-linecap="round" stroke-linejoin="round" stroke-width="2" x1="49.0195" x2="61.6022" y1="18.0834" y2="18.0834"/>
    <line fill="none" stroke="#000" stroke-linecap="round" stroke-linejoin="round" stroke-width="2" x1="16.8857" x2="55.7518" y1="39.0834" y2="39.0834"/>
    <line fill="none" stroke="#000" stroke-linecap="round" stroke-linejoin="round" stroke-width="2" x1="49.0195" x2="55.9329" y1="39.0834" y2="39.0834"/>
    <line fill="none" stroke="#000" stroke-linecap="round" stroke-linejoin="round" stroke-width="2" x1="14.7518" x2="56.7518" y1="32.0834" y2="32.0834"/>
    <line fill="none" stroke="#000" stroke-linecap="round" stroke-linejoin="round" stroke-width="2" x1="49.0195" x2="57.3502" y1="32.0834" y2="32.0834"/>
    <line fill="none" stroke="#000" stroke-linecap="round" stroke-linejoin="round" stroke-width="2" x1="35.7704" x2="35.7704" y1="17.5" y2="45.5"/>
    <line fill="none" stroke="#000" stroke-linecap="round" stroke-linejoin="round" stroke-width="2" x1="28.7704" x2="28.7704" y1="17.5" y2="45.5"/>
    <line fill="none" stroke="#000" stroke-linecap="round" stroke-linejoin="round" stroke-width="2" x1="21.7704" x2="21.7704" y1="17.5" y2="45.5"/>
    <line fill="none" stroke="#000" stroke-linecap="round" stroke-linejoin="round" stroke-width="2" x1="14.7704" x2="14.7704" y1="17.5" y2="50.4486"/>
    <line fill="none" stroke="#000" stroke-linecap="round" stroke-linejoin="round" stroke-width="2" x1="42.7704" x2="42.7704" y1="18.0834" y2="45.5834"/>
    <line fill="none" stroke="#000" stroke-linecap="round" stroke-linejoin="round" stroke-width="2" x1="49.7704" x2="49.7704" y1="17.5164" y2="45.5834"/>
    <line fill="none" stroke="#000" stroke-linecap="round" stroke-linejoin="round" stroke-width="2" x1="56.7704" x2="56.7704" y1="18.0834" y2="50.0816"/>
    <line fill="none" stroke="#000" stroke-linecap="round" stroke-linejoin="round" stroke-width="2" x1="42.7704" x2="42.7704" y1="21" y2="36.1667"/>
    <line fill="none" stroke="#000" stroke-linecap="round" stroke-linejoin="round" stroke-width="2" x1="12.7675" x2="59.7518" y1="25.0834" y2="25.0834"/>
    <line fill="none" stroke="#000" stroke-linecap="round" stroke-linejoin="round" stroke-width="2" x1="48.7677" x2="60.1849" y1="25.083" y2="25.0834"/>
    <line fill="none" stroke="#000" stroke-linecap="round" stroke-linejoin="round" stroke-width="2" x1="57.3502" x2="61.8585" y1="32" y2="36.5082"/>
    <line fill="none" stroke="#000" stroke-linecap="round" stroke-linejoin="round" stroke-width="2" x1="59.7518" x2="61.9026" y1="25.0834" y2="27.2377"/>
    <line fill="none" stroke="#000" stroke-linecap="round" stroke-linejoin="round" stroke-width="2" x1="55.1024" x2="62" y1="39.0834" y2="45.5834"/>
    <line fill="none" stroke="#000" stroke-linecap="round" stroke-linejoin="round" stroke-width="2" x1="14.6865" x2="10.2633" y1="32.0834" y2="36.5065"/>
    <line fill="none" stroke="#000" stroke-linecap="round" stroke-linejoin="round" stroke-width="2" x1="12.7675" x2="10.1599" y1="25.7797" y2="28.3874"/>
    <line fill="none" stroke="#000" stroke-linecap="round" stroke-linejoin="round" stroke-width="2" x1="17.1712" x2="10.3374" y1="38.8196" y2="45.2594"/>
    <line fill="none" stroke="#000" stroke-linecap="round" stroke-linejoin="round" stroke-width="2" x1="53" x2="62" y1="46" y2="18"/>
  </g>
  <g id="color-foreground">
    <line fill="none" stroke="#d0cfce" stroke-miterlimit="10" stroke-width="2" x1="10.7518" x2="61.7518" y1="18.0834" y2="18.0834"/>
    <line fill="none" stroke="#9b9b9a" stroke-miterlimit="10" stroke-width="2" x1="49.0195" x2="61.6022" y1="18.0834" y2="18.0834"/>
    <line fill="none" stroke="#d0cfce" stroke-miterlimit="10" stroke-width="2" x1="16.8857" x2="55.7518" y1="39.0834" y2="39.0834"/>
    <line fill="none" stroke="#9b9b9a" stroke-miterlimit="10" stroke-width="2" x1="49.0195" x2="55.9329" y1="39.0834" y2="39.0834"/>
    <line fill="none" stroke="#d0cfce" stroke-miterlimit="10" stroke-width="2" x1="14.7518" x2="56.7518" y1="32.0834" y2="32.0834"/>
    <line fill="none" stroke="#9b9b9a" stroke-miterlimit="10" stroke-width="2" x1="49.0195" x2="57.3502" y1="32.0834" y2="32.0834"/>
    <line fill="none" stroke="#d0cfce" stroke-miterlimit="10" stroke-width="2" x1="35.7704" x2="35.7704" y1="17.5" y2="45.5"/>
    <line fill="none" stroke="#d0cfce" stroke-miterlimit="10" stroke-width="2" x1="28.7704" x2="28.7704" y1="17.5" y2="45.5"/>
    <line fill="none" stroke="#d0cfce" stroke-miterlimit="10" stroke-width="2" x1="21.7704" x2="21.7704" y1="17.5" y2="45.5"/>
    <line fill="none" stroke="#d0cfce" stroke-miterlimit="10" stroke-width="2" x1="14.7704" x2="14.7704" y1="17.5" y2="51.3583"/>
    <line fill="none" stroke="#d0cfce" stroke-miterlimit="10" stroke-width="2" x1="42.7704" x2="42.7704" y1="18.0834" y2="45.5834"/>
    <line fill="none" stroke="#9b9b9a" stroke-miterlimit="10" stroke-width="2" x1="49.7704" x2="49.7704" y1="17.5164" y2="45.5834"/>
    <line fill="none" stroke="#9b9b9a" stroke-miterlimit="10" stroke-width="2" x1="56.7704" x2="56.7704" y1="18.0834" y2="50.4574"/>
    <line fill="none" stroke="#d0cfce" stroke-miterlimit="10" stroke-width="2" x1="42.7704" x2="42.7704" y1="21" y2="36.1667"/>
    <line fill="none" stroke="#d0cfce" stroke-miterlimit="10" stroke-width="2" x1="12.7675" x2="59.7518" y1="25.0834" y2="25.0834"/>
    <line fill="none" stroke="#9b9b9a" stroke-miterlimit="10" stroke-width="2" x1="48.7677" x2="60.1849" y1="25.083" y2="25.0834"/>
    <line fill="none" stroke="#9b9b9a" stroke-miterlimit="10" stroke-width="2" x1="57.3502" x2="62.1453" y1="32" y2="36.7951"/>
    <line fill="none" stroke="#9b9b9a" stroke-miterlimit="10" stroke-width="2" x1="59.7518" x2="62.1453" y1="25.0834" y2="27.4809"/>
    <line fill="none" stroke="#9b9b9a" stroke-miterlimit="10" stroke-width="2" x1="55.1024" x2="62" y1="39.0834" y2="45.5834"/>
    <line fill="none" stroke="#d0cfce" stroke-miterlimit="10" stroke-width="2" x1="14.6865" x2="9.7559" y1="32.0834" y2="37.014"/>
    <line fill="none" stroke="#d0cfce" stroke-miterlimit="10" stroke-width="2" x1="13.4827" x2="9.7559" y1="25.0645" y2="28.7914"/>
    <line fill="none" stroke="#d0cfce" stroke-miterlimit="10" stroke-width="2" x1="17.1712" x2="9.7605" y1="38.8196" y2="45.8031"/>
    <line fill="none" stroke="#000" stroke-linecap="round" stroke-linejoin="round" stroke-width="2" x1="53" x2="62" y1="46" y2="18"/>
    <polyline fill="none" points="62 55.5 62 17 10 17 10 55.5" stroke="#000" stroke-linecap="round" stroke-linejoin="round" stroke-width="2"/>
    <line fill="none" stroke="#000" stroke-linecap="round" stroke-linejoin="round" stroke-width="2" x1="62" x2="52.9038" y1="55.5" y2="46.4038"/>
    <line fill="none" stroke="#000" stroke-linecap="round" stroke-linejoin="round" stroke-width="2" x1="20" x2="53" y1="46" y2="46"/>
    <line fill="none" stroke="#000" stroke-linecap="round" stroke-linejoin="round" stroke-width="2" x1="10" x2="19.0962" y1="55.5" y2="46.4038"/>
    <line fill="none" stroke="#000" stroke-linecap="round" stroke-linejoin="round" stroke-width="2" x1="10" x2="19.32" y1="17" y2="45.5834"/>
    <line fill="none" stroke="#000" stroke-linecap="round" stroke-linejoin="round" stroke-width="2" x1="53" x2="62" y1="46" y2="18"/>
  </g>
</svg>