<svg viewBox="0 0 72 72" xmlns="http://www.w3.org/2000/svg">
  <defs>
    <linearGradient id="yellow-gradient" x1="0%" x2="0%" y1="0%" y2="100%">
      <stop offset="0%" style="stop-color:#FDE02F;stop-opacity:1;"/>
      <stop offset="100%" style="stop-color:#F7B209;stop-opacity:1;"/>
    </linearGradient>
  </defs>
  <g id="color">
    <circle cx="42.9669" cy="40.025" fill="#d0cfce" r="5"/>
    <path d="M45.0906,35.8151a4.9945,4.9945,0,0,1-6.9,6.9,4.9971,4.9971,0,1,0,6.9-6.9Z" fill="#9b9b9a"/>
    <polygon fill="#d0cfce" points="29.641 67.036 29.641 53.202 30.495 46.505 32.517 46.505 33.37 53.202 33.37 67.036 29.641 67.036" stroke="#d0cfce" stroke-linecap="round" stroke-linejoin="round" stroke-width="2"/>
  </g>
  <g id="line">
    <line fill="none" stroke="#000" stroke-linecap="round" stroke-linejoin="round" stroke-width="2" x1="31.6963" x2="31.6963" y1="28.5" y2="45.6546"/>
    <line stroke="#000" stroke-miterlimit="10" stroke-width="1.5" x1="27.7518" x2="35.7518" y1="23" y2="23"/>
    <line stroke="#000" stroke-miterlimit="10" stroke-width="1.5" x1="31.6963" x2="31.6963" y1="4.5" y2="28.5"/>
    <line stroke="#000" stroke-miterlimit="10" stroke-width="1.4639" x1="28.6963" x2="28.6963" y1="5" y2="25"/>
    <line stroke="#000" stroke-miterlimit="10" stroke-width="1.5" x1="25.6963" x2="25.6963" y1="7.5" y2="20.2166"/>
    <line stroke="#000" stroke-miterlimit="10" stroke-width="1.5" x1="34.6963" x2="34.6963" y1="5" y2="26"/>
    <line stroke="#000" stroke-miterlimit="10" stroke-width="1.5" x1="37.6963" x2="37.6963" y1="7.5" y2="20.2166"/>
    <line stroke="#000" stroke-miterlimit="10" stroke-width="1.5" x1="22.5353" x2="40.2518" y1="14" y2="14"/>
    <line stroke="#000" stroke-miterlimit="10" stroke-width="1.5" x1="23.8187" x2="39.6849" y1="17" y2="17"/>
    <line stroke="#000" stroke-miterlimit="10" stroke-width="1.5" x1="25.5353" x2="37.2518" y1="20" y2="20"/>
    <line stroke="#000" stroke-miterlimit="10" stroke-width="1.5" x1="23.1849" x2="40.2518" y1="11" y2="11"/>
    <line stroke="#000" stroke-miterlimit="10" stroke-width="1.5" x1="25.2518" x2="39.2518" y1="8" y2="8"/>
    <line stroke="#000" stroke-miterlimit="10" stroke-width="1.5" x1="33.9419" x2="39.1937" y1="8" y2="8"/>
    <line stroke="#000" stroke-miterlimit="10" stroke-width="1.5" x1="33.9419" x2="40.3276" y1="11" y2="11"/>
    <line stroke="#000" stroke-miterlimit="10" stroke-width="1.5" x1="33.9419" x2="40.3276" y1="14" y2="14"/>
    <line stroke="#000" stroke-miterlimit="10" stroke-width="1.5" x1="33.9419" x2="39.7606" y1="17" y2="17"/>
    <line stroke="#000" stroke-miterlimit="10" stroke-width="1.5" x1="33.9419" x2="38.0598" y1="20" y2="20"/>
    <line stroke="#000" stroke-miterlimit="10" stroke-width="1.5" x1="33.9419" x2="36.0756" y1="23" y2="23"/>
    <line stroke="#000" stroke-miterlimit="10" stroke-width="1.5" x1="28.5353" x2="34.2518" y1="26" y2="26"/>
    <polyline fill="none" points="30.22 48.658 29.641 53.203 29.641 67.037 33.37 67.037 33.37 53.203" stroke="#000" stroke-linecap="round" stroke-linejoin="round" stroke-width="2"/>
    <path d="M31.7518,28.6842c-3.2557,0-2.1077-2.2747-3.6881-5.6821C27.2314,21.2074,21,15,22.8952,10.0611,24.0612,7.0228,28.3768,5,31.7518,5" fill="none" stroke="#000" stroke-miterlimit="10" stroke-width="2"/>
    <path d="M31.7518,5c3.375,0,7.6906,2.0228,8.8566,5.0611C42.5036,15,36.2722,21.2074,35.44,23.0021c-1.58,3.4074-.4323,5.6821-3.6881,5.6821" fill="none" stroke="#000" stroke-miterlimit="10" stroke-width="2"/>
    <circle cx="43" cy="40" fill="none" r="5" stroke="#000" stroke-linecap="round" stroke-linejoin="round" stroke-width="1.8"/>
  </g>
  <g id="color-foreground">
    <line fill="none" stroke="#d0cfce" stroke-miterlimit="10" stroke-width="1.5" x1="27.7518" x2="35.7518" y1="23" y2="23"/>
    <line fill="none" stroke="#d0cfce" stroke-miterlimit="10" stroke-width="1.5" x1="31.6963" x2="31.6963" y1="4.5" y2="28.5"/>
    <line fill="none" stroke="#d0cfce" stroke-miterlimit="10" stroke-width="1.5" x1="28.6963" x2="28.6963" y1="5" y2="25.1496"/>
    <line fill="none" stroke="#d0cfce" stroke-miterlimit="10" stroke-width="1.5" x1="25.6963" x2="25.6963" y1="7.5" y2="19.9331"/>
    <line fill="none" stroke="#9b9b9a" stroke-miterlimit="10" stroke-width="1.5" x1="34.6963" x2="34.6963" y1="5" y2="26"/>
    <line fill="none" stroke="#9b9b9a" stroke-miterlimit="10" stroke-width="1.5" x1="37.6963" x2="37.6963" y1="7.5" y2="20.2166"/>
    <line fill="none" stroke="#d0cfce" stroke-miterlimit="10" stroke-width="1.5" x1="22.2518" x2="40.2518" y1="14" y2="14"/>
    <line fill="none" stroke="#d0cfce" stroke-miterlimit="10" stroke-width="1.5" x1="23.8187" x2="39.6849" y1="17" y2="17"/>
    <line fill="none" stroke="#d0cfce" stroke-miterlimit="10" stroke-width="1.5" x1="25.5353" x2="37.2518" y1="20" y2="20"/>
    <line fill="none" stroke="#d0cfce" stroke-miterlimit="10" stroke-width="1.5" x1="22.6179" x2="40.2518" y1="11" y2="11"/>
    <line fill="none" stroke="#d0cfce" stroke-miterlimit="10" stroke-width="1.5" x1="25.2518" x2="39.2518" y1="8" y2="8"/>
    <line fill="none" stroke="#9b9b9a" stroke-miterlimit="10" stroke-width="1.5" x1="33.9419" x2="39.1937" y1="8" y2="8"/>
    <line fill="none" stroke="#9b9b9a" stroke-miterlimit="10" stroke-width="1.5" x1="33.9419" x2="40.3276" y1="11" y2="11"/>
    <line fill="none" stroke="#9b9b9a" stroke-miterlimit="10" stroke-width="1.5" x1="33.9419" x2="40.3276" y1="14" y2="14"/>
    <line fill="none" stroke="#9b9b9a" stroke-miterlimit="10" stroke-width="1.5" x1="33.9419" x2="39.7606" y1="17" y2="17"/>
    <line fill="none" stroke="#9b9b9a" stroke-miterlimit="10" stroke-width="1.5" x1="33.9419" x2="38.0598" y1="20" y2="20"/>
    <line fill="none" stroke="#9b9b9a" stroke-miterlimit="10" stroke-width="1.5" x1="33.9419" x2="36.0756" y1="23" y2="23"/>
    <line fill="none" stroke="#d0cfce" stroke-miterlimit="10" stroke-width="1.5" x1="28.5353" x2="34.2518" y1="26" y2="26"/>
    <path d="M31.7518,28.6842c-3.2557,0-2.1077-2.2747-3.6881-5.6821C27.2314,21.2074,21,15,22.8952,10.0611,24.0612,7.0228,28.3768,5,31.7518,5" fill="none" stroke="#000" stroke-miterlimit="10" stroke-width="2"/>
    <path d="M31.7518,5c3.375,0,7.6906,2.0228,8.8566,5.0611C42.5036,15,36.2722,21.2074,35.44,23.0021c-1.58,3.4074-.4323,5.6821-3.6881,5.6821" fill="none" stroke="#000" stroke-miterlimit="10" stroke-width="2"/>
  </g>
</svg>