<svg viewBox="6 6 60 60" xmlns="http://www.w3.org/2000/svg">
  <defs>
    <linearGradient id="yellow-gradient" x1="0%" x2="0%" y1="0%" y2="100%">
      <stop offset="0%" style="stop-color:#FDE02F;stop-opacity:1;"/>
      <stop offset="100%" style="stop-color:#F7B209;stop-opacity:1;"/>
    </linearGradient>
  </defs>
  <g id="color">
    <circle cx="36" cy="36" fill="url(#yellow-gradient)" r="28"/>
  </g>
  <g id="line">
    <polyline fill="none" points="23.111 58.006 21.594 53.799 17.319 52.488" stroke="none" stroke-linecap="round" stroke-linejoin="round" stroke-width="2"/>
    <polyline fill="none" points="27.658 51.94 25.199 48.205 20.736 47.93" stroke="none" stroke-linecap="round" stroke-linejoin="round" stroke-width="2"/>
    <polyline fill="none" points="30.692 45.113 27.415 42.069 23.014 42.864" stroke="none" stroke-linecap="round" stroke-linejoin="round" stroke-width="2"/>
    <polyline fill="none" points="31.997 37.918 28.076 35.767 24.003 37.613" stroke="none" stroke-linecap="round" stroke-linejoin="round" stroke-width="2"/>
    <polyline fill="none" points="31.295 29.888 26.963 28.777 23.475 31.576" stroke="none" stroke-linecap="round" stroke-linejoin="round" stroke-width="2"/>
    <polyline fill="none" points="28.666 21.957 24.194 21.938 21.496 25.505" stroke="none" stroke-linecap="round" stroke-linejoin="round" stroke-width="2"/>
    <polyline fill="none" points="24.457 15.353 20.109 16.399 18.336 20.505" stroke="none" stroke-linecap="round" stroke-linejoin="round" stroke-width="2"/>
    <polyline fill="none" points="49.889 58.006 51.406 53.799 55.681 52.488" stroke="none" stroke-linecap="round" stroke-linejoin="round" stroke-width="2"/>
    <polyline fill="none" points="45.342 51.94 47.801 48.205 52.264 47.93" stroke="none" stroke-linecap="round" stroke-linejoin="round" stroke-width="2"/>
    <polyline fill="none" points="42.308 45.113 45.585 42.069 49.986 42.864" stroke="none" stroke-linecap="round" stroke-linejoin="round" stroke-width="2"/>
    <polyline fill="none" points="41.003 37.918 44.924 35.767 48.997 37.613" stroke="none" stroke-linecap="round" stroke-linejoin="round" stroke-width="2"/>
    <polyline fill="none" points="41.705 29.888 46.037 28.777 49.525 31.576" stroke="none" stroke-linecap="round" stroke-linejoin="round" stroke-width="2"/>
    <polyline fill="none" points="44.334 21.957 48.806 21.938 51.504 25.505" stroke="none" stroke-linecap="round" stroke-linejoin="round" stroke-width="2"/>
    <polyline fill="none" points="48.543 15.353 52.891 16.399 54.664 20.505" stroke="none" stroke-linecap="round" stroke-linejoin="round" stroke-width="2"/>
    <path d="M18,14.5579a27.9882,27.9882,0,0,1,0,42.8842" fill="none" stroke="#000" stroke-linecap="round" stroke-miterlimit="10" stroke-width="2"/>
    <path d="M54.5,14.991a27.98,27.98,0,0,0,0,42.018" fill="none" stroke="#000" stroke-linecap="round" stroke-miterlimit="10" stroke-width="2"/>
    <polyline fill="none" points="23.111 58.006 21.594 53.799 17.319 52.488" stroke="#000" stroke-linecap="round" stroke-linejoin="round" stroke-width="2"/>
    <polyline fill="none" points="27.658 51.94 25.199 48.205 20.736 47.93" stroke="#000" stroke-linecap="round" stroke-linejoin="round" stroke-width="2"/>
    <polyline fill="none" points="27.658 51.94 25.199 48.205 20.736 47.93" stroke="#000" stroke-linecap="round" stroke-linejoin="round" stroke-width="2"/>
    <polyline fill="none" points="30.692 45.113 27.415 42.069 23.014 42.864" stroke="#000" stroke-linecap="round" stroke-linejoin="round" stroke-width="2"/>
    <polyline fill="none" points="31.997 37.918 28.076 35.767 24.003 37.613" stroke="#000" stroke-linecap="round" stroke-linejoin="round" stroke-width="2"/>
    <polyline fill="none" points="31.295 29.888 26.963 28.777 23.475 31.576" stroke="#000" stroke-linecap="round" stroke-linejoin="round" stroke-width="2"/>
    <polyline fill="none" points="28.666 21.957 24.194 21.938 21.496 25.505" stroke="#000" stroke-linecap="round" stroke-linejoin="round" stroke-width="2"/>
    <polyline fill="none" points="24.457 15.353 20.109 16.399 18.336 20.505" stroke="#000" stroke-linecap="round" stroke-linejoin="round" stroke-width="2"/>
    <polyline fill="none" points="49.889 58.006 51.406 53.799 55.681 52.488" stroke="#000" stroke-linecap="round" stroke-linejoin="round" stroke-width="2"/>
    <polyline fill="none" points="45.342 51.94 47.801 48.205 52.264 47.93" stroke="#000" stroke-linecap="round" stroke-linejoin="round" stroke-width="2"/>
    <polyline fill="none" points="42.308 45.113 45.585 42.069 49.986 42.864" stroke="#000" stroke-linecap="round" stroke-linejoin="round" stroke-width="2"/>
    <polyline fill="none" points="41.003 37.918 44.924 35.767 48.997 37.613" stroke="#000" stroke-linecap="round" stroke-linejoin="round" stroke-width="2"/>
    <polyline fill="none" points="41.705 29.888 46.037 28.777 49.525 31.576" stroke="#000" stroke-linecap="round" stroke-linejoin="round" stroke-width="2"/>
    <polyline fill="none" points="44.334 21.957 48.806 21.938 51.504 25.505" stroke="#000" stroke-linecap="round" stroke-linejoin="round" stroke-width="2"/>
    <polyline fill="none" points="48.543 15.353 52.891 16.399 54.664 20.505" stroke="#000" stroke-linecap="round" stroke-linejoin="round" stroke-width="2"/>
    <circle cx="36" cy="36" fill="none" r="28" stroke="#000" stroke-miterlimit="10" stroke-width="2"/>
  </g>
  <g id="color-foreground">
    <polyline fill="none" points="23.111 58.006 21.594 53.799 17.319 52.488" stroke="#d22f27" stroke-linecap="round" stroke-linejoin="round" stroke-width="2"/>
    <polyline fill="none" points="27.658 51.94 25.199 48.205 20.736 47.93" stroke="#d22f27" stroke-linecap="round" stroke-linejoin="round" stroke-width="2"/>
    <polyline fill="none" points="30.692 45.113 27.415 42.069 23.014 42.864" stroke="#d22f27" stroke-linecap="round" stroke-linejoin="round" stroke-width="2"/>
    <polyline fill="none" points="31.997 37.918 28.076 35.767 24.003 37.613" stroke="#d22f27" stroke-linecap="round" stroke-linejoin="round" stroke-width="2"/>
    <polyline fill="none" points="31.295 29.888 26.963 28.777 23.475 31.576" stroke="#d22f27" stroke-linecap="round" stroke-linejoin="round" stroke-width="2"/>
    <polyline fill="none" points="28.666 21.957 24.194 21.938 21.496 25.505" stroke="#d22f27" stroke-linecap="round" stroke-linejoin="round" stroke-width="2"/>
    <polyline fill="none" points="24.457 15.353 20.109 16.399 18.336 20.505" stroke="#d22f27" stroke-linecap="round" stroke-linejoin="round" stroke-width="2"/>
    <polyline fill="none" points="49.889 58.006 51.406 53.799 55.681 52.488" stroke="#d22f27" stroke-linecap="round" stroke-linejoin="round" stroke-width="2"/>
    <polyline fill="none" points="45.342 51.94 47.801 48.205 52.264 47.93" stroke="#d22f27" stroke-linecap="round" stroke-linejoin="round" stroke-width="2"/>
    <polyline fill="none" points="42.308 45.113 45.585 42.069 49.986 42.864" stroke="#d22f27" stroke-linecap="round" stroke-linejoin="round" stroke-width="2"/>
    <polyline fill="none" points="41.003 37.918 44.924 35.767 48.997 37.613" stroke="#d22f27" stroke-linecap="round" stroke-linejoin="round" stroke-width="2"/>
    <polyline fill="none" points="41.705 29.888 46.037 28.777 49.525 31.576" stroke="#d22f27" stroke-linecap="round" stroke-linejoin="round" stroke-width="2"/>
    <polyline fill="none" points="44.334 21.957 48.806 21.938 51.504 25.505" stroke="#d22f27" stroke-linecap="round" stroke-linejoin="round" stroke-width="2"/>
    <polyline fill="none" points="48.543 15.353 52.891 16.399 54.664 20.505" stroke="#d22f27" stroke-linecap="round" stroke-linejoin="round" stroke-width="2"/>
  </g>
</svg>