<svg viewBox="7 7 58 58" xmlns="http://www.w3.org/2000/svg">
  <defs>
    <linearGradient id="yellow-gradient" x1="0%" x2="0%" y1="0%" y2="100%">
      <stop offset="0%" style="stop-color:#FDE02F;stop-opacity:1;"/>
      <stop offset="100%" style="stop-color:#F7B209;stop-opacity:1;"/>
    </linearGradient>
  </defs>
  <g id="color">
    <ellipse cx="35.9999" cy="30.5" fill="#92d3f5" rx="11.5334" ry="27.8816" transform="translate(-4.9734 53.8973) rotate(-70)"/>
    <path d="M62.2,40.0361c-2.1785,5.9856-15.6748,6.5684-30.1447,1.3018s-17.22-8.3093-14.0934-12.5391c.9582-1.2961,5.2447,4.3094,21.9827,10.0928C54.4989,43.9205,64.3786,34.0505,62.2,40.0361Z" fill="#61b2e4"/>
  </g>
  <g id="line">
    <ellipse cx="35.9999" cy="30.5" fill="none" rx="6.7991" ry="21.9789" stroke="#000" stroke-linecap="round" stroke-linejoin="round" stroke-width="2" transform="translate(-5.0564 53.7513) rotate(-69.7961)"/>
    <ellipse cx="35.9999" cy="30.5" fill="none" rx="11.5334" ry="27.8816" stroke="#000" stroke-linecap="round" stroke-linejoin="round" stroke-width="2" transform="translate(-4.9734 53.8973) rotate(-70)"/>
    <path d="M39.8023,52.363c2.8865,1.5925,21.926,6.78,23.98,1.8" fill="none" stroke="#000" stroke-linecap="round" stroke-linejoin="round" stroke-width="2"/>
    <path d="M37.778,48.8451c2.3577,1.41,18.0633,6.2843,19.919,2.1969" fill="none" stroke="#000" stroke-linecap="round" stroke-linejoin="round" stroke-width="2"/>
  </g>
</svg>