<svg viewBox="10 10 52 52" xmlns="http://www.w3.org/2000/svg">
  <defs>
    <linearGradient id="yellow-gradient" x1="0%" x2="0%" y1="0%" y2="100%">
      <stop offset="0%" style="stop-color:#FDE02F;stop-opacity:1;"/>
      <stop offset="100%" style="stop-color:#F7B209;stop-opacity:1;"/>
    </linearGradient>
  </defs>
  <g id="color">
    <path d="M43.4573,21.3227c0-5.0582-2.6112-9.1586-5.8323-9.1586s-5.8323,4.1004-5.8323,9.1586c0,4.6982,1.3551,8.5665,4.257,9.0938l0,0 l-0.8108,28.4123c0,1.1046,0.8954,2,2,2s2-0.8954,2-2l-0.0285-28.4181l0,0C42.1071,29.876,43.4573,26.0153,43.4573,21.3227z" fill="#D0CFCE" stroke="none" stroke-linecap="round" stroke-linejoin="round" stroke-miterlimit="10" stroke-width="2"/>
  </g>
  <g id="line">
    <path d="M43.4573,21.3227c0-5.0582-2.6112-9.1586-5.8323-9.1586s-5.8323,4.1004-5.8323,9.1586c0,4.6982,1.3551,8.5665,4.257,9.0938l0,0 l-0.8108,28.4123c0,1.1046,0.8954,2,2,2s2-0.8954,2-2l-0.0285-28.4181l0,0C42.1071,29.876,43.4573,26.0153,43.4573,21.3227z" fill="none" stroke="#000000" stroke-linecap="round" stroke-linejoin="round" stroke-miterlimit="10" stroke-width="2"/>
  </g>
</svg>