<svg viewBox="0 0 72 72" xmlns="http://www.w3.org/2000/svg">
  <defs>
    <linearGradient id="yellow-gradient" x1="0%" x2="0%" y1="0%" y2="100%">
      <stop offset="0%" style="stop-color:#FDE02F;stop-opacity:1;"/>
      <stop offset="100%" style="stop-color:#F7B209;stop-opacity:1;"/>
    </linearGradient>
  </defs>
  <g id="color">
    <polyline fill="#e27022" points="28.0284,22.4271 28.0284,17 43.9716,17 43.9716,22.4271" stroke="none"/>
    <circle cx="36" cy="45.0208" fill="#e27022" r="23" stroke="none" stroke-linecap="round" stroke-linejoin="round" stroke-miterlimit="10" stroke-width="2"/>
    <polyline fill="#92d3f5" points="54.9988,4.0221 43,16.0208 36,16.0208 30.9584,10.9792 37.9207,4.0169 54.9988,4.0169" stroke="#92d3f5" stroke-linecap="round" stroke-linejoin="round" stroke-miterlimit="10" stroke-width="1.8"/>
    <polyline fill="#ea5a47" points="23.9831,4.0039 36,16.0208 29,16.0208 16.9675,3.9883 23.9831,3.9883" stroke="#ea5a47" stroke-linecap="round" stroke-linejoin="round" stroke-miterlimit="10" stroke-width="1.8"/>
  </g>
  <g id="line">
    <circle cx="36" cy="45.0208" fill="none" r="23" stroke="#000000" stroke-miterlimit="10" stroke-width="2"/>
    <circle cx="36" cy="45.0208" fill="none" r="23" stroke="#000000" stroke-linecap="round" stroke-linejoin="round" stroke-miterlimit="10" stroke-width="2"/>
    <line fill="none" stroke="#000000" stroke-linecap="round" stroke-linejoin="round" stroke-miterlimit="10" stroke-width="2" x1="29" x2="29" y1="19" y2="16.0208"/>
    <line fill="none" stroke="#000000" stroke-linecap="round" stroke-linejoin="round" stroke-miterlimit="10" stroke-width="2" x1="43" x2="43" y1="19" y2="16.0208"/>
    <line fill="none" stroke="#000000" stroke-linecap="round" stroke-linejoin="round" stroke-miterlimit="10" stroke-width="2" x1="29" x2="43" y1="16.0208" y2="16.0208"/>
    <line fill="none" stroke="#000000" stroke-linecap="round" stroke-linejoin="round" stroke-miterlimit="10" stroke-width="2" x1="25.9896" x2="16.9675" y1="13.0104" y2="3.9883"/>
    <line fill="none" stroke="#000000" stroke-linecap="round" stroke-linejoin="round" stroke-miterlimit="10" stroke-width="2" x1="31.9896" x2="23.9831" y1="12.0104" y2="4.0039"/>
    <line fill="none" stroke="#000000" stroke-linecap="round" stroke-linejoin="round" stroke-miterlimit="10" stroke-width="2" x1="34" x2="37.9207" y1="8" y2="4.0169"/>
    <line fill="none" stroke="#000000" stroke-linecap="round" stroke-linejoin="round" stroke-miterlimit="10" stroke-width="2" x1="46" x2="54.9988" y1="13" y2="4.0221"/>
    <line fill="none" stroke="#000000" stroke-linecap="round" stroke-linejoin="round" stroke-miterlimit="10" stroke-width="2" x1="16.9675" x2="23.9831" y1="3.9883" y2="3.9883"/>
    <line fill="none" stroke="#000000" stroke-linecap="round" stroke-linejoin="round" stroke-miterlimit="10" stroke-width="2" x1="37.9207" x2="54.9988" y1="4.0169" y2="4.0169"/>
    <path d="M28.8327,52.81c0.6838,2.9621,3.6397,5.19,7.1827,5.19l0,0c4.0493,0,7.3316-2.9101,7.3316-6.5S40.0647,45,36.0154,45 c4.0493,0,7.3316-2.9101,7.3316-6.5S40.0647,32,36.0154,32l0,0c-3.543,0-6.4989,2.2282-7.1827,5.19" fill="none" stroke="#000000" stroke-linecap="round" stroke-linejoin="round" stroke-miterlimit="10" stroke-width="2"/>
  </g>
</svg>