<svg viewBox="0 0 72 72" xmlns="http://www.w3.org/2000/svg">
  <defs>
    <linearGradient id="yellow-gradient" x1="0%" x2="0%" y1="0%" y2="100%">
      <stop offset="0%" style="stop-color:#FDE02F;stop-opacity:1;"/>
      <stop offset="100%" style="stop-color:#F7B209;stop-opacity:1;"/>
    </linearGradient>
  </defs>
  <g id="color">
    <polyline fill="#9b9b9a" points="28.0567,22.4271 28.0567,17 43.915,17 43.915,22.4271" stroke="none"/>
    <polyline fill="#92d3f5" points="54.9988,4.0221 43,16.0208 36,16.0208 30.9584,10.9792 37.9207,4.0169 54.9988,4.0169" stroke="#92d3f5" stroke-linecap="round" stroke-linejoin="round" stroke-miterlimit="10" stroke-width="1.8"/>
    <polyline fill="#ea5a47" points="23.9831,4.0039 36,16.0208 29,16.0208 16.9675,3.9883 23.9831,3.9883" stroke="#ea5a47" stroke-linecap="round" stroke-linejoin="round" stroke-miterlimit="10" stroke-width="1.8"/>
    <circle cx="36" cy="44.9746" fill="#9b9b9a" r="23" stroke="none" stroke-linecap="round" stroke-linejoin="round" stroke-miterlimit="10" stroke-width="2"/>
  </g>
  <g id="line">
    <circle cx="36" cy="44.9746" fill="none" r="23" stroke="#000000" stroke-miterlimit="10" stroke-width="2"/>
    <circle cx="36" cy="44.9746" fill="none" r="23" stroke="#000000" stroke-linecap="round" stroke-linejoin="round" stroke-miterlimit="10" stroke-width="2"/>
    <line fill="none" stroke="#000000" stroke-linecap="round" stroke-linejoin="round" stroke-miterlimit="10" stroke-width="2" x1="29" x2="29" y1="19" y2="16.0208"/>
    <line fill="none" stroke="#000000" stroke-linecap="round" stroke-linejoin="round" stroke-miterlimit="10" stroke-width="2" x1="43" x2="43" y1="19" y2="16.0208"/>
    <line fill="none" stroke="#000000" stroke-linecap="round" stroke-linejoin="round" stroke-miterlimit="10" stroke-width="2" x1="29" x2="43" y1="16.0208" y2="16.0208"/>
    <line fill="none" stroke="#000000" stroke-linecap="round" stroke-linejoin="round" stroke-miterlimit="10" stroke-width="2" x1="25.9896" x2="16.9675" y1="13.0104" y2="3.9883"/>
    <line fill="none" stroke="#000000" stroke-linecap="round" stroke-linejoin="round" stroke-miterlimit="10" stroke-width="2" x1="31.9896" x2="23.9831" y1="12.0104" y2="4.0039"/>
    <line fill="none" stroke="#000000" stroke-linecap="round" stroke-linejoin="round" stroke-miterlimit="10" stroke-width="2" x1="34" x2="37.9207" y1="8" y2="4.0169"/>
    <line fill="none" stroke="#000000" stroke-linecap="round" stroke-linejoin="round" stroke-miterlimit="10" stroke-width="2" x1="46" x2="54.9988" y1="13" y2="4.0221"/>
    <line fill="none" stroke="#000000" stroke-linecap="round" stroke-linejoin="round" stroke-miterlimit="10" stroke-width="2" x1="16.9675" x2="23.9831" y1="3.9883" y2="3.9883"/>
    <line fill="none" stroke="#000000" stroke-linecap="round" stroke-linejoin="round" stroke-miterlimit="10" stroke-width="2" x1="37.9207" x2="54.9988" y1="4.0169" y2="4.0169"/>
    <path d="M28.3219,38.3771C29.0666,34.7378,32.2865,32,36.146,32l0,0c2.2052,0,4.202,0.894,5.6472,2.3393 c2.2483,2.2483,2.0406,5.9841-0.0687,8.3627L28.1595,58h15.9729" fill="none" stroke="#000000" stroke-linecap="round" stroke-linejoin="round" stroke-miterlimit="10" stroke-width="2"/>
  </g>
</svg>