<svg viewBox="7 7 58 58" xmlns="http://www.w3.org/2000/svg">
  <defs>
    <linearGradient id="yellow-gradient" x1="0%" x2="0%" y1="0%" y2="100%">
      <stop offset="0%" style="stop-color:#FDE02F;stop-opacity:1;"/>
      <stop offset="100%" style="stop-color:#F7B209;stop-opacity:1;"/>
    </linearGradient>
  </defs>
  <g id="color">
    <path d="M11.9307,45.9297c-3.9043,3.9043-3.9063,10.2363,0,14.1416c3.9043,3.9053,10.2382,3.9053,14.1425,0.001 l33.9991-34.001c3.9043-3.9063,3.9043-10.2373,0-14.1416c-3.9063-3.9063-10.2373-3.9063-14.1426-0.001L11.9307,45.9297z" fill="#f4aa41" stroke="none"/>
  </g>
  <g id="line">
    <path d="M11.9307,45.9297c-3.9043,3.9043-3.9063,10.2363,0,14.1416c3.9043,3.9053,10.2382,3.9053,14.1425,0.001l33.9991-34.001 c3.9043-3.9063,3.9043-10.2373,0-14.1416c-3.9063-3.9063-10.2373-3.9063-14.1426-0.001L11.9307,45.9297z" fill="none" stroke="#000000" stroke-linecap="round" stroke-linejoin="round" stroke-miterlimit="10" stroke-width="2"/>
    <path d="M45.9297,11.9287c-3.9043,3.9053-3.9043,10.2373,0,14.1426" fill="none" stroke="#000000" stroke-linecap="round" stroke-linejoin="round" stroke-miterlimit="10" stroke-width="2"/>
    <path d="M37.4297,20.4287c-3.9043,3.9053-3.9043,10.2373,0,14.1426" fill="none" stroke="#000000" stroke-linecap="round" stroke-linejoin="round" stroke-miterlimit="10" stroke-width="2"/>
    <path d="M28.9297,28.9287c-3.9033,3.9063-3.9033,10.2383,0,14.1426" fill="none" stroke="#000000" stroke-linecap="round" stroke-linejoin="round" stroke-miterlimit="10" stroke-width="2"/>
    <path d="M20.4307,37.4297c-3.9043,3.9053-3.9043,10.2373,0,14.1426" fill="none" stroke="#000000" stroke-linecap="round" stroke-linejoin="round" stroke-miterlimit="10" stroke-width="2"/>
  </g>
</svg>