<svg viewBox="6 6 60 60" xmlns="http://www.w3.org/2000/svg">
  <defs>
    <linearGradient id="yellow-gradient" x1="0%" x2="0%" y1="0%" y2="100%">
      <stop offset="0%" style="stop-color:#FDE02F;stop-opacity:1;"/>
      <stop offset="100%" style="stop-color:#F7B209;stop-opacity:1;"/>
    </linearGradient>
  </defs>
  <g id="color">
    <path d="M56.2373,30.0635C56,29.5479,52.4746,21.375,49.7412,16.9951C46,11,42.1475,8,36,8 c-6.1475,0-10,3-13.7402,8.9951C19.5254,21.376,16,29.5479,15.7627,30.0635C14.001,33.3164,13,37.041,13,41 c0,12.7021,10.2969,23,23,23s23-10.2979,23-23C59,37.041,57.999,33.3164,56.2373,30.0635z" fill="#FFFFFF" stroke="none"/>
    <path d="M56.2373,30.0635C56,29.5479,49.9746,17.4131,49.7412,16.9951C47.667,13.833,46.25,11.9995,43.0938,9.793 c1.7861,6.0273,3.9199,13.249,4.0605,13.748c1.7578,5.4795,2.7617,11.7276,2.7617,18.3584c0,7.0791-1.1367,13.7051-3.1142,19.4072 C54.0586,57.4385,59,49.7969,59,41C59,37.041,57.999,33.3164,56.2373,30.0635z" fill="#d0cfce" stroke="none"/>
  </g>
  <g id="line">
    <path d="M56.2373,30.0635C56,29.5479,52.4746,21.375,49.7412,16.9951C46,11,42.1475,8,36,8c-6.1475,0-10,3-13.7402,8.9951 C19.5254,21.376,16,29.5479,15.7627,30.0635C14.001,33.3164,13,37.041,13,41c0,12.7021,10.2969,23,23,23s23-10.2979,23-23 C59,37.041,57.999,33.3164,56.2373,30.0635z" fill="none" stroke="#000000" stroke-linecap="round" stroke-linejoin="round" stroke-miterlimit="10" stroke-width="2"/>
  </g>
</svg>