<svg viewBox="10 10 52 52" xmlns="http://www.w3.org/2000/svg">
  <defs>
    <linearGradient id="yellow-gradient" x1="0%" x2="0%" y1="0%" y2="100%">
      <stop offset="0%" style="stop-color:#FDE02F;stop-opacity:1;"/>
      <stop offset="100%" style="stop-color:#F7B209;stop-opacity:1;"/>
    </linearGradient>
  </defs>
  <g id="color">
    <path d="M53.7603,58.9583L18.829,20.2998c-0.781-0.781-2.0474-0.781-2.8284,0c-0.781,0.781-0.781,2.0474,0,2.8284z" fill="#D22F27" stroke="none" stroke-linecap="round" stroke-linejoin="round" stroke-miterlimit="10" stroke-width="2"/>
    <path d="M56.5852,57.4276L30.512,12.3181c-0.6004-0.9271-1.8388-1.192-2.7659-0.5916s-1.192,1.8388-0.5916,2.7659z" fill="#D22F27" stroke="none" stroke-linecap="round" stroke-linejoin="round" stroke-miterlimit="10" stroke-width="2"/>
  </g>
  <g id="line">
    <path d="M53.7603,58.9583L18.829,20.2998c-0.781-0.781-2.0474-0.781-2.8284,0c-0.781,0.781-0.781,2.0474,0,2.8284z" fill="none" stroke="#000000" stroke-linecap="round" stroke-linejoin="round" stroke-miterlimit="10" stroke-width="2"/>
    <path d="M56.5852,57.4276L30.512,12.3181c-0.6004-0.9271-1.8388-1.192-2.7659-0.5916s-1.192,1.8388-0.5916,2.7659z" fill="none" stroke="#000000" stroke-linecap="round" stroke-linejoin="round" stroke-miterlimit="10" stroke-width="2"/>
  </g>
</svg>