<svg viewBox="0 0 72 72" xmlns="http://www.w3.org/2000/svg">
  <defs>
    <linearGradient id="yellow-gradient" x1="0%" x2="0%" y1="0%" y2="100%">
      <stop offset="0%" style="stop-color:#FDE02F;stop-opacity:1;"/>
      <stop offset="100%" style="stop-color:#F7B209;stop-opacity:1;"/>
    </linearGradient>
  </defs>
  <g id="color">
    <path d="M26,27h-7c-7.7334,0-14,6.2666-14,14s6.2666,14,14,14h29c10.4951,0,19-8.5049,19-19s-8.5049-19-19-19 c-5.6934,0-10.79,2.5137-14.2695,6.4805C31.8965,25.6514,29.0645,27,26,27z" fill="#FFFFFF" stroke="none"/>
    <path d="M29,31c2.5,0,4.5029-1.4141,6.8164-3.7266C39.2695,23.8213,42.9746,21,48,21c8.2842,0,15,6.7158,15,15 s-6.7158,15-15,15H19c-5.5234,0-10-4.4775-10-10s4.4766-10,10-10l0.0313-0.9756l10.0312-0.0312L29,31z" fill="#ea5a47" stroke="none"/>
    <circle cx="48" cy="36" fill="#FFFFFF" r="5" stroke="none"/>
  </g>
  <g id="line">
    <path d="M29,31c2.5,0,4.5029-1.4141,6.8164-3.7266C39.2695,23.8213,42.9746,21,48,21c8.2842,0,15,6.7158,15,15s-6.7158,15-15,15H19 c-5.5234,0-10-4.4775-10-10s4.4766-10,10-10" fill="none" stroke="#000000" stroke-linecap="round" stroke-linejoin="round" stroke-miterlimit="10" stroke-width="2"/>
    <path d="M26,27h-7c-7.7334,0-14,6.2666-14,14s6.2666,14,14,14h29c10.4951,0,19-8.5049,19-19s-8.5049-19-19-19 c-5.6934,0-10.79,2.5137-14.2695,6.4805C31.8965,25.6514,29.0645,27,26,27z" fill="none" stroke="#000000" stroke-linecap="round" stroke-linejoin="round" stroke-miterlimit="10" stroke-width="2"/>
    <circle cx="48" cy="36" fill="none" r="5" stroke="#000000" stroke-linecap="round" stroke-linejoin="round" stroke-miterlimit="10" stroke-width="2"/>
  </g>
</svg>