<svg viewBox="6 6 60 60" xmlns="http://www.w3.org/2000/svg">
  <defs>
    <linearGradient id="yellow-gradient" x1="0%" x2="0%" y1="0%" y2="100%">
      <stop offset="0%" style="stop-color:#FDE02F;stop-opacity:1;"/>
      <stop offset="100%" style="stop-color:#F7B209;stop-opacity:1;"/>
    </linearGradient>
  </defs>
  <g id="color">
    <rect fill="#d22f27" height="2" width="4" x="51" y="27"/>
    <rect fill="#d22f27" height="2" width="4" x="17" y="27"/>
    <rect fill="#d22f27" height="2" width="32" x="20" y="49"/>
  </g>
  <g id="line">
    <polyline fill="none" points="17.712 29.958 20.562 54.5 51.437 54.5 54.287 29.958" stroke="#000000" stroke-linecap="round" stroke-linejoin="round" stroke-width="2"/>
    <polyline fill="none" points="54.269 29.956 51.437 54.5 20.562 54.5 17 23.625" stroke="#000000" stroke-linecap="round" stroke-linejoin="round" stroke-width="2"/>
    <line fill="none" stroke="#000000" stroke-linecap="round" stroke-linejoin="round" stroke-width="2" x1="55" x2="54.2695" y1="23.625" y2="29.9563"/>
    <line fill="none" stroke="#000000" stroke-linecap="round" stroke-linejoin="round" stroke-width="2" x1="15" x2="8" y1="22" y2="37"/>
    <line fill="none" stroke="#000000" stroke-linecap="round" stroke-linejoin="round" stroke-width="2" x1="57" x2="64" y1="22" y2="37"/>
    <line fill="none" stroke="#000000" stroke-linecap="round" stroke-linejoin="round" stroke-width="2" x1="20" x2="52" y1="22" y2="22"/>
    <line fill="none" stroke="#000000" stroke-linecap="round" stroke-linejoin="round" stroke-width="2" x1="20" x2="22" y1="22" y2="37"/>
    <line fill="none" stroke="#000000" stroke-linecap="round" stroke-linejoin="round" stroke-width="2" x1="52" x2="50" y1="22" y2="37"/>
    <line fill="none" stroke="#000000" stroke-linecap="round" stroke-linejoin="round" stroke-width="2" x1="22" x2="50" y1="37" y2="37"/>
    <line fill="none" stroke="#000000" stroke-linecap="round" stroke-linejoin="round" stroke-width="2" x1="21" x2="51" y1="51" y2="51"/>
    <line fill="none" stroke="#000000" stroke-linecap="round" stroke-linejoin="round" stroke-width="2" x1="20" x2="51" y1="48" y2="48"/>
    <line fill="none" stroke="#000000" stroke-linecap="round" stroke-linejoin="round" stroke-width="2" x1="18" x2="20" y1="26" y2="26"/>
    <line fill="none" stroke="#000000" stroke-linecap="round" stroke-linejoin="round" stroke-width="2" x1="18" x2="20" y1="29" y2="29"/>
    <line fill="none" stroke="#000000" stroke-linecap="round" stroke-linejoin="round" stroke-width="2" x1="52" x2="54" y1="26" y2="26"/>
    <line fill="none" stroke="#000000" stroke-linecap="round" stroke-linejoin="round" stroke-width="2" x1="52" x2="54" y1="29" y2="29"/>
    <path d="M42,22,54.7087,10.7238A.9611.9611,0,0,0,53.35,9.3646z" fill="none" stroke="#000000" stroke-linecap="round" stroke-linejoin="round" stroke-width="2"/>
    <path d="M38,22,49.32,6.549A.9549.9549,0,0,0,49.0291,5.19a.9967.9967,0,0,0-1.3592.2913z" fill="none" stroke="#000000" stroke-linecap="round" stroke-linejoin="round" stroke-width="2"/>
  </g>
</svg>