<svg viewBox="11 11 50 50" xmlns="http://www.w3.org/2000/svg">
  <defs>
    <linearGradient id="yellow-gradient" x1="0%" x2="0%" y1="0%" y2="100%">
      <stop offset="0%" style="stop-color:#FDE02F;stop-opacity:1;"/>
      <stop offset="100%" style="stop-color:#F7B209;stop-opacity:1;"/>
    </linearGradient>
  </defs>
  <g id="color">
    <g id="color-2">
      <circle cx="36.0001" cy="36" fill="url(#yellow-gradient)" r="22.9999"/>
    </g>
    <path d="M44.5416,46.2169a3.6376,3.6376,0,0,1-1.1052-2.5764c-.0405-3.2205,2.9651-6.34,3.0929-6.4712a.6891.6891,0,0,1,.9748-.0123c.1313.1281,3.2143,3.1713,3.2555,6.3924l0,0a3.6626,3.6626,0,0,1-6.2183,2.6673Z" fill="#92d3f5"/>
  </g>
  <g id="line">
    <circle cx="36" cy="36" fill="none" r="23" stroke="#000" stroke-linecap="round" stroke-linejoin="round" stroke-width="2"/>
    <path d="M44.1521,45.7678a20.0408,20.0408,0,0,1-17.967-.8385" fill="none" stroke="#000" stroke-linecap="round" stroke-linejoin="round" stroke-width="2"/>
    <path d="M30,31a3,3,0,1,1-3-3,3.0011,3.0011,0,0,1,3,3"/>
    <path d="M48,31a3,3,0,1,1-3-3,3.001,3.001,0,0,1,3,3"/>
    <path d="M44.5416,46.2169a3.6376,3.6376,0,0,1-1.1052-2.5764c-.0405-3.2205,2.9651-6.34,3.0929-6.4712a.6891.6891,0,0,1,.9748-.0123c.1313.1281,3.2143,3.1713,3.2555,6.3924l0,0a3.6626,3.6626,0,0,1-6.2183,2.6673Z" fill="none" stroke="#000" stroke-miterlimit="10" stroke-width="2"/>
  </g>
</svg>