<svg viewBox="10 10 52 52" xmlns="http://www.w3.org/2000/svg">
  <defs>
    <linearGradient id="yellow-gradient" x1="0%" x2="0%" y1="0%" y2="100%">
      <stop offset="0%" style="stop-color:#FDE02F;stop-opacity:1;"/>
      <stop offset="100%" style="stop-color:#F7B209;stop-opacity:1;"/>
    </linearGradient>
  </defs>
  <g id="color">
    <circle cx="36" cy="36" fill="url(#yellow-gradient)" r="24"/>
    <path d="m 15.31167,34.681404 c -1.403671,6.3e-5 -2.541455,1.138036 -2.541392,2.541644 0,0.464941 0.127577,0.921034 0.368865,1.318514 l 0.145588,0.214743 4.512669,5.784621 4.539152,-5.820265 c 0.828597,-1.132199 0.582415,-2.721746 -0.549784,-3.550344 -1.132199,-0.828598 -2.721746,-0.582415 -3.550344,0.549784 -0.09225,0.126009 -0.172635,0.260301 -0.240221,0.401058 -0.0529,0.10963 -0.184683,0.155691 -0.294376,0.102727 -0.04487,-0.02165 -0.08108,-0.05786 -0.102728,-0.102727 -0.419444,-0.88219 -1.310545,-1.443081 -2.287429,-1.439755 z" fill="#FFA7C0"/>
    <path d="m 43.60828,14.088184 c -1.403671,6.3e-5 -2.541455,1.138036 -2.541392,2.541644 0,0.464941 0.127577,0.921034 0.368865,1.318514 l 0.145588,0.214743 4.512669,5.784621 4.539152,-5.820265 c 0.828597,-1.132199 0.582415,-2.721746 -0.549784,-3.550344 -1.132199,-0.828598 -2.721746,-0.582415 -3.550344,0.549784 -0.09225,0.126009 -0.172635,0.260301 -0.240221,0.401058 -0.0529,0.10963 -0.184683,0.155691 -0.294376,0.102727 -0.04487,-0.02165 -0.08108,-0.05786 -0.102728,-0.102727 -0.419444,-0.88219 -1.310545,-1.443081 -2.287429,-1.439755 z" fill="#FFA7C0"/>
    <path d="m 46.506585,48.181404 c -1.403671,6.3e-5 -2.541455,1.138036 -2.541392,2.541644 0,0.464941 0.127577,0.921034 0.368865,1.318514 l 0.145588,0.214743 4.512669,5.784621 4.539152,-5.820265 c 0.828597,-1.132199 0.582415,-2.721746 -0.549784,-3.550344 -1.132199,-0.828598 -2.721746,-0.582415 -3.550344,0.549784 -0.09225,0.126009 -0.172635,0.260301 -0.240221,0.401058 -0.0529,0.10963 -0.184683,0.155691 -0.294376,0.102727 -0.04487,-0.02165 -0.08108,-0.05786 -0.102728,-0.102727 -0.419444,-0.88219 -1.310545,-1.443081 -2.287429,-1.439755 z" fill="#FFA7C0"/>
  </g>
  <g id="line">
    <circle cx="36" cy="36" fill="none" r="24" stroke="#000" stroke-width="2"/>
    <path d="M45.815,44.8043 c-5.6998,4.6988-13.9302,4.6988-19.63,0" fill="none" stroke="#000000" stroke-linecap="round" stroke-linejoin="round" stroke-width="2"/>
    <path d="m 46.506585,48.181404 c -1.403671,6.3e-5 -2.541455,1.138036 -2.541392,2.541644 0,0.464941 0.127577,0.921034 0.368865,1.318514 l 0.145588,0.214743 4.512669,5.784621 4.539152,-5.820265 c 0.828597,-1.132199 0.582415,-2.721746 -0.549784,-3.550344 -1.132199,-0.828598 -2.721746,-0.582415 -3.550344,0.549784 -0.09225,0.126009 -0.172635,0.260301 -0.240221,0.401058 -0.0529,0.10963 -0.184683,0.155691 -0.294376,0.102727 -0.04487,-0.02165 -0.08108,-0.05786 -0.102728,-0.102727 -0.419444,-0.88219 -1.310545,-1.443081 -2.287429,-1.439755 z" fill="none" stroke="#000000" stroke-linecap="round" stroke-linejoin="round" stroke-width="2"/>
    <path d="m 15.31167,34.681404 c -1.403671,6.3e-5 -2.541455,1.138036 -2.541392,2.541644 0,0.464941 0.127577,0.921034 0.368865,1.318514 l 0.145588,0.214743 4.512669,5.784621 4.539152,-5.820265 c 0.828597,-1.132199 0.582415,-2.721746 -0.549784,-3.550344 -1.132199,-0.828598 -2.721746,-0.582415 -3.550344,0.549784 -0.09225,0.126009 -0.172635,0.260301 -0.240221,0.401058 -0.0529,0.10963 -0.184683,0.155691 -0.294376,0.102727 -0.04487,-0.02165 -0.08108,-0.05786 -0.102728,-0.102727 -0.419444,-0.88219 -1.310545,-1.443081 -2.287429,-1.439755 z" fill="none" stroke="#000000" stroke-linecap="round" stroke-linejoin="round" stroke-width="2"/>
    <path d="m 43.60828,14.088184 c -1.403671,6.3e-5 -2.541455,1.138036 -2.541392,2.541644 0,0.464941 0.127577,0.921034 0.368865,1.318514 l 0.145588,0.214743 4.512669,5.784621 4.539152,-5.820265 c 0.828597,-1.132199 0.582415,-2.721746 -0.549784,-3.550344 -1.132199,-0.828598 -2.721746,-0.582415 -3.550344,0.549784 -0.09225,0.126009 -0.172635,0.260301 -0.240221,0.401058 -0.0529,0.10963 -0.184683,0.155691 -0.294376,0.102727 -0.04487,-0.02165 -0.08108,-0.05786 -0.102728,-0.102727 -0.419444,-0.88219 -1.310545,-1.443081 -2.287429,-1.439755 z" fill="none" stroke="#000000" stroke-linecap="round" stroke-linejoin="round" stroke-width="2"/>
    <path d="M31.6941,32.4036 c-1.0598-2.3854-3.8527-3.46-6.238-2.4002c-1.0697,0.4752-1.9249,1.3305-2.4002,2.4002" fill="none" stroke="#000000" stroke-linecap="round" stroke-miterlimit="10" stroke-width="2"/>
    <path d="M48.9441,32.4036 c-1.0598-2.3854-3.8527-3.46-6.238-2.4002c-1.0697,0.4752-1.9249,1.3305-2.4002,2.4002" fill="none" stroke="#000000" stroke-linecap="round" stroke-miterlimit="10" stroke-width="2"/>
  </g>
</svg>