<svg viewBox="9 9 54 54" xmlns="http://www.w3.org/2000/svg">
  <defs>
    <linearGradient id="yellow-gradient" x1="0%" x2="0%" y1="0%" y2="100%">
      <stop offset="0%" style="stop-color:#FDE02F;stop-opacity:1;"/>
      <stop offset="100%" style="stop-color:#F7B209;stop-opacity:1;"/>
    </linearGradient>
  </defs>
  <g id="color">
    <rect fill="#F4AA41" height="5" stroke="none" width="5" x="28" y="26"/>
    <rect fill="#F4AA41" height="5" stroke="none" width="5" x="41" y="26"/>
    <path d="M32,30c-6.3454,0.2919-20,0.0758-20,15.8696S34,41,34,41" fill="#E27022" stroke="none"/>
    <path d="M42,30c6.3454,0.2919,20.5808,0.0758,20.5808,15.8696S40,40,40,40" fill="#E27022" stroke="none"/>
    <path d="M40.6391,20.5921c0,0,17.8007-14.2406,17.8007-3.5601s-6.2303,5.3402-8.0103,8.9004 s-4.4502,0.89-4.4502,0.89L42,27l-3,6" fill="#F4AA41" stroke="none"/>
    <path d="M33.3609,20.5921c0,0-17.8007-14.2406-17.8007-3.5601s6.2302,5.3402,8.0103,8.9004S28,27,28,27h5l2,6" fill="#F4AA41" stroke="none"/>
    <ellipse cx="36.921" cy="17.9219" fill="#A57939" rx="3.5601" ry="2.6701" stroke="none"/>
    <ellipse cx="36.921" cy="22.3721" fill="#6A462F" rx="3.5601" ry="1.7801" stroke="none"/>
    <path d="M36.3298,24.309c-8.1753,0.759,0.6444,22.9841,0.6444,22.9841S47.2839,23.292,36.3298,24.309z" fill="#A57939" stroke="none"/>
  </g>
  <g id="line">
    <path d="M40.6391,20.5921c0,0,17.8007-14.2406,17.8007-3.5601s-6.2303,5.3402-8.0103,8.9004s-4.4502,0.89-4.4502,0.89" fill="none" stroke="#000000" stroke-linecap="round" stroke-linejoin="round" stroke-miterlimit="10" stroke-width="2"/>
    <line fill="none" stroke="#000000" stroke-linecap="round" stroke-linejoin="round" stroke-miterlimit="10" stroke-width="2" x1="35.1409" x2="33.3609" y1="14.771" y2="11.5817"/>
    <line fill="none" stroke="#000000" stroke-linecap="round" stroke-linejoin="round" stroke-miterlimit="10" stroke-width="2" x1="38.9977" x2="40.4811" y1="14.8452" y2="11.5817"/>
    <path d="M33.3609,20.5921c0,0-17.8007-14.2406-17.8007-3.5601s6.2302,5.3402,8.0103,8.9004s4.4502,0.89,4.4502,0.89" fill="none" stroke="#000000" stroke-linecap="round" stroke-linejoin="round" stroke-miterlimit="10" stroke-width="2"/>
    <ellipse cx="36.921" cy="17.9219" fill="none" rx="3.5601" ry="2.6701" stroke="#000000" stroke-linecap="round" stroke-linejoin="round" stroke-miterlimit="10" stroke-width="2"/>
    <ellipse cx="36.921" cy="22.3721" fill="none" rx="3.5601" ry="1.7801" stroke="#000000" stroke-linecap="round" stroke-linejoin="round" stroke-miterlimit="10" stroke-width="2"/>
    <path d="M36.3298,24.309c-8.1753,0.759,0.6444,22.9841,0.6444,22.9841S47.2839,23.292,36.3298,24.309z" fill="none" stroke="#000000" stroke-linecap="round" stroke-linejoin="round" stroke-miterlimit="10" stroke-width="2"/>
    <path d="M28,31c-6.3454,0.2919-16-0.9242-16,14.8696s19.5808-3.9167,19.5808-3.9167" fill="none" stroke="#000000" stroke-linecap="round" stroke-linejoin="round" stroke-miterlimit="10" stroke-width="2"/>
    <path d="M46.5808,31c6.3454,0.2919,16-0.9242,16,14.8696S43,41.9529,43,41.9529" fill="none" stroke="#000000" stroke-linecap="round" stroke-linejoin="round" stroke-miterlimit="10" stroke-width="2"/>
  </g>
</svg>