<svg viewBox="0 0 72 72" xmlns="http://www.w3.org/2000/svg">
  <defs>
    <linearGradient id="yellow-gradient" x1="0%" x2="0%" y1="0%" y2="100%">
      <stop offset="0%" style="stop-color:#FDE02F;stop-opacity:1;"/>
      <stop offset="100%" style="stop-color:#F7B209;stop-opacity:1;"/>
    </linearGradient>
  </defs>
  <g id="color">
    <path d="M39.9167,47.3583c0,0,7.8819-2.3583,13.9826-0.8583S68,46,68,46s-7.6667,0.6667-15.3333-3.6667 S39,40.8333,32.5,40.4167c-6.5-0.4167-14.1667-4.5833-17.8333-7C11,31,8.5833,31.25,8.5833,31.25S8,32,6,33s-5,2,1,4 s8.8333,5.8333,8.8333,5.8333S21.8333,48.8583,39.9167,47.3583z" fill="#B1CC33" stroke="none"/>
  </g>
  <g id="line">
    <path d="M39.9167,46.5c0,0,7.8819-1.5,13.9826,0S68,46,68,46s-7.6667,0.6667-15.3333-3.6667S39,40.8333,32.5,40.4167 c-6.5-0.4167-14.1667-4.5833-17.8333-7C11,31,8.5833,31.25,8.5833,31.25S8,32,6,33s-5,2,1,4s8.8333,4.8333,8.8333,4.8333" fill="none" stroke="#000000" stroke-linecap="round" stroke-linejoin="round" stroke-miterlimit="10" stroke-width="2"/>
    <path d="M21.387,45.0264c0,0,5.7159,1.8069,10.613,1.3902" fill="none" stroke="#000000" stroke-linecap="round" stroke-linejoin="round" stroke-miterlimit="10" stroke-width="2"/>
    <line fill="none" stroke="#000000" stroke-linecap="round" stroke-linejoin="round" stroke-miterlimit="10" stroke-width="2" x1="19" x2="16" y1="43" y2="50"/>
    <line fill="none" stroke="#000000" stroke-linecap="round" stroke-linejoin="round" stroke-miterlimit="10" stroke-width="2" x1="16" x2="15" y1="48" y2="48"/>
    <line fill="none" stroke="#000000" stroke-linecap="round" stroke-linejoin="round" stroke-miterlimit="10" stroke-width="2" x1="17" x2="18" y1="48" y2="49"/>
    <line fill="none" stroke="#000000" stroke-linecap="round" stroke-linejoin="round" stroke-miterlimit="10" stroke-width="2" x1="36.5466" x2="36.0791" y1="46.5061" y2="53.3712"/>
    <line fill="none" stroke="#000000" stroke-linecap="round" stroke-linejoin="round" stroke-miterlimit="10" stroke-width="2" x1="35.4177" x2="34.4902" y1="51.7302" y2="52.104"/>
    <line fill="none" stroke="#000000" stroke-linecap="round" stroke-linejoin="round" stroke-miterlimit="10" stroke-width="2" x1="36.3451" x2="37.6034" y1="51.3563" y2="51.803"/>
  </g>
</svg>