<svg viewBox="6 6 60 60" xmlns="http://www.w3.org/2000/svg">
  <defs>
    <linearGradient id="yellow-gradient" x1="0%" x2="0%" y1="0%" y2="100%">
      <stop offset="0%" style="stop-color:#FDE02F;stop-opacity:1;"/>
      <stop offset="100%" style="stop-color:#F7B209;stop-opacity:1;"/>
    </linearGradient>
  </defs>
  <g id="color">
    <path d="M16.7701,49.5304c0,0-5.6081-13.4595,14.5811-12.3379c0,0,4.4865-20.1893,32.5272-26.919 c0,0,5.6081,26.919-23.5541,38.1353c0,0,0,8.973,8.973,11.2163c1.2317,0.3079,3.0236-0.3413,3.3649,0 c2.2433,2.2433-12.3379,4.4865-15.7028,3.3649v-6.7298c0,0-7.8514,0-11.2163-8.973 C25.7431,47.2871,23.4998,42.8006,16.7701,49.5304z" fill="#A57939" stroke="none"/>
    <path d="M33.5945,30.3411c0,0,0-20.0676,6.7298-23.4325c0,0,5.6081,4.4865,4.4865,11.2163L33.5945,30.3411z" fill="#6A462F" stroke="none"/>
    <path d="M26.2427,46.3372c0,0-4.1575-2.4149-9.3514,3.1932c0,0-6.4923-13.1612,15.5815-12.7495L26.2427,46.3372z" fill="#FFFFFF" stroke="none"/>
    <polygon fill="url(#yellow-gradient)" points="16.1536,43.2699 20.0972,45.7027 16.7701,48.4087" stroke="none"/>
  </g>
  <g id="line">
    <path d="M43.6891,14.76c0-4.4865-3.3649-6.7298-3.3649-6.7298c-6.7298,4.4865-6.7298,17.946-7.8514,24.6758 c-0.4206,2.5237-0.6835,3.6278-1.321,4.1207c-1.0625,0.8215-3.1655-0.0548-8.7737,1.1136 c-8.973,1.8694-5.6081,11.5901-5.6081,11.5901c6.7298-6.7298,8.973-2.2433,8.973-2.2433 c3.3649,10.0946,10.0946,8.973,10.0946,8.973c1.1216,4.4865,0,6.7298,0,6.7298c3.3649,3.3649,26.919-3.3649,15.2354-4.1126 c-11.6836-0.7478-10.7489-10.4685-10.7489-10.4685c4.1408-2.3005,7.6106-4.6848,10.5155-7.0871c0,0,0.7008-1.8859-1.5425-7.494" fill="none" stroke="#000000" stroke-linecap="round" stroke-linejoin="round" stroke-miterlimit="10" stroke-width="2"/>
    <path d="M31.3512,37.1925c1.1216-7.8514,13.4595-17.946,13.4595-17.946S57.1486,10.2735,65,10.2735c0,0,0,16.8244-10.0946,28.0406 c0,0,0-6.7298-2.2433-8.973" fill="none" stroke="#000000" stroke-linecap="round" stroke-linejoin="round" stroke-miterlimit="10" stroke-width="2"/>
    <path d="M30.0193,54.2272L29.108,59.625c0,0-3.3775-1.1341-4.4865,0" fill="none" stroke="#000000" stroke-linecap="round" stroke-linejoin="round" stroke-miterlimit="10" stroke-width="2"/>
    <path d="M29.108,59.625c0,0,2.2433,0,2.2433,1.1216" fill="none" stroke="#000000" stroke-linecap="round" stroke-linejoin="round" stroke-miterlimit="10" stroke-width="2"/>
  </g>
</svg>