<svg viewBox="8 8 56 56" xmlns="http://www.w3.org/2000/svg">
  <defs>
    <linearGradient id="yellow-gradient" x1="0%" x2="0%" y1="0%" y2="100%">
      <stop offset="0%" style="stop-color:#FDE02F;stop-opacity:1;"/>
      <stop offset="100%" style="stop-color:#F7B209;stop-opacity:1;"/>
    </linearGradient>
  </defs>
  <g id="color">
    <path d="M58,46h3c0,0-5,10-23,9c0,0-7,0-15-8c0,0,1,7-4,5s-6-5-4-12l25,4" fill="#5C9E31" stroke="none"/>
    <polygon fill="#B1CC33" points="39,50 56,35 54,46" stroke="none"/>
  </g>
  <g id="line">
    <polyline fill="none" points="8,36 14,40 11,34" stroke="#000000" stroke-linecap="round" stroke-linejoin="round" stroke-miterlimit="10" stroke-width="2"/>
    <polyline fill="none" points="27.1439,51.2523 24,59 21,59" stroke="#000000" stroke-linecap="round" stroke-linejoin="round" stroke-miterlimit="10" stroke-width="2"/>
    <polyline fill="none" points="32.8504,54.1235 31,59 35,59" stroke="#000000" stroke-linecap="round" stroke-linejoin="round" stroke-miterlimit="10" stroke-width="2"/>
    <path d="M58,46h3c0,0-5,10-23,9c0,0-7,0-15-8c0,0,1,7-4,5s-6-5-4-12l25,4" fill="none" stroke="#000000" stroke-linecap="round" stroke-linejoin="round" stroke-miterlimit="10" stroke-width="2"/>
    <polyline fill="none" points="56,59 52,59 57,34 39,49" stroke="#000000" stroke-linecap="round" stroke-linejoin="round" stroke-miterlimit="10" stroke-width="2"/>
  </g>
</svg>