<svg viewBox="12 12 48 48" xmlns="http://www.w3.org/2000/svg">
  <defs>
    <linearGradient id="yellow-gradient" x1="0%" x2="0%" y1="0%" y2="100%">
      <stop offset="0%" style="stop-color:#FDE02F;stop-opacity:1;"/>
      <stop offset="100%" style="stop-color:#F7B209;stop-opacity:1;"/>
    </linearGradient>
  </defs>
  <g id="color">
    <path d="M16,53.86H53.82C54,51,56,48.11,56,45.19c0-13.57-11.31-27.14-31.66-27.14-3,0-5.75,2.14-8.34,2.68Z" fill="#e27022" stroke="#e27022" stroke-miterlimit="10" stroke-width="2"/>
    <path d="M16,53.89H46.34c-1.63-9-3.77-16.69-3.77-16.69C29.46,37.2,23.47,41.77,16,42Z" fill="url(#yellow-gradient)" stroke="url(#yellow-gradient)" stroke-miterlimit="10" stroke-width="2"/>
  </g>
  <g id="line">
    <path d="M55.75,54c.17-2.85.25-5.81.25-8.76C56,31.67,44.69,18.1,24.34,18.1a40.5956,40.5956,0,0,0-8.34.86" fill="none" stroke="#000" stroke-linecap="round" stroke-linejoin="round" stroke-width="2"/>
    <path d="M48.48,54a78.845,78.845,0,0,0-6-17.81c-13,0-19,3.5-26.43,3.78" fill="none" stroke="#000" stroke-linecap="round" stroke-linejoin="round" stroke-width="2"/>
  </g>
</svg>