<svg viewBox="8 8 56 56" xmlns="http://www.w3.org/2000/svg">
  <defs>
    <linearGradient id="yellow-gradient" x1="0%" x2="0%" y1="0%" y2="100%">
      <stop offset="0%" style="stop-color:#FDE02F;stop-opacity:1;"/>
      <stop offset="100%" style="stop-color:#F7B209;stop-opacity:1;"/>
    </linearGradient>
  </defs>
  <g id="color">
    <path d="M53.5813,29.472a3.5128,3.5128,0,0,1-1,.0729H35.4045a1.0029,1.0029,0,0,0-1,1v2.0076a1.0029,1.0029,0,0,0,1,1H56.5888a1.0029,1.0029,0,0,0,1-1V11.3682a1.0029,1.0029,0,0,0-1-1H54.5813a1.0029,1.0029,0,0,0-1,1V29.472Z" fill="#a57939"/>
    <path d="M41.3058,33.5525c-7.8,2.8289-8.5532,11.1565-8.5532,11.1565l-9.29.1483a14.883,14.883,0,0,1,1.9152,7.0546l10.81.1463v-.1463a12.4838,12.4838,0,1,1,24.9676,0c1.7835-10.7-3.5667-19.6176-3.5667-19.6176" fill="#ea5a47"/>
    <circle cx="48.1964" cy="50.8002" fill="#d0cfce" r="6.2912"/>
    <circle cx="15.1762" cy="50.8002" fill="#d0cfce" r="6.2912"/>
  </g>
  <g id="line">
    <path d="M23.6968,45.7191a10.9438,10.9438,0,0,1,1.6812,6.1928l10.81.1463v-.1463a12.4838,12.4838,0,1,1,24.9676,0c1.7835-10.7-3.5667-19.6176-3.5667-19.6176" fill="none" stroke="#000" stroke-linecap="round" stroke-linejoin="round" stroke-width="2"/>
    <path d="M41.3058,33.5525c-7.8,2.8289-8.7086,12.14-8.7086,12.14l-4.079.0123" fill="none" stroke="#000" stroke-linecap="round" stroke-linejoin="round" stroke-width="2"/>
    <circle cx="48.1964" cy="50.8002" fill="none" r="6.2912" stroke="#000" stroke-miterlimit="10" stroke-width="2"/>
    <path d="M25.378,51.9119a12.505,12.505,0,0,0-8.3441-11.7237" fill="none" stroke="#000" stroke-linecap="round" stroke-linejoin="round" stroke-width="2"/>
    <path d="M53.5813,29.472a3.5128,3.5128,0,0,1-1,.0729H35.4045a1.0029,1.0029,0,0,0-1,1v2.0076a1.0029,1.0029,0,0,0,1,1H56.5888a1.0029,1.0029,0,0,0,1-1V11.3682a1.0029,1.0029,0,0,0-1-1H54.5813a1.0029,1.0029,0,0,0-1,1V29.472Z" fill="none" stroke="#000" stroke-linecap="round" stroke-linejoin="round" stroke-width="2"/>
    <polyline fill="none" points="21.275 42.528 30.619 20.544 34.405 20.581 37.301 20.61" stroke="#000" stroke-linecap="round" stroke-linejoin="round" stroke-width="2"/>
    <line fill="none" stroke="#000" stroke-linecap="round" stroke-linejoin="round" stroke-width="2" x1="34.4045" x2="34.4045" y1="18.4809" y2="20.581"/>
    <circle cx="15.1762" cy="50.7988" fill="none" r="6.2911" stroke="#000" stroke-miterlimit="10" stroke-width="2" transform="translate(-1.1795 0.3674) rotate(-1.3352)"/>
  </g>
</svg>