<svg viewBox="12 12 48 48" xmlns="http://www.w3.org/2000/svg">
  <defs>
    <linearGradient id="yellow-gradient" x1="0%" x2="0%" y1="0%" y2="100%">
      <stop offset="0%" style="stop-color:#FDE02F;stop-opacity:1;"/>
      <stop offset="100%" style="stop-color:#F7B209;stop-opacity:1;"/>
    </linearGradient>
  </defs>
  <g id="skin">
    <path d="M38,13s2,18,2,23c0,4.1231-2.1716,7.5858-5,9-4,2-14,7-19,7H12.6a4.8944,4.8944,0,0,0-.6,2.5A3.5,3.5,0,0,0,15.5,58H49a5,5,0,0,0,5-5c0-6-3-11-3-17s3-23,3-23V12H38Z" fill="url(#yellow-gradient)"/>
  </g>
  <g id="skin-shadow">
    <path d="M45.5,58H49a5,5,0,0,0,5-5c0-6-3-11-3-17s3-23,3-23V12H50s-3,17-3,23,3,11,3,17a5,5,0,0,1-5,5Z" fill="#f1b31c"/>
  </g>
  <g id="line">
    <path d="M38,13s2,18,2,23c0,4.1231-2.1716,7.5858-5,9-4,2-14,7-19,7H12.6a4.8944,4.8944,0,0,0-.6,2.5A3.5,3.5,0,0,0,15.5,58H49a5,5,0,0,0,5-5c0-6-3-11-3-17s3-23,3-23" fill="none" stroke="#000" stroke-linecap="round" stroke-linejoin="round" stroke-width="2"/>
    <path d="M48,47a4,4,0,0,1-4,4" fill="none" stroke="#000" stroke-linecap="round" stroke-miterlimit="10" stroke-width="2"/>
  </g>
</svg>