<svg viewBox="10 10 52 52" xmlns="http://www.w3.org/2000/svg">
  <defs>
    <linearGradient id="yellow-gradient" x1="0%" x2="0%" y1="0%" y2="100%">
      <stop offset="0%" style="stop-color:#FDE02F;stop-opacity:1;"/>
      <stop offset="100%" style="stop-color:#F7B209;stop-opacity:1;"/>
    </linearGradient>
  </defs>
  <g id="hair">
    <path d="M26,38.0571c-3,0-4-7-4-14c0-6,5-12,14-12s14,6,14,12c0,7-1,14-4,14" fill="#a57939"/>
  </g>
  <g id="skin">
    <path d="M24.969,31.0571c-0.1015,7.999,4.9365,14,11,14c5.9365,0,11.0635-6,11.0635-14c0-5-3-11-3-11 c-8,0-10,3-16,1C28.033,21.0571,25.033,26.0571,24.969,31.0571z" fill="#fadcbc"/>
  </g>
  <g id="color">
    <path d="M35.65,45.1c-3.4-0.1-8.6-5.7-8.6-5.7h-13.6c1.5916,2.7161,3.0272,5.5207,4.3,8.4 c1.281,3.1916,2.2196,6.5102,2.8,9.9h30.9c0.5804-3.3898,1.519-6.7084,2.8-9.9c1.2728-2.8793,2.7084-5.6839,4.3-8.4h-13.9 C44.75,39.4,39.15,45.1,35.65,45.1z" fill="#D22F27"/>
    <path d="M17,61v-3.8c0-5,5-9,10-9c6,5,12,5,18,0c5,0,10,4,10,9V61H17z" fill="#3F3F3F"/>
    <path d="M31.45,61h9c3.6-2.9,5.6-13.5,5.6-13.5c-5.7672,5-14.3328,5-20.1,0C25.95,47.4,27.95,58,31.45,61z"/>
  </g>
  <g id="line">
    <path d="M26,38.0571c-3,0-4-7-4-14 c0-6,5-12,14-12s14,6,14,12c0,7-1,14-4,14" fill="none" stroke="#000000" stroke-linecap="round" stroke-linejoin="round" stroke-width="2"/>
    <path d="M24.969,31.0571c-0.1015,7.999,4.9365,14,11,14 c5.9365,0,11.0635-6,11.0635-14c0-5-3-11-3-11c-8,0-10,3-16,1C28.033,21.0571,25.033,26.0571,24.969,31.0571z" fill="none" stroke="#000000" stroke-linejoin="round" stroke-width="2"/>
    <path d="M26.5,39.4H13.4 c1.6694,2.6727,3.1079,5.4829,4.3,8.4c0.5072,1.2402,0.9413,2.509,1.3,3.8" fill="none" stroke="#000000" stroke-linejoin="round" stroke-width="2"/>
    <path d="M53,51.4c0.4-1.2,0.8-2.4,1.3-3.6 c1.1713-2.9266,2.6108-5.7385,4.3-8.4H44.7" fill="none" stroke="#000000" stroke-linejoin="round" stroke-width="2"/>
    <path d="M42,30.1c0,1.1046-0.8954,2-2,2s-2-0.8954-2-2s0.8954-2,2-2C41.1032,28.1032,41.9968,28.9968,42,30.1"/>
    <path d="M34,30.1c0,1.1046-0.8954,2-2,2c-1.1046,0-2-0.8954-2-2s0.8954-2,2-2C33.1032,28.1032,33.9968,28.9968,34,30.1"/>
    <path d="M33,39 c1.875-1,4.125-1,6,0" fill="none" stroke="#000000" stroke-linecap="round" stroke-linejoin="round" stroke-width="2"/>
    <path d="M38,38.5 c0.2408,0.0816,0.4748,0.1819,0.7,0.3" fill="none" stroke="#000000" stroke-linecap="round" stroke-linejoin="round"/>
    <path d="M17,60v-3c0-5,5-9,10-9 c6,5,12,5,18,0c5,0,10,4,10,9v3" fill="none" stroke="#000000" stroke-linecap="round" stroke-linejoin="round" stroke-width="2"/>
    <polygon points="34,38.7 34.3,41.1 35.1,38.8 35,38.7" stroke="#000000" stroke-linecap="round" stroke-linejoin="round"/>
    <polygon points="37.9,38.7 37.7,41.1 36.9,38.8 36.8,38.7" stroke="#000000" stroke-linecap="round" stroke-linejoin="round"/>
  </g>
</svg>