<svg viewBox="10 10 52 52" xmlns="http://www.w3.org/2000/svg">
  <defs>
    <linearGradient id="yellow-gradient" x1="0%" x2="0%" y1="0%" y2="100%">
      <stop offset="0%" style="stop-color:#FDE02F;stop-opacity:1;"/>
      <stop offset="100%" style="stop-color:#F7B209;stop-opacity:1;"/>
    </linearGradient>
  </defs>
  <g id="color">
    <path d="M16.6483,58.8573s-2.1-14.9,9.9-14.9c3.1919,2.1279,6.0264,3.7984,9.1,3.7921l.2749.1c3.0737.0063,5.9081-1.8642,9.1-3.9921,11.5646-.0346,9.509,14.9,9.74,15" fill="#fff"/>
    <circle cx="24.6141" cy="54.7818" fill="#9b9b9a" r="3"/>
    <path d="M45.0771,43.8448c-3.17,2.1133-5.275,3.5-9.3375,4.0886,13.0625.4114,12.9625,6.9114,13.7247,10.9114h5.1128S57.1915,43.8426,45.0771,43.8448Z" fill="#d0cfce"/>
  </g>
  <g id="hair">
    <path d="M26,36.5808c-4,0-4-6-4-13s4-14,14-14,14,7,14,14,0,13-4,13" fill="#a57939"/>
  </g>
  <g id="skin">
    <path d="M24.9365,28.5808c0,9,4.9365,14,11,14,5.9365,0,11.0635-5,11.0635-14a12.1371,12.1371,0,0,0-1-5c-3-3-7-8-7-8-4,3-7,6-13,7.0005C26,22.5808,24.9365,23.58,24.9365,28.5808Z" fill="url(#yellow-gradient)"/>
  </g>
  <g id="line">
    <path d="M41.9529,27.0468a2,2,0,1,1-2-2,2.0007,2.0007,0,0,1,2,2"/>
    <path d="M33.9529,27.0468a2,2,0,1,1-2-2,2.0007,2.0007,0,0,1,2,2"/>
    <path d="M35.9527,37.0492a7.6524,7.6524,0,0,1-3.4472-.8579,1,1,0,1,1,.8945-1.789,5.3779,5.3779,0,0,0,5.1055,0,1,1,0,1,1,.8945,1.789A7.6528,7.6528,0,0,1,35.9527,37.0492Z"/>
    <circle cx="24.6141" cy="54.7818" fill="none" r="3" stroke="#000" stroke-linecap="round" stroke-linejoin="round" stroke-width="2"/>
    <path d="M24.6141,51.7818s-1.3273-5.46,2.2791-9.2021" fill="none" stroke="#000" stroke-linecap="round" stroke-linejoin="round" stroke-width="2"/>
    <path d="M49.9156,45.9787C56.1221,49.097,54.7678,57.9,54.7678,57.9" fill="none" stroke="#000" stroke-linecap="round" stroke-linejoin="round" stroke-width="2"/>
    <path d="M28.5935,45.99c2.4969,1.5232,4.7846,2.5066,7.2993,2.5014h-.125a13.3645,13.3645,0,0,0,6.86-2.2377" fill="none" stroke="#000" stroke-linecap="round" stroke-linejoin="round" stroke-width="2"/>
    <path d="M16.8928,57.9S15.4582,48.5749,22.3089,45.72" fill="none" stroke="#000" stroke-linecap="round" stroke-linejoin="round" stroke-width="2"/>
    <path d="M44.4576,42.58c1.5847,1.6445,2.4274,5.3192,2.4274,5.3192-3.4246.1134-3.3095,3.8829-3.3095,3.8829s-.7793,5.5625,1.6548,5.4316L45.0658,58.83l.2835-2.963" fill="none" stroke="#000" stroke-linecap="round" stroke-linejoin="round" stroke-width="2"/>
    <path d="M47.2913,47.8989c3.4246.1134,3.31,3.8829,3.31,3.8829s.7793,5.5625-1.6549,5.4316l.1645,1.6162-.2835-2.963" fill="none" stroke="#000" stroke-linecap="round" stroke-linejoin="round" stroke-width="2"/>
    <line fill="none" stroke="#000" stroke-linecap="round" stroke-linejoin="round" stroke-width="2" x1="29.9529" x2="35.6105" y1="46.7668" y2="57.8996"/>
    <line fill="none" stroke="#000" stroke-linecap="round" stroke-linejoin="round" stroke-width="2" x1="41.2681" x2="35.6105" y1="46.9968" y2="57.8996"/>
    <path d="M26,36.5808c-4,0-4-6-4-13s4-14,14-14,14,7,14,14,0,13-4,13" fill="none" stroke="#000" stroke-linecap="round" stroke-linejoin="round" stroke-width="2"/>
    <path d="M24.9365,28.5808c0,9,4.9365,14,11,14,5.9365,0,11.0635-5,11.0635-14a12.1371,12.1371,0,0,0-1-5c-3-3-7-8-7-8-4,3-7,6-13,7.0005C26,22.5808,24.9365,23.58,24.9365,28.5808Z" fill="none" stroke="#000" stroke-linejoin="round" stroke-width="2"/>
  </g>
</svg>