<svg viewBox="0 0 72 72" xmlns="http://www.w3.org/2000/svg">
  <defs>
    <linearGradient id="yellow-gradient" x1="0%" x2="0%" y1="0%" y2="100%">
      <stop offset="0%" style="stop-color:#FDE02F;stop-opacity:1;"/>
      <stop offset="100%" style="stop-color:#F7B209;stop-opacity:1;"/>
    </linearGradient>
  </defs>
  <g id="color">
    <g>
      <rect fill="#d22f27" height="62" width="38" x="17" y="5"/>
      <circle cx="36" cy="27" fill="#f1b31c" r="10"/>
    </g>
  </g>
  <g id="line">
    <g>
      <g>
        <line fill="none" stroke="#000" stroke-linecap="round" stroke-linejoin="round" x1="31.8871" x2="31.8871" y1="21.4132" y2="23.8668"/>
        <path d="M29.9242,23.8669h3.8493A12.01,12.01,0,0,1,29.7,28.85" fill="none" stroke="#000" stroke-linecap="round" stroke-linejoin="round"/>
        <path d="M33.5868,28.2638a5.2377,5.2377,0,0,1-1.7-1.4514v5.7744" fill="none" stroke="#000" stroke-linecap="round" stroke-linejoin="round"/>
        <line fill="none" stroke="#000" stroke-linecap="round" stroke-linejoin="round" x1="34.8121" x2="41.7" y1="22.1481" y2="22.1481"/>
        <rect fill="none" height="2.0098" stroke="#000" stroke-linecap="round" stroke-linejoin="round" width="4.488" x="35.9805" y="23.8402"/>
        <polyline fill="none" points="35.37 32.537 35.37 27.615 38.268 27.615 41.166 27.615 41.166 32.537" stroke="#000" stroke-linecap="round" stroke-linejoin="round"/>
        <line fill="none" stroke="#000" stroke-linecap="round" stroke-linejoin="round" x1="35.3697" x2="41.1664" y1="29.6667" y2="29.6667"/>
        <line fill="none" stroke="#000" stroke-linecap="round" stroke-linejoin="round" x1="35.3697" x2="41.1664" y1="31.7164" y2="31.7164"/>
        <line fill="none" stroke="#000" stroke-linecap="round" stroke-linejoin="round" x1="38.2294" x2="38.2294" y1="31.7164" y2="27.6149"/>
      </g>
      <g>
        <circle cx="36" cy="27" fill="none" r="10" stroke="#000" stroke-linecap="round" stroke-miterlimit="10" stroke-width="2"/>
        <g>
          <path d="M55,18a25.4,25.4,0,0,1-9.2886,6.6522" fill="none" stroke="#000" stroke-linecap="round" stroke-miterlimit="10" stroke-width="2"/>
          <path d="M26.2886,24.6522A25.4,25.4,0,0,1,17,18" fill="none" stroke="#000" stroke-linecap="round" stroke-miterlimit="10" stroke-width="2"/>
        </g>
      </g>
      <rect fill="none" height="62" stroke="#000" stroke-linejoin="round" stroke-width="2" width="38" x="17" y="5"/>
    </g>
  </g>
</svg>