<svg viewBox="10 10 52 52" xmlns="http://www.w3.org/2000/svg">
  <defs>
    <linearGradient id="yellow-gradient" x1="0%" x2="0%" y1="0%" y2="100%">
      <stop offset="0%" style="stop-color:#FDE02F;stop-opacity:1;"/>
      <stop offset="100%" style="stop-color:#F7B209;stop-opacity:1;"/>
    </linearGradient>
  </defs>
  <g id="line-supplement">
    <polyline points="33.2 33.2 48 24 38.8 38.8"/>
  </g>
  <g id="color">
    <circle cx="36" cy="36" fill="url(#yellow-gradient)" r="24"/>
    <path d="M53,19A24.0417,24.0417,0,0,1,36,60a24.302,24.302,0,0,1-17-7" fill="#f1b31c"/>
    <polyline fill="#fff" points="33.2 33.2 24 48 38.8 38.8"/>
    <polyline fill="#ea5a47" points="33.2 33.2 48 24 38.8 38.8"/>
  </g>
  <g id="line">
    <circle cx="36" cy="36" fill="none" r="24" stroke="#000" stroke-linecap="round" stroke-linejoin="round" stroke-width="2"/>
    <polyline fill="none" points="33.2 33.2 24 48 38.8 38.8" stroke="#000" stroke-linecap="round" stroke-linejoin="round" stroke-width="2"/>
    <polyline fill="none" points="33.2 33.2 48 24 38.8 38.8" stroke="#000" stroke-linecap="round" stroke-linejoin="round" stroke-width="2"/>
    <line fill="none" stroke="#000" stroke-linecap="round" stroke-linejoin="round" stroke-width="2" x1="36" x2="36" y1="21" y2="16"/>
    <line fill="none" stroke="#000" stroke-linecap="round" stroke-linejoin="round" stroke-width="2" x1="36" x2="36" y1="56" y2="51"/>
    <line fill="none" stroke="#000" stroke-linecap="round" stroke-linejoin="round" stroke-width="2" x1="51" x2="56" y1="36" y2="36"/>
    <line fill="none" stroke="#000" stroke-linecap="round" stroke-linejoin="round" stroke-width="2" x1="16" x2="21" y1="36" y2="36"/>
  </g>
</svg>