<svg viewBox="0 0 72 72" xmlns="http://www.w3.org/2000/svg">
  <defs>
    <linearGradient id="yellow-gradient" x1="0%" x2="0%" y1="0%" y2="100%">
      <stop offset="0%" style="stop-color:#FDE02F;stop-opacity:1;"/>
      <stop offset="100%" style="stop-color:#F7B209;stop-opacity:1;"/>
    </linearGradient>
  </defs>
  <g id="color">
    <path d="M44.75,28.1191V64H26.47V28.1191a8.9827,8.9827,0,0,1,5.93-8.7063,6.3683,6.3683,0,0,1,.65-.176h.01a7.4867,7.4867,0,0,1,1.66-.1868H36.5C41.06,19.05,44.75,23.1064,44.75,28.1191Z" fill="#d22f27"/>
    <path d="M38.33,26.723V64H26.47V28.1191a8.9827,8.9827,0,0,1,5.93-8.7063,6.3683,6.3683,0,0,1,.65-.176h.01a7.4867,7.4867,0,0,1,1.66-.1868h.15A9.844,9.844,0,0,1,38.33,26.723Z" fill="#ea5a47"/>
    <rect fill="#ea5a47" height="8.704" width="4.186" x="33.518" y="9.9768"/>
    <rect fill="#d0cfce" height="7.0465" transform="translate(55.5374 -26.9172) rotate(90)" width="3.1867" x="39.6339" y="10.7868"/>
    <path d="M33.52,12.7167H28.8791a4.5108,4.5108,0,0,0-3.7455,1.9973L19.63,22.9146a1.5943,1.5943,0,0,0,.6751,2.34,1.6527,1.6527,0,0,0,2.0226-.6418l4.475-6.7034a4.5109,4.5109,0,0,1,3.7516-2.0062H33.52Z" fill="#d0cfce"/>
    <polygon fill="#d0cfce" points="44.751 12.412 44.751 14.243 44.751 14.415 44.751 16.245 56.844 18.864 56.844 14.415 56.844 14.243 56.844 9.793 44.751 12.412"/>
    <rect fill="#fff" height="5.6744" width="9.3953" x="30.9133" y="29.2839"/>
  </g>
  <g id="line">
    <path d="M35.611,19.0521h0a9.14,9.14,0,0,1,9.14,9.14V63.1053a.8909.8909,0,0,1-.8909.8909H27.3624a.8909.8909,0,0,1-.8909-.8909V28.1916A9.14,9.14,0,0,1,35.611,19.0521Z" fill="none" stroke="#000" stroke-linecap="round" stroke-linejoin="round" stroke-width="2"/>
    <rect fill="none" height="8.704" stroke="#000" stroke-linecap="round" stroke-linejoin="round" stroke-width="2" width="4.186" x="33.518" y="9.9768"/>
    <rect fill="none" height="7.0465" stroke="#000" stroke-linecap="round" stroke-linejoin="round" stroke-width="2" transform="translate(55.5374 -26.9172) rotate(90)" width="3.1867" x="39.6339" y="10.7868"/>
    <path d="M33.52,12.7167H28.8791a4.5108,4.5108,0,0,0-3.7455,1.9973L19.63,22.9146a1.5943,1.5943,0,0,0,.6751,2.34,1.6527,1.6527,0,0,0,2.0226-.6418l4.475-6.7034a4.5109,4.5109,0,0,1,3.7516-2.0062H33.52Z" fill="none" stroke="#000" stroke-linecap="round" stroke-linejoin="round" stroke-width="2"/>
    <polygon fill="none" points="44.751 12.412 44.751 14.243 44.751 14.415 44.751 16.245 56.844 18.864 56.844 14.415 56.844 14.243 56.844 9.793 44.751 12.412" stroke="#000" stroke-linecap="round" stroke-linejoin="round" stroke-width="2"/>
    <rect fill="none" height="5.6744" stroke="#000" stroke-linecap="round" stroke-linejoin="round" stroke-width="2" width="9.3953" x="30.9133" y="29.2839"/>
  </g>
</svg>