<svg viewBox="0 0 72 72" xmlns="http://www.w3.org/2000/svg">
  <defs>
    <linearGradient id="yellow-gradient" x1="0%" x2="0%" y1="0%" y2="100%">
      <stop offset="0%" style="stop-color:#FDE02F;stop-opacity:1;"/>
      <stop offset="100%" style="stop-color:#F7B209;stop-opacity:1;"/>
    </linearGradient>
  </defs>
  <g id="line-supplement">
    <g>
      <line fill="none" stroke="#000" stroke-linecap="round" stroke-miterlimit="10" stroke-width="2" x1="62" x2="67.6569" y1="23" y2="21.5858"/>
      <line fill="none" stroke="#000" stroke-linecap="round" stroke-miterlimit="10" stroke-width="2" x1="55" x2="56.4142" y1="14.3431" y2="20"/>
      <line fill="none" stroke="#000" stroke-linecap="round" stroke-miterlimit="10" stroke-width="2" x1="60" x2="63" y1="20" y2="15"/>
    </g>
  </g>
  <g id="color">
    <rect fill="#d22f27" height="13" rx="1" transform="translate(-19.8266 27.6939) rotate(-45)" width="40" x="3.5162" y="31.2797"/>
    <g>
      <line fill="none" stroke="url(#yellow-gradient)" stroke-linecap="round" stroke-miterlimit="10" stroke-width="2" x1="62" x2="67.6569" y1="23" y2="21.5858"/>
      <line fill="none" stroke="url(#yellow-gradient)" stroke-linecap="round" stroke-miterlimit="10" stroke-width="2" x1="55" x2="56.4142" y1="14.3431" y2="20"/>
      <line fill="none" stroke="url(#yellow-gradient)" stroke-linecap="round" stroke-miterlimit="10" stroke-width="2" x1="60" x2="63" y1="20" y2="15"/>
    </g>
  </g>
  <g id="line">
    <rect fill="none" height="13" rx="1" stroke="#000" stroke-linejoin="round" stroke-width="2" transform="translate(-19.8266 27.6939) rotate(-45)" width="40" x="3.5162" y="31.2797"/>
    <path d="M58,23.28s-2.7574,6.8285-7,4,.4721-8.7639-4-11c-4-2-9.3417,7.3573-9.3417,7.3573" fill="none" stroke="#000" stroke-linecap="round" stroke-linejoin="round" stroke-width="2"/>
  </g>
</svg>