<svg viewBox="8 8 56 56" xmlns="http://www.w3.org/2000/svg">
  <defs>
    <linearGradient id="yellow-gradient" x1="0%" x2="0%" y1="0%" y2="100%">
      <stop offset="0%" style="stop-color:#FDE02F;stop-opacity:1;"/>
      <stop offset="100%" style="stop-color:#F7B209;stop-opacity:1;"/>
    </linearGradient>
  </defs>
  <g id="color">
    <path d="M43.5,36.5V47a8.5,8.5,0,0,1-17,0V36.5h-6V47a14.5,14.5,0,0,0,29,0V36.5Z" fill="#ea5a47"/>
    <g>
      <rect fill="#d0cfce" height="5" width="6" x="20.5" y="31.5"/>
      <rect fill="#d0cfce" height="5" width="6" x="43.5" y="31.5"/>
    </g>
    <path d="M44.8818,19.7754a1.283,1.283,0,0,0-1.26-.9072H38.6973l3.4609-7.75a1,1,0,0,0-1.6455-1.0889L29.4214,21.958a1.327,1.327,0,0,0-.2788,1.4512,1.37,1.37,0,0,0,1.2666.85h4.8789l-4.9946,8.05a1.0006,1.0006,0,0,0,.2124,1.2988c.227.1875.38.3145.5717.3145.4,0,.9659-.5567,2.7163-2.2783L44.21,21.3711A1.4519,1.4519,0,0,0,44.8818,19.7754Z" fill="url(#yellow-gradient)"/>
  </g>
  <g id="line">
    <path d="M43.5,36.5V47a8.5,8.5,0,0,1-17,0V36.5h-6V47a14.5,14.5,0,0,0,29,0V36.5Z" fill="none" stroke="#000" stroke-linecap="round" stroke-linejoin="round" stroke-width="2"/>
    <g>
      <rect fill="none" height="5" stroke="#000" stroke-linecap="round" stroke-linejoin="round" stroke-width="2" width="6" x="20.5" y="31.5"/>
      <rect fill="none" height="5" stroke="#000" stroke-linecap="round" stroke-linejoin="round" stroke-width="2" width="6" x="43.5" y="31.5"/>
    </g>
    <path d="M44.8818,19.7754a1.283,1.283,0,0,0-1.26-.9072H38.6973l3.4609-7.75a1,1,0,0,0-1.6455-1.0889L29.4214,21.958a1.327,1.327,0,0,0-.2788,1.4512,1.37,1.37,0,0,0,1.2666.85h4.8789l-4.9946,8.05a1.0006,1.0006,0,0,0,.2124,1.2988c.227.1875.38.3145.5717.3145.4,0,.9659-.5567,2.7163-2.2783L44.21,21.3711A1.4519,1.4519,0,0,0,44.8818,19.7754Z" fill="none" stroke="#000" stroke-miterlimit="10" stroke-width="2"/>
  </g>
</svg>