<svg viewBox="10 10 52 52" xmlns="http://www.w3.org/2000/svg">
  <defs>
    <linearGradient id="yellow-gradient" x1="0%" x2="0%" y1="0%" y2="100%">
      <stop offset="0%" style="stop-color:#FDE02F;stop-opacity:1;"/>
      <stop offset="100%" style="stop-color:#F7B209;stop-opacity:1;"/>
    </linearGradient>
  </defs>
  <g id="color">
    <polyline fill="#d0cfce" points="49.224 17.187 53.891 12.36 17.207 12.36 21.875 17.187"/>
    <polyline fill="#d0cfce" points="49.224 54.526 53.891 59.353 17.207 59.353 21.875 54.526"/>
    <rect fill="#ea5a47" height="37.5202" width="27.3651" x="22.0343" y="17.1871"/>
    <rect fill="#d22f27" height="37.5202" width="6.4737" x="42.9257" y="17.1871"/>
  </g>
  <g id="line">
    <polyline fill="none" points="49.224 17.187 53.891 12.36 17.207 12.36 21.875 17.187" stroke="#000" stroke-linecap="round" stroke-linejoin="round" stroke-width="2"/>
    <line fill="none" stroke="#000" stroke-linecap="round" stroke-linejoin="round" stroke-width="2.1579" x1="21.8746" x2="49.2242" y1="17.1871" y2="17.1871"/>
    <line fill="none" stroke="#000" stroke-linecap="round" stroke-linejoin="round" stroke-width="2.1579" x1="22.2017" x2="49.232" y1="54.7073" y2="54.7073"/>
    <polyline fill="none" points="49.224 54.707 53.891 59.534 17.207 59.534 21.875 54.707" stroke="#000" stroke-linecap="round" stroke-linejoin="round" stroke-width="2"/>
    <g>
      <line fill="none" stroke="#000" stroke-linecap="round" stroke-linejoin="round" stroke-width="2" x1="22.0343" x2="49.0646" y1="17.1871" y2="17.1871"/>
      <line fill="none" stroke="#000" stroke-linecap="round" stroke-linejoin="round" stroke-width="2" x1="22.0115" x2="49.0874" y1="22.5471" y2="22.5471"/>
      <line fill="none" stroke="#000" stroke-linecap="round" stroke-linejoin="round" stroke-width="2" x1="21.9887" x2="49.1102" y1="27.9071" y2="27.9071"/>
      <line fill="none" stroke="#000" stroke-linecap="round" stroke-linejoin="round" stroke-width="2" x1="21.9659" x2="49.133" y1="33.2672" y2="33.2672"/>
      <line fill="none" stroke="#000" stroke-linecap="round" stroke-linejoin="round" stroke-width="2" x1="21.943" x2="49.1558" y1="38.6272" y2="38.6272"/>
      <line fill="none" stroke="#000" stroke-linecap="round" stroke-linejoin="round" stroke-width="2" x1="21.9202" x2="49.1786" y1="43.9872" y2="43.9872"/>
      <line fill="none" stroke="#000" stroke-linecap="round" stroke-linejoin="round" stroke-width="2" x1="21.8974" x2="49.2014" y1="49.3472" y2="49.3472"/>
      <line fill="none" stroke="#000" stroke-linecap="round" stroke-linejoin="round" stroke-width="2" x1="21.8746" x2="49.2242" y1="54.7073" y2="54.7073"/>
    </g>
    <path d="M22.2017,43.9829h27.03a9.5279,9.5279,0,0,1,5.6467,2.5918c3.2368,3.2368,5.9341,5.9342,11.3288,5.3947" fill="none" stroke="#000" stroke-linecap="round" stroke-linejoin="round" stroke-width="2"/>
  </g>
</svg>