<svg viewBox="12 12 48 48" xmlns="http://www.w3.org/2000/svg">
  <defs>
    <linearGradient id="yellow-gradient" x1="0%" x2="0%" y1="0%" y2="100%">
      <stop offset="0%" style="stop-color:#FDE02F;stop-opacity:1;"/>
      <stop offset="100%" style="stop-color:#F7B209;stop-opacity:1;"/>
    </linearGradient>
  </defs>
  <g id="color">
    <g>
      <rect fill="#d22f27" height="9" stroke="#d22f27" stroke-linecap="round" stroke-linejoin="round" stroke-width="2" width="17" x="15" y="45"/>
      <rect fill="#d22f27" height="8" stroke="#d22f27" stroke-linecap="round" stroke-linejoin="round" stroke-width="2" width="16" x="33" y="46"/>
      <rect fill="#d22f27" height="9" stroke="#d22f27" stroke-linecap="round" stroke-linejoin="round" stroke-width="2" width="17" x="40" y="36"/>
      <rect fill="#d22f27" height="7" stroke="#d22f27" stroke-linecap="round" stroke-linejoin="round" stroke-width="2" width="16" x="23" y="37"/>
      <rect fill="#d22f27" height="9" stroke="#d22f27" stroke-linecap="round" stroke-linejoin="round" stroke-width="2" width="17" x="15" y="27"/>
      <rect fill="#d22f27" height="9" stroke="#d22f27" stroke-linecap="round" stroke-linejoin="round" stroke-width="2" width="17" x="32" y="27"/>
      <rect fill="#d22f27" height="9" stroke="#d22f27" stroke-linecap="round" stroke-linejoin="round" stroke-width="2" width="17" x="40" y="18"/>
      <rect fill="#d22f27" height="9" stroke="#d22f27" stroke-linecap="round" stroke-linejoin="round" stroke-width="2" width="17" x="23" y="18"/>
    </g>
  </g>
  <g id="line">
    <g>
      <line fill="none" stroke="#000" stroke-linecap="round" stroke-linejoin="round" stroke-width="2" x1="32" x2="32" y1="36" y2="27"/>
      <line fill="none" stroke="#000" stroke-linecap="round" stroke-linejoin="round" stroke-width="2" x1="54" x2="15" y1="27" y2="27"/>
      <line fill="none" stroke="#000" stroke-linecap="round" stroke-linejoin="round" stroke-width="2" x1="40" x2="40" y1="19" y2="27"/>
      <line fill="none" stroke="#000" stroke-linecap="round" stroke-linejoin="round" stroke-width="2" x1="58" x2="19" y1="36" y2="36"/>
      <line fill="none" stroke="#000" stroke-linecap="round" stroke-linejoin="round" stroke-width="2" x1="40" x2="40" y1="45" y2="36"/>
      <line fill="none" stroke="#000" stroke-linecap="round" stroke-linejoin="round" stroke-width="2" x1="52" x2="19" y1="45" y2="45"/>
      <line fill="none" stroke="#000" stroke-linecap="round" stroke-linejoin="round" stroke-width="2" x1="32" x2="32" y1="53" y2="45"/>
      <line fill="none" stroke="#000" stroke-linecap="round" stroke-linejoin="round" stroke-width="2" x1="47" x2="20" y1="18" y2="18"/>
      <line fill="none" stroke="#000" stroke-linecap="round" stroke-linejoin="round" stroke-width="2" x1="23" x2="23" y1="18" y2="27"/>
      <line fill="none" stroke="#000" stroke-linecap="round" stroke-linejoin="round" stroke-width="2" x1="23" x2="23" y1="45" y2="41"/>
      <line fill="none" stroke="#000" stroke-linecap="round" stroke-linejoin="round" stroke-width="2" x1="32" x2="32" y1="36" y2="27"/>
      <line fill="none" stroke="#000" stroke-linecap="round" stroke-linejoin="round" stroke-width="2" x1="49" x2="49" y1="46" y2="51"/>
      <line fill="none" stroke="#000" stroke-linecap="round" stroke-linejoin="round" stroke-width="2" x1="44" x2="26" y1="54" y2="54"/>
      <line fill="none" stroke="#000" stroke-linecap="round" stroke-linejoin="round" stroke-width="2" x1="57" x2="57" y1="40" y2="36"/>
    </g>
  </g>
</svg>