<svg viewBox="6 6 60 60" xmlns="http://www.w3.org/2000/svg">
  <defs>
    <linearGradient id="yellow-gradient" x1="0%" x2="0%" y1="0%" y2="100%">
      <stop offset="0%" style="stop-color:#FDE02F;stop-opacity:1;"/>
      <stop offset="100%" style="stop-color:#F7B209;stop-opacity:1;"/>
    </linearGradient>
  </defs>
  <g id="color">
    <path d="M60.709,28.9912A24.6027,24.6027,0,0,0,36.1416,8.417c-13.7193,0-24.841,10.88-24.841,24.3005,0,0,3.0573-1.8827,5.1108-.2893a.7149.7149,0,0,0,.7445.0778,11.63,11.63,0,0,1,10.1763.0629.7128.7128,0,0,0,.5473.06c1.5773-.4857,9.6051-2.708,16.679-.0346a.75.75,0,0,0,.6163-.0411,11.6416,11.6416,0,0,1,10.1442-.05.7254.7254,0,0,0,.7574-.0829c2.0348-1.5919,4.906.1853,4.906.1853" fill="#b1cc33"/>
    <path d="M55.72,32.5682C51.2562,7.0727,36.1416,8.417,36.1416,8.417s7.76.7192,8.73,24.2229A10.0731,10.0731,0,0,1,55.72,32.5682Z" fill="#5c9e31"/>
    <path d="M56.3414,31.952c1.6572-.05,3.4387-.54,5.5345.6879,0-20.2924-21.8072-23.19-21.8072-23.19s4.8854,1.1285,9.3779,6.7089Z" fill="#5c9e31"/>
    <rect height="6.5859" rx="1.4199" width="6.5859" x="32.0805" y="58.353"/>
  </g>
  <g id="line">
    <path d="M60.9824,32.6058,38.6664,59.7729" fill="none" stroke="#000" stroke-linecap="round" stroke-linejoin="round" stroke-width="2"/>
    <path d="M60.709,28.9912A24.6027,24.6027,0,0,0,36.1416,8.417c-13.7193,0-24.841,10.88-24.841,24.3005,0,0,3.0573-1.8827,5.1108-.2893a.7149.7149,0,0,0,.7445.0778,11.63,11.63,0,0,1,10.1763.0629.7128.7128,0,0,0,.5473.06c1.5773-.4857,9.6051-2.708,16.679-.0346a.75.75,0,0,0,.6163-.0411,11.6416,11.6416,0,0,1,10.1442-.05.7254.7254,0,0,0,.7574-.0829c2.0348-1.5919,4.906.1853,4.906.1853" fill="none" stroke="#000" stroke-linecap="round" stroke-linejoin="round" stroke-width="2"/>
    <path d="M16.7606,32.57C21.2242,7.0746,36.1416,8.417,36.1416,8.417s-7.5643.7338-8.5346,24.2376l6.78,25.0408" fill="none" stroke="#000" stroke-linecap="round" stroke-linejoin="round" stroke-width="2"/>
    <path d="M44.8716,32.64,37.2465,58.353" fill="none" stroke="#000" stroke-linecap="round" stroke-linejoin="round" stroke-width="2"/>
    <path d="M55.72,32.5682C51.2562,7.0727,36.1416,8.417,36.1416,8.417s7.76.7192,8.73,24.2229" fill="none" stroke="#000" stroke-linecap="round" stroke-linejoin="round" stroke-width="2"/>
    <line fill="none" stroke="#000" stroke-linecap="round" stroke-linejoin="round" stroke-width="2" x1="16.7606" x2="33.5004" y1="32.6598" y2="58.353"/>
    <line fill="none" stroke="#000" stroke-linecap="round" stroke-linejoin="round" stroke-width="2" x1="55.7199" x2="37.2465" y1="32.6898" y2="58.353"/>
    <line fill="none" stroke="#000" stroke-linecap="round" stroke-linejoin="round" stroke-width="2" x1="11.3006" x2="32.0805" y1="32.7175" y2="59.7729"/>
    <rect fill="none" height="6.5859" rx="1.4199" stroke="#000" stroke-linecap="round" stroke-linejoin="round" stroke-width="2" width="6.5859" x="32.0805" y="58.353"/>
  </g>
</svg>