<svg viewBox="5 5 62 62" xmlns="http://www.w3.org/2000/svg">
  <defs>
    <linearGradient id="yellow-gradient" x1="0%" x2="0%" y1="0%" y2="100%">
      <stop offset="0%" style="stop-color:#FDE02F;stop-opacity:1;"/>
      <stop offset="100%" style="stop-color:#F7B209;stop-opacity:1;"/>
    </linearGradient>
  </defs>
  <g id="line-supplement">
    <rect height="32.1987" transform="matrix(.70797 .70624 -.70624 .70797 36.025 -14.836)" width="4.6535" x="33.6248" y="20.0448"/>
  </g>
  <g id="color">
    <rect fill="#3f3f3f" height="32.1987" transform="rotate(44.93 35.952 36.144)" width="4.6535" x="33.6248" y="20.0448"/>
    <circle cx="47.5749" cy="10.9583" fill="url(#yellow-gradient)" r="2"/>
    <circle cx="56" cy="28.3101" fill="url(#yellow-gradient)" r="2"/>
  </g>
  <g id="line">
    <rect fill="none" height="53.5249" rx="0.4398" stroke="#000" stroke-miterlimit="10" stroke-width="2" transform="matrix(.70797 .70624 -.70624 .70797 35.953 -14.8682)" width="3.3851" x="34.2628" y="9.2771"/>
    <line fill="none" stroke="#000" stroke-miterlimit="10" stroke-width="2" x1="45.3062" x2="47.6346" y1="23.8732" y2="26.0854"/>
    <line fill="none" stroke="#000" stroke-miterlimit="10" stroke-width="2" x1="23.4413" x2="25.8379" y1="46.1937" y2="48.5844"/>
    <line fill="none" stroke="#000" stroke-linecap="round" stroke-miterlimit="10" stroke-width="2" x1="47.5749" x2="47.5749" y1="8.9583" y2="7.2929"/>
    <line fill="none" stroke="#000" stroke-linecap="round" stroke-miterlimit="10" stroke-width="2" x1="47.5749" x2="47.5749" y1="14.6237" y2="12.9583"/>
    <line fill="none" stroke="#000" stroke-linecap="round" stroke-miterlimit="10" stroke-width="2" x1="45.5749" x2="43.9096" y1="10.9583" y2="10.9583"/>
    <line fill="none" stroke="#000" stroke-linecap="round" stroke-miterlimit="10" stroke-width="2" x1="51.2403" x2="49.5749" y1="10.9583" y2="10.9583"/>
    <line fill="none" stroke="#000" stroke-linecap="round" stroke-miterlimit="10" stroke-width="2" x1="56" x2="56" y1="26.3101" y2="24.6447"/>
    <line fill="none" stroke="#000" stroke-linecap="round" stroke-miterlimit="10" stroke-width="2" x1="56" x2="56" y1="31.9755" y2="30.3101"/>
    <line fill="none" stroke="#000" stroke-linecap="round" stroke-miterlimit="10" stroke-width="2" x1="54" x2="52.3346" y1="28.3101" y2="28.3101"/>
    <line fill="none" stroke="#000" stroke-linecap="round" stroke-miterlimit="10" stroke-width="2" x1="59.6654" x2="58" y1="28.3101" y2="28.3101"/>
  </g>
</svg>