<svg viewBox="5 5 62 62" xmlns="http://www.w3.org/2000/svg">
  <defs>
    <linearGradient id="yellow-gradient" x1="0%" x2="0%" y1="0%" y2="100%">
      <stop offset="0%" style="stop-color:#FDE02F;stop-opacity:1;"/>
      <stop offset="100%" style="stop-color:#F7B209;stop-opacity:1;"/>
    </linearGradient>
  </defs>
  <g id="color">
    <path d="M28.3493,64.0547a14.1852,14.1852,0,0,1-9.08-25.083,1,1,0,0,1,1.6318.8994c-.7138,5.3779,5.1221,9.1143,5.1817,9.1514a1.0006,1.0006,0,0,1-.5313,1.8476H20.9782a7.438,7.438,0,0,0,14.8086-1V23a8.91,8.91,0,1,1,6.747.2344V49.87A14.2007,14.2007,0,0,1,28.3493,64.0547ZM39.445,12.7188a2.1643,2.1643,0,1,0,2.164,2.164A2.1664,2.1664,0,0,0,39.445,12.7188Z" fill="#9b9b9a"/>
  </g>
  <g id="line">
    <path d="M25.5511,49.87s-6.4505-4.0285-5.64-10.1295L19.91,39.74A13.1848,13.1848,0,1,0,41.5335,49.87V22.5059a7.9115,7.9115,0,1,0-4.7465-.18V49.87a8.4382,8.4382,0,1,1-16.8763,0h.8339M41.2972,17.4489a3.1645,3.1645,0,1,1,1.3123-2.566" fill="none" stroke="#000" stroke-linecap="round" stroke-linejoin="round" stroke-width="2"/>
  </g>
</svg>