<svg viewBox="12 12 48 48" xmlns="http://www.w3.org/2000/svg">
  <defs>
    <linearGradient id="yellow-gradient" x1="0%" x2="0%" y1="0%" y2="100%">
      <stop offset="0%" style="stop-color:#FDE02F;stop-opacity:1;"/>
      <stop offset="100%" style="stop-color:#F7B209;stop-opacity:1;"/>
    </linearGradient>
  </defs>
  <g id="color">
    <circle cx="31.0752" cy="31.0752" fill="#1e50a0" r="15.9318"/>
    <path d="M31.1391,25.3086a6.83,6.83,0,0,0-3.1626-.4173,6.8188,6.8188,0,0,0-1.3688-2.88l-.0962-.0884-.0962.0884a7.1959,7.1959,0,0,0-1.3688,2.88,6.83,6.83,0,0,0-3.1626.4173l-.1132.0651.0552.1183a7.1677,7.1677,0,0,0,2.3152,2.1859,6.8412,6.8412,0,0,0-.6005,3.1348l.0268.1278.13-.0158A7.2429,7.2429,0,0,0,26.5115,29.4a7.1092,7.1092,0,0,0,2.7793,1.5246l.13.0158.0269-.1278a6.8058,6.8058,0,0,0-.5654-3.1348,7.1688,7.1688,0,0,0,2.3152-2.1859l.0552-.1183Z" fill="#92d3f5"/>
    <circle cx="46" cy="46" fill="#1e50a0" r="15"/>
    <path d="M45.8609,40.3086a6.83,6.83,0,0,1,3.1626-.4173,6.8188,6.8188,0,0,1,1.3688-2.88l.0962-.0884.0962.0884a7.1959,7.1959,0,0,1,1.3688,2.88,6.83,6.83,0,0,1,3.1626.4173l.1132.0651-.0552.1183a7.1677,7.1677,0,0,1-2.3152,2.1859,6.8412,6.8412,0,0,1,.6005,3.1348l-.0268.1278-.13-.0158A7.2429,7.2429,0,0,1,50.4885,44.4a7.1092,7.1092,0,0,1-2.7793,1.5246l-.13.0158-.0269-.1278a6.8058,6.8058,0,0,1,.5654-3.1348,7.1688,7.1688,0,0,1-2.3152-2.1859l-.0552-.1183Z" fill="#92d3f5"/>
  </g>
  <g id="line">
    <path d="M31.1391,25.3086a6.83,6.83,0,0,0-3.1626-.4173,6.8188,6.8188,0,0,0-1.3688-2.88l-.0962-.0884-.0962.0884a7.1959,7.1959,0,0,0-1.3688,2.88,6.83,6.83,0,0,0-3.1626.4173l-.1132.0651.0552.1183a7.1677,7.1677,0,0,0,2.3152,2.1859,6.8412,6.8412,0,0,0-.6005,3.1348l.0268.1278.13-.0158A7.2429,7.2429,0,0,0,26.5115,29.4a7.1092,7.1092,0,0,0,2.7793,1.5246l.13.0158.0269-.1278a6.8058,6.8058,0,0,0-.5654-3.1348,7.1688,7.1688,0,0,0,2.3152-2.1859l.0552-.1183Z" fill="none" stroke="#000" stroke-linecap="round" stroke-linejoin="round" stroke-width="2"/>
    <path d="M26.5114,45.3169A15.0024,15.0024,0,1,1,45.5271,27.2485" fill="none" stroke="#000" stroke-linecap="round" stroke-linejoin="round" stroke-width="2"/>
    <path d="M45.8609,40.3086a6.83,6.83,0,0,1,3.1626-.4173,6.8188,6.8188,0,0,1,1.3688-2.88l.0962-.0884.0962.0884a7.1959,7.1959,0,0,1,1.3688,2.88,6.83,6.83,0,0,1,3.1626.4173l.1132.0651-.0552.1183a7.1677,7.1677,0,0,1-2.3152,2.1859,6.8412,6.8412,0,0,1,.6005,3.1348l-.0268.1278-.13-.0158A7.2429,7.2429,0,0,1,50.4885,44.4a7.1092,7.1092,0,0,1-2.7793,1.5246l-.13.0158-.0269-.1278a6.8058,6.8058,0,0,1,.5654-3.1348,7.1688,7.1688,0,0,1-2.3152-2.1859l-.0552-.1183Z" fill="none" stroke="#000" stroke-linecap="round" stroke-linejoin="round" stroke-width="2"/>
    <circle cx="46" cy="46" fill="none" r="15" stroke="#000" stroke-linecap="round" stroke-linejoin="round" stroke-width="2"/>
  </g>
</svg>