<svg viewBox="0 0 72 72" xmlns="http://www.w3.org/2000/svg">
  <defs>
    <linearGradient id="yellow-gradient" x1="0%" x2="0%" y1="0%" y2="100%">
      <stop offset="0%" style="stop-color:#FDE02F;stop-opacity:1;"/>
      <stop offset="100%" style="stop-color:#F7B209;stop-opacity:1;"/>
    </linearGradient>
  </defs>
  <g id="color">
    <polygon fill="#3F3F3F" points="50.2632,20.2344 46.5538,24.269 55.7618,32.9375 16.2382,32.9375 25.4458,24.269 21.7368,20.2344 5,35.998 21.7368,51.7646 25.4458,47.7314 16.2449,39.0664 55.7551,39.0664 46.5538,47.7314 50.2632,51.7646 67,35.998" stroke="none" stroke-linecap="round" stroke-linejoin="round" stroke-miterlimit="10" stroke-width="2"/>
  </g>
  <g id="line">
    <polygon fill="none" points="50.2632,20.2344 46.5538,24.269 55.7618,32.9375 16.2382,32.9375 25.4458,24.269 21.7368,20.2344 5,35.998 21.7368,51.7646 25.4458,47.7314 16.2449,39.0664 55.7551,39.0664 46.5538,47.7314 50.2632,51.7646 67,35.998" stroke="#000000" stroke-linecap="round" stroke-linejoin="round" stroke-miterlimit="10" stroke-width="2"/>
  </g>
</svg>