<svg viewBox="6 6 60 60" xmlns="http://www.w3.org/2000/svg">
  <defs>
    <linearGradient id="yellow-gradient" x1="0%" x2="0%" y1="0%" y2="100%">
      <stop offset="0%" style="stop-color:#FDE02F;stop-opacity:1;"/>
      <stop offset="100%" style="stop-color:#F7B209;stop-opacity:1;"/>
    </linearGradient>
  </defs>
  <g id="color">
    <path d="M53.9958,40.5232h0.6992c1.1,0,2-0.9,2-2 v-5.1541c0-1.1-0.9-2-2-2h-0.6991H50v9.1648L53.9958,40.5232z" fill="#9b9b9a" stroke="#9b9b9a" stroke-miterlimit="10" stroke-width="2"/>
    <path d="M25,21V9c0-0.5523,0.4477-1,1-1h20 c0.5523,0,1,0.4477,1,1v12" fill="#9b9b9a" stroke="none" stroke-miterlimit="10" stroke-width="2"/>
    <path d="M47,51v12c0,0.5523-0.4477,1-1,1H26 c-0.5523,0-1-0.4477-1-1V51" fill="#9b9b9a" stroke="#9b9b9a" stroke-miterlimit="10" stroke-width="2"/>
    <path d="M48,51H24c-1.1,0-2-0.9-2-2V23c0-1.1,0.9-2,2-2 h24c1.1,0,2,0.9,2,2v26C50,50.1,49.1,51,48,51z" fill="#d0cfce" stroke="#d0cfce" stroke-miterlimit="10" stroke-width="2"/>
  </g>
  <g id="line">
    <path d="M25,21V9c0-0.5523,0.4477-1,1-1h20 c0.5523,0,1,0.4477,1,1v12" fill="none" stroke="#000000" stroke-miterlimit="10" stroke-width="2"/>
    <polyline fill="none" points="35.8442,26.1875 35.8442,36.1875 44.1558,36.1875" stroke="#000000" stroke-linecap="round" stroke-linejoin="round" stroke-miterlimit="10" stroke-width="2"/>
    <polyline fill="none" points="47,54.9997 47,64 25,64 25,54.9997" stroke="#000000" stroke-linecap="round" stroke-linejoin="round" stroke-miterlimit="10" stroke-width="2"/>
    <polyline fill="none" points="25,17.0003 25,8 47,8 47,17.0003" stroke="#000000" stroke-linecap="round" stroke-linejoin="round" stroke-miterlimit="10" stroke-width="2"/>
    <path d="M53.9959,31.3691h0.6991c1.1,0,2,0.9,2,2v5.1541c0,1.1-0.9,2-2,2h-0.6992" fill="none" stroke="#000000" stroke-linecap="round" stroke-linejoin="round" stroke-miterlimit="10" stroke-width="2"/>
    <path d="M48,51H24c-1.1,0-2-0.9-2-2V23c0-1.1,0.9-2,2-2h24c1.1,0,2,0.9,2,2v26C50,50.1,49.1,51,48,51z" fill="none" stroke="#000000" stroke-linecap="round" stroke-linejoin="round" stroke-miterlimit="10" stroke-width="2"/>
    <polyline fill="none" points="35.8442,26.1875 35.8442,36.1875 44.1558,36.1875" stroke="#000000" stroke-linecap="round" stroke-linejoin="round" stroke-miterlimit="10" stroke-width="2"/>
  </g>
</svg>