<svg viewBox="6 6 60 60" xmlns="http://www.w3.org/2000/svg">
  <defs>
    <linearGradient id="yellow-gradient" x1="0%" x2="0%" y1="0%" y2="100%">
      <stop offset="0%" style="stop-color:#FDE02F;stop-opacity:1;"/>
      <stop offset="100%" style="stop-color:#F7B209;stop-opacity:1;"/>
    </linearGradient>
  </defs>
  <g id="color">
    <path d="M44.0449,43H27.9561C25.1357,45.584,24,49.665,24,52.3184V59h24v-6.6816 C48,49.665,46.8643,45.584,44.0449,43z" fill="#9B9B9A" stroke="none"/>
    <path d="M55,11c0,1.1001-0.9004,2-2,2H19c-1.0996,0-2-0.8999-2-2v-1c0-1.1001,0.9004-2,2-2h34c1.0996,0,2,0.8999,2,2 V11z" fill="#a57939" stroke="none"/>
    <path d="M55,62c0,1.0996-0.9004,2-2,2H19c-1.0996,0-2-0.9004-2-2v-1c0-1.0996,0.9004-2,2-2h34c1.0996,0,2,0.9004,2,2 V62z" fill="#a57939" stroke="none"/>
  </g>
  <g id="line">
    <path d="M31,34c-7.2725-1.9092-10-9.5454-10-14.3184C21,14.9092,21,13,21,13" fill="none" stroke="#000000" stroke-linecap="round" stroke-linejoin="round" stroke-miterlimit="10" stroke-width="2"/>
    <path d="M21,59c0,0,0-1.9092,0-6.6816C21,47.5459,23.7275,39.9092,31,38" fill="none" stroke="#000000" stroke-linecap="round" stroke-linejoin="round" stroke-miterlimit="10" stroke-width="2"/>
    <path d="M31,38c1-0.2715,2-0.8945,2-2c0-1.1045-1-1.7285-2-2" fill="none" stroke="#000000" stroke-linecap="round" stroke-linejoin="round" stroke-miterlimit="10" stroke-width="2"/>
    <path d="M41,34c7.2725-1.9092,10-9.5454,10-14.3184C51,14.9092,51,13,51,13" fill="none" stroke="#000000" stroke-linecap="round" stroke-linejoin="round" stroke-miterlimit="10" stroke-width="2"/>
    <path d="M51,59c0,0,0-1.9092,0-6.6816C51,47.5459,48.2725,39.9092,41,38" fill="none" stroke="#000000" stroke-linecap="round" stroke-linejoin="round" stroke-miterlimit="10" stroke-width="2"/>
    <path d="M41,38c-1-0.2715-2-0.8945-2-2c0-1.1045,1-1.7285,2-2" fill="none" stroke="#000000" stroke-linecap="round" stroke-linejoin="round" stroke-miterlimit="10" stroke-width="2"/>
    <path d="M55,11c0,1.1001-0.9004,2-2,2H19c-1.0996,0-2-0.8999-2-2v-1c0-1.1001,0.9004-2,2-2h34c1.0996,0,2,0.8999,2,2V11z" fill="none" stroke="#000000" stroke-linecap="round" stroke-linejoin="round" stroke-miterlimit="10" stroke-width="2"/>
    <path d="M55,62c0,1.0996-0.9004,2-2,2H19c-1.0996,0-2-0.9004-2-2v-1c0-1.0996,0.9004-2,2-2h34c1.0996,0,2,0.9004,2,2V62z" fill="none" stroke="#000000" stroke-linecap="round" stroke-linejoin="round" stroke-miterlimit="10" stroke-width="2"/>
    <line fill="none" stroke="#000000" stroke-linecap="round" stroke-linejoin="round" stroke-miterlimit="10" stroke-width="2" x1="29" x2="43" y1="43" y2="43"/>
  </g>
</svg>