<svg viewBox="8 8 56 56" xmlns="http://www.w3.org/2000/svg">
  <defs>
    <linearGradient id="yellow-gradient" x1="0%" x2="0%" y1="0%" y2="100%">
      <stop offset="0%" style="stop-color:#FDE02F;stop-opacity:1;"/>
      <stop offset="100%" style="stop-color:#F7B209;stop-opacity:1;"/>
    </linearGradient>
  </defs>
  <g id="color">
    <polyline fill="#d0cfce" points="53.7559,19.7366 58.3424,16.187 61.4023,20.1407 57.1493,23.4322" stroke="#d0cfce" stroke-linecap="round" stroke-linejoin="round" stroke-miterlimit="10" stroke-width="2"/>
    <rect fill="#d0cfce" height="6.2941" stroke="none" width="11.0083" x="31.3126" y="7"/>
    <circle cx="36.8214" cy="36.2941" fill="#FFFFFF" r="23" stroke="none" stroke-linecap="round" stroke-linejoin="round" stroke-miterlimit="10" stroke-width="2"/>
  </g>
  <g id="line">
    <circle cx="36.8214" cy="36.2941" fill="none" r="23" stroke="#000000" stroke-linecap="round" stroke-linejoin="round" stroke-miterlimit="10" stroke-width="2"/>
    <polyline fill="none" points="56.366,17.7166 58.3424,16.187 61.4023,20.1407 59.5696,21.5591" stroke="#000000" stroke-linecap="round" stroke-linejoin="round" stroke-miterlimit="10" stroke-width="2"/>
    <polyline fill="none" points="32.3214,9.7271 32.3214,7 41.3214,7 41.3214,9.8931" stroke="#000000" stroke-linecap="round" stroke-linejoin="round" stroke-miterlimit="10" stroke-width="2"/>
    <circle cx="36.3475" cy="16.9817" fill="#000000" r="1" stroke="none"/>
    <circle cx="36.3475" cy="55.0239" fill="#000000" r="1" stroke="none"/>
    <ellipse cx="49.7975" cy="22.5528" fill="#000000" rx="0.9878" ry="1.0121" stroke="none" transform="matrix(0.7071 -0.7071 0.7071 0.7071 -1.3619 41.8177)"/>
    <ellipse cx="22.8975" cy="49.4528" fill="#000000" rx="0.9878" ry="1.0121" stroke="none" transform="matrix(0.7071 -0.7071 0.7071 0.7071 -28.2619 30.6754)"/>
    <circle cx="55.3686" cy="36.0028" fill="#000000" r="1" stroke="none"/>
    <circle cx="17.3264" cy="36.0028" fill="#000000" r="1" stroke="none"/>
    <line fill="#000000" stroke="#000000" stroke-linecap="round" stroke-linejoin="round" stroke-miterlimit="10" stroke-width="2" x1="36.8399" x2="21.4399" y1="35.91" y2="35.91"/>
    <line fill="#000000" stroke="#000000" stroke-linecap="round" stroke-linejoin="round" stroke-miterlimit="10" stroke-width="2" x1="36.8846" x2="25.9952" y1="35.9253" y2="46.8147"/>
    <ellipse cx="49.7975" cy="49.4528" fill="#000000" rx="1.0121" ry="0.9878" stroke="none" transform="matrix(0.7071 -0.7071 0.7071 0.7071 -20.3831 49.6965)"/>
    <ellipse cx="22.8975" cy="22.5528" fill="#000000" rx="1.0121" ry="0.9878" stroke="none" transform="matrix(0.7071 -0.7071 0.7071 0.7071 -9.2407 22.7965)"/>
  </g>
</svg>