<svg viewBox="11 11 50 50" xmlns="http://www.w3.org/2000/svg">
  <defs>
    <linearGradient id="yellow-gradient" x1="0%" x2="0%" y1="0%" y2="100%">
      <stop offset="0%" style="stop-color:#FDE02F;stop-opacity:1;"/>
      <stop offset="100%" style="stop-color:#F7B209;stop-opacity:1;"/>
    </linearGradient>
  </defs>
  <g id="color">
    <path d="M12.6048,57.6825v-23c0-12.7025,10.2975-23,23-23s23,10.2975,23,23v23H12.6048z" fill="#9b9b9a" stroke="none" stroke-linecap="round" stroke-linejoin="round" stroke-miterlimit="10" stroke-width="2"/>
    <circle cx="35.6048" cy="34.6825" fill="#d0cfce" r="15" stroke="none" stroke-linecap="round" stroke-linejoin="round" stroke-miterlimit="10" stroke-width="2"/>
    <circle cx="35.6048" cy="34.6825" fill="#FFFFFF" r="15" stroke="none" stroke-linecap="round" stroke-linejoin="round" stroke-miterlimit="10" stroke-width="2"/>
    <line fill="#FFFFFF" stroke="none" stroke-linecap="round" stroke-linejoin="round" stroke-miterlimit="10" stroke-width="1.7585" x1="35.4172" x2="28.6048" y1="35.0875" y2="35.0875"/>
  </g>
  <g id="line">
    <path d="M12.6048,57.6825v-23c0-12.7025,10.2975-23,23-23s23,10.2975,23,23v23H12.6048z" fill="none" stroke="#000000" stroke-linecap="round" stroke-linejoin="round" stroke-miterlimit="10" stroke-width="2"/>
    <circle cx="35.6048" cy="34.6825" fill="none" r="15" stroke="#000000" stroke-linecap="round" stroke-linejoin="round" stroke-miterlimit="10" stroke-width="2"/>
    <circle cx="35.6048" cy="34.6825" fill="none" r="15" stroke="#000000" stroke-linecap="round" stroke-linejoin="round" stroke-miterlimit="10" stroke-width="2"/>
    <path d="M12.6048,57.6825v-23c0-12.7025,10.2975-23,23-23s23,10.2975,23,23v23H12.6048z" fill="none" stroke="#000000" stroke-linecap="round" stroke-linejoin="round" stroke-miterlimit="10" stroke-width="2"/>
    <circle cx="35.6048" cy="34.6825" fill="none" r="15" stroke="#000000" stroke-linecap="round" stroke-linejoin="round" stroke-miterlimit="10" stroke-width="2"/>
    <line fill="none" stroke="#000000" stroke-linecap="round" stroke-linejoin="round" stroke-miterlimit="10" stroke-width="1.7585" x1="35.4172" x2="28.6048" y1="35.0875" y2="35.0875"/>
    <circle cx="24.4069" cy="34.9878" fill="#000000" r="1" stroke="none"/>
    <circle cx="46.6779" cy="34.9878" fill="#000000" r="1" stroke="none"/>
    <ellipse cx="27.6684" cy="42.8618" fill="#000000" rx="1" ry="1" stroke="none" transform="matrix(0.7071 -0.7071 0.7071 0.7071 -22.204 32.1184)"/>
    <ellipse cx="43.4164" cy="27.1138" fill="#000000" rx="1" ry="1" stroke="none" transform="matrix(0.7071 -0.7071 0.7071 0.7071 -6.456 38.6415)"/>
    <circle cx="35.5424" cy="46.1233" fill="#000000" r="1" stroke="none"/>
    <circle cx="35.5424" cy="23.8523" fill="#000000" r="1" stroke="none"/>
    <ellipse cx="43.4164" cy="42.8618" fill="#000000" rx="1" ry="1" stroke="none" transform="matrix(0.7071 -0.7071 0.7071 0.7071 -17.5915 43.254)"/>
    <ellipse cx="27.6684" cy="27.1138" fill="#000000" rx="1" ry="1" stroke="none" transform="matrix(0.7071 -0.7071 0.7071 0.7071 -11.0685 27.506)"/>
  </g>
</svg>