<svg viewBox="6 6 60 60" xmlns="http://www.w3.org/2000/svg">
  <defs>
    <linearGradient id="yellow-gradient" x1="0%" x2="0%" y1="0%" y2="100%">
      <stop offset="0%" style="stop-color:#FDE02F;stop-opacity:1;"/>
      <stop offset="100%" style="stop-color:#F7B209;stop-opacity:1;"/>
    </linearGradient>
  </defs>
  <g id="line-supplement">
    <path d="M37 44.2857V7C29.0435 7 21.4129 10.0553 15.7868 15.4939C10.1607 20.9325 7 28.3087 7 36C7 43.6913 10.1607 51.0675 15.7868 56.5061C21.4129 61.9446 29.0435 65 37 65V44.2857Z" fill="#000"/>
  </g>
  <g id="color">
    <path d="M36 45V9C43.4261 9 50.548 11.95 55.799 17.201C61.05 22.452 64 29.5739 64 37C64 44.4261 61.05 51.548 55.799 56.799C50.548 62.05 43.4261 65 36 65V45Z" fill="#fff"/>
    <path d="M37 44.2857V7C29.0435 7 21.4129 10.0553 15.7868 15.4939C10.1607 20.9325 7 28.3087 7 36C7 43.6913 10.1607 51.0675 15.7868 56.5061C21.4129 61.9446 29.0435 65 37 65V44.2857Z" fill="#3F3F3F"/>
  </g>
  <g id="line">
    <path d="M36 64C51.464 64 64 51.464 64 36C64 20.536 51.464 8 36 8C20.536 8 8 20.536 8 36C8 51.464 20.536 64 36 64Z" fill="none" stroke="#000" stroke-linejoin="round" stroke-width="2"/>
    <path d="M36 8V61" fill="none" stroke="#000" stroke-linecap="round" stroke-width="2"/>
  </g>
</svg>