<svg viewBox="6 6 60 60" xmlns="http://www.w3.org/2000/svg">
  <defs>
    <linearGradient id="yellow-gradient" x1="0%" x2="0%" y1="0%" y2="100%">
      <stop offset="0%" style="stop-color:#FDE02F;stop-opacity:1;"/>
      <stop offset="100%" style="stop-color:#F7B209;stop-opacity:1;"/>
    </linearGradient>
  </defs>
  <g id="line-supplement">
    <path d="M35 44.2857V7C42.9565 7 50.5871 10.0553 56.2132 15.4939C61.8393 20.9325 65 28.3087 65 36C65 43.6913 61.8393 51.0675 56.2132 56.5061C50.5871 61.9447 42.9565 65 35 65V44.2857Z" fill="#000"/>
  </g>
  <g id="color">
    <path d="M36 45V9C28.5739 9 21.452 11.95 16.201 17.201C10.95 22.452 8 29.5739 8 37C8 44.4261 10.95 51.548 16.201 56.799C21.452 62.05 28.5739 65 36 65V45Z" fill="#fff"/>
    <path d="M35 44.2857V7C42.9565 7 50.5871 10.0553 56.2132 15.4939C61.8393 20.9325 65 28.3087 65 36C65 43.6913 61.8393 51.0675 56.2132 56.5061C50.5871 61.9446 42.9565 65 35 65V44.2857Z" fill="#3F3F3F"/>
  </g>
  <g id="line">
    <path d="M36 64C51.464 64 64 51.464 64 36C64 20.536 51.464 8 36 8C20.536 8 8 20.536 8 36C8 51.464 20.536 64 36 64Z" fill="none" stroke="#000" stroke-linejoin="round" stroke-width="2"/>
    <path d="M36 8V61" fill="none" stroke="#000" stroke-linecap="round" stroke-width="2"/>
  </g>
</svg>