<svg viewBox="11 11 50 50" xmlns="http://www.w3.org/2000/svg">
  <defs>
    <linearGradient id="yellow-gradient" x1="0%" x2="0%" y1="0%" y2="100%">
      <stop offset="0%" style="stop-color:#FDE02F;stop-opacity:1;"/>
      <stop offset="100%" style="stop-color:#F7B209;stop-opacity:1;"/>
    </linearGradient>
  </defs>
  <g id="color">
    <ellipse cx="20.7672" cy="48.4069" fill="#ea5a47" rx="6.5859" ry="7.0249" transform="translate(-19.0203 13.8894) rotate(-25.8368)"/>
    <path d="M24.98,42.1607c-.0356-.0345.1043,1.5.1135,1.5474a9.4682,9.4682,0,0,1-.5592,4.4086c-.7529,2.3217-2.1159,5.892-3.1642,5.9543-2.2311.1328,4.1662.0938,4.1662.0938s.4376-.0957.8781-.8781c.1784-.3167,1.24-.1983,1.4184-.8131.1719-.5921.4429-.4843.7019-.7406.6742-.6671.544-.5776.5141-1.0807-.0415-.6963,0-4.3906,0-4.3906Z" fill="#d22f27"/>
  </g>
  <g id="line">
    <path d="M28.0542,44.3144l1.0332,2.7421.3112,2.0492-1.0159,2.793L27.4042,53.07l-1.6.7034-1.0825.5953-2.4946.6928-.7573-.165-1.9634-.025-2.03-.9106-1.6125-2.0421-.7486-2.0038-.974-2.0116.448-1.2854.3246-1.2306.5009-2.3322,3.8089-2.0374L21.56,41s.9362.4209,1.2579.56c.1121.0485,1.0541.38,1.1731.4077Z" fill="none" stroke="#000000" stroke-linecap="round" stroke-linejoin="round" stroke-width="1.49"/>
    <line fill="none" stroke="#000000" stroke-linecap="round" stroke-linejoin="round" stroke-width="2" x1="26.8412" x2="46.2765" y1="36.7588" y2="17.3235"/>
    <line fill="none" stroke="#000000" stroke-linecap="round" stroke-linejoin="round" stroke-width="2" x1="31.7824" x2="55.3824" y1="37.9824" y2="14.3824"/>
    <line fill="none" stroke="#000000" stroke-linecap="round" stroke-linejoin="round" stroke-width="2" x1="35.1706" x2="51.1353" y1="40.2294" y2="24.2647"/>
    <line fill="none" stroke="#000000" stroke-linecap="round" stroke-linejoin="round" stroke-width="2" x1="40.1706" x2="43.7" y1="18.2294" y2="14.7"/>
    <line fill="none" stroke="#000000" stroke-linecap="round" stroke-linejoin="round" stroke-width="2" x1="25.1706" x2="28.7" y1="33.2294" y2="29.7"/>
    <line fill="none" stroke="#000000" stroke-linecap="round" stroke-linejoin="round" stroke-width="2" x1="33.1706" x2="36.7" y1="46.2294" y2="42.7"/>
    <line fill="none" stroke="#000000" stroke-linecap="round" stroke-linejoin="round" stroke-width="2" x1="56.1706" x2="59.7" y1="19.2294" y2="15.7"/>
    <path d="M22.6083,30.4963a1.1257,1.1257,0,0,0,0-2.25,1.1257,1.1257,0,0,0,0,2.25Z" fill="#000000"/>
    <path d="M30.6083,58.4963a1.1257,1.1257,0,0,0,0-2.25,1.1257,1.1257,0,0,0,0,2.25Z" fill="#000000"/>
    <polygon fill="none" points="40 41 42 41 42.75 38.75 43.5 41 45.5 41 44 42.25 44.5 44.25 42.75 43 41 44.25 41.75 42.25 40 41" stroke="#000000" stroke-linecap="round" stroke-linejoin="round" stroke-width="2"/>
    <polygon fill="none" points="28 20 30 20 30.75 17.75 31.5 20 33.5 20 32 21.25 32.5 23.25 30.75 22 29 23.25 29.75 21.25 28 20" stroke="#000000" stroke-linecap="round" stroke-linejoin="round" stroke-width="2"/>
    <path d="M53.6083,28.4963a1.1257,1.1257,0,0,0,0-2.25,1.1257,1.1257,0,0,0,0,2.25Z" fill="#000000"/>
  </g>
</svg>