<svg viewBox="11 11 50 50" xmlns="http://www.w3.org/2000/svg">
  <defs>
    <linearGradient id="yellow-gradient" x1="0%" x2="0%" y1="0%" y2="100%">
      <stop offset="0%" style="stop-color:#FDE02F;stop-opacity:1;"/>
      <stop offset="100%" style="stop-color:#F7B209;stop-opacity:1;"/>
    </linearGradient>
  </defs>
  <g id="color">
    <circle cx="36" cy="36" fill="#f4aa41" r="23"/>
  </g>
  <g id="line">
    <ellipse cx="35.96" cy="35.89" rx="3.281" ry="3.281" stroke="#000" stroke-miterlimit="10" stroke-width="1.25"/>
    <path d="m23.09 43.42a14.76 14.76 0 0 0 3.496 4.097l5.791-6.957a5.733 5.733 0 0 1-2.167-3.753l-8.921 1.537a14.76 14.76 0 0 0 1.8 5.076z" stroke="#000" stroke-miterlimit="10" stroke-width="1.254"/>
    <path d="m48.91 43.42a14.76 14.76 0 0 0 1.8-5.076l-8.921-1.537a5.733 5.733 0 0 1-2.167 3.753l5.791 6.957a14.76 14.76 0 0 0 3.496-4.097z" stroke="#000" stroke-miterlimit="10" stroke-width="1.254"/>
    <path d="m36 21.13a14.76 14.76 0 0 0-5.296 0.9794l3.129 8.494a5.733 5.733 0 0 1 4.333 0l3.129-8.494a14.76 14.76 0 0 0-5.296-0.9794z" stroke="#000" stroke-miterlimit="10" stroke-width="1.254"/>
    <circle cx="36" cy="36" fill="none" r="23" stroke="#000" stroke-linecap="round" stroke-linejoin="round" stroke-width="2"/>
  </g>
</svg>