<svg viewBox="10 10 52 52" xmlns="http://www.w3.org/2000/svg">
  <defs>
    <linearGradient id="yellow-gradient" x1="0%" x2="0%" y1="0%" y2="100%">
      <stop offset="0%" style="stop-color:#FDE02F;stop-opacity:1;"/>
      <stop offset="100%" style="stop-color:#F7B209;stop-opacity:1;"/>
    </linearGradient>
  </defs>
  <g id="color">
    <rect fill="#b399c8" height="47.83" width="48" x="12" y="12"/>
  </g>
  <g id="line">
    <path d="m51.01 35.99a15 15 0 1 1-15-15 15 15 0 0 1 15 15z" fill="none" stroke="#000" stroke-linecap="round" stroke-linejoin="round" stroke-width="3"/>
    <path d="m41 36a5 5 0 1 1-5-5.001 5.001 5.001 0 0 1 5 5.001z" fill="none" stroke="#000" stroke-linecap="round" stroke-linejoin="round" stroke-width="3"/>
    <line fill="none" stroke="#000" stroke-linecap="round" stroke-linejoin="round" stroke-width="3" x1="36" x2="36" y1="31" y2="19"/>
    <line fill="none" stroke="#000" stroke-linecap="round" stroke-linejoin="round" stroke-width="3" x1="36" x2="36" y1="53" y2="41"/>
    <rect fill="none" height="48" stroke="#000" stroke-linecap="round" stroke-linejoin="round" stroke-width="2" width="48" x="12" y="12"/>
    <line fill="none" stroke="#000" stroke-linecap="round" stroke-linejoin="round" stroke-width="3" x1="41" x2="53" y1="36" y2="36"/>
    <line fill="none" stroke="#000" stroke-linecap="round" stroke-linejoin="round" stroke-width="3" x1="19" x2="31" y1="36" y2="36"/>
    <line fill="none" stroke="#000" stroke-linecap="round" stroke-linejoin="round" stroke-width="3" x1="39.54" x2="48.02" y1="32.46" y2="23.98"/>
    <line fill="none" stroke="#000" stroke-linecap="round" stroke-linejoin="round" stroke-width="3" x1="23.98" x2="32.46" y1="48.02" y2="39.54"/>
    <line fill="none" stroke="#000" stroke-linecap="round" stroke-linejoin="round" stroke-width="3" x1="32.46" x2="23.98" y1="32.46" y2="23.98"/>
    <line fill="none" stroke="#000" stroke-linecap="round" stroke-linejoin="round" stroke-width="3" x1="48.02" x2="39.54" y1="48.02" y2="39.54"/>
  </g>
</svg>