<svg viewBox="10 10 52 52" xmlns="http://www.w3.org/2000/svg">
  <defs>
    <linearGradient id="yellow-gradient" x1="0%" x2="0%" y1="0%" y2="100%">
      <stop offset="0%" style="stop-color:#FDE02F;stop-opacity:1;"/>
      <stop offset="100%" style="stop-color:#F7B209;stop-opacity:1;"/>
    </linearGradient>
  </defs>
  <g id="color">
    <rect fill="#b399c8" height="48" width="48" x="12" y="12"/>
  </g>
  <g id="line">
    <rect fill="none" height="48" stroke="#000" stroke-linecap="round" stroke-linejoin="round" stroke-width="2" width="48" x="12" y="12"/>
    <path d="m49.97 47.17 3.731 3.757-3.731 3.757" fill="none" stroke="#000" stroke-linecap="round" stroke-linejoin="round" stroke-width="3"/>
    <path d="m35.23 44.91 0.125-13.68" fill="none" stroke="#000" stroke-linecap="round" stroke-linejoin="round" stroke-width="3"/>
    <path d="m26.31 44.91v-14.03c-0.1453-1.558-0.6264-3.32-2.212-5.754" fill="none" stroke="#000" stroke-linecap="round" stroke-linejoin="round" stroke-width="3"/>
    <path d="m26.31 31.23s0.766-6.485 4.523-6.437 4.405 4.103 4.523 6.437c0.1828-2.264 0.9161-6.54 4.478-6.544 3.562-0.0042 4.31 3.958 4.478 6.544l1.42e-4 13.68s0.1299 6.155 5.921 6.004" fill="none" stroke="#000" stroke-linecap="round" stroke-linejoin="round" stroke-width="3"/>
  </g>
</svg>