<svg viewBox="10 10 52 52" xmlns="http://www.w3.org/2000/svg">
  <defs>
    <linearGradient id="yellow-gradient" x1="0%" x2="0%" y1="0%" y2="100%">
      <stop offset="0%" style="stop-color:#FDE02F;stop-opacity:1;"/>
      <stop offset="100%" style="stop-color:#F7B209;stop-opacity:1;"/>
    </linearGradient>
  </defs>
  <g id="color">
    <rect fill="#b399c8" height="48" width="48" x="12" y="12"/>
  </g>
  <g id="line">
    <rect fill="none" height="48" stroke="#000" stroke-linecap="round" stroke-linejoin="round" stroke-width="2" width="48" x="12" y="12"/>
    <path d="m39.5 44.55a5.591 5.591 0 1 1 5.59 5.591 5.592 5.592 0 0 1-5.59-5.591z" fill="none" stroke="#000" stroke-miterlimit="10" stroke-width="3"/>
    <path d="m39.5 42.55c-1.351 4.101-1.244 3.865-3.324 8.743" fill="none" stroke="#000" stroke-linecap="round" stroke-linejoin="round" stroke-width="3"/>
    <path d="m28.06 44.89v-14.03c-0.1453-1.558-0.6264-3.32-2.212-5.754" fill="none" stroke="#000" stroke-linecap="round" stroke-linejoin="round" stroke-width="3"/>
    <path d="m28.06 30.86c0.2335-2.264 1.17-6.54 5.72-6.544 4.55-0.0042 5.505 3.958 5.719 6.544l1.82e-4 13.68" fill="none" stroke="#000" stroke-linecap="round" stroke-linejoin="round" stroke-width="3"/>
  </g>
</svg>