<svg viewBox="10 10 52 52" xmlns="http://www.w3.org/2000/svg">
  <defs>
    <linearGradient id="yellow-gradient" x1="0%" x2="0%" y1="0%" y2="100%">
      <stop offset="0%" style="stop-color:#FDE02F;stop-opacity:1;"/>
      <stop offset="100%" style="stop-color:#F7B209;stop-opacity:1;"/>
    </linearGradient>
  </defs>
  <g id="color">
    <rect fill="#b399c8" height="47.83" width="48" x="12" y="12"/>
  </g>
  <g id="line">
    <rect fill="none" height="48" stroke="#000" stroke-linecap="round" stroke-linejoin="round" stroke-width="2" width="48" x="12" y="12"/>
    <path d="m52.05 41.23s-0.0772-3.854-3.211-3.802c0 0-3.21-0.0224-3.21 3.622s-3.211 3.622-3.211 3.622c-3.133 0.0508-3.21-3.763-3.21-3.763 1e-4 -3.683-3.21-3.66-3.21-3.66-3.134-0.0517-3.211 3.75-3.211 3.75-1e-4 3.669-3.211 3.647-3.211 3.647-3.134 0.0508-3.211-3.776-3.211-3.776 0-3.695-3.209-3.673-3.209-3.673-3.135-0.0508-3.211 3.802-3.211 3.802" fill="none" stroke="#000" stroke-linecap="round" stroke-miterlimit="10" stroke-width="3"/>
    <path d="m52.05 31.36s-0.0772-3.854-3.211-3.802c0 0-3.21-0.0224-3.21 3.622s-3.211 3.622-3.211 3.622c-3.133 0.0508-3.21-3.763-3.21-3.763 1e-4 -3.683-3.21-3.66-3.21-3.66-3.134-0.0517-3.211 3.75-3.211 3.75-1e-4 3.669-3.211 3.647-3.211 3.647-3.134 0.0508-3.211-3.776-3.211-3.776 0-3.695-3.209-3.673-3.209-3.673-3.135-0.0508-3.211 3.802-3.211 3.802" fill="none" stroke="#000" stroke-linecap="round" stroke-miterlimit="10" stroke-width="3"/>
  </g>
</svg>