<svg viewBox="6 6 60 60" xmlns="http://www.w3.org/2000/svg">
  <defs>
    <linearGradient id="yellow-gradient" x1="0%" x2="0%" y1="0%" y2="100%">
      <stop offset="0%" style="stop-color:#FDE02F;stop-opacity:1;"/>
      <stop offset="100%" style="stop-color:#F7B209;stop-opacity:1;"/>
    </linearGradient>
  </defs>
  <g id="color">
    <circle cx="19" cy="36.7" fill="#3F3F3F" r="11.5"/>
    <circle cx="36.2" cy="19.6" fill="#3F3F3F" r="11.5"/>
    <circle cx="53.4" cy="36.7" fill="#3F3F3F" r="11.5"/>
    <path d="M38.7,38.8c1.2,7.9,7,20.5,8.9,21.3H36.2l0,0H24.9c2-0.9,8.4-15.1,9-22.8l0.3-0.9l4.8,1.5L38.7,38.8z" fill="#3F3F3F"/>
  </g>
  <g id="line">
    <path d="M38.7,38.8 c1.2,7.9,7,20.5,8.9,21.3H36.2l0,0H24.9c2-0.9,8.4-15.1,9-22.8" fill="none" stroke="#000000" stroke-linecap="round" stroke-linejoin="round" stroke-width="2"/>
    <circle cx="36.2" cy="19.6" fill="none" r="11.5" stroke="#000000" stroke-linecap="round" stroke-linejoin="round" stroke-width="2"/>
    <circle cx="53.4" cy="36.7" fill="none" r="11.5" stroke="#000000" stroke-linecap="round" stroke-linejoin="round" stroke-width="2"/>
    <circle cx="19" cy="36.7" fill="none" r="11.5" stroke="#000000" stroke-linecap="round" stroke-linejoin="round" stroke-width="2"/>
  </g>
</svg>