<svg viewBox="9 9 54 54" xmlns="http://www.w3.org/2000/svg">
  <defs>
    <linearGradient id="yellow-gradient" x1="0%" x2="0%" y1="0%" y2="100%">
      <stop offset="0%" style="stop-color:#FDE02F;stop-opacity:1;"/>
      <stop offset="100%" style="stop-color:#F7B209;stop-opacity:1;"/>
    </linearGradient>
  </defs>
  <g id="color">
    <path d="M48.0626,62.92c0-3.3137-5.5964-6-12.5-6s-12.5,2.6863-12.5,6H48.0626z" fill="#9B9B9A" stroke="none"/>
    <path d="M24.9006,46.9656c0,2.1938-2.1985,3.9723-4.9106,3.9723s-4.9106-1.7785-4.9106-3.9723H24.9006z" fill="#D0CFCE" stroke="none"/>
    <path d="M57.9006,46.9248c0,2.1938-2.1985,3.9723-4.9106,3.9723c-2.712,0-4.9106-1.7785-4.9106-3.9723H57.9006z" fill="#D0CFCE" stroke="none"/>
  </g>
  <g id="line">
    <path d="M15.9996,25.1697c2.6667,0.0001,8.9544-5.3333,20.0002-5.3333S50.6666,23.8365,56,25.1697" fill="none" stroke="#000000" stroke-linecap="round" stroke-linejoin="round" stroke-miterlimit="10" stroke-width="2"/>
    <line fill="none" stroke="#000000" stroke-linecap="round" stroke-linejoin="round" stroke-miterlimit="10" stroke-width="2" x1="35.9998" x2="35.9998" y1="23.9064" y2="51.9064"/>
    <circle cx="35.9998" cy="13.895" fill="#000000" r="3" stroke="none"/>
    <path d="M48,61.9064c0-3.3137-5.5964-6-12.5-6s-12.5,2.6863-12.5,6" fill="none" stroke="#000000" stroke-linecap="round" stroke-linejoin="round" stroke-miterlimit="10" stroke-width="2"/>
    <path d="M26,45.9064c0,3.3137-2.6863,6-6,6s-6-2.6863-6-6H26z" fill="none" stroke="#000000" stroke-linecap="round" stroke-linejoin="round" stroke-miterlimit="10" stroke-width="2"/>
    <polygon fill="none" points="20,27.9064 15,45.9064 25,45.9064" stroke="#000000" stroke-linecap="round" stroke-linejoin="round" stroke-miterlimit="10" stroke-width="2"/>
    <line fill="none" stroke="#000000" stroke-linecap="round" stroke-linejoin="round" stroke-miterlimit="10" stroke-width="2" x1="20" x2="20" y1="27.9064" y2="45.9064"/>
    <path d="M59,45.9064c0,3.3137-2.6863,6-6,6s-6-2.6863-6-6H59z" fill="none" stroke="#000000" stroke-linecap="round" stroke-linejoin="round" stroke-miterlimit="10" stroke-width="2"/>
    <polygon fill="none" points="53,27.9064 48,45.9064 58,45.9064" stroke="#000000" stroke-linecap="round" stroke-linejoin="round" stroke-miterlimit="10" stroke-width="2"/>
    <line fill="none" stroke="#000000" stroke-linecap="round" stroke-linejoin="round" stroke-miterlimit="10" stroke-width="2" x1="53" x2="53" y1="27.9064" y2="45.9064"/>
  </g>
</svg>