<svg viewBox="11 11 50 50" xmlns="http://www.w3.org/2000/svg">
  <defs>
    <linearGradient id="yellow-gradient" x1="0%" x2="0%" y1="0%" y2="100%">
      <stop offset="0%" style="stop-color:#FDE02F;stop-opacity:1;"/>
      <stop offset="100%" style="stop-color:#F7B209;stop-opacity:1;"/>
    </linearGradient>
  </defs>
  <g id="color">
    <g id="_2697">
      <path d="M17.9744,37.97c2.3079,5.3821,8.3214,10.7641,14.7,10.7641s11.9117-5.6449,14.7-10.7641Z" fill="#92d3f5"/>
      <path d="M41.749,37.97c-2.46,4.5156-6.9725,9.914-12.4,10.6176a17.2181,17.2181,0,0,0,2.2169.1465c6.3789,0,14.1287-5.6449,16.9172-10.7641Z" fill="#61b2e4"/>
    </g>
  </g>
  <g id="line">
    <g id="_2697-2">
      <path d="M49.3016,32.5878l7.6734,5.4653,2.3028-2.2361S46.8365,16.4416,32.6746,16.4416a16.3919,16.3919,0,0,0-16.627,16.1462,16.3919,16.3919,0,0,0,16.627,16.1461,16.3919,16.3919,0,0,0,16.627-16.1461" fill="none" stroke="#000" stroke-linecap="round" stroke-linejoin="round" stroke-width="2"/>
      <polyline fill="none" points="12.722 55.558 18.265 44.794 47.085 44.794 52.627 55.558" stroke="#000" stroke-linecap="round" stroke-linejoin="round" stroke-width="2"/>
      <line fill="none" stroke="#000" stroke-linecap="round" stroke-linejoin="round" stroke-width="2" x1="32.6746" x2="32.6746" y1="44.7943" y2="55.5584"/>
    </g>
  </g>
</svg>