<svg viewBox="4 4 64 64" xmlns="http://www.w3.org/2000/svg">
  <defs>
    <linearGradient id="yellow-gradient" x1="0%" x2="0%" y1="0%" y2="100%">
      <stop offset="0%" style="stop-color:#FDE02F;stop-opacity:1;"/>
      <stop offset="100%" style="stop-color:#F7B209;stop-opacity:1;"/>
    </linearGradient>
  </defs>
  <g id="color">
    <g id="_26B1">
      <path d="M44.7967,15.1753l3.3621-2.9411a2.1208,2.1208,0,0,0-.5449-3.5321A27.5414,27.5414,0,0,0,36.2764,6.3634,27.5411,27.5411,0,0,0,24.9389,8.7021a2.1208,2.1208,0,0,0-.5449,3.5321l3.6591,3.2009c-4.8465,3.0433-9.1842,8.3556-9.1842,14.4156,0,10.7391,8.5614,35.7859,8.5614,35.7859H44.57S53.1311,40.59,53.1311,29.8507A17.0965,17.0965,0,0,0,44.7967,15.1753Z" fill="#f4aa41" stroke="#000" stroke-linecap="round" stroke-linejoin="round" stroke-width="2"/>
      <path d="M28.0531,15.4351a30.9477,30.9477,0,0,1,16.7436-.26" fill="none" stroke="#e27022" stroke-linecap="square" stroke-linejoin="round" stroke-width="2"/>
      <line fill="none" stroke="#e27022" stroke-linejoin="round" stroke-width="4" x1="25.3523" x2="46.6477" y1="59.2014" y2="59.2014"/>
      <line fill="none" stroke="#e27022" stroke-linecap="round" stroke-linejoin="round" stroke-width="2" x1="19.6448" x2="52.3552" y1="29.5222" y2="29.5222"/>
      <line fill="none" stroke="#e27022" stroke-linecap="round" stroke-linejoin="round" stroke-width="2" x1="19.6448" x2="51.821" y1="34.0882" y2="34.0882"/>
      <path d="M44.7967,15.1753H43.6551c0,1.0928,2.6269,8.4364,2.6269,14.6754,0,10.7391-8.5613,35.7859-8.5613,35.7859H44.57S53.1311,40.59,53.1311,29.8507A17.0965,17.0965,0,0,0,44.7967,15.1753Z" fill="#e27022"/>
      <path d="M44.7967,8.1159c2.4548,3.0045.4662,2.303-1.1416,7.0594,3.5167,2.5048,5.2063-4.7835,5.2063-4.7835S46.9864,7.5462,44.7967,8.1159Z" fill="#e27022"/>
    </g>
  </g>
  <g id="line">
    <path id="_26B1-2" d="M44.7967,15.1753l3.3621-2.9411a2.1208,2.1208,0,0,0-.5449-3.5321A27.5414,27.5414,0,0,0,36.2764,6.3634,27.5411,27.5411,0,0,0,24.9389,8.7021a2.1208,2.1208,0,0,0-.5449,3.5321l3.6591,3.2009c-4.8465,3.0433-9.1842,8.3556-9.1842,14.4156,0,10.7391,8.5614,35.7859,8.5614,35.7859H44.57S53.1311,40.59,53.1311,29.8507A17.0965,17.0965,0,0,0,44.7967,15.1753Z" fill="none" stroke="#000" stroke-linecap="round" stroke-linejoin="round" stroke-width="2"/>
  </g>
</svg>