<svg viewBox="6 6 60 60" xmlns="http://www.w3.org/2000/svg">
  <defs>
    <linearGradient id="yellow-gradient" x1="0%" x2="0%" y1="0%" y2="100%">
      <stop offset="0%" style="stop-color:#FDE02F;stop-opacity:1;"/>
      <stop offset="100%" style="stop-color:#F7B209;stop-opacity:1;"/>
    </linearGradient>
  </defs>
  <g id="color">
    <circle cx="36" cy="28.11" fill="#fff" r="10.75"/>
    <circle cx="36" cy="51.44" fill="#fff" r="13.86"/>
    <path d="m36 17.35c7.776 0 7.776 21.51 0 21.51 5.939 0 10.75-4.815 10.75-10.75 0-5.939-4.815-10.75-10.75-10.75z" fill="#d0cfce"/>
    <path d="m36 37.58c8.008 0 8.008 27.72 0 27.72 7.653 0 13.86-6.204 13.86-13.86 0-7.653-6.204-13.86-13.86-13.86z" fill="#d0cfce"/>
    <rect fill="#3f3f3f" height="10.64" width="13.06" x="29.47" y="7.719"/>
  </g>
  <g id="line">
    <line fill="none" stroke="#000" stroke-linecap="round" stroke-linejoin="round" stroke-miterlimit="10" stroke-width="1.757" x1="42.59" x2="64.11" y1="40.04" y2="32.92"/>
    <line fill="none" stroke="#000" stroke-linecap="round" stroke-linejoin="round" stroke-miterlimit="10" stroke-width="1.757" x1="57.96" x2="60.7" y1="34.95" y2="27.67"/>
    <circle cx="36" cy="47.93" r="1.757"/>
    <circle cx="36" cy="54.08" r="1.757"/>
    <circle cx="36" cy="60.23" r="1.757"/>
    <circle cx="32.37" cy="25.39" r="1.537"/>
    <circle cx="39.63" cy="25.39" r="1.537"/>
    <path d="m40.7 31.87c-1.245 0.924-2.807 1.488-4.477 1.488-1.692 0-3.223-0.5413-4.476-1.488" fill="none" stroke="#000" stroke-linecap="round" stroke-linejoin="round" stroke-miterlimit="10" stroke-width="1.581"/>
    <line fill="none" stroke="#000" stroke-linecap="round" stroke-linejoin="round" stroke-width="1.757" x1="26.96" x2="45.04" y1="18.22" y2="18.22"/>
    <rect fill="none" height="10.69" stroke="#000" stroke-linecap="round" stroke-linejoin="round" stroke-width="1.757" width="13.12" x="29.44" y="7.537"/>
    <path d="m43.42 21.38c1.667 1.801 2.685 4.211 2.685 6.858 0 5.579-4.522 10.1-10.1 10.1s-10.1-4.522-10.1-10.1c0-2.648 1.019-5.059 2.687-6.86" fill="none" stroke="#000" stroke-linecap="round" stroke-linejoin="round" stroke-miterlimit="10" stroke-width="1.757"/>
    <line fill="none" stroke="#000" stroke-linecap="round" stroke-linejoin="round" stroke-miterlimit="10" stroke-width="1.757" x1="29.41" x2="7.894" y1="40.04" y2="32.92"/>
    <line fill="none" stroke="#000" stroke-linecap="round" stroke-linejoin="round" stroke-miterlimit="10" stroke-width="1.757" x1="14.04" x2="11.3" y1="34.96" y2="27.67"/>
    <path d="m45.82 42.67c2.086 2.33 3.354 5.407 3.354 8.781 0 7.276-5.899 13.17-13.17 13.17s-13.17-5.899-13.17-13.17c0-3.373 1.268-6.45 3.353-8.781" fill="none" stroke="#000" stroke-linecap="round" stroke-linejoin="round" stroke-miterlimit="10" stroke-width="1.757"/>
  </g>
</svg>