<svg viewBox="11 11 50 50" xmlns="http://www.w3.org/2000/svg">
  <defs>
    <linearGradient id="yellow-gradient" x1="0%" x2="0%" y1="0%" y2="100%">
      <stop offset="0%" style="stop-color:#FDE02F;stop-opacity:1;"/>
      <stop offset="100%" style="stop-color:#F7B209;stop-opacity:1;"/>
    </linearGradient>
  </defs>
  <g id="color">
    <rect fill="#D22F27" height="4" width="40" x="16" y="33"/>
    <rect fill="#EA5A47" height="28" width="4" x="22" y="27"/>
    <rect fill="#EA5A47" height="28" width="4" x="46" y="27"/>
    <rect fill="#3F3F3F" height="5" width="7" x="20.5" y="55"/>
    <rect fill="#3F3F3F" height="5" width="7" x="44.5" y="55"/>
    <rect fill="#3F3F3F" height="6" width="4" x="34" y="27"/>
    <path d="M12.5,21c0,0,11.2502,2,15.0003,2c4.625,0,13.875,0,18.5,0C49.3752,23,59.5,21,59.5,21l-4,3l-2,3h-35l-2-3 L12.5,21z" fill="#EA5A47"/>
  </g>
  <g id="line">
    <rect fill="none" height="4" stroke="#000000" stroke-linecap="round" stroke-linejoin="round" stroke-miterlimit="10" stroke-width="2" width="6" x="16" y="32.9998"/>
    <rect fill="none" height="4" stroke="#000000" stroke-linecap="round" stroke-linejoin="round" stroke-miterlimit="10" stroke-width="2" width="20" x="26" y="32.9998"/>
    <rect fill="none" height="4" stroke="#000000" stroke-linecap="round" stroke-linejoin="round" stroke-miterlimit="10" stroke-width="2" width="6" x="50" y="32.9998"/>
    <rect fill="none" height="28" stroke="#000000" stroke-linecap="round" stroke-linejoin="round" stroke-miterlimit="10" stroke-width="2" width="4" x="22" y="26.9998"/>
    <rect fill="none" height="28" stroke="#000000" stroke-linecap="round" stroke-linejoin="round" stroke-miterlimit="10" stroke-width="2" width="4" x="46" y="26.9998"/>
    <rect fill="none" height="5" stroke="#000000" stroke-linecap="round" stroke-linejoin="round" stroke-miterlimit="10" stroke-width="2" width="7" x="20.5" y="54.9998"/>
    <rect fill="none" height="5" stroke="#000000" stroke-linecap="round" stroke-linejoin="round" stroke-miterlimit="10" stroke-width="2" width="7" x="44.5" y="54.9998"/>
    <rect fill="none" height="6" stroke="#000000" stroke-linecap="round" stroke-linejoin="round" stroke-miterlimit="10" stroke-width="2" width="4" x="34" y="27"/>
    <path d="M59.5,20.9998l-4,3l-2,3h-35l-2-3l-4-3c0,0,11.25,2,15,2H46C49.38,22.9998,59.5,20.9998,59.5,20.9998z" fill="none" stroke="#000000" stroke-linecap="round" stroke-linejoin="round" stroke-miterlimit="10" stroke-width="2"/>
  </g>
</svg>