<svg viewBox="10 10 52 52" xmlns="http://www.w3.org/2000/svg">
  <defs>
    <linearGradient id="yellow-gradient" x1="0%" x2="0%" y1="0%" y2="100%">
      <stop offset="0%" style="stop-color:#FDE02F;stop-opacity:1;"/>
      <stop offset="100%" style="stop-color:#F7B209;stop-opacity:1;"/>
    </linearGradient>
  </defs>
  <g id="color">
    <path d="M52,42.2c0,0-0.2-6.2-0.3-6.8s-0.7-1.6-1-2.1L48.2,29L42,24.5l-7.2,5.4l2.6,4.5l4.9-0.4l10.2,13.3L52,42.2z" fill="#3F3F3F"/>
    <polyline fill="#9B9B9A" points="50,39 53.4,48.1 60,56 12,56 16,49 18,37 25,18 29,22 33,25 37,33 42,33 50,39"/>
  </g>
  <g id="line">
    <polyline fill="none" points="60,55 53.4,48.1 50,39" stroke="#000000" stroke-linecap="round" stroke-linejoin="round" stroke-miterlimit="10" stroke-width="2"/>
    <polyline fill="none" points="37,33 33,25 29,22 25,18 18,37 16,49 12,55" stroke="#000000" stroke-linecap="round" stroke-linejoin="round" stroke-miterlimit="10" stroke-width="2"/>
    <polyline fill="none" points="31,24 32,33 42,33 50,39 49,45 50,50 48,52 45,55" stroke="#000000" stroke-linecap="round" stroke-linejoin="round" stroke-miterlimit="10" stroke-width="2"/>
    <polyline fill="none" points="39,28 43,25 47,29 50,34" stroke="#000000" stroke-linecap="round" stroke-linejoin="round" stroke-miterlimit="10" stroke-width="2"/>
  </g>
</svg>