<svg viewBox="12 12 48 48" xmlns="http://www.w3.org/2000/svg">
  <defs>
    <linearGradient id="yellow-gradient" x1="0%" x2="0%" y1="0%" y2="100%">
      <stop offset="0%" style="stop-color:#FDE02F;stop-opacity:1;"/>
      <stop offset="100%" style="stop-color:#F7B209;stop-opacity:1;"/>
    </linearGradient>
  </defs>
  <g id="color">
    <polygon fill="url(#yellow-gradient)" points="36,18 14.54,55 57.46,55" stroke="none" stroke-linecap="round" stroke-linejoin="round" stroke-miterlimit="10" stroke-width="2"/>
    <polygon fill="#F1B31C" points="36,18 14.54,55 36,55" stroke="none" stroke-linecap="round" stroke-linejoin="round" stroke-miterlimit="10" stroke-width="2"/>
    <path d="M36,46.12c-1.48,0-4.44,1.48-7.4,1.48c-4.087,0-7.4,3.3131-7.4,7.4H36V46.12z" fill="#8967AA" stroke="none" stroke-linecap="round" stroke-linejoin="round" stroke-miterlimit="10" stroke-width="2"/>
  </g>
  <g id="line">
    <polygon fill="none" points="36,18 14.54,55 57.46,55" stroke="#000000" stroke-linecap="round" stroke-linejoin="round" stroke-miterlimit="10" stroke-width="2"/>
    <polygon fill="none" points="36,18 14.54,55 36,55" stroke="#000000" stroke-linecap="round" stroke-linejoin="round" stroke-miterlimit="10" stroke-width="2"/>
    <line fill="none" stroke="#000000" stroke-linecap="round" stroke-linejoin="round" stroke-miterlimit="10" stroke-width="2" x1="36" x2="36" y1="55" y2="18"/>
    <path d="M36,46.12c-1.48,0-4.44,1.48-7.4,1.48c-4.087,0-7.4,3.3131-7.4,7.4H36V46.12z" fill="none" stroke="#000000" stroke-linecap="round" stroke-linejoin="round" stroke-miterlimit="10" stroke-width="2"/>
    <line fill="none" stroke="#000000" stroke-linecap="round" stroke-linejoin="round" stroke-miterlimit="10" stroke-width="2" x1="36" x2="36" y1="55" y2="18"/>
  </g>
</svg>