<svg viewBox="10 10 52 52" xmlns="http://www.w3.org/2000/svg">
  <defs>
    <linearGradient id="yellow-gradient" x1="0%" x2="0%" y1="0%" y2="100%">
      <stop offset="0%" style="stop-color:#FDE02F;stop-opacity:1;"/>
      <stop offset="100%" style="stop-color:#F7B209;stop-opacity:1;"/>
    </linearGradient>
  </defs>
  <g id="color">
    <polygon fill="#3F3F3F" points="14.5943,53.154 18.2544,56.814 12.6242,59.0928" stroke="none"/>
    <polyline fill="#f4aa41" points="18.0381,41.8761 36.8684,23.0457 48.1813,34.3586 29.5108,53.0291" stroke="none"/>
    <polyline fill="#a57939" points="14.4132,52.5663 17.9281,43.3946 27.8278,53.2939 18.6558,56.809" stroke="none"/>
    <polyline fill="#EA5A47" points="42.9209,16.9933 50.4228,9.4913 61.7357,20.8042 54.2975,28.2424" stroke="none"/>
    <polyline fill="#9b9b9a" points="35.6498,24.2643 43.3318,16.5823 54.6447,27.8952 47.0278,35.512" stroke="none"/>
  </g>
  <g id="line">
    <polygon fill="none" points="18.6304,56.8203 27.8278,53.2939 53.8207,27.301 43.9212,17.4015 17.9281,43.3946 14.3904,52.6032" stroke="#000000" stroke-linecap="round" stroke-linejoin="round" stroke-miterlimit="10" stroke-width="2"/>
    <polyline fill="none" points="47.3354,13.9873 50.8388,10.4839 60.7383,20.3834 57.2645,23.8572" stroke="#000000" stroke-linecap="round" stroke-linejoin="round" stroke-miterlimit="10" stroke-width="2"/>
    <line fill="none" stroke="#000000" stroke-linecap="round" stroke-linejoin="round" stroke-miterlimit="10" stroke-width="2" x1="18.5562" x2="28.4557" y1="42.7665" y2="52.6659"/>
    <polyline fill="none" points="14.3979,52.5817 11.9073,59.3148 18.6558,56.809" stroke="#000000" stroke-linecap="round" stroke-linejoin="round" stroke-miterlimit="10" stroke-width="2"/>
    <line fill="none" stroke="#000000" stroke-linecap="round" stroke-linejoin="round" stroke-miterlimit="10" stroke-width="2" x1="36.9099" x2="46.4225" y1="25.0073" y2="34.5199"/>
  </g>
</svg>