<svg viewBox="9 9 54 54" xmlns="http://www.w3.org/2000/svg">
  <defs>
    <linearGradient id="yellow-gradient" x1="0%" x2="0%" y1="0%" y2="100%">
      <stop offset="0%" style="stop-color:#FDE02F;stop-opacity:1;"/>
      <stop offset="100%" style="stop-color:#F7B209;stop-opacity:1;"/>
    </linearGradient>
  </defs>
  <g id="line-supplement">
    <line fill="none" stroke="#000" stroke-linecap="round" stroke-linejoin="round" stroke-width="4" x1="36" x2="36" y1="20.9811" y2="51.0189"/>
    <line fill="none" stroke="#000" stroke-linecap="round" stroke-linejoin="round" stroke-width="4" x1="51.0189" x2="20.9811" y1="36" y2="36"/>
    <line fill="none" stroke="#000" stroke-linecap="round" stroke-linejoin="round" stroke-width="4" x1="46.62" x2="25.38" y1="25.38" y2="46.62"/>
    <line fill="none" stroke="#000" stroke-linecap="round" stroke-linejoin="round" stroke-width="4" x1="46.62" x2="25.38" y1="46.62" y2="25.38"/>
  </g>
  <g id="color">
    <path d="M60,60.9583H12a.9448.9448,0,0,1-1-1v-48a.9448.9448,0,0,1,1-1H60a.9448.9448,0,0,1,1,1v48A.9448.9448,0,0,1,60,60.9583Z" fill="#5c9e31"/>
    <line fill="none" stroke="#fff" stroke-linecap="round" stroke-linejoin="round" stroke-width="4" x1="36" x2="36" y1="20.9394" y2="50.9772"/>
    <line fill="none" stroke="#fff" stroke-linecap="round" stroke-linejoin="round" stroke-width="4" x1="51.0189" x2="20.9811" y1="35.9583" y2="35.9583"/>
    <line fill="none" stroke="#fff" stroke-linecap="round" stroke-linejoin="round" stroke-width="4" x1="46.62" x2="25.38" y1="25.3383" y2="46.5783"/>
    <line fill="none" stroke="#fff" stroke-linecap="round" stroke-linejoin="round" stroke-width="4" x1="46.62" x2="25.38" y1="46.5783" y2="25.3383"/>
  </g>
  <g id="line">
    <path d="M60,61H12a.9448.9448,0,0,1-1-1V12a.9448.9448,0,0,1,1-1H60a.9448.9448,0,0,1,1,1V60A.9448.9448,0,0,1,60,61Z" fill="none" stroke="#000" stroke-linecap="round" stroke-linejoin="round" stroke-width="2"/>
  </g>
</svg>