<svg viewBox="10 10 52 52" xmlns="http://www.w3.org/2000/svg">
  <defs>
    <linearGradient id="yellow-gradient" x1="0%" x2="0%" y1="0%" y2="100%">
      <stop offset="0%" style="stop-color:#FDE02F;stop-opacity:1;"/>
      <stop offset="100%" style="stop-color:#F7B209;stop-opacity:1;"/>
    </linearGradient>
  </defs>
  <g id="color">
    <path d="M59.04,60.1661H12.96c-0.5302,0-0.96-0.4298-0.96-0.96v-46.08c0-0.5302,0.4298-0.96,0.96-0.96h46.08 c0.5302,0,0.96,0.4298,0.96,0.96v46.08C60,59.7363,59.5702,60.1661,59.04,60.1661z" fill="#B1CC33" stroke="none"/>
    <polygon fill="#D0CFCE" points="42.8365,35.5749 45.318,33.0537 53.9787,24.2428 47.299,17.4473 38.6332,26.2634 36.2747,28.6596 35.9704,28.9662 24.7089,17.5094 18.0292,24.305 29.0954,35.563 29.2876,35.7585 26.6393,38.4493 17.2324,48.0192 23.9121,54.8147 33.3207,45.243 35.7397,42.7853 35.9659,42.5527 48.0879,54.8849 54.7676,48.0894 42.6507,35.7624" stroke="none"/>
  </g>
  <g id="line">
    <path d="M59.04,60.1661H12.96c-0.5302,0-0.96-0.4298-0.96-0.96v-46.08c0-0.5302,0.4298-0.96,0.96-0.96h46.08 c0.5302,0,0.96,0.4298,0.96,0.96v46.08C60,59.7363,59.5702,60.1661,59.04,60.1661z" fill="none" stroke="#000000" stroke-linecap="round" stroke-linejoin="round" stroke-miterlimit="10" stroke-width="2"/>
    <polygon fill="none" points="42.8365,35.5749 45.318,33.0537 53.9787,24.2428 47.299,17.4473 38.6332,26.2634 36.2747,28.6596 35.9704,28.9662 24.7089,17.5094 18.0292,24.305 29.0954,35.563 29.2876,35.7585 26.6393,38.4493 17.2324,48.0192 23.9121,54.8147 33.3207,45.243 35.7397,42.7853 35.9659,42.5527 48.0879,54.8849 54.7676,48.0894 42.6507,35.7624" stroke="#000000" stroke-linecap="round" stroke-linejoin="round" stroke-miterlimit="10" stroke-width="2"/>
  </g>
</svg>