<svg viewBox="8 8 56 56" xmlns="http://www.w3.org/2000/svg">
  <defs>
    <linearGradient id="yellow-gradient" x1="0%" x2="0%" y1="0%" y2="100%">
      <stop offset="0%" style="stop-color:#FDE02F;stop-opacity:1;"/>
      <stop offset="100%" style="stop-color:#F7B209;stop-opacity:1;"/>
    </linearGradient>
  </defs>
  <g id="color">
    <circle cx="36.0928" cy="58.8419" fill="#D22F27" r="3" stroke="none" stroke-linecap="round" stroke-linejoin="round" stroke-miterlimit="10" stroke-width="2"/>
    <path d="M35.9873,49.3729c-1.3809,0-2.5-1.1191-2.5-2.5V11.6636c0-1.3809,1.1191-2.5,2.5-2.5s2.5,1.1191,2.5,2.5v35.2093 C38.4873,48.2538,37.3682,49.3729,35.9873,49.3729z" fill="#D22F27" stroke="none" stroke-linecap="round" stroke-linejoin="round" stroke-miterlimit="10" stroke-width="2"/>
  </g>
  <g id="line">
    <circle cx="36.0928" cy="58.8419" fill="none" r="3" stroke="#000000" stroke-linecap="round" stroke-linejoin="round" stroke-miterlimit="10" stroke-width="2"/>
    <path d="M35.9873,49.3729c-1.3809,0-2.5-1.1191-2.5-2.5V11.6636c0-1.3809,1.1191-2.5,2.5-2.5s2.5,1.1191,2.5,2.5v35.2093 C38.4873,48.2538,37.3682,49.3729,35.9873,49.3729z" fill="none" stroke="#000000" stroke-linecap="round" stroke-linejoin="round" stroke-miterlimit="10" stroke-width="2"/>
  </g>
</svg>