<svg viewBox="10 10 52 52" xmlns="http://www.w3.org/2000/svg">
  <defs>
    <linearGradient id="yellow-gradient" x1="0%" x2="0%" y1="0%" y2="100%">
      <stop offset="0%" style="stop-color:#FDE02F;stop-opacity:1;"/>
      <stop offset="100%" style="stop-color:#F7B209;stop-opacity:1;"/>
    </linearGradient>
  </defs>
  <g id="color">
    <g id="line_2_">
      <path d="M52,20.65c0-4.7003-3.8103-8.5106-8.5106-8.5106c-3.2363,0-6.0501,1.8067-7.4894,4.4662 c-1.4392-2.6595-4.2531-4.4662-7.4894-4.4662C23.8103,12.1394,20,15.9497,20,20.65c0,2.0221,0.7083,3.8769,1.8862,5.337 l-0.0029,0.0023L36,43.4855l14.1167-17.4962l-0.0029-0.0023C51.2917,24.5268,52,22.672,52,20.65z" fill="#FFA7C0"/>
    </g>
    <ellipse cx="36.0216" cy="55.007" fill="#FFA7C0" rx="5.0001" ry="5.0001"/>
  </g>
  <g id="line">
    <ellipse cx="36.0216" cy="55.007" fill="none" rx="5.0001" ry="5.0001" stroke="#000000" stroke-miterlimit="10.0003" stroke-width="2.0001"/>
    <g id="line_1_">
      <path d="M52,20.65 c0-4.7003-3.8103-8.5106-8.5106-8.5106c-3.2363,0-6.0501,1.8067-7.4894,4.4662c-1.4392-2.6595-4.2531-4.4662-7.4894-4.4662 C23.8103,12.1394,20,15.9497,20,20.65c0,2.0221,0.7083,3.8769,1.8862,5.337l-0.0029,0.0023L36,43.4855l14.1167-17.4962 l-0.0029-0.0023C51.2917,24.5268,52,22.672,52,20.65z" fill="none" stroke="#000000" stroke-linejoin="round" stroke-miterlimit="10" stroke-width="2"/>
    </g>
  </g>
</svg>