<svg viewBox="11 11 50 50" xmlns="http://www.w3.org/2000/svg">
  <defs>
    <linearGradient id="yellow-gradient" x1="0%" x2="0%" y1="0%" y2="100%">
      <stop offset="0%" style="stop-color:#FDE02F;stop-opacity:1;"/>
      <stop offset="100%" style="stop-color:#F7B209;stop-opacity:1;"/>
    </linearGradient>
  </defs>
  <g id="color">
    <polygon fill="#D0CFCE" points="31.8532,29.8741 31.8532,12.521 42.1488,12.521 42.1488,29.8805 42.1967,29.8806 46.2484,29.8832 59.6052,29.8832 59.6052,40.1789 46.2562,40.1789 42.1493,40.1762 42.1488,40.206 42.1488,58.8513 31.8532,58.8513 31.8532,40.1694 31.7534,40.1693 27.9357,40.1667 14,40.1667 14,29.8711 27.9331,29.8711 31.7687,29.8737" stroke="none"/>
  </g>
  <g id="line">
    <polygon fill="none" points="31.8532,29.8741 31.8532,12.521 42.1488,12.521 42.1488,29.8805 42.1967,29.8806 46.2484,29.8832 59.6052,29.8832 59.6052,40.1789 46.2562,40.1789 42.1493,40.1762 42.1488,40.206 42.1488,58.8513 31.8532,58.8513 31.8532,40.1694 31.7534,40.1693 27.9357,40.1667 14,40.1667 14,29.8711 27.9331,29.8711 31.7687,29.8737" stroke="#000000" stroke-linecap="round" stroke-linejoin="round" stroke-miterlimit="10" stroke-width="2"/>
  </g>
</svg>