<svg viewBox="10 10 52 52" xmlns="http://www.w3.org/2000/svg">
  <defs>
    <linearGradient id="yellow-gradient" x1="0%" x2="0%" y1="0%" y2="100%">
      <stop offset="0%" style="stop-color:#FDE02F;stop-opacity:1;"/>
      <stop offset="100%" style="stop-color:#F7B209;stop-opacity:1;"/>
    </linearGradient>
  </defs>
  <g id="color">
    <path d="M40.1841,12L26.1294,26.8587l3.7285,3.413l7.5107-7.9438v16.4924c0,10.5232-5.7598,15.6386-17.6094,15.6386h-1V60h1 c14.9902,0,23.2461-7.522,23.2461-21.1797V22.3331l7.5078,7.9386l3.7275-3.413L40.1841,12z" fill="#3F3F3F" stroke="none" stroke-linecap="round" stroke-linejoin="round" stroke-miterlimit="10" stroke-width="2"/>
  </g>
  <g id="line">
    <path d="M40.1841,12L26.1294,26.8587l3.7285,3.413l7.5107-7.9438v16.4924c0,10.5232-5.7598,15.6386-17.6094,15.6386h-1V60h1 c14.9902,0,23.2461-7.522,23.2461-21.1797V22.3331l7.5078,7.9386l3.7275-3.413L40.1841,12z" fill="none" stroke="#000000" stroke-linecap="round" stroke-linejoin="round" stroke-miterlimit="10" stroke-width="2"/>
  </g>
</svg>