<svg viewBox="5 5 62 62" xmlns="http://www.w3.org/2000/svg">
  <defs>
    <linearGradient id="yellow-gradient" x1="0%" x2="0%" y1="0%" y2="100%">
      <stop offset="0%" style="stop-color:#FDE02F;stop-opacity:1;"/>
      <stop offset="100%" style="stop-color:#F7B209;stop-opacity:1;"/>
    </linearGradient>
  </defs>
  <g id="color">
    <polygon id="_" fill="#3f3f3f" points="48.341 19.828 44.641 23.928 53.841 32.528 17.54 32.528 26.74 23.928 23.04 19.828 6.34 35.628 23.04 51.428 26.74 47.328 17.54 38.728 53.841 38.728 44.641 47.328 48.341 51.428 65.041 35.628 48.341 19.828"/>
  </g>
  <g id="line">
    <polygon id="_2" fill="none" points="48.341 19.828 44.641 23.928 53.841 32.528 17.54 32.528 26.74 23.928 23.04 19.828 6.34 35.628 23.04 51.428 26.74 47.328 17.54 38.728 53.841 38.728 44.641 47.328 48.341 51.428 65.041 35.628 48.341 19.828" stroke="#000" stroke-linecap="round" stroke-linejoin="round" stroke-width="2"/>
  </g>
</svg>