<svg viewBox="7 7 58 58" xmlns="http://www.w3.org/2000/svg">
  <defs>
    <linearGradient id="yellow-gradient" x1="0%" x2="0%" y1="0%" y2="100%">
      <stop offset="0%" style="stop-color:#FDE02F;stop-opacity:1;"/>
      <stop offset="100%" style="stop-color:#F7B209;stop-opacity:1;"/>
    </linearGradient>
  </defs>
  <g id="color">
    <path d="M34.824,10.451 C35.525,9.942 36.475,9.942 37.176,10.451 L62.405,28.781 C63.106,29.291 63.399,30.193 63.132,31.017 L53.495,60.676 C53.227,61.5 52.459,62.058 51.593,62.058 L20.407,62.058 C19.541,62.058 18.773,61.5 18.505,60.676 L8.868,31.017 C8.601,30.193 8.894,29.291 9.595,28.781 L34.824,10.451 z" fill="#FFFFFF"/>
  </g>
  <g id="line">
    <path d="M34.824,10.451 C35.525,9.942 36.475,9.942 37.176,10.451 L62.405,28.781 C63.106,29.291 63.399,30.193 63.132,31.017 L53.495,60.676 C53.227,61.5 52.459,62.058 51.593,62.058 L20.407,62.058 C19.541,62.058 18.773,61.5 18.505,60.676 L8.868,31.017 C8.601,30.193 8.894,29.291 9.595,28.781 L34.824,10.451 z" fill="none" stroke="#000000" stroke-width="2"/>
  </g>
</svg>