<svg viewBox="6 6 60 60" xmlns="http://www.w3.org/2000/svg">
  <defs>
    <linearGradient id="yellow-gradient" x1="0%" x2="0%" y1="0%" y2="100%">
      <stop offset="0%" style="stop-color:#FDE02F;stop-opacity:1;"/>
      <stop offset="100%" style="stop-color:#F7B209;stop-opacity:1;"/>
    </linearGradient>
  </defs>
  <g id="color">
    <path d="M35.024 8.2613C35.6281 7.9129 36.3718 7.9129 36.9759 8.2613L59.5344 21.286C60.1385 21.6344 60.5103 22.2785 60.5103 22.9763V49.0237C60.5103 49.7215 60.1385 50.3656 59.5344 50.714L36.9759 63.7387C36.3718 64.0871 35.6281 64.0871 35.024 63.7387L12.4655 50.714C11.8615 50.3656 11.4896 49.7215 11.4896 49.0237V22.9763C11.4896 22.2785 11.8615 21.6344 12.4655 21.286L35.024 8.2613Z" fill="#A57939"/>
  </g>
  <g id="line">
    <path d="M35.024 8.2613C35.6281 7.9129 36.3718 7.9129 36.9759 8.2613L59.5344 21.286C60.1385 21.6344 60.5103 22.2785 60.5103 22.9763V49.0237C60.5103 49.7215 60.1385 50.3656 59.5344 50.714L36.9759 63.7387C36.3718 64.0871 35.6281 64.0871 35.024 63.7387L12.4655 50.714C11.8615 50.3656 11.4896 49.7215 11.4896 49.0237V22.9763C11.4896 22.2785 11.8615 21.6344 12.4655 21.286L35.024 8.2613Z" fill="none" stroke="#000" stroke-width="2"/>
  </g>
</svg>