<svg viewBox="5 5 62 62" xmlns="http://www.w3.org/2000/svg">
  <defs>
    <linearGradient id="yellow-gradient" x1="0%" x2="0%" y1="0%" y2="100%">
      <stop offset="0%" style="stop-color:#FDE02F;stop-opacity:1;"/>
      <stop offset="100%" style="stop-color:#F7B209;stop-opacity:1;"/>
    </linearGradient>
  </defs>
  <g id="color">
    <path d="M35,7.577 C35.619,7.22 36.381,7.22 37,7.577 L60.115,20.923 C60.734,21.28 61.115,21.94 61.115,22.655 L61.115,49.345 C61.115,50.06 60.734,50.72 60.115,51.077 L37,64.423 C36.381,64.78 35.619,64.78 35,64.423 L11.885,51.077 C11.266,50.72 10.885,50.06 10.885,49.345 L10.885,22.655 C10.885,21.94 11.266,21.28 11.885,20.923 L35,7.577 z" fill="#FFFFFF"/>
  </g>
  <g id="line">
    <path d="M35,7.577 C35.619,7.22 36.381,7.22 37,7.577 L60.115,20.923 C60.734,21.28 61.115,21.94 61.115,22.655 L61.115,49.345 C61.115,50.06 60.734,50.72 60.115,51.077 L37,64.423 C36.381,64.78 35.619,64.78 35,64.423 L11.885,51.077 C11.266,50.72 10.885,50.06 10.885,49.345 L10.885,22.655 C10.885,21.94 11.266,21.28 11.885,20.923 L35,7.577 z" fill="none" stroke="#000000" stroke-width="2"/>
  </g>
</svg>