<svg viewBox="4 4 64 64" xmlns="http://www.w3.org/2000/svg">
  <defs>
    <linearGradient id="yellow-gradient" x1="0%" x2="0%" y1="0%" y2="100%">
      <stop offset="0%" style="stop-color:#FDE02F;stop-opacity:1;"/>
      <stop offset="100%" style="stop-color:#F7B209;stop-opacity:1;"/>
    </linearGradient>
  </defs>
  <g id="line-supplement">
    <path d="M36 66.0001C52.5685 66.0001 66 52.5687 66 36.0001C66 19.4316 52.5685 6.00012 36 6.00012C19.4315 6.00012 6 19.4316 6 36.0001C6 52.5687 19.4315 66.0001 36 66.0001Z" fill="#000" stroke="#000" stroke-linejoin="round" stroke-width="2"/>
  </g>
  <g id="color">
    <path d="M36 66.0001C52.5685 66.0001 66 52.5687 66 36.0001C66 19.4316 52.5685 6.00012 36 6.00012C19.4315 6.00012 6 19.4316 6 36.0001C6 52.5687 19.4315 66.0001 36 66.0001Z" fill="#3F3F3F" stroke="#000" stroke-linejoin="round" stroke-width="2"/>
  </g>
  <g id="line">
    <path d="M36 66.0001C52.5685 66.0001 66 52.5687 66 36.0001C66 19.4316 52.5685 6.00012 36 6.00012C19.4315 6.00012 6 19.4316 6 36.0001C6 52.5687 19.4315 66.0001 36 66.0001Z" fill="none" stroke="#000" stroke-linejoin="round" stroke-width="2"/>
  </g>
</svg>