<svg viewBox="6 6 60 60" xmlns="http://www.w3.org/2000/svg">
  <defs>
    <linearGradient id="yellow-gradient" x1="0%" x2="0%" y1="0%" y2="100%">
      <stop offset="0%" style="stop-color:#FDE02F;stop-opacity:1;"/>
      <stop offset="100%" style="stop-color:#F7B209;stop-opacity:1;"/>
    </linearGradient>
  </defs>
  <g id="line-supplement">
    <path d="M55.9999 35.9585C56.0349 51.4217 47.1089 63.9768 36.063 64C25.0171 64.0231 16.0341 51.5057 16.0001 36.0415C15.9651 20.5783 24.8911 8.0232 35.937 8.00003C46.9829 7.97686 55.9659 20.4943 55.9999 35.9585Z" fill="#000"/>
  </g>
  <g id="color">
    <path d="M55.9999 35.9585C56.0349 51.4217 47.1089 63.9768 36.063 64C25.0171 64.0231 16.0341 51.5057 16.0001 36.0415C15.9651 20.5783 24.8911 8.0232 35.937 8.00003C46.9829 7.97686 55.9659 20.4943 55.9999 35.9585Z" fill="#3F3F3F"/>
  </g>
  <g id="line">
    <path d="M56 36C56 51.4637 47.046 64 36 64C24.954 64 16 51.4637 16 36C16 20.5363 24.954 8 36 8C47.046 8 56 20.5363 56 36Z" fill="none" stroke="#000" stroke-width="2"/>
  </g>
</svg>