<svg viewBox="7 7 58 58" xmlns="http://www.w3.org/2000/svg">
  <defs>
    <linearGradient id="yellow-gradient" x1="0%" x2="0%" y1="0%" y2="100%">
      <stop offset="0%" style="stop-color:#FDE02F;stop-opacity:1;"/>
      <stop offset="100%" style="stop-color:#F7B209;stop-opacity:1;"/>
    </linearGradient>
  </defs>
  <g id="color">
    <path d="M50.1655,50.5238l9.6-10.4,4.1,3.8-16.5,17.8-16.5-17.8,4.1-3.8,9.6,9.9806L44.5621,35.41c0-9.8053-3.9989-15.24-14.522-15.24C19.3324,20.17,15.83,26.9312,15.83,35.41V58.209H10.45V35.38c0-12.4,6.3149-20.59,19.59-20.59,13.5,0,20.1253,8.09,20.1253,20.59Z" fill="#3f3f3f"/>
  </g>
  <g id="line">
    <path d="M50.1655,50.5238l9.6-10.4,4.1,3.8-16.5,17.8-16.5-17.8,4.1-3.8,9.6,9.9806L44.5621,35.41c0-9.8053-3.9989-15.24-14.522-15.24C19.3324,20.17,15.83,26.9312,15.83,35.41V58.209H10.45V35.38c0-12.4,6.3149-20.59,19.59-20.59,13.5,0,20.1253,8.09,20.1253,20.59Z" fill="none" stroke="#000" stroke-linecap="round" stroke-linejoin="round" stroke-width="2"/>
  </g>
</svg>