<svg viewBox="5 5 62 62" xmlns="http://www.w3.org/2000/svg">
  <defs>
    <linearGradient id="yellow-gradient" x1="0%" x2="0%" y1="0%" y2="100%">
      <stop offset="0%" style="stop-color:#FDE02F;stop-opacity:1;"/>
      <stop offset="100%" style="stop-color:#F7B209;stop-opacity:1;"/>
    </linearGradient>
  </defs>
  <g id="color">
    <path d="M7,24c0,4.5035,1.4885,8.6593,4.0003,12.0024l-0.0056,0.0027C8.4863,39.3469,7,43.4999,7,48 c5.7457-0.9598,10.2971-4.5961,11.6138-9.2434l0.0066-0.0057C21.0555,44.0525,30.375,48,41.5,48C54.4787,48,65,42.6274,65,36 S54.4787,24,41.5,24c-11.127,0-20.4478,3.9489-22.8809,9.252l0.0089,0.0042C17.3466,28.6438,12.8817,25.0183,7.2187,24" fill="#F1B31C" stroke="none"/>
    <path d="M33.5741,47.3004C36.0503,47.7533,38.7187,48,41.5,48C54.4787,48,65,42.6274,65,36 c0-5.4539-7.1253-10.0581-16.8818-11.5175L33.5741,47.3004z" fill="#E27022" stroke="none"/>
  </g>
  <g id="line">
    <path d="M7,24c0,4.5035,1.4885,8.6593,4.0003,12.0024l-0.0056,0.0027C8.4863,39.3469,7,43.4999,7,48 c5.7457-0.9598,10.2971-4.5961,11.6138-9.2434l0.0066-0.0057C21.0555,44.0525,30.375,48,41.5,48C54.4787,48,65,42.6274,65,36 S54.4787,24,41.5,24c-11.127,0-20.4478,3.9489-22.8809,9.252l0.0089,0.0042C17.3466,28.6438,12.8817,25.0183,7.2187,24" fill="none" stroke="#000000" stroke-linecap="round" stroke-linejoin="round" stroke-miterlimit="10" stroke-width="2"/>
    <circle cx="53" cy="34" fill="#000000" r="2" stroke="none"/>
  </g>
</svg>