<svg viewBox="10 10 52 52" xmlns="http://www.w3.org/2000/svg">
  <defs>
    <linearGradient id="yellow-gradient" x1="0%" x2="0%" y1="0%" y2="100%">
      <stop offset="0%" style="stop-color:#FDE02F;stop-opacity:1;"/>
      <stop offset="100%" style="stop-color:#F7B209;stop-opacity:1;"/>
    </linearGradient>
  </defs>
  <g id="color">
    <path d="M58.0417,16.6667c0,0-2.5833,2.0833-6.2083,2.4583c0,0-5.7083-6.375-13.875-0.8333c-3.6667,2.5833-4,8.0417-3.375,10 c0,0-11.0833,0.875-20.75-10.4583c0,0-4.3333,7.5,2.8333,13.5c0,0-2.1182,0.3333-4.1317-1.3333c0,0-0.9517,7.75,7.715,9.9167 c0,0-0.5833,1-4.0833,0c0,0,0.5833,6.3333,8.8333,7.25c0,0-4.4569,4.5833-14.4784,4c0,0,16.5618,12.4167,34.4784-2.5833 c10-8.5,9.6667-20.75,9.5-22.5833c0,0,3.9491-3,4.9746-4.9167c0,0-3.0579,1-5.5579,1 C53.9167,22.0833,57.25,20.3333,58.0417,16.6667z" fill="#61b2e4" stroke="none" stroke-linecap="round" stroke-linejoin="round" stroke-miterlimit="10" stroke-width="2"/>
  </g>
  <g id="line">
    <path d="M58.0417,16.6667c0,0-2.5833,2.0833-6.2083,2.4583c0,0-5.7083-6.375-13.875-0.8333c-3.6667,2.5833-4,8.0417-3.375,10 c0,0-11.0833,0.875-20.75-10.4583c0,0-4.3333,7.5,2.8333,13.5c0,0-2.1182,0.3333-4.1317-1.3333c0,0-0.9517,7.75,7.715,9.9167 c0,0-0.5833,1-4.0833,0c0,0,0.5833,6.3333,8.8333,7.25c0,0-4.4569,4.5833-14.4784,4c0,0,16.5618,12.4167,34.4784-2.5833 c10-8.5,9.6667-20.75,9.5-22.5833c0,0,3.9491-3,4.9746-4.9167c0,0-3.0579,1-5.5579,1 C53.9167,22.0833,57.25,20.3333,58.0417,16.6667z" fill="none" stroke="#000000" stroke-linecap="round" stroke-linejoin="round" stroke-miterlimit="10" stroke-width="2"/>
  </g>
</svg>