<svg viewBox="11 11 50 50" xmlns="http://www.w3.org/2000/svg">
  <defs>
    <linearGradient id="yellow-gradient" x1="0%" x2="0%" y1="0%" y2="100%">
      <stop offset="0%" style="stop-color:#FDE02F;stop-opacity:1;"/>
      <stop offset="100%" style="stop-color:#F7B209;stop-opacity:1;"/>
    </linearGradient>
  </defs>
  <g id="color">
    <path d="M46.7845,12.6136h-21.569c-6.9598,0-12.6019,5.6421-12.6019,12.6019v21.5689 c0,6.9598,5.6421,12.6019,12.6019,12.6019h21.5689c6.9598,0,12.6019-5.6421,12.6019-12.6019V25.2155 C59.3864,18.2557,53.7443,12.6136,46.7845,12.6136z" fill="#FFFFFF"/>
  </g>
  <g id="line">
    <path d="M46.7845,12.6136h-21.569 c-6.9598,0-12.6019,5.6421-12.6019,12.6019v21.5689c0,6.9598,5.6421,12.6019,12.6019,12.6019h21.5689 c6.9598,0,12.6019-5.6421,12.6019-12.6019V25.2155C59.3864,18.2557,53.7443,12.6136,46.7845,12.6136z" fill="none" stroke="#000000" stroke-miterlimit="10" stroke-width="2"/>
    <circle cx="36" cy="36" fill="none" r="11.29" stroke="#000000" stroke-miterlimit="10" stroke-width="2"/>
    <circle cx="49.7092" cy="22.2908" r="2.4193"/>
  </g>
</svg>