<svg viewBox="5 5 62 62" xmlns="http://www.w3.org/2000/svg">
  <defs>
    <linearGradient id="yellow-gradient" x1="0%" x2="0%" y1="0%" y2="100%">
      <stop offset="0%" style="stop-color:#FDE02F;stop-opacity:1;"/>
      <stop offset="100%" style="stop-color:#F7B209;stop-opacity:1;"/>
    </linearGradient>
  </defs>
  <g id="color">
    <path d="M 63.873874,21.905712 C 63.204809,19.386148 61.233657,17.402098 58.73029,16.728737 54.19329,15.504988 36,15.504988 36,15.504988 c 0,0 -18.193191,0 -22.730324,1.223749 -2.503136,0.673361 -4.474637,2.657411 -5.143644,5.176975 -1.215727,4.566519 -1.215727,14.094287 -1.215727,14.094287 0,0 0,9.527636 1.215727,14.094587 0.669007,2.519265 2.640508,4.503295 5.143644,5.17695 C 17.806809,56.495012 36,56.495012 36,56.495012 c 0,0 18.19329,0 22.73029,-1.223476 2.503367,-0.673655 4.474519,-2.657685 5.143584,-5.17695 1.215821,-4.566951 1.215821,-14.094587 1.215821,-14.094587 0,0 0,-9.527768 -1.215821,-14.094287" fill="#ea5a47" stroke="none"/>
    <path d="M 30.049835,44.650447 45.255811,36.000396 30.049835,27.349517 Z" fill="#ffffff" stroke="none"/>
  </g>
  <g id="line">
    <path d="M 63.873874,21.905712 C 63.204809,19.386148 61.233657,17.402098 58.73029,16.728737 54.19329,15.504988 36,15.504988 36,15.504988 c 0,0 -18.193191,0 -22.730324,1.223749 -2.503136,0.673361 -4.474637,2.657411 -5.143644,5.176975 -1.215727,4.566519 -1.215727,14.094287 -1.215727,14.094287 0,0 0,9.527636 1.215727,14.094587 0.669007,2.519265 2.640508,4.503295 5.143644,5.17695 C 17.806809,56.495012 36,56.495012 36,56.495012 c 0,0 18.19329,0 22.73029,-1.223476 2.503367,-0.673655 4.474519,-2.657685 5.143584,-5.17695 1.215821,-4.566951 1.215821,-14.094587 1.215821,-14.094587 0,0 0,-9.527768 -1.215821,-14.094287" fill="none" stroke="#000000" stroke-miterlimit="10" stroke-width="2"/>
    <path d="M 30.049835,44.650447 45.255811,36.000396 30.049835,27.349517 Z" fill="none" stroke="#000000" stroke-linecap="round" stroke-linejoin="round" stroke-miterlimit="10" stroke-width="2"/>
  </g>
</svg>