<svg viewBox="9 9 54 54" xmlns="http://www.w3.org/2000/svg">
  <defs>
    <linearGradient id="yellow-gradient" x1="0%" x2="0%" y1="0%" y2="100%">
      <stop offset="0%" style="stop-color:#FDE02F;stop-opacity:1;"/>
      <stop offset="100%" style="stop-color:#F7B209;stop-opacity:1;"/>
    </linearGradient>
  </defs>
  <g id="color">
    <rect fill="#61b2e4" height="50" rx="3" width="50" x="11" y="11"/>
    <rect fill="#fff" height="21" width="6" x="20" y="30"/>
    <circle cx="23" cy="22" fill="#fff" r="3.5"/>
    <path d="m42.5 35c-2.209 0-4 1.168-4 4.5v11.5h-6v-21h6v2.21h-0.0016a7.981 7.981 0 0 1 6.002-2.71c4.418 0 8 3.3 8 9v12.5h-6v-11.5c0-3.332-1.791-4.5-4-4.5" fill="#fff"/>
  </g>
  <g id="line">
    <rect fill="none" height="50" rx="3" stroke="#000" stroke-miterlimit="10" stroke-width="2" width="50" x="11" y="11"/>
    <rect fill="none" height="21" stroke="#000" stroke-linecap="round" stroke-linejoin="round" stroke-width="2" width="6" x="20" y="30"/>
    <circle cx="23" cy="22" fill="none" r="3.5" stroke="#000" stroke-linecap="round" stroke-linejoin="round" stroke-width="2"/>
    <path d="m42.5 35c-2.209 0-4 1.168-4 4.5v11.5h-6v-21h6v2.21h-0.0016a7.981 7.981 0 0 1 6.002-2.71c4.418 0 8 3.3 8 9v12.5h-6v-11.5c0-3.332-1.791-4.5-4-4.5" fill="none" stroke="#000" stroke-linecap="round" stroke-linejoin="round" stroke-width="2"/>
  </g>
</svg>