<svg viewBox="0 0 72 72" xmlns="http://www.w3.org/2000/svg">
  <defs>
    <linearGradient id="yellow-gradient" x1="0%" x2="0%" y1="0%" y2="100%">
      <stop offset="0%" style="stop-color:#FDE02F;stop-opacity:1;"/>
      <stop offset="100%" style="stop-color:#F7B209;stop-opacity:1;"/>
    </linearGradient>
  </defs>
  <g id="line-supplement">
    <rect fill="#000" height="32" width="3.027" x="8" y="20"/>
    <rect fill="#000" height="32" width="6.0541" x="12.5406" y="20"/>
    <rect fill="#000" height="32" width="6.0541" x="20.1081" y="20"/>
    <rect fill="#000" height="32" width="6.0541" x="36.7568" y="20"/>
    <rect fill="#000" height="32" width="6.0541" x="48.8648" y="20"/>
    <rect fill="#000" height="32" width="3.027" x="27.6757" y="20"/>
    <rect fill="#000" height="32" width="3.027" x="32.2162" y="20"/>
    <rect fill="#000" height="32" width="3.027" x="44.3243" y="20"/>
    <rect fill="#000" height="32" width="3.027" x="56.4324" y="20"/>
    <rect fill="#000" height="32" width="3.027" x="60.973" y="20"/>
  </g>
  <g id="color">
    <rect fill="#fff" height="38" width="62" x="5" y="17"/>
    <rect fill="#D22F27" height="32" width="3.027" x="8" y="20"/>
    <rect fill="#D22F27" height="32" width="6.0541" x="12.5406" y="20"/>
    <rect fill="#D22F27" height="32" width="6.0541" x="20.1081" y="20"/>
    <rect fill="#61B2E4" height="32" width="6.0541" x="36.7568" y="20"/>
    <rect fill="#61B2E4" height="32" width="6.0541" x="48.8648" y="20"/>
    <rect fill="#5C9E31" height="32" width="3.027" x="27.6757" y="20"/>
    <rect fill="#5C9E31" height="32" width="3.027" x="32.2162" y="20"/>
    <rect fill="#61B2E4" height="32" width="3.027" x="44.3243" y="20"/>
    <rect fill="#5C9E31" height="32" width="3.027" x="56.4324" y="20"/>
    <rect fill="#5C9E31" height="32" width="3.027" x="60.973" y="20"/>
  </g>
  <g id="line">
    <rect fill="none" height="38" stroke="#000" stroke-linejoin="round" stroke-width="2" width="62" x="5" y="17"/>
  </g>
</svg>