<svg viewBox="6 6 60 60" xmlns="http://www.w3.org/2000/svg">
  <defs>
    <linearGradient id="yellow-gradient" x1="0%" x2="0%" y1="0%" y2="100%">
      <stop offset="0%" style="stop-color:#FDE02F;stop-opacity:1;"/>
      <stop offset="100%" style="stop-color:#F7B209;stop-opacity:1;"/>
    </linearGradient>
  </defs>
  <g id="color">
    <path d="M29 36.5V32C26.8333 32 22.5 34.7 22.5 45.5C22.5 56.3 31.1667 62.3333 35.5 64C36.1667 64 39.1 63.6 45.5 62C51.9 60.4 56.8333 54.6667 58.5 52C53.3333 53.6667 41.5 55.6 35.5 50C29.5 44.4 28.6667 38.6667 29 36.5Z" fill="#61B2E4"/>
    <path clip-rule="evenodd" d="M63.3049 26.2072C59.2885 15.0096 48.5796 7 36 7C19.9837 7 7 19.9837 7 36C7 52.0163 19.9837 65 36 65C36.1937 65 36.3869 64.9981 36.5797 64.9943C28.1007 62.4485 22 55.3538 22 47C22 36.5066 24.5 28.5 40.5 28.5C47.2548 28.5 54.2528 31.091 59.0315 35.2569L63.3049 26.2072Z" fill="#92D3F5" fill-rule="evenodd"/>
    <path clip-rule="evenodd" d="M64.9111 33.7122C64.8662 33.1366 64.8044 32.5657 64.7264 32C62.7779 17.8766 50.6591 7 36 7C21.2487 7 9.0698 18.0138 7.23807 32.2668C8.52315 31.1618 9.4674 29.7793 10.3786 28.4453C11.5764 26.6914 12.7171 25.0213 14.5 24.1756C22.8824 20.1993 33.1973 22.1852 37.9544 26.9422C41.4485 30.4364 42.3685 35.8502 41.0349 41.8003C41.9613 43.0051 43.4408 44.2426 45.5 44.5C49.5 45 60 42.5 63.5 36.5C64.0321 35.5878 64.5004 34.6492 64.9111 33.7122Z" fill="#92D3F5" fill-rule="evenodd"/>
    <path clip-rule="evenodd" d="M41.5654 38.2603C44.9644 34.226 47 29.091 47 23.5C47 17.2254 44.4362 11.5252 40.2587 7.31049C52.9522 9.17851 62.9702 19.2705 64.7264 32C64.8045 32.5657 64.8662 33.1366 64.9111 33.7121C64.5004 34.6492 64.0321 35.5878 63.5 36.5C60 42.5 49.5 45 45.5 44.5C43.4408 44.2426 41.9613 43.0051 41.0349 41.8003C41.3052 40.5944 41.4829 39.4106 41.5654 38.2603Z" fill="#61B2E4" fill-rule="evenodd"/>
  </g>
  <g id="line">
    <path d="M28 36C28 48 40 53.5 48 53.5C54.4 53.5 58.6667 51.8333 60 51C57 55.5 48 64.4 36 64C31.5 62.3333 22.5 56.4 22.5 46C22.5 33 32 28 36 28" fill="none" stroke="#000" stroke-linecap="round" stroke-linejoin="round" stroke-width="2"/>
    <path d="M12 21.5C15 16.3333 23 8 36 8C52.5076 8 65 19 64.5 30.5C64 42 55 45 48.5 45C43.3 45 41.1831 42 40.7747 40.5C41.7974 39.0684 42.5 37.3874 42.5 35.5C42.5 29 34.5 21.5 24 21.5C16.5 21.5 8 23.5 8 35.5" fill="none" stroke="#000" stroke-linecap="round" stroke-linejoin="round" stroke-width="2"/>
    <path d="M8 36C8 52 21 62 29 63" fill="none" stroke="#000" stroke-linecap="round" stroke-linejoin="round" stroke-width="2"/>
  </g>
</svg>