<svg viewBox="8 8 56 56" xmlns="http://www.w3.org/2000/svg">
  <defs>
    <linearGradient id="yellow-gradient" x1="0%" x2="0%" y1="0%" y2="100%">
      <stop offset="0%" style="stop-color:#FDE02F;stop-opacity:1;"/>
      <stop offset="100%" style="stop-color:#F7B209;stop-opacity:1;"/>
    </linearGradient>
  </defs>
  <g id="color">
    <polygon fill="#9b9b9a" points="18.494 46.107 29.697 46.107 29.697 51.728 41.132 51.728 41.132 57.349 52.371 57.349 52.371 62.853 18.494 62.853 18.494 46.107"/>
  </g>
  <g id="skin">
    <path d="M30.2458,35.1754l-.8973,3.1093a5.4643,5.4643,0,0,1-1.3964,2.2871l-4.0583,3.6811a1.8738,1.8738,0,0,1-2.4513-.0421,2.0485,2.0485,0,0,1,.2987-2.3233l4.1637-4.6711.3187-2.0831Z" fill="url(#yellow-gradient)"/>
    <path d="M26.6156,19.4248a6.2619,6.2619,0,0,1,3.5762-1.6161c2.309,0,2.8981,1.4336,3.0842,3.0314l.0311,2.4916v7.1007l3.487,4.9631a8.5845,8.5845,0,0,1,.1944,2.8445l-.3742,9.2773a1.61,1.61,0,0,1-1.5094,1.586,1.5787,1.5787,0,0,1-1.622-1.6012l-.2389-9.97-5.6953-5.66a4.7267,4.7267,0,0,1-.9331-2.8368V19.4248Z" fill="url(#yellow-gradient)"/>
    <circle cx="34.1238" cy="12.4667" fill="url(#yellow-gradient)" r="3.2656"/>
  </g>
  <g id="line">
    <path d="M30.2458,35.1754l-.8973,3.1093a5.4643,5.4643,0,0,1-1.3964,2.2871l-4.0583,3.6811a1.8738,1.8738,0,0,1-2.4513-.0421,2.0485,2.0485,0,0,1,.2987-2.3233l4.1637-4.6711.3187-2.0831" fill="none" stroke="#000" stroke-linecap="round" stroke-linejoin="round" stroke-width="2"/>
    <polyline fill="none" points="18.824 46.107 29.697 46.107 29.697 51.728 41.132 51.728 41.132 57.349 52.371 57.349 52.371 62.193" stroke="#000" stroke-linecap="round" stroke-linejoin="round" stroke-width="2"/>
    <path d="M33.3071,27.6766v2.7558l3.487,4.9631a8.5845,8.5845,0,0,1,.1944,2.8445l-.3742,9.2773a1.61,1.61,0,0,1-1.5094,1.586,1.5787,1.5787,0,0,1-1.622-1.6012l-.2389-9.97-5.6953-5.66a4.7267,4.7267,0,0,1-.9331-2.8368V23.64" fill="none" stroke="#000" stroke-linecap="round" stroke-linejoin="round" stroke-width="2"/>
    <line fill="none" stroke="#000" stroke-linecap="round" stroke-linejoin="round" stroke-width="2" x1="40.9226" x2="55.6084" y1="32.2169" y2="38.79"/>
    <path d="M40.2627,28.2575l-6.9556-3.936L33.276,20.84c-.1861-1.5978-.7752-3.0314-3.0842-3.0314-3.2685,0-7.3183,4.1-7.3183,5.8843v6.1942" fill="none" stroke="#000" stroke-linecap="round" stroke-linejoin="round" stroke-width="2"/>
    <path d="M30.8582,12.4667a3.2656,3.2656,0,1,1,3.2656,3.2656" fill="none" stroke="#000" stroke-linecap="round" stroke-linejoin="round" stroke-width="2"/>
  </g>
</svg>