<svg viewBox="6 6 60 60" xmlns="http://www.w3.org/2000/svg">
  <defs>
    <linearGradient id="yellow-gradient" x1="0%" x2="0%" y1="0%" y2="100%">
      <stop offset="0%" style="stop-color:#FDE02F;stop-opacity:1;"/>
      <stop offset="100%" style="stop-color:#F7B209;stop-opacity:1;"/>
    </linearGradient>
  </defs>
  <g id="color">
    <rect fill="#6a462f" height="55.1819" width="7.9472" x="31.0713" y="10.4815"/>
    <polygon fill="#a57939" points="31.071 18.66 31.071 10.481 39.018 10.481 39.018 16.558 31.071 18.66"/>
    <polygon fill="#a57939" points="42.605 14.992 58.181 14.992 62.873 21.172 58.181 27.421 42.605 27.421 42.605 14.992"/>
    <polygon fill="#6a462f" points="27.425 27.091 11.848 27.091 7.157 33.271 11.848 39.521 27.425 39.521 27.425 27.091"/>
    <polygon fill="#6a462f" points="42.605 23.216 60.975 18.672 62.873 21.172 58.181 27.421 42.605 27.421 42.605 23.216"/>
    <polygon fill="#a57939" points="7.157 33.271 27.425 27.091 11.848 27.091 7.157 33.271"/>
  </g>
  <g id="line">
    <polyline fill="none" points="18.23 27.091 11.848 27.091 7.157 33.271 11.848 39.521 27.425 39.521 27.425 33.982" stroke="#000" stroke-linecap="round" stroke-linejoin="round" stroke-width="2"/>
    <polyline fill="none" points="46.711 14.992 58.181 14.992 62.873 21.172 58.181 27.421 42.605 27.421 42.605 23.216" stroke="#000" stroke-linecap="round" stroke-linejoin="round" stroke-width="2"/>
    <polyline fill="none" points="31.071 65.663 31.071 10.481 39.018 10.481 39.018 65.663" stroke="#000" stroke-linecap="round" stroke-linejoin="round" stroke-width="2"/>
  </g>
</svg>