<svg viewBox="6 6 60 60" xmlns="http://www.w3.org/2000/svg">
  <defs>
    <linearGradient id="yellow-gradient" x1="0%" x2="0%" y1="0%" y2="100%">
      <stop offset="0%" style="stop-color:#FDE02F;stop-opacity:1;"/>
      <stop offset="100%" style="stop-color:#F7B209;stop-opacity:1;"/>
    </linearGradient>
  </defs>
  <g id="color">
    <rect fill="#9b9b9a" height="55.9423" rx="3.68" ry="3.68" width="34.0431" x="14.1816" y="7.9787"/>
    <path d="M44.3929,54.9961H18.0135a.9747.9747,0,0,1-.9727-.9727V15.117a.9748.9748,0,0,1,.9727-.9727H44.3929a.9748.9748,0,0,1,.9727.9727V54.0234A.919.919,0,0,1,44.3929,54.9961Z" fill="#3f3f3f"/>
    <path d="M46.2852,7.6752a13.0323,13.0323,0,0,0-9.2634,22.2024l-2.6729,8.5816,7.1733-5.6237a13.0317,13.0317,0,1,0,4.763-25.16Z" fill="url(#yellow-gradient)"/>
  </g>
  <g id="line">
    <path d="M45.3656,37.4681V54.0234a.919.919,0,0,1-.9727.9727H18.0135a.9747.9747,0,0,1-.9727-.9727V15.117a.9748.9748,0,0,1,.9727-.9727H31.572" fill="none" stroke="#000" stroke-linecap="round" stroke-linejoin="round" stroke-width="2"/>
    <circle cx="31.2032" cy="59.2523" fill="#000000" r="1.9453"/>
    <line fill="none" stroke="#000" stroke-linecap="round" stroke-linejoin="round" stroke-width="2" x1="33.3345" x2="26.3399" y1="11.2263" y2="11.2263"/>
    <path d="M48.2248,36.861v23.38a3.6908,3.6908,0,0,1-3.68,3.68H17.8616a3.6908,3.6908,0,0,1-3.68-3.68V11.6587a3.6908,3.6908,0,0,1,3.68-3.68H36.9708" fill="none" stroke="#000" stroke-linecap="round" stroke-linejoin="round" stroke-width="2"/>
    <polyline fill="none" points="46.892 26.339 46.892 20.594 43.989 20.594" stroke="#000" stroke-linecap="round" stroke-linejoin="round" stroke-width="2.5"/>
    <line fill="none" stroke="#000" stroke-linecap="round" stroke-linejoin="round" stroke-width="2.5" x1="49.6516" x2="43.9228" y1="26.3389" y2="26.3389"/>
    <circle cx="46.5887" cy="15.602" r="1.9093"/>
    <path d="M46.2851,7.6752A13.0261,13.0261,0,0,0,37.2562,30.1l-2.6037,8.36,7.0766-5.5479a13.03,13.03,0,1,0,4.556-25.2361Z" fill="none" stroke="#000" stroke-linecap="round" stroke-linejoin="round" stroke-width="2"/>
  </g>
</svg>