<svg viewBox="6 6 60 60" xmlns="http://www.w3.org/2000/svg">
  <defs>
    <linearGradient id="yellow-gradient" x1="0%" x2="0%" y1="0%" y2="100%">
      <stop offset="0%" style="stop-color:#FDE02F;stop-opacity:1;"/>
      <stop offset="100%" style="stop-color:#F7B209;stop-opacity:1;"/>
    </linearGradient>
  </defs>
  <g id="color">
    <circle cx="23.5753" cy="14.8168" fill="#9b9b9a" r="4.5579"/>
    <circle cx="31.9002" cy="14.393" fill="#3f3f3f" r="5.9228"/>
    <circle cx="36.5052" cy="35.6877" fill="#9b9b9a" r="3.7241"/>
    <circle cx="51.0004" cy="22.0283" fill="#9b9b9a" r="5.0643"/>
    <circle cx="40.1011" cy="10.9712" fill="#9b9b9a" r="4.3911"/>
    <circle cx="40.5708" cy="22.0052" fill="#3f3f3f" r="7.8212"/>
    <polygon fill="#9b9b9a" points="7.948 64.288 21.46 44.389 31.209 37.155 37.472 38.628 42.788 37.155 47.916 43.567 56.263 49.391 62.819 64.288 7.948 64.288"/>
    <polygon fill="#d0cfce" points="7.948 64.288 21.46 44.389 25.377 41.481 27.031 45.012 25.417 51.296 27.31 64.288 7.948 64.288"/>
    <polygon fill="#3f3f3f" points="62.819 64.288 43.646 64.288 47.527 52.151 44.411 49.646 47.916 43.567 56.263 49.391 62.819 64.288"/>
    <circle cx="35.8352" cy="28.5945" fill="#9b9b9a" r="5.6425"/>
  </g>
  <g id="line">
    <polyline fill="none" points="8.406 63.629 21.46 44.389 31.209 37.155 37.472 38.628 42.788 37.155 47.916 43.567 56.263 49.391 62.619 63.779" stroke="#000" stroke-linecap="round" stroke-linejoin="round" stroke-width="2"/>
    <polyline fill="none" points="25.377 41.481 27.031 45.012 25.417 51.296 26.333 58.609" stroke="#000" stroke-linecap="round" stroke-linejoin="round" stroke-width="2"/>
    <polyline fill="none" points="47.916 43.567 44.411 49.646 47.527 52.151 45.854 57.324" stroke="#000" stroke-linecap="round" stroke-linejoin="round" stroke-width="2"/>
    <path d="M32.952,23.7506a5.6368,5.6368,0,0,0-.2644,9.5271" fill="none" stroke="#000" stroke-linecap="round" stroke-linejoin="round" stroke-width="2"/>
    <path d="M44.4923,10.9711a4.3859,4.3859,0,0,0-8.6582-.9971,5.9116,5.9116,0,0,0-9.1162,1.5535,4.5489,4.5489,0,0,0-7.7,3.2892" fill="none" stroke="#000" stroke-linecap="round" stroke-linejoin="round" stroke-width="2"/>
    <path d="M56.0646,22.0283a5.0642,5.0642,0,0,0-7.8906-4.2022" fill="none" stroke="#000" stroke-linecap="round" stroke-linejoin="round" stroke-width="2"/>
    <path d="M38.5432,33.5448a5.6492,5.6492,0,0,0,2.8056-3.7577,7.8122,7.8122,0,0,0,5.8059-3.5711" fill="none" stroke="#000" stroke-linecap="round" stroke-linejoin="round" stroke-width="2"/>
    <path d="M32.8723,20.6177A7.8234,7.8234,0,0,1,47.4982,18.371" fill="none" stroke="#000" stroke-linecap="round" stroke-linejoin="round" stroke-width="2"/>
  </g>
</svg>