<svg viewBox="7 7 58 58" xmlns="http://www.w3.org/2000/svg">
  <defs>
    <linearGradient id="yellow-gradient" x1="0%" x2="0%" y1="0%" y2="100%">
      <stop offset="0%" style="stop-color:#FDE02F;stop-opacity:1;"/>
      <stop offset="100%" style="stop-color:#F7B209;stop-opacity:1;"/>
    </linearGradient>
  </defs>
  <g id="color">
    <polygon fill="#a57939" points="41.051 31.123 30.741 31.123 30.741 44.767 41.051 48 41.051 31.123"/>
    <path d="M9.9469,60.0494c5.3061,0,5.1545,3.1836,10.4605,3.1836s5.3061-3.1836,10.4606-3.1836,5.1544,3.1836,10.3089,3.1836,5.1544-3.1836,10.3089-3.1836S56.64,63.233,61.7947,63.233V56.8739c-5.1544,0-5.1544-3.1836-10.3089-3.1836s-5.1545,3.1836-10.3089,3.1836S36.0224,53.69,30.868,53.69s-5.1545,3.1836-10.4606,3.1836S15.253,53.69,9.9469,53.69Z" fill="#61b2e4"/>
    <path d="M9.9469,52.441c5.3061,0,5.1545,3.1837,10.4605,3.1837S25.7135,52.441,30.868,52.441s5.1544,3.1837,10.3089,3.1837,5.1544-3.1837,10.3089-3.1837,5.1545,3.1837,10.3089,3.1837V49.2656c-5.1544,0-5.1544-3.1837-10.3089-3.1837s-5.1545,3.1837-10.3089,3.1837-5.1545-3.1837-10.3089-3.1837-5.1545,3.1837-10.4606,3.1837-5.1544-3.1837-10.46-3.1837Z" fill="#92d3f5"/>
    <path d="M9.9469,45.4168c5.3061,0,5.1545,3.1836,10.4605,3.1836s5.3061-3.1836,10.4606-3.1836S36.0224,48.6,41.1769,48.6s5.1544-3.1836,10.3089-3.1836S56.64,48.6,61.7947,48.6V42.2413c-5.1544,0-5.1544-3.1836-10.3089-3.1836s-5.1545,3.1836-10.3089,3.1836-5.1545-3.1836-10.3089-3.1836-5.1545,3.1836-10.4606,3.1836-5.1544-3.1836-10.46-3.1836Z" fill="#92d3f5"/>
    <polygon fill="#ea5a47" points="16.6 25.201 35.686 8.917 55.192 25.201 16.6 25.201"/>
    <polygon fill="#ea5a47" points="28.922 14.674 28.922 10.009 22.991 10.009 22.991 19.743 28.922 14.674"/>
  </g>
  <g id="line">
    <line fill="none" stroke="#000" stroke-linecap="round" stroke-linejoin="round" stroke-width="2" x1="55.1849" x2="55.1849" y1="50.4349" y2="25.2007"/>
    <line fill="none" stroke="#000" stroke-linecap="round" stroke-linejoin="round" stroke-width="2" x1="16.6073" x2="16.6073" y1="25.2007" y2="50.9457"/>
    <polygon fill="none" points="16.6 25.201 35.686 8.917 55.192 25.201 16.6 25.201" stroke="#000" stroke-linecap="round" stroke-linejoin="round" stroke-width="2"/>
    <polygon fill="none" points="28.922 14.674 28.922 10.009 22.991 10.009 22.991 19.743 28.922 14.674" stroke="#000" stroke-linecap="round" stroke-linejoin="round" stroke-width="2"/>
    <polyline fill="none" points="30.741 41.21 30.741 31.123 41.051 31.123 41.051 44.197" stroke="#000" stroke-linecap="round" stroke-linejoin="round" stroke-width="2"/>
    <path d="M61.7947,56.4009c-5.1544,0-5.1544-3.1836-10.3089-3.1836s-5.1545,3.1836-10.3089,3.1836-5.1545-3.1836-10.3089-3.1836-5.1545,3.1836-10.4606,3.1836-5.1544-3.1836-10.46-3.1836" fill="none" stroke="#000" stroke-linecap="round" stroke-linejoin="round" stroke-width="2"/>
    <path d="M61.7947,48.9356c-5.1544,0-5.1544-3.1836-10.3089-3.1836s-5.1545,3.1836-10.3089,3.1836S36.0224,45.752,30.868,45.752s-5.1545,3.1836-10.4606,3.1836S15.253,45.752,9.9469,45.752" fill="none" stroke="#000" stroke-linecap="round" stroke-linejoin="round" stroke-width="2"/>
    <path d="M61.7947,63.8662c-5.1544,0-5.1544-3.1836-10.3089-3.1836s-5.1545,3.1836-10.3089,3.1836-5.1545-3.1836-10.3089-3.1836-5.1545,3.1836-10.4606,3.1836-5.1544-3.1836-10.46-3.1836" fill="none" stroke="#000" stroke-linecap="round" stroke-linejoin="round" stroke-width="2"/>
  </g>
</svg>