<svg viewBox="9 9 54 54" xmlns="http://www.w3.org/2000/svg">
  <defs>
    <linearGradient id="yellow-gradient" x1="0%" x2="0%" y1="0%" y2="100%">
      <stop offset="0%" style="stop-color:#FDE02F;stop-opacity:1;"/>
      <stop offset="100%" style="stop-color:#F7B209;stop-opacity:1;"/>
    </linearGradient>
  </defs>
  <g id="color">
    <circle cx="35.9393" cy="29.2806" fill="#3f3f3f" r="3.15"/>
    <polyline fill="#d0cfce" points="46.439 64.56 36.838 32.3 35.041 32.3 25.439 64.56"/>
  </g>
  <g id="line">
    <path d="M18.8627,46.3572a24.1519,24.1519,0,0,1-1.7821-32.1636" fill="none" stroke="#000" stroke-linecap="round" stroke-miterlimit="10" stroke-width="2"/>
    <path d="M54.798,14.1936a24.1519,24.1519,0,0,1-1.7821,32.1636" fill="none" stroke="#000" stroke-linecap="round" stroke-miterlimit="10" stroke-width="2"/>
    <path d="M48.2384,19.4412a15.7512,15.7512,0,0,1-1.1622,20.9763" fill="none" stroke="#000" stroke-linecap="round" stroke-miterlimit="10" stroke-width="2"/>
    <path d="M24.8024,40.4175A15.7511,15.7511,0,0,1,23.64,19.4413" fill="none" stroke="#000" stroke-linecap="round" stroke-miterlimit="10" stroke-width="2"/>
    <circle cx="35.9393" cy="29.2806" fill="none" r="3.15" stroke="#000" stroke-miterlimit="10" stroke-width="2"/>
    <line stroke="#000" stroke-linecap="round" stroke-linejoin="round" stroke-width="2" x1="28.5893" x2="43.2893" y1="55.4773" y2="55.4773"/>
    <line stroke="#000" stroke-linecap="round" stroke-linejoin="round" stroke-width="2" x1="31.7393" x2="40.1393" y1="43.6128" y2="43.6128"/>
    <line fill="none" stroke="#000" stroke-linecap="round" stroke-linejoin="round" stroke-width="2" x1="35.0407" x2="25.4393" y1="32.2999" y2="64.5596"/>
    <line fill="none" stroke="#000" stroke-linecap="round" stroke-linejoin="round" stroke-width="2" x1="46.4393" x2="36.838" y1="64.5596" y2="32.3001"/>
  </g>
</svg>