<svg viewBox="7 7 58 58" xmlns="http://www.w3.org/2000/svg">
  <defs>
    <linearGradient id="yellow-gradient" x1="0%" x2="0%" y1="0%" y2="100%">
      <stop offset="0%" style="stop-color:#FDE02F;stop-opacity:1;"/>
      <stop offset="100%" style="stop-color:#F7B209;stop-opacity:1;"/>
    </linearGradient>
  </defs>
  <g id="color">
    <path d="M31.6687,28.2991c-8.1155,0-13.92,5.3219-13.92,15.52V62.69h-6.14V43.4894c0-13.5,7.7484-20.793,20.2484-20.793H51.8389l-10.4-9.6,3.8-4.1,17.8,16.5-17.8,16.5-3.8-4.1,10.4-9.6Z" fill="#3f3f3f"/>
  </g>
  <g id="line">
    <path d="M31.6687,28.2991c-8.1155,0-13.92,5.3219-13.92,15.52V62.69h-6.14V43.4894c0-13.5,7.7484-20.793,20.2484-20.793H51.8389l-10.4-9.6,3.8-4.1,17.8,16.5-17.8,16.5-3.8-4.1,10.4-9.6Z" fill="none" stroke="#000" stroke-linecap="round" stroke-linejoin="round" stroke-width="2"/>
  </g>
</svg>