<svg viewBox="7 7 58 58" xmlns="http://www.w3.org/2000/svg">
  <defs>
    <linearGradient id="yellow-gradient" x1="0%" x2="0%" y1="0%" y2="100%">
      <stop offset="0%" style="stop-color:#FDE02F;stop-opacity:1;"/>
      <stop offset="100%" style="stop-color:#F7B209;stop-opacity:1;"/>
    </linearGradient>
  </defs>
  <g id="color">
    <path d="M45.1905,27.205H20.423v9.561A15.6418,15.6418,0,0,0,35.9937,52.4278a16.0014,16.0014,0,0,0,9.0146-2.8228A153.2983,153.2983,0,0,0,45.1905,27.205Z" fill="#f4aa41"/>
    <path d="M45.1905,27.205a165.7763,165.7763,0,0,1-.0911,22.3089,15.6337,15.6337,0,0,0,6.6472-12.839v-9.47Z" fill="#e27022"/>
    <polygon fill="#e27022" points="30.075 52.337 31.623 57.982 40.638 57.982 42.095 52.337 30.075 52.337"/>
    <rect fill="#e27022" height="6.4847" width="7.3756" x="32.4425" y="57.9822"/>
    <path d="M28.2973,9.631a3.0064,3.0064,0,0,1,3.0049,2.7979V26.2034H28.2973Z" fill="#3f3f3f"/>
    <path d="M44.51,9.631a3.0064,3.0064,0,0,1,3.0049,2.7979V26.2034H44.51Z" fill="#3f3f3f"/>
  </g>
  <g id="line">
    <path d="M31.3022,26.2034V12.6359A3.0316,3.0316,0,0,0,28.2973,9.631h0a3.0315,3.0315,0,0,0-3.0048,3.0049h0V26.2034" fill="none" stroke="#000" stroke-linecap="round" stroke-miterlimit="10" stroke-width="2"/>
    <path d="M47.5144,26.2034V12.6359A3.0315,3.0315,0,0,0,44.51,9.631h0a3.0316,3.0316,0,0,0-3.0049,3.0049h0V26.2034" fill="none" stroke="#000" stroke-linecap="round" stroke-miterlimit="10" stroke-width="2"/>
    <path d="M19.5124,26.2944V36.766a16.5724,16.5724,0,0,0,33.1447,0V26.2944Z" fill="none" stroke="#000" stroke-linecap="round" stroke-linejoin="round" stroke-width="2"/>
    <polyline fill="none" points="30.075 52.337 31.623 57.982 40.638 57.982 42.095 52.337" stroke="#000" stroke-linecap="round" stroke-linejoin="round" stroke-width="2"/>
    <polyline fill="none" points="32.442 64.467 32.442 57.982 39.818 57.982 39.818 64.467" stroke="#000" stroke-linecap="round" stroke-linejoin="round" stroke-width="2"/>
  </g>
</svg>