<svg viewBox="10 10 52 52" xmlns="http://www.w3.org/2000/svg">
  <defs>
    <linearGradient id="yellow-gradient" x1="0%" x2="0%" y1="0%" y2="100%">
      <stop offset="0%" style="stop-color:#FDE02F;stop-opacity:1;"/>
      <stop offset="100%" style="stop-color:#F7B209;stop-opacity:1;"/>
    </linearGradient>
  </defs>
  <g id="hair">
    <g id="hair-2">
      <path d="M26,38.042c-3,0-4-7-4-14,0-6,5-12,14-12s14,6,14,12c0,7-1,14-4,14" fill="#f1b31c"/>
    </g>
  </g>
  <g id="color">
    <g id="skin">
      <path d="M24.8471,28.6632c-.1,8,4.1,14,11,14,7.1,0,11.1-6,11.1-14,0-5-3-10-3-10-8,0-10,3-16,1A17.3021,17.3021,0,0,0,24.8471,28.6632Z" fill="url(#yellow-gradient)"/>
    </g>
    <g id="color-2">
      <path d="M16.9584,61.1493V57.1405c0-5.0109,5.011-9.02,10.0219-9.02q9.02,7.5165,18.0394,0c5.0109,0,10.0219,4.0088,10.0219,9.02v4.0088" fill="#92d3f5"/>
    </g>
    <path d="M24.51,29.1228v1.042c0,8.3286,4.8508,14.8539,11.044,14.8539s11.0442-6.5253,11.0442-14.8539c0-5.0665-1.8716-8.1824-5.5611-12.1229a67.2665,67.2665,0,0,1-9.4594,6.2845C28.7922,25.975,24.9947,28.2126,24.51,29.1228Z" fill="url(#yellow-gradient)"/>
    <polygon fill="#fff" points="26.447 35.399 35.43 33.832 45.541 35.326 45.924 37.052 40.511 45.427 30.681 45.427 25.184 35.763 26.447 35.399"/>
  </g>
  <g id="line">
    <path d="M22.0886,28.077a37.87,37.87,0,0,1-.1192-4.0087C21.9694,18.0552,26.98,12.042,36,12.042s14.0306,6.0132,14.0306,12.0263a37.3264,37.3264,0,0,1-.1191,4.0087" fill="none" stroke="#000" stroke-linecap="round" stroke-linejoin="round" stroke-width="2"/>
    <path d="M41.9129,30.0814a2.0044,2.0044,0,1,1-2.0044-2.0044,2.01,2.01,0,0,1,2.0044,2.0044"/>
    <path d="M33.8954,30.0814A2.0044,2.0044,0,1,1,31.891,28.077a2.01,2.01,0,0,1,2.0044,2.0044"/>
    <path d="M41.9129,30.0814a2.0044,2.0044,0,1,1-2.0044-2.0044,2.01,2.01,0,0,1,2.0044,2.0044"/>
    <path d="M33.8954,30.0814A2.0044,2.0044,0,1,1,31.891,28.077a2.01,2.01,0,0,1,2.0044,2.0044"/>
    <path d="M16.9584,60.1471V57.1405c0-5.0109,5.011-9.02,10.0219-9.02q9.02,7.5165,18.0394,0c5.0109,0,10.0219,4.0088,10.0219,9.02v3.0066" fill="none" stroke="#000" stroke-linecap="round" stroke-linejoin="round" stroke-width="2"/>
    <line fill="none" stroke="#000" stroke-linecap="round" stroke-linejoin="round" stroke-width="2" x1="46.1692" x2="49.4774" y1="35.3559" y2="32.7229"/>
    <line fill="none" stroke="#000" stroke-linecap="round" stroke-linejoin="round" stroke-width="2" x1="25.6297" x2="22.3298" y1="35.3559" y2="32.308"/>
    <path d="M47.05,29.6632c0-5-3-11-3-11-8,0-10,3-16,1,0,0-3,5-3.1,10" fill="none" stroke="#000" stroke-linecap="round" stroke-linejoin="round" stroke-width="2"/>
    <path d="M32.5955,45.0455c-1.333.0108-3.6243-1.8519-4.4967-3.071a14.785,14.785,0,0,1-2.4335-5.8173l-.1393-.45L34.4353,33.41a5.6014,5.6014,0,0,1,2.8793.0182l8.4081,2.2792h.5438a14.4865,14.4865,0,0,1-1.8409,5.7962c-.8769,1.4159-3.28,3.4562-4.7421,3.4681Z" fill="none" stroke="#000" stroke-linecap="round" stroke-linejoin="round" stroke-width="2"/>
  </g>
</svg>