<svg viewBox="7 7 58 58" xmlns="http://www.w3.org/2000/svg">
  <defs>
    <linearGradient id="yellow-gradient" x1="0%" x2="0%" y1="0%" y2="100%">
      <stop offset="0%" style="stop-color:#FDE02F;stop-opacity:1;"/>
      <stop offset="100%" style="stop-color:#F7B209;stop-opacity:1;"/>
    </linearGradient>
  </defs>
  <g id="color">
    <polygon fill="#a57939" points="12.902 14.702 35.007 17.003 35.362 61.053 39.106 61.053 39.106 13.552 12.902 11 12.902 14.702"/>
  </g>
  <g id="skin-shadow">
    <g id="skin">
      <g id="color-2">
        <path d="M59.8917,30.9781A3.0052,3.0052,0,0,0,56.95,28.0907H52.7569a3.0052,3.0052,0,0,0-2.9416,2.8874l-.5535,13.5857a.7131.7131,0,0,1-.0845.3054l2.05-1.4637L50.7288,58.874a.8615.8615,0,0,0,.1747.6143.1688.1688,0,0,0,.1062.0629c.15,0,.4585-.2982.5137-.7865l2.0258-15.7272a3.4412,3.4412,0,0,1,.2815-.8332l.5064-.5627h1.1356l.6877.4355a3.4427,3.4427,0,0,1,.246.9374L58.183,58.7633c.0552.4876.3648.7865.5143.7865a.17.17,0,0,0,.1063-.0629c.1343-.1736.342-.4089.3192-.629l-.6515-15.4523,2.4457,1.6982" fill="url(#yellow-gradient)"/>
        <circle cx="54.9093" cy="22.8452" fill="url(#yellow-gradient)" r="2.075"/>
      </g>
    </g>
    <g id="skin-2">
      <g id="color-2-2">
        <path d="M21.4537,30.9782a3.0052,3.0052,0,0,0-2.9416-2.8874H14.3188a3.0053,3.0053,0,0,0-2.9416,2.8874l-.5535,13.5857a.71.71,0,0,1-.0845.3053l2.05-1.4636-.4988,15.4685a.8607.8607,0,0,0,.1748.6142.1677.1677,0,0,0,.1062.0629c.1495,0,.4585-.2981.5137-.7865l2.0257-15.7271a3.45,3.45,0,0,1,.2815-.8332l.5065-.5627h1.1356l.6877.4354a3.4444,3.4444,0,0,1,.246.9375l1.7765,15.7487c.0552.4877.3648.7865.5144.7865a.1684.1684,0,0,0,.1062-.0629c.1344-.1735.3421-.4088.3193-.6289l-.6515-15.4523,2.4456,1.6982" fill="url(#yellow-gradient)"/>
        <circle cx="16.4713" cy="22.8453" fill="url(#yellow-gradient)" r="2.075"/>
      </g>
    </g>
    <polygon fill="#6a462f" points="39.106 13.552 34.617 18 12.902 14.851 12.902 10.766 39.106 13.552"/>
  </g>
  <g id="line">
    <polyline fill="none" points="13.902 14.702 35.007 17.003 35.362 61.053 39.106 61.053 38.873 13.552 13.902 11" stroke="#000" stroke-linecap="round" stroke-linejoin="round" stroke-width="2.2237"/>
    <g id="line-2">
      <g id="Standing_Man">
        <g id="line-2-2">
          <circle cx="55.0471" cy="23.0974" fill="none" r="2.075" stroke="#000" stroke-miterlimit="10" stroke-width="2"/>
          <path d="M58.5178,32.14l1.3279,26.5574c.0385.7688-.4018,1.3978-.9784,1.3978a1.4509,1.4509,0,0,1-1.2084-1.3887L55.8824,43.309c-.09-.7639-.4746-1.3887-.859-1.3887s-.7708.6248-.8589,1.3887L52.39,58.706a1.4509,1.4509,0,0,1-1.2084,1.3887c-.5766,0-1.0169-.629-.9784-1.3978L51.5311,32.14" fill="none" stroke="#000" stroke-linecap="round" stroke-linejoin="round" stroke-width="2"/>
          <path d="M48.7355,44.7193l.5536-13.2787a3.6858,3.6858,0,0,1,3.64-3.4944h4.1933" fill="none" stroke="#000" stroke-linecap="round" stroke-linejoin="round" stroke-width="2"/>
        </g>
        <path d="M57.0712,27.9461a3.6859,3.6859,0,0,1,3.64,3.4944l.5535,13.2787" fill="none" stroke="#000" stroke-linecap="round" stroke-linejoin="round" stroke-width="2"/>
      </g>
    </g>
    <g id="line-3">
      <g id="Standing_Man-2">
        <g id="line-2-3">
          <circle cx="16.6091" cy="23.1635" fill="none" r="2.075" stroke="#000" stroke-miterlimit="10" stroke-width="2"/>
          <path d="M20.08,32.2056,21.4077,58.763c.0384.7688-.4019,1.3978-.9785,1.3978a1.4509,1.4509,0,0,1-1.2083-1.3887l-1.7766-15.397c-.09-.7639-.4745-1.3887-.8589-1.3887s-.7709.6248-.8589,1.3887L13.952,58.7721a1.4509,1.4509,0,0,1-1.2084,1.3887c-.5765,0-1.0168-.629-.9784-1.3978l1.3279-26.5574" fill="none" stroke="#000" stroke-linecap="round" stroke-linejoin="round" stroke-width="2"/>
          <path d="M10.2975,44.7854l.5535-13.2787a3.686,3.686,0,0,1,3.64-3.4944h4.1933" fill="none" stroke="#000" stroke-linecap="round" stroke-linejoin="round" stroke-width="2"/>
        </g>
        <path d="M18.6331,28.0122a3.686,3.686,0,0,1,3.64,3.4944l.5535,13.2788" fill="none" stroke="#000" stroke-linecap="round" stroke-linejoin="round" stroke-width="2"/>
      </g>
    </g>
    <circle cx="26.1125" cy="29.3378" r="2"/>
    <circle cx="9.297" cy="19.0027" r="2"/>
    <circle cx="7" cy="26.0228" r="2"/>
    <circle cx="22.8264" cy="20" r="2"/>
    <circle cx="28.1125" cy="23.7843" r="2"/>
  </g>
</svg>