<svg viewBox="8 8 56 56" xmlns="http://www.w3.org/2000/svg">
  <defs>
    <linearGradient id="yellow-gradient" x1="0%" x2="0%" y1="0%" y2="100%">
      <stop offset="0%" style="stop-color:#FDE02F;stop-opacity:1;"/>
      <stop offset="100%" style="stop-color:#F7B209;stop-opacity:1;"/>
    </linearGradient>
  </defs>
  <g id="line-supplement">
    <circle cx="36" cy="36" fill-rule="evenodd" r="2.403" stroke="#000" stroke-linejoin="round" stroke-miterlimit="10" stroke-width="2"/>
    <path d="m28.46 17.87 15.07 36.39" fill="none" stroke="#000" stroke-linejoin="round" stroke-width="2"/>
    <path d="m17.73 43.54 36.37-15.07" fill="none" stroke="#000" stroke-linejoin="round" stroke-width="2"/>
    <path d="m17.75 28.44 36.31 15.04" fill="none" stroke="#000" stroke-linejoin="round" stroke-width="2"/>
    <path d="m43.43 17.96-14.97 36.13" fill="none" stroke="#000" stroke-linejoin="round" stroke-width="2"/>
  </g>
  <g id="color">
    <circle cx="35.68" cy="36" fill="#ffa7c0" r="2"/>
    <circle cx="36" cy="36" fill="#e27022" r="26"/>
    <circle cx="36" cy="36" fill="#f1b31c" r="19.63"/>
    <path d="m28.46 17.87 15.07 36.39" fill="none" stroke="#e27022" stroke-linejoin="round" stroke-width="2"/>
    <path d="m43.43 17.96-14.97 36.13" fill="none" stroke="#e27022" stroke-linejoin="round" stroke-width="2"/>
    <path d="m17.73 43.54 36.37-15.07" fill="none" stroke="#e27022" stroke-linejoin="round" stroke-width="2"/>
    <path d="m17.75 28.44 36.31 15.04" fill="none" stroke="#e27022" stroke-linejoin="round" stroke-width="2"/>
    <circle cx="36" cy="36" fill="#e27022" fill-rule="evenodd" r="2.403" stroke="#e27022" stroke-linejoin="round" stroke-miterlimit="10" stroke-width="2"/>
  </g>
  <g id="line">
    <path d="m62 36a26 26 0 0 1-26 26 26 26 0 0 1-26-26 26 26 0 0 1 26-26 26 26 0 0 1 26 26" fill="none" stroke="#000" stroke-miterlimit="10" stroke-width="2"/>
    <path d="m55.63 36a19.63 19.63 0 0 1-19.63 19.63 19.63 19.63 0 0 1-19.63-19.63 19.63 19.63 0 0 1 19.63-19.63 19.63 19.63 0 0 1 19.63 19.63" fill="none" stroke="#000" stroke-miterlimit="10" stroke-width="2"/>
  </g>
</svg>