<svg viewBox="9 9 54 54" xmlns="http://www.w3.org/2000/svg">
  <defs>
    <linearGradient id="yellow-gradient" x1="0%" x2="0%" y1="0%" y2="100%">
      <stop offset="0%" style="stop-color:#FDE02F;stop-opacity:1;"/>
      <stop offset="100%" style="stop-color:#F7B209;stop-opacity:1;"/>
    </linearGradient>
  </defs>
  <g id="color">
    <circle cx="38.5" cy="15" fill="#ea5a47" r="2" stroke="none"/>
    <circle cx="33.5" cy="15" fill="#ea5a47" r="2" stroke="none"/>
    <circle cx="36" cy="11" fill="#ea5a47" r="2" stroke="none"/>
    <path d="M60,57c0,1.6563-1.3428,3-3,3H15c-1.6572,0-3-1.3437-3-3v-1h48V57z" fill="#FFFFFF" stroke="none" stroke-linecap="round" stroke-linejoin="round" stroke-miterlimit="10" stroke-width="2"/>
    <path d="M55.7666,34.4141L58,56H14l2.2334-21.5859L17,27c0-5.5229,4.4775-10,10-10h18c5.5225,0,10,4.4771,10,10 L55.7666,34.4141z" fill="url(#yellow-gradient)" stroke="none"/>
    <path d="M55.5332,34.4141C55.0371,34.7773,54.4297,35,53.7666,35c-1.6572,0-3-1.3437-3-3v-2c0-1.6567-1.3428-3-3-3 s-3,1.3433-3,3v2c0,1.6563-1.3428,3-3,3s-3-1.3437-3-3v-2c0-1.6567-1.3428-3-3-3s-3,1.3433-3,3v2c0,1.6563-1.3428,3-3,3 s-3-1.3437-3-3v-2c0-1.6567-1.3428-3-3-3c-1.6572,0-3,1.3433-3,3v2c0,1.6563-1.3428,3-3,3c-0.6631,0-1.2705-0.2227-1.7666-0.5859 L16.7666,27c0-5.5229,4.4775-10,10-10h18c5.5225,0,10,4.4771,10,10L55.5332,34.4141z" fill="#a57939" stroke="none"/>
  </g>
  <g id="line">
    <path d="M60,57c0,1.6563-1.3428,3-3,3H15c-1.6572,0-3-1.3437-3-3v-1h48V57z" fill="none" stroke="#000000" stroke-linecap="round" stroke-linejoin="round" stroke-miterlimit="10" stroke-width="2"/>
    <circle cx="38.5" cy="15" fill="none" r="2" stroke="#000000" stroke-linecap="round" stroke-linejoin="round" stroke-miterlimit="10" stroke-width="2"/>
    <circle cx="33.5" cy="15" fill="none" r="2" stroke="#000000" stroke-linecap="round" stroke-linejoin="round" stroke-miterlimit="10" stroke-width="2"/>
    <circle cx="36" cy="11" fill="none" r="2" stroke="#000000" stroke-linecap="round" stroke-linejoin="round" stroke-miterlimit="10" stroke-width="2"/>
    <path d="M16.2334,34.4141L17,27c0-5.5229,4.4775-10,10-10h18c5.5225,0,10,4.4771,10,10l0.7666,7.4141" fill="none" stroke="#000000" stroke-linecap="round" stroke-linejoin="round" stroke-miterlimit="10" stroke-width="2"/>
    <polyline fill="none" points="16.2334,34.4141 14,56 58,56 55.7666,34.4141" stroke="#000000" stroke-linecap="round" stroke-linejoin="round" stroke-miterlimit="10" stroke-width="2"/>
    <path d="M16.2334,34.4141C16.7295,34.7773,17.3369,35,18,35c1.6572,0,3-1.3437,3-3v-2c0-1.6567,1.3428-3,3-3c1.6572,0,3,1.3433,3,3v2 c0,1.6563,1.3428,3,3,3c1.6572,0,3-1.3437,3-3v-2c0-1.6567,1.3428-3,3-3c1.6572,0,3,1.3433,3,3v2c0,1.6563,1.3428,3,3,3 c1.6572,0,3-1.3437,3-3v-2c0-1.6567,1.3428-3,3-3c1.6572,0,3,1.3433,3,3v2c0,1.6563,1.3428,3,3,3 c0.6631,0,1.2705-0.2227,1.7666-0.5859" fill="none" stroke="#000000" stroke-linecap="round" stroke-linejoin="round" stroke-miterlimit="10" stroke-width="2"/>
  </g>
</svg>