<svg viewBox="9 9 54 54" xmlns="http://www.w3.org/2000/svg">
  <defs>
    <linearGradient id="yellow-gradient" x1="0%" x2="0%" y1="0%" y2="100%">
      <stop offset="0%" style="stop-color:#FDE02F;stop-opacity:1;"/>
      <stop offset="100%" style="stop-color:#F7B209;stop-opacity:1;"/>
    </linearGradient>
  </defs>
  <g id="color">
    <path d="M45.5,25.1h-3.75c0-3.18-2.57-5.75-5.75-5.75s-5.75,2.57-5.75,5.75H26.5c0-5.25,4.25-9.5,9.5-9.5 S45.5,19.85,45.5,25.1z" fill="#9B9B9A"/>
    <rect fill="#D0CFCE" height="30.9" width="50.17" x="10.83" y="25.1"/>
    <polyline fill="#EA5A47" points="38.9194,36.7604 43.7943,36.7604 43.7943,43.3437 38.9188,43.3437 38.961,43.3021 38.961,48.1771 32.3776,48.1771 32.3776,43.3015"/>
    <polyline fill="#EA5A47" points="32.3362,43.3437 27.5443,43.3437 27.5443,36.7604 32.336,36.7604 32.3776,36.7189 32.3776,31.9271 38.961,31.9271 38.961,36.7188"/>
  </g>
  <g id="line">
    <path d="M45.5,25.1h-3.75c0-3.18-2.57-5.75-5.75-5.75s-5.75,2.57-5.75,5.75H26.5c0-5.25,4.25-9.5,9.5-9.5S45.5,19.85,45.5,25.1z" fill="none" stroke="#000000" stroke-linecap="round" stroke-linejoin="round" stroke-miterlimit="10" stroke-width="2"/>
    <path d="M30.25,25.1c0-3.18,2.57-5.75,5.75-5.75s5.75,2.57,5.75,5.75" fill="none" stroke="#000000" stroke-linecap="round" stroke-linejoin="round" stroke-miterlimit="10" stroke-width="2"/>
    <rect fill="none" height="30.9" stroke="#000000" stroke-linecap="round" stroke-linejoin="round" stroke-miterlimit="10" stroke-width="2" width="50.17" x="10.83" y="25.1"/>
    <polyline fill="none" points="38.9194,36.7604 43.7943,36.7604 43.7943,43.3437 38.9188,43.3437 38.961,43.3021 38.961,48.1771 32.3776,48.1771 32.3776,43.3015" stroke="#000000" stroke-linecap="round" stroke-linejoin="round" stroke-miterlimit="10" stroke-width="2"/>
    <polyline fill="none" points="32.3362,43.3437 27.5443,43.3437 27.5443,36.7604 32.336,36.7604 32.3776,36.7189 32.3776,31.9271 38.961,31.9271 38.961,36.7188" stroke="#000000" stroke-linecap="round" stroke-linejoin="round" stroke-miterlimit="10" stroke-width="2"/>
  </g>
</svg>