<svg viewBox="9 9 54 54" xmlns="http://www.w3.org/2000/svg">
  <defs>
    <linearGradient id="yellow-gradient" x1="0%" x2="0%" y1="0%" y2="100%">
      <stop offset="0%" style="stop-color:#FDE02F;stop-opacity:1;"/>
      <stop offset="100%" style="stop-color:#F7B209;stop-opacity:1;"/>
    </linearGradient>
  </defs>
  <g id="color">
    <path d="M52.1667,42.2845H19.8333v-18.154c0-7.831,6.3483-14.1794,14.1794-14.1794h4.1003c7.7617,0,14.0537,6.2921,14.0537,14.0537V42.2845 z" fill="#61b2e4" stroke="none" stroke-linecap="round" stroke-linejoin="round" stroke-miterlimit="10" stroke-width="2"/>
    <path d="M61,55.0208h-8.8333V28h3.7829C58.7388,28,61,30.2612,61,33.0505V55.0208z" fill="#61b2e4" stroke="none" stroke-linecap="round" stroke-linejoin="round" stroke-miterlimit="10" stroke-width="2"/>
    <rect fill="#61b2e4" height="12.7363" stroke="none" stroke-linecap="round" stroke-linejoin="round" stroke-miterlimit="10" stroke-width="2" width="32.3333" x="19.8333" y="42.2845"/>
    <path d="M52.1667,42.2845H19.8333v-3.3504c0-2.1612,1.752-3.9133,3.9133-3.9133h23.6831c2.6162,0,4.737,2.1208,4.737,4.737V42.2845z" fill="#61b2e4" stroke="none" stroke-linecap="round" stroke-linejoin="round" stroke-miterlimit="10" stroke-width="2"/>
    <path d="M11,55.0208h8.8333V28h-3.7829C13.2612,28,11,30.2612,11,33.0505V55.0208z" fill="#61b2e4" stroke="none" stroke-linecap="round" stroke-linejoin="round" stroke-miterlimit="10" stroke-width="2"/>
  </g>
  <g id="line">
    <path d="M52.1667,42.2845H19.8333v-18.154c0-7.831,6.3483-14.1794,14.1794-14.1794h4.1003c7.7617,0,14.0537,6.2921,14.0537,14.0537V42.2845 z" fill="none" stroke="#000000" stroke-linecap="round" stroke-linejoin="round" stroke-miterlimit="10" stroke-width="2"/>
    <path d="M61,55.0208h-8.8333V28h3.7829C58.7388,28,61,30.2612,61,33.0505V55.0208z" fill="none" stroke="#000000" stroke-linecap="round" stroke-linejoin="round" stroke-miterlimit="10" stroke-width="2"/>
    <rect fill="none" height="12.7363" stroke="#000000" stroke-linecap="round" stroke-linejoin="round" stroke-miterlimit="10" stroke-width="2" width="32.3333" x="19.8333" y="42.2845"/>
    <path d="M52.1667,42.2845H19.8333v-3.3504c0-2.1612,1.752-3.9133,3.9133-3.9133h23.6831c2.6162,0,4.737,2.1208,4.737,4.737V42.2845z" fill="none" stroke="#000000" stroke-linecap="round" stroke-linejoin="round" stroke-miterlimit="10" stroke-width="2"/>
    <path d="M11,55.0208h8.8333V28h-3.7829C13.2612,28,11,30.2612,11,33.0505V55.0208z" fill="none" stroke="#000000" stroke-linecap="round" stroke-linejoin="round" stroke-miterlimit="10" stroke-width="2"/>
    <circle cx="29.7686" cy="18.7095" fill="#000000" r="1.1672" stroke="none"/>
    <circle cx="42.5595" cy="18.7095" fill="#000000" r="1.1672" stroke="none"/>
    <circle cx="29.7686" cy="27.4384" fill="#000000" r="1.1672" stroke="none"/>
    <circle cx="42.5595" cy="27.4384" fill="#000000" r="1.1672" stroke="none"/>
  </g>
</svg>