<svg viewBox="4 4 64 64" xmlns="http://www.w3.org/2000/svg">
  <defs>
    <linearGradient id="yellow-gradient" x1="0%" x2="0%" y1="0%" y2="100%">
      <stop offset="0%" style="stop-color:#FDE02F;stop-opacity:1;"/>
      <stop offset="100%" style="stop-color:#F7B209;stop-opacity:1;"/>
    </linearGradient>
  </defs>
  <g id="color">
    <polygon fill="#EA5A47" points="45,66 27,66 27,28 36,28 45,25" stroke="none"/>
    <polygon fill="#D22F27" points="33,66 45,33 45,66" stroke="none"/>
    <polygon fill="#D0CFCE" points="45,25 45,36 27,36 27,28 36,28" stroke="none"/>
    <line fill="#D0CFCE" stroke="none" x1="36" x2="36" y1="28" y2="35"/>
    <path d="M35,17.7143C35,20.8571,33.2091,25,31,25s-4-4.1429-4-7.2857C27,11.8865,31,9,31,6C31,9,35,11.4286,35,17.7143z" fill="#F1B31C" stroke="none" stroke-linecap="round" stroke-linejoin="round" stroke-miterlimit="10" stroke-width="2"/>
  </g>
  <g id="line">
    <polygon fill="none" points="45,66 27,66 27,28 36,28 45,25" stroke="#000000" stroke-linecap="round" stroke-linejoin="round" stroke-miterlimit="10" stroke-width="2"/>
    <path d="M35,17.7143C35,20.8571,33.2091,25,31,25s-4-4.1429-4-7.2857C27,11.8865,31,9,31,6C31,9,35,11.4286,35,17.7143z" fill="none" stroke="#000000" stroke-linecap="round" stroke-linejoin="round" stroke-miterlimit="10" stroke-width="2"/>
    <path d="M35,17.7143C35,20.8571,33.2091,25,31,25s-4-4.1429-4-7.2857C27,11.8865,31,9,31,6C31,9,35,11.4286,35,17.7143z" fill="none" stroke="#000000" stroke-linecap="round" stroke-linejoin="round" stroke-miterlimit="10" stroke-width="2"/>
    <line fill="none" stroke="#000000" stroke-linecap="round" stroke-linejoin="round" stroke-miterlimit="10" stroke-width="2" x1="27" x2="45" y1="35" y2="35"/>
    <line fill="none" stroke="#000000" stroke-linecap="round" stroke-linejoin="round" stroke-miterlimit="10" stroke-width="2" x1="36" x2="36" y1="28" y2="31"/>
  </g>
</svg>