<svg viewBox="0 0 72 72" xmlns="http://www.w3.org/2000/svg">
  <defs>
    <linearGradient id="yellow-gradient" x1="0%" x2="0%" y1="0%" y2="100%">
      <stop offset="0%" style="stop-color:#FDE02F;stop-opacity:1;"/>
      <stop offset="100%" style="stop-color:#F7B209;stop-opacity:1;"/>
    </linearGradient>
  </defs>
  <g id="color">
    <rect fill="#d0cfce" height="38.7052" rx="3.4092" ry="3.4092" width="62.5993" x="4.7004" y="20.1471"/>
    <rect fill="#9b9b9a" height="15.6727" rx="1.5573" ry="1.5573" width="9.0029" x="31.396" y="10.5993"/>
    <path d="M17.4032,30.6509H55.1065a5.7472,5.7472,0,0,1,5.7472,5.7472V50.7022a2.9184,2.9184,0,0,1-2.9184,2.9184H12.783a2.9184,2.9184,0,0,1-2.9184-2.9184V38.1894A7.5386,7.5386,0,0,1,17.4032,30.6509Z" fill="#9b9b9a"/>
    <rect fill="#fff" height="19.7312" rx="2.9184" ry="2.9184" width="47.9998" x="11.4738" y="31.3668"/>
  </g>
  <g id="line">
    <path d="M40.5015,20.6474h23.389A3.4091,3.4091,0,0,1,67.3,24.0566V55.9434a3.4091,3.4091,0,0,1-3.4091,3.4092H8.11A3.4091,3.4091,0,0,1,4.7,55.9434V24.0566A3.4091,3.4091,0,0,1,8.11,20.6474H31.396" fill="none" stroke="#000" stroke-linecap="round" stroke-linejoin="round" stroke-width="2"/>
    <rect fill="none" height="19.7312" rx="2.9184" ry="2.9184" stroke="#000" stroke-linecap="round" stroke-linejoin="round" stroke-width="2" width="47.9998" x="11.4738" y="31.3668"/>
    <polyline fill="none" points="52.396 38.141 48.396 38.141 48.396 45.141 52.396 45.141" stroke="#000" stroke-linecap="round" stroke-linejoin="round" stroke-width="2"/>
    <line fill="none" stroke="#000" stroke-linecap="round" stroke-linejoin="round" stroke-width="2" x1="48.396" x2="51.396" y1="41.641" y2="41.641"/>
    <polyline fill="none" points="34.396 45.141 31.396 38.141 28.396 45.141" stroke="#000" stroke-linecap="round" stroke-linejoin="round" stroke-width="2"/>
    <line fill="none" stroke="#000" stroke-linecap="round" stroke-linejoin="round" stroke-width="2" x1="29.396" x2="33.396" y1="43.4649" y2="43.4649"/>
    <polyline fill="none" points="19.396 45.141 19.396 38.141 24.396 45.141 24.396 38.141" stroke="#000" stroke-linecap="round" stroke-linejoin="round" stroke-width="2"/>
    <polyline fill="none" points="44.396 45.141 44.396 38.141 41.396 44.141 38.396 38.141 38.396 45.141" stroke="#000" stroke-linecap="round" stroke-linejoin="round" stroke-width="2"/>
    <rect fill="none" height="15.6727" rx="1.5573" ry="1.5573" stroke="#000" stroke-miterlimit="10" stroke-width="2" width="9.0029" x="31.4986" y="10.2372"/>
  </g>
</svg>