<svg viewBox="6 6 60 60" xmlns="http://www.w3.org/2000/svg">
  <defs>
    <linearGradient id="yellow-gradient" x1="0%" x2="0%" y1="0%" y2="100%">
      <stop offset="0%" style="stop-color:#FDE02F;stop-opacity:1;"/>
      <stop offset="100%" style="stop-color:#F7B209;stop-opacity:1;"/>
    </linearGradient>
  </defs>
  <g id="color">
    <rect fill="#1e50a0" height="5" rx="1" width="21" x="25" y="12"/>
    <rect fill="#1e50a0" height="48" rx="1" width="26" x="23" y="16"/>
    <path clip-rule="evenodd" d="m38 9.6c0-0.8837-0.8954-1.6-2-1.6s-2 0.7163-2 1.6v2.4h4z" fill="#fff" fill-rule="evenodd"/>
    <rect fill="#3f3f3f" fill-opacity="0.502" height="8" rx="1.125" ry="1.143" width="9" x="37" y="53"/>
    <rect fill="#3f3f3f" fill-opacity="0.502" height="8" rx="1.125" ry="1.143" width="9" x="26" y="53"/>
    <rect fill="#3f3f3f" fill-opacity="0.502" height="8" rx="1.125" ry="1.143" width="9" x="37" y="43"/>
    <rect fill="#3f3f3f" fill-opacity="0.502" height="8" rx="1.125" ry="1.143" width="9" x="26" y="43"/>
    <rect fill="#3f3f3f" fill-opacity="0.502" height="8" rx="1.125" ry="1.143" width="9" x="37" y="33"/>
    <rect fill="#3f3f3f" fill-opacity="0.502" height="8" rx="1.125" ry="1.143" width="9" x="26" y="33"/>
    <rect fill="#fff" height="8" rx="1.125" ry="1.143" width="9" x="37" y="23"/>
    <rect fill="#fff" height="8" rx="1.125" ry="1.143" width="9" x="26" y="23"/>
  </g>
  <g id="line">
    <rect height="3" rx="1" ry="1" width="20" x="26" y="18.5"/>
    <path d="m38 54.01v5.986h6.986" fill="none" stroke="#000" stroke-linecap="round" stroke-linejoin="round" stroke-width="2"/>
    <path d="m27 54.01v5.986h6.986" fill="none" stroke="#000" stroke-linecap="round" stroke-linejoin="round" stroke-width="2"/>
    <path d="m38 44v6h7" fill="none" stroke="#000" stroke-linecap="round" stroke-linejoin="round" stroke-width="2"/>
    <path d="m27 44.01v5.986h6.986" fill="none" stroke="#000" stroke-linecap="round" stroke-linejoin="round" stroke-width="2"/>
    <path d="m38 34.01v5.986h6.986" fill="none" stroke="#000" stroke-linecap="round" stroke-linejoin="round" stroke-width="2"/>
    <path d="m27 34.01v5.986h6.986" fill="none" stroke="#000" stroke-linecap="round" stroke-linejoin="round" stroke-width="2"/>
    <path d="m38 24.01v5.986h6.986" fill="none" stroke="#000" stroke-linecap="round" stroke-linejoin="round" stroke-width="2"/>
    <path d="m27 24.01v5.986h6.986" fill="none" stroke="#000" stroke-linecap="round" stroke-linejoin="round" stroke-width="2"/>
    <rect fill="none" height="48" rx="1" stroke="#000" stroke-width="2" width="26" x="23" y="16"/>
    <path d="m34 12v-2.4c0-0.8837 0.8954-1.6 2-1.6s2 0.7163 2 1.6v2.4" fill="none" stroke="#000" stroke-width="2"/>
    <path d="m25 16v-3c0-0.5523 0.4477-1 1-1h19c0.5523 0 1 0.4477 1 1v3" fill="none" stroke="#000" stroke-width="2"/>
  </g>
</svg>