<svg viewBox="6 6 60 60" xmlns="http://www.w3.org/2000/svg">
  <defs>
    <linearGradient id="yellow-gradient" x1="0%" x2="0%" y1="0%" y2="100%">
      <stop offset="0%" style="stop-color:#FDE02F;stop-opacity:1;"/>
      <stop offset="100%" style="stop-color:#F7B209;stop-opacity:1;"/>
    </linearGradient>
  </defs>
  <g id="color">
    <path d="m15.23 56.02h-1.636c-0.6292 0-1.139-0.656-1.139-1.465v-39.53c0-0.8092 0.51-1.465 1.139-1.465h1.636c0.6292 0 1.139 0.656 1.139 1.465v39.53c0 0.8092-0.5101 1.465-1.139 1.465z" fill="#fff"/>
    <path d="m58.77 56.02h-1.636c-0.6292 0-1.139-0.656-1.139-1.465v-39.53c0-0.8092 0.51-1.465 1.139-1.465h1.636c0.6292 0 1.139 0.656 1.139 1.465v39.53c0 0.8092-0.5101 1.465-1.139 1.465z" fill="#fff"/>
    <rect fill="#fff" height="7.124" width="56.76" x="7.621" y="27.67"/>
    <rect fill="#ea5a47" height="7.124" width="11.35" x="7.621" y="27.67"/>
    <rect fill="#fff" height="7.124" width="11.35" x="18.97" y="27.67"/>
    <rect fill="#ea5a47" height="7.124" width="11.35" x="30.28" y="27.67"/>
    <rect fill="#fff" height="7.124" width="11.35" x="41.63" y="27.67"/>
    <rect fill="#ea5a47" height="7.124" width="11.35" x="52.98" y="27.67"/>
    <rect fill="#fff" height="7.124" width="56.76" x="7.621" y="41.67"/>
    <rect fill="#ea5a47" height="7.124" width="11.35" x="7.621" y="41.67"/>
    <rect fill="#fff" height="7.124" width="11.35" x="18.97" y="41.67"/>
    <rect fill="#ea5a47" height="7.124" width="11.35" x="30.28" y="41.67"/>
    <rect fill="#fff" height="7.124" width="11.35" x="41.63" y="41.67"/>
    <rect fill="#ea5a47" height="7.124" width="11.35" x="52.98" y="41.67"/>
  </g>
  <g id="line" fill="none" stroke="#000" stroke-linecap="round" stroke-linejoin="round" stroke-miterlimit="10" stroke-width="2">
    <path d="m12.06 41.13v-5.941"/>
    <path d="m15.97 48.79v6.091c0 0.6292-0.5101 1.139-1.139 1.139h-1.636c-0.6292 0-1.139-0.5101-1.139-1.139v-5.682"/>
    <path d="m15.97 35.19v5.941"/>
    <path d="m12.06 27.59v-12.78c0-0.6292 0.51-1.139 1.139-1.139h1.636c0.6292 0 1.139 0.5101 1.139 1.139v12.69"/>
    <path d="m56 41.67v-6.477"/>
    <path d="m59.91 49.2v5.682c0 0.6292-0.5101 1.139-1.139 1.139h-1.636c-0.6292 0-1.139-0.5101-1.139-1.139v-5.682"/>
    <path d="m59.91 35.19v5.586"/>
    <path d="m56 27.38v-12.58c0-0.6292 0.51-1.139 1.139-1.139h1.636c0.6292 0 1.139 0.5101 1.139 1.139v12.49"/>
    <rect height="7.124" width="56.76" x="7.621" y="27.67"/>
    <rect height="7.124" width="11.35" x="7.621" y="27.67"/>
    <rect height="7.124" width="11.35" x="18.97" y="27.67"/>
    <rect height="7.124" width="11.35" x="30.28" y="27.67"/>
    <rect height="7.124" width="11.35" x="41.63" y="27.67"/>
    <rect height="7.124" width="11.35" x="52.98" y="27.67"/>
    <rect height="7.124" width="56.76" x="7.621" y="41.67"/>
    <rect height="7.124" width="11.35" x="7.621" y="41.67"/>
    <rect height="7.124" width="11.35" x="18.97" y="41.67"/>
    <rect height="7.124" width="11.35" x="30.28" y="41.67"/>
    <rect height="7.124" width="11.35" x="41.63" y="41.67"/>
    <polyline points="60.41 41.67 64.83 41.67 64.83 48.79 53.48 48.79 53.48 41.67 60.41 41.67" transform="translate(-.5)"/>
  </g>
</svg>