<svg viewBox="12 12 48 48" xmlns="http://www.w3.org/2000/svg">
  <defs>
    <linearGradient id="yellow-gradient" x1="0%" x2="0%" y1="0%" y2="100%">
      <stop offset="0%" style="stop-color:#FDE02F;stop-opacity:1;"/>
      <stop offset="100%" style="stop-color:#F7B209;stop-opacity:1;"/>
    </linearGradient>
  </defs>
  <g id="color">
    <path d="M33.1,58h-3c-0.6,0-1-0.4-1-1V37c0-0.6,0.4-1,1-1h3c0.6,0,1,0.4,1,1v20C34.1,57.6,33.6,58,33.1,58z" fill="#D0CFCE"/>
    <path d="M38.4,35.4c1.7-2.9,0.7-6.5-2.2-8.2s-6.5-0.7-8.2,2.2s-0.7,6.5,2.2,8.2S36.7,38.3,38.4,35.4" fill="#9B9B9A"/>
    <rect fill="#FFFFFF" height="35.9992" transform="matrix(0.5 -0.866 0.866 0.5 -6.5143 44.8714)" width="9.9998" x="30.6033" y="10.0777"/>
    <rect fill="#D0CFCE" height="35.9992" transform="matrix(0.5 -0.866 0.866 0.5 -6.5158 44.8707)" width="9.9998" x="30.6019" y="10.0787"/>
    <polygon fill="#9B9B9A" points="42.1,37.6 42.1,37.6 22.5,14.8 17.5,23.4"/>
  </g>
  <g id="line">
    <line fill="none" stroke="#000000" stroke-linecap="round" stroke-linejoin="round" stroke-miterlimit="10" stroke-width="2" x1="30" x2="30" y1="36.4" y2="57"/>
    <line fill="none" stroke="#000000" stroke-linecap="round" stroke-linejoin="round" stroke-miterlimit="10" stroke-width="2" x1="34.1" x2="34.1" y1="39.4" y2="57"/>
    <path d="M28.8,29.9c-1.3,2.2-0.7,4.9,1.2,6.4" fill="none" stroke="#000000" stroke-linecap="round" stroke-linejoin="round" stroke-miterlimit="10" stroke-width="2"/>
    <rect fill="none" height="35.9992" stroke="#000000" stroke-linecap="round" stroke-linejoin="round" stroke-miterlimit="10" stroke-width="2" transform="matrix(0.5 -0.866 0.866 0.5 -6.5143 44.8714)" width="9.9998" x="30.6033" y="10.0777"/>
    <rect fill="none" height="35.9992" stroke="#000000" stroke-linecap="round" stroke-linejoin="round" stroke-miterlimit="10" stroke-width="2" transform="matrix(0.5 -0.866 0.866 0.5 -6.5143 44.8714)" width="9.9998" x="30.6033" y="10.0777"/>
    <path d="M52.7,34.5c1.4,0.8,1.9,2.7,1.1,4.1s-2.7,1.9-4.1,1.1L52.7,34.5z"/>
  </g>
  <g id="color-foreground">
    <path id="xx" d="M54.2,37.1c0,1.7-1.4,3-3,3c-0.2,0-0.4,0-0.6-0.1l2.9-5C53.9,35.6,54.2,36.3,54.2,37.1z" fill="#D22F27"/>
  </g>
</svg>