<svg viewBox="0 0 72 72" xmlns="http://www.w3.org/2000/svg">
  <defs>
    <linearGradient id="yellow-gradient" x1="0%" x2="0%" y1="0%" y2="100%">
      <stop offset="0%" style="stop-color:#FDE02F;stop-opacity:1;"/>
      <stop offset="100%" style="stop-color:#F7B209;stop-opacity:1;"/>
    </linearGradient>
  </defs>
  <g id="color">
    <polygon fill="#9B9B9A" points="6.8082,55.1577 22.0693,33.4118 30.6599,42.0024 46.6415,26.0208 65.7188,55.875 6.2812,55.875"/>
  </g>
  <g id="line">
    <polygon fill="none" points="6.8082,55.1577 22.0693,33.4118 30.6599,42.0024 46.6415,26.0208 65.7188,55.875 6.2812,55.875" stroke="#000000" stroke-linecap="round" stroke-linejoin="round" stroke-miterlimit="10" stroke-width="2"/>
    <path d="M38,17.0213h22.021c4.4065,0,7.9787,3.5722,7.9787,7.9787v24.2352H4.0002V25c0-4.4065,3.5722-7.9787,7.9787-7.9787h21.9379 L36,21.625L38,17.0213z" fill="none" stroke="#000000" stroke-linecap="round" stroke-linejoin="round" stroke-miterlimit="10" stroke-width="2"/>
    <polyline fill="none" points="8.2083,24.125 8.2083,21.125 11,21.125" stroke="#000000" stroke-linecap="round" stroke-linejoin="round" stroke-miterlimit="10" stroke-width="2"/>
    <polyline fill="none" points="15.5208,21.125 18.5208,21.125 18.5208,23.9167" stroke="#000000" stroke-linecap="round" stroke-linejoin="round" stroke-miterlimit="10" stroke-width="2"/>
    <polyline fill="none" points="18.5208,28.4375 18.5208,31.4375 15.7292,31.4375" stroke="#000000" stroke-linecap="round" stroke-linejoin="round" stroke-miterlimit="10" stroke-width="2"/>
    <polyline fill="none" points="11.2083,31.4375 8.2083,31.4375 8.2083,28.6458" stroke="#000000" stroke-linecap="round" stroke-linejoin="round" stroke-miterlimit="10" stroke-width="2"/>
    <circle cx="13.2292" cy="26.1458" fill="none" r="2.0208" stroke="#000000" stroke-linecap="round" stroke-linejoin="round" stroke-miterlimit="10" stroke-width="2"/>
    <line fill="none" stroke="#000000" stroke-linecap="round" stroke-linejoin="round" stroke-miterlimit="10" stroke-width="2" x1="62.8374" x2="40.6415" y1="26.0208" y2="26.0208"/>
    <line fill="none" stroke="#000000" stroke-linecap="round" stroke-linejoin="round" stroke-miterlimit="10" stroke-width="2" x1="67.8585" x2="62.8374" y1="26.0208" y2="26.0208"/>
    <line fill="none" stroke="#000000" stroke-linecap="round" stroke-linejoin="round" stroke-miterlimit="10" stroke-width="2" x1="67.8585" x2="62.8374" y1="29.2382" y2="29.2382"/>
    <line fill="none" stroke="#000000" stroke-linecap="round" stroke-linejoin="round" stroke-miterlimit="10" stroke-width="2" x1="67.8585" x2="62.8374" y1="32.4557" y2="32.4557"/>
    <line fill="none" stroke="#000000" stroke-linecap="round" stroke-linejoin="round" stroke-miterlimit="10" stroke-width="2" x1="67.8585" x2="62.8374" y1="35.6731" y2="35.6731"/>
    <line fill="none" stroke="#000000" stroke-linecap="round" stroke-linejoin="round" stroke-miterlimit="10" stroke-width="2" x1="67.8585" x2="62.8374" y1="38.8906" y2="38.8906"/>
    <line fill="none" stroke="#000000" stroke-linecap="round" stroke-linejoin="round" stroke-miterlimit="10" stroke-width="2" x1="67.8585" x2="62.8374" y1="42.108" y2="42.108"/>
    <line fill="none" stroke="#000000" stroke-linecap="round" stroke-linejoin="round" stroke-miterlimit="10" stroke-width="2" x1="67.8585" x2="62.8374" y1="45.3255" y2="45.3255"/>
    <line fill="none" stroke="#000000" stroke-linecap="round" stroke-linejoin="round" stroke-miterlimit="10" stroke-width="2" x1="46.5707" x2="46.5707" y1="49.2352" y2="20.0597"/>
  </g>
</svg>