<svg viewBox="4 4 64 64" xmlns="http://www.w3.org/2000/svg">
  <defs>
    <linearGradient id="yellow-gradient" x1="0%" x2="0%" y1="0%" y2="100%">
      <stop offset="0%" style="stop-color:#FDE02F;stop-opacity:1;"/>
      <stop offset="100%" style="stop-color:#F7B209;stop-opacity:1;"/>
    </linearGradient>
  </defs>
  <g id="color">
    <path d="M31.3882,26.7177c0,0,9.2367-1.8188,8.4221-9.1964c-1.3538-12.261-1.4678-10.4237-1.4678-10.4237 l-5.5293,1.0104C32.8133,8.1081,35.9998,21.7018,31.3882,26.7177z" fill="#92d3f5" stroke="none"/>
    <path d="M34.5417,7.0359c-8.1462,0-14.75,7.496-14.75,16.7427v16.388h29.5" fill="#92d3f5" stroke="none" stroke-linecap="round" stroke-linejoin="round" stroke-miterlimit="10" stroke-width="2"/>
    <rect fill="#d0cfce" height="22.095" stroke="none" stroke-linecap="round" stroke-linejoin="round" stroke-miterlimit="10" stroke-width="2" width="4" x="26.8333" y="44.5"/>
    <rect fill="#d0cfce" height="16.4792" stroke="none" stroke-linecap="round" stroke-linejoin="round" stroke-miterlimit="10" stroke-width="2" width="4" x="41.3333" y="44.5"/>
    <path d="M34.5417,7.5625c0,0,15.3232,0.5495,15.9047,13.875c0.9664,22.1458,0.0665,18.9191,0.0665,18.9191 l-9.3254-0.19C41.1875,40.1667,42.6247,15.125,34.5417,7.5625z" fill="#61b2e4" stroke="none"/>
    <rect fill="#61b2e4" height="3.0833" stroke="none" width="11.8333" x="43.3333" y="40.7917"/>
    <rect fill="#92d3f5" height="3.0833" stroke="none" width="26.998" x="16.3353" y="40.7917"/>
  </g>
  <g id="line">
    <path d="M34.5417,7.0359c-8.1462,0-14.75,7.496-14.75,16.7427v16.388h29.5" fill="none" stroke="#000000" stroke-linecap="round" stroke-linejoin="round" stroke-miterlimit="10" stroke-width="2"/>
    <rect fill="none" height="22.095" stroke="#000000" stroke-linecap="round" stroke-linejoin="round" stroke-miterlimit="10" stroke-width="2" width="4" x="26.8333" y="44.5"/>
    <rect fill="none" height="16.4792" stroke="#000000" stroke-linecap="round" stroke-linejoin="round" stroke-miterlimit="10" stroke-width="2" width="4" x="41.3333" y="44.5"/>
    <path d="M35.2497,7.0359c8.1462,0,14.75,7.496,14.75,16.7427v7.388" fill="none" stroke="#000000" stroke-linecap="round" stroke-linejoin="round" stroke-miterlimit="10" stroke-width="2"/>
    <polygon fill="none" points="16,44.5 45.5309,44.5 45.9063,44.5 56,44.5 56,40.1667 45.9063,40.1667 45.4999,40.1667 16,40.1667" stroke="#000000" stroke-linecap="round" stroke-linejoin="round" stroke-miterlimit="10" stroke-width="2"/>
  </g>
</svg>