<svg viewBox="7 7 58 58" xmlns="http://www.w3.org/2000/svg">
  <defs>
    <linearGradient id="yellow-gradient" x1="0%" x2="0%" y1="0%" y2="100%">
      <stop offset="0%" style="stop-color:#FDE02F;stop-opacity:1;"/>
      <stop offset="100%" style="stop-color:#F7B209;stop-opacity:1;"/>
    </linearGradient>
  </defs>
  <g id="color">
    <path d="M45.1,52.5C45,56.6,44,63.3,44,63.3l-17.2,0.1l0.1-5.8c0,0-0.2-11.2-5.3-15.5c-10.3-8.6-7.6-26.7,3.7-31.2 C36.5,6.4,47.6,9.7,51,14.7s0.6,9.2,0.6,9.2s-0.8,1.5,1.1,4.6S57.6,39,57.6,39l-4.1,1.4c0,0,2,9.5-0.8,10.9s-8.7,0.8-13.2-0.6" fill="url(#yellow-gradient)"/>
    <path d="M59.2,18v15.7H44.7c0,0-8.7-7.5,0-16.2h14.5V18z" fill="#9B9B9A"/>
    <path d="M44.8,22H14.5c0,0-2,6.1,0,8.1h30.1L44.8,22z" fill="#9B9B9A"/>
    <line fill="none" x1="54.5" x2="54.5" y1="17.6" y2="33.8"/>
    <line fill="none" x1="55.9" x2="55.9" y1="17.6" y2="33.8"/>
    <line fill="none" x1="57.4" x2="57.4" y1="17.6" y2="33.8"/>
    <rect height="16.5" width="4.6" x="54.8" y="17.6"/>
  </g>
  <g id="line">
    <path d="M55.4,33.8c1.2,2.7,2.2,5.2,2.2,5.2l-4.1,1.4c0,0,2,9.5-0.8,10.9s-8.7,0.8-13.2-0.5" fill="none" stroke="#000000" stroke-linecap="round" stroke-linejoin="round" stroke-miterlimit="10" stroke-width="2"/>
    <path d="M15.9,22c1.4-5,4.6-9.3,9.4-11.1C36.5,6.4,47.6,9.7,51,14.7c0.7,1,1.1,2,1.4,2.9" fill="none" stroke="#000000" stroke-linecap="round" stroke-linejoin="round" stroke-miterlimit="10" stroke-width="2"/>
    <path d="M15.3,30.1c0.5,4.5,2.6,8.9,6.3,12c5.1,4.3,5.3,15.5,5.3,15.5v5.8h17.2c0,0,1-6.8,1.1-10.8" fill="none" stroke="#000000" stroke-linecap="round" stroke-linejoin="round" stroke-miterlimit="10" stroke-width="2"/>
    <path d="M59.2,18v15.7H44.7c0,0-8.7-7.5,0-16.2h14.5V18z" fill="none" stroke="#000000" stroke-linecap="round" stroke-linejoin="round" stroke-miterlimit="10" stroke-width="2"/>
    <path d="M41.6,22H14.5c0,0-2,6.1,0,8.1H42" fill="none" stroke="#000000" stroke-linecap="round" stroke-linejoin="round" stroke-miterlimit="10" stroke-width="2"/>
    <line fill="none" stroke="#000000" stroke-miterlimit="10" stroke-width="2" x1="54.8" x2="54.8" y1="17.6" y2="33.6"/>
  </g>
</svg>