<svg viewBox="6 6 60 60" xmlns="http://www.w3.org/2000/svg">
  <defs>
    <linearGradient id="yellow-gradient" x1="0%" x2="0%" y1="0%" y2="100%">
      <stop offset="0%" style="stop-color:#FDE02F;stop-opacity:1;"/>
      <stop offset="100%" style="stop-color:#F7B209;stop-opacity:1;"/>
    </linearGradient>
  </defs>
  <g id="color">
    <rect fill="#D0CFCE" height="55.4381" stroke="none" width="44.8785" x="13.3528" y="8.1195"/>
    <polygon fill="#FFFFFF" points="58.2313,25.7465 40.6043,8.1195 19.9355,8.1195 19.9142,8.1407 58.2313,46.4578" stroke="none"/>
    <rect fill="#3F3F3F" height="41.4387" stroke="none" width="36.1591" x="17.8806" y="13.0368"/>
    <polygon fill="#9B9B9A" points="54.0397,42.2662 54.0397,21.5549 45.5216,13.0368 24.8103,13.0368" stroke="none"/>
  </g>
  <g id="line">
    <path d="M13.4698,62.5391V9.1669c0-0.55,0.45-1,1-1h43.0444c0.55,0,1,0.45,1,1v53.3722c0,0.55-0.45,1-1,1H14.4698 C13.9198,63.5391,13.4698,63.0891,13.4698,62.5391z" fill="none" stroke="#000000" stroke-linecap="round" stroke-linejoin="round" stroke-miterlimit="10" stroke-width="2"/>
    <circle cx="35.992" cy="59.0842" fill="#000000" r="2" stroke="none"/>
    <rect fill="none" height="41.4387" stroke="#000000" stroke-linecap="round" stroke-linejoin="round" stroke-miterlimit="10" stroke-width="2" width="36.1591" x="17.8806" y="13.0368"/>
  </g>
</svg>