<svg viewBox="6 6 60 60" xmlns="http://www.w3.org/2000/svg">
  <defs>
    <linearGradient id="yellow-gradient" x1="0%" x2="0%" y1="0%" y2="100%">
      <stop offset="0%" style="stop-color:#FDE02F;stop-opacity:1;"/>
      <stop offset="100%" style="stop-color:#F7B209;stop-opacity:1;"/>
    </linearGradient>
  </defs>
  <g id="color">
    <path d="M36.0216,12.9316c-12.6956,0-22.9874,10.2918-22.9874,22.9874S23.326,58.9065,36.0216,58.9065 S59.009,48.6147,59.009,35.9191S48.7172,12.9316,36.0216,12.9316z M36.0216,50.8832c-8.2645,0-14.9642-6.6997-14.9642-14.9642 s6.6997-14.9642,14.9642-14.9642s14.9642,6.6997,14.9642,14.9642S44.2861,50.8832,36.0216,50.8832z" fill="#9B9B9A" stroke="none"/>
    <rect fill="#9B9B9A" height="11.1898" stroke="none" width="8.9825" x="31.5295" y="7.661"/>
    <rect fill="#9B9B9A" height="11.1898" stroke="none" width="8.9825" x="31.5295" y="53.0691"/>
    <rect fill="#9B9B9A" height="11.1898" stroke="none" transform="matrix(-1.836970e-16 1 -1 -1.836970e-16 49.1756 22.6276)" width="8.9825" x="8.7828" y="30.3067"/>
    <rect fill="#9B9B9A" height="11.1898" stroke="none" transform="matrix(-1.836970e-16 1 -1 -1.836970e-16 94.6159 -22.8127)" width="8.9825" x="54.223" y="30.3067"/>
  </g>
  <g id="line">
    <path d="M58.8744,31.433c-1.784-9.0631-9.3335-16.482-18.3729-18.3317" fill="none" stroke="#000000" stroke-linecap="round" stroke-linejoin="round" stroke-miterlimit="10" stroke-width="2"/>
    <path d="M40.5016,58.8163c9.1275-1.7899,16.5775-9.2979,18.3729-18.4234" fill="none" stroke="#000000" stroke-linecap="round" stroke-linejoin="round" stroke-miterlimit="10" stroke-width="2"/>
    <path d="M13.1201,40.3929c1.7832,9.1158,9.3162,16.611,18.4216,18.4234" fill="none" stroke="#000000" stroke-linecap="round" stroke-linejoin="round" stroke-miterlimit="10" stroke-width="2"/>
    <path d="M31.5417,13.1012c-9.07,1.8049-16.6032,9.2666-18.4216,18.3317" fill="none" stroke="#000000" stroke-linecap="round" stroke-linejoin="round" stroke-miterlimit="10" stroke-width="2"/>
    <circle cx="36.0216" cy="35.9191" fill="none" r="15" stroke="#000000" stroke-linecap="round" stroke-linejoin="round" stroke-miterlimit="10" stroke-width="2"/>
    <line fill="none" stroke="#000000" stroke-linecap="round" stroke-linejoin="round" stroke-miterlimit="10" stroke-width="2" x1="31.5417" x2="31.5417" y1="13.1012" y2="8.6598"/>
    <line fill="none" stroke="#000000" stroke-linecap="round" stroke-linejoin="round" stroke-miterlimit="10" stroke-width="2" x1="40.5016" x2="40.5016" y1="13.1012" y2="8.6598"/>
    <line fill="none" stroke="#000000" stroke-linecap="round" stroke-linejoin="round" stroke-miterlimit="10" stroke-width="2" x1="31.5417" x2="31.5417" y1="63.2578" y2="58.8163"/>
    <line fill="none" stroke="#000000" stroke-linecap="round" stroke-linejoin="round" stroke-miterlimit="10" stroke-width="2" x1="40.5016" x2="40.5016" y1="63.2578" y2="58.8163"/>
    <line fill="none" stroke="#000000" stroke-linecap="round" stroke-linejoin="round" stroke-miterlimit="10" stroke-width="2" x1="58.8744" x2="63.3159" y1="31.433" y2="31.433"/>
    <line fill="none" stroke="#000000" stroke-linecap="round" stroke-linejoin="round" stroke-miterlimit="10" stroke-width="2" x1="58.8744" x2="63.3159" y1="40.3929" y2="40.3929"/>
    <line fill="none" stroke="#000000" stroke-linecap="round" stroke-linejoin="round" stroke-miterlimit="10" stroke-width="2" x1="8.6786" x2="13.1201" y1="31.433" y2="31.433"/>
    <line fill="none" stroke="#000000" stroke-linecap="round" stroke-linejoin="round" stroke-miterlimit="10" stroke-width="2" x1="8.6786" x2="13.1201" y1="40.3929" y2="40.3929"/>
  </g>
</svg>