<svg viewBox="0 0 72 72" xmlns="http://www.w3.org/2000/svg">
  <defs>
    <linearGradient id="yellow-gradient" x1="0%" x2="0%" y1="0%" y2="100%">
      <stop offset="0%" style="stop-color:#FDE02F;stop-opacity:1;"/>
      <stop offset="100%" style="stop-color:#F7B209;stop-opacity:1;"/>
    </linearGradient>
  </defs>
  <g id="color">
    <rect fill="#9B9B9A" height="18" stroke="none" width="14" x="29" y="4"/>
    <rect fill="#9B9B9A" height="18" stroke="none" width="14" x="29" y="50"/>
    <circle cx="36" cy="36" fill="#3F3F3F" r="15" stroke="none"/>
    <rect fill="#92D3F5" height="6" stroke="none" width="6" x="28" y="28"/>
    <rect fill="#EA5A47" height="6" stroke="none" width="6" x="38" y="28"/>
    <rect fill="#92D3F5" height="6" stroke="none" width="6" x="38" y="38"/>
    <rect fill="#B399C8" height="6" stroke="none" width="6" x="28" y="38"/>
  </g>
  <g id="line">
    <circle cx="36" cy="36" fill="none" r="15" stroke="#000000" stroke-linecap="round" stroke-linejoin="round" stroke-miterlimit="10" stroke-width="2"/>
    <line fill="none" stroke="#000000" stroke-linecap="round" stroke-linejoin="round" stroke-miterlimit="10" stroke-width="2" x1="29" x2="29" y1="22" y2="5"/>
    <line fill="none" stroke="#000000" stroke-linecap="round" stroke-linejoin="round" stroke-miterlimit="10" stroke-width="2" x1="43" x2="43" y1="22" y2="5"/>
    <line fill="none" stroke="#000000" stroke-linecap="round" stroke-linejoin="round" stroke-miterlimit="10" stroke-width="2" x1="29" x2="29" y1="67" y2="50"/>
    <line fill="none" stroke="#000000" stroke-linecap="round" stroke-linejoin="round" stroke-miterlimit="10" stroke-width="2" x1="43" x2="43" y1="67" y2="50"/>
    <path d="M33,34h-4c-0.5523,0-1-0.4477-1-1v-4c0-0.5523,0.4477-1,1-1h4c0.5523,0,1,0.4477,1,1v4C34,33.5523,33.5523,34,33,34z" fill="none" stroke="#000000" stroke-linecap="round" stroke-linejoin="round" stroke-miterlimit="10" stroke-width="2"/>
    <path d="M43,34h-4c-0.5523,0-1-0.4477-1-1v-4c0-0.5523,0.4477-1,1-1h4c0.5523,0,1,0.4477,1,1v4C44,33.5523,43.5523,34,43,34z" fill="none" stroke="#000000" stroke-linecap="round" stroke-linejoin="round" stroke-miterlimit="10" stroke-width="2"/>
    <path d="M43,44h-4c-0.5523,0-1-0.4477-1-1v-4c0-0.5523,0.4477-1,1-1h4c0.5523,0,1,0.4477,1,1v4C44,43.5523,43.5523,44,43,44z" fill="none" stroke="#000000" stroke-linecap="round" stroke-linejoin="round" stroke-miterlimit="10" stroke-width="2"/>
    <path d="M33,44h-4c-0.5523,0-1-0.4477-1-1v-4c0-0.5523,0.4477-1,1-1h4c0.5523,0,1,0.4477,1,1v4C34,43.5523,33.5523,44,33,44z" fill="none" stroke="#000000" stroke-linecap="round" stroke-linejoin="round" stroke-miterlimit="10" stroke-width="2"/>
    <circle cx="36" cy="66" fill="#000000" r="2" stroke="none"/>
  </g>
</svg>