<svg viewBox="9 9 54 54" xmlns="http://www.w3.org/2000/svg">
  <defs>
    <linearGradient id="yellow-gradient" x1="0%" x2="0%" y1="0%" y2="100%">
      <stop offset="0%" style="stop-color:#FDE02F;stop-opacity:1;"/>
      <stop offset="100%" style="stop-color:#F7B209;stop-opacity:1;"/>
    </linearGradient>
  </defs>
  <g id="color">
    <path d="M53.9081,63.031H18.009c-0.5523,0-1-0.4477-1-1V13.0675c0-0.5523,0.4477-1,1-1h35.8991 c0.5523,0,1,0.4477,1,1V62.031C54.9081,62.5833,54.4604,63.031,53.9081,63.031z" fill="#D0CFCE" stroke="none"/>
    <circle cx="36.0239" cy="45.0155" fill="#FFFFFF" r="12" stroke="none"/>
    <path d="M24.0239,45.0155c0,6.6274,5.3726,12,12,12s12-5.3726,12-12" fill="#92D3F5" stroke="none"/>
    <rect fill="#9B9B9A" height="9.9501" stroke="none" width="16" x="17" y="17.0086"/>
    <circle cx="36.0239" cy="45.0155" fill="#D0CFCE" r="7" stroke="none"/>
    <path d="M29.0239,45.0155c0,3.866,3.134,7,7,7s7-3.134,7-7" fill="#61B2E4" stroke="none"/>
  </g>
  <g id="line">
    <circle cx="36.0239" cy="45.0155" fill="none" r="12" stroke="#000000" stroke-miterlimit="10" stroke-width="2"/>
    <circle cx="36.0239" cy="45.0155" fill="none" r="7" stroke="#000000" stroke-miterlimit="10" stroke-width="2"/>
    <path d="M53.9081,63.031H18.009c-0.5523,0-1-0.4477-1-1V13.0675c0-0.5523,0.4477-1,1-1h35.8991c0.5523,0,1,0.4477,1,1V62.031 C54.9081,62.5833,54.4604,63.031,53.9081,63.031z" fill="none" stroke="#000000" stroke-linecap="round" stroke-linejoin="round" stroke-miterlimit="10" stroke-width="2"/>
    <rect fill="none" height="9.9501" stroke="#000000" stroke-linecap="round" stroke-linejoin="round" stroke-miterlimit="10" stroke-width="2" width="16" x="17" y="17.0086"/>
    <line fill="none" stroke="#000000" stroke-linecap="round" stroke-linejoin="round" stroke-miterlimit="10" stroke-width="2" x1="37" x2="44" y1="19" y2="19"/>
    <line fill="none" stroke="#000000" stroke-linecap="round" stroke-linejoin="round" stroke-miterlimit="10" stroke-width="2" x1="37" x2="44" y1="23" y2="23"/>
    <line fill="none" stroke="#000000" stroke-linecap="round" stroke-linejoin="round" stroke-miterlimit="10" stroke-width="2" x1="23" x2="27" y1="21" y2="21"/>
    <circle cx="49" cy="21" fill="#000000" r="2" stroke="none"/>
  </g>
</svg>