<svg viewBox="9 9 54 54" xmlns="http://www.w3.org/2000/svg">
  <defs>
    <linearGradient id="yellow-gradient" x1="0%" x2="0%" y1="0%" y2="100%">
      <stop offset="0%" style="stop-color:#FDE02F;stop-opacity:1;"/>
      <stop offset="100%" style="stop-color:#F7B209;stop-opacity:1;"/>
    </linearGradient>
  </defs>
  <g id="color">
    <circle cx="36" cy="32" fill="#3F3F3F" r="5" stroke="none"/>
    <polygon fill="#D0CFCE" points="34,62 38,62 36,37" stroke="none"/>
    <polyline fill="#9B9B9A" points="36,37 38,62 35.9802,62 36,37" stroke="none"/>
  </g>
  <g id="line">
    <circle cx="36" cy="32" fill="none" r="5" stroke="#000000" stroke-linecap="round" stroke-linejoin="round" stroke-miterlimit="10" stroke-width="2"/>
    <polyline fill="none" points="35,38 33,63 39,63 37,38" stroke="#000000" stroke-linecap="round" stroke-linejoin="round" stroke-miterlimit="10" stroke-width="2"/>
    <path d="M42.2646,50.9847C50.2388,48.3541,56,40.8554,56,32c0-11.0457-8.9543-20-20-20s-20,8.9543-20,20 c0,8.8554,5.7612,16.3541,13.7354,18.9847" fill="none" stroke="#000000" stroke-linecap="round" stroke-linejoin="round" stroke-miterlimit="10" stroke-width="2"/>
    <path d="M41.5884,45.9128C47.1024,43.6956,51,38.3073,51,32c0-8.2843-6.7157-15-15-15s-15,6.7157-15,15 c0,6.3073,3.8976,11.6956,9.4116,13.9128" fill="none" stroke="#000000" stroke-linecap="round" stroke-linejoin="round" stroke-miterlimit="10" stroke-width="2"/>
    <path d="M40.8953,40.7148C43.9401,39.0007,46,35.743,46,32c0-5.5229-4.4772-10-10-10s-10,4.4771-10,10c0,3.743,2.0599,7.0007,5.1047,8.7148" fill="none" stroke="#000000" stroke-linecap="round" stroke-linejoin="round" stroke-miterlimit="10" stroke-width="2"/>
  </g>
</svg>