<svg viewBox="0 0 72 72" xmlns="http://www.w3.org/2000/svg">
  <defs>
    <linearGradient id="yellow-gradient" x1="0%" x2="0%" y1="0%" y2="100%">
      <stop offset="0%" style="stop-color:#FDE02F;stop-opacity:1;"/>
      <stop offset="100%" style="stop-color:#F7B209;stop-opacity:1;"/>
    </linearGradient>
  </defs>
  <g id="color">
    <rect fill="#FFFFFF" height="24" width="64" x="4" y="24"/>
    <polygon fill="#D0CFCE" points="59,24 68,24 68,48 32,48"/>
  </g>
  <g id="line">
    <rect fill="none" height="24" stroke="#000000" stroke-linecap="round" stroke-linejoin="round" stroke-miterlimit="10" stroke-width="2" width="64" x="4" y="24"/>
    <path d="M41,44H9c-0.6,0-1-0.4-1-1V29c0-0.6,0.4-1,1-1h32c0.6,0,1,0.4,1,1v14C42,43.6,41.6,44,41,44z"/>
    <path d="M63,44h-8c-0.6,0-1-0.4-1-1V29c0-0.6,0.4-1,1-1h8c0.6,0,1,0.4,1,1v14C64,43.6,63.6,44,63,44z"/>
    <path d="M49.3,40.3v-0.7c0-0.6-0.4-1-1-1h-0.7c-0.6,0-1,0.4-1,1v0.7c0,0.6-0.4,1-1,1H45c-0.6,0-1,0.4-1,1V43c0,0.6,0.4,1,1,1h1.7 h2.7H51c0.6,0,1-0.4,1-1v-0.7c0-0.6-0.4-1-1-1h-0.7C49.8,41.3,49.3,40.9,49.3,40.3z"/>
    <path d="M51,34h-6c-0.6,0-1-0.4-1-1v-4c0-0.6,0.4-1,1-1h6c0.6,0,1,0.4,1,1v4C52,33.6,51.6,34,51,34z"/>
  </g>
  <g id="color-foreground">
    <path d="M41,44H9c-0.6,0-1-0.4-1-1V29c0-0.6,0.4-1,1-1h32c0.6,0,1,0.4,1,1v14C42,43.6,41.6,44,41,44z" fill="#3F3F3F"/>
    <path d="M63,44h-8c-0.6,0-1-0.4-1-1V29c0-0.6,0.4-1,1-1h8c0.6,0,1,0.4,1,1v14C64,43.6,63.6,44,63,44z" fill="#3F3F3F"/>
    <path d="M49.3,40.3v-0.7c0-0.6-0.4-1-1-1h-0.7c-0.6,0-1,0.4-1,1v0.7c0,0.6-0.4,1-1,1H45c-0.6,0-1,0.4-1,1V43 c0,0.6,0.4,1,1,1h1.7h2.7H51c0.6,0,1-0.4,1-1v-0.7c0-0.6-0.4-1-1-1h-0.7C49.8,41.3,49.3,40.9,49.3,40.3z" fill="#3F3F3F"/>
    <path d="M51,34h-6c-0.6,0-1-0.4-1-1v-4c0-0.6,0.4-1,1-1h6c0.6,0,1,0.4,1,1v4C52,33.6,51.6,34,51,34z" fill="#3F3F3F"/>
  </g>
</svg>