<svg viewBox="4 4 64 64" xmlns="http://www.w3.org/2000/svg">
  <defs>
    <linearGradient id="yellow-gradient" x1="0%" x2="0%" y1="0%" y2="100%">
      <stop offset="0%" style="stop-color:#FDE02F;stop-opacity:1;"/>
      <stop offset="100%" style="stop-color:#F7B209;stop-opacity:1;"/>
    </linearGradient>
  </defs>
  <g id="color">
    <path d="M32.6,50.1c1,1.8,2.1,2.9,3.4,2.9c3.3,0,6-7.6,6-17c0-4.6-0.6-8.8-1.7-11.8" fill="#9B9B9A"/>
    <path d="M40.3,24.2C39.2,21,37.7,19,36,19c-3.3,0-6,7.6-6,17c0,5.9,1,11,2.6,14.1" fill="#D0CFCE"/>
    <circle cx="56" cy="56" fill="#FFFFFF" r="10"/>
    <circle cx="16" cy="56" fill="#FFFFFF" r="10"/>
    <circle cx="16" cy="16" fill="#FFFFFF" r="10"/>
    <circle cx="56" cy="16" fill="#FFFFFF" r="10"/>
  </g>
  <g id="line">
    <ellipse cx="36" cy="36" fill="none" rx="6" ry="17" stroke="#000000" stroke-linecap="round" stroke-linejoin="round" stroke-miterlimit="10" stroke-width="2"/>
    <circle cx="56" cy="56" fill="none" r="10" stroke="#000000" stroke-linecap="round" stroke-linejoin="round" stroke-miterlimit="10" stroke-width="2"/>
    <line fill="none" stroke="#000000" stroke-linecap="round" stroke-linejoin="round" stroke-miterlimit="10" stroke-width="2" x1="42" x2="48.9" y1="42" y2="48.9"/>
    <circle cx="16" cy="56" fill="none" r="10" stroke="#000000" stroke-linecap="round" stroke-linejoin="round" stroke-miterlimit="10" stroke-width="2"/>
    <line fill="none" stroke="#000000" stroke-linecap="round" stroke-linejoin="round" stroke-miterlimit="10" stroke-width="2" x1="30" x2="23.1" y1="42" y2="48.9"/>
    <circle cx="16" cy="16" fill="none" r="10" stroke="#000000" stroke-linecap="round" stroke-linejoin="round" stroke-miterlimit="10" stroke-width="2"/>
    <line fill="none" stroke="#000000" stroke-linecap="round" stroke-linejoin="round" stroke-miterlimit="10" stroke-width="2" x1="30" x2="23.1" y1="30" y2="23.1"/>
    <circle cx="56" cy="16" fill="none" r="10" stroke="#000000" stroke-linecap="round" stroke-linejoin="round" stroke-miterlimit="10" stroke-width="2"/>
    <line fill="none" stroke="#000000" stroke-linecap="round" stroke-linejoin="round" stroke-miterlimit="10" stroke-width="2" x1="42" x2="48.9" y1="30" y2="23.1"/>
    <line fill="none" stroke="#000000" stroke-linecap="round" stroke-linejoin="round" stroke-miterlimit="10" stroke-width="2" x1="60.4" x2="51.6" y1="51.6" y2="60.4"/>
    <line fill="none" stroke="#000000" stroke-linecap="round" stroke-linejoin="round" stroke-miterlimit="10" stroke-width="2" x1="11.6" x2="20.4" y1="51.6" y2="60.4"/>
    <line fill="none" stroke="#000000" stroke-linecap="round" stroke-linejoin="round" stroke-miterlimit="10" stroke-width="2" x1="11.6" x2="20.4" y1="20.4" y2="11.6"/>
    <line fill="none" stroke="#000000" stroke-linecap="round" stroke-linejoin="round" stroke-miterlimit="10" stroke-width="2" x1="60.4" x2="51.6" y1="20.4" y2="11.6"/>
  </g>
  <g id="color-foreground">
    <line fill="none" stroke="#9B9B9A" stroke-linecap="round" stroke-linejoin="round" stroke-miterlimit="10" stroke-width="2.1" x1="60.4" x2="51.6" y1="51.6" y2="60.4"/>
    <line fill="none" stroke="#9B9B9A" stroke-linecap="round" stroke-linejoin="round" stroke-miterlimit="10" stroke-width="2.1" x1="11.6" x2="20.4" y1="51.6" y2="60.4"/>
    <line fill="none" stroke="#9B9B9A" stroke-linecap="round" stroke-linejoin="round" stroke-miterlimit="10" stroke-width="2.1" x1="11.6" x2="20.4" y1="20.4" y2="11.6"/>
    <line fill="none" stroke="#9B9B9A" stroke-linecap="round" stroke-linejoin="round" stroke-miterlimit="10" stroke-width="2.1" x1="60.4" x2="51.6" y1="20.4" y2="11.6"/>
  </g>
</svg>