<svg viewBox="8 8 56 56" xmlns="http://www.w3.org/2000/svg">
  <defs>
    <linearGradient id="yellow-gradient" x1="0%" x2="0%" y1="0%" y2="100%">
      <stop offset="0%" style="stop-color:#FDE02F;stop-opacity:1;"/>
      <stop offset="100%" style="stop-color:#F7B209;stop-opacity:1;"/>
    </linearGradient>
  </defs>
  <g id="color">
    <line fill="none" stroke="#E27022" stroke-linecap="round" stroke-linejoin="round" stroke-miterlimit="10" stroke-width="2" x1="16" x2="11" y1="36" y2="36"/>
    <line fill="none" stroke="#E27022" stroke-linecap="round" stroke-linejoin="round" stroke-miterlimit="10" stroke-width="2" x1="61" x2="56" y1="36" y2="36"/>
    <rect fill="#D22F27" height="4.06" width="40" x="16" y="35.94"/>
    <rect fill="#EA5A47" height="4" width="40" x="16" y="32"/>
  </g>
  <g id="line">
    <rect fill="none" height="8" stroke="#000000" stroke-linecap="round" stroke-linejoin="round" stroke-miterlimit="10" stroke-width="2" width="40" x="16" y="32"/>
    <line fill="none" stroke="#000000" stroke-linecap="round" stroke-linejoin="round" stroke-miterlimit="10" stroke-width="2" x1="16" x2="11" y1="36" y2="36"/>
    <line fill="none" stroke="#000000" stroke-linecap="round" stroke-linejoin="round" stroke-miterlimit="10" stroke-width="2" x1="61" x2="56" y1="36" y2="36"/>
  </g>
  <g id="color-foreground">
    <path d="M15,37.0498h-4c-0.5801,0-1.0498-0.4697-1.0498-1.0498S10.4199,34.9502,11,34.9502h4" fill="#E27022"/>
    <path d="M57,34.9502h4c0.5801,0,1.0498,0.4697,1.0498,1.0498S61.5801,37.0498,61,37.0498h-4" fill="#E27022"/>
  </g>
</svg>