<svg viewBox="12 12 48 48" xmlns="http://www.w3.org/2000/svg">
  <defs>
    <linearGradient id="yellow-gradient" x1="0%" x2="0%" y1="0%" y2="100%">
      <stop offset="0%" style="stop-color:#FDE02F;stop-opacity:1;"/>
      <stop offset="100%" style="stop-color:#F7B209;stop-opacity:1;"/>
    </linearGradient>
  </defs>
  <g id="color">
    <rect fill="#FFFFFF" height="12" width="6" x="21" y="30"/>
    <circle cx="41" cy="36" fill="#FFFFFF" r="15"/>
    <path d="M30.4,46.6C33.1,49.3,36.9,51,41,51c8.3,0,15-6.7,15-15c0-3.6-1.3-6.9-3.4-9.5c-0.3-0.4-0.7-0.8-1.1-1.2" fill="#D0CFCE"/>
  </g>
  <g id="line">
    <line fill="none" stroke="#000000" stroke-linecap="round" stroke-linejoin="round" stroke-miterlimit="10" stroke-width="2" x1="21" x2="16" y1="32" y2="32"/>
    <line fill="none" stroke="#000000" stroke-linecap="round" stroke-linejoin="round" stroke-miterlimit="10" stroke-width="2" x1="21" x2="16" y1="36" y2="36"/>
    <line fill="none" stroke="#000000" stroke-linecap="round" stroke-linejoin="round" stroke-miterlimit="10" stroke-width="2" x1="21" x2="16" y1="40" y2="40"/>
    <polyline fill="none" points="27,41.4 27,42 21,42 21,30 27,30 27,30.6" stroke="#000000" stroke-linecap="round" stroke-linejoin="round" stroke-miterlimit="10" stroke-width="2"/>
    <circle cx="41" cy="36" fill="none" r="15" stroke="#000000" stroke-linecap="round" stroke-linejoin="round" stroke-miterlimit="10" stroke-width="2"/>
    <circle cx="41" cy="36" r="4"/>
  </g>
  <g id="color-foreground">
    <path d="M20.005,30.99v2.02h-4.04c-0.606,0-1.01-0.505-1.01-1.01c0-0.505,0.404-1.01,1.01-1.01H20.005z" fill="#E27022"/>
    <path d="M20.005,34.99v2.02h-4.04c-0.606,0-1.01-0.505-1.01-1.01s0.404-1.01,1.01-1.01H20.005z" fill="#E27022"/>
    <path d="M20.005,38.99v2.02h-4.04c-0.606,0-1.01-0.505-1.01-1.01s0.404-1.01,1.01-1.01H20.005z" fill="#E27022"/>
  </g>
</svg>