<svg viewBox="5 5 62 62" xmlns="http://www.w3.org/2000/svg">
  <defs>
    <linearGradient id="yellow-gradient" x1="0%" x2="0%" y1="0%" y2="100%">
      <stop offset="0%" style="stop-color:#FDE02F;stop-opacity:1;"/>
      <stop offset="100%" style="stop-color:#F7B209;stop-opacity:1;"/>
    </linearGradient>
  </defs>
  <g id="color">
    <polygon fill="#FFFFFF" points="49,41.7111 36,30 23,41.7111 23,61 49,61" stroke="none"/>
    <polyline fill="#FFFFFF" points="31.0283,42.6236 21.945,34.1228 15,28.9231 7,36.1299 7,48 23,48" stroke="none"/>
    <polyline fill="#FFFFFF" points="49,59 66,59 66,46.388 56.848,38.3623 47.0406,46.697" stroke="none"/>
    <polyline fill="#FFFFFF" points="41.6,35 41.6,25.3761 36,20 30.4,25.3761 30.4,35" stroke="none"/>
    <polyline fill="#D0CFCE" points="49,61 49,42 32,61" stroke="none"/>
    <polyline fill="#D0CFCE" points="23,48 23,40.3333 15.3333,48" stroke="none"/>
    <polyline fill="#D0CFCE" points="66,59 66,47 56,59" stroke="none"/>
  </g>
  <g id="line">
    <path d="M35.9999,20.7631c-0.5789,0-1.0484-0.4694-1.0484-1.0484v-9.4295c0-0.579,0.4695-1.0484,1.0484-1.0484 c0.579,0,1.0484,0.4694,1.0484,1.0484v9.4295C37.0484,20.2938,36.579,20.7631,35.9999,20.7631z" fill="#000000" stroke="none"/>
    <path d="M39.8235,15.1571h-7.647c-0.579,0-1.0484-0.4694-1.0484-1.0484c0-0.5789,0.4694-1.0484,1.0484-1.0484 h7.647c0.579,0,1.0484,0.4695,1.0484,1.0484C40.8719,14.6877,40.4025,15.1571,39.8235,15.1571z" fill="#000000" stroke="none"/>
    <polygon fill="none" points="49,41.7111 36,30 23,41.7111 23,61 49,61" stroke="#000000" stroke-linecap="round" stroke-linejoin="round" stroke-miterlimit="10" stroke-width="2"/>
    <polyline fill="none" points="23,36.1299 15,28.9231 7,36.1299 7,48 23,48" stroke="#000000" stroke-linecap="round" stroke-linejoin="round" stroke-miterlimit="10" stroke-width="2"/>
    <polyline fill="none" points="49,59 66,59 66,46.388 57.5,38.7308 52.8572,42.8572" stroke="#000000" stroke-linecap="round" stroke-linejoin="round" stroke-miterlimit="10" stroke-width="2"/>
    <polyline fill="none" points="41.6,35 41.6,25.3761 36,20 30.4,25.3761 30.4,35" stroke="#000000" stroke-linecap="round" stroke-linejoin="round" stroke-miterlimit="10" stroke-width="2"/>
  </g>
</svg>