<svg viewBox="12 12 48 48" xmlns="http://www.w3.org/2000/svg">
  <defs>
    <linearGradient id="yellow-gradient" x1="0%" x2="0%" y1="0%" y2="100%">
      <stop offset="0%" style="stop-color:#FDE02F;stop-opacity:1;"/>
      <stop offset="100%" style="stop-color:#F7B209;stop-opacity:1;"/>
    </linearGradient>
  </defs>
  <g id="color">
    <rect fill="#9b9b9a" height="11" width="35" x="20" y="40"/>
    <path d="M46,18l13,4L56,42l-5,5-3-5Q47,30,46,18Z" fill="url(#yellow-gradient)"/>
    <path d="M15,17l4,14L18,47l30-5q-1-12-2-24Z" fill="url(#yellow-gradient)"/>
  </g>
  <g id="line">
    <path d="M15,17l4,14L18,47l30-5q-1-12-2-24Z" fill="none" stroke="#000" stroke-linecap="round" stroke-linejoin="round" stroke-width="2"/>
    <line fill="none" stroke="#000" stroke-linecap="round" stroke-linejoin="round" stroke-width="2" x1="19" x2="46" y1="31" y2="18"/>
    <line fill="none" stroke="#000" stroke-linecap="round" stroke-linejoin="round" stroke-width="2" x1="48" x2="19" y1="42" y2="31"/>
    <line fill="none" stroke="#000" stroke-linecap="round" stroke-linejoin="round" stroke-width="2" x1="46" x2="56" y1="18" y2="42"/>
    <polyline fill="none" points="54 51 20 51 20 47" stroke="#000" stroke-linecap="round" stroke-linejoin="round" stroke-width="2"/>
    <path d="M46,18l13,4L56,42l-5,5-3-5Q47,30,46,18Z" fill="none" stroke="#000" stroke-linecap="round" stroke-linejoin="round" stroke-width="2"/>
    <line fill="none" stroke="#000" stroke-linecap="round" stroke-linejoin="round" stroke-width="2" x1="46" x2="56" y1="18" y2="42"/>
  </g>
</svg>