<svg viewBox="9 9 54 54" xmlns="http://www.w3.org/2000/svg">
  <defs>
    <linearGradient id="yellow-gradient" x1="0%" x2="0%" y1="0%" y2="100%">
      <stop offset="0%" style="stop-color:#FDE02F;stop-opacity:1;"/>
      <stop offset="100%" style="stop-color:#F7B209;stop-opacity:1;"/>
    </linearGradient>
  </defs>
  <g id="color">
    <path d="M51.0984,45.9794H21.0578c-5.5116,0-9.9797-4.4681-9.9797-9.9797v0c0-5.5116,4.4681-9.9797,9.9797-9.9797h30.0406 c5.5116,0,9.9797,4.4681,9.9797,9.9797v0C61.0781,41.5114,56.6101,45.9794,51.0984,45.9794z" fill="#d0cfce" stroke="none" stroke-linecap="round" stroke-linejoin="round" stroke-miterlimit="10" stroke-width="2"/>
    <circle cx="20.9228" cy="36" fill="#ea5a47" r="10.0009" stroke="none" stroke-linecap="round" stroke-linejoin="round" stroke-miterlimit="10" stroke-width="2"/>
    <path d="M27.5214,28.4459c4.0892,3.7129,4.3944,10.0377,0.6815,14.127s-10.0377,4.3943-14.127,0.6815" fill="#ea5a47" stroke="none" stroke-linecap="round" stroke-linejoin="round" stroke-miterlimit="10" stroke-width="2"/>
  </g>
  <g id="line">
    <path d="M51.0984,45.9794H21.0578c-5.5116,0-9.9797-4.4681-9.9797-9.9797v0c0-5.5116,4.4681-9.9797,9.9797-9.9797h30.0406 c5.5116,0,9.9797,4.4681,9.9797,9.9797v0C61.0781,41.5114,56.6101,45.9794,51.0984,45.9794z" fill="none" stroke="#000000" stroke-linecap="round" stroke-linejoin="round" stroke-miterlimit="10" stroke-width="2"/>
    <circle cx="20.9228" cy="36" fill="none" r="10.0009" stroke="#000000" stroke-linecap="round" stroke-linejoin="round" stroke-miterlimit="10" stroke-width="2"/>
    <path d="M27.5214,28.4459c4.0892,3.7129,4.3944,10.0377,0.6815,14.127s-10.0377,4.3943-14.127,0.6815" fill="none" stroke="#000000" stroke-linecap="round" stroke-linejoin="round" stroke-miterlimit="10" stroke-width="2"/>
  </g>
</svg>