<svg viewBox="4 4 64 64" xmlns="http://www.w3.org/2000/svg">
  <defs>
    <linearGradient id="yellow-gradient" x1="0%" x2="0%" y1="0%" y2="100%">
      <stop offset="0%" style="stop-color:#FDE02F;stop-opacity:1;"/>
      <stop offset="100%" style="stop-color:#F7B209;stop-opacity:1;"/>
    </linearGradient>
  </defs>
  <g id="line">
    <line fill="none" stroke="#000000" stroke-linecap="round" stroke-linejoin="round" stroke-miterlimit="10" stroke-width="2" x1="8.0416" x2="64.0416" y1="29" y2="29"/>
    <line fill="none" stroke="#000000" stroke-linecap="round" stroke-linejoin="round" stroke-miterlimit="10" stroke-width="2" x1="8.0416" x2="8.0416" y1="26" y2="34"/>
    <line fill="none" stroke="#000000" stroke-linecap="round" stroke-linejoin="round" stroke-miterlimit="10" stroke-width="2" x1="64.0416" x2="64.0416" y1="26" y2="34"/>
    <line fill="none" stroke="#000000" stroke-linecap="round" stroke-linejoin="round" stroke-miterlimit="10" stroke-width="2" x1="36.0416" x2="36.0416" y1="26" y2="34"/>
    <line fill="none" stroke="#000000" stroke-linecap="round" stroke-linejoin="round" stroke-miterlimit="10" stroke-width="2" x1="22.0416" x2="22.0416" y1="26" y2="32"/>
    <line fill="none" stroke="#000000" stroke-linecap="round" stroke-linejoin="round" stroke-miterlimit="10" stroke-width="2" x1="50.0416" x2="50.0416" y1="26" y2="32"/>
    <path d="M8.0085,45.9053L8.0085,45.9053c-1.0579,0-1.9155-0.8576-1.9155-1.9155v-3.1689c0-1.0579,0.8576-1.9156,1.9155-1.9156l0,0 c1.058,0,1.9156,0.8577,1.9156,1.9156v3.1689C9.9241,45.0477,9.0665,45.9053,8.0085,45.9053z" fill="none" stroke="#000000" stroke-linecap="round" stroke-linejoin="round" stroke-miterlimit="10" stroke-width="2"/>
    <path d="M61.8334,40.6119c0.2005-0.9798,1.0674-1.7169,2.1065-1.7169l0,0c0.5937,0,1.1313,0.2407,1.5204,0.6298 c0.6053,0.6053,0.5494,1.6111-0.0185,2.2515l-3.6521,4.1187h4.3004" fill="none" stroke="#000000" stroke-linecap="round" stroke-linejoin="round" stroke-miterlimit="10" stroke-width="2"/>
    <polyline fill="none" points="35.1209,40.4123 37.0588,38.9605 37.0588,45.9605" stroke="#000000" stroke-linecap="round" stroke-linejoin="round" stroke-miterlimit="10" stroke-width="2"/>
  </g>
</svg>