<svg viewBox="9 9 54 54" xmlns="http://www.w3.org/2000/svg">
  <defs>
    <linearGradient id="yellow-gradient" x1="0%" x2="0%" y1="0%" y2="100%">
      <stop offset="0%" style="stop-color:#FDE02F;stop-opacity:1;"/>
      <stop offset="100%" style="stop-color:#F7B209;stop-opacity:1;"/>
    </linearGradient>
  </defs>
  <g id="color">
    <path d="M12.0133,16.0194c0,7.5,5,13.75,5,13.75s5-6.25,5-13.75" fill="#61B2E4" stroke="none" stroke-linecap="round" stroke-linejoin="round" stroke-miterlimit="10" stroke-width="2"/>
    <circle cx="17.0133" cy="16.0194" fill="#92D3F5" r="5" stroke="none" stroke-miterlimit="10" stroke-width="2"/>
    <path d="M50.0133,44.0194c0,7.5,5,13.75,5,13.75s5-6.25,5-13.75" fill="#D22F27" stroke="none" stroke-linecap="round" stroke-linejoin="round" stroke-miterlimit="10" stroke-width="2"/>
    <circle cx="55.0133" cy="44.0194" fill="#EA5A47" r="5" stroke="none" stroke-miterlimit="10" stroke-width="2"/>
  </g>
  <g id="line">
    <path d="M12.0133,16.0194c0,7.5,5,13.75,5,13.75s5-6.25,5-13.75" fill="none" stroke="#000000" stroke-linecap="round" stroke-linejoin="round" stroke-miterlimit="10" stroke-width="2"/>
    <circle cx="17.0133" cy="16.0194" fill="none" r="5" stroke="#000000" stroke-miterlimit="10" stroke-width="2"/>
    <path d="M50.0133,44.0194c0,7.5,5,13.75,5,13.75s5-6.25,5-13.75" fill="none" stroke="#000000" stroke-linecap="round" stroke-linejoin="round" stroke-miterlimit="10" stroke-width="2"/>
    <circle cx="55.0133" cy="44.0194" fill="none" r="5" stroke="#000000" stroke-miterlimit="10" stroke-width="2"/>
    <path d="M17,33c0,0,16,0,17,14s16,14,21,14" fill="none" stroke="#000000" stroke-linecap="round" stroke-linejoin="round" stroke-miterlimit="10" stroke-width="2"/>
    <line fill="none" stroke="#000000" stroke-linecap="round" stroke-linejoin="round" stroke-miterlimit="10" stroke-width="2" x1="31.9713" x2="44.0287" y1="21.7413" y2="32.2587"/>
    <line fill="none" stroke="#000000" stroke-linecap="round" stroke-linejoin="round" stroke-miterlimit="10" stroke-width="2" x1="43.5475" x2="44.0287" y1="25.2041" y2="32.2587"/>
    <line fill="none" stroke="#000000" stroke-linecap="round" stroke-linejoin="round" stroke-miterlimit="10" stroke-width="2" x1="36.9741" x2="44.0287" y1="32.74" y2="32.2587"/>
  </g>
</svg>