<svg viewBox="4 4 64 64" xmlns="http://www.w3.org/2000/svg">
  <defs>
    <linearGradient id="yellow-gradient" x1="0%" x2="0%" y1="0%" y2="100%">
      <stop offset="0%" style="stop-color:#FDE02F;stop-opacity:1;"/>
      <stop offset="100%" style="stop-color:#F7B209;stop-opacity:1;"/>
    </linearGradient>
  </defs>
  <g id="color">
    <path d="M55.3264,61.6696c0.4702,0,0.8513-0.5583,0.8513-1.2471V6.7115c0-0.6888-0.3811-1.2471-0.8513-1.2471 H18.6616c-0.4702,0-0.8513,0.5583-0.8513,1.2471v33.0984l30.1025,21.8597C47.9128,61.6696,55.3264,61.6696,55.3264,61.6696z" fill="url(#yellow-gradient)"/>
    <path d="M55.3442,60.3668c0.4603,0,0.8335-0.5454,0.8335-1.2182V6.6826c0-0.6728-0.3732-1.2182-0.8335-1.2182 H19.4465c-0.4603,0-0.8335,0.5454-0.8335,1.2182v53.6842H55.3442z" fill="url(#yellow-gradient)"/>
    <path d="M18.613,6.6826c0-0.6728,0.3732-1.2182,0.8335-1.2182h35.8977c0.4603,0,0.8335,0.5454,0.8335,1.2182v52.466 c0,0.6728-0.3732,1.2182-0.8335,1.2182" fill="url(#yellow-gradient)"/>
    <path d="M51.1805,66.4522H15.2828c-0.4603,0-0.8335-0.5454-0.8335-1.2182v-7.1774V23.3439v-3.9428V12.768 c0-0.6728,0.3732-1.2182,0.8335-1.2182h35.8977c0.4603,0,0.8335,0.5454,0.8335,1.2182v52.466 C52.014,65.9068,51.6408,66.4522,51.1805,66.4522z" fill="#F1B31C"/>
  </g>
  <g id="line">
    <path d="M18.613,6.6826c0-0.6728,0.3732-1.2182,0.8335-1.2182h35.8977c0.4603,0,0.8335,0.5454,0.8335,1.2182v52.466 c0,0.6728-0.3732,1.2182-0.8335,1.2182" fill="none" stroke="#000000" stroke-linecap="round" stroke-linejoin="round" stroke-miterlimit="10" stroke-width="2"/>
    <path d="M51.1805,66.4522H15.2828c-0.4603,0-0.8335-0.5454-0.8335-1.2182v-7.1774V23.3439v-3.9428V12.768 c0-0.6728,0.3732-1.2182,0.8335-1.2182h35.8977c0.4603,0,0.8335,0.5454,0.8335,1.2182v52.466 C52.014,65.9068,51.6408,66.4522,51.1805,66.4522z" fill="none" stroke="#000000" stroke-linecap="round" stroke-linejoin="round" stroke-miterlimit="10" stroke-width="2"/>
    <line fill="none" stroke="#000000" stroke-linecap="round" stroke-linejoin="round" stroke-miterlimit="10" stroke-width="2" x1="12.3558" x2="19.628" y1="20.5008" y2="20.5008"/>
    <line fill="none" stroke="#000000" stroke-linecap="round" stroke-linejoin="round" stroke-miterlimit="10" stroke-width="2" x1="12.3558" x2="19.628" y1="27.8644" y2="27.8644"/>
    <line fill="none" stroke="#000000" stroke-linecap="round" stroke-linejoin="round" stroke-miterlimit="10" stroke-width="2" x1="11" x2="18.2722" y1="35.3193" y2="35.3193"/>
    <line fill="none" stroke="#000000" stroke-linecap="round" stroke-linejoin="round" stroke-miterlimit="10" stroke-width="2" x1="18.2722" x2="11" y1="42.6828" y2="42.6828"/>
    <line fill="none" stroke="#000000" stroke-linecap="round" stroke-linejoin="round" stroke-miterlimit="10" stroke-width="2" x1="11" x2="18.2722" y1="50.0464" y2="50.0464"/>
    <line fill="none" stroke="#000000" stroke-linecap="round" stroke-linejoin="round" stroke-miterlimit="10" stroke-width="2" x1="11" x2="18.2722" y1="57.4099" y2="57.4099"/>
    <path d="M42.8181,45.6368 c0,0,0-0.7431-0.3715-2.2292c-0.4499-1.8004-1.4862-2.9723-3.7154-2.9723c-1.8577,0-5.5731,0-8.1739,0 c-2.2292,0-3.2653,1.172-3.7154,2.9723c-0.3715,1.4862-0.3715,2.2292-0.3715,2.2292" fill="none" stroke="#000000" stroke-linecap="round" stroke-linejoin="round" stroke-width="2"/>
    <path d="M30.9288,33.0044 c0,1.3838,0.2003,2.9012,0.7431,3.7154c0.6916,1.0377,1.8642,1.4862,2.9723,1.4862c1.1502,0,2.28-0.4485,2.9723-1.4862 c0.5424-0.8142,0.7431-2.3316,0.7431-3.7154c0-1.0379-0.3715-4.4585-3.7154-4.4585S30.9288,31.2745,30.9288,33.0044z" fill="none" stroke="#000000" stroke-linejoin="round" stroke-width="2"/>
  </g>
</svg>