<svg viewBox="7 7 58 58" xmlns="http://www.w3.org/2000/svg">
  <defs>
    <linearGradient id="yellow-gradient" x1="0%" x2="0%" y1="0%" y2="100%">
      <stop offset="0%" style="stop-color:#FDE02F;stop-opacity:1;"/>
      <stop offset="100%" style="stop-color:#F7B209;stop-opacity:1;"/>
    </linearGradient>
  </defs>
  <g id="color">
    <polyline fill="#FFFFFF" points="51.0651,43.9165 51.0651,10.9792 18.9369,10.9792 18.9369,60.7391 34.9995,60.7391"/>
    <circle cx="43.1667" cy="52.1667" fill="#D0CFCE" r="11.1289"/>
  </g>
  <g id="line">
    <polyline fill="none" points="51.0651,43.9165 51.0651,10.9792 18.9369,10.9792 18.9369,60.7391 34.9995,60.7391" stroke="#000000" stroke-linecap="round" stroke-linejoin="round" stroke-miterlimit="10" stroke-width="2"/>
    <line fill="none" stroke="#000000" stroke-linecap="round" stroke-linejoin="round" stroke-miterlimit="10" stroke-width="2" x1="23.6667" x2="32" y1="16.0196" y2="16.0195"/>
    <line fill="none" stroke="#000000" stroke-linecap="round" stroke-linejoin="round" stroke-miterlimit="10" stroke-width="2" x1="23.6667" x2="45.6667" y1="24.5" y2="24.5"/>
    <line fill="none" stroke="#000000" stroke-linecap="round" stroke-linejoin="round" stroke-miterlimit="10" stroke-width="2" x1="23.6667" x2="45.6667" y1="28.2707" y2="28.2707"/>
    <line fill="none" stroke="#000000" stroke-linecap="round" stroke-linejoin="round" stroke-miterlimit="10" stroke-width="2" x1="23.6667" x2="45.6667" y1="32.0413" y2="32.0413"/>
    <line fill="none" stroke="#000000" stroke-linecap="round" stroke-linejoin="round" stroke-miterlimit="10" stroke-width="2" x1="23.6667" x2="45.6667" y1="35.812" y2="35.812"/>
    <line fill="none" stroke="#000000" stroke-linecap="round" stroke-linejoin="round" stroke-miterlimit="10" stroke-width="2" x1="23.6667" x2="45.6667" y1="39.5827" y2="39.5827"/>
    <line fill="none" stroke="#000000" stroke-linecap="round" stroke-linejoin="round" stroke-miterlimit="10" stroke-width="2" x1="36.38" x2="23.67" y1="43.3498" y2="43.3498"/>
    <line fill="none" stroke="#000000" stroke-linecap="round" stroke-linejoin="round" stroke-miterlimit="10" stroke-width="2" x1="33.25" x2="23.67" y1="47.1198" y2="47.1198"/>
    <line fill="none" stroke="#000000" stroke-linecap="round" stroke-linejoin="round" stroke-miterlimit="10" stroke-width="2" x1="32.12" x2="23.67" y1="50.8898" y2="50.8898"/>
    <circle cx="43.1667" cy="52.1667" fill="none" r="11.1289" stroke="#000000" stroke-linecap="round" stroke-linejoin="round" stroke-miterlimit="10" stroke-width="2"/>
    <line fill="none" stroke="#000000" stroke-linecap="round" stroke-linejoin="round" stroke-miterlimit="10" stroke-width="2" x1="51.0651" x2="56.5319" y1="60.7391" y2="66.2059"/>
    <line fill="none" stroke="#000000" stroke-linecap="round" stroke-linejoin="round" stroke-miterlimit="10" stroke-width="2" x1="33.4388" x2="46.875" y1="48.4529" y2="48.4529"/>
    <line fill="none" stroke="#000000" stroke-linecap="round" stroke-linejoin="round" stroke-miterlimit="10" stroke-width="2" x1="32.1717" x2="46.875" y1="53.8388" y2="53.8388"/>
  </g>
</svg>