<svg viewBox="10 10 52 52" xmlns="http://www.w3.org/2000/svg">
  <defs>
    <linearGradient id="yellow-gradient" x1="0%" x2="0%" y1="0%" y2="100%">
      <stop offset="0%" style="stop-color:#FDE02F;stop-opacity:1;"/>
      <stop offset="100%" style="stop-color:#F7B209;stop-opacity:1;"/>
    </linearGradient>
  </defs>
  <g id="color">
    <rect fill="#D0CFCE" height="34.9435" stroke="none" width="34.8816" x="12.8019" y="24.0856"/>
    <rect fill="#FFFFFF" height="34.7857" stroke="none" width="34.9009" x="24.8936" y="12.0814"/>
  </g>
  <g id="line">
    <path d="M46.8015,51.984v7.013c0,0.55-0.45,1-1,1h-33c-0.55,0-1-0.45-1-1v-33c0-0.5523,0.4477-1,1-1h7.0819" fill="none" stroke="#000000" stroke-linecap="round" stroke-linejoin="round" stroke-miterlimit="10" stroke-width="2"/>
    <path d="M58.8017,46.9968h-33c-0.55,0-1-0.45-1-1v-33c0-0.5523,0.4477-1,1-1h33c0.55,0,1,0.45,1,1v33 C59.8017,46.5468,59.3517,46.9968,58.8017,46.9968z" fill="none" stroke="#000000" stroke-linecap="round" stroke-linejoin="round" stroke-miterlimit="10" stroke-width="2"/>
  </g>
</svg>