<svg viewBox="10 10 52 52" xmlns="http://www.w3.org/2000/svg">
  <defs>
    <linearGradient id="yellow-gradient" x1="0%" x2="0%" y1="0%" y2="100%">
      <stop offset="0%" style="stop-color:#FDE02F;stop-opacity:1;"/>
      <stop offset="100%" style="stop-color:#F7B209;stop-opacity:1;"/>
    </linearGradient>
  </defs>
  <g id="color">
    <rect fill="#FFFFFF" height="42.246" stroke="none" width="42.4977" x="12.854" y="16.5774"/>
    <polygon fill="#F4AA41" points="32.775,39.4058 37.4938,37.6238 34.5571,34.687" stroke="none"/>
    <rect fill="#A57939" height="31.1323" stroke="none" transform="matrix(0.7071 0.7071 -0.7071 0.7071 31.291 -26.3861)" width="5.3523" x="44.8202" y="9.0123"/>
  </g>
  <g id="line">
    <path d="M54.5567,28.084v30.6836c0,0.55-0.45,1-1,1H13.1685c-0.55,0-1-0.45-1-1V18.3794c0-0.5523,0.4477-1,1-1h31.0229" fill="none" stroke="#000000" stroke-linecap="round" stroke-linejoin="round" stroke-miterlimit="10" stroke-width="2"/>
    <path d="M38.0526,37.7487l21.4611-21.4611c0.3905-0.3905,0.3905-1.0237,0-1.4142l-2.3359-2.3359c-0.3905-0.3905-1.0237-0.3905-1.4142,0 L34.3025,33.9986l-2.6258,6.3865L38.0526,37.7487l-3.7501-3.7501" fill="none" stroke="#000000" stroke-linecap="round" stroke-linejoin="round" stroke-miterlimit="10" stroke-width="2"/>
  </g>
</svg>