<svg viewBox="6 6 60 60" xmlns="http://www.w3.org/2000/svg">
  <defs>
    <linearGradient id="yellow-gradient" x1="0%" x2="0%" y1="0%" y2="100%">
      <stop offset="0%" style="stop-color:#FDE02F;stop-opacity:1;"/>
      <stop offset="100%" style="stop-color:#F7B209;stop-opacity:1;"/>
    </linearGradient>
  </defs>
  <g id="color">
    <polygon fill="#D0CFCE" points="17.1289,59.7384 16.0605,34.7399 16.0812,27.7956 36.1491,8.1103 55.9811,27.9203 55.9766,43.3584 55.0371,52.0185 54.9219,59.7384 41.7865,59.1623 41.8149,41.6273 30.2251,41.6273 30.149,59.1623" stroke="none"/>
  </g>
  <g id="line">
    <path d="M41.9901,59.9508H53.982c0.55,0,1-0.45,1-1v-24.938" fill="none" stroke="#000000" stroke-linecap="round" stroke-linejoin="round" stroke-miterlimit="10" stroke-width="2"/>
    <path d="M17.058,34.0128v24.938c0,0.55,0.45,1,1,1h12.1346" fill="none" stroke="#000000" stroke-linecap="round" stroke-linejoin="round" stroke-miterlimit="10" stroke-width="2"/>
    <polyline fill="none" points="8.4925,35.5947 36.0155,7.9766 63.5958,35.3474" stroke="#000000" stroke-linecap="round" stroke-linejoin="round" stroke-miterlimit="10" stroke-width="2"/>
    <polyline fill="none" points="41.8149,59.9327 41.8149,41.6273 30.2251,41.6273 30.2251,59.9327" stroke="#000000" stroke-linecap="round" stroke-linejoin="round" stroke-miterlimit="10" stroke-width="2"/>
  </g>
</svg>