<svg viewBox="9 9 54 54" xmlns="http://www.w3.org/2000/svg">
  <defs>
    <linearGradient id="yellow-gradient" x1="0%" x2="0%" y1="0%" y2="100%">
      <stop offset="0%" style="stop-color:#FDE02F;stop-opacity:1;"/>
      <stop offset="100%" style="stop-color:#F7B209;stop-opacity:1;"/>
    </linearGradient>
  </defs>
  <g id="color">
    <path d="M57.9219,59.7151H14.0782c-0.55,0-1-0.45-1-1V35.1819c0-0.55,0.45-1,1-1h43.8437c0.55,0,1,0.45,1,1v23.5332 C58.9219,59.2651,58.4719,59.7151,57.9219,59.7151z" fill="#A57939" stroke="none" stroke-linecap="round" stroke-linejoin="round" stroke-miterlimit="10" stroke-width="2"/>
  </g>
  <g id="line">
    <path d="M57.9219,59.7151H14.0782c-0.55,0-1-0.45-1-1V35.1819c0-0.55,0.45-1,1-1h43.8437c0.55,0,1,0.45,1,1v23.5332 C58.9219,59.2651,58.4719,59.7151,57.9219,59.7151z" fill="none" stroke="#000000" stroke-linecap="round" stroke-linejoin="round" stroke-miterlimit="10" stroke-width="2"/>
    <path d="M57.7185,60.0021H14.3634c-0.6323,0-1.1449-0.5126-1.1449-1.1449V35.103c0-0.6323,0.5126-1.1449,1.1449-1.1449h43.3551 c0.6323,0,1.1449,0.5126,1.1449,1.1449v23.7542C58.8634,59.4895,58.3508,60.0021,57.7185,60.0021z" fill="none" stroke="#000000" stroke-linecap="round" stroke-linejoin="round" stroke-miterlimit="10" stroke-width="2"/>
    <line fill="none" stroke="#000000" stroke-linecap="round" stroke-linejoin="round" stroke-miterlimit="10" stroke-width="2" x1="13.4425" x2="58.8093" y1="47.0112" y2="47.0112"/>
    <line fill="none" stroke="#000000" stroke-linecap="round" stroke-linejoin="round" stroke-miterlimit="10" stroke-width="2" x1="40.0276" x2="32.0008" y1="38.9697" y2="38.9697"/>
    <line fill="none" stroke="#000000" stroke-linecap="round" stroke-linejoin="round" stroke-miterlimit="10" stroke-width="2" x1="40.0276" x2="32.0008" y1="51.9732" y2="51.9732"/>
    <line fill="none" stroke="#000000" stroke-linecap="round" stroke-linejoin="round" stroke-miterlimit="10" stroke-width="2" x1="36.047" x2="36.047" y1="9.1254" y2="27.9952"/>
    <line fill="none" stroke="#000000" stroke-linecap="round" stroke-linejoin="round" stroke-miterlimit="10" stroke-width="2" x1="42.2019" x2="36.0619" y1="21.8739" y2="28.0139"/>
    <line fill="none" stroke="#000000" stroke-linecap="round" stroke-linejoin="round" stroke-miterlimit="10" stroke-width="2" x1="29.8719" x2="36.0119" y1="21.8739" y2="28.0139"/>
  </g>
</svg>