<svg viewBox="10 10 52 52" xmlns="http://www.w3.org/2000/svg">
  <defs>
    <linearGradient id="yellow-gradient" x1="0%" x2="0%" y1="0%" y2="100%">
      <stop offset="0%" style="stop-color:#FDE02F;stop-opacity:1;"/>
      <stop offset="100%" style="stop-color:#F7B209;stop-opacity:1;"/>
    </linearGradient>
  </defs>
  <g id="color">
    <rect fill="#D0CFCE" height="7" stroke="none" width="36" x="24" y="18"/>
    <rect fill="#D0CFCE" height="7" stroke="none" width="36" x="24" y="33"/>
    <rect fill="#D0CFCE" height="7" stroke="none" width="36" x="24" y="48"/>
    <rect fill="#9B9B9A" height="7" stroke="none" width="7" x="12" y="48"/>
    <rect fill="#9B9B9A" height="7" stroke="none" width="7" x="12" y="33"/>
    <rect fill="#9B9B9A" height="7" stroke="none" width="7" x="12" y="18"/>
  </g>
  <g id="line">
    <path d="M59,25H25c-0.5523,0-1-0.4477-1-1v-5c0-0.5523,0.4477-1,1-1h34c0.5523,0,1,0.4477,1,1v5C60,24.5523,59.5523,25,59,25z" fill="none" stroke="#000000" stroke-linecap="round" stroke-linejoin="round" stroke-miterlimit="10" stroke-width="2"/>
    <path d="M59,40H25c-0.5523,0-1-0.4477-1-1v-5c0-0.5523,0.4477-1,1-1h34c0.5523,0,1,0.4477,1,1v5C60,39.5523,59.5523,40,59,40z" fill="none" stroke="#000000" stroke-linecap="round" stroke-linejoin="round" stroke-miterlimit="10" stroke-width="2"/>
    <path d="M59,55H25c-0.5523,0-1-0.4477-1-1v-5c0-0.5523,0.4477-1,1-1h34c0.5523,0,1,0.4477,1,1v5C60,54.5523,59.5523,55,59,55z" fill="none" stroke="#000000" stroke-linecap="round" stroke-linejoin="round" stroke-miterlimit="10" stroke-width="2"/>
    <path d="M18,25h-5c-0.5523,0-1-0.4477-1-1v-5c0-0.5523,0.4477-1,1-1h5c0.5523,0,1,0.4477,1,1v5C19,24.5523,18.5523,25,18,25z" fill="none" stroke="#000000" stroke-linecap="round" stroke-linejoin="round" stroke-miterlimit="10" stroke-width="2"/>
    <path d="M18,40h-5c-0.5523,0-1-0.4477-1-1v-5c0-0.5523,0.4477-1,1-1h5c0.5523,0,1,0.4477,1,1v5C19,39.5523,18.5523,40,18,40z" fill="none" stroke="#000000" stroke-linecap="round" stroke-linejoin="round" stroke-miterlimit="10" stroke-width="2"/>
    <path d="M18,55h-5c-0.5523,0-1-0.4477-1-1v-5c0-0.5523,0.4477-1,1-1h5c0.5523,0,1,0.4477,1,1v5C19,54.5523,18.5523,55,18,55z" fill="none" stroke="#000000" stroke-linecap="round" stroke-linejoin="round" stroke-miterlimit="10" stroke-width="2"/>
  </g>
</svg>