<svg viewBox="10 10 52 52" xmlns="http://www.w3.org/2000/svg">
  <defs>
    <linearGradient id="yellow-gradient" x1="0%" x2="0%" y1="0%" y2="100%">
      <stop offset="0%" style="stop-color:#FDE02F;stop-opacity:1;"/>
      <stop offset="100%" style="stop-color:#F7B209;stop-opacity:1;"/>
    </linearGradient>
  </defs>
  <g id="color">
    <path d="M51.7598,17H20.1525v37.65c0,4.0593,3.2907,5.6209,7.35,5.6209h16.9073c4.0593,0,7.35-1.5616,7.35-5.6209 V17z" fill="#FFFFFF" stroke="none"/>
    <polyline fill="#FFFFFF" points="31,16 31,12 41,12 41,16" stroke="none" stroke-linecap="round" stroke-linejoin="round" stroke-miterlimit="10" stroke-width="2"/>
    <polygon fill="#9b9b9a" points="51,37 51,46.5172 51,57.6207 48.3,60 33,60" stroke="none"/>
    <rect fill="#FFFFFF" height="4" stroke="none" stroke-linecap="round" stroke-linejoin="round" stroke-miterlimit="10" stroke-width="2" width="38" x="17" y="16"/>
  </g>
  <g id="line">
    <polyline fill="none" points="31,16 31,12 41,12 41,16" stroke="#000000" stroke-linecap="round" stroke-linejoin="round" stroke-miterlimit="10" stroke-width="2"/>
    <path d="M51,25v31c0,2.2091-1.7909,4-4,4H25c-2.2091,0-4-1.7909-4-4V25" fill="none" stroke="#000000" stroke-linecap="round" stroke-linejoin="round" stroke-miterlimit="10" stroke-width="2"/>
    <rect fill="none" height="4" stroke="#000000" stroke-linecap="round" stroke-linejoin="round" stroke-miterlimit="10" stroke-width="2" width="38" x="17" y="16"/>
    <line fill="none" stroke="#000000" stroke-linecap="round" stroke-linejoin="round" stroke-miterlimit="10" stroke-width="2" x1="41" x2="41" y1="28.25" y2="55"/>
    <line fill="none" stroke="#000000" stroke-linecap="round" stroke-linejoin="round" stroke-miterlimit="10" stroke-width="2" x1="31" x2="31" y1="28.25" y2="55"/>
  </g>
</svg>