<svg viewBox="11 11 50 50" xmlns="http://www.w3.org/2000/svg">
  <defs>
    <linearGradient id="yellow-gradient" x1="0%" x2="0%" y1="0%" y2="100%">
      <stop offset="0%" style="stop-color:#FDE02F;stop-opacity:1;"/>
      <stop offset="100%" style="stop-color:#F7B209;stop-opacity:1;"/>
    </linearGradient>
  </defs>
  <g id="color">
    <circle cx="36" cy="35" fill="url(#yellow-gradient)" r="20.8" stroke="none"/>
    <path d="M23.437,50.3563C22.1049,53.8785,18.4321,58.7119,15,61c7.1652,0,12.2335-2.0922,16-7.2731" fill="url(#yellow-gradient)" stroke="none"/>
  </g>
  <g id="line">
    <circle cx="26.0001" cy="35.0788" fill="#000000" r="2.8571" stroke="none"/>
    <circle cx="36.0001" cy="35.0788" fill="#000000" r="2.8571" stroke="none"/>
    <circle cx="46.0001" cy="35.0788" fill="#000000" r="2.8571" stroke="none"/>
    <path d="M23.437,50.3563C22.1049,53.8785,18.4321,58.7119,15,61c7.1652,0,12.2335-2.0922,16-7.2731" fill="none" stroke="#000000" stroke-linecap="round" stroke-linejoin="round" stroke-miterlimit="10" stroke-width="2"/>
    <path d="M23.437,50.3563C22.1049,53.8785,18.4321,58.7119,15,61c7.1652,0,12.2335-2.0922,16-7.2731" fill="none" stroke="#000000" stroke-linecap="round" stroke-linejoin="round" stroke-miterlimit="10" stroke-width="2"/>
    <path d="M20.4809,47.6168 C17.6795,44.1751,16,39.7837,16,35c0-11.0457,8.9543-20,20-20s20,8.9543,20,20s-8.9543,20-20,20 c-0.3703,0-0.7383-0.0101-1.1037-0.0299" fill="none" stroke="#000000" stroke-linecap="round" stroke-miterlimit="10" stroke-width="2"/>
  </g>
</svg>