<svg viewBox="9 9 54 54" xmlns="http://www.w3.org/2000/svg">
  <defs>
    <linearGradient id="yellow-gradient" x1="0%" x2="0%" y1="0%" y2="100%">
      <stop offset="0%" style="stop-color:#FDE02F;stop-opacity:1;"/>
      <stop offset="100%" style="stop-color:#F7B209;stop-opacity:1;"/>
    </linearGradient>
  </defs>
  <g id="color">
    <polygon fill="url(#yellow-gradient)" points="35.25,12 46.375,23.25 46.375,62 13,62 13,12" stroke="url(#yellow-gradient)" stroke-linecap="round" stroke-linejoin="round" stroke-miterlimit="10" stroke-width="1.8"/>
    <polygon fill="#F1B31C" points="15.688,62 12.625,62 46.375,62 46.375,36.625 20.9375,62" stroke="#F1B31C" stroke-linecap="round" stroke-linejoin="round" stroke-miterlimit="10" stroke-width="1.8"/>
    <polygon fill="#FFFFFF" points="34,49 34,54 39,54 63,30 58,25" stroke="none" stroke-linecap="round" stroke-linejoin="round" stroke-miterlimit="10" stroke-width="2"/>
  </g>
  <g id="line">
    <polyline fill="none" points="46.375,30.9999 46.375,23.25 35.125,23.25 35.125,12 12.625,12 12.625,62 46.375,62 46.375,52.1666" stroke="#000000" stroke-linecap="round" stroke-linejoin="round" stroke-miterlimit="10" stroke-width="2"/>
    <line fill="none" stroke="#000000" stroke-linecap="round" stroke-linejoin="round" stroke-miterlimit="10" stroke-width="2" x1="35.125" x2="46.375" y1="12" y2="23.25"/>
    <line fill="none" stroke="#000000" stroke-linecap="round" stroke-linejoin="round" stroke-miterlimit="10" stroke-width="2" x1="41" x2="18" y1="30" y2="30"/>
    <line fill="none" stroke="#000000" stroke-linecap="round" stroke-linejoin="round" stroke-miterlimit="10" stroke-width="2" x1="28" x2="18" y1="24" y2="24"/>
    <line fill="none" stroke="#000000" stroke-linecap="round" stroke-linejoin="round" stroke-miterlimit="10" stroke-width="2" x1="41" x2="18" y1="36" y2="36"/>
    <line fill="none" stroke="#000000" stroke-linecap="round" stroke-linejoin="round" stroke-miterlimit="10" stroke-width="2" x1="28" x2="18" y1="42" y2="42"/>
    <line fill="none" stroke="#000000" stroke-linecap="round" stroke-linejoin="round" stroke-miterlimit="10" stroke-width="2" x1="28" x2="18" y1="48" y2="48"/>
    <line fill="none" stroke="#000000" stroke-linecap="round" stroke-linejoin="round" stroke-miterlimit="10" stroke-width="2" x1="28" x2="18" y1="54" y2="54"/>
    <polygon fill="none" points="34,49 34,54 39,54 63,30 58,25" stroke="#000000" stroke-linecap="round" stroke-linejoin="round" stroke-miterlimit="10" stroke-width="2"/>
  </g>
</svg>