<svg viewBox="11 11 50 50" xmlns="http://www.w3.org/2000/svg">
  <defs>
    <linearGradient id="yellow-gradient" x1="0%" x2="0%" y1="0%" y2="100%">
      <stop offset="0%" style="stop-color:#FDE02F;stop-opacity:1;"/>
      <stop offset="100%" style="stop-color:#F7B209;stop-opacity:1;"/>
    </linearGradient>
  </defs>
  <g id="color">
    <path d="M36,13.2002c-12.5719,0-22.7998,10.2279-22.7998,22.7998c0,12.5718,10.2279,22.7998,22.7998,22.7998 c12.5718,0,22.7998-10.228,22.7998-22.7998C58.7998,23.4281,48.5718,13.2002,36,13.2002z" fill="url(#yellow-gradient)"/>
    <path d="M31.5797,31.3465c0,2.4645-2.0004,4.4626-4.4626,4.4626s-4.4626-1.9981-4.4626-4.4626 c0-2.4622,2.0004-4.4626,4.4626-4.4626S31.5797,28.8843,31.5797,31.3465" fill="#FFFFFF"/>
    <path d="M49.5797,31.3465c0,2.4645-2.0004,4.4626-4.4626,4.4626s-4.4626-1.9981-4.4626-4.4626 c0-2.4622,2.0004-4.4626,4.4626-4.4626S49.5797,28.8843,49.5797,31.3465" fill="#FFFFFF"/>
  </g>
  <g id="line">
    <circle cx="36" cy="36" fill="none" r="23" stroke="#000000" stroke-miterlimit="10" stroke-width="2"/>
    <path d="M31.7799,31.4626 c0,2.4645-2.0004,4.4626-4.4626,4.4626s-4.4626-1.9981-4.4626-4.4626c0-2.4622,2.0004-4.4626,4.4626-4.4626 S31.7799,29.0004,31.7799,31.4626" fill="none" stroke="#000000" stroke-miterlimit="10" stroke-width="2"/>
    <path d="M29.3173,31.9252c0,1.1045-0.8965,2-2,2s-2-0.8955-2-2c0-1.1035,0.8965-2,2-2 C28.4208,29.9252,29.3173,30.8217,29.3173,31.9252"/>
    <path d="M49.7799,31.4626 c0,2.4645-2.0004,4.4626-4.4626,4.4626s-4.4626-1.9981-4.4626-4.4626c0-2.4622,2.0004-4.4626,4.4626-4.4626 S49.7799,29.0004,49.7799,31.4626" fill="none" stroke="#000000" stroke-miterlimit="10" stroke-width="2"/>
    <path d="M47.3173,31.9252c0,1.1045-0.8965,2-2,2s-2-0.8955-2-2c0-1.1035,0.8965-2,2-2 C46.4208,29.9252,47.3173,30.8217,47.3173,31.9252"/>
    <path d="M22.8547,31c0-2.4622,2.0004-4.4626,4.4626-4.4626S31.7799,28.5378,31.7799,31"/>
    <path d="M40.8547,31c0-2.4622,2.0004-4.4626,4.4626-4.4626S49.7799,28.5378,49.7799,31"/>
    <path d="M29,43c1.2841-0.6376,3.9847-1.0308,6.8421-0.9981C38.4656,42.0319,40.8318,42.4165,42,43" fill="none" stroke="#000000" stroke-linecap="round" stroke-linejoin="round" stroke-miterlimit="10" stroke-width="2"/>
  </g>
</svg>