<svg viewBox="11 11 50 50" xmlns="http://www.w3.org/2000/svg">
  <defs>
    <linearGradient id="yellow-gradient" x1="0%" x2="0%" y1="0%" y2="100%">
      <stop offset="0%" style="stop-color:#FDE02F;stop-opacity:1;"/>
      <stop offset="100%" style="stop-color:#F7B209;stop-opacity:1;"/>
    </linearGradient>
  </defs>
  <g id="color">
    <path d="M36,13c-12.6823,0-23,10.3177-23,23c0,12.6822,10.3177,23,23,23c12.6822,0,23-10.3178,23-23 C59,23.3177,48.6822,13,36,13z" fill="url(#yellow-gradient)"/>
  </g>
  <g id="line">
    <circle cx="36" cy="36" fill="none" r="23" stroke="#000000" stroke-miterlimit="10" stroke-width="2"/>
    <path d="M47.472,24.5833c-0.449,0.2959-2.431,1.5305-5.0607,1.0799c-2.1334-0.3656-3.4503-1.6274-3.8834-2.0815" fill="none" stroke="#000000" stroke-linecap="round" stroke-linejoin="round" stroke-miterlimit="10" stroke-width="2"/>
    <path d="M24.528,24.5833c0.449,0.2959,2.431,1.5305,5.0607,1.0799c2.1334-0.3656,3.4503-1.6274,3.8834-2.0815" fill="none" stroke="#000000" stroke-linecap="round" stroke-linejoin="round" stroke-miterlimit="10" stroke-width="2"/>
    <path d="M41,45c0,2.2091-2.7909,4-5,4s-5-1.7909-5-4s2.7909-3,5-3 S41,42.7909,41,45z" stroke="#000000" stroke-miterlimit="10" stroke-width="2"/>
    <path d="M30,31c0,1.6568-1.3448,3-3,3c-1.6553,0-3-1.3433-3-3c0-1.6552,1.3447-3,3-3C28.6552,28,30,29.3448,30,31"/>
    <path d="M48,31c0,1.6568-1.3447,3-3,3s-3-1.3433-3-3c0-1.6552,1.3447-3,3-3S48,29.3448,48,31"/>
  </g>
</svg>