<svg viewBox="0 0 72 72" xmlns="http://www.w3.org/2000/svg">
  <defs>
    <linearGradient id="yellow-gradient" x1="0%" x2="0%" y1="0%" y2="100%">
      <stop offset="0%" style="stop-color:#FDE02F;stop-opacity:1;"/>
      <stop offset="100%" style="stop-color:#F7B209;stop-opacity:1;"/>
    </linearGradient>
  </defs>
  <g id="color">
    <polygon fill="#fff" points="66.164 22.918 66.164 49.778 36.654 49.778 36.504 49.648 36.344 49.778 5.844 49.778 5.844 22.918 66.164 22.918"/>
    <rect fill="#d0cfce" height="5.875" width="44.4667" x="18.6976" y="28.643"/>
    <rect fill="#d0cfce" height="5.875" width="44.4667" x="18.6976" y="37.643"/>
    <polygon fill="#1e50a0" points="6.998 50.569 6.998 61 9.498 61 9.498 50.687 6.998 50.569"/>
    <polygon fill="#1e50a0" points="17.998 49.837 17.998 60.268 20.498 60.268 20.498 49.955 17.998 49.837"/>
    <polygon fill="#1e50a0" points="49.998 49.837 49.998 60.268 52.498 60.268 52.498 49.955 49.998 49.837"/>
    <polyline fill="#1e50a0" points="64.498 49.955 61.998 49.837 61.998 60.268"/>
    <polygon fill="#ea5a47" points="36.654 50.569 43.414 50.569 43.414 61 29.414 61 29.414 50.569 36.344 50.569 36.504 50.464 36.654 50.569"/>
    <rect fill="#ea5a47" height="6.69" width="14" x="29.4142" y="16.2279"/>
    <path d="M34.1512,10.9922A3.8885,3.8885,0,0,1,32.697,12.86a1.65,1.65,0,0,1-1.4916.2269c-1.0111-.4-1.3315-1.9863-.7156-3.543s1.9348-2.4944,2.9458-2.0944S34.7671,9.4355,34.1512,10.9922Z" fill="#d0cfce"/>
    <rect fill="#ea5a47" height="9.125" width="5.2691" x="9.5618" y="34.2855"/>
    <rect fill="#ea5a47" height="3.345" width="61.9485" x="5.0131" y="22.9179"/>
    <rect fill="#1e50a0" height="3.345" width="61.9485" x="5.0131" y="45.96"/>
    <polygon fill="#1e50a0" points="17.998 50.569 17.998 61 20.498 61 20.498 50.687 17.998 50.569"/>
    <polygon fill="#1e50a0" points="49.998 49.837 49.998 60.268 52.498 60.268 52.498 49.955 49.998 49.837"/>
    <polygon fill="#1e50a0" points="49.998 50.569 49.998 61 52.498 61 52.498 50.687 49.998 50.569"/>
    <polygon fill="#1e50a0" points="61.998 49.837 61.998 60.268 64.498 60.268 64.498 49.955 61.998 49.837"/>
    <polygon fill="#1e50a0" points="61.998 50.569 61.998 61 64.498 61 64.498 50.687 61.998 50.569"/>
    <polyline fill="#1e50a0" points="64.498 49.955 61.998 49.837 61.998 60.268"/>
  </g>
  <g id="line">
    <polyline fill="none" points="36.336 49.778 5.013 49.778 5.013 22.918 66.962 22.918 66.962 49.778 36.655 49.778" stroke="#000" stroke-linecap="round" stroke-linejoin="round" stroke-width="2"/>
    <line fill="none" stroke="#000" stroke-linecap="round" stroke-linejoin="round" stroke-width="2" x1="36.6542" x2="36.3442" y1="49.778" y2="49.778"/>
    <polyline fill="none" points="36.654 49.839 43.414 49.839 43.414 60" stroke="#000" stroke-linecap="round" stroke-linejoin="round" stroke-width="2"/>
    <polyline fill="none" points="29.414 60 29.414 49.839 36.344 49.839" stroke="#000" stroke-linecap="round" stroke-linejoin="round" stroke-width="2"/>
    <rect fill="none" height="6.69" stroke="#000" stroke-linecap="round" stroke-linejoin="round" stroke-width="2" width="14" x="29.4142" y="16.2279"/>
    <path d="M34.1512,10.9922A3.8885,3.8885,0,0,1,32.697,12.86a1.65,1.65,0,0,1-1.4916.2269c-1.0111-.4-1.3315-1.9863-.7156-3.543s1.9348-2.4944,2.9458-2.0944S34.7671,9.4355,34.1512,10.9922Z" fill="none" stroke="#000" stroke-linecap="round" stroke-linejoin="round" stroke-width="1.6"/>
    <line fill="none" stroke="#000" stroke-linecap="round" stroke-linejoin="round" stroke-width="1.6" x1="32.3205" x2="32.3205" y1="16.2263" y2="13.0524"/>
    <polyline fill="none" points="47.914 22.913 47.914 10.268 55.539 10.268" stroke="#000" stroke-linecap="round" stroke-linejoin="round" stroke-width="1.6"/>
    <line fill="none" stroke="#000" stroke-linecap="round" stroke-linejoin="round" stroke-width="1.6" x1="50.8726" x2="50.8726" y1="8.643" y2="11.768"/>
    <line fill="none" stroke="#000" stroke-linecap="round" stroke-linejoin="round" stroke-width="1.6" x1="53.8726" x2="53.8726" y1="8.643" y2="11.768"/>
    <polyline fill="none" points="19.482 22.445 19.482 17.204 15.642 17.204 15.642 11.445" stroke="#000" stroke-linecap="round" stroke-linejoin="round" stroke-width="1.6"/>
    <polyline fill="none" points="19.107 17.204 22.947 17.204 22.947 11.445" stroke="#000" stroke-linecap="round" stroke-linejoin="round" stroke-width="1.6"/>
    <line fill="none" stroke="#000" stroke-linecap="round" stroke-linejoin="round" stroke-width="1.6" x1="19.4976" x2="19.4976" y1="12.8305" y2="17.4867"/>
    <polyline fill="none" points="14.031 34.285 9.562 34.285 9.562 42.61" stroke="#000" stroke-linecap="round" stroke-linejoin="round" stroke-width="1.6"/>
    <line fill="none" stroke="#000" stroke-linecap="round" stroke-linejoin="round" stroke-width="2" x1="6.9976" x2="6.9976" y1="50.366" y2="60"/>
    <line fill="none" stroke="#000" stroke-linecap="round" stroke-linejoin="round" stroke-width="2" x1="17.9976" x2="17.9976" y1="49.8386" y2="60"/>
    <line fill="none" stroke="#000" stroke-linecap="round" stroke-linejoin="round" stroke-width="2" x1="49.9976" x2="49.9976" y1="49.8386" y2="60"/>
    <line fill="none" stroke="#000" stroke-linecap="round" stroke-linejoin="round" stroke-width="2" x1="61.9976" x2="61.9976" y1="49.8386" y2="60"/>
    <polyline fill="none" points="18.733 33.718 18.733 29.188 62.462 29.188" stroke="#000" stroke-linecap="round" stroke-linejoin="round" stroke-width="1.6"/>
    <polyline fill="none" points="18.733 42.518 18.733 37.188 62.462 37.188" stroke="#000" stroke-linecap="round" stroke-linejoin="round" stroke-width="1.6"/>
  </g>
</svg>