<svg viewBox="4 4 64 64" xmlns="http://www.w3.org/2000/svg">
  <defs>
    <linearGradient id="yellow-gradient" x1="0%" x2="0%" y1="0%" y2="100%">
      <stop offset="0%" style="stop-color:#FDE02F;stop-opacity:1;"/>
      <stop offset="100%" style="stop-color:#F7B209;stop-opacity:1;"/>
    </linearGradient>
  </defs>
  <g id="color">
    <polygon fill="#ea5a47" points="31.312 41.391 31.312 66.125 40.687 66.125 40.687 32.625 31.312 32.625 31.312 41.391"/>
    <polygon fill="#d22f27" points="37.771 41.391 37.771 66.125 40.687 66.125 40.687 32.625 37.771 32.625 37.771 41.391"/>
    <rect fill="#d0cfce" height="8.5" width="9.375" x="31.3125" y="32.625"/>
    <rect fill="#9b9b9a" height="8.5" width="2.9166" x="37.7708" y="32.625"/>
  </g>
  <g id="line">
    <polygon fill="none" points="31.312 41.391 31.312 66.125 40.687 66.125 40.687 32.625 31.312 32.625 31.312 41.391" stroke="#000" stroke-linecap="round" stroke-linejoin="round" stroke-width="2"/>
    <line fill="none" stroke="#000" stroke-linecap="round" stroke-linejoin="round" stroke-width="2" x1="31.3125" x2="40.6875" y1="41.3914" y2="41.3914"/>
    <path d="M36,32.625l.1412-14.1237a9.3053,9.3053,0,0,0-.5293-2.8977l-1.0051-2.5809a11.319,11.319,0,0,1-.6275-2.8954l-.1461-2.63A1.4067,1.4067,0,0,1,35.25,6h1.5a1.4054,1.4054,0,0,1,1.4156,1.4976l-.162,2.8744a10.4354,10.4354,0,0,1-.2431,1.9243l-.1588.4266" fill="none" stroke="#000" stroke-linecap="round" stroke-linejoin="round" stroke-width="2"/>
    <line fill="none" stroke="#000" stroke-linecap="round" stroke-linejoin="round" stroke-width="2" x1="33.0625" x2="39.0625" y1="24.75" y2="24.75"/>
  </g>
  <g id="color-foreground">
    <path d="M37.07,44.3038l4.2988-1.1665a2.2445,2.2445,0,0,0,1.5656-1.2692,1.6785,1.6785,0,0,0-1.2394-1.9813L41.67,40.9856a.9419.9419,0,0,1-.701.889l-4.3112,1.1395-6.026,1.4753c-.21.0571-1.3188.3239-1.5656,1.2692a2.9247,2.9247,0,0,0,.2319,2.2988l1.0329-1.4164a.9418.9418,0,0,1,.701-.8889Z" fill="#ea5a47"/>
    <path d="M37.07,45.3038l4.2988-1.1665a3.0112,3.0112,0,0,0,1.4319-1.0228,1.0106,1.0106,0,0,0,.1425-.5293c.0339-1.0775.0339-.8932.0339-1.0435a7.9451,7.9451,0,0,1-2.1328,1.3658c-.1773.069-4.1869,1.1066-4.1869,1.1066l-6.026,1.4753a2.2445,2.2445,0,0,0-1.5656,1.2692A1.6624,1.6624,0,0,0,30.3051,48.74l.0254-1.0989a.9418.9418,0,0,1,.701-.8889Z" fill="#d22f27"/>
    <path d="M37.07,50.3038l4.2988-1.1665a2.2445,2.2445,0,0,0,1.5656-1.2692,1.6785,1.6785,0,0,0-1.2394-1.9813L41.67,46.9856a.9419.9419,0,0,1-.701.889l-4.3112,1.1395-6.026,1.4753c-.21.0571-1.3188.3239-1.5656,1.2692a2.9247,2.9247,0,0,0,.2319,2.2988l1.0329-1.4164a.9418.9418,0,0,1,.701-.8889Z" fill="#ea5a47"/>
    <path d="M37.07,51.3038l4.2988-1.1665a3.0112,3.0112,0,0,0,1.4319-1.0228,1.0106,1.0106,0,0,0,.1425-.5293c.0339-1.0775.0339-.8932.0339-1.0435a7.9451,7.9451,0,0,1-2.1328,1.3658c-.1773.069-4.1869,1.1066-4.1869,1.1066l-6.026,1.4753a2.2445,2.2445,0,0,0-1.5656,1.2692A1.6624,1.6624,0,0,0,30.3051,54.74l.0254-1.0989a.9418.9418,0,0,1,.701-.8889Z" fill="#d22f27"/>
    <path d="M37.07,56.3038l4.2988-1.1665a2.2445,2.2445,0,0,0,1.5656-1.2692,1.6785,1.6785,0,0,0-1.2394-1.9813L41.67,52.9856a.9419.9419,0,0,1-.701.889l-4.3112,1.1395-6.026,1.4753c-.21.0571-1.3188.3239-1.5656,1.2692a2.9247,2.9247,0,0,0,.2319,2.2988l1.0329-1.4164a.9418.9418,0,0,1,.701-.8889Z" fill="#ea5a47"/>
    <path d="M37.07,57.3038l4.2988-1.1665a3.0112,3.0112,0,0,0,1.4319-1.0228,1.0106,1.0106,0,0,0,.1425-.5293c.0339-1.0775.0339-.8932.0339-1.0435a7.9451,7.9451,0,0,1-2.1328,1.3658c-.1773.069-4.1869,1.1066-4.1869,1.1066l-6.026,1.4753a2.2445,2.2445,0,0,0-1.5656,1.2692A1.6624,1.6624,0,0,0,30.3051,60.74l.0254-1.0989a.9418.9418,0,0,1,.701-.8889Z" fill="#d22f27"/>
    <path d="M37.07,62.3038l4.2988-1.1665a2.2445,2.2445,0,0,0,1.5656-1.2692,1.6785,1.6785,0,0,0-1.2394-1.9813L41.67,58.9856a.9419.9419,0,0,1-.701.889l-4.3112,1.1395-6.026,1.4753c-.21.0571-1.3188.3239-1.5656,1.2692a2.7583,2.7583,0,0,0,.29,2.2988l.9744-1.4164a.9418.9418,0,0,1,.701-.8889Z" fill="#ea5a47"/>
    <path d="M37.07,63.3038l4.2988-1.1665a3.0112,3.0112,0,0,0,1.4319-1.0228,1.0106,1.0106,0,0,0,.1425-.5293c.0339-1.0775.0339-.8932.0339-1.0435a7.9451,7.9451,0,0,1-2.1328,1.3658c-.1773.069-4.1869,1.1066-4.1869,1.1066l-6.026,1.4753a2.2445,2.2445,0,0,0-1.5656,1.2692c-.3176,1.6,1.4,1.9316,1.4,1.9316l-.1354-1.0492a.9418.9418,0,0,1,.701-.8889Z" fill="#d22f27"/>
  </g>
</svg>