<svg viewBox="0 0 72 72" xmlns="http://www.w3.org/2000/svg">
  <defs>
    <linearGradient id="yellow-gradient" x1="0%" x2="0%" y1="0%" y2="100%">
      <stop offset="0%" style="stop-color:#FDE02F;stop-opacity:1;"/>
      <stop offset="100%" style="stop-color:#F7B209;stop-opacity:1;"/>
    </linearGradient>
  </defs>
  <g id="color">
    <path d="M68,44.7744c-8,0-11.1127,3-16.1127,3s-10-3-16-3s-10,3-16,3S7,44.7744,4,44.7744V68h64V44.7744z" fill="#61B2E4"/>
  </g>
  <g id="line">
    <path d="M4.8873,44.7744 c3,0,9,3,15,3s10-3,16-3s11,3,16,3s7-3,15-3" fill="none" stroke="#000000" stroke-linecap="round" stroke-linejoin="round" stroke-width="2"/>
    <line fill="none" stroke="#000000" stroke-linecap="round" stroke-miterlimit="10" stroke-width="2" x1="18.9215" x2="18.9215" y1="39.5555" y2="26.4931"/>
    <path d="M13.9215,31.1065 L18.8,25.9256c0.0397-0.0421,0.106-0.0441,0.1481-0.0044c0.0019,0.0018,0.0038,0.0037,0.0056,0.0056l4.9678,5.4432" fill="none" stroke="#000000" stroke-linecap="round" stroke-miterlimit="10" stroke-width="2"/>
    <line fill="none" stroke="#000000" stroke-linecap="round" stroke-miterlimit="10" stroke-width="2" x1="51.5379" x2="51.5379" y1="39.5555" y2="26.4931"/>
    <path d="M46.5379,31.1065 l4.8786-5.1809c0.0397-0.0421,0.106-0.0441,0.1481-0.0044c0.0019,0.0018,0.0038,0.0037,0.0056,0.0056l4.9677,5.4432" fill="none" stroke="#000000" stroke-linecap="round" stroke-miterlimit="10" stroke-width="2"/>
  </g>
</svg>