<svg viewBox="10 10 52 52" xmlns="http://www.w3.org/2000/svg">
  <defs>
    <linearGradient id="yellow-gradient" x1="0%" x2="0%" y1="0%" y2="100%">
      <stop offset="0%" style="stop-color:#FDE02F;stop-opacity:1;"/>
      <stop offset="100%" style="stop-color:#F7B209;stop-opacity:1;"/>
    </linearGradient>
  </defs>
  <g id="color">
    <rect fill="#a57939" height="38.6125" rx="6.7831" width="32.6146" x="19.6927" y="20.9411"/>
    <path d="M33.4268,38.1266c1.8065-2.92,5.8685-3.6166,5.8685-3.6166s1.1181,3.9957-.6707,6.8386-5.8685,3.6165-5.8685,3.6165S31.62,41.0465,33.4268,38.1266Z" fill="#b1cc33"/>
  </g>
  <g id="line">
    <g>
      <path d="M33.6447,38.0545c1.8065-2.92,5.8685-3.6166,5.8685-3.6166s1.1182,3.9957-.6706,6.8385-5.8685,3.6166-5.8685,3.6166S31.8382,40.9744,33.6447,38.0545Z" fill="none" stroke="#000" stroke-linecap="round" stroke-linejoin="round" stroke-width="2"/>
      <line fill="none" stroke="#000" stroke-linecap="round" stroke-linejoin="round" stroke-width="2" x1="32.1" x2="32.9075" y1="46.4574" y2="44.7991"/>
    </g>
    <g>
      <path d="M28.1565,25.6632c0-7.4447,3.4165-13.48,7.6309-13.48s7.6308,6.035,7.6308,13.48" fill="none" stroke="#000" stroke-linecap="round" stroke-miterlimit="10" stroke-width="2"/>
      <rect fill="none" height="38.6125" rx="6.7831" stroke="#000" stroke-miterlimit="10" stroke-width="2" width="32.6146" x="19.6927" y="20.9411"/>
    </g>
  </g>
</svg>