<svg viewBox="9 9 54 54" xmlns="http://www.w3.org/2000/svg">
  <defs>
    <linearGradient id="yellow-gradient" x1="0%" x2="0%" y1="0%" y2="100%">
      <stop offset="0%" style="stop-color:#FDE02F;stop-opacity:1;"/>
      <stop offset="100%" style="stop-color:#F7B209;stop-opacity:1;"/>
    </linearGradient>
  </defs>
  <g id="color">
    <rect fill="url(#yellow-gradient)" height="48.1303" width="29.6187" x="20.6836" y="12.084"/>
    <rect fill="#f1b31c" height="48.1303" width="10.0185" x="40.4313" y="12.084"/>
  </g>
  <g id="line">
    <line fill="none" stroke="#000" stroke-linecap="round" stroke-linejoin="round" stroke-width="2" x1="19.178" x2="51.5363" y1="60.2143" y2="60.2143"/>
    <line fill="none" stroke="#000" stroke-linecap="round" stroke-linejoin="round" stroke-width="2" x1="51.5363" x2="19.178" y1="11.6767" y2="11.6767"/>
    <line fill="none" stroke="#000" stroke-linecap="round" stroke-linejoin="round" stroke-width="2" x1="37.2762" x2="42.6692" y1="10.2143" y2="10.2143"/>
    <path d="M19.178,11.6767c1.7347,1.6573,2.1728,4.5617,2.1728,7.8687,0,3.6246-.1542,6.7653-2.1728,8.31" fill="none" stroke="#000" stroke-linecap="round" stroke-linejoin="round" stroke-width="2"/>
    <path d="M19.178,27.8559c1.7347,1.6573,2.1728,4.5616,2.1728,7.8687,0,3.6246-.1542,6.7653-2.1728,8.31" fill="none" stroke="#000" stroke-linecap="round" stroke-linejoin="round" stroke-width="2"/>
    <path d="M19.178,44.0351c1.7347,1.6573,2.1728,4.5616,2.1728,7.8687,0,3.6246-.1542,6.7653-2.1728,8.3105" fill="none" stroke="#000" stroke-linecap="round" stroke-linejoin="round" stroke-width="2"/>
    <path d="M51.5363,11.6767c-1.7348,1.6573-2.1729,4.5617-2.1729,7.8687,0,3.6246.1543,6.7653,2.1729,8.31" fill="none" stroke="#000" stroke-linecap="round" stroke-linejoin="round" stroke-width="2"/>
    <path d="M51.5363,27.8559c-1.7348,1.6573-2.1729,4.5616-2.1729,7.8687,0,3.6246.1543,6.7653,2.1729,8.31" fill="none" stroke="#000" stroke-linecap="round" stroke-linejoin="round" stroke-width="2"/>
    <path d="M51.5363,44.0351c-1.7348,1.6573-2.1729,4.5616-2.1729,7.8687,0,3.6246.1543,6.7653,2.1729,8.3105" fill="none" stroke="#000" stroke-linecap="round" stroke-linejoin="round" stroke-width="2"/>
    <g>
      <path d="M36.727,35.4885A1.2333,1.2333,0,1,1,36.11,34.42,1.2336,1.2336,0,0,1,36.727,35.4885Z" stroke="#000" stroke-linecap="round" stroke-linejoin="round" stroke-width="2"/>
      <path d="M30.5565,35.4885a4.9345,4.9345,0,0,1,2.4678-4.2758l-2.4687-4.2758A9.8691,9.8691,0,0,0,25.62,35.4885Z" stroke="#000" stroke-linecap="round" stroke-linejoin="round" stroke-width="2"/>
      <path d="M37.9615,39.7643a4.9428,4.9428,0,0,1-4.9372,0L30.5557,44.04a9.8851,9.8851,0,0,0,9.8745,0Z" stroke="#000" stroke-linecap="round" stroke-linejoin="round" stroke-width="2"/>
      <path d="M37.9615,31.2127a4.9345,4.9345,0,0,1,2.4678,4.2758h4.9365A9.8691,9.8691,0,0,0,40.43,26.9369Z" stroke="#000" stroke-linecap="round" stroke-linejoin="round" stroke-width="2"/>
    </g>
  </g>
</svg>