<svg viewBox="4 4 64 64" xmlns="http://www.w3.org/2000/svg">
  <defs>
    <linearGradient id="yellow-gradient" x1="0%" x2="0%" y1="0%" y2="100%">
      <stop offset="0%" style="stop-color:#FDE02F;stop-opacity:1;"/>
      <stop offset="100%" style="stop-color:#F7B209;stop-opacity:1;"/>
    </linearGradient>
  </defs>
  <g id="color">
    <path d="M22.87,30.1262c-.01,0-.02-.02-.02-.02a4.3973,4.3973,0,0,1-.52-.36c-.01-.01-.02-.01-.03-.02a6.0978,6.0978,0,0,1-1.83-2.6,5.9978,5.9978,0,0,1,3.16-7.51,3.9769,3.9769,0,0,1,6.76-2.13,5.015,5.015,0,0,1,2.72-2.41,4.9237,4.9237,0,0,1,3.28-.02,4.9749,4.9749,0,0,1,7.3-5.21,7.9429,7.9429,0,0,1,2.83-1.77,7.846,7.846,0,0,1,2.67-.48,5.88,5.88,0,0,1,2.03-1.23,6.0027,6.0027,0,0,1,7.69,3.58c.06.17.11.34.16.52a3.5285,3.5285,0,0,1,.56.14,3.9477,3.9477,0,0,1,2.53,2.42,4.0017,4.0017,0,0,1-2.39,5.12,3.9424,3.9424,0,0,1-2.91-.08,7.9818,7.9818,0,0,1-9.79,5.21,4.96,4.96,0,0,1-8.71,2.36,4.9417,4.9417,0,0,1-6.82,1.99,5.9139,5.9139,0,0,1-2.06,2.41" fill="#fff"/>
    <path d="M22.87,30.1262c-.01,0-.02-.02-.02-.02a4.3973,4.3973,0,0,1-.52-.36c-.01-.01-.02-.01-.03-.02a6.0978,6.0978,0,0,1-1.83-2.6,5.9978,5.9978,0,0,1,3.16-7.51,3.9769,3.9769,0,0,1,6.76-2.13,5.015,5.015,0,0,1,2.72-2.41,4.9237,4.9237,0,0,1,3.28-.02,4.9749,4.9749,0,0,1,7.3-5.21,7.9429,7.9429,0,0,1,2.83-1.77,7.846,7.846,0,0,1,2.67-.48,5.88,5.88,0,0,1,2.03-1.23,6.0027,6.0027,0,0,1,7.69,3.58c.06.17.11.34.16.52a3.5285,3.5285,0,0,1,.56.14,3.9477,3.9477,0,0,1,2.53,2.42,4.0017,4.0017,0,0,1-2.39,5.12,3.9424,3.9424,0,0,1-2.91-.08,7.9818,7.9818,0,0,1-9.79,5.21,4.96,4.96,0,0,1-8.71,2.36,4.9417,4.9417,0,0,1-6.82,1.99,5.9139,5.9139,0,0,1-2.06,2.41" fill="#fff"/>
    <path d="M70.24,10.5062a.8469.8469,0,0,0-.17-.04c-.01-.05-.03-.1-.04-.14A1.68,1.68,0,0,1,70.24,10.5062Z" fill="#9b9b9a"/>
    <rect fill="#fff" height="39" width="6" x="51" y="27"/>
    <path d="M47,47.2622a7.946,7.946,0,0,0-8.1866,2.667C37.7017,42.6331,37.6422,34.7977,39.197,30H33V66H47Z" fill="#9b9b9a"/>
    <path d="M33,66V30H16c3,9.2571,0,29.8286-5,36Z" fill="#d0cfce"/>
    <path d="M47,47.2622V66h6V55A7.9959,7.9959,0,0,0,47,47.2622Z" fill="#3f3f3f"/>
    <rect fill="#ea5a47" height="4" width="6" x="51" y="31"/>
  </g>
  <g id="line">
    <path d="M22.87,30c-.01,0-.02-.02-.02-.02a4.3973,4.3973,0,0,1-.52-.36c-.01-.01-.02-.01-.03-.02A6.0978,6.0978,0,0,1,20.47,27a5.9978,5.9978,0,0,1,3.16-7.51,3.9769,3.9769,0,0,1,6.76-2.13,5.015,5.015,0,0,1,2.72-2.41,4.9237,4.9237,0,0,1,3.28-.02,4.9749,4.9749,0,0,1,7.3-5.21,7.9429,7.9429,0,0,1,2.83-1.77,7.846,7.846,0,0,1,2.67-.48,5.88,5.88,0,0,1,2.03-1.23,6.0027,6.0027,0,0,1,7.69,3.58c.06.17.11.34.16.52a3.5285,3.5285,0,0,1,.56.14,3.9477,3.9477,0,0,1,2.53,2.42,4.0017,4.0017,0,0,1-2.39,5.12,3.9424,3.9424,0,0,1-2.91-.08,7.9818,7.9818,0,0,1-9.79,5.21,4.96,4.96,0,0,1-8.71,2.36,4.9417,4.9417,0,0,1-6.82,1.99,5.9139,5.9139,0,0,1-2.06,2.41" fill="none" stroke="#000" stroke-linecap="round" stroke-linejoin="round" stroke-width="2"/>
    <path d="M44.1969,66c-5-6.1714-8-26.7429-5-36H16c3,9.2571,0,29.8286-5,36Z" fill="none" stroke="#000" stroke-linecap="round" stroke-linejoin="round" stroke-width="2"/>
    <polyline fill="none" points="53 66 57 66 57 27 51 27 51 49.721" stroke="#000" stroke-linecap="round" stroke-linejoin="round" stroke-width="2"/>
    <path d="M44.197,66H53V55a7.9993,7.9993,0,0,0-14.1866-5.0708" fill="none" stroke="#000" stroke-linecap="round" stroke-linejoin="round" stroke-width="2"/>
  </g>
</svg>