<svg viewBox="5 5 62 62" xmlns="http://www.w3.org/2000/svg">
  <defs>
    <linearGradient id="yellow-gradient" x1="0%" x2="0%" y1="0%" y2="100%">
      <stop offset="0%" style="stop-color:#FDE02F;stop-opacity:1;"/>
      <stop offset="100%" style="stop-color:#F7B209;stop-opacity:1;"/>
    </linearGradient>
  </defs>
  <g id="color">
    <path d="M70.24,10.5062a.8469.8469,0,0,0-.17-.04c-.01-.05-.03-.1-.04-.14A1.68,1.68,0,0,1,70.24,10.5062Z" fill="#9b9b9a"/>
    <path d="M20,32l3,5-2,3,1,3-5.0352,2.0141C16.2573,53.494,13.9859,62.3145,11,66H33V30.1429Z" fill="#d0cfce"/>
    <path d="M45,47a7.9829,7.9829,0,0,0-6.1866,2.9292C37.7017,42.6331,37.6422,34.7977,39.197,30H34l-1,.1429V66H47V49l-1.3018-1.9526C45.467,47.0258,45.237,47,45,47Z" fill="#9b9b9a"/>
    <polygon fill="#fff" points="54 41 53 37 51 36.6 51 66 57 66 57 42.5 54 41"/>
    <path d="M52,64l1-3-3-2,2.943-4.905q-.0138-.1215-.0312-.242L50,49H47V66h6v-.75Z" fill="#3f3f3f"/>
  </g>
  <g id="line">
    <path d="M39.197,30H34L20,32l3,5-2,3,1,3-5.0352,2.0141C16.2573,53.494,13.9859,62.3145,11,66H44.197C39.197,59.8286,36.197,39.2571,39.197,30Z" fill="none" stroke="#000" stroke-linecap="round" stroke-linejoin="round" stroke-width="2"/>
    <polyline fill="none" points="53 66 57 66 57 42.5 54 41 53 37 51 36.6 51 50.721" stroke="#000" stroke-linecap="round" stroke-linejoin="round" stroke-width="2"/>
    <path d="M44.197,66H53v-.75L52,64l1-3-3-2,2.9449-4.9082c-.0094-.0831-.0256-.164-.0376-.2463L50,49H47l-1.31-1.9651C45.462,47.0153,45.2329,47,45,47a7.9829,7.9829,0,0,0-6.1866,2.9292" fill="none" stroke="#000" stroke-linecap="round" stroke-linejoin="round" stroke-width="2"/>
  </g>
</svg>