<svg viewBox="6 6 60 60" xmlns="http://www.w3.org/2000/svg">
  <defs>
    <linearGradient id="yellow-gradient" x1="0%" x2="0%" y1="0%" y2="100%">
      <stop offset="0%" style="stop-color:#FDE02F;stop-opacity:1;"/>
      <stop offset="100%" style="stop-color:#F7B209;stop-opacity:1;"/>
    </linearGradient>
  </defs>
  <g id="color">
    <rect fill="#92d3f5" height="36.65" rx="4.644" ry="4.644" stroke-width="2.193" width="56.1" x="7.95" y="17.68"/>
    <circle cx="20.74" cy="28.92" fill="#9b9b9a" r="4.486" stroke-width="2.193"/>
    <circle cx="36.19" cy="28.92" fill="#d0cfce" r="4.486" stroke-width="2.193"/>
    <circle cx="51.64" cy="28.92" fill="#d0cfce" r="4.486" stroke-width="2.193"/>
    <circle cx="20.74" cy="43.46" fill="#d0cfce" r="4.486" stroke-width="2.193"/>
    <circle cx="36.19" cy="43.46" fill="#d0cfce" r="4.486" stroke-width="2.193"/>
    <circle cx="51.64" cy="43.46" fill="#d0cfce" r="4.486" stroke-width="2.193"/>
    <rect fill="#d0cfce" height="6.922" stroke-width="2.13" width="3.575" x="17.76" y="25.7"/>
    <rect fill="#9b9b9a" height="7.145" stroke-width="2.206" width="3.716" x="36" y="25.57"/>
    <rect fill="#9b9b9a" height="7.098" stroke-width="2.185" width="3.669" x="51.03" y="25.66"/>
    <rect fill="#9b9b9a" height="7.334" stroke-width="2.206" width="3.622" x="51.03" y="39.6"/>
    <rect fill="#9b9b9a" height="7.188" stroke-width="2.231" width="3.778" x="36" y="39.61"/>
    <rect fill="#9b9b9a" height="7.475" stroke-width="2.242" width="3.669" x="21.34" y="39.27"/>
  </g>
  <g id="line">
    <rect fill="none" height="35.2" rx="4.644" ry="4.644" stroke="#000" stroke-linecap="round" stroke-linejoin="round" stroke-width="2" width="53.89" x="9.057" y="18.4"/>
    <circle cx="21.34" cy="29.2" fill="none" r="4.309" stroke="#000" stroke-linecap="round" stroke-linejoin="round" stroke-width="2"/>
    <circle cx="36.18" cy="29.2" fill="none" r="4.309" stroke="#000" stroke-linecap="round" stroke-linejoin="round" stroke-width="2"/>
    <circle cx="51.03" cy="29.2" fill="none" r="4.309" stroke="#000" stroke-linecap="round" stroke-linejoin="round" stroke-width="2"/>
    <circle cx="21.34" cy="43.16" fill="none" r="4.309" stroke="#000" stroke-linecap="round" stroke-linejoin="round" stroke-width="2"/>
    <circle cx="36.18" cy="43.16" fill="none" r="4.309" stroke="#000" stroke-linecap="round" stroke-linejoin="round" stroke-width="2"/>
    <circle cx="51.03" cy="43.16" fill="none" r="4.309" stroke="#000" stroke-linecap="round" stroke-linejoin="round" stroke-width="2"/>
  </g>
</svg>