<svg viewBox="7 7 58 58" xmlns="http://www.w3.org/2000/svg">
  <defs>
    <linearGradient id="yellow-gradient" x1="0%" x2="0%" y1="0%" y2="100%">
      <stop offset="0%" style="stop-color:#FDE02F;stop-opacity:1;"/>
      <stop offset="100%" style="stop-color:#F7B209;stop-opacity:1;"/>
    </linearGradient>
  </defs>
  <g id="color">
    <path d="M40.98,32.1777v6.4111a5.5465,5.5465,0,0,1-5.63,5.4606h-.71c-3.13.4462-3,4.1706-3,4.1706H25.98s.13-3.7244-3-4.1706H21.61a5.5465,5.5465,0,0,1-5.63-5.4606V32.1777Z" fill="#92d3f5"/>
    <rect fill="#d0cfce" height="4.777" width="9.3598" x="24.018" y="48.2203"/>
  </g>
  <g id="line">
    <path d="M35.3523,16.1351H21.6137a5.6311,5.6311,0,0,0-5.6311,5.6312V38.2892A5.6311,5.6311,0,0,0,21.6137,43.92h1.3647c3.13.46,3,4.3,3,4.3h5.66s-.13-3.84,3-4.3h.7139a5.6311,5.6311,0,0,0,5.6311-5.6311V21.7663A5.6312,5.6312,0,0,0,35.3523,16.1351Z" fill="none" stroke="#000" stroke-linecap="round" stroke-linejoin="round" stroke-width="2"/>
    <rect fill="none" height="4.777" stroke="#000" stroke-linecap="round" stroke-linejoin="round" stroke-width="2" width="9.3598" x="24.018" y="48.2203"/>
    <polyline fill="none" points="28.698 52.997 28.698 60.958 28.698 65.029" stroke="#000" stroke-linecap="round" stroke-linejoin="round" stroke-width="2"/>
    <line fill="none" stroke="#000" stroke-linecap="round" stroke-linejoin="round" stroke-width="2" x1="15.9826" x2="24.018" y1="36.2852" y2="36.2852"/>
    <line fill="none" stroke="#000" stroke-linecap="round" stroke-linejoin="round" stroke-width="2" x1="15.9826" x2="21.327" y1="32.1777" y2="32.1777"/>
    <line fill="none" stroke="#000" stroke-linecap="round" stroke-linejoin="round" stroke-width="2" x1="15.9826" x2="24.018" y1="28.0703" y2="28.0703"/>
    <line fill="none" stroke="#000" stroke-linecap="round" stroke-linejoin="round" stroke-width="2" x1="15.9826" x2="21.327" y1="23.9628" y2="23.9628"/>
    <polyline fill="none" points="23.257 16 28.483 10.958 34.385 16.135" stroke="#000" stroke-linecap="round" stroke-linejoin="round" stroke-width="2"/>
    <path d="M24.7312,9.8667a4.1726,4.1726,0,0,0,8.18,0H56V65.0293" fill="none" stroke="#000" stroke-linecap="round" stroke-linejoin="round" stroke-width="2"/>
    <path d="M40.98,32.1777v6.4111a5.5465,5.5465,0,0,1-5.63,5.4606h-.71c-3.13.4462-3,4.1706-3,4.1706H25.98s.13-3.7244-3-4.1706H21.61a5.5465,5.5465,0,0,1-5.63-5.4606V32.1777Z" fill="none" stroke="#000" stroke-linecap="round" stroke-linejoin="round" stroke-width="2"/>
  </g>
</svg>