<svg viewBox="12 12 48 48" xmlns="http://www.w3.org/2000/svg">
  <defs>
    <linearGradient id="yellow-gradient" x1="0%" x2="0%" y1="0%" y2="100%">
      <stop offset="0%" style="stop-color:#FDE02F;stop-opacity:1;"/>
      <stop offset="100%" style="stop-color:#F7B209;stop-opacity:1;"/>
    </linearGradient>
  </defs>
  <g id="line">
    <ellipse cx="31.5844" cy="51.7695" fill="none" rx="3.7292" ry="3.0028" stroke="#000" stroke-miterlimit="10" stroke-width="2" transform="matrix(.55587 -.83127 .83127 .55587 -29.007 49.247)"/>
    <path d="M30.5831,48.93l-.2992-2.1686s-1.1385.02-.5878-.7848l2.3613-.279.3392,2.4585A3.2,3.2,0,0,0,30.5831,48.93Z"/>
    <line fill="none" stroke="#000" stroke-linecap="round" stroke-linejoin="round" stroke-width="2" x1="31.221" x2="38.088" y1="46.1526" y2="32.7142"/>
    <ellipse cx="23.568" cy="47.537" fill="none" rx="3.7292" ry="3.0028" stroke="#000" stroke-miterlimit="10" stroke-width="2" transform="matrix(.45941 -.88822 .88822 .45941 -29.483 46.632)"/>
    <path d="M26.2019,46.375l2.0434-.7854s.532,1.0067.971.1356l-.8-2.0978-2.3166.89A3.1724,3.1724,0,0,1,26.2019,46.375Z"/>
    <line fill="none" stroke="#000" stroke-linecap="round" stroke-linejoin="round" stroke-width="2" x1="28.3397" x2="37.2929" y1="44.6479" y2="31.8871"/>
    <path d="M47.0234,19.2768s4.32,2.9181-.5265,5.981L40.604,28.3646" fill="none" stroke="#000" stroke-linecap="round" stroke-linejoin="round" stroke-width="2"/>
    <path d="M44.32,18.1092s-4.7619-2.1223-4.7969,3.6111l.4813,6.6443" fill="none" stroke="#000" stroke-linecap="round" stroke-linejoin="round" stroke-width="2"/>
    <rect height="5.6787" rx="1.7358" transform="matrix(.86603 .5 -.5 .86603 20.307 -15.472)" width="3.4715" x="37.2889" y="27.319"/>
  </g>
  <g id="color-foreground">
    <circle cx="39.0202" cy="30.132" fill="#fff" r="0.6126"/>
  </g>
</svg>