<svg viewBox="12 12 48 48" xmlns="http://www.w3.org/2000/svg">
  <defs>
    <linearGradient id="yellow-gradient" x1="0%" x2="0%" y1="0%" y2="100%">
      <stop offset="0%" style="stop-color:#FDE02F;stop-opacity:1;"/>
      <stop offset="100%" style="stop-color:#F7B209;stop-opacity:1;"/>
    </linearGradient>
  </defs>
  <g id="color">
    <path d="M22.5593,44.7178c-.5773-2.5154-2.0374-10.5013,1.2395-15.72a6.6807,6.6807,0,0,1,2.559-2.33c2.4455-1.2931,7.5647-2.9953,13.6578.7518V40.9721a70.9621,70.9621,0,0,1-7.6985.6768,3.0564,3.0564,0,0,0-2.4926,1.32c-1.3449,1.9631-4.0426,5.1737-6.3169,3.3551A2.8422,2.8422,0,0,1,22.5593,44.7178Z" fill="#d22f27"/>
    <path d="M40.0156,27.4084V40.9721A14.93,14.93,0,0,0,47.7761,36s2.644-2.8227,4.6357-3.3378c0,0,3.5712-1.7856-.79-3.7429A32.7714,32.7714,0,0,0,40.0156,27.4084Z" fill="#d22f27"/>
  </g>
  <g id="line">
    <path d="M22.5593,44.7178c-.5773-2.5154-2.0374-10.5013,1.2395-15.72a6.6807,6.6807,0,0,1,2.559-2.33c2.4455-1.2931,7.5647-2.9953,13.6578.7518V40.9721a70.9621,70.9621,0,0,1-7.6985.6768,3.0564,3.0564,0,0,0-2.4926,1.32c-1.3449,1.9631-4.0426,5.1737-6.3169,3.3551A2.8422,2.8422,0,0,1,22.5593,44.7178Z" fill="none" stroke="#000" stroke-linecap="round" stroke-linejoin="round" stroke-width="2"/>
    <path d="M40.0156,27.4084V40.9721A14.93,14.93,0,0,0,47.7761,36s2.644-2.8227,4.6357-3.3378c0,0,3.5712-1.7856-.79-3.7429A32.7714,32.7714,0,0,0,40.0156,27.4084Z" fill="none" stroke="#000" stroke-linecap="round" stroke-linejoin="round" stroke-width="2"/>
  </g>
</svg>