<svg viewBox="12 12 48 48" xmlns="http://www.w3.org/2000/svg">
  <defs>
    <linearGradient id="yellow-gradient" x1="0%" x2="0%" y1="0%" y2="100%">
      <stop offset="0%" style="stop-color:#FDE02F;stop-opacity:1;"/>
      <stop offset="100%" style="stop-color:#F7B209;stop-opacity:1;"/>
    </linearGradient>
  </defs>
  <g id="color">
    <path d="M25.942,31.2662c-1.6653-1.6314-2.8128-3.7174-3.2992-5.9974c-0.4464-2.2508-0.2846-4.9334,2.1864-6.5942 c0,0,10.4386-7.3873,19.5924,0c0,0,11.081,6.8252,9.3948,24.6511c0,0-0.1606,12.2855-12.687,12.4461 c0,0-6.1828,1.5256-6.8252-8.5918c0.0609-0.9424,0.059-1.8878-0.0055-2.83c-0.2494-3.8546-2.0436-7.4455-4.9764-9.9593 C28.2947,33.5075,27.0856,32.4184,25.942,31.2662z" fill="#D22F27"/>
    <path d="M25.942,31.2662c-1.6653-1.6314-2.8128-3.7174-3.2992-5.9974c-0.4464-2.2508-0.2846-4.9334,2.1864-6.5942 c0,0,10.4386-7.3873,19.5924,0c0,0,11.081,6.8252,9.3948,24.6511c0,0-0.1606,12.2855-12.687,12.4461 c0,0-6.1828,1.5256-6.8252-8.5918c0.0609-0.9424,0.059-1.8878-0.0055-2.83c-0.2494-3.8546-2.0436-7.4455-4.9764-9.9593 C28.2947,33.5075,27.0856,32.4184,25.942,31.2662z" fill="#D22F27"/>
  </g>
  <g id="line">
    <path d="M25.942,31.2662 c-1.6653-1.6314-2.8128-3.7174-3.2992-5.9974c-0.4464-2.2508-0.2846-4.9334,2.1864-6.5942c0,0,10.4386-7.3873,19.5924,0 c0,0,11.081,6.8252,9.3948,24.6511c0,0-0.1606,12.2855-12.687,12.4461c0,0-6.1828,1.5256-6.8252-8.5918 c0.0609-0.9424,0.059-1.8878-0.0055-2.83c-0.2494-3.8546-2.0436-7.4455-4.9764-9.9593 C28.2947,33.5075,27.0856,32.4184,25.942,31.2662z" fill="none" stroke="#000000" stroke-miterlimit="10" stroke-width="2"/>
    <path d="M34.9867,29.073 c0,0-3.9033,1.592-7.2512,0.4347" fill="none" stroke="#000000" stroke-linecap="round" stroke-linejoin="round" stroke-width="2"/>
    <path d="M40.4068,43.4863 c0,0-6.9056-0.8029-9.6357-3.8141c0,0-3.3091-3.739-9.8363,0l-6.7782,2.3365" fill="none" stroke="#000000" stroke-linecap="round" stroke-linejoin="round" stroke-width="2"/>
    <path d="M36.7879,33.69 c-0.4326,0.3737-0.7294,0.88-0.8442,1.44c-0.1346,0.6446-0.0589,1.3153,0.2161,1.9136c0.3386,0.7868,0.7848,2.5839-0.3043,5.44" fill="none" stroke="#000000" stroke-linecap="round" stroke-linejoin="round" stroke-width="2"/>
    <path d="M14.1566,42.0087 l6.7782-2.3365c0,0,5.6207-2.2483,6.4237-5.701c0,0-0.3212-6.0223,2.0877-7.3071" fill="none" stroke="#000000" stroke-linecap="round" stroke-linejoin="round" stroke-width="2"/>
  </g>
</svg>