<svg viewBox="9 9 54 54" xmlns="http://www.w3.org/2000/svg">
  <defs>
    <linearGradient id="yellow-gradient" x1="0%" x2="0%" y1="0%" y2="100%">
      <stop offset="0%" style="stop-color:#FDE02F;stop-opacity:1;"/>
      <stop offset="100%" style="stop-color:#F7B209;stop-opacity:1;"/>
    </linearGradient>
  </defs>
  <g id="color">
    <path d="M46.3549,25.5221a78.4531,78.4531,0,0,0-20.71,0,19.9928,19.9928,0,0,0,0-13.4628,81.9643,81.9643,0,0,0,20.71,0A34.84,34.84,0,0,0,46.3549,25.5221Z" fill="#fff"/>
    <path d="M46.3549,25.5221a4.2993,4.2993,0,0,0-4.6606,0,28.0958,28.0958,0,0,0,0-13.4627,4.4628,4.4628,0,0,0,4.6606,0Q46.06,18.7907,46.3549,25.5221Z" fill="#d0cfce"/>
    <path d="M50.3055,61.5361a65.5353,65.5353,0,0,0-28.611,0,75.3,75.3,0,0,0,0-31.0013,68.4231,68.4231,0,0,0,28.611,0A132.91,132.91,0,0,0,50.3055,61.5361Z" fill="#fff"/>
    <path d="M50.3055,61.5361q-3.0922-3.16-6.4387,0a106.8361,106.8361,0,0,0,0-31.0014c2.0753,2.0614,4.2247,1.97,6.4387,0Q49.8972,46.0355,50.3055,61.5361Z" fill="#d0cfce"/>
  </g>
  <g id="line">
    <path d="M46.3549,25.5221a78.4531,78.4531,0,0,0-20.71,0,19.9928,19.9928,0,0,0,0-13.4628,81.9643,81.9643,0,0,0,20.71,0A34.84,34.84,0,0,0,46.3549,25.5221Z" fill="none" stroke="#000" stroke-linecap="round" stroke-linejoin="round" stroke-width="2"/>
    <path d="M50.3055,61.5361a65.5353,65.5353,0,0,0-28.611,0,75.3,75.3,0,0,0,0-31.0013,68.4231,68.4231,0,0,0,28.611,0A132.91,132.91,0,0,0,50.3055,61.5361Z" fill="none" stroke="#000" stroke-linecap="round" stroke-linejoin="round" stroke-width="2"/>
  </g>
</svg>