<svg viewBox="7 7 58 58" xmlns="http://www.w3.org/2000/svg">
  <defs>
    <linearGradient id="yellow-gradient" x1="0%" x2="0%" y1="0%" y2="100%">
      <stop offset="0%" style="stop-color:#FDE02F;stop-opacity:1;"/>
      <stop offset="100%" style="stop-color:#F7B209;stop-opacity:1;"/>
    </linearGradient>
  </defs>
  <g id="color">
    <polygon fill="#d0cfce" points="35.665 44.073 36.036 43.134 40.401 41.634 44.301 47.155 39.993 50.199 35.665 44.073"/>
    <rect fill="#d0cfce" height="5.2754" transform="translate(-23.1873 44.6859) rotate(-54.6611)" width="7.7661" x="27.7554" y="42.1382"/>
    <path d="M53.8248,25.6409,43.0726,18.1182l1.455-2.08c.7017-1.003,1.7967-1.4059,2.36-.8684l2.8557,2.7241a8.09,8.09,0,0,0,2.0054,1.4029l3.5378,1.7492c.698.3451.6949,1.5119-.0068,2.5148Z" fill="#92d3f5"/>
    <path d="M29.0712,17.9523,18.1575,25.4348,16.71,23.3239c-.698-1.018-.69-2.1945.0171-2.5359l3.5841-1.73a8.1611,8.1611,0,0,0,2.0354-1.3955l2.9056-2.7194c.5733-.5366,1.6735-.12,2.3715.8981Z" fill="#92d3f5"/>
  </g>
  <g id="line">
    <polygon fill="none" points="35.665 44.073 36.036 43.134 40.401 41.634 44.301 47.155 39.993 50.199 35.665 44.073" stroke="#000" stroke-linecap="round" stroke-linejoin="round" stroke-width="2"/>
    <rect fill="none" height="5.2754" stroke="#000" stroke-linecap="round" stroke-linejoin="round" stroke-width="2" transform="translate(-23.1873 44.6859) rotate(-54.6611)" width="7.7661" x="27.7554" y="42.1382"/>
    <path d="M53.8248,25.6409,43.0726,18.1182l1.455-2.08c.7017-1.003,1.7967-1.4059,2.36-.8684l2.8557,2.7241a8.09,8.09,0,0,0,2.0054,1.4029l3.5378,1.7492c.698.3451.6949,1.5119-.0068,2.5148Z" fill="none" stroke="#000" stroke-linecap="round" stroke-linejoin="round" stroke-width="2"/>
    <path d="M29.0712,17.9523,18.1575,25.4348,16.71,23.3239c-.698-1.018-.69-2.1945.0171-2.5359l3.5841-1.73a8.1611,8.1611,0,0,0,2.0354-1.3955l2.9056-2.7194c.5733-.5366,1.6735-.12,2.3715.8981Z" fill="none" stroke="#000" stroke-linecap="round" stroke-linejoin="round" stroke-width="2"/>
    <path d="M43.0451,18.8925,32.8855,32.77a3.961,3.961,0,0,0-.7877,2.412l-.365,4.9012-4.492,6.3351,4.3033,3.0513,4.492-6.3351,4.8032-1.66a3.9617,3.9617,0,0,0,2.0593-1.4789L53.008,26.1866" fill="none" stroke="#000" stroke-linecap="round" stroke-linejoin="round" stroke-width="2"/>
    <line fill="none" stroke="#000" stroke-linecap="round" stroke-linejoin="round" stroke-width="2" x1="35.8886" x2="29.2805" y1="28.6676" y2="19.0573"/>
    <polyline fill="none" points="35.494 43.898 39.87 50.059 44.171 47.005 40.401 41.634" stroke="#000" stroke-linecap="round" stroke-linejoin="round" stroke-width="2"/>
    <path d="M19.1061,26.0533l9.7445,14.1716a4.0339,4.0339,0,0,0,1.6732,1.4093" fill="none" stroke="#000" stroke-linecap="round" stroke-linejoin="round" stroke-width="2"/>
    <rect height="2.2909" rx="0.7996" transform="translate(-29.5957 43.343) rotate(-54.2322)" width="6.7909" x="24.1272" y="49.4235"/>
    <rect height="3.4169" rx="1.1751" transform="translate(36.8762 -3.6581) rotate(35.7678)" width="3.4169" x="22.3979" y="53.6029"/>
    <rect height="2.2909" rx="0.7996" transform="translate(25.0954 115.9214) rotate(-123.0299)" width="6.7909" x="40.6028" y="50.0066"/>
    <rect height="3.4169" rx="1.1751" transform="translate(-22.9272 34.7777) rotate(-33.0299)" width="3.4169" x="45.4756" y="54.3438"/>
    <line fill="none" stroke="#000" stroke-linecap="round" stroke-linejoin="round" stroke-width="2" x1="39.5146" x2="49.0658" y1="24.6038" y2="31.6584"/>
    <line fill="none" stroke="#000" stroke-linecap="round" stroke-linejoin="round" stroke-width="2" x1="21.5103" x2="31.6384" y1="29.5498" y2="22.4866"/>
  </g>
</svg>