<svg viewBox="6 6 60 60" xmlns="http://www.w3.org/2000/svg">
  <defs>
    <linearGradient id="yellow-gradient" x1="0%" x2="0%" y1="0%" y2="100%">
      <stop offset="0%" style="stop-color:#FDE02F;stop-opacity:1;"/>
      <stop offset="100%" style="stop-color:#F7B209;stop-opacity:1;"/>
    </linearGradient>
  </defs>
  <g id="color">
    <path d="m34.04 34.84h20.66a1.833 1.833 0 0 1 1.833 1.833v6.16a1.833 1.833 0 0 1-1.833 1.833h-19.47a1.833 1.833 0 0 1-1.833-1.833v-7.342a0.6513 0.6513 0 0 1 0.6513-0.6513z" fill="#b1cc33"/>
    <polygon fill="#5c9e31" points="33.04 49.23 33.04 52.68 45.42 52.68 45.41 50.96 46.63 49.22 45.42 49.23 43.28 49.23 43.28 45.86 35.07 45.86 35.07 49.23" stroke-width="0.6579" transform="matrix(1.52 0 0 1.52 -14.33 -25.04)"/>
    <circle cx="29.62" cy="52.29" fill="#d0cfce" r="7.618"/>
    <circle cx="59.08" cy="54.85" fill="#d0cfce" r="5.063"/>
  </g>
  <g id="line">
    <path d="m7.95 7.957s19.41 5.496 25.24 26.36" fill="none" stroke="#000" stroke-linecap="round" stroke-linejoin="round" stroke-width="2"/>
    <path d="m33.16 34.42h21.05a1.868 1.872 0 0 1 1.868 1.872v6.288a1.868 1.872 0 0 1-1.868 1.872h-19.84a1.868 1.872 0 0 1-1.868-1.872v-7.494a0.6638 0.6649 0 0 1 0.6638-0.6649z" fill="none" stroke="#000" stroke-linecap="round" stroke-linejoin="round" stroke-width="2"/>
    <line fill="none" stroke="#000" stroke-linecap="round" stroke-linejoin="round" stroke-width="2" x1="53.32" x2="35.89" y1="55.03" y2="55.03"/>
    <polyline fill="none" points="33.64 49.24 35.06 49.24 35.06 45.87 43.28 45.87 43.28 49.24 45.42 49.24 46.77 49.23 46.77 49.32" stroke="#000" stroke-linecap="round" stroke-linejoin="round" stroke-width="1.29" transform="matrix(1.549 0 0 1.552 -16.13 -26.71)"/>
    <ellipse cx="28.65" cy="52.23" fill="none" rx="7.764" ry="7.776" stroke="#000" stroke-linecap="round" stroke-linejoin="round" stroke-width="2"/>
    <ellipse cx="58.68" cy="54.63" fill="none" rx="5.37" ry="5.379" stroke="#000" stroke-linecap="round" stroke-linejoin="round" stroke-width="2"/>
    <rect height="3.728" rx="1.201" ry="1.201" width="6.725" x="45.58" y="30.7"/>
  </g>
</svg>