<svg style="enable-background:new 0 0 128 128;" viewBox="0 0 128 128" xmlns="http://www.w3.org/2000/svg" xmlns:xlink="http://www.w3.org/1999/xlink">
  <radialGradient id="SVGID_1_" cx="65.9833" cy="98.4499" gradientUnits="userSpaceOnUse" r="98.3301">
    <stop offset="0.2828" style="stop-color:#AFE4FE"/>
    <stop offset="0.7021" style="stop-color:#84D4F9"/>
    <stop offset="0.9653" style="stop-color:#67C9F6"/>
  </radialGradient>
  <path d="M116.62,124.26H11.32c-4.15,0-7.52-3.37-7.52-7.52V11.44c0-4.15,3.37-7.52,7.52-7.52h105.3 c4.15,0,7.52,3.37,7.52,7.52v105.3C124.15,120.89,120.78,124.26,116.62,124.26z" style="fill:url(#SVGID_1_);"/>
  <polygon points="121.3,62.39 102.3,62.39 102.3,84.25 60.19,84.25 60.19,18.84 28.65,18.84 28.65,84.25 24.17,84.25 24.17,49.13 12.34,49.13 12.34,91.78 21.84,91.78 21.84,117.22 118.97,117.22 118.97,106.11 121.3,106.11 " style="fill:#88BABC;"/>
  <rect height="7.59" style="fill:#3F737B;" width="2.37" x="32.41" y="25.13"/>
  <rect height="7.59" style="fill:#3F737B;" width="2.47" x="37.46" y="25.13"/>
  <polygon points="45.27,25.13 42.85,25.13 42.85,32.72 45.21,32.7 " style="fill:#3F737B;"/>
  <polygon points="50.44,25.13 47.84,25.14 47.91,32.72 50.42,32.72 " style="fill:#ABD7DB;"/>
  <rect height="7.59" style="fill:#ABD7DB;" width="2.37" x="32.41" y="25.13"/>
  <rect height="7.59" style="fill:#ABD7DB;" width="2.47" x="37.46" y="25.13"/>
  <polygon points="45.31,25.13 42.85,25.13 42.85,32.72 45.28,32.7 " style="fill:#ABD7DB;"/>
  <polygon points="50.44,37.13 47.84,37.14 47.91,44.72 50.42,44.72 " style="fill:#ABD7DB;"/>
  <rect height="7.59" style="fill:#ABD7DB;" width="2.37" x="32.41" y="37.13"/>
  <rect height="7.59" style="fill:#ABD7DB;" width="2.47" x="37.46" y="37.13"/>
  <polygon points="45.31,37.13 42.85,37.13 42.85,44.72 45.28,44.7 " style="fill:#ABD7DB;"/>
  <rect height="7.59" style="fill:#ABD7DB;" width="2.37" x="32.41" y="49.13"/>
  <rect height="7.59" style="fill:#ABD7DB;" width="2.47" x="37.46" y="49.13"/>
  <polygon points="45.31,49.13 42.85,49.13 42.85,56.72 45.28,56.7 " style="fill:#ABD7DB;"/>
  <polygon points="53.36,25.13 53.35,32.72 55.91,32.72 55.91,25.13 " style="fill:#ABD7DB;"/>
  <rect height="3.94" style="fill:#ABD7DB;" width="2.88" x="105.55" y="81.2"/>
  <rect height="3.94" style="fill:#ABD7DB;" width="2.88" x="111.3" y="81.2"/>
  <rect height="3.94" style="fill:#ABD7DB;" width="2.88" x="105.55" y="73.83"/>
  <rect height="3.94" style="fill:#ABD7DB;" width="2.88" x="111.3" y="73.83"/>
  <rect height="3.94" style="fill:#ABD7DB;" width="2.88" x="105.55" y="66.83"/>
  <rect height="3.94" style="fill:#ABD7DB;" width="2.88" x="111.3" y="66.83"/>
  <radialGradient id="SVGID_2_" cx="65.1785" cy="11.3529" fx="63.7492" fy="11.3904" gradientUnits="userSpaceOnUse" r="124.8695">
    <stop offset="0.5576" style="stop-color:#488187"/>
    <stop offset="0.6746" style="stop-color:#477D83"/>
    <stop offset="0.7977" style="stop-color:#427078"/>
    <stop offset="0.9231" style="stop-color:#3B5B66"/>
    <stop offset="0.9532" style="stop-color:#395561"/>
  </radialGradient>
  <path d="M115,49.4c-0.36,0.73,0,42.7,0,42.7H99.13V68.1h-5.11v-7.67h-4.53v-6.51h-8.16v6.84h-5.19 v7.17h-5.36v34.95h-5.04v-39h2.35v-7.44h-2.35V41.03h-2.65l-3.61-11.16h-7.11L48.8,41.03h-2.79v15.41h-2.48v7.44h2.48v39h-7.18 V67.83H17.19V28.47c0,0-13.35-0.09-13.39-0.05v88.32c0,4.15,3.37,7.52,7.52,7.52h105.3c4.15,0,7.52-3.37,7.52-7.52V49.4H115z" style="fill:url(#SVGID_2_);"/>
  <rect height="2.35" style="fill:#88BABC;" width="29.97" x="5.71" y="116.21"/>
  <rect height="2.35" style="fill:#88BABC;" width="29.97" x="5.71" y="107.86"/>
  <rect height="2.35" style="fill:#ABD7DB;" width="29.97" x="5.71" y="99.21"/>
  <rect height="2.35" style="fill:#DCEDF6;" width="29.97" x="5.71" y="90.86"/>
  <rect height="2.35" style="fill:#DCEDF6;" width="29.97" x="5.71" y="81.21"/>
  <rect height="2.35" style="fill:#DCEDF6;" width="29.97" x="5.71" y="72.86"/>
  <rect height="3.7" style="fill:#88BABC;" width="1.76" x="5.71" y="63.32"/>
  <rect height="3.7" style="fill:#88BABC;" width="1.76" x="11.71" y="63.32"/>
  <rect height="3.7" style="fill:#ABD7DB;" width="1.76" x="5.71" y="55.89"/>
  <rect height="3.7" style="fill:#ABD7DB;" width="1.76" x="11.71" y="55.89"/>
  <rect height="3.7" style="fill:#DCEDF6;" width="1.76" x="5.71" y="48.46"/>
  <rect height="3.7" style="fill:#DCEDF6;" width="1.76" x="11.71" y="48.46"/>
  <rect height="3.7" style="fill:#DCEDF6;" width="1.76" x="5.71" y="41.03"/>
  <rect height="3.7" style="fill:#DCEDF6;" width="1.76" x="11.71" y="41.03"/>
  <rect height="3.7" style="fill:#DCEDF6;" width="1.76" x="5.71" y="33.59"/>
  <rect height="3.7" style="fill:#DCEDF6;" width="1.76" x="11.71" y="33.59"/>
  <rect height="4.76" style="fill:#DCEDF6;" width="2.27" x="49.8" y="64.51"/>
  <rect height="4.76" style="fill:#DCEDF6;" width="2.27" x="55.18" y="64.51"/>
  <rect height="4.76" style="fill:#DCEDF6;" width="2.27" x="60.36" y="64.51"/>
  <rect height="4.76" style="fill:#DCEDF6;" width="2.27" x="49.8" y="73.51"/>
  <rect height="4.76" style="fill:#88BABC;" width="2.27" x="49.8" y="97.7"/>
  <rect height="4.76" style="fill:#88BABC;" width="2.27" x="55.18" y="97.7"/>
  <rect height="4.76" style="fill:#88BABC;" width="2.27" x="60.36" y="97.7"/>
  <rect height="4.76" style="fill:#DCEDF6;" width="2.27" x="55.18" y="73.51"/>
  <rect height="4.76" style="fill:#DCEDF6;" width="2.27" x="60.36" y="73.51"/>
  <rect height="4.76" style="fill:#ABD7DB;" width="2.27" x="49.8" y="82.51"/>
  <rect height="4.76" style="fill:#ABD7DB;" width="2.27" x="55.18" y="82.51"/>
  <rect height="4.76" style="fill:#ABD7DB;" width="2.27" x="60.36" y="82.51"/>
  <path d="M54.01,53.96h4.66v-6.92c0,0,0.17-2.6-2.35-2.66c-2.37-0.06-2.4,2.6-2.4,2.6S54.07,53.96,54.01,53.96 z" style="fill:#DCEDF6;"/>
  <rect height="9.69" style="fill:#DCEDF6;" width="2.27" x="79.85" y="64.16"/>
  <rect height="9.69" style="fill:#DCEDF6;" width="2.27" x="88.36" y="64.16"/>
  <rect height="9.69" style="fill:#DCEDF6;" width="2.27" x="84.15" y="64.16"/>
  <rect height="3.09" style="fill:#DCEDF6;" width="2.27" x="76.37" y="77.58"/>
  <rect height="3.09" style="fill:#DCEDF6;" width="2.27" x="84.19" y="77.58"/>
  <rect height="3.09" style="fill:#DCEDF6;" width="2.27" x="92.01" y="77.58"/>
  <rect height="3.09" style="fill:#DCEDF6;" width="2.27" x="76.37" y="87.58"/>
  <rect height="3.09" style="fill:#DCEDF6;" width="2.27" x="84.19" y="87.58"/>
  <rect height="3.09" style="fill:#DCEDF6;" width="2.27" x="92.01" y="87.58"/>
  <rect height="3.09" style="fill:#ABD7DB;" width="2.27" x="76.37" y="97.03"/>
  <rect height="3.09" style="fill:#ABD7DB;" width="2.27" x="84.19" y="97.03"/>
  <rect height="3.09" style="fill:#ABD7DB;" width="2.27" x="92.01" y="97.03"/>
  <rect height="3.09" style="fill:#88BABC;" width="2.27" x="76.37" y="107.03"/>
  <rect height="3.09" style="fill:#88BABC;" width="2.27" x="84.19" y="107.03"/>
  <rect height="3.09" style="fill:#88BABC;" width="2.27" x="92.01" y="107.03"/>
  <rect height="3.09" style="fill:#88BABC;" width="2.27" x="76.37" y="116.5"/>
  <rect height="3.09" style="fill:#88BABC;" width="2.27" x="84.19" y="116.5"/>
  <rect height="3.09" style="fill:#88BABC;" width="2.27" x="92.01" y="116.5"/>
</svg>