<svg viewBox="0 0 1000 1000" xmlns="http://www.w3.org/2000/svg">
  <defs/>
  <path id="black_stripe" d="M8,195.25 C178.83,110.03 349.03,140.83 521.26,167.28 C676.47,191.12 833.42,211.85 992,132.75 L992,804.75 C821.17,889.97 650.97,859.17 478.74,832.72 C323.53,808.88 166.58,788.15 8,867.25 L8,195.25" fill="#000"/>
  <path id="red_stripe" d="M8,419.25 C178.83,334.03 349.03,364.83 521.26,391.28 C676.47,415.12 833.42,435.85 992,356.75 L992,804.75 C821.17,889.97 650.97,859.17 478.74,832.72 C323.53,808.88 166.58,788.15 8,867.25 L8,419.25" fill="#D00"/>
  <path id="gold_stripe" d="M8,643.25 C178.83,558.03 349.03,588.83 521.26,615.28 C676.47,639.12 833.42,659.85 992,580.75 L992,804.75 C821.17,889.97 650.97,859.17 478.74,832.72 C323.53,808.88 166.58,788.15 8,867.25 L8,643.25" fill="#FFCE00"/>
  <path d="M8,195.25 C178.83,110.03 349.03,140.83 521.26,167.28 C676.47,191.12 833.42,211.85 992,132.75 L992,804.75 C821.17,889.97 650.97,859.17 478.74,832.72 C323.53,808.88 166.58,788.15 8,867.25 L8,195.25 M39.25,214.64 L39.25,819.14 C345.81,690.88 650.43,915.18 960.75,785.36 L960.75,180.86 C654.19,309.12 349.57,84.82 39.25,214.64" fill="#1A1A1A" opacity="0.2"/>
</svg>