<svg viewBox="0 0 1000 1000" xmlns="http://www.w3.org/2000/svg">
  <defs/>
  <path d="M8,195.25 C178.83,110.03 349.03,140.83 521.26,167.28 C676.47,191.12 833.42,211.85 992,132.75 L992,804.75 C821.17,889.97 650.97,859.17 478.74,832.72 C323.53,808.88 166.58,788.15 8,867.25 L8,195.25" fill="#0038a8"/>
  <path d="M8,531.25 C178.83,446.03 349.03,476.83 521.26,503.28 C676.47,527.12 833.42,547.85 992,468.75 L992,804.75 C821.17,889.97 650.97,859.17 478.74,832.72 C323.53,808.88 166.58,788.15 8,867.25 L8,531.25" fill="#ce1126"/>
  <path d="M434.08,490.05 C293.49,580.83 152.58,681.08 8,867.25 L8,195.25 C148.67,235.96 289.09,354.99 434.08,490.05" fill="#fff"/>
  <path d="M210.27,477.08 C210.03,514.48 188.4,545.27 161.07,549.84 C133.7,553.81 112.11,529.95 111.87,492.65 C112.11,455.23 133.74,420.06 161.07,415.44 C188.44,411.52 210.03,439.76 210.27,477.08" fill="#fcd116"/>
  <path d="M57.2,509.76 L63.59,516.13 C95.78,501.68 127.92,490.82 161.07,482.64 C128.89,484.81 96.75,489.73 63.59,498.67 L57.2,509.76" fill="#fcd116"/>
  <path id="g" d="M68.13,522.5 L73.35,527.83 C102.31,510.21 131.24,495.43 161.07,482.64 C130.4,492.97 99.75,505.79 68.13,522.5" fill="#fcd116"/>
  <path d="M68.13,489.08 L73.35,480.16 C102.31,478.28 131.23,479.22 161.07,482.64 C130.39,481.94 99.74,483.74 68.13,489.08" fill="#fcd116"/>
  <path d="M87.62,399.09 L87.62,411.44 C111.85,433.08 136.09,456.64 161.07,482.64 C139.81,452.86 118.55,424.29 96.66,396.43 L87.62,399.09" fill="#fcd116"/>
  <path d="M86.7,421.75 L86.7,431.83 C111.24,446.7 135.78,463.53 161.07,482.64 C136.52,460.77 111.98,440.5 86.7,421.75" fill="#fcd116"/>
  <path d="M104.01,393.13 L111.38,391.2 L161.07,482.64 L104.01,393.13" fill="#fcd116"/>
  <path d="M161.07,340.78 L154.68,350.54 L161.07,482.64 L167.46,348.55 L161.07,340.78" fill="#fcd116"/>
  <path d="M148.83,357.76 L143.62,365.84 L161.07,482.64 L148.83,357.76" fill="#fcd116"/>
  <path d="M173.3,353.94 L178.52,360.39 L161.07,482.64 L173.3,353.94" fill="#fcd116"/>
  <path d="M234.51,375.46 L225.47,375.84 L161.07,482.64 C185.31,449.84 209.54,418.62 234.51,387.8 L234.51,375.46" fill="#fcd116"/>
  <path d="M218.13,374.99 L210.75,375.48 L161.07,482.64 L218.13,374.99" fill="#fcd116"/>
  <path d="M235.43,397.81 L235.43,407.88 C210.89,431.13 186.36,455.64 161.07,482.64 C185.61,453.11 210.15,425.19 235.43,397.81" fill="#fcd116"/>
  <path d="M264.93,475.32 L258.54,466.59 C226.37,469.58 194.22,474.53 161.07,482.64 C193.24,480.53 225.39,481.19 258.54,484.04 L264.93,475.32" fill="#fcd116"/>
  <path d="M254,458.63 L248.78,451.57 C219.84,459.92 190.9,469.91 161.07,482.64 C191.75,472.37 222.4,464.62 254,458.63" fill="#fcd116"/>
  <path d="M254,492.05 L248.78,499.24 C219.83,491.85 190.89,486.12 161.07,482.64 C191.74,483.4 222.39,486.67 254,492.05" fill="#fcd116"/>
  <path d="M234.51,576.09 L234.51,563.75 C210.27,535.6 186.03,508.67 161.07,482.64 L225.47,576.47 L234.51,576.09" fill="#fcd116"/>
  <path d="M235.43,553.68 L235.43,543.61 C210.89,522.07 186.35,501.79 161.07,482.64 C185.6,504.55 210.14,528.06 235.43,553.68" fill="#fcd116"/>
  <path d="M218.13,578.13 L210.75,578.62 L161.07,482.64 L218.13,578.13" fill="#fcd116"/>
  <path d="M161.07,624.51 L167.46,614.82 L161.07,482.64 L154.68,616.82 L161.07,624.51" fill="#fcd116"/>
  <path d="M173.3,607.8 L178.52,600.01 L161.07,482.64 L173.3,607.8" fill="#fcd116"/>
  <path d="M148.83,611.63 L143.62,605.46 L161.07,482.64 L148.83,611.63" fill="#fcd116"/>
  <path d="M87.62,599.72 L96.66,597.05 L161.07,482.64 C136.83,515.47 112.6,549.86 87.62,587.38 L87.62,599.72" fill="#fcd116"/>
  <path d="M104.01,596.27 L111.38,594.34 L161.07,482.64 L104.01,596.27" fill="#fcd116"/>
  <path d="M86.7,577.63 L86.7,567.55 C111.25,537.63 135.79,509.68 161.07,482.64 C136.53,512.21 111.99,543.37 86.7,577.63" fill="#fcd116"/>
  <path id="t" d="M384.88,483.55 L366.39,490.25 L366,516.93 L354.17,494.42 L335.44,500.49 L346.62,479.51 L384.88,483.55" fill="#fcd116"/>
  <path d="M384.88,483.55 L366.39,472.69 L366,445.92 L354.17,466.02 L335.44,456.6 L346.62,479.51 L384.88,483.55" fill="#fcd116"/>
  <path d="M32.6,797.54 L36.28,769.69 C30.75,767.49 25.22,765.4 19.53,763.37 L38.95,751.39 L43.41,723.51 L51.73,744.39 L32.6,797.54" fill="#fcd116"/>
  <path d="M32.6,797.54 L47.41,773.88 L64.56,780.27 L56.96,758.42 L71.24,735 C64.8,737.96 58.37,741.05 51.73,744.39 L32.6,797.54" fill="#fcd116"/>
  <path d="M32.6,241.93 L47.41,253.23 L64.56,233.84 L56.96,261.27 L71.24,274.43 C64.8,275.9 58.37,277.5 51.73,279.3 L32.6,241.93" fill="#fcd116"/>
  <path d="M32.6,241.93 L36.28,266.6 L19.53,287.95 C25.94,286.05 32.35,284.29 38.95,282.65 L43.41,306.83 L51.73,279.3 L32.6,241.93" fill="#fcd116"/>
  <path d="M8,195.25 C178.83,110.03 349.03,140.83 521.26,167.28 C676.47,191.12 833.42,211.85 992,132.75 L992,804.75 C821.17,889.97 650.97,859.17 478.74,832.72 C323.53,808.88 166.58,788.15 8,867.25 L8,195.25 M39.25,214.64 L39.25,819.14 C345.81,690.88 650.43,915.18 960.75,785.36 L960.75,180.86 C654.19,309.12 349.57,84.82 39.25,214.64" fill="#1A1A1A" opacity="0.2"/>
</svg>